<svg width="224" height="76" viewBox="0 0 224 76" fill="none" xmlns="http://www.w3.org/2000/svg">
<path d="M221.645 0.304688H1.97106C0.882476 0.304688 0 1.18644 0 2.27413V73.9732C0 75.0609 0.882476 75.9426 1.97106 75.9426H221.645C222.734 75.9426 223.616 75.0609 223.616 73.9732V2.27413C223.616 1.18644 222.734 0.304688 221.645 0.304688Z" fill="#4A4A4A"/>
<path d="M64.7559 34.2246L61.9316 42H60.7773L64.0293 33.4688H64.7734L64.7559 34.2246ZM67.123 42L64.293 34.2246L64.2754 33.4688H65.0195L68.2832 42H67.123ZM66.9766 38.8418V39.7676H62.1836V38.8418H66.9766ZM74.8809 37.2832V38.209H71.3828V37.2832H74.8809ZM69.3027 39.2871H70.4277C70.4902 39.6895 70.5938 40.0332 70.7383 40.3184C70.8867 40.6035 71.1035 40.8223 71.3887 40.9746C71.6738 41.123 72.0566 41.1973 72.5371 41.1973C72.916 41.1973 73.2441 41.1191 73.5215 40.9629C73.7988 40.8027 74.0273 40.584 74.207 40.3066C74.3867 40.0293 74.5195 39.707 74.6055 39.3398C74.6953 38.9727 74.7402 38.5801 74.7402 38.1621V37.3066C74.7402 36.9434 74.709 36.6074 74.6465 36.2988C74.584 35.9863 74.4902 35.707 74.3652 35.4609C74.2402 35.2109 74.084 34.998 73.8965 34.8223C73.7129 34.6465 73.498 34.5117 73.252 34.418C73.0098 34.3242 72.7383 34.2773 72.4375 34.2773C72 34.2773 71.6426 34.3555 71.3652 34.5117C71.0918 34.668 70.8809 34.8906 70.7324 35.1797C70.5879 35.4648 70.4863 35.8066 70.4277 36.2051H69.3027C69.3613 35.6426 69.5156 35.1484 69.7656 34.7227C70.0156 34.293 70.3613 33.957 70.8027 33.7148C71.248 33.4727 71.793 33.3516 72.4375 33.3516C72.9648 33.3516 73.4395 33.4453 73.8613 33.6328C74.2832 33.8203 74.6426 34.0879 74.9395 34.4355C75.2402 34.7832 75.4688 35.2012 75.625 35.6895C75.7852 36.1777 75.8652 36.7207 75.8652 37.3184V38.1621C75.8652 38.7598 75.7852 39.3027 75.625 39.791C75.4688 40.2754 75.2441 40.6914 74.9512 41.0391C74.6582 41.3828 74.3066 41.6484 73.8965 41.8359C73.4902 42.0234 73.0371 42.1172 72.5371 42.1172C71.8535 42.1172 71.2832 41.9941 70.8262 41.748C70.3691 41.498 70.0156 41.1602 69.7656 40.7344C69.5195 40.3086 69.3652 39.8262 69.3027 39.2871ZM80.6699 38.6543H78.3906V37.7344H80.6699C81.1113 37.7344 81.4688 37.6641 81.7422 37.5234C82.0156 37.3828 82.2148 37.1875 82.3398 36.9375C82.4688 36.6875 82.5332 36.4023 82.5332 36.082C82.5332 35.7891 82.4688 35.5137 82.3398 35.2559C82.2148 34.998 82.0156 34.791 81.7422 34.6348C81.4688 34.4746 81.1113 34.3945 80.6699 34.3945H78.6543V42H77.5234V33.4688H80.6699C81.3145 33.4688 81.8594 33.5801 82.3047 33.8027C82.75 34.0254 83.0879 34.334 83.3184 34.7285C83.5488 35.1191 83.6641 35.5664 83.6641 36.0703C83.6641 36.6172 83.5488 37.084 83.3184 37.4707C83.0879 37.8574 82.75 38.1523 82.3047 38.3555C81.8594 38.5547 81.3145 38.6543 80.6699 38.6543ZM91.6621 37.4648V38.0039C91.6621 38.6445 91.582 39.2188 91.4219 39.7266C91.2617 40.2344 91.0312 40.666 90.7305 41.0215C90.4297 41.377 90.0684 41.6484 89.6465 41.8359C89.2285 42.0234 88.7598 42.1172 88.2402 42.1172C87.7363 42.1172 87.2734 42.0234 86.8516 41.8359C86.4336 41.6484 86.0703 41.377 85.7617 41.0215C85.457 40.666 85.2207 40.2344 85.0527 39.7266C84.8848 39.2188 84.8008 38.6445 84.8008 38.0039V37.4648C84.8008 36.8242 84.8828 36.252 85.0469 35.748C85.2148 35.2402 85.4512 34.8086 85.7559 34.4531C86.0605 34.0938 86.4219 33.8203 86.8398 33.6328C87.2617 33.4453 87.7246 33.3516 88.2285 33.3516C88.748 33.3516 89.2168 33.4453 89.6348 33.6328C90.0566 33.8203 90.418 34.0938 90.7188 34.4531C91.0234 34.8086 91.2559 35.2402 91.416 35.748C91.5801 36.252 91.6621 36.8242 91.6621 37.4648ZM90.543 38.0039V37.4531C90.543 36.9453 90.4902 36.4961 90.3848 36.1055C90.2832 35.7148 90.1328 35.3867 89.9336 35.1211C89.7344 34.8555 89.4902 34.6543 89.2012 34.5176C88.916 34.3809 88.5918 34.3125 88.2285 34.3125C87.877 34.3125 87.5586 34.3809 87.2734 34.5176C86.9922 34.6543 86.75 34.8555 86.5469 35.1211C86.3477 35.3867 86.1934 35.7148 86.084 36.1055C85.9746 36.4961 85.9199 36.9453 85.9199 37.4531V38.0039C85.9199 38.5156 85.9746 38.9688 86.084 39.3633C86.1934 39.7539 86.3496 40.084 86.5527 40.3535C86.7598 40.6191 87.0039 40.8203 87.2852 40.957C87.5703 41.0938 87.8887 41.1621 88.2402 41.1621C88.6074 41.1621 88.9336 41.0938 89.2188 40.957C89.5039 40.8203 89.7441 40.6191 89.9395 40.3535C90.1387 40.084 90.2891 39.7539 90.3906 39.3633C90.4922 38.9688 90.543 38.5156 90.543 38.0039ZM98.8105 37.2832V38.209H95.3125V37.2832H98.8105ZM93.2324 39.2871H94.3574C94.4199 39.6895 94.5234 40.0332 94.668 40.3184C94.8164 40.6035 95.0332 40.8223 95.3184 40.9746C95.6035 41.123 95.9863 41.1973 96.4668 41.1973C96.8457 41.1973 97.1738 41.1191 97.4512 40.9629C97.7285 40.8027 97.957 40.584 98.1367 40.3066C98.3164 40.0293 98.4492 39.707 98.5352 39.3398C98.625 38.9727 98.6699 38.5801 98.6699 38.1621V37.3066C98.6699 36.9434 98.6387 36.6074 98.5762 36.2988C98.5137 35.9863 98.4199 35.707 98.2949 35.4609C98.1699 35.2109 98.0137 34.998 97.8262 34.8223C97.6426 34.6465 97.4277 34.5117 97.1816 34.418C96.9395 34.3242 96.668 34.2773 96.3672 34.2773C95.9297 34.2773 95.5723 34.3555 95.2949 34.5117C95.0215 34.668 94.8105 34.8906 94.6621 35.1797C94.5176 35.4648 94.416 35.8066 94.3574 36.2051H93.2324C93.291 35.6426 93.4453 35.1484 93.6953 34.7227C93.9453 34.293 94.291 33.957 94.7324 33.7148C95.1777 33.4727 95.7227 33.3516 96.3672 33.3516C96.8945 33.3516 97.3691 33.4453 97.791 33.6328C98.2129 33.8203 98.5723 34.0879 98.8691 34.4355C99.1699 34.7832 99.3984 35.2012 99.5547 35.6895C99.7148 36.1777 99.7949 36.7207 99.7949 37.3184V38.1621C99.7949 38.7598 99.7148 39.3027 99.5547 39.791C99.3984 40.2754 99.1738 40.6914 98.8809 41.0391C98.5879 41.3828 98.2363 41.6484 97.8262 41.8359C97.4199 42.0234 96.9668 42.1172 96.4668 42.1172C95.7832 42.1172 95.2129 41.9941 94.7559 41.748C94.2988 41.498 93.9453 41.1602 93.6953 40.7344C93.4492 40.3086 93.2949 39.8262 93.2324 39.2871ZM102.637 33.4688V42H101.506V33.4688H102.637ZM107.893 33.4688L104.189 38.1621H102.186L102.01 37.2246H103.516L106.492 33.4688H107.893ZM106.756 42L103.551 38.0156L104.184 37.0254L108.139 42H106.756ZM114.127 39.2871H115.252C115.193 39.8262 115.039 40.3086 114.789 40.7344C114.539 41.1602 114.186 41.498 113.729 41.748C113.271 41.9941 112.701 42.1172 112.018 42.1172C111.518 42.1172 111.062 42.0234 110.652 41.8359C110.246 41.6484 109.896 41.3828 109.604 41.0391C109.311 40.6914 109.084 40.2754 108.924 39.791C108.768 39.3027 108.689 38.7598 108.689 38.1621V37.3125C108.689 36.7148 108.768 36.1738 108.924 35.6895C109.084 35.2012 109.312 34.7832 109.609 34.4355C109.91 34.0879 110.271 33.8203 110.693 33.6328C111.115 33.4453 111.59 33.3516 112.117 33.3516C112.762 33.3516 113.307 33.4727 113.752 33.7148C114.197 33.957 114.543 34.293 114.789 34.7227C115.039 35.1484 115.193 35.6426 115.252 36.2051H114.127C114.072 35.8066 113.971 35.4648 113.822 35.1797C113.674 34.8906 113.463 34.668 113.189 34.5117C112.916 34.3555 112.559 34.2773 112.117 34.2773C111.738 34.2773 111.404 34.3496 111.115 34.4941C110.83 34.6387 110.59 34.8438 110.395 35.1094C110.203 35.375 110.059 35.6934 109.961 36.0645C109.863 36.4355 109.814 36.8477 109.814 37.3008V38.1621C109.814 38.5801 109.857 38.9727 109.943 39.3398C110.033 39.707 110.168 40.0293 110.348 40.3066C110.527 40.584 110.756 40.8027 111.033 40.9629C111.311 41.1191 111.639 41.1973 112.018 41.1973C112.498 41.1973 112.881 41.1211 113.166 40.9688C113.451 40.8164 113.666 40.5977 113.811 40.3125C113.959 40.0273 114.064 39.6855 114.127 39.2871ZM123.309 33.4688V42H122.184V34.3945H117.977V42H116.846V33.4688H123.309ZM128.506 38.6543H126.227V37.7344H128.506C128.947 37.7344 129.305 37.6641 129.578 37.5234C129.852 37.3828 130.051 37.1875 130.176 36.9375C130.305 36.6875 130.369 36.4023 130.369 36.082C130.369 35.7891 130.305 35.5137 130.176 35.2559C130.051 34.998 129.852 34.791 129.578 34.6348C129.305 34.4746 128.947 34.3945 128.506 34.3945H126.49V42H125.359V33.4688H128.506C129.15 33.4688 129.695 33.5801 130.141 33.8027C130.586 34.0254 130.924 34.334 131.154 34.7285C131.385 35.1191 131.5 35.5664 131.5 36.0703C131.5 36.6172 131.385 37.084 131.154 37.4707C130.924 37.8574 130.586 38.1523 130.141 38.3555C129.695 38.5547 129.15 38.6543 128.506 38.6543ZM138.35 41.0801V42H133.832V41.0801H138.35ZM134.061 33.4688V42H132.93V33.4688H134.061ZM137.752 37.1367V38.0566H133.832V37.1367H137.752ZM138.291 33.4688V34.3945H133.832V33.4688H138.291ZM144.9 39.2871H146.025C145.967 39.8262 145.812 40.3086 145.562 40.7344C145.312 41.1602 144.959 41.498 144.502 41.748C144.045 41.9941 143.475 42.1172 142.791 42.1172C142.291 42.1172 141.836 42.0234 141.426 41.8359C141.02 41.6484 140.67 41.3828 140.377 41.0391C140.084 40.6914 139.857 40.2754 139.697 39.791C139.541 39.3027 139.463 38.7598 139.463 38.1621V37.3125C139.463 36.7148 139.541 36.1738 139.697 35.6895C139.857 35.2012 140.086 34.7832 140.383 34.4355C140.684 34.0879 141.045 33.8203 141.467 33.6328C141.889 33.4453 142.363 33.3516 142.891 33.3516C143.535 33.3516 144.08 33.4727 144.525 33.7148C144.971 33.957 145.316 34.293 145.562 34.7227C145.812 35.1484 145.967 35.6426 146.025 36.2051H144.9C144.846 35.8066 144.744 35.4648 144.596 35.1797C144.447 34.8906 144.236 34.668 143.963 34.5117C143.689 34.3555 143.332 34.2773 142.891 34.2773C142.512 34.2773 142.178 34.3496 141.889 34.4941C141.604 34.6387 141.363 34.8438 141.168 35.1094C140.977 35.375 140.832 35.6934 140.734 36.0645C140.637 36.4355 140.588 36.8477 140.588 37.3008V38.1621C140.588 38.5801 140.631 38.9727 140.717 39.3398C140.807 39.707 140.941 40.0293 141.121 40.3066C141.301 40.584 141.529 40.8027 141.807 40.9629C142.084 41.1191 142.412 41.1973 142.791 41.1973C143.271 41.1973 143.654 41.1211 143.939 40.9688C144.225 40.8164 144.439 40.5977 144.584 40.3125C144.732 40.0273 144.838 39.6855 144.9 39.2871ZM152.717 39.2871H153.842C153.783 39.8262 153.629 40.3086 153.379 40.7344C153.129 41.1602 152.775 41.498 152.318 41.748C151.861 41.9941 151.291 42.1172 150.607 42.1172C150.107 42.1172 149.652 42.0234 149.242 41.8359C148.836 41.6484 148.486 41.3828 148.193 41.0391C147.9 40.6914 147.674 40.2754 147.514 39.791C147.357 39.3027 147.279 38.7598 147.279 38.1621V37.3125C147.279 36.7148 147.357 36.1738 147.514 35.6895C147.674 35.2012 147.902 34.7832 148.199 34.4355C148.5 34.0879 148.861 33.8203 149.283 33.6328C149.705 33.4453 150.18 33.3516 150.707 33.3516C151.352 33.3516 151.896 33.4727 152.342 33.7148C152.787 33.957 153.133 34.293 153.379 34.7227C153.629 35.1484 153.783 35.6426 153.842 36.2051H152.717C152.662 35.8066 152.561 35.4648 152.412 35.1797C152.264 34.8906 152.053 34.668 151.779 34.5117C151.506 34.3555 151.148 34.2773 150.707 34.2773C150.328 34.2773 149.994 34.3496 149.705 34.4941C149.42 34.6387 149.18 34.8438 148.984 35.1094C148.793 35.375 148.648 35.6934 148.551 36.0645C148.453 36.4355 148.404 36.8477 148.404 37.3008V38.1621C148.404 38.5801 148.447 38.9727 148.533 39.3398C148.623 39.707 148.758 40.0293 148.938 40.3066C149.117 40.584 149.346 40.8027 149.623 40.9629C149.9 41.1191 150.229 41.1973 150.607 41.1973C151.088 41.1973 151.471 41.1211 151.756 40.9688C152.041 40.8164 152.256 40.5977 152.4 40.3125C152.549 40.0273 152.654 39.6855 152.717 39.2871Z" fill="white"/>
<path d="M189.279 19.4238H172.382C171.366 19.4238 170.359 19.6239 169.42 20.0127C168.48 20.4014 167.627 20.9712 166.908 21.6894C166.189 22.4077 165.619 23.2605 165.23 24.1989C164.841 25.1374 164.641 26.1433 164.641 27.1591V46.5642C164.64 47.5803 164.84 48.5867 165.229 49.5257C165.617 50.4646 166.188 51.3179 166.907 52.0366C167.625 52.7554 168.479 53.3255 169.419 53.7145C170.358 54.1035 171.365 54.3038 172.382 54.3038H189.279C191.333 54.3038 193.303 53.4883 194.756 52.0369C196.209 50.5854 197.025 48.6168 197.025 46.5642V27.1591C197.025 26.1429 196.824 25.1367 196.435 24.1979C196.046 23.2592 195.475 22.4063 194.756 21.6879C194.037 20.9696 193.183 20.3999 192.243 20.0114C191.303 19.6229 190.296 19.4233 189.279 19.4238ZM170.973 48.7323C170.527 48.7323 170.091 48.6001 169.72 48.3523C169.348 48.1046 169.059 47.7525 168.889 47.3406C168.718 46.9286 168.673 46.4753 168.76 46.038C168.847 45.6006 169.062 45.1989 169.378 44.8836C169.693 44.5683 170.095 44.3536 170.533 44.2666C170.971 44.1796 171.424 44.2243 171.837 44.3949C172.249 44.5656 172.601 44.8545 172.849 45.2253C173.097 45.596 173.229 46.0319 173.229 46.4778C173.229 46.7739 173.171 47.067 173.058 47.3406C172.944 47.6141 172.778 47.8626 172.569 48.072C172.359 48.2813 172.11 48.4474 171.837 48.5607C171.563 48.674 171.269 48.7323 170.973 48.7323ZM179.419 35.0585C179.419 35.5659 179.218 36.0526 178.858 36.4114C178.499 36.7702 178.012 36.9718 177.504 36.9718H169.94C169.432 36.9718 168.945 36.7702 168.586 36.4114C168.227 36.0526 168.025 35.5659 168.025 35.0585V30.2558C168.025 29.7564 168.224 29.2774 168.577 28.9243C168.931 28.5711 169.41 28.3727 169.91 28.3727H177.535C178.035 28.3727 178.514 28.5711 178.867 28.9243C179.221 29.2774 179.419 29.7564 179.419 30.2558V35.0585ZM178.576 23.3455C178.576 22.8996 178.709 22.4637 178.957 22.0929C179.205 21.7222 179.557 21.4332 179.969 21.2626C180.382 21.0919 180.835 21.0473 181.273 21.1343C181.711 21.2213 182.113 21.436 182.428 21.7513C182.744 22.0666 182.959 22.4683 183.046 22.9056C183.133 23.343 183.088 23.7962 182.917 24.2082C182.747 24.6202 182.457 24.9723 182.086 25.22C181.715 25.4677 181.279 25.6 180.833 25.6C180.234 25.6 179.66 25.3624 179.237 24.9396C178.814 24.5168 178.576 23.9434 178.576 23.3455ZM190.679 48.7323C190.233 48.7323 189.797 48.6001 189.426 48.3523C189.055 48.1046 188.766 47.7525 188.595 47.3406C188.424 46.9286 188.379 46.4753 188.466 46.038C188.553 45.6006 188.768 45.1989 189.084 44.8836C189.399 44.5683 189.802 44.3536 190.239 44.2666C190.677 44.1796 191.131 44.2243 191.543 44.3949C191.955 44.5656 192.308 44.8545 192.556 45.2253C192.803 45.596 192.936 46.0319 192.936 46.4778C192.936 47.0735 192.7 47.645 192.279 48.0674C191.859 48.4898 191.289 48.7289 190.692 48.7323H190.679ZM193.649 35.0585C193.648 35.5663 193.445 36.0529 193.085 36.4116C192.726 36.7703 192.238 36.9718 191.73 36.9718H184.139C183.631 36.9718 183.144 36.7703 182.784 36.4116C182.424 36.0529 182.221 35.5663 182.22 35.0585V30.2558C182.221 30.0057 182.271 29.7583 182.368 29.5278C182.465 29.2973 182.607 29.0884 182.786 28.9132C182.964 28.738 183.176 28.6 183.408 28.5072C183.641 28.4144 183.889 28.3687 184.139 28.3727H191.76C192.008 28.3721 192.253 28.4204 192.483 28.5148C192.712 28.6092 192.92 28.7478 193.095 28.9227C193.271 29.0976 193.41 29.3054 193.505 29.5342C193.6 29.7629 193.649 30.0081 193.649 30.2558V35.0585Z" fill="#EBA707"/>
<path d="M188.595 57.043H173.722V60.1354H188.595V57.043Z" fill="#EBA707"/>
<path d="M51.0011 34.8894H24.7937L34.8954 24.796L30.3222 20.2266L12.4141 38.12L30.3222 56.0135L34.8954 51.4483L24.7937 41.3506H51.0011V34.8894Z" fill="#EBA707"/>
</svg>
