<svg width="69" height="69" viewBox="0 0 69 69" fill="none" xmlns="http://www.w3.org/2000/svg">
<g clip-path="url(#clip0_1_10667)">
<path fill-rule="evenodd" clip-rule="evenodd" d="M57.2004 62.0991H35.2198C33.9936 62.0991 33.3526 61.4577 33.3526 60.2308V50.1679C33.3526 48.9409 33.9947 48.2996 35.2198 48.2996H57.2004C57.9432 48.2996 64.6378 53.0257 65.8542 53.8728C68.1787 55.4916 65.0786 57.0206 64.7318 57.2734L59.8443 60.5767C59.3127 60.9313 57.7977 62.1002 57.2004 62.1002V62.0991ZM2.31895 34.4989C2.31895 34.2899 2.47756 33.9177 2.57382 33.7481C2.93809 33.1111 8.25767 29.7225 9.15684 29.1227C9.68847 28.7681 11.2035 27.5991 11.8008 27.5991H33.7814C35.0076 27.5991 35.6486 28.2416 35.6486 29.4675V39.5304C35.6486 40.7573 35.0065 41.3987 33.7814 41.3987H11.8008C11.1674 41.3987 7.50288 38.7708 6.74372 38.2651C6.22085 37.9171 2.92934 35.7926 2.62852 35.3395C2.51475 35.1688 2.31895 34.7364 2.31895 34.4989ZM57.2004 20.6993H35.2198C33.9936 20.6993 33.3526 20.0569 33.3526 18.831V8.76811C33.3526 7.54116 33.9947 6.89978 35.2198 6.89978H57.2004C57.7966 6.89978 59.2493 8.02713 59.7579 8.36642C60.6265 8.94542 61.3889 9.45436 62.2575 10.0345C62.8996 10.4624 65.9767 12.3658 66.3727 12.9601C67.4239 14.5405 65.4691 15.3363 64.7318 15.8737C63.7988 16.5533 57.8688 20.7004 57.2004 20.7004V20.6993ZM31.0532 8.04902V19.549C31.0532 21.217 32.8341 22.9989 34.5011 22.9989H41.397V45.9989H34.5011C32.8341 45.9989 31.0532 47.7808 31.0532 49.4488V60.9488C31.0532 62.6168 32.8341 64.3987 34.5011 64.3987H41.397V66.6983H27.6053V43.6983H34.5011C36.1682 43.6983 37.9491 41.9164 37.9491 40.2484V28.7484C37.9491 27.0803 36.1682 25.2985 34.5011 25.2985H27.6053V6.03621C27.6053 3.80561 29.1105 2.29847 31.3409 2.29847H37.6625C39.3088 2.29847 40.8063 3.29009 41.1104 4.59803C39.0419 4.59803 36.3509 4.44699 34.36 4.59912C32.7859 4.72062 31.0543 6.36785 31.0543 8.04792L31.0532 8.04902ZM25.307 5.31822V25.2996H10.9399C10.1402 25.2996 2.84073 30.5138 1.85842 31.1628C-0.648773 32.8199 -0.555793 36.2239 1.77091 37.7802C2.80901 38.4753 3.74975 39.0958 4.79113 39.7898C5.83361 40.4848 6.76013 41.1513 7.77964 41.831C8.37799 42.2305 10.3317 43.6993 10.9399 43.6993H25.307V66.6994H10.0779C8.9676 66.6994 8.9676 68.9989 10.0779 68.9989H58.9244C60.0347 68.9989 60.0347 66.6994 58.9244 66.6994H43.6953V64.3998H58.0624C58.6706 64.3998 60.5302 62.9933 61.1373 62.5884C62.205 61.8759 63.0757 61.2465 64.1258 60.5471C66.9415 58.6689 68.9816 57.963 68.9816 55.056C68.9816 52.4817 66.5378 51.4616 64.2122 49.9096L59.759 46.8909C59.3313 46.6053 58.6301 46 58.0635 46H43.6964V23H58.0635C58.6279 23 59.2515 22.4473 59.6726 22.166L67.145 17.1367C69.6522 15.4796 69.5592 12.0757 67.2325 10.5193C66.1944 9.82431 65.2536 9.20372 64.2122 8.5098C63.1698 7.81479 62.2432 7.14824 61.2237 6.46855C60.6254 6.06905 58.6717 4.60022 58.0635 4.60022H43.5531C43.5038 2.40792 40.709 0 38.3812 0H30.6233C27.9728 0 25.3081 2.66732 25.3081 5.31822H25.307Z" fill="#797979"/>
<path fill-rule="evenodd" clip-rule="evenodd" d="M12.6641 32.199C12.6641 32.8941 13.118 33.3494 13.8137 33.3494H31.3411C32.4514 33.3494 32.4514 31.0498 31.3411 31.0498H13.8137C13.1191 31.0498 12.6641 31.504 12.6641 32.2001V32.199Z" fill="#EBA707"/>
<path fill-rule="evenodd" clip-rule="evenodd" d="M36.7988 11.5001C36.7988 12.1951 37.2528 12.6504 37.9485 12.6504H55.4759C56.5862 12.6504 56.5862 10.3508 55.4759 10.3508H37.9485C37.2539 10.3508 36.7988 10.8051 36.7988 11.5012V11.5001Z" fill="#EBA707"/>
<path fill-rule="evenodd" clip-rule="evenodd" d="M36.7988 52.9002C36.7988 53.4256 37.1948 54.0505 37.6608 54.0505H55.1882C56.7306 54.0505 56.7306 51.751 55.1882 51.751H37.6608C37.1948 51.751 36.7988 52.3759 36.7988 52.9013V52.9002Z" fill="#EBA707"/>
<path fill-rule="evenodd" clip-rule="evenodd" d="M21.8574 36.7996C21.8574 37.325 22.2534 37.95 22.7194 37.95H31.3392C32.4495 37.95 32.4495 35.6504 31.3392 35.6504H22.7194C22.2534 35.6504 21.8574 36.2754 21.8574 36.8007V36.7996Z" fill="#EBA707"/>
<path fill-rule="evenodd" clip-rule="evenodd" d="M36.7988 16.1002C36.7988 16.6255 37.1948 17.2505 37.6608 17.2505H46.2807C47.3909 17.2505 47.3909 14.9509 46.2807 14.9509H37.6608C37.1948 14.9509 36.7988 15.5759 36.7988 16.1013V16.1002Z" fill="#EBA707"/>
<path fill-rule="evenodd" clip-rule="evenodd" d="M36.7988 57.5001C36.7988 58.0254 37.1948 58.6504 37.6608 58.6504H46.2807C47.3909 58.6504 47.3909 56.3508 46.2807 56.3508H37.6608C37.1948 56.3508 36.7988 56.9758 36.7988 57.5012V57.5001Z" fill="#EBA707"/>
</g>
<defs>
<clipPath id="clip0_1_10667">
<rect width="69" height="69" fill="white"/>
</clipPath>
</defs>
</svg>
