<svg width="65" height="65" viewBox="0 0 65 65" fill="none" xmlns="http://www.w3.org/2000/svg">
<g clip-path="url(#clip0_1_10708)">
<path fill-rule="evenodd" clip-rule="evenodd" d="M22.6663 10.0447C26.6131 7.40758 31.2533 6 36 6C39.1517 6 42.2726 6.62078 45.1844 7.82689C48.0962 9.033 50.742 10.8008 52.9706 13.0294C55.1992 15.258 56.967 17.9038 58.1731 20.8156C59.3792 23.7274 60 26.8483 60 30C60 34.7467 58.5924 39.3869 55.9553 43.3337C53.3181 47.2805 49.5698 50.3566 45.1844 52.1731C40.799 53.9896 35.9734 54.4649 31.3178 53.5388C26.6623 52.6128 22.3859 50.327 19.0294 46.9706C15.673 43.6141 13.3872 39.3377 12.4612 34.6822C11.5351 30.0266 12.0104 25.201 13.8269 20.8156C15.6434 16.4302 18.7195 12.6819 22.6663 10.0447ZM38.4 46.8V49.032C42.6241 48.4963 46.5502 46.5718 49.561 43.561C52.5718 40.5502 54.4963 36.624 55.032 32.4H52.8C52.1635 32.4 51.553 32.1471 51.1029 31.6971C50.6529 31.247 50.4 30.6365 50.4 30C50.4 29.3635 50.6529 28.753 51.1029 28.3029C51.553 27.8529 52.1635 27.6 52.8 27.6H55.032C54.4963 23.3759 52.5718 19.4498 49.561 16.439C46.5502 13.4282 42.6241 11.5037 38.4 10.968V13.2C38.4 13.8365 38.1472 14.447 37.6971 14.8971C37.247 15.3471 36.6365 15.6 36 15.6C35.3635 15.6 34.753 15.3471 34.303 14.8971C33.8529 14.447 33.6 13.8365 33.6 13.2V10.968C29.376 11.5037 25.4498 13.4282 22.439 16.439C19.4282 19.4498 17.5037 23.3759 16.968 27.6H19.2C19.8365 27.6 20.447 27.8529 20.8971 28.3029C21.3472 28.753 21.6 29.3635 21.6 30C21.6 30.6365 21.3472 31.247 20.8971 31.6971C20.447 32.1471 19.8365 32.4 19.2 32.4H16.968C17.5037 36.624 19.4282 40.5502 22.439 43.561C25.4498 46.5718 29.376 48.4963 33.6 49.032V46.8C33.6 46.1635 33.8529 45.553 34.303 45.1029C34.753 44.6528 35.3635 44.4 36 44.4C36.6365 44.4 37.247 44.6528 37.6971 45.1029C38.1472 45.553 38.4 46.1635 38.4 46.8Z" fill="white"/>
<path fill-rule="evenodd" clip-rule="evenodd" d="M43.536 19.32L31.536 24.408C30.9766 24.6504 30.5304 25.0966 30.288 25.656L25.2 37.656C25.011 38.0961 24.958 38.5827 25.0478 39.0532C25.1376 39.5236 25.3662 39.9565 25.704 40.296C26.1471 40.7482 26.751 41.007 27.384 41.016C27.7161 41.0163 28.0441 40.9425 28.344 40.8L40.344 35.712C40.9034 35.4696 41.3496 35.0234 41.592 34.464L46.68 22.464C46.8655 22.0242 46.9156 21.5391 46.824 21.0707C46.7324 20.6023 46.5032 20.1718 46.1657 19.8343C45.8282 19.4968 45.3977 19.2676 44.9293 19.176C44.4609 19.0844 43.9758 19.1345 43.536 19.32ZM32.088 33.96L37.56 31.56L39.96 26.088L34.488 28.488L32.088 33.96Z" fill="#EBA707"/>
</g>
<defs>
<clipPath id="clip0_1_10708">
<rect width="65" height="65" fill="white"/>
</clipPath>
</defs>
</svg>
