<svg width="225" height="77" viewBox="0 0 225 77" fill="none" xmlns="http://www.w3.org/2000/svg">
<path d="M222.294 0.615234H2.6195C1.53091 0.615234 0.648438 1.49698 0.648438 2.58468V74.2837C0.648438 75.3714 1.53091 76.2532 2.6195 76.2532H222.294C223.382 76.2532 224.265 75.3714 224.265 74.2837V2.58468C224.265 1.49698 223.382 0.615234 222.294 0.615234Z" fill="#4A4A4A"/>
<path d="M193.847 50.2773H166.317V54.3631H193.847V50.2773Z" fill="#EBA707"/>
<path d="M161.663 24.589C161.895 24.2634 162.189 23.9862 162.527 23.7728C162.527 23.7728 166.871 22.2266 169.296 22.2266C172.983 22.2266 175.745 23.6648 178.806 25.4874L182.618 27.7462C182.631 27.7508 182.645 27.7508 182.657 27.7462L196.027 25.4485C196.24 25.4122 196.46 25.4408 196.658 25.5306L198.784 26.4937C198.9 26.5483 198.997 26.6345 199.066 26.7423C199.134 26.8501 199.17 26.9751 199.17 27.1027C199.17 27.2302 199.134 27.3552 199.066 27.463C198.997 27.5708 198.9 27.6571 198.784 27.7116L189.94 31.9745C189.931 31.9801 189.922 31.9883 189.917 31.9982C189.911 32.008 189.908 32.0192 189.908 32.0306C189.908 32.042 189.911 32.0532 189.917 32.063C189.922 32.0729 189.931 32.0811 189.94 32.0868L199.113 37.5243L199.251 37.6064C200.981 38.6016 203.023 38.9099 204.97 38.4702L209.699 37.3991C209.938 37.3384 210.19 37.3474 210.425 37.425C210.621 37.4945 210.796 37.6136 210.933 37.7707C211.069 37.9278 211.163 38.1176 211.204 38.3216C211.246 38.5256 211.233 38.7368 211.169 38.9346C211.104 39.1325 210.989 39.3102 210.836 39.4506L205.527 44.3181C205.12 44.6908 204.615 44.9405 204.071 45.0383C203.527 45.1361 202.966 45.0781 202.454 44.8709L199.813 43.7998L184.805 37.4855L163.595 28.5668C161.524 27.7203 160.707 25.9927 161.663 24.589Z" fill="#EBA707"/>
<path d="M180.832 37.7266L187.126 40.3568L188.314 45.5395C188.33 45.6108 188.33 45.6847 188.314 45.756C188.298 45.8272 188.266 45.894 188.221 45.9514C188.176 46.0089 188.119 46.0556 188.053 46.0882C187.988 46.1208 187.916 46.1385 187.843 46.1399H187.225C186.811 46.1471 186.402 46.0494 186.037 45.8561C185.671 45.6628 185.36 45.38 185.133 45.0342L180.832 37.7266Z" fill="#EBA707"/>
<path d="M47.1406 50.1152L28.61 31.5998H42.8959V25.1387H17.5703V50.4435H24.0368V36.1693L42.5674 54.6847L47.1406 50.1152Z" fill="#EBA707"/>
<path d="M70.4785 38.4648V39.0039C70.4785 39.6445 70.3984 40.2188 70.2383 40.7266C70.0781 41.2344 69.8477 41.666 69.5469 42.0215C69.2461 42.377 68.8848 42.6484 68.4629 42.8359C68.0449 43.0234 67.5762 43.1172 67.0566 43.1172C66.5527 43.1172 66.0898 43.0234 65.668 42.8359C65.25 42.6484 64.8867 42.377 64.5781 42.0215C64.2734 41.666 64.0371 41.2344 63.8691 40.7266C63.7012 40.2188 63.6172 39.6445 63.6172 39.0039V38.4648C63.6172 37.8242 63.6992 37.252 63.8633 36.748C64.0312 36.2402 64.2676 35.8086 64.5723 35.4531C64.877 35.0938 65.2383 34.8203 65.6562 34.6328C66.0781 34.4453 66.541 34.3516 67.0449 34.3516C67.5645 34.3516 68.0332 34.4453 68.4512 34.6328C68.873 34.8203 69.2344 35.0938 69.5352 35.4531C69.8398 35.8086 70.0723 36.2402 70.2324 36.748C70.3965 37.252 70.4785 37.8242 70.4785 38.4648ZM69.3594 39.0039V38.4531C69.3594 37.9453 69.3066 37.4961 69.2012 37.1055C69.0996 36.7148 68.9492 36.3867 68.75 36.1211C68.5508 35.8555 68.3066 35.6543 68.0176 35.5176C67.7324 35.3809 67.4082 35.3125 67.0449 35.3125C66.6934 35.3125 66.375 35.3809 66.0898 35.5176C65.8086 35.6543 65.5664 35.8555 65.3633 36.1211C65.1641 36.3867 65.0098 36.7148 64.9004 37.1055C64.791 37.4961 64.7363 37.9453 64.7363 38.4531V39.0039C64.7363 39.5156 64.791 39.9688 64.9004 40.3633C65.0098 40.7539 65.166 41.084 65.3691 41.3535C65.5762 41.6191 65.8203 41.8203 66.1016 41.957C66.3867 42.0938 66.7051 42.1621 67.0566 42.1621C67.4238 42.1621 67.75 42.0938 68.0352 41.957C68.3203 41.8203 68.5605 41.6191 68.7559 41.3535C68.9551 41.084 69.1055 40.7539 69.207 40.3633C69.3086 39.9688 69.3594 39.5156 69.3594 39.0039ZM75.1602 34.4688V43H74.0469V34.4688H75.1602ZM77.9023 34.4688V35.3945H71.3105V34.4688H77.9023ZM85.6836 34.4688V43H84.5586V35.3945H80.3516V43H79.2207V34.4688H85.6836ZM90.8809 39.6543H88.6016V38.7344H90.8809C91.3223 38.7344 91.6797 38.6641 91.9531 38.5234C92.2266 38.3828 92.4258 38.1875 92.5508 37.9375C92.6797 37.6875 92.7441 37.4023 92.7441 37.082C92.7441 36.7891 92.6797 36.5137 92.5508 36.2559C92.4258 35.998 92.2266 35.791 91.9531 35.6348C91.6797 35.4746 91.3223 35.3945 90.8809 35.3945H88.8652V43H87.7344V34.4688H90.8809C91.5254 34.4688 92.0703 34.5801 92.5156 34.8027C92.9609 35.0254 93.2988 35.334 93.5293 35.7285C93.7598 36.1191 93.875 36.5664 93.875 37.0703C93.875 37.6172 93.7598 38.084 93.5293 38.4707C93.2988 38.8574 92.9609 39.1523 92.5156 39.3555C92.0703 39.5547 91.5254 39.6543 90.8809 39.6543ZM97.6543 35.2246L94.8301 43H93.6758L96.9277 34.4688H97.6719L97.6543 35.2246ZM100.021 43L97.1914 35.2246L97.1738 34.4688H97.918L101.182 43H100.021ZM99.875 39.8418V40.7676H95.082V39.8418H99.875ZM105.365 39.0098H103.203L103.191 38.1016H105.154C105.479 38.1016 105.762 38.0469 106.004 37.9375C106.246 37.8281 106.434 37.6719 106.566 37.4688C106.703 37.2617 106.771 37.0156 106.771 36.7305C106.771 36.418 106.711 36.1641 106.59 35.9688C106.473 35.7695 106.291 35.625 106.045 35.5352C105.803 35.4414 105.494 35.3945 105.119 35.3945H103.455V43H102.324V34.4688H105.119C105.557 34.4688 105.947 34.5137 106.291 34.6035C106.635 34.6895 106.926 34.8262 107.164 35.0137C107.406 35.1973 107.59 35.4316 107.715 35.7168C107.84 36.002 107.902 36.3438 107.902 36.7422C107.902 37.0938 107.812 37.4121 107.633 37.6973C107.453 37.9785 107.203 38.209 106.883 38.3887C106.566 38.5684 106.195 38.6836 105.77 38.7344L105.365 39.0098ZM105.312 43H102.758L103.396 42.0801H105.312C105.672 42.0801 105.977 42.0176 106.227 41.8926C106.48 41.7676 106.674 41.5918 106.807 41.3652C106.939 41.1348 107.006 40.8633 107.006 40.5508C107.006 40.2344 106.949 39.9609 106.836 39.7305C106.723 39.5 106.545 39.3223 106.303 39.1973C106.061 39.0723 105.748 39.0098 105.365 39.0098H103.754L103.766 38.1016H105.969L106.209 38.4297C106.619 38.4648 106.967 38.582 107.252 38.7812C107.537 38.9766 107.754 39.2266 107.902 39.5312C108.055 39.8359 108.131 40.1719 108.131 40.5391C108.131 41.0703 108.014 41.5195 107.779 41.8867C107.549 42.25 107.223 42.5273 106.801 42.7188C106.379 42.9062 105.883 43 105.312 43ZM115.285 34.4688V35.3945H111.383V34.4688H115.285ZM116.258 34.4688V43H115.127V34.4688H116.258ZM110.996 34.4688H112.121L111.928 38.6465C111.9 39.248 111.854 39.7852 111.787 40.2578C111.725 40.7266 111.635 41.1348 111.518 41.4824C111.4 41.8262 111.248 42.1113 111.061 42.3379C110.873 42.5605 110.643 42.7266 110.369 42.8359C110.1 42.9453 109.775 43 109.396 43H109.092V42.0801L109.326 42.0625C109.545 42.0469 109.732 41.998 109.889 41.916C110.049 41.8301 110.184 41.7012 110.293 41.5293C110.406 41.3574 110.498 41.1348 110.568 40.8613C110.639 40.5879 110.693 40.2539 110.732 39.8594C110.775 39.4609 110.809 38.9961 110.832 38.4648L110.996 34.4688ZM123.717 42.0801V43H119.199V42.0801H123.717ZM119.428 34.4688V43H118.297V34.4688H119.428ZM123.119 38.1367V39.0566H119.199V38.1367H123.119ZM123.658 34.4688V35.3945H119.199V34.4688H123.658ZM130.689 38.1367V39.0566H126.072V38.1367H130.689ZM126.248 34.4688V43H125.117V34.4688H126.248ZM131.674 34.4688V43H130.549V34.4688H131.674ZM134.861 41.043L139.062 34.4688H140.193V43H139.062V36.4199L134.861 43H133.736V34.4688H134.861V41.043ZM147.67 42.0801V43H143.152V42.0801H147.67ZM143.381 34.4688V43H142.25V34.4688H143.381ZM147.072 38.1367V39.0566H143.152V38.1367H147.072ZM147.611 34.4688V35.3945H143.152V34.4688H147.611Z" fill="white"/>
</svg>
