<svg width="106" height="171" viewBox="0 0 106 171" fill="none" xmlns="http://www.w3.org/2000/svg">
<path d="M103.977 0H2.47595C1.38736 0 0.504883 0.881751 0.504883 1.96945V168.642C0.504883 169.73 1.38736 170.612 2.47595 170.612H103.977C105.066 170.612 105.948 169.73 105.948 168.642V1.96945C105.948 0.881751 105.066 0 103.977 0Z" fill="#4A4A4A"/>
<path d="M73.7851 109.666H41.0508V112.059H73.7851V109.666Z" fill="#EBA707"/>
<path d="M51.0434 35.9063H49.9325V53.3117C49.9312 54.6148 49.4695 55.8756 48.629 56.8719C47.7884 57.8682 46.6228 58.5361 45.3377 58.7579V35.9063H39.7919V58.7579C38.5064 58.5369 37.3403 57.8692 36.4996 56.8727C35.6589 55.8762 35.1976 54.615 35.1971 53.3117V35.9063H34.0862C32.9137 35.912 31.7912 36.3813 30.9642 37.2117C30.1372 38.0421 29.6729 39.166 29.6729 40.3375V53.2944C29.6647 56.0694 30.7004 58.7463 32.5747 60.7942C34.4489 62.8421 37.0249 64.1116 39.7919 64.3509V99.5202H45.3377V64.3509C48.1026 64.1172 50.679 62.8548 52.5569 60.8137C54.4347 58.7726 55.4773 56.1015 55.4783 53.3289V40.3721C55.4829 39.7872 55.3715 39.2073 55.1507 38.6657C54.9298 38.1241 54.6039 37.6315 54.1916 37.2163C53.7793 36.8012 53.2889 36.4717 52.7486 36.2468C52.2082 36.022 51.6287 35.9062 51.0434 35.9063Z" fill="#EBA707"/>
<path d="M76.4946 59.6024V38.8714C76.4946 38.2643 76.3214 37.6698 75.9955 37.1575C75.6696 36.6451 75.2044 36.2361 74.6544 35.9783C74.1043 35.7205 73.4922 35.6246 72.8895 35.7017C72.2869 35.7788 71.7187 36.0259 71.2514 36.4139C69.1973 38.1229 67.5444 40.2622 66.4097 42.6804C65.2751 45.0986 64.6865 47.7366 64.6855 50.4073V67.7048C64.6853 69.6168 65.3009 71.4782 66.4413 73.0135C67.5817 74.5489 69.1864 75.6768 71.018 76.2304V99.5053H76.5595V59.6024H76.4946Z" fill="#EBA707"/>
<path d="M29.5117 122.318H30.9238C31.416 122.318 31.8711 122.402 32.2891 122.57C32.7109 122.734 33.0781 122.969 33.3906 123.273C33.707 123.578 33.9531 123.941 34.1289 124.363C34.3047 124.781 34.3926 125.244 34.3926 125.752C34.3926 126.26 34.3047 126.725 34.1289 127.146C33.9531 127.568 33.707 127.934 33.3906 128.242C33.0781 128.547 32.7109 128.783 32.2891 128.951C31.8711 129.115 31.416 129.197 30.9238 129.197H29.5117C29.0195 129.197 28.5645 129.115 28.1465 128.951C27.7285 128.783 27.3613 128.547 27.0449 128.242C26.7324 127.938 26.4883 127.576 26.3125 127.158C26.1406 126.736 26.0547 126.271 26.0547 125.764C26.0547 125.256 26.1406 124.793 26.3125 124.375C26.4883 123.953 26.7324 123.59 27.0449 123.285C27.3613 122.977 27.7285 122.738 28.1465 122.57C28.5645 122.402 29.0195 122.318 29.5117 122.318ZM29.5117 123.209C29 123.209 28.5664 123.316 28.2109 123.531C27.8555 123.742 27.5859 124.039 27.4023 124.422C27.2188 124.805 27.127 125.252 27.127 125.764C27.127 126.15 27.1777 126.5 27.2793 126.812C27.3848 127.125 27.5391 127.393 27.7422 127.615C27.9453 127.838 28.1953 128.01 28.4922 128.131C28.7891 128.252 29.1289 128.312 29.5117 128.312H30.9355C31.4434 128.312 31.873 128.207 32.2246 127.996C32.5801 127.781 32.8496 127.482 33.0332 127.1C33.2207 126.713 33.3145 126.264 33.3145 125.752C33.3145 125.369 33.2617 125.021 33.1562 124.709C33.0508 124.396 32.8965 124.129 32.6934 123.906C32.4941 123.684 32.2461 123.512 31.9492 123.391C31.6562 123.27 31.3184 123.209 30.9355 123.209H29.5117ZM30.7656 121.117V130.352H29.6816V121.117H30.7656ZM38.4648 127.17L40.7207 121.469H42.0215L39.0039 128.576C38.918 128.775 38.8223 128.969 38.7168 129.156C38.6113 129.34 38.4824 129.504 38.3301 129.648C38.1777 129.793 37.9883 129.908 37.7617 129.994C37.5391 130.08 37.2617 130.123 36.9297 130.123C36.8359 130.123 36.7246 130.117 36.5957 130.105C36.4668 130.098 36.3828 130.088 36.3438 130.076L36.3789 129.174C36.4219 129.182 36.5059 129.189 36.6309 129.197C36.7559 129.201 36.8477 129.203 36.9062 129.203C37.1289 129.203 37.3047 129.158 37.4336 129.068C37.5625 128.979 37.666 128.865 37.7441 128.729C37.8262 128.588 37.9004 128.445 37.9668 128.301L38.4648 127.17ZM36.5488 121.469L38.9219 126.783L39.2031 127.832L38.2539 127.902L35.2832 121.469H36.5488ZM49.5977 129.08V130H43.1406V129.08H49.5977ZM43.3223 129.08V132.098H42.2031L42.1973 129.08H43.3223ZM50.582 129.08L50.5703 132.092H49.4512V129.08H50.582ZM48.4902 121.469V122.395H44.752V121.469H48.4902ZM49.4629 121.469V130H48.3379V121.469H49.4629ZM44.3652 121.469H45.4961L45.3203 124.902C45.2969 125.418 45.248 125.895 45.1738 126.332C45.0996 126.766 45.0078 127.162 44.8984 127.521C44.7891 127.881 44.6641 128.203 44.5234 128.488C44.3828 128.77 44.2324 129.014 44.0723 129.221C43.9121 129.424 43.7441 129.592 43.5684 129.725C43.3965 129.854 43.2227 129.945 43.0469 130H42.5312V129.08H42.8945C42.9961 128.971 43.1113 128.812 43.2402 128.605C43.373 128.398 43.5039 128.131 43.6328 127.803C43.7656 127.471 43.8809 127.066 43.9785 126.59C44.0801 126.113 44.1484 125.551 44.1836 124.902L44.3652 121.469ZM53.0957 121.469V130H51.9648V121.469H53.0957ZM58.3516 121.469L54.6484 126.162H52.6445L52.4688 125.225H53.9746L56.9512 121.469H58.3516ZM57.2148 130L54.0098 126.016L54.6426 125.025L58.5977 130H57.2148ZM66.0039 125.465V126.004C66.0039 126.645 65.9238 127.219 65.7637 127.727C65.6035 128.234 65.373 128.666 65.0723 129.021C64.7715 129.377 64.4102 129.648 63.9883 129.836C63.5703 130.023 63.1016 130.117 62.582 130.117C62.0781 130.117 61.6152 130.023 61.1934 129.836C60.7754 129.648 60.4121 129.377 60.1035 129.021C59.7988 128.666 59.5625 128.234 59.3945 127.727C59.2266 127.219 59.1426 126.645 59.1426 126.004V125.465C59.1426 124.824 59.2246 124.252 59.3887 123.748C59.5566 123.24 59.793 122.809 60.0977 122.453C60.4023 122.094 60.7637 121.82 61.1816 121.633C61.6035 121.445 62.0664 121.352 62.5703 121.352C63.0898 121.352 63.5586 121.445 63.9766 121.633C64.3984 121.82 64.7598 122.094 65.0605 122.453C65.3652 122.809 65.5977 123.24 65.7578 123.748C65.9219 124.252 66.0039 124.824 66.0039 125.465ZM64.8848 126.004V125.453C64.8848 124.945 64.832 124.496 64.7266 124.105C64.625 123.715 64.4746 123.387 64.2754 123.121C64.0762 122.855 63.832 122.654 63.543 122.518C63.2578 122.381 62.9336 122.312 62.5703 122.312C62.2188 122.312 61.9004 122.381 61.6152 122.518C61.334 122.654 61.0918 122.855 60.8887 123.121C60.6895 123.387 60.5352 123.715 60.4258 124.105C60.3164 124.496 60.2617 124.945 60.2617 125.453V126.004C60.2617 126.516 60.3164 126.969 60.4258 127.363C60.5352 127.754 60.6914 128.084 60.8945 128.354C61.1016 128.619 61.3457 128.82 61.627 128.957C61.9121 129.094 62.2305 129.162 62.582 129.162C62.9492 129.162 63.2754 129.094 63.5605 128.957C63.8457 128.82 64.0859 128.619 64.2812 128.354C64.4805 128.084 64.6309 127.754 64.7324 127.363C64.834 126.969 64.8848 126.516 64.8848 126.004ZM70.8438 126.654H68.5645V125.734H70.8438C71.2852 125.734 71.6426 125.664 71.916 125.523C72.1895 125.383 72.3887 125.188 72.5137 124.938C72.6426 124.688 72.707 124.402 72.707 124.082C72.707 123.789 72.6426 123.514 72.5137 123.256C72.3887 122.998 72.1895 122.791 71.916 122.635C71.6426 122.475 71.2852 122.395 70.8438 122.395H68.8281V130H67.6973V121.469H70.8438C71.4883 121.469 72.0332 121.58 72.4785 121.803C72.9238 122.025 73.2617 122.334 73.4922 122.729C73.7227 123.119 73.8379 123.566 73.8379 124.07C73.8379 124.617 73.7227 125.084 73.4922 125.471C73.2617 125.857 72.9238 126.152 72.4785 126.355C72.0332 126.555 71.4883 126.654 70.8438 126.654ZM78.4199 121.469V130H77.3066V121.469H78.4199ZM81.1621 121.469V122.395H74.5703V121.469H81.1621Z" fill="white"/>
</svg>
