<svg width="224" height="164" viewBox="0 0 224 164" fill="none" xmlns="http://www.w3.org/2000/svg">
<path d="M222.029 0.304688H2.47595C1.38736 0.304688 0.504883 1.18644 0.504883 2.27413V161.268C0.504883 162.356 1.38736 163.237 2.47595 163.237H222.029C223.118 163.237 224 162.356 224 161.268V2.27413C224 1.18644 223.118 0.304688 222.029 0.304688Z" fill="#4A4A4A"/>
<path d="M181.224 35.7543L179.392 33.9187L188.045 25.2721L179.577 16.8156L181.415 14.9844L191.711 25.2721L181.224 35.7543Z" fill="#EBA707"/>
<path d="M181.224 76.8535L179.392 75.0222L188.045 66.3757L179.577 57.9192L181.415 56.0879L191.711 66.3757L181.224 76.8535Z" fill="#EBA707"/>
<path d="M188.772 117.957L178.476 107.669L188.962 97.1914L190.795 99.0226L182.141 107.669L190.605 116.126L188.772 117.957Z" fill="#EBA707"/>
<path d="M193.651 152.626L184.998 143.979L176.534 152.436L174.697 150.605L184.998 140.312L195.484 150.795L193.651 152.626Z" fill="#EBA707"/>
<path d="M40.2066 135.432H39.8046V141.75C39.8051 142.223 39.6377 142.681 39.3322 143.043C39.0267 143.404 38.6029 143.645 38.1361 143.724V135.432H36.1218V143.724C35.655 143.645 35.2312 143.404 34.9257 143.043C34.6203 142.681 34.4529 142.223 34.4533 141.75V135.432H34.0514C33.8398 135.432 33.6304 135.473 33.435 135.554C33.2396 135.635 33.0622 135.754 32.9128 135.904C32.7634 136.053 32.6451 136.231 32.5645 136.426C32.484 136.622 32.4428 136.831 32.4434 137.043V141.75C32.4431 142.756 32.821 143.726 33.5023 144.466C34.1836 145.207 35.1185 145.665 36.1218 145.75V158.512H38.1361V145.75C39.1391 145.664 40.0734 145.206 40.7545 144.465C41.4356 143.725 41.8139 142.756 41.8146 141.75V137.043C41.8146 136.616 41.6453 136.207 41.3439 135.905C41.0424 135.603 40.6335 135.433 40.2066 135.432Z" fill="#EBA707"/>
<path d="M49.4403 144.03V136.507C49.4397 136.287 49.3767 136.071 49.2585 135.886C49.1403 135.7 48.9717 135.552 48.7725 135.458C48.5733 135.365 48.3515 135.329 48.133 135.357C47.9146 135.384 47.7083 135.473 47.5384 135.613C46.7922 136.233 46.1917 137.011 45.7794 137.889C45.367 138.768 45.153 139.726 45.1523 140.696V146.971C45.1525 147.665 45.3762 148.341 45.7903 148.898C46.2045 149.455 46.7871 149.863 47.4519 150.064V158.512H49.4619V144.03H49.4403Z" fill="#EBA707"/>
<path d="M149.757 45.8008H0.504883V46.9971H149.757V45.8008Z" fill="white"/>
<path d="M149.757 84.4551H0.504883V85.6514H149.757V84.4551Z" fill="white"/>
<path d="M149.757 123.115H0.504883V124.312H149.757V123.115Z" fill="white"/>
<path d="M45.6455 11.2539H40.4758C40.1105 11.2539 39.8145 11.5498 39.8145 11.9147V13.4004C39.8145 13.7654 40.1105 14.0612 40.4758 14.0612H45.6455C46.0108 14.0612 46.3068 13.7654 46.3068 13.4004V11.9147C46.3068 11.5498 46.0108 11.2539 45.6455 11.2539Z" fill="#EBA707"/>
<path d="M32.9326 34.3338C32.9326 34.5091 33.0023 34.6772 33.1263 34.8011C33.2503 34.925 33.4186 34.9947 33.594 34.9947H35.1976C35.3734 34.9947 35.5421 34.9252 35.6668 34.8014C35.7915 34.6776 35.8622 34.5095 35.8633 34.3338V32.0664H32.9326V34.3338Z" fill="#EBA707"/>
<path d="M50.2617 34.3338C50.2629 34.5088 50.3329 34.6762 50.4567 34.7999C50.5804 34.9235 50.748 34.9935 50.923 34.9947H52.531C52.7061 34.9935 52.8736 34.9235 52.9974 34.7999C53.1212 34.6762 53.1912 34.5088 53.1924 34.3338V32.0664H50.2617V34.3338Z" fill="#EBA707"/>
<path d="M55.1762 23.796H55.1114C54.846 23.7993 54.586 23.7211 54.3664 23.572C54.1469 23.423 53.9784 23.2102 53.8838 22.9624L51.9733 18.3109C51.6681 17.3369 51.0593 16.4859 50.2358 15.8822C49.4122 15.2785 48.4171 14.9536 47.3957 14.9551H38.9236C37.9352 14.9593 36.9724 15.2693 36.1675 15.8423C35.3625 16.4154 34.7549 17.2234 34.4282 18.1554L34.4022 18.2202L32.241 22.9711C32.1419 23.2096 31.9738 23.4131 31.7581 23.5555C31.5424 23.6979 31.2891 23.7726 31.0307 23.7701C30.6843 23.77 30.3518 23.9057 30.1044 24.148C29.8571 24.3902 29.7148 24.7198 29.708 25.0658L29.6777 29.8166C29.6788 30.1619 29.8151 30.4931 30.0574 30.7393C30.2998 30.9855 30.6289 31.1271 30.9745 31.1339H55.1805C55.5224 31.1273 55.8484 30.9886 56.0901 30.7471C56.3319 30.5055 56.4707 30.1798 56.4773 29.8382L56.5076 25.0874C56.507 24.9146 56.472 24.7437 56.4044 24.5847C56.3368 24.4257 56.2381 24.2819 56.1141 24.1615C55.99 24.0412 55.8431 23.9469 55.6821 23.8841C55.521 23.8214 55.349 23.7914 55.1762 23.796ZM36.6326 18.691C36.7745 18.3716 37.006 18.1 37.299 17.9092C37.592 17.7183 37.9341 17.6164 38.2838 17.6156H48.0052C48.3692 17.6156 48.7247 17.7258 49.0248 17.9317C49.325 18.1375 49.5557 18.4293 49.6866 18.7687L50.9402 22.0123L35.1889 21.9864L36.6326 18.691ZM34.3979 27.9206C34.1124 27.9206 33.8332 27.836 33.5958 27.6775C33.3584 27.519 33.1734 27.2937 33.0641 27.0301C32.9548 26.7665 32.9262 26.4765 32.9819 26.1966C33.0376 25.9168 33.1751 25.6598 33.377 25.458C33.5789 25.2563 33.8362 25.1189 34.1162 25.0633C34.3963 25.0076 34.6866 25.0362 34.9504 25.1453C35.2142 25.2545 35.4397 25.4394 35.5983 25.6766C35.757 25.9139 35.8416 26.1928 35.8416 26.4781C35.8422 26.6677 35.8052 26.8555 35.7329 27.0308C35.6605 27.206 35.5542 27.3653 35.42 27.4994C35.2859 27.6334 35.1265 27.7397 34.9511 27.812C34.7757 27.8842 34.5877 27.9212 34.3979 27.9206ZM51.7269 27.9206C51.4413 27.9206 51.1622 27.836 50.9248 27.6775C50.6873 27.519 50.5023 27.2937 50.393 27.0301C50.2838 26.7665 50.2552 26.4765 50.3109 26.1966C50.3666 25.9168 50.5041 25.6598 50.706 25.458C50.9079 25.2563 51.1652 25.1189 51.4452 25.0633C51.7253 25.0076 52.0155 25.0362 52.2793 25.1453C52.5431 25.2545 52.7686 25.4394 52.9273 25.6766C53.0859 25.9139 53.1706 26.1928 53.1706 26.4781C53.1706 26.6682 53.133 26.8565 53.0599 27.0321C52.9868 27.2077 52.8797 27.3671 52.7447 27.5012C52.6097 27.6352 52.4495 27.7413 52.2734 27.8133C52.0972 27.8853 51.9085 27.9217 51.7182 27.9206H51.7269Z" fill="#EBA707"/>
<path d="M39.3037 95.0663H44.2444V96.3533H45.593V93.7188H37.9551V96.3533H39.3037V95.0663Z" fill="#EBA707"/>
<path d="M50.8532 112.908H32.6943V114.973H50.8532V112.908Z" fill="#EBA707"/>
<path d="M34.6951 110.735H36.8564V97.7051H34.6951C34.1093 97.7051 33.5475 97.9376 33.1333 98.3515C32.719 98.7654 32.4863 99.3267 32.4863 99.9121V108.528C32.4863 109.114 32.719 109.675 33.1333 110.089C33.5475 110.503 34.1093 110.735 34.6951 110.735Z" fill="#EBA707"/>
<path d="M38.1836 110.735H45.6572V97.7051H38.1836V110.735Z" fill="#EBA707"/>
<path d="M48.8516 97.7051H47.0059V110.735H48.8516C49.1416 110.735 49.4289 110.678 49.6968 110.567C49.9648 110.456 50.2083 110.294 50.4135 110.089C50.6186 109.884 50.7812 109.641 50.8922 109.373C51.0032 109.105 51.0604 108.818 51.0604 108.528V99.9121C51.0604 99.3267 50.8277 98.7654 50.4135 98.3515C49.9992 97.9376 49.4374 97.7051 48.8516 97.7051Z" fill="#EBA707"/>
<path d="M52.2496 71.9863H37.9854V74.1026H52.2496V71.9863Z" fill="#EBA707"/>
<path d="M30.1962 70.1948C30.1573 69.9922 30.1573 69.7841 30.1962 69.5815C30.1962 69.5815 31.2206 67.422 32.1067 66.5366C33.4596 65.1848 34.9984 64.7054 36.7966 64.2476L39.0184 63.6775L43.0772 57.9419C43.1421 57.8515 43.2323 57.7823 43.3366 57.7432L44.4691 57.3114C44.5303 57.2892 44.5965 57.2845 44.6602 57.2979C44.7239 57.3112 44.7826 57.3421 44.8298 57.387C44.8769 57.4318 44.9106 57.4889 44.9271 57.5519C44.9435 57.6148 44.9421 57.6811 44.9229 57.7432L43.2458 62.5416C43.2423 62.5472 43.2408 62.5537 43.2413 62.5603C43.2419 62.5668 43.2446 62.573 43.249 62.5779C43.2534 62.5827 43.2592 62.586 43.2657 62.5873C43.2721 62.5885 43.2788 62.5877 43.2847 62.5848L48.6922 61.22L48.77 61.1984C49.7696 60.9303 50.632 60.2968 51.1863 59.4233L52.5262 57.2984C52.5899 57.1885 52.6846 57.0998 52.7985 57.0436C52.8959 56.996 53.0041 56.9747 53.1123 56.9818C53.2204 56.9888 53.3249 57.024 53.4153 57.0838C53.5057 57.1436 53.5789 57.2259 53.6276 57.3226C53.6764 57.4193 53.699 57.5271 53.6933 57.6353L53.5334 61.3625C53.5206 61.6484 53.4269 61.9247 53.2631 62.1594C53.0994 62.3941 52.8723 62.5776 52.6084 62.6885L51.2468 63.2629L43.436 66.446L32.392 70.942C31.2897 71.3955 30.3561 71.0629 30.1962 70.1948Z" fill="#EBA707"/>
<path d="M42.0312 67.978L45.3034 66.6348L47.6462 68.1075C47.6782 68.1272 47.7054 68.1539 47.7258 68.1856C47.7461 68.2173 47.759 68.2531 47.7636 68.2904C47.7682 68.3278 47.7643 68.3657 47.7522 68.4013C47.7401 68.4369 47.7201 68.4694 47.6937 68.4962L47.4689 68.7251C47.3178 68.8796 47.1296 68.9928 46.9223 69.0541C46.715 69.1153 46.4955 69.1225 46.2846 69.075L42.0312 67.978Z" fill="#EBA707"/>
<path d="M100.197 21.6016V28H99.3623V21.6016H100.197ZM102.254 21.6016V22.2959H97.3101V21.6016H102.254ZM105.22 22.1685L103.102 28H102.236L104.675 21.6016H105.233L105.22 22.1685ZM106.996 28L104.873 22.1685L104.86 21.6016H105.418L107.866 28H106.996ZM106.886 25.6313V26.3257H103.291V25.6313H106.886ZM109.61 21.6016V28H108.762V21.6016H109.61ZM113.552 21.6016L110.775 25.1216H109.272L109.14 24.4185H110.27L112.502 21.6016H113.552ZM112.7 28L110.296 25.0117L110.771 24.269L113.737 28H112.7ZM118.228 25.9653H119.072C119.028 26.3696 118.912 26.7314 118.725 27.0508C118.537 27.3701 118.272 27.6235 117.929 27.811C117.586 27.9956 117.159 28.0879 116.646 28.0879C116.271 28.0879 115.93 28.0176 115.622 27.877C115.317 27.7363 115.055 27.5371 114.835 27.2793C114.616 27.0186 114.446 26.7065 114.326 26.3433C114.208 25.9771 114.15 25.5698 114.15 25.1216V24.4844C114.15 24.0361 114.208 23.6304 114.326 23.2671C114.446 22.9009 114.617 22.5874 114.84 22.3267C115.065 22.0659 115.336 21.8652 115.653 21.7246C115.969 21.584 116.325 21.5137 116.721 21.5137C117.204 21.5137 117.613 21.6045 117.947 21.7861C118.281 21.9678 118.54 22.2197 118.725 22.542C118.912 22.8613 119.028 23.2319 119.072 23.6538H118.228C118.187 23.355 118.111 23.0986 118 22.8848C117.888 22.668 117.73 22.501 117.525 22.3838C117.32 22.2666 117.052 22.208 116.721 22.208C116.437 22.208 116.186 22.2622 115.969 22.3706C115.755 22.479 115.575 22.6328 115.429 22.832C115.285 23.0312 115.177 23.27 115.104 23.5483C115.03 23.8267 114.994 24.1357 114.994 24.4756V25.1216C114.994 25.4351 115.026 25.7295 115.09 26.0049C115.158 26.2803 115.259 26.522 115.394 26.73C115.528 26.938 115.7 27.1021 115.908 27.2222C116.116 27.3394 116.362 27.3979 116.646 27.3979C117.006 27.3979 117.293 27.3408 117.507 27.2266C117.721 27.1123 117.882 26.9482 117.991 26.7344C118.102 26.5205 118.181 26.2642 118.228 25.9653ZM121.111 26.5322L124.262 21.6016H125.11V28H124.262V23.0649L121.111 28H120.267V21.6016H121.111V26.5322Z" fill="white"/>
<path d="M92.7441 62.6016V69H91.9004V63.2959H88.7451V69H87.897V62.6016H92.7441ZM96.6421 66.4907H94.9326V65.8008H96.6421C96.9731 65.8008 97.2412 65.748 97.4463 65.6426C97.6514 65.5371 97.8008 65.3906 97.8945 65.2031C97.9912 65.0156 98.0396 64.8018 98.0396 64.5615C98.0396 64.3418 97.9912 64.1353 97.8945 63.9419C97.8008 63.7485 97.6514 63.5933 97.4463 63.4761C97.2412 63.356 96.9731 63.2959 96.6421 63.2959H95.1304V69H94.2822V62.6016H96.6421C97.1255 62.6016 97.5342 62.6851 97.8682 62.8521C98.2021 63.019 98.4556 63.2505 98.6284 63.5464C98.8013 63.8394 98.8877 64.1748 98.8877 64.5527C98.8877 64.9629 98.8013 65.313 98.6284 65.603C98.4556 65.8931 98.2021 66.1143 97.8682 66.2666C97.5342 66.416 97.1255 66.4907 96.6421 66.4907ZM100.843 67.5322L103.994 62.6016H104.842V69H103.994V64.0649L100.843 69H99.9995V62.6016H100.843V67.5322ZM110.287 62.6016V63.2959H107.202V69H106.358V62.6016H110.287ZM107.004 65.2075H108.749C109.218 65.2075 109.613 65.2866 109.936 65.4448C110.258 65.6001 110.502 65.8184 110.669 66.0996C110.836 66.3809 110.92 66.7104 110.92 67.0884C110.92 67.3696 110.873 67.6274 110.779 67.8618C110.686 68.0933 110.546 68.2954 110.362 68.4683C110.177 68.6382 109.95 68.77 109.681 68.8638C109.411 68.9546 109.101 69 108.749 69H106.358V62.6016H107.207V68.3101H108.749C109.062 68.3101 109.316 68.2529 109.509 68.1387C109.706 68.0215 109.849 67.8691 109.94 67.6816C110.031 67.4941 110.076 67.2935 110.076 67.0796C110.076 66.8657 110.031 66.6694 109.94 66.4907C109.849 66.312 109.706 66.1699 109.509 66.0645C109.316 65.9561 109.062 65.9019 108.749 65.9019H107.004V65.2075ZM112.748 65.2075H114.493C114.961 65.2075 115.357 65.2866 115.679 65.4448C116.001 65.6001 116.246 65.8184 116.413 66.0996C116.58 66.3809 116.664 66.7104 116.664 67.0884C116.664 67.3696 116.617 67.6274 116.523 67.8618C116.429 68.0933 116.29 68.2954 116.105 68.4683C115.921 68.6382 115.694 68.77 115.424 68.8638C115.155 68.9546 114.844 69 114.493 69H112.102V62.6016H112.95V68.3101H114.493C114.806 68.3101 115.06 68.2529 115.253 68.1387C115.449 68.0215 115.593 67.8691 115.684 67.6816C115.774 67.4941 115.82 67.2935 115.82 67.0796C115.82 66.8657 115.774 66.6694 115.684 66.4907C115.593 66.312 115.449 66.1699 115.253 66.0645C115.06 65.9561 114.806 65.9019 114.493 65.9019H112.748V65.2075ZM118.285 62.6016V69H117.437V62.6016H118.285ZM122.082 62.6016V69H121.247V62.6016H122.082ZM124.139 62.6016V63.2959H119.195V62.6016H124.139ZM125.971 67.5322L129.122 62.6016H129.97V69H129.122V64.0649L125.971 69H125.127V62.6016H125.971V67.5322ZM135.578 68.3101V69H132.189V68.3101H135.578ZM132.361 62.6016V69H131.513V62.6016H132.361ZM135.129 65.3525V66.0425H132.189V65.3525H135.129ZM135.534 62.6016V63.2959H132.189V62.6016H135.534Z" fill="white"/>
<path d="M76.5635 105.007H74.9419L74.9331 104.326H76.4053C76.6484 104.326 76.8608 104.285 77.0425 104.203C77.2241 104.121 77.3647 104.004 77.4644 103.852C77.5669 103.696 77.6182 103.512 77.6182 103.298C77.6182 103.063 77.5728 102.873 77.4819 102.727C77.394 102.577 77.2578 102.469 77.0732 102.401C76.8916 102.331 76.6602 102.296 76.3789 102.296H75.1309V108H74.2827V101.602H76.3789C76.707 101.602 77 101.635 77.2578 101.703C77.5156 101.767 77.7339 101.87 77.9126 102.01C78.0942 102.148 78.2319 102.324 78.3257 102.538C78.4194 102.751 78.4663 103.008 78.4663 103.307C78.4663 103.57 78.3989 103.809 78.2642 104.023C78.1294 104.234 77.9419 104.407 77.7017 104.542C77.4644 104.676 77.186 104.763 76.8667 104.801L76.5635 105.007ZM76.5239 108H74.6079L75.0869 107.31H76.5239C76.7935 107.31 77.022 107.263 77.2095 107.169C77.3999 107.076 77.5449 106.944 77.6445 106.774C77.7441 106.601 77.7939 106.397 77.7939 106.163C77.7939 105.926 77.7515 105.721 77.6665 105.548C77.5815 105.375 77.4482 105.242 77.2666 105.148C77.085 105.054 76.8506 105.007 76.5635 105.007H75.355L75.3638 104.326H77.0161L77.1963 104.572C77.5039 104.599 77.7646 104.687 77.9785 104.836C78.1924 104.982 78.355 105.17 78.4663 105.398C78.5806 105.627 78.6377 105.879 78.6377 106.154C78.6377 106.553 78.5498 106.89 78.374 107.165C78.2012 107.438 77.9565 107.646 77.6401 107.789C77.3237 107.93 76.9517 108 76.5239 108ZM80.5757 104.208H82.3203C82.7891 104.208 83.1846 104.287 83.5068 104.445C83.8291 104.6 84.0737 104.818 84.2407 105.1C84.4077 105.381 84.4912 105.71 84.4912 106.088C84.4912 106.37 84.4443 106.627 84.3506 106.862C84.2568 107.093 84.1177 107.295 83.9331 107.468C83.7485 107.638 83.5215 107.77 83.252 107.864C82.9824 107.955 82.6719 108 82.3203 108H79.9297V101.602H80.7778V107.31H82.3203C82.6338 107.31 82.8872 107.253 83.0806 107.139C83.2769 107.021 83.4204 106.869 83.5112 106.682C83.6021 106.494 83.6475 106.293 83.6475 106.08C83.6475 105.866 83.6021 105.669 83.5112 105.491C83.4204 105.312 83.2769 105.17 83.0806 105.064C82.8872 104.956 82.6338 104.902 82.3203 104.902H80.5757V104.208ZM86.1128 101.602V108H85.2646V101.602H86.1128ZM92.8057 107.31V108H87.9629V107.31H92.8057ZM88.0991 107.31V109.573H87.2598L87.2554 107.31H88.0991ZM93.5439 107.31L93.5352 109.569H92.6958V107.31H93.5439ZM91.9751 101.602V102.296H89.1714V101.602H91.9751ZM92.7046 101.602V108H91.8608V101.602H92.7046ZM88.8813 101.602H89.7295L89.5977 104.177C89.5801 104.563 89.5435 104.921 89.4878 105.249C89.4321 105.574 89.3633 105.872 89.2812 106.141C89.1992 106.411 89.1055 106.652 89 106.866C88.8945 107.077 88.7817 107.26 88.6616 107.416C88.5415 107.568 88.4155 107.694 88.2837 107.793C88.1548 107.89 88.0244 107.959 87.8926 108H87.5059V107.31H87.7783C87.8545 107.228 87.9409 107.109 88.0376 106.954C88.1372 106.799 88.2354 106.598 88.332 106.352C88.4316 106.103 88.5181 105.8 88.5913 105.442C88.6675 105.085 88.7188 104.663 88.7451 104.177L88.8813 101.602ZM96.9805 102.168L94.8623 108H93.9966L96.4355 101.602H96.9937L96.9805 102.168ZM98.7559 108L96.6333 102.168L96.6201 101.602H97.1782L99.626 108H98.7559ZM98.646 105.631V106.326H95.0513V105.631H98.646ZM100.158 101.602H101.006V103.601C101.006 103.932 101.054 104.191 101.151 104.379C101.248 104.566 101.394 104.698 101.59 104.774C101.787 104.851 102.031 104.889 102.324 104.889C102.5 104.889 102.67 104.881 102.834 104.867C103.001 104.852 103.164 104.832 103.322 104.805C103.48 104.779 103.635 104.747 103.788 104.708C103.943 104.67 104.095 104.629 104.245 104.585V105.28C104.101 105.324 103.958 105.365 103.814 105.403C103.673 105.441 103.527 105.473 103.375 105.5C103.225 105.526 103.064 105.546 102.891 105.561C102.721 105.576 102.532 105.583 102.324 105.583C101.873 105.583 101.485 105.519 101.16 105.39C100.837 105.258 100.59 105.047 100.417 104.757C100.244 104.467 100.158 104.082 100.158 103.601V101.602ZM104.029 101.602H104.877V108H104.029V101.602ZM108.846 102.168L106.728 108H105.862L108.301 101.602H108.859L108.846 102.168ZM110.621 108L108.499 102.168L108.485 101.602H109.043L111.491 108H110.621ZM110.511 105.631V106.326H106.917V105.631H110.511ZM118.483 101.602V102.296H115.398V108H114.554V101.602H118.483ZM115.2 104.208H116.945C117.414 104.208 117.809 104.287 118.131 104.445C118.454 104.6 118.698 104.818 118.865 105.1C119.032 105.381 119.116 105.71 119.116 106.088C119.116 106.37 119.069 106.627 118.975 106.862C118.881 107.093 118.742 107.295 118.558 107.468C118.373 107.638 118.146 107.77 117.876 107.864C117.607 107.955 117.296 108 116.945 108H114.554V101.602H115.402V107.31H116.945C117.258 107.31 117.512 107.253 117.705 107.139C117.901 107.021 118.045 106.869 118.136 106.682C118.227 106.494 118.272 106.293 118.272 106.08C118.272 105.866 118.227 105.669 118.136 105.491C118.045 105.312 117.901 105.17 117.705 105.064C117.512 104.956 117.258 104.902 116.945 104.902H115.2V104.208ZM122.627 102.168L120.509 108H119.643L122.082 101.602H122.64L122.627 102.168ZM124.402 108L122.28 102.168L122.267 101.602H122.825L125.272 108H124.402ZM124.292 105.631V106.326H120.698V105.631H124.292ZM130.098 101.602V102.296H127.013V108H126.169V101.602H130.098ZM132.655 102.168L130.537 108H129.671L132.11 101.602H132.668L132.655 102.168ZM134.431 108L132.308 102.168L132.295 101.602H132.853L135.301 108H134.431ZM134.321 105.631V106.326H130.726V105.631H134.321ZM137.99 105.078L135.705 101.602H136.698L138.399 104.375H139.603L139.467 105.078H137.99ZM138.447 105.012L136.588 108H135.534L137.911 104.282L138.447 105.012ZM139.968 101.602V108H139.128V101.602H139.968ZM143.36 101.602L141.066 105.078H139.634L139.502 104.375H140.662L142.363 101.602H143.36ZM142.473 108L140.618 105.012L141.159 104.282L143.527 108H142.473ZM146.7 102.168L144.582 108H143.716L146.155 101.602H146.713L146.7 102.168ZM148.476 108L146.353 102.168L146.34 101.602H146.898L149.346 108H148.476ZM148.366 105.631V106.326H144.771V105.631H148.366Z" fill="white"/>
<path d="M93.5088 140.239H94.5679C94.937 140.239 95.2783 140.302 95.5918 140.428C95.9082 140.551 96.1836 140.727 96.418 140.955C96.6553 141.184 96.8398 141.456 96.9717 141.772C97.1035 142.086 97.1694 142.433 97.1694 142.814C97.1694 143.195 97.1035 143.543 96.9717 143.86C96.8398 144.176 96.6553 144.45 96.418 144.682C96.1836 144.91 95.9082 145.087 95.5918 145.213C95.2783 145.336 94.937 145.398 94.5679 145.398H93.5088C93.1396 145.398 92.7983 145.336 92.4849 145.213C92.1714 145.087 91.896 144.91 91.6587 144.682C91.4243 144.453 91.2412 144.182 91.1094 143.869C90.9805 143.552 90.916 143.204 90.916 142.823C90.916 142.442 90.9805 142.095 91.1094 141.781C91.2412 141.465 91.4243 141.192 91.6587 140.964C91.896 140.732 92.1714 140.554 92.4849 140.428C92.7983 140.302 93.1396 140.239 93.5088 140.239ZM93.5088 140.907C93.125 140.907 92.7998 140.987 92.5332 141.148C92.2666 141.307 92.0645 141.529 91.9268 141.816C91.7891 142.104 91.7202 142.439 91.7202 142.823C91.7202 143.113 91.7583 143.375 91.8345 143.609C91.9136 143.844 92.0293 144.044 92.1816 144.211C92.334 144.378 92.5215 144.507 92.7441 144.598C92.9668 144.689 93.2217 144.734 93.5088 144.734H94.5767C94.9575 144.734 95.2798 144.655 95.5435 144.497C95.8101 144.336 96.0122 144.112 96.1499 143.825C96.2905 143.535 96.3608 143.198 96.3608 142.814C96.3608 142.527 96.3213 142.266 96.2422 142.032C96.1631 141.797 96.0474 141.597 95.895 141.43C95.7456 141.263 95.5596 141.134 95.3369 141.043C95.1172 140.952 94.8638 140.907 94.5767 140.907H93.5088ZM94.4492 139.338V146.264H93.6362V139.338H94.4492ZM100.224 143.877L101.916 139.602H102.891L100.628 144.932C100.563 145.082 100.492 145.227 100.413 145.367C100.333 145.505 100.237 145.628 100.123 145.736C100.008 145.845 99.8662 145.931 99.6963 145.996C99.5293 146.06 99.3213 146.092 99.0723 146.092C99.002 146.092 98.9185 146.088 98.8218 146.079C98.7251 146.073 98.6621 146.066 98.6328 146.057L98.6592 145.38C98.6914 145.386 98.7544 145.392 98.8481 145.398C98.9419 145.401 99.0107 145.402 99.0547 145.402C99.2217 145.402 99.3535 145.369 99.4502 145.301C99.5469 145.234 99.6245 145.149 99.6831 145.046C99.7446 144.941 99.8003 144.834 99.8501 144.726L100.224 143.877ZM98.7866 139.602L100.566 143.587L100.777 144.374L100.065 144.427L97.8374 139.602H98.7866ZM108.573 145.31V146H103.73V145.31H108.573ZM103.867 145.31V147.573H103.027L103.023 145.31H103.867ZM109.312 145.31L109.303 147.569H108.463V145.31H109.312ZM107.743 139.602V140.296H104.939V139.602H107.743ZM108.472 139.602V146H107.628V139.602H108.472ZM104.649 139.602H105.497L105.365 142.177C105.348 142.563 105.311 142.921 105.255 143.249C105.2 143.574 105.131 143.872 105.049 144.141C104.967 144.411 104.873 144.652 104.768 144.866C104.662 145.077 104.549 145.26 104.429 145.416C104.309 145.568 104.183 145.694 104.051 145.793C103.922 145.89 103.792 145.959 103.66 146H103.273V145.31H103.546C103.622 145.228 103.708 145.109 103.805 144.954C103.905 144.799 104.003 144.598 104.1 144.352C104.199 144.103 104.286 143.8 104.359 143.442C104.435 143.085 104.486 142.663 104.513 142.177L104.649 139.602ZM111.197 139.602V146H110.349V139.602H111.197ZM115.139 139.602L112.361 143.122H110.858L110.727 142.418H111.856L114.088 139.602H115.139ZM114.286 146L111.882 143.012L112.357 142.269L115.323 146H114.286ZM120.878 142.599V143.003C120.878 143.483 120.818 143.914 120.698 144.295C120.578 144.676 120.405 145 120.179 145.266C119.954 145.533 119.683 145.736 119.366 145.877C119.053 146.018 118.701 146.088 118.312 146.088C117.934 146.088 117.586 146.018 117.27 145.877C116.957 145.736 116.684 145.533 116.453 145.266C116.224 145 116.047 144.676 115.921 144.295C115.795 143.914 115.732 143.483 115.732 143.003V142.599C115.732 142.118 115.793 141.689 115.917 141.311C116.042 140.93 116.22 140.606 116.448 140.34C116.677 140.07 116.948 139.865 117.261 139.725C117.578 139.584 117.925 139.514 118.303 139.514C118.692 139.514 119.044 139.584 119.357 139.725C119.674 139.865 119.945 140.07 120.17 140.34C120.399 140.606 120.573 140.93 120.693 141.311C120.816 141.689 120.878 142.118 120.878 142.599ZM120.039 143.003V142.59C120.039 142.209 119.999 141.872 119.92 141.579C119.844 141.286 119.731 141.04 119.582 140.841C119.432 140.642 119.249 140.491 119.032 140.388C118.818 140.286 118.575 140.234 118.303 140.234C118.039 140.234 117.8 140.286 117.586 140.388C117.375 140.491 117.194 140.642 117.042 140.841C116.892 141.04 116.776 141.286 116.694 141.579C116.612 141.872 116.571 142.209 116.571 142.59V143.003C116.571 143.387 116.612 143.727 116.694 144.022C116.776 144.315 116.894 144.563 117.046 144.765C117.201 144.964 117.384 145.115 117.595 145.218C117.809 145.32 118.048 145.372 118.312 145.372C118.587 145.372 118.832 145.32 119.045 145.218C119.259 145.115 119.439 144.964 119.586 144.765C119.735 144.563 119.848 144.315 119.924 144.022C120 143.727 120.039 143.387 120.039 143.003ZM124.508 143.491H122.798V142.801H124.508C124.839 142.801 125.107 142.748 125.312 142.643C125.517 142.537 125.667 142.391 125.76 142.203C125.857 142.016 125.905 141.802 125.905 141.562C125.905 141.342 125.857 141.135 125.76 140.942C125.667 140.749 125.517 140.593 125.312 140.476C125.107 140.356 124.839 140.296 124.508 140.296H122.996V146H122.148V139.602H124.508C124.991 139.602 125.4 139.685 125.734 139.852C126.068 140.019 126.321 140.25 126.494 140.546C126.667 140.839 126.753 141.175 126.753 141.553C126.753 141.963 126.667 142.313 126.494 142.603C126.321 142.893 126.068 143.114 125.734 143.267C125.4 143.416 124.991 143.491 124.508 143.491ZM130.19 139.602V146H129.355V139.602H130.19ZM132.247 139.602V140.296H127.303V139.602H132.247Z" fill="white"/>
</svg>
