<svg width="107" height="171" viewBox="0 0 107 171" fill="none" xmlns="http://www.w3.org/2000/svg">
<path d="M104.045 0H2.54333C1.45474 0 0.572266 0.881751 0.572266 1.96945V168.642C0.572266 169.73 1.45474 170.612 2.54333 170.612H104.045C105.133 170.612 106.016 169.73 106.016 168.642V1.96945C106.016 0.881751 105.133 0 104.045 0Z" fill="#4A4A4A"/>
<path d="M74.6289 109.666H41.8945V112.059H74.6289V109.666Z" fill="#EBA707"/>
<path d="M32.7527 51.7756C36.4983 51.7756 39.5347 48.7416 39.5347 44.9991C39.5347 41.2566 36.4983 38.2227 32.7527 38.2227C29.0071 38.2227 25.9707 41.2566 25.9707 44.9991C25.9707 48.7416 29.0071 51.7756 32.7527 51.7756Z" fill="#EBA707"/>
<path d="M40.3905 54.6348H25.1147C21.7302 54.6348 19.5301 59.2301 21.0429 63.1345L29.6577 85.3555C30.8291 88.3788 34.6805 88.3788 35.8475 85.3555L44.4623 63.1345C45.9795 59.2301 43.775 54.6348 40.3905 54.6348Z" fill="#EBA707"/>
<path d="M74.8661 37.8811C75.4662 34.1869 72.9555 30.706 69.2583 30.1064C65.5611 29.5067 62.0774 32.0154 61.4773 35.7095C60.8771 39.4037 63.3878 42.8845 67.085 43.4842C70.7822 44.0838 74.2659 41.5752 74.8661 37.8811Z" fill="#EBA707"/>
<path d="M79.8464 54.9812V54.9294C81.3593 51.0423 79.1548 46.4297 75.7703 46.4297H60.5032C57.1186 46.4297 54.9142 51.0251 56.427 54.9294V54.9812H48.9707V60.6736H87.3416V54.9812H79.8464Z" fill="#EBA707"/>
<path d="M53.3672 86.812C53.3672 87.7398 53.7361 88.6296 54.3927 89.2857C55.0493 89.9418 55.9399 90.3104 56.8684 90.3104H79.3196C80.2481 90.3104 81.1387 89.9418 81.7953 89.2857C82.4519 88.6296 82.8208 87.7398 82.8208 86.812V82.709H53.3672V86.812Z" fill="#EBA707"/>
<path d="M79.3191 70.7311H74.1321V66.5547H62.0291V70.7311H56.8421C55.9135 70.7311 55.0229 71.0997 54.3663 71.7558C53.7097 72.4118 53.3408 73.3017 53.3408 74.2295V78.3282H82.7944V74.2295C82.7944 73.3061 82.4291 72.4202 81.7781 71.7649C81.1271 71.1096 80.2432 70.738 79.3191 70.7311ZM64.7911 70.7311V69.3102H71.396V70.7311H64.7911Z" fill="#EBA707"/>
<path d="M15.6309 126.654H13.3516V125.734H15.6309C16.0723 125.734 16.4297 125.664 16.7031 125.523C16.9766 125.383 17.1758 125.188 17.3008 124.938C17.4297 124.688 17.4941 124.402 17.4941 124.082C17.4941 123.789 17.4297 123.514 17.3008 123.256C17.1758 122.998 16.9766 122.791 16.7031 122.635C16.4297 122.475 16.0723 122.395 15.6309 122.395H13.6152V130H12.4844V121.469H15.6309C16.2754 121.469 16.8203 121.58 17.2656 121.803C17.7109 122.025 18.0488 122.334 18.2793 122.729C18.5098 123.119 18.625 123.566 18.625 124.07C18.625 124.617 18.5098 125.084 18.2793 125.471C18.0488 125.857 17.7109 126.152 17.2656 126.355C16.8203 126.555 16.2754 126.654 15.6309 126.654ZM25.4746 129.08V130H20.957V129.08H25.4746ZM21.1855 121.469V130H20.0547V121.469H21.1855ZM24.877 125.137V126.057H20.957V125.137H24.877ZM25.416 121.469V122.395H20.957V121.469H25.416ZM32.166 121.469V122.395H28.0527V130H26.9277V121.469H32.166ZM34.7324 128.043L38.9336 121.469H40.0645V130H38.9336V123.42L34.7324 130H33.6074V121.469H34.7324V128.043ZM47.2715 127.287H48.3965C48.3379 127.826 48.1836 128.309 47.9336 128.734C47.6836 129.16 47.3301 129.498 46.873 129.748C46.416 129.994 45.8457 130.117 45.1621 130.117C44.6621 130.117 44.207 130.023 43.7969 129.836C43.3906 129.648 43.041 129.383 42.748 129.039C42.4551 128.691 42.2285 128.275 42.0684 127.791C41.9121 127.303 41.834 126.76 41.834 126.162V125.312C41.834 124.715 41.9121 124.174 42.0684 123.689C42.2285 123.201 42.457 122.783 42.7539 122.436C43.0547 122.088 43.416 121.82 43.8379 121.633C44.2598 121.445 44.7344 121.352 45.2617 121.352C45.9062 121.352 46.4512 121.473 46.8965 121.715C47.3418 121.957 47.6875 122.293 47.9336 122.723C48.1836 123.148 48.3379 123.643 48.3965 124.205H47.2715C47.2168 123.807 47.1152 123.465 46.9668 123.18C46.8184 122.891 46.6074 122.668 46.334 122.512C46.0605 122.355 45.7031 122.277 45.2617 122.277C44.8828 122.277 44.5488 122.35 44.2598 122.494C43.9746 122.639 43.7344 122.844 43.5391 123.109C43.3477 123.375 43.2031 123.693 43.1055 124.064C43.0078 124.436 42.959 124.848 42.959 125.301V126.162C42.959 126.58 43.002 126.973 43.0879 127.34C43.1777 127.707 43.3125 128.029 43.4922 128.307C43.6719 128.584 43.9004 128.803 44.1777 128.963C44.4551 129.119 44.7832 129.197 45.1621 129.197C45.6426 129.197 46.0254 129.121 46.3105 128.969C46.5957 128.816 46.8105 128.598 46.9551 128.312C47.1035 128.027 47.209 127.686 47.2715 127.287ZM52.9141 121.469V130H51.8008V121.469H52.9141ZM55.6562 121.469V122.395H49.0645V121.469H55.6562ZM60.0684 126.654H57.7891V125.734H60.0684C60.5098 125.734 60.8672 125.664 61.1406 125.523C61.4141 125.383 61.6133 125.188 61.7383 124.938C61.8672 124.688 61.9316 124.402 61.9316 124.082C61.9316 123.789 61.8672 123.514 61.7383 123.256C61.6133 122.998 61.4141 122.791 61.1406 122.635C60.8672 122.475 60.5098 122.395 60.0684 122.395H58.0527V130H56.9219V121.469H60.0684C60.7129 121.469 61.2578 121.58 61.7031 121.803C62.1484 122.025 62.4863 122.334 62.7168 122.729C62.9473 123.119 63.0625 123.566 63.0625 124.07C63.0625 124.617 62.9473 125.084 62.7168 125.471C62.4863 125.857 62.1484 126.152 61.7031 126.355C61.2578 126.555 60.7129 126.654 60.0684 126.654ZM66.8418 122.225L64.0176 130H62.8633L66.1152 121.469H66.8594L66.8418 122.225ZM69.209 130L66.3789 122.225L66.3613 121.469H67.1055L70.3691 130H69.209ZM69.0625 126.842V127.768H64.2695V126.842H69.0625ZM78.9121 129.051L78.8066 132.057H77.793V130H76.9551V129.051H78.9121ZM71.5469 130V121.469H72.6836V129.08H76.8848V121.469H78.0156V130H71.5469ZM81.4668 128.043L85.668 121.469H86.7988V130H85.668V123.42L81.4668 130H80.3418V121.469H81.4668V128.043ZM93.5898 126.678H91.1934L90.6367 126.449C90.0195 126.254 89.5449 125.955 89.2129 125.553C88.8809 125.146 88.7148 124.643 88.7148 124.041C88.7148 123.49 88.8359 123.023 89.0781 122.641C89.3242 122.258 89.6719 121.967 90.1211 121.768C90.5742 121.568 91.1094 121.469 91.7266 121.469H94.457V130H93.3262V122.395H91.7266C91.1016 122.395 90.6309 122.543 90.3145 122.84C90.002 123.137 89.8457 123.537 89.8457 124.041C89.8457 124.369 89.9141 124.662 90.0508 124.92C90.1914 125.178 90.3984 125.381 90.6719 125.529C90.9453 125.678 91.2852 125.752 91.6914 125.752H93.5957L93.5898 126.678ZM91.668 126.092L89.5938 130H88.3926L90.5254 126.092H91.668Z" fill="white"/>
</svg>
