<svg width="64" height="77" viewBox="0 0 64 77" fill="none" xmlns="http://www.w3.org/2000/svg">
<path fill-rule="evenodd" clip-rule="evenodd" d="M6.99533 34.4394H30.8092V74.7442H6.99533V34.4394ZM0 30.8301V45.1173C0 46.6924 1.94976 46.9715 2.325 45.5114C2.486 44.8849 2.38163 43.9852 2.38149 43.3125C2.38064 40.452 2.16937 31.4933 2.53034 29.9278C2.8642 29.8492 2.87253 29.7774 3.2746 29.7774H60.7256C61.1276 29.7774 61.136 29.8492 61.4697 29.9278C61.5476 30.2652 61.6186 30.2736 61.6186 30.6797V74.7442H59.386V34.7403C59.386 33.0554 58.124 32.0332 56.4092 32.0332H7.59074C5.76723 32.0332 4.61398 33.0418 4.61398 34.8907V74.7442H2.38149V50.6817C2.38149 48.932 0.000141226 48.932 0.000141226 50.6817V74.8946C0.000141226 76.0226 0.725618 77.0001 1.78622 77.0001H44.3536C45.8919 77.0001 45.8919 74.7443 44.3536 74.7443H33.1909V34.4396H57.0048V74.7443H49.5629C47.9677 74.7443 47.9874 77.0001 49.5629 77.0001H62.214C63.2745 77.0001 64.0001 76.0226 64.0001 74.8946V30.8301C64.0001 28.5952 62.5289 27.3711 60.2791 27.3711H3.72101C1.47115 27.3711 0.000141226 28.5952 0.000141226 30.8301H0Z" fill="#797979"/>
<path fill-rule="evenodd" clip-rule="evenodd" d="M12.3532 21.6563V6.16606C12.3532 5.81402 12.6002 5.56444 12.9486 5.56444H51.0509C51.3993 5.56444 51.6463 5.81388 51.6463 6.16606V21.6563C51.6463 22.0083 51.3993 22.2579 51.0509 22.2579H12.9486C12.6002 22.2579 12.3532 22.0083 12.3532 21.6563ZM17.7113 1.2031V3.15823C14.5241 3.15823 9.97168 2.38865 9.97168 6.46687V21.3555C9.97168 23.3725 11.4157 24.6641 13.395 24.6641H50.6043C52.5836 24.6641 54.0275 23.3725 54.0275 21.3555V6.46687C54.0275 2.3888 49.4752 3.15823 46.2879 3.15823C46.2879 1.53217 46.59 0 45.0972 0C43.7366 0 44.0554 1.33125 44.0554 3.15823H19.9438C19.9438 0.684531 20.249 0 18.6042 0C18.122 0 17.7113 0.653565 17.7113 1.2031Z" fill="#797979"/>
<path fill-rule="evenodd" clip-rule="evenodd" d="M15.479 45.2676C15.479 44.2073 15.8792 43.4199 16.4758 42.8157C18.7104 40.5522 22.1766 42.6776 22.1766 44.666C22.1766 45.8302 22.2844 46.8897 21.0559 47.8947C18.6204 49.8872 15.479 48.0745 15.479 45.2674V45.2676ZM13.0977 45.1172C13.0977 50.3216 19.1219 52.886 22.6815 49.5374L23.3337 48.8429C26.1374 45.6945 23.8431 39.5527 19.2 39.5527C16.5053 39.5527 14.7979 40.5805 13.6877 42.856C13.4801 43.2816 13.0977 44.5044 13.0977 45.1172Z" fill="#EBA707"/>
<path fill-rule="evenodd" clip-rule="evenodd" d="M41.674 45.418C41.674 42.0561 45.4934 40.7735 47.5166 42.823C49.6112 44.9449 48.1608 48.7265 45.0974 48.7265C43.3303 48.7265 41.6742 47.1451 41.6742 45.4178L41.674 45.418ZM39.4414 44.8164C39.4414 46.6815 39.6732 47.9127 40.9614 49.2961C44.3087 52.8907 50.753 50.4666 50.753 45.7187V44.8164C50.753 42.1664 48.1473 39.5527 45.5438 39.5527C43.654 39.5527 42.43 39.8259 41.0709 41.1992C40.3171 41.9608 39.4414 43.3116 39.4414 44.8164Z" fill="#EBA707"/>
<path fill-rule="evenodd" clip-rule="evenodd" d="M36.0182 58.2014C36.0182 60.3641 35.5111 63.7659 37.2089 63.7659C37.9068 63.7659 38.3995 63.1416 38.3995 62.4124V57.9006C38.3995 56.4013 36.0182 56.0157 36.0182 58.2014Z" fill="#EBA707"/>
<path fill-rule="evenodd" clip-rule="evenodd" d="M25.5996 57.9006V62.4123C25.5996 64.2892 27.981 64.0762 27.981 62.4123V58.2014C27.981 56.0157 25.5996 56.4014 25.5996 57.9006Z" fill="#EBA707"/>
<path fill-rule="evenodd" clip-rule="evenodd" d="M2.08398 7.97082C2.08398 9.17935 4.91161 10.377 4.91189 10.377C6.17134 10.377 6.10256 9.37399 6.10256 8.87311C6.10256 8.23981 3.48424 6.76758 3.27466 6.76758C2.6616 6.76758 2.08398 7.35122 2.08398 7.97068V7.97082Z" fill="#EBA707"/>
<path fill-rule="evenodd" clip-rule="evenodd" d="M0.595703 13.836C0.595703 15.3751 1.59417 15.0391 3.87016 15.0391C5.46531 15.0391 5.44568 12.7833 3.87016 12.7833C1.96023 12.7833 0.595703 12.4462 0.595703 13.836Z" fill="#EBA707"/>
<path fill-rule="evenodd" clip-rule="evenodd" d="M57.8975 18.3477C57.8975 19.4734 57.8776 19.2849 59.1192 20.1211C59.4952 20.3744 60.2571 21.0548 60.7254 21.0548C61.1393 21.0548 63.2377 20.0988 60.6977 18.3756C60.3808 18.1607 59.4366 17.4453 59.0882 17.4453C58.5443 17.4453 57.8975 17.8604 57.8975 18.3476V18.3477Z" fill="#EBA707"/>
<path fill-rule="evenodd" clip-rule="evenodd" d="M2.08398 19.7014C2.08398 20.4306 2.57672 21.055 3.2748 21.055C3.60216 21.055 6.1027 19.5268 6.1027 18.9494C6.1027 15.5537 2.08413 19.0295 2.08413 19.7014H2.08398Z" fill="#EBA707"/>
<path fill-rule="evenodd" clip-rule="evenodd" d="M57.8975 8.87311C57.8975 12.2688 61.916 8.79306 61.916 8.12109C61.916 7.39189 61.4233 6.76758 60.7254 6.76758C60.5036 6.76758 57.8975 8.24795 57.8975 8.87311Z" fill="#EBA707"/>
<path fill-rule="evenodd" clip-rule="evenodd" d="M58.9395 13.8359C58.9395 15.3932 60.6722 15.039 62.3626 15.039C63.7914 15.039 63.7914 12.7832 62.3626 12.7832C61.0386 12.7832 58.9395 12.4545 58.9395 13.8359Z" fill="#EBA707"/>
<path fill-rule="evenodd" clip-rule="evenodd" d="M22.3033 13.0661H23.8785C24.4968 13.0661 24.8891 13.4919 24.8891 14.1094C24.8891 14.7381 24.4787 15.1527 23.8566 15.1527H22.3031V16.5281H24.1076C24.7325 16.5281 25.0964 16.9836 25.0964 17.5934C25.0964 18.2288 24.6568 18.6146 24.042 18.6146H21.2378C20.5693 18.6146 20.1836 18.1369 20.1836 17.4831V10.7027C20.1836 10.0832 20.5163 9.57124 21.1723 9.57124H24.1074C24.7217 9.57124 25.0963 10.0082 25.0963 10.6145C25.0963 11.232 24.7038 11.6578 24.0857 11.6578H22.3031V13.0662L22.3033 13.0661ZM30.1763 15.5997L28.3768 18.1836C28.1626 18.5011 27.8338 18.6808 27.4485 18.6808C26.852 18.6808 26.4379 18.2916 26.4379 17.6816C26.4379 17.4347 26.5371 17.21 26.675 17.0112L28.9036 13.8029L27.1077 11.2508C26.9356 11.0199 26.8199 10.7534 26.8199 10.46C26.8199 9.85778 27.2562 9.50488 27.8305 9.50488C28.2366 9.50488 28.5831 9.69125 28.8063 10.0296L30.1764 12.0492L31.554 10.0189C31.7792 9.69753 32.108 9.50488 32.5006 9.50488C33.0936 9.50488 33.4895 9.90487 33.4895 10.5041C33.4895 10.7668 33.4036 11.0117 33.2602 11.2288L33.2553 11.2363L31.4503 13.8011L33.6715 16.9692C33.8278 17.1796 33.9148 17.4321 33.9148 17.7034C33.9148 18.3202 33.4712 18.6805 32.8823 18.6805C32.5101 18.6805 32.1995 18.4943 31.9836 18.1944L30.1763 15.5995V15.5997ZM36.5288 9.50503C37.1848 9.50503 37.5721 9.96966 37.5721 10.6144V17.5492C37.5721 18.1973 37.1954 18.6806 36.5288 18.6806C35.8668 18.6806 35.4526 18.2328 35.4526 17.5711V10.6142C35.4526 9.95267 35.8668 9.50488 36.5288 9.50488V9.50503ZM43.1171 11.6577V17.5933C43.1171 18.2457 42.7012 18.6806 42.052 18.6806C41.4046 18.6806 40.9976 18.2401 40.9976 17.5933V11.6577H40.0878C39.4656 11.6577 39.0553 11.2431 39.0553 10.6144C39.0553 9.97494 39.4839 9.57109 40.1097 9.57109H44.005C44.6306 9.57109 45.0594 9.97494 45.0594 10.6144C45.0594 11.2318 44.6669 11.6577 44.0488 11.6577H43.1172H43.1171Z" fill="#EBA707"/>
</svg>
