<svg width="80" height="80" viewBox="0 0 80 80" fill="none" xmlns="http://www.w3.org/2000/svg">
<path fill-rule="evenodd" clip-rule="evenodd" d="M3.43767 41.4067C3.43767 40.6862 4.31591 40.9378 6.09372 40.9378C6.45355 40.9378 6.56256 41.0468 6.56256 41.4067V77.6566H3.43767V41.4067ZM3.12511 0.000119732H6.88657C7.86543 0.132007 8.59195 0.50861 8.84277 1.46918C9.01049 2.11184 8.90604 9.90158 8.90604 10.9376C10.2508 11.2967 10 12.6087 10 13.9062H11.5629C11.5629 11.9302 11.2198 9.38395 12.1384 8.54383C12.4312 8.27624 12.9404 7.96825 13.4382 7.96825H78.1263C78.9863 7.96825 80.001 8.70011 80.001 9.99917V42.0303C80.001 43.0206 79.0053 43.7486 77.9701 43.7486H62.97C61.1739 43.7486 61.5932 41.4051 62.6574 41.4051H77.6575V10.4673H13.9071V41.4051H57.6571C58.1039 41.4051 58.2251 41.4821 58.4431 41.7131C59.1506 42.464 58.5773 43.7486 57.8134 43.7486H13.5945C10.9179 43.7486 11.5636 40.8578 11.5636 37.8114H10.0008C10.0008 38.8917 10.1517 39.6479 9.6745 40.2974C9.44808 40.6047 9.34287 40.6786 8.90757 40.78L8.90833 76.8745C8.9129 77.9212 8.95179 79.9994 7.03294 79.9994H3.21049C1.51196 79.8705 1.08809 79.2492 1.09496 76.7182V40.9363C0.426371 40.4888 0.12524 40.0733 0.000976562 39.4535V34.9991C0.000976562 34.2512 0.498794 33.7519 1.09496 33.5925C1.09496 31.509 1.10029 29.4255 1.09496 27.342C1.09191 26.1558 0.888358 25.2874 1.76125 24.8659C2.53123 24.4938 3.4392 24.9947 3.4392 25.9354V33.4355H6.56409V18.7479C6.56409 17.9894 5.42742 18.2791 3.4392 18.2791C3.4392 19.4379 3.77235 21.7166 2.5015 21.7166C0.62992 21.7166 1.09496 20.3725 1.09496 18.1228C0.41646 17.965 0.000976562 17.5183 0.000976562 16.7163V12.3411C0.000976562 11.5933 0.498794 11.0939 1.09496 10.9346C1.09496 9.72472 0.919614 2.01502 1.23904 1.23513C1.54093 0.4987 2.09364 -0.00292969 3.12587 -0.00292969L3.12511 0.000119732ZM2.34369 35.7812H7.1877C7.54753 35.7812 7.65654 35.8903 7.65654 36.2501V38.5936H2.34369V35.7812ZM8.90604 18.1251C9.6562 17.9246 10 17.3795 10 16.4068H11.5629V35.3132H10C10 34.3404 9.65696 33.7946 8.90604 33.5948V18.1259V18.1251ZM2.34369 13.1248H7.65654V15.9371H2.34369V13.1248ZM3.43767 2.3436H6.56256V10.7813H3.43767V2.3436Z" fill="#797979"/>
<path fill-rule="evenodd" clip-rule="evenodd" d="M18.281 14.6873H73.2811V37.1874H18.281V14.6873ZM15.7812 13.7496V37.9688C15.7812 38.754 16.5581 39.5316 17.3441 39.5316H74.2196C75.0048 39.5316 75.7824 38.7548 75.7824 37.9688V14.0621C75.7824 12.8538 75.1153 12.1875 73.9078 12.1875H17.6574C16.6488 12.1875 15.7828 12.7722 15.7828 13.7503L15.7812 13.7496Z" fill="#797979"/>
<path fill-rule="evenodd" clip-rule="evenodd" d="M20.157 20.1568C20.157 21.0671 21.0764 25.4582 21.3158 26.6544C21.6627 28.3872 22.0294 32.5009 23.2819 32.5009C25.107 32.5009 24.9896 31.8216 25.8381 28.9628L27.0891 24.9017C27.1013 24.872 27.128 24.8179 27.1379 24.7942C27.1478 24.7706 27.1676 24.721 27.1882 24.6883L29.0788 31.0791C29.4295 32.2219 29.6239 32.5009 30.7819 32.5009C32.2007 32.5009 32.11 30.9266 32.3562 29.7L34.1668 20.3268C34.0639 19.0773 32.0924 18.5117 31.6968 20.4465C31.5519 21.1548 31.4063 21.9567 31.2638 22.6696C31.0305 23.8344 30.4953 25.8783 30.4694 27.0317L28.5071 20.7126C28.1587 19.4829 28.0786 19.2191 26.8756 19.2191C25.9052 19.2191 24.8989 23.5074 24.5322 24.8438C24.2958 25.7045 24.1502 26.5827 23.7508 26.8747L22.6507 20.631C22.5843 20.3085 22.5013 19.9304 22.3343 19.6971C21.6505 18.7396 20.1562 19.332 20.1562 20.1561L20.157 20.1568Z" fill="#EBA707"/>
<path fill-rule="evenodd" clip-rule="evenodd" d="M39.3751 23.5939C39.4132 24.0528 40.562 27.0855 40.7816 27.5002H37.813C37.8557 26.9887 38.2841 26.0243 38.4839 25.5143C38.7324 24.8785 38.9085 23.9362 39.3758 23.5939H39.3751ZM34.6873 32.5005H35.3125C36.5254 32.5005 36.2944 29.8445 37.1871 29.8445H41.2497C42.1744 29.8445 41.9701 32.5005 43.1243 32.5005C45.8497 32.5005 44.2465 30.1715 43.5741 28.1444L41.2261 21.7421C40.7709 20.5186 40.639 19.2188 39.2188 19.2188C37.8404 19.2188 37.6018 20.9866 37.1879 22.0311C36.7091 23.2394 36.3203 24.4142 35.8271 25.6698C35.3559 26.869 34.9412 28.0194 34.5135 29.2003C34.3351 29.6927 33.9524 30.5024 33.8365 31.0353C33.7001 31.6611 34.0759 32.4997 34.6873 32.4997V32.5005Z" fill="#EBA707"/>
<path fill-rule="evenodd" clip-rule="evenodd" d="M58.907 21.5627C58.907 25.174 62.0868 23.9191 62.5007 25.469C60.4393 25.9622 60.9173 24.6876 59.8447 24.6876C58.5228 24.6876 58.5944 25.7297 58.5944 26.2504C58.5944 27.2491 61.9922 29.0886 64.091 27.2155C65.3283 26.1109 65.3161 24.2332 63.7792 23.0973C63.3523 22.7817 61.8748 22.0841 61.2505 22.0323C61.8809 21.1243 62.2629 22.1886 64.0628 22.1886C64.9403 22.1886 66.0114 19.9625 62.6593 19.3663C60.6536 19.0096 58.9062 20.1668 58.9062 21.5642L58.907 21.5627Z" fill="#EBA707"/>
<path fill-rule="evenodd" clip-rule="evenodd" d="M53.5947 20.7809V31.2495C53.5947 33.0449 55.7545 32.4998 58.9076 32.4998C60.0122 32.4998 60.3461 30.1563 58.595 30.1563H56.0952V20.4691C56.0952 18.9116 53.5955 18.5106 53.5955 20.7816L53.5947 20.7809Z" fill="#EBA707"/>
<path fill-rule="evenodd" clip-rule="evenodd" d="M46.0947 20.1567V31.563C46.0947 31.9069 46.4431 32.5007 47.1887 32.5007C51.233 32.5007 52.189 32.9825 52.189 31.0942C52.189 29.7974 49.7655 30.1565 48.439 30.1565V20.1567C48.439 18.911 46.0955 18.911 46.0955 20.1567H46.0947Z" fill="#EBA707"/>
<path fill-rule="evenodd" clip-rule="evenodd" d="M65.625 20.4691C65.625 21.6828 66.5833 21.7194 67.3441 21.7194V26.8759C67.3441 28.4227 69.6876 28.4227 69.6876 26.8759V21.7194C72.0044 21.7194 71.595 19.9301 70.8326 19.4803C70.5292 19.3012 65.625 18.4443 65.625 20.4691Z" fill="#EBA707"/>
</svg>
