<svg width="73" height="73" viewBox="0 0 73 73" fill="none" xmlns="http://www.w3.org/2000/svg">
<path fill-rule="evenodd" clip-rule="evenodd" d="M63.8749 43.7719H69.1503V53.7524H63.8749V43.7719ZM73 20.104V23.5357C72.8624 24.4555 72.489 25.1607 71.5743 25.2368V36.9282C72.2493 37.2523 73 37.6624 73 38.6391V42.1259C72.8844 42.719 72.602 43.1778 71.971 43.5987C71.6873 43.7878 71.574 43.5748 71.574 44.0574V53.7527C73.4177 53.7527 73.5336 56.1765 71.4314 56.1765H43.0584C42.3723 56.1765 41.4901 55.7855 41.4901 55.1784C41.4901 53.4098 43.1606 53.7527 44.4843 53.7527V44.0574C44.4843 43.5745 44.3707 43.7881 44.0877 43.5987C43.7925 43.4013 43.0587 42.8591 43.0587 42.3465C43.0587 39.7903 42.5054 37.3895 44.4843 36.9285V25.2371C43.6779 25.1699 43.0587 24.4727 43.0587 23.6688C43.0587 21.1967 42.5063 18.9967 44.4843 18.5361V13.1181H25.3787V41.0635C25.3787 42.6012 22.955 42.9374 22.955 40.6356V20.8172H20.8162V28.0887C20.8162 28.9381 19.9792 29.9422 19.1053 29.9422C17.5083 29.9422 13.8299 30.5465 13.8299 28.2313V20.8172H9.9802V30.3698C9.9802 30.8537 10.2247 30.7468 10.6621 30.8286C12.5195 31.1769 13.9964 32.3889 14.7506 34.1543C15.2721 35.3749 15.8261 39.9126 15.8261 41.4911C15.8261 41.9734 14.0524 43.0594 13.5351 41.358C12.9544 39.4478 13.3062 36.1721 12.2604 34.5057C10.7933 32.1686 6.95856 32.9604 6.47177 35.7012C5.87897 39.0387 5.609 42.3417 5.12444 45.7601C4.80894 47.9845 3.79398 51.1927 5.46286 52.8521C6.95856 54.3395 10.2145 53.7527 12.2616 53.7527C11.8436 53.1287 11.5045 52.8212 11.1766 51.9864C10.5701 50.4426 10.6469 48.4949 11.2454 47.0335C12.0391 45.0966 14.3008 43.0594 16.5389 43.0594H22.6697C24.211 43.0594 25.7127 44.1004 26.6487 45.0686C26.6774 45.0982 26.7573 45.1867 26.785 45.2173L27.8999 46.9536C29.0728 49.4535 28.3472 51.6614 26.9467 53.7524L36.9282 53.7514C37.5656 53.7473 38.0711 53.689 38.5092 53.8813C39.9011 54.4926 39.0947 56.1761 37.6401 56.1761H22.0989C21.1667 56.1761 20.3756 55.2787 20.8684 54.3872C21.3246 53.5627 22.3943 53.8049 23.3657 53.4509C26.153 52.4353 27.1473 48.3618 24.6086 46.3949C22.7996 44.9934 20.2963 45.3405 17.9639 45.3405C12.2986 45.3405 11.4552 52.0781 16.0547 53.5232C17.1117 53.8552 18.104 53.548 18.4084 54.6002C18.6838 55.5515 17.9432 56.1761 16.8232 56.1761H1.56731C0.881223 56.1761 -0.000976562 55.7852 -0.000976562 55.1781C-0.000976562 53.484 1.42245 53.7524 3.13559 53.7524C1.79844 51.2252 2.13114 50.4898 2.43454 47.776C2.5291 46.9307 2.69019 45.8113 2.80672 45.0116C3.15947 42.5933 3.77296 35.884 4.47592 34.1339C5.03243 32.7483 6.19002 31.4341 7.69813 31.0826C7.69813 30.1323 7.4896 19.5583 7.83344 18.9563C7.99644 18.671 8.53448 18.3931 8.98147 18.3931H13.8293V17.1098C13.8293 15.0181 16.5096 15.2562 17.9639 15.2562C20.4415 15.2562 20.8156 16.2368 20.8156 18.3928H22.9544C22.9544 16.9652 22.608 12.4332 23.4969 11.3785C24.367 10.3457 26.4268 10.6934 27.6595 10.6934V8.55456C22.3972 8.55456 22.9544 8.1738 22.9544 2.42374C22.9544 1.25469 23.4841 0 24.8079 0H45.1965C45.6693 0 46.1746 0.347659 46.4226 0.627505C46.7269 0.970706 46.9074 1.4056 46.9074 1.99617C46.9074 8.02353 47.7696 8.55488 42.3449 8.55488V10.6937C45.6076 10.6937 44.9087 10.4017 46.6222 11.5491C46.7406 11.446 46.7753 11.4138 46.9367 11.2935C47.1469 11.1372 47.0342 11.2177 47.2745 11.0608L55.0064 6.24575C57.3942 4.70453 57.6145 4.06015 60.3375 5.81819C62.106 6.95986 69.8163 11.4995 70.8313 12.4339C71.9688 13.481 71.5734 16.9343 71.5734 18.5354C72.2241 18.687 72.999 19.3186 72.999 20.1037L73 20.104ZM46.9081 43.7719H52.1835V53.7524H46.9081V43.7719ZM45.3398 39.2093H70.7189V41.4904H60.881C59.9389 41.4904 58.9978 43.7719 61.4512 43.7719V53.7524H54.6075V43.7719C56.8326 43.7719 57.6018 44.0858 57.6018 42.3462C57.6018 41.8843 56.9822 41.4907 56.4611 41.4907H45.3401V39.2096L45.3398 39.2093ZM16.1113 17.68H18.3925V27.6605H16.1113V17.68ZM45.3398 20.8165H70.7189V22.9553H67.7246C65.4238 22.9553 65.7294 25.3791 67.2967 25.3791H69.1503V36.7853H46.9081V25.3791H62.5916C64.1019 25.3791 64.4623 22.9553 62.164 22.9553H45.3398V20.8165ZM46.9081 14.4004C46.9081 13.8615 49.1112 12.7239 49.5349 12.4648C50.5359 11.8519 51.3773 11.3358 52.3538 10.7211C53.3162 10.1155 54.1876 9.56061 55.15 8.95475C58.7775 6.67173 57.3901 6.88122 60.8876 8.97577L67.9128 13.3568C69.5692 14.3333 69.1506 13.7876 69.1506 18.3925H46.9084V14.4001L46.9081 14.4004ZM29.9413 8.55488H39.9218V10.6937H29.9413V8.55488ZM25.3787 2.28143H44.4843V6.13114H25.3787V2.28143Z" fill="#797979"/>
<path fill-rule="evenodd" clip-rule="evenodd" d="M0 71.8601C0 72.5497 0.45081 73.0008 1.14071 73.0008H71.8596C73.5209 73.0008 73.1178 70.7197 72.1449 70.7197H0.855775C0.393822 70.7197 0.000318369 71.3393 0.000318369 71.8604L0 71.8601Z" fill="#797979"/>
<path fill-rule="evenodd" clip-rule="evenodd" d="M0 5.41835V6.13118C0 9.67813 5.418 11.2528 5.418 8.84018C5.418 7.41516 3.94777 7.86183 3.1232 7.28527C1.71951 6.30342 2.24896 3.85007 4.41991 3.85007H11.6914C12.5819 3.85007 13.2282 4.28146 13.5453 4.84784C13.9757 5.6167 13.5803 6.37951 14.4476 6.79721C15.154 7.13754 16.1804 6.81695 17.0521 7.04426C19.1263 7.58517 18.6268 10.6937 16.6819 10.6937H10.4084C7.666 10.6937 9.30177 7.69946 7.27186 7.69946C5.35337 7.69946 6.14133 10.7176 7.44473 11.9465C8.0872 12.5524 9.20085 13.1175 10.4087 13.1175H16.2543C22.111 13.1175 22.5064 4.5629 15.969 4.5629C15.4234 2.22066 13.1372 1.42633 10.8363 1.42633C7.82136 1.42633 3.58069 0.979339 1.6657 2.37857C0.886656 2.94781 0.000318369 4.16111 0.000318369 5.41835H0Z" fill="#EBA707"/>
<path fill-rule="evenodd" clip-rule="evenodd" d="M62.3066 29.3716H64.4454V32.936H62.3066V29.3716ZM59.8828 28.2309V34.0764C59.8828 34.6644 60.362 35.3598 60.8809 35.3598H65.7287C66.4183 35.3598 66.8694 34.909 66.8694 34.2191V27.9456C66.8694 27.4267 66.1741 26.9475 65.5861 26.9475H61.1662C60.4616 26.9475 59.8828 27.526 59.8828 28.2309Z" fill="#EBA707"/>
<path fill-rule="evenodd" clip-rule="evenodd" d="M51.4709 29.371H53.752V32.9355H51.4709V29.371ZM49.1895 28.0877V34.2185C49.1895 34.9081 49.6406 35.3592 50.3302 35.3592H55.178C55.7851 35.3592 56.176 34.477 56.176 33.7909V28.5155C56.176 27.6257 55.7682 26.9473 54.8927 26.9473H50.4728C49.7832 26.9473 49.1895 27.3522 49.1895 28.088V28.0877Z" fill="#EBA707"/>
<path fill-rule="evenodd" clip-rule="evenodd" d="M0 63.1622V63.1844V63.5079C0.00668574 63.769 0.048392 63.9457 0.261381 64.1838C0.359756 64.294 0.797513 64.5878 0.998085 64.5878H17.9649C19.637 64.5878 19.8286 62.1641 17.6796 62.1641H1.56828C0.882199 62.1641 0 62.555 0 63.1622H0Z" fill="#EBA707"/>
<path fill-rule="evenodd" clip-rule="evenodd" d="M53.752 63.3054C53.752 64.0816 54.2588 64.5888 55.0353 64.5888H72.0021C72.1779 64.5888 72.5526 64.357 72.6659 64.2545C72.8385 64.0988 72.9579 63.8632 73.0002 63.606V63.1997C72.9114 62.6668 72.4561 62.165 71.4319 62.165H55.3206C54.5243 62.165 53.7523 62.5843 53.7523 63.3058L53.752 63.3054Z" fill="#EBA707"/>
<path fill-rule="evenodd" clip-rule="evenodd" d="M28.0887 64.5888H44.9129C46.5831 64.5888 46.4758 62.165 44.7703 62.165H28.2314C26.5259 62.165 26.4189 64.5888 28.0887 64.5888Z" fill="#EBA707"/>
<path fill-rule="evenodd" clip-rule="evenodd" d="M58.0298 14.6861C56.424 14.6861 56.8146 12.5473 57.7446 12.5473H58.0298C59.5532 12.5473 59.3997 14.6861 58.0298 14.6861ZM57.8872 17.1099C59.6691 17.1099 61.4516 15.7074 61.4516 13.9733C61.4516 8.42444 54.3813 9.3544 54.5176 13.6734C54.5749 15.4903 56.1909 17.1102 57.8872 17.1102V17.1099Z" fill="#EBA707"/>
<path fill-rule="evenodd" clip-rule="evenodd" d="M28.6585 43.772H39.4945C40.4852 43.772 41.3311 42.4737 41.0981 41.6036C40.7966 40.4775 39.2321 40.3371 38.924 41.4909H29.2287C28.9205 40.3371 27.356 40.4779 27.0545 41.6036C26.8218 42.4737 27.6677 43.772 28.6582 43.772H28.6585Z" fill="#797979"/>
</svg>
