<svg width="142" height="162" viewBox="0 0 142 162" fill="none" xmlns="http://www.w3.org/2000/svg">
<g clip-path="url(#clip0_1_10600)">
<path fill-rule="evenodd" clip-rule="evenodd" d="M60.4051 20.6073C62.9748 22.3322 64.6037 25.3625 70.8416 25.3625C77.1652 25.3625 79.2146 21.3918 80.9618 20.9243C81.3236 22.4818 82.9334 24.8666 83.8085 26.6305L98.7825 56.0037C100.822 60.0323 102.628 63.9548 104.681 67.8442L83.7908 67.8268C81.3565 67.8347 79.6969 68.5775 79.6969 71.3314C79.6969 74.6056 83.3545 74.506 86.6545 74.5017L117.015 74.5014C117.412 79.2847 121.147 85.3 124.153 87.6355C136.049 96.8741 135.745 89.2424 135.677 96.3736C135.547 109.982 135.674 123.657 135.674 137.273C131.412 137.628 126.375 140.398 123.416 143.372C119.826 146.98 118.347 149.93 117.015 155.66H26.5656C25.8359 146.871 16.3551 137.273 6.32518 137.273V93.2061C12.9517 93.2061 18.5857 89.1144 22.0667 84.8919C24.0297 82.5111 26.4939 77.7284 26.5656 74.5014C30.9986 74.5014 56.8713 75.1192 59.1469 73.8741C61.5667 72.55 61.2805 68.0008 57.2602 67.8262L36.0534 67.8438L45.0124 50.1944C45.6099 49.0822 45.9997 48.5524 46.5966 47.3439C48.4894 43.5119 60.0339 22.2048 60.4051 20.607V20.6073ZM70.1623 0.00060961H73.0555C77.6557 0.00060961 82.3058 5.08872 83.3062 10.0147C83.9839 13.3529 83.4406 11.6283 85.0734 14.9007L111.955 67.8438C116.983 67.8438 120.808 67.0392 122.708 70.3804C123.534 71.8337 123.228 82.3952 133.731 85.9605C135.609 86.5982 141.999 86.5031 141.999 90.9868V139.492C141.999 141.008 140.7 142.536 139.579 143.089C138.042 143.848 126.693 143.549 123.644 155.647C123.222 157.32 123.376 162.001 118.596 162.001H24.9842C19.4219 162.001 21.4111 156.866 18.0177 150.913C16.0085 147.389 11.7762 144.449 7.15406 143.733C5.71461 143.51 0 144.011 0 138.858V90.9868C0 89.2332 1.56898 87.6796 2.86248 87.1987C4.02674 86.7658 6.73354 86.7345 8.3533 86.3623C10.2409 85.9289 11.6412 85.2793 13.0356 84.3984C14.1917 83.6681 15.6813 82.5501 16.4965 81.5272C17.4868 80.2842 18.403 79.0473 19.0734 77.4528C20.637 73.7351 19.7622 70.1881 22.7694 68.4766C24.2724 67.621 26.1627 67.8435 28.463 67.8435C29.9973 64.9366 31.5703 61.7517 33.1927 58.9527L36.6898 52.3134C37.0623 51.5959 37.332 51.0152 37.7397 50.1956L57.4675 12.59C57.9315 11.5369 57.8926 10.7529 58.1164 9.75316C58.4965 8.05692 59.3296 6.37348 60.1403 5.12439C63.0043 0.709587 66.5147 0.0734581 70.162 0L70.1623 0.00060961ZM64.2002 12.6817C64.2002 3.84817 77.1668 3.8692 77.1668 12.6817C77.1668 20.9182 64.2002 21.0178 64.2002 12.6817Z" fill="white"/>
<path fill-rule="evenodd" clip-rule="evenodd" d="M13.5986 97.9611V132.834C13.5986 135.476 18.0793 135.326 18.9623 135.383C23.0596 135.648 26.6868 139.597 27.1511 143.342C27.3518 144.962 27.1508 145.545 28.0408 146.572C28.7487 147.389 29.5921 147.734 30.9927 147.734H57.5583C61.0766 147.734 62.9463 141.089 56.3083 141.061L33.2063 141.077C32.9785 138.332 31.1088 135.737 29.3644 133.832L28.7474 133.182C28.7006 133.137 28.6307 133.074 28.5829 133.03C26.5919 131.164 23.5686 129.03 19.9234 129.03V102.082C19.9234 100.278 22.5196 102.178 28.5136 97.3783C31.8863 94.6777 32.4446 91.0188 33.5225 88.7672H109.108C109.55 94.0919 116.156 100.69 121.442 101.131V129.03C115.303 130.463 110.536 134.931 109.108 141.077L84.4319 141.069C77.7802 141.022 79.0007 145.789 80.4538 146.974C80.9288 147.361 81.7863 147.734 82.5422 147.734H111.954C116.428 147.734 114.032 142.204 117.713 138.29C121.021 134.775 124.542 135.571 125.841 135.025C126.533 134.734 127.767 133.822 127.767 132.834V97.9608C127.767 92.6056 116.794 97.9385 115.209 86.138C114.984 84.467 115.146 84.012 114.103 83.125C113.402 82.5291 112.238 82.1094 111.005 82.1094H31.9407C23.6492 82.1094 30.6755 89.2924 22.1942 93.8971C18.9392 95.6644 13.5977 93.8273 13.5977 97.9608L13.5986 97.9611Z" fill="#EBA707"/>
<path fill-rule="evenodd" clip-rule="evenodd" d="M86.9705 113.495H86.0218V109.057H88.8682C89.8904 109.057 90.4496 110.208 90.4496 111.276C90.4496 113.292 88.9308 113.495 86.9708 113.495L86.9705 113.495ZM80.3291 106.203V124.591C80.3291 125.763 81.947 126.493 83.1755 126.493C84.7104 126.493 85.1349 125.82 86.0218 125.225V117.933C87.499 118.056 87.1578 118.325 87.8687 119.569C88.3704 120.447 88.7456 121.17 89.1844 122.054C90.8565 125.425 90.8112 126.493 93.2954 126.493C94.8236 126.493 97.3239 124.85 95.46 121.787C95.0857 121.171 94.8808 120.768 94.5621 120.151C93.944 118.953 93.1096 118.238 92.9792 116.665C97.1631 115.546 98.407 103.984 89.1841 103.984C83.8967 103.984 80.3291 103.098 80.3291 106.204V106.203Z" fill="white"/>
<path fill-rule="evenodd" clip-rule="evenodd" d="M69.892 121.42L67.678 121.103C67.0164 118.257 67.3618 114.304 67.3618 111.276C67.3618 108.135 71.4731 108.36 71.4731 111.276C71.4731 114.907 72.3078 121.42 69.892 121.42ZM61.6691 110.642C61.6691 116.461 60.2096 126.493 67.9943 126.493C72.4896 126.493 77.1658 125.935 77.1658 119.201C77.1658 111.156 78.6317 103.984 68.943 103.984C66.8525 103.984 64.9636 104.777 63.793 105.796C62.6613 106.781 61.6691 108.663 61.6691 110.642V110.642Z" fill="white"/>
<path fill-rule="evenodd" clip-rule="evenodd" d="M98.9883 105.571V124.909C98.9883 126.153 100.553 126.495 101.835 126.495H111.322C114.608 126.495 114.114 121.422 111.955 121.422H104.681V117.618H107.844C111.405 117.618 110.539 112.863 108.476 112.863H104.681V109.059H111.955C114.233 109.059 114.264 103.986 111.955 103.986H101.202C100.136 103.986 98.9883 104.547 98.9883 105.572V105.571Z" fill="white"/>
<path fill-rule="evenodd" clip-rule="evenodd" d="M27.5143 110.009C27.5143 118.15 36.6858 117.098 36.6858 120.153C36.6858 121.625 34.3847 122.558 31.2649 120.189C28.1279 117.808 26.8818 121.704 26.8818 122.373C26.8818 123.894 28.4818 125.044 29.6172 125.654C39.8959 131.178 49.2434 117.507 35.9159 112.049C34.6936 111.548 33.5387 111.254 33.207 110.009C34.8949 107.482 38.5519 110.009 39.5322 110.009C41.5579 110.009 41.7461 107.948 41.7461 106.521C41.7461 102.838 27.5146 101.885 27.5146 110.009H27.5143Z" fill="white"/>
<path fill-rule="evenodd" clip-rule="evenodd" d="M43.6436 106.204C43.6436 109.626 45.6458 109.058 49.0201 109.058V124.592C49.0201 127.07 54.7128 127.07 54.7128 124.592V109.058C56.8844 109.058 62.0876 109.799 59.4565 104.302C56.5016 103.612 49.2986 103.985 45.8575 103.985C44.3812 103.985 43.6436 104.725 43.6436 106.205V106.204Z" fill="white"/>
<path fill-rule="evenodd" clip-rule="evenodd" d="M66.7305 71.0149C66.7305 75.5638 73.3719 75.3691 73.3719 71.3319C73.3719 66.4755 66.7305 67.0567 66.7305 71.0149Z" fill="#EBA707"/>
<path fill-rule="evenodd" clip-rule="evenodd" d="M66.7305 144.246C66.7305 148.914 73.3719 148.688 73.3719 144.563C73.3719 139.875 66.7305 140.366 66.7305 144.246Z" fill="white"/>
</g>
<defs>
<clipPath id="clip0_1_10600">
<rect width="142" height="162" fill="white"/>
</clipPath>
</defs>
</svg>
