<svg width="106" height="171" viewBox="0 0 106 171" fill="none" xmlns="http://www.w3.org/2000/svg">
<path d="M103.66 0H2.15858C1.06999 0 0.1875 0.881751 0.1875 1.96945V168.642C0.1875 169.73 1.06999 170.612 2.15858 170.612H103.66C104.748 170.612 105.631 169.73 105.631 168.642V1.96945C105.631 0.881751 104.748 0 103.66 0Z" fill="#4A4A4A"/>
<path d="M44.8664 51.0456C48.6109 50.9522 51.5706 47.8435 51.4771 44.1021C51.3836 40.3608 48.2724 37.4035 44.5279 37.4969C40.7835 37.5903 37.8238 40.699 37.9173 44.4404C38.0108 48.1817 41.122 51.139 44.8664 51.0456Z" fill="#EBA707"/>
<path d="M81.1993 77.0641L68.3269 64.7853C67.209 63.7185 65.7939 63.0153 64.268 62.7683H56.7901L48.318 54.6875C47.7853 54.0911 47.0796 53.6756 46.2993 53.4991C45.519 53.3226 44.703 53.3938 43.9652 53.7028L43.2044 54.0224C42.4739 54.3365 41.8587 54.8687 41.443 55.5461C41.0274 56.2236 40.8319 57.0129 40.8832 57.8058L40.7449 69.6657C40.7229 71.5237 41.1647 73.3579 42.0302 75.0025C42.8958 76.6471 44.1579 78.0502 45.7025 79.0851C47.247 80.12 49.0254 80.7539 50.8767 80.9297C52.728 81.1054 54.594 80.8174 56.306 80.0917L66.935 75.5827L76.0555 83.089C76.7928 83.6847 77.7193 83.9965 78.6671 83.968C79.6148 83.9395 80.5208 83.5725 81.2209 82.9335C82.9369 81.3917 82.8462 78.6664 81.1993 77.0641Z" fill="#EBA707"/>
<path d="M69.7322 83.3792C68.3726 82.5026 66.8135 81.9832 65.1995 81.8692C63.5855 81.7552 61.9688 82.0502 60.4993 82.7271L56.7041 84.3035C54.5169 85.2325 52.1333 85.6056 49.7665 85.3894C47.3997 85.1732 45.1234 84.3745 43.141 83.0645C41.1586 81.7546 39.5319 79.9742 38.4064 77.8827C37.2808 75.7912 36.6914 73.4536 36.6909 71.0788V53.3711H31.4434V71.0788C31.4389 74.3181 32.2392 77.5078 33.7723 80.362C35.3054 83.2161 37.5235 85.6455 40.2276 87.4322C42.9318 89.2189 46.0374 90.3072 49.2661 90.5993C52.4949 90.8915 55.7457 90.3784 58.7271 89.1062L62.1548 87.6636L62.6562 87.4736C63.3299 87.1653 64.0702 87.0311 64.8093 87.0833C65.5484 87.1355 66.2625 87.3724 66.8861 87.7723C67.5096 88.1721 68.0226 88.7222 68.3779 89.3718C68.7332 90.0215 68.9195 90.7499 68.9195 91.4902C68.9184 92.6617 68.4522 93.7848 67.6231 94.6132C66.7941 95.4415 65.67 95.9074 64.4976 95.9085H40.7454V101.13H64.4976C66.5841 101.135 68.6159 100.463 70.2882 99.2163C71.9604 97.9695 73.1831 96.2146 73.7728 94.2148C74.3626 92.215 74.2875 90.0781 73.559 88.1245C72.8305 86.1709 71.4878 84.5059 69.7322 83.3792Z" fill="#EBA707"/>
<path d="M83.3664 139.024L81.5293 137.192L90.1224 128.606L81.7195 120.21L83.5522 118.379L93.7923 128.606L83.3664 139.024Z" fill="white"/>
<path d="M16.6035 122.904H15.5898V122.184H16.5625C16.9922 122.184 17.3398 122.123 17.6055 122.002C17.8711 121.881 18.0645 121.713 18.1855 121.498C18.3066 121.283 18.3672 121.035 18.3672 120.754C18.3672 120.484 18.3008 120.238 18.168 120.016C18.0352 119.789 17.8301 119.609 17.5527 119.477C17.2754 119.34 16.918 119.271 16.4805 119.271C16.1523 119.271 15.8555 119.334 15.5898 119.459C15.3242 119.58 15.1133 119.75 14.957 119.969C14.8008 120.184 14.7227 120.432 14.7227 120.713H13.5918C13.5918 120.35 13.668 120.023 13.8203 119.734C13.9727 119.441 14.1816 119.193 14.4473 118.99C14.7129 118.783 15.0195 118.625 15.3672 118.516C15.7188 118.406 16.0898 118.352 16.4805 118.352C16.9375 118.352 17.3516 118.404 17.7227 118.51C18.0938 118.611 18.4121 118.764 18.6777 118.967C18.9434 119.17 19.1465 119.422 19.2871 119.723C19.4277 120.023 19.498 120.373 19.498 120.771C19.498 121.064 19.4297 121.34 19.293 121.598C19.1562 121.855 18.9609 122.082 18.707 122.277C18.4531 122.473 18.1484 122.627 17.793 122.74C17.4375 122.85 17.041 122.904 16.6035 122.904ZM15.5898 122.406H16.6035C17.084 122.406 17.5117 122.455 17.8867 122.553C18.2617 122.65 18.5781 122.793 18.8359 122.98C19.0938 123.168 19.2891 123.4 19.4219 123.678C19.5586 123.951 19.627 124.266 19.627 124.621C19.627 125.02 19.5488 125.373 19.3926 125.682C19.2402 125.99 19.0234 126.252 18.7422 126.467C18.4609 126.682 18.127 126.844 17.7402 126.953C17.3574 127.062 16.9375 127.117 16.4805 127.117C16.1133 127.117 15.75 127.07 15.3906 126.977C15.0352 126.879 14.7129 126.73 14.4238 126.531C14.1348 126.328 13.9023 126.07 13.7266 125.758C13.5547 125.445 13.4688 125.07 13.4688 124.633H14.5996C14.5996 124.918 14.6777 125.18 14.834 125.418C14.9941 125.656 15.2148 125.848 15.4961 125.992C15.7773 126.133 16.1055 126.203 16.4805 126.203C16.9102 126.203 17.2734 126.137 17.5703 126.004C17.8711 125.867 18.0996 125.682 18.2559 125.447C18.416 125.209 18.4961 124.941 18.4961 124.645C18.4961 124.383 18.4531 124.156 18.3672 123.965C18.2852 123.77 18.1621 123.609 17.998 123.484C17.8379 123.359 17.6367 123.268 17.3945 123.209C17.1562 123.146 16.8789 123.115 16.5625 123.115H15.5898V122.406ZM24.2734 119.225L21.4492 127H20.2949L23.5469 118.469H24.291L24.2734 119.225ZM26.6406 127L23.8105 119.225L23.793 118.469H24.5371L27.8008 127H26.6406ZM26.4941 123.842V124.768H21.7012V123.842H26.4941ZM34.5332 118.469V119.395H30.6309V118.469H34.5332ZM35.5059 118.469V127H34.375V118.469H35.5059ZM30.2441 118.469H31.3691L31.1758 122.646C31.1484 123.248 31.1016 123.785 31.0352 124.258C30.9727 124.727 30.8828 125.135 30.7656 125.482C30.6484 125.826 30.4961 126.111 30.3086 126.338C30.1211 126.561 29.8906 126.727 29.6172 126.836C29.3477 126.945 29.0234 127 28.6445 127H28.3398V126.08L28.5742 126.062C28.793 126.047 28.9805 125.998 29.1367 125.916C29.2969 125.83 29.4316 125.701 29.541 125.529C29.6543 125.357 29.7461 125.135 29.8164 124.861C29.8867 124.588 29.9414 124.254 29.9805 123.859C30.0234 123.461 30.0566 122.996 30.0801 122.465L30.2441 118.469ZM19.2988 136.221V136.67C19.2988 137.204 19.2321 137.682 19.0986 138.105C18.9652 138.529 18.7731 138.888 18.5225 139.185C18.2718 139.481 17.9707 139.707 17.6191 139.863C17.2708 140.02 16.8802 140.098 16.4473 140.098C16.0273 140.098 15.6416 140.02 15.29 139.863C14.9417 139.707 14.639 139.481 14.3818 139.185C14.1279 138.888 13.931 138.529 13.791 138.105C13.651 137.682 13.5811 137.204 13.5811 136.67V136.221C13.5811 135.687 13.6494 135.21 13.7861 134.79C13.9261 134.367 14.123 134.007 14.377 133.711C14.6309 133.411 14.932 133.184 15.2803 133.027C15.6318 132.871 16.0176 132.793 16.4375 132.793C16.8704 132.793 17.2611 132.871 17.6094 133.027C17.9609 133.184 18.262 133.411 18.5127 133.711C18.7666 134.007 18.9603 134.367 19.0938 134.79C19.2305 135.21 19.2988 135.687 19.2988 136.221ZM18.3662 136.67V136.211C18.3662 135.788 18.3223 135.413 18.2344 135.088C18.1497 134.762 18.0244 134.489 17.8584 134.268C17.6924 134.046 17.4889 133.879 17.248 133.765C17.0104 133.651 16.7402 133.594 16.4375 133.594C16.1445 133.594 15.8792 133.651 15.6416 133.765C15.4072 133.879 15.2054 134.046 15.0361 134.268C14.8701 134.489 14.7415 134.762 14.6504 135.088C14.5592 135.413 14.5137 135.788 14.5137 136.211V136.67C14.5137 137.096 14.5592 137.474 14.6504 137.803C14.7415 138.128 14.8717 138.403 15.041 138.628C15.2135 138.849 15.417 139.017 15.6514 139.131C15.889 139.245 16.1543 139.302 16.4473 139.302C16.7533 139.302 17.0251 139.245 17.2627 139.131C17.5003 139.017 17.7005 138.849 17.8633 138.628C18.0293 138.403 18.1546 138.128 18.2393 137.803C18.3239 137.474 18.3662 137.096 18.3662 136.67ZM22.6387 136.753L20.0996 132.891H21.2031L23.0928 135.972H24.4307L24.2793 136.753H22.6387ZM23.1465 136.68L21.0811 140H19.9092L22.5508 135.869L23.1465 136.68ZM24.8359 132.891V140H23.9033V132.891H24.8359ZM28.6055 132.891L26.0566 136.753H24.4648L24.3184 135.972H25.6074L27.4971 132.891H28.6055ZM27.6191 140L25.5586 136.68L26.1592 135.869L28.791 140H27.6191ZM30.666 138.369L34.167 132.891H35.1094V140H34.167V134.517L30.666 140H29.7285V132.891H30.666V138.369ZM42.5215 139.233V140H37.1406V139.233H42.5215ZM37.292 139.233V141.748H36.3594L36.3545 139.233H37.292ZM43.3418 139.233L43.332 141.743H42.3994V139.233H43.3418ZM41.5986 132.891V133.662H38.4834V132.891H41.5986ZM42.4092 132.891V140H41.4717V132.891H42.4092ZM38.1611 132.891H39.1035L38.957 135.752C38.9375 136.182 38.8968 136.579 38.835 136.943C38.7731 137.305 38.6966 137.635 38.6055 137.935C38.5143 138.234 38.4102 138.503 38.293 138.74C38.1758 138.975 38.0505 139.178 37.917 139.351C37.7835 139.52 37.6436 139.66 37.4971 139.771C37.3538 139.878 37.209 139.954 37.0625 140H36.6328V139.233H36.9355C37.0202 139.142 37.1162 139.01 37.2236 138.838C37.3343 138.665 37.4434 138.442 37.5508 138.169C37.6615 137.892 37.7575 137.555 37.8389 137.158C37.9235 136.761 37.9805 136.292 38.0098 135.752L38.1611 132.891ZM47.1602 133.521L44.8066 140H43.8447L46.5547 132.891H47.1748L47.1602 133.521ZM49.1328 140L46.7744 133.521L46.7598 132.891H47.3799L50.0996 140H49.1328ZM49.0107 137.368V138.14H45.0166V137.368H49.0107ZM55.6953 135.947V136.714H51.8477V135.947H55.6953ZM51.9941 132.891V140H51.0518V132.891H51.9941ZM56.5156 132.891V140H55.5781V132.891H56.5156ZM59.1719 138.369L62.6729 132.891H63.6152V140H62.6729V134.517L59.1719 140H58.2344V132.891H59.1719V138.369ZM69.2744 137.231H67.2773L66.8135 137.041C66.2992 136.878 65.9036 136.629 65.627 136.294C65.3503 135.955 65.2119 135.535 65.2119 135.034C65.2119 134.575 65.3128 134.186 65.5146 133.867C65.7197 133.548 66.0094 133.306 66.3838 133.14C66.7614 132.974 67.2074 132.891 67.7217 132.891H69.9971V140H69.0547V133.662H67.7217C67.2008 133.662 66.8086 133.786 66.5449 134.033C66.2845 134.281 66.1543 134.614 66.1543 135.034C66.1543 135.308 66.2113 135.552 66.3252 135.767C66.4424 135.981 66.6149 136.151 66.8428 136.274C67.0706 136.398 67.3538 136.46 67.6924 136.46H69.2793L69.2744 137.231ZM67.6729 136.743L65.9443 140H64.9434L66.7207 136.743H67.6729Z" fill="white"/>
</svg>
