<svg width="106" height="171" viewBox="0 0 106 171" fill="none" xmlns="http://www.w3.org/2000/svg">
<path d="M103.472 0H1.97106C0.882476 0 0 0.881751 0 1.96945V168.642C0 169.73 0.882476 170.612 1.97106 170.612H103.472C104.561 170.612 105.443 169.73 105.443 168.642V1.96945C105.443 0.881751 104.561 0 103.472 0Z" fill="#4A4A4A"/>
<path d="M29.1035 124.469V133H27.9902V124.469H29.1035ZM31.8457 124.469V125.395H25.2539V124.469H31.8457ZM35.7539 130.17L38.0098 124.469H39.3105L36.293 131.576C36.207 131.775 36.1113 131.969 36.0059 132.156C35.9004 132.34 35.7715 132.504 35.6191 132.648C35.4668 132.793 35.2773 132.908 35.0508 132.994C34.8281 133.08 34.5508 133.123 34.2188 133.123C34.125 133.123 34.0137 133.117 33.8848 133.105C33.7559 133.098 33.6719 133.088 33.6328 133.076L33.668 132.174C33.7109 132.182 33.7949 132.189 33.9199 132.197C34.0449 132.201 34.1367 132.203 34.1953 132.203C34.418 132.203 34.5938 132.158 34.7227 132.068C34.8516 131.979 34.9551 131.865 35.0332 131.729C35.1152 131.588 35.1895 131.445 35.2559 131.301L35.7539 130.17ZM33.8379 124.469L36.2109 129.783L36.4922 130.832L35.543 130.902L32.5723 124.469H33.8379ZM43.2773 125.225L40.4531 133H39.2988L42.5508 124.469H43.2949L43.2773 125.225ZM45.6445 133L42.8145 125.225L42.7969 124.469H43.541L46.8047 133H45.6445ZM45.498 129.842V130.768H40.7051V129.842H45.498ZM53.5371 124.469V125.395H49.6348V124.469H53.5371ZM54.5098 124.469V133H53.3789V124.469H54.5098ZM49.248 124.469H50.373L50.1797 128.646C50.1523 129.248 50.1055 129.785 50.0391 130.258C49.9766 130.727 49.8867 131.135 49.7695 131.482C49.6523 131.826 49.5 132.111 49.3125 132.338C49.125 132.561 48.8945 132.727 48.6211 132.836C48.3516 132.945 48.0273 133 47.6484 133H47.3438V132.08L47.5781 132.062C47.7969 132.047 47.9844 131.998 48.1406 131.916C48.3008 131.83 48.4355 131.701 48.5449 131.529C48.6582 131.357 48.75 131.135 48.8203 130.861C48.8906 130.588 48.9453 130.254 48.9844 129.859C49.0273 129.461 49.0605 128.996 49.084 128.465L49.248 124.469ZM61.9688 132.08V133H57.4512V132.08H61.9688ZM57.6797 124.469V133H56.5488V124.469H57.6797ZM61.3711 128.137V129.057H57.4512V128.137H61.3711ZM61.9102 124.469V125.395H57.4512V124.469H61.9102ZM66.6387 124.469V133H65.5254V124.469H66.6387ZM69.3809 124.469V125.395H62.7891V124.469H69.3809ZM71.5605 127.943H73.8867C74.5117 127.943 75.0391 128.049 75.4688 128.26C75.8984 128.467 76.2246 128.758 76.4473 129.133C76.6699 129.508 76.7812 129.947 76.7812 130.451C76.7812 130.826 76.7188 131.17 76.5938 131.482C76.4688 131.791 76.2832 132.061 76.0371 132.291C75.791 132.518 75.4883 132.693 75.1289 132.818C74.7695 132.939 74.3555 133 73.8867 133H70.6992V124.469H71.8301V132.08H73.8867C74.3047 132.08 74.6426 132.004 74.9004 131.852C75.1621 131.695 75.3535 131.492 75.4746 131.242C75.5957 130.992 75.6562 130.725 75.6562 130.439C75.6562 130.154 75.5957 129.893 75.4746 129.654C75.3535 129.416 75.1621 129.227 74.9004 129.086C74.6426 128.941 74.3047 128.869 73.8867 128.869H71.5605V127.943ZM78.9434 124.469V133H77.8125V124.469H78.9434Z" fill="white"/>
<path d="M68.7363 109.666H36.002V112.059H68.7363V109.666Z" fill="#EBA707"/>
<path d="M37.538 52.087C41.2727 51.8018 44.069 48.5455 43.7836 44.8139C43.4982 41.0823 40.2392 38.2883 36.5045 38.5735C32.7698 38.8587 29.9736 42.1149 30.259 45.8466C30.5444 49.5782 33.8033 52.3722 37.538 52.087Z" fill="#EBA707"/>
<path d="M44.6556 54.9629H29.3928C26.0083 54.9629 23.8038 59.5583 25.321 63.4669L33.9358 85.6837C35.1029 88.7069 38.9542 88.7069 40.1256 85.6837L48.7318 63.4885C50.2446 59.5583 48.0445 54.9629 44.6556 54.9629Z" fill="#EBA707"/>
<path d="M70.79 51.9737C74.5356 51.6743 77.3291 48.3976 77.0294 44.6551C76.7298 40.9126 73.4505 38.1214 69.7049 38.4208C65.9593 38.7202 63.1658 41.9968 63.4654 45.7393C63.7651 49.4819 67.0444 52.2731 70.79 51.9737Z" fill="#EBA707"/>
<path d="M60.2821 87.9478H79.4611C82.8456 87.9478 85.0501 83.7454 83.5329 80.1737L73.4183 56.6958C73.1954 56.0461 72.7756 55.482 72.217 55.0818C71.6585 54.6816 70.989 54.4653 70.3017 54.4629H69.5928C68.9091 54.4658 68.2431 54.6805 67.6865 55.0773C67.13 55.4741 66.7102 56.0335 66.4849 56.6785L56.193 80.178C54.6975 83.7454 56.8976 87.9478 60.2821 87.9478Z" fill="#EBA707"/>
</svg>
