<svg width="65" height="65" viewBox="0 0 65 65" fill="none" xmlns="http://www.w3.org/2000/svg">
<path fill-rule="evenodd" clip-rule="evenodd" d="M58.9065 29.6306L51.6194 22.3435C51.244 21.9642 50.7971 21.6632 50.3047 21.4577C49.8122 21.2523 49.2839 21.1465 48.7503 21.1465C48.2166 21.1465 47.6883 21.2523 47.1958 21.4577C46.7034 21.6632 46.2565 21.9642 45.8811 22.3435L38.594 29.6306C37.8404 30.3954 37.418 31.426 37.418 32.4997C37.418 33.5734 37.8404 34.604 38.594 35.3689L45.8811 42.656C46.2565 43.0352 46.7034 43.3363 47.1958 43.5417C47.6883 43.7472 48.2166 43.853 48.7503 43.853C49.2839 43.853 49.8122 43.7472 50.3047 43.5417C50.7971 43.3363 51.244 43.0352 51.6194 42.656L58.9065 35.3689C59.6601 34.604 60.0826 33.5734 60.0826 32.4997C60.0826 31.426 59.6601 30.3954 58.9065 29.6306ZM41.4632 32.4997L48.7503 39.7868L56.0374 32.4997L48.7503 25.2126L41.4632 32.4997Z" fill="white"/>
<path fill-rule="evenodd" clip-rule="evenodd" d="M29.6311 26.406C30.0065 26.7852 30.4534 27.0863 30.9458 27.2917C31.4383 27.4972 31.9666 27.603 32.5003 27.603C33.0339 27.603 33.5622 27.4972 34.0547 27.2917C34.5471 27.0863 34.994 26.7852 35.3694 26.406L42.6565 19.1189C43.4101 18.354 43.8326 17.3234 43.8326 16.2497C43.8326 15.176 43.4101 14.1454 42.6565 13.3806L35.3694 6.09347C34.994 5.71424 34.5471 5.41319 34.0547 5.20773C33.5622 5.00227 33.0339 4.89648 32.5003 4.89648C31.9666 4.89648 31.4383 5.00227 30.9458 5.20773C30.4534 5.41319 30.0065 5.71424 29.6311 6.09347L22.344 13.3806C21.5904 14.1454 21.168 15.176 21.168 16.2497C21.168 17.3234 21.5904 18.354 22.344 19.1189L29.6311 26.406ZM32.5003 8.96261L39.7874 16.2497L32.5003 23.5368L25.2131 16.2497L32.5003 8.96261ZM35.3694 38.5935C34.994 38.2142 34.5471 37.9132 34.0547 37.7077C33.5622 37.5023 33.0339 37.3965 32.5003 37.3965C31.9666 37.3965 31.4383 37.5023 30.9458 37.7077C30.4534 37.9132 30.0065 38.2142 29.6311 38.5935L22.344 45.8806C21.5904 46.6454 21.168 47.676 21.168 48.7497C21.168 49.8234 21.5904 50.854 22.344 51.6189L29.6311 58.906C30.0065 59.2852 30.4534 59.5863 30.9458 59.7917C31.4383 59.9972 31.9666 60.103 32.5003 60.103C33.0339 60.103 33.5622 59.9972 34.0547 59.7917C34.5471 59.5863 34.994 59.2852 35.3694 58.906L42.6565 51.6189C43.4101 50.854 43.8326 49.8234 43.8326 48.7497C43.8326 47.676 43.4101 46.6454 42.6565 45.8806L35.3694 38.5935ZM32.5003 56.0368L25.2131 48.7497L32.5003 41.4626L39.7874 48.7497L32.5003 56.0368Z" fill="#EBA707"/>
<path fill-rule="evenodd" clip-rule="evenodd" d="M26.4065 29.6306L19.1194 22.3435C18.744 21.9642 18.2971 21.6632 17.8047 21.4577C17.3122 21.2523 16.7839 21.1465 16.2503 21.1465C15.7166 21.1465 15.1883 21.2523 14.6958 21.4577C14.2034 21.6632 13.7565 21.9642 13.3811 22.3435L6.09401 29.6306C5.34041 30.3954 4.91797 31.426 4.91797 32.4997C4.91797 33.5734 5.34041 34.604 6.09401 35.3689L13.3811 42.656C13.7565 43.0352 14.2034 43.3363 14.6958 43.5417C15.1883 43.7472 15.7166 43.853 16.2503 43.853C16.7839 43.853 17.3122 43.7472 17.8047 43.5417C18.2971 43.3363 18.744 43.0352 19.1194 42.656L26.4065 35.3689C27.1601 34.604 27.5825 33.5734 27.5825 32.4997C27.5825 31.426 27.1601 30.3954 26.4065 29.6306ZM8.96315 32.4997L16.2503 39.7868L23.5374 32.4997L16.2503 25.2126L8.96315 32.4997Z" fill="white"/>
</svg>
