<svg width="48" height="48" viewBox="0 0 48 48" fill="none" xmlns="http://www.w3.org/2000/svg">
<path fill-rule="evenodd" clip-rule="evenodd" d="M17.5027 3.34331C17.9528 2.89338 18.5631 2.64062 19.1995 2.64062C19.8359 2.64063 20.4462 2.89338 20.8963 3.34331L29.3827 11.8297C29.8326 12.2798 30.0854 12.8901 30.0854 13.5265C30.0854 14.1629 29.8326 14.7732 29.3827 15.2233L17.5027 27.1033C17.2735 27.3247 17.0907 27.5895 16.9649 27.8823C16.8391 28.1751 16.7729 28.4901 16.7701 28.8087C16.7673 29.1274 16.8281 29.4435 16.9487 29.7384C17.0694 30.0334 17.2476 30.3013 17.473 30.5267C17.6983 30.752 17.9663 30.9302 18.2612 31.0509C18.5562 31.1716 18.8722 31.2323 19.1909 31.2295C19.5096 31.2267 19.8245 31.1605 20.1173 31.0348C20.4101 30.909 20.6749 30.7261 20.8963 30.4969L32.7763 18.6169C33.2264 18.167 33.8367 17.9142 34.4731 17.9142C35.1095 17.9142 35.7198 18.167 36.1699 18.6169L44.6563 27.1033C45.1062 27.5534 45.359 28.1637 45.359 28.8001C45.359 29.4365 45.1062 30.0468 44.6563 30.4969L32.7763 42.3769C30.9934 44.1598 28.8767 45.5741 26.5472 46.5391C24.2177 47.504 21.721 48.0006 19.1995 48.0006C16.6781 48.0006 14.1813 47.504 11.8518 46.5391C9.52229 45.5741 7.40565 44.1598 5.62272 42.3769C3.83979 40.594 2.42549 38.4773 1.46057 36.1478C0.495659 33.8183 -0.000976581 31.3216 -0.000976562 28.8001C-0.000976544 26.2787 0.495659 23.7819 1.46057 21.4524C2.42549 19.1229 3.83979 17.0062 5.62272 15.2233L17.5027 3.34331ZM19.1995 8.43611L9.01632 18.6169C6.31557 21.3177 4.7983 24.9807 4.7983 28.8001C4.7983 32.6196 6.31557 36.2826 9.01632 38.9833C11.7171 41.6841 15.3801 43.2013 19.1995 43.2013C23.019 43.2013 26.682 41.6841 29.3827 38.9833L39.5635 28.8001L34.4731 23.7097L24.2899 33.8905C23.6286 34.5897 22.8338 35.1492 21.9526 35.5359C21.0714 35.9227 20.1215 36.1288 19.1593 36.1422C18.197 36.1556 17.2418 35.9759 16.3501 35.6138C15.4585 35.2517 14.6485 34.7146 13.968 34.0341C13.2875 33.3536 12.7503 32.5435 12.3882 31.6519C12.0261 30.7602 11.8465 29.805 11.8598 28.8428C11.8732 27.8805 12.0794 26.9307 12.4661 26.0494C12.8529 25.1682 13.4124 24.3734 14.1115 23.7121L24.2923 13.5289L19.1995 8.43611Z" fill="white"/>
<path fill-rule="evenodd" clip-rule="evenodd" d="M17.5035 20.3138L12.4131 15.2258L15.8067 11.8298L20.8971 16.9202L17.5035 20.3138ZM32.7771 35.5874L27.6867 30.4994L31.0803 27.1034L36.1707 32.1938L32.7771 35.5874ZM35.1099 15.4274C34.8172 15.3104 34.5505 15.1368 34.3249 14.9166C34.0994 14.6965 33.9194 14.434 33.7953 14.1443C33.6711 13.8546 33.6053 13.5433 33.6015 13.2281C33.5977 12.9129 33.656 12.6001 33.7731 12.3074L37.0131 4.20743L40.7523 5.45543L42.7179 1.36103C42.9935 0.787207 43.4858 0.346374 44.0864 0.135508C44.3838 0.0310978 44.6989 -0.0137112 45.0136 0.00363924C45.3283 0.0209897 45.6366 0.10016 45.9207 0.23663C46.2048 0.373099 46.4593 0.564196 46.6696 0.799008C46.8798 1.03382 47.0418 1.30775 47.1462 1.60516C47.2506 1.90257 47.2954 2.21763 47.2781 2.53235C47.2607 2.84708 47.1816 3.1553 47.0451 3.43943L43.2483 11.345L39.7875 10.193L38.2275 14.0906C38.1104 14.3833 37.9368 14.65 37.7167 14.8756C37.4965 15.1011 37.2341 15.2811 36.9444 15.4053C36.6546 15.5294 36.3433 15.5952 36.0281 15.599C35.713 15.6029 35.4001 15.5445 35.1075 15.4274H35.1099Z" fill="#EBA707"/>
</svg>
