<svg width="117" height="117" viewBox="0 0 117 117" fill="none" xmlns="http://www.w3.org/2000/svg">
<g clip-path="url(#clip0_1_9290)">
<path fill-rule="evenodd" clip-rule="evenodd" d="M41.8183 102.375C41.8183 101.306 42.9407 100.318 44.1034 100.318H72.8964C75.8694 100.318 75.8694 104.432 72.8964 104.432H44.1034C42.9405 104.432 41.8183 103.444 41.8183 102.375V102.375ZM23.08 90.4922V26.5078C23.08 23.7508 25.8074 21.0234 28.5644 21.0234H88.4354C91.1924 21.0234 93.9198 23.7508 93.9198 26.5078V90.4922C93.9198 93.2492 91.1924 95.9765 88.4354 95.9765H28.5644C25.8074 95.9765 23.08 93.2492 23.08 90.4922ZM8.22656 11.4258V105.574C8.22656 107.943 9.05742 108.774 11.4258 108.774H105.574C107.943 108.774 108.774 107.943 108.774 105.574V11.4258C108.774 9.05742 107.943 8.22656 105.574 8.22656H11.4258C9.05742 8.22656 8.22656 9.05742 8.22656 11.4258Z" fill="white"/>
<path fill-rule="evenodd" clip-rule="evenodd" d="M35.6484 68.0976C35.6484 63.4372 37.1055 60.2557 40.9927 57.9027C45.2386 55.3326 50.9062 56.3945 54.3221 60.6211C55.1562 61.653 55.3958 62.6397 55.9864 63.7557C60.9167 61.3901 69.4624 63.4278 72.8438 66.779C74.3827 68.3039 74.7352 68.6563 75.8234 70.6549C76.7306 72.3213 77.0097 74.0348 77.0097 76.5526C81.4945 78.9257 81.3514 80.9678 81.3514 85.6932C81.3514 87.3229 80.0239 87.75 78.3807 87.75H38.6191C34.9379 87.75 35.6484 85.9064 35.6484 81.3515C35.6484 79.0536 37.2804 76.078 38.6191 75.1816C37.1441 72.9793 35.6484 71.1219 35.6484 68.0976ZM46.1602 39.7617H70.8398C73.5372 39.7617 74.1558 43.875 70.3828 43.875H46.6172C42.8443 43.875 43.4628 39.7617 46.1602 39.7617ZM46.6172 29.2499H70.3828C74.1557 29.2499 73.5372 33.3632 70.8398 33.3632H46.1602C43.4628 33.3632 42.8441 29.2499 46.6172 29.2499ZM27.1934 26.5077V90.4921C27.1934 91.4651 28.6075 92.0917 29.707 92.0917H87.293C88.3925 92.0917 89.8066 91.4649 89.8066 90.4921V26.5077C89.8066 25.5348 88.3925 24.9082 87.293 24.9082H29.707C28.6075 24.9082 27.1934 25.535 27.1934 26.5077Z" fill="#EBA707"/>
<path fill-rule="evenodd" clip-rule="evenodd" d="M4.34186 107.174V9.82619C4.34186 7.17368 7.17385 4.34186 9.82619 4.34186H107.174C109.826 4.34186 112.658 7.17385 112.658 9.82619V107.174C112.658 109.826 109.826 112.658 107.174 112.658H9.82619C7.17368 112.658 4.34186 109.826 4.34186 107.174ZM0 9.82619V107.174C0 112.143 4.85689 117 9.82619 117H107.174C109.8 117 112.623 115.339 113.981 113.981C115.339 112.623 117 109.8 117 107.174V9.82619C117 7.20014 115.339 4.37691 113.981 3.01872C112.623 1.6607 109.8 0 107.174 0H9.82619C4.85689 0 0 4.85689 0 9.82619H0Z" fill="#EBA707"/>
<path fill-rule="evenodd" clip-rule="evenodd" d="M45.2462 76.3245C43.8818 76.3245 41.6503 77.5963 40.9893 78.4661C39.8819 79.9237 39.5332 81.1902 39.5332 83.6371H77.467C77.3503 78.4046 72.8966 82.0492 72.8966 77.4672C72.8966 75.9956 73.1854 76.3798 72.9422 74.9236C72.5073 72.3182 71.6978 70.7635 69.5401 69.1694C67.0631 67.3393 63.1341 66.5058 59.8789 66.963C55.6115 67.5623 52.6169 69.7532 50.9979 73.1641C50.62 73.9601 50.4874 74.7235 50.1245 75.4902C49.3279 77.1736 47.1928 76.3245 45.2461 76.3245H45.2462Z" fill="white"/>
<path fill-rule="evenodd" clip-rule="evenodd" d="M42.2754 72.8965C43.9577 72.5046 44.9278 72.2109 47.0743 72.2109C47.6185 69.8749 50.254 66.9741 52.3301 65.5839C51.2755 63.3858 50.0575 60.5566 46.1602 60.5566C39.2837 60.5566 37.6592 69.8053 42.2754 72.8965Z" fill="white"/>
</g>
<defs>
<clipPath id="clip0_1_9290">
<rect width="117" height="117" fill="white"/>
</clipPath>
</defs>
</svg>
