<svg width="53" height="53" viewBox="0 0 53 53" fill="none" xmlns="http://www.w3.org/2000/svg">
<path fill-rule="evenodd" clip-rule="evenodd" d="M35.7138 5.17572C36.7238 5.17572 36.9298 4.581 37.6009 3.95638C38.7605 2.87325 40.7739 2.85 41.9501 3.90654C42.6411 4.52784 42.8504 5.17572 43.8904 5.17572C44.5748 5.17572 45.9736 4.09592 47.4388 5.56113C48.904 7.02634 47.8242 8.20914 47.8242 9.31552C47.8242 10.0265 48.6482 10.5781 49.0435 10.9967C49.2927 11.2625 49.4655 11.5183 49.6017 11.8871C50.821 15.1963 47.8242 15.5784 47.8242 17.2861C47.8242 17.934 48.894 19.3826 47.4421 20.8378C46.0467 22.2333 44.8539 21.2199 43.6844 21.2199C42.6744 21.2199 42.3355 22.5555 41.4085 22.7715L41.4052 18.0071C41.3919 16.7446 41.4384 17.0967 43.3987 15.1365C43.8638 14.6713 44.7177 14.0766 44.7177 13.246C44.7177 12.3689 44.0033 11.5881 43.1661 11.5881C42.2757 11.5881 41.9102 12.2858 41.4052 12.6247C41.4052 11.2924 41.9168 8.27559 39.8536 8.27559C38.9565 8.27559 38.3751 8.85037 38.2355 9.65773C38.1159 10.3455 38.199 11.8406 38.199 12.6214C37.6441 12.2493 37.365 11.5848 36.4381 11.5848C35.654 11.5848 34.8865 12.3523 34.8865 13.1364C34.8865 14.0932 35.6407 14.565 36.1557 15.0767C36.7138 15.6349 37.1956 16.1365 37.7604 16.6781C38.2023 17.1001 38.2123 16.9738 38.2023 17.7878L38.1957 22.7615C37.0959 22.5057 37.169 21.21 35.7105 21.21C34.9762 21.21 33.5542 22.22 32.1587 20.8279C30.7633 19.4324 31.7767 18.1101 31.7767 17.1732C31.7767 15.7445 29.7931 15.6515 29.7234 13.2294C29.6569 10.8904 31.7767 10.6312 31.7767 9.09624C31.7767 8.36197 30.7666 6.93995 32.1587 5.54452C32.5774 5.12589 33.0392 4.88335 33.7834 4.78367C34.6174 4.67071 34.9828 5.16243 35.7071 5.16243L35.7138 5.17572ZM53.0006 12.947V13.4354C52.9507 14.9139 52.4557 16.3625 51.5188 17.3592C51.0304 17.8808 51.3427 17.8376 51.3427 19.253C51.3427 22.0971 48.7013 24.7384 45.8573 24.7384C45.0001 24.7384 44.4253 24.5524 44.1263 24.7583C43.7542 25.0142 42.7375 26.0774 41.4085 26.187V29.9148H51.449C52.3693 29.9148 52.9175 30.5727 53.0006 31.2936V31.6857C52.9474 32.1276 52.7149 32.5495 52.2796 32.8153C51.9407 33.0213 51.3859 33.1243 50.8277 33.1243H2.1768C0.781364 33.1243 0.126838 32.4731 0.00390625 31.7555V31.2438C0.120193 30.5428 0.701624 29.9148 1.5555 29.9148H38.199V26.187C37.5744 26.1338 36.674 25.6322 36.2387 25.3531C34.6174 24.3165 36.2254 24.7384 33.7502 24.7384C30.9062 24.7384 28.2648 22.0971 28.2648 19.253C28.2648 17.821 28.5771 17.9174 28.0954 17.3526C26.4175 15.379 26.0986 12.2393 27.3744 10.083C28.8629 7.56458 28.2648 9.89695 28.2648 7.14262C28.2648 4.29859 30.9062 1.65723 33.7502 1.65723H34.2685C35.1357 1.65723 35.0958 1.99944 35.644 1.48114C37.478 -0.243221 40.754 -0.412667 42.9302 0.756842C43.3023 0.95619 43.6711 1.20205 43.9668 1.48114C44.4884 1.96954 44.4419 1.65723 45.8606 1.65723C48.7345 1.65723 51.346 4.27201 51.346 7.14262C51.346 8.56132 51.0304 8.5148 51.5221 9.03643C52.4623 10.0398 52.9541 11.4851 53.0039 12.947H53.0006Z" fill="#797979"/>
<path fill-rule="evenodd" clip-rule="evenodd" d="M0 51.2379C0 52.2413 0.505015 52.9988 1.3456 52.9988H51.6544C53.4419 52.9988 53.4419 49.8923 51.6544 49.8923H1.3456C0.711008 49.8923 0 50.6033 0 51.2379H0Z" fill="#797979"/>
<path fill-rule="evenodd" clip-rule="evenodd" d="M3.10611 7.34891C3.10611 5.91028 4.51484 4.59126 6.03321 4.82715C7.21268 5.00989 7.72767 5.99666 8.86395 5.34546C9.44538 5.01321 10.2395 3.10279 12.316 3.10279C14.8145 3.10279 15.366 5.12285 15.7348 5.79067C16.5688 7.30239 17.8745 6.12624 18.9377 6.62128C20.4494 7.32897 20.1138 9.93378 18.2167 9.93378H5.69099C4.08624 9.93378 3.10279 8.56493 3.10279 7.34558L3.10611 7.34891ZM7.55822 1.96651C6.90702 1.6542 6.24585 1.65752 5.48832 1.65752C2.67419 1.65752 0.00292969 4.24572 0.00292969 7.03992C0.00292969 9.01014 0.541169 10.4687 1.84025 11.6216C2.86025 12.522 4.22579 13.1499 6.10962 13.1499H17.911C20.064 13.1499 21.8448 11.9705 22.5824 10.369C24.134 7.01001 21.9312 3.31543 18.014 3.31543C17.6917 1.92996 14.9407 0.00292969 12.7346 0.00292969C9.55502 0.00292969 9.28258 0.816934 7.55822 1.96983V1.96651Z" fill="#EBA707"/>
<path fill-rule="evenodd" clip-rule="evenodd" d="M33.2275 41.4084C33.2275 43.5613 35.9021 43.0663 38.0916 43.0663C38.59 43.0663 38.9488 42.8935 39.2113 42.6311C40.3875 41.4549 39.4339 39.8568 37.9886 39.8568C36.0417 39.8568 33.2275 39.4116 33.2275 41.4084Z" fill="#EBA707"/>
<path fill-rule="evenodd" clip-rule="evenodd" d="M13.25 41.407C13.25 43.5599 15.9944 43.0649 18.1141 43.0649C20.2072 43.0649 20.493 39.8554 17.9081 39.8554C16.5791 39.8554 14.5491 39.6261 13.7916 40.2939C13.5922 40.4667 13.25 41.1046 13.25 41.4103V41.407Z" fill="#EBA707"/>
<path fill-rule="evenodd" clip-rule="evenodd" d="M3.3125 41.3016C3.3125 42.4013 3.97699 43.0625 4.97041 43.0625H8.17991C10.3163 43.0625 10.3428 39.853 8.07692 39.853C6.54858 39.853 3.31582 39.3812 3.31582 41.3016H3.3125Z" fill="#EBA707"/>
<path fill-rule="evenodd" clip-rule="evenodd" d="M44.8228 43.3794C46.2681 43.3794 48.431 43.6286 49.1653 42.9608C50.172 42.0504 49.7567 40.1699 47.823 40.1699C45.9923 40.1699 43.2679 39.7247 43.1982 41.7348C43.1682 42.592 43.8992 43.3794 44.8195 43.3794H44.8228Z" fill="#EBA707"/>
<path fill-rule="evenodd" clip-rule="evenodd" d="M23.29 41.4068C23.29 43.5498 25.7387 43.0647 28.0511 43.0647C30.2041 43.0647 30.4167 39.8552 27.8451 39.8552C26.0145 39.8552 23.29 39.4333 23.29 41.4068Z" fill="#EBA707"/>
</svg>
