<svg width="49" height="60" viewBox="0 0 49 60" fill="none" xmlns="http://www.w3.org/2000/svg">
<path d="M20.5 0.9375V14.7188C20.5 16.2838 21.1212 17.7849 22.2271 18.8923C23.333 19.9997 24.8333 20.6229 26.3984 20.625H40.1796V24.7003C38.1348 25.0544 36.2502 26.0339 34.7853 27.5038L17.9052 44.3839C15.9983 46.2899 14.6454 48.6786 13.9913 51.2942L12.8022 56.0546H6.71875C5.15232 56.0546 3.65004 55.4324 2.5424 54.3247C1.43476 53.2171 0.8125 51.7148 0.8125 50.1484V6.84375C0.8125 5.27732 1.43476 3.77504 2.5424 2.6674C3.65004 1.55976 5.15232 0.9375 6.71875 0.9375H20.5ZM40.1796 28.7363C39.1947 29.0273 38.2985 29.5607 37.573 30.2876L20.6969 47.1637C19.2962 48.5652 18.3027 50.3208 17.8225 52.2431L16.6294 57.0114C16.5291 57.4132 16.5344 57.8341 16.6447 58.2332C16.755 58.6323 16.9667 58.9962 17.2591 59.2894C17.5515 59.5826 17.9148 59.7952 18.3136 59.9066C18.7124 60.018 19.1333 60.0244 19.5353 59.9252L24.3036 58.7321C26.226 58.2521 27.9817 57.2585 29.383 55.8577L46.267 38.9738C47.2343 38.0085 47.8521 36.7483 48.0226 35.3925C48.1932 34.0366 47.9068 32.6627 47.2087 31.4879C46.5106 30.3132 45.4408 29.4048 44.1684 28.9064C42.896 28.408 41.4938 28.3481 40.1836 28.7363H40.1796ZM24.4296 1.92188V14.7188C24.4296 15.2409 24.637 15.7417 25.0063 16.1109C25.3755 16.4801 25.8762 16.6875 26.3984 16.6875H39.1953L24.4296 1.92188Z" fill="white"/>
</svg>
