<svg width="51" height="50" viewBox="0 0 51 50" fill="none" xmlns="http://www.w3.org/2000/svg">
<path d="M33.0547 33.5554V50.0003H40.6103V33.5554H33.0547ZM36.8325 41.2942C36.8325 41.8282 36.4094 42.2615 35.888 42.2615C35.3666 42.2615 34.9436 41.8282 34.9436 41.2942V40.3268C34.9436 39.7928 35.3666 39.3595 35.888 39.3595C36.4094 39.3595 36.8325 39.7928 36.8325 40.3268V41.2942Z" fill="white"/>
<path d="M40.5448 0.00012207H10.4562C9.93476 0.00012207 9.51172 0.433422 9.51172 0.967467V9.3718C9.51172 9.90585 9.93476 10.3391 10.4562 10.3391H40.5448C41.0662 10.3391 41.4892 9.90585 41.4892 9.3718V0.967467C41.4892 0.433422 41.0662 0.00012207 40.5448 0.00012207V0.00012207ZM15.494 6.42965C15.494 6.76221 15.4321 7.05139 15.3082 7.30232C15.183 7.55138 15.0159 7.7594 14.8032 7.92731C14.5892 8.09336 14.3419 8.21976 14.0578 8.30464C13.7736 8.38953 13.4694 8.43104 13.1452 8.43104C12.9261 8.43104 12.724 8.41285 12.535 8.376C12.3478 8.33962 12.1821 8.29625 12.0386 8.24448C11.8947 8.19457 11.7745 8.1414 11.6775 8.08496C11.5805 8.02853 11.5117 7.97862 11.4685 7.93711C11.4266 7.89373 11.3965 7.83263 11.3783 7.75287C11.3601 7.67312 11.3514 7.56024 11.3514 7.41053C11.3514 7.30931 11.3546 7.22583 11.3615 7.15773C11.3683 7.08963 11.3783 7.03459 11.3933 6.99168C11.4084 6.95017 11.4284 6.92032 11.4521 6.90213C11.4771 6.88394 11.5054 6.87555 11.5391 6.87555C11.5841 6.87555 11.6493 6.90213 11.733 6.95717C11.8168 7.01034 11.9234 7.07004 12.0541 7.13487C12.1843 7.19971 12.3414 7.25941 12.524 7.31258C12.7044 7.36761 12.9152 7.3942 13.1543 7.3942C13.3114 7.3942 13.4516 7.37601 13.5755 7.33916C13.7007 7.30092 13.8064 7.24961 13.8934 7.18152C13.9803 7.11342 14.0455 7.0304 14.0924 6.93058C14.1374 6.83077 14.1607 6.7193 14.1607 6.59663C14.1607 6.45344 14.1224 6.33077 14.0436 6.22956C13.9649 6.12648 13.8628 6.03693 13.7358 5.95718C13.6106 5.87742 13.4667 5.80279 13.3064 5.73283C13.1475 5.66287 12.9821 5.59011 12.8114 5.51175C12.6411 5.43386 12.4753 5.34571 12.3164 5.24589C12.1561 5.14795 12.0122 5.02994 11.887 4.89188C11.7599 4.75382 11.6579 4.59105 11.5791 4.40168C11.5004 4.21372 11.4621 3.98797 11.4621 3.72538C11.4621 3.42454 11.519 3.15869 11.631 2.92921C11.7431 2.7016 11.8952 2.51223 12.086 2.36065C12.2781 2.20953 12.5022 2.09619 12.7613 2.02157C13.0204 1.94694 13.2964 1.91009 13.5869 1.91009C13.7358 1.91009 13.8861 1.92175 14.0363 1.94507C14.1866 1.96653 14.3273 1.99824 14.4576 2.03649C14.5878 2.0766 14.7035 2.11951 14.805 2.16802C14.9052 2.21793 14.9721 2.25757 15.0058 2.29115C15.0377 2.32287 15.0591 2.35085 15.071 2.37278C15.0828 2.3961 15.0928 2.42595 15.101 2.46419C15.1092 2.50057 15.1142 2.54721 15.1179 2.60552C15.1211 2.66195 15.1229 2.73192 15.1229 2.8168C15.1229 2.91009 15.1211 2.98984 15.116 3.05467C15.111 3.11951 15.1028 3.17268 15.091 3.21605C15.0792 3.25757 15.0628 3.28928 15.0427 3.30747C15.0209 3.32753 14.9926 3.33732 14.9558 3.33732C14.9207 3.33732 14.8638 3.314 14.7854 3.26923C14.7067 3.22445 14.6101 3.17454 14.4963 3.11951C14.3811 3.06633 14.249 3.01829 14.0983 2.97492C13.948 2.93014 13.7841 2.90822 13.6033 2.90822C13.463 2.90822 13.341 2.92501 13.2353 2.95999C13.1315 2.99311 13.045 3.04161 12.9744 3.10132C12.9043 3.16102 12.8505 3.23285 12.8173 3.31727C12.7822 3.40215 12.7654 3.49171 12.7654 3.58499C12.7654 3.72445 12.8036 3.84571 12.8806 3.94739C12.9576 4.05047 13.0609 4.14189 13.1898 4.22165C13.3187 4.3 13.4658 4.37463 13.6297 4.44459C13.7918 4.51455 13.9589 4.58918 14.1297 4.66567C14.3 4.74403 14.4671 4.83172 14.6292 4.93153C14.7932 5.03134 14.9384 5.14934 15.0673 5.2874C15.1944 5.42546 15.2982 5.58638 15.3765 5.77434C15.4553 5.96044 15.4936 6.17966 15.4936 6.43245L15.494 6.42965ZM21.1867 2.54395C21.1867 2.63863 21.1835 2.71839 21.1748 2.78649C21.1666 2.85272 21.1548 2.90635 21.138 2.946C21.1211 2.98751 21.1011 3.01736 21.076 3.03555C21.0528 3.05561 21.0241 3.0654 20.9959 3.0654H19.4112V8.14606C19.4112 8.17778 19.4011 8.20763 19.3793 8.23421C19.3574 8.25893 19.3224 8.28086 19.2741 8.29718C19.2258 8.31211 19.1589 8.32563 19.0751 8.33543C18.9913 8.34522 18.8879 8.35035 18.7641 8.35035C18.6402 8.35035 18.5368 8.34522 18.4531 8.33543C18.3693 8.32563 18.3028 8.31211 18.2541 8.29718C18.2058 8.28039 18.1703 8.25893 18.1489 8.23421C18.127 8.20763 18.117 8.17778 18.117 8.14606V3.0654H16.5323C16.5004 3.0654 16.4722 3.05561 16.4485 3.03555C16.4266 3.01736 16.4066 2.98751 16.3897 2.946C16.3747 2.90589 16.3615 2.85272 16.3529 2.78649C16.3447 2.71839 16.341 2.63863 16.341 2.54395C16.341 2.4474 16.3442 2.36438 16.3529 2.29628C16.361 2.22819 16.3747 2.17315 16.3897 2.1335C16.4066 2.09199 16.4266 2.06354 16.4485 2.04535C16.4717 2.02716 16.5004 2.01877 16.5323 2.01877H20.9959C21.0246 2.01877 21.051 2.02716 21.076 2.04535C21.1011 2.06354 21.1211 2.09199 21.138 2.1335C21.1548 2.17362 21.1662 2.22819 21.1748 2.29628C21.183 2.36438 21.1867 2.4474 21.1867 2.54395ZM27.9673 5.09664C27.9673 5.61856 27.9021 6.08544 27.7719 6.49775C27.6417 6.91006 27.4477 7.26034 27.1886 7.54625C26.9313 7.83356 26.612 8.05324 26.2323 8.20436C25.8511 8.35548 25.4112 8.43058 24.9117 8.43058C24.4185 8.43058 23.9891 8.36574 23.623 8.23795C23.255 8.11015 22.9494 7.91565 22.7035 7.6512C22.4595 7.3886 22.2755 7.05465 22.1534 6.64887C22.0314 6.24355 21.9695 5.76315 21.9695 5.20811C21.9695 4.69972 22.0346 4.24077 22.1653 3.83359C22.2955 3.42641 22.4895 3.08079 22.7486 2.79488C23.0059 2.50897 23.3251 2.28975 23.7049 2.13817C24.0861 1.98518 24.5273 1.90869 25.0305 1.90869C25.5105 1.90869 25.9331 1.97166 26.301 2.09806C26.6671 2.22446 26.9745 2.41895 27.2204 2.68294C27.4677 2.94553 27.6535 3.27622 27.7787 3.67687C27.904 4.07892 27.9677 4.55093 27.9677 5.09617L27.9673 5.09664ZM26.6134 5.16147C26.6134 4.83078 26.5865 4.52995 26.5346 4.25896C26.4827 3.98797 26.3944 3.75523 26.2687 3.5626C26.1435 3.36997 25.9763 3.22025 25.7673 3.11391C25.5583 3.00943 25.2974 2.95626 24.985 2.95626C24.669 2.95626 24.4048 3.01596 24.1944 3.13397C23.9822 3.25197 23.8101 3.41148 23.6794 3.60924C23.5492 3.807 23.4572 4.03788 23.4035 4.30233C23.3502 4.56819 23.3233 4.84757 23.3233 5.14328C23.3233 5.4875 23.3502 5.79626 23.4016 6.07051C23.4536 6.34477 23.5419 6.57891 23.6658 6.77527C23.7896 6.96976 23.9549 7.11762 24.1639 7.22069C24.373 7.32191 24.6353 7.37368 24.9513 7.37368C25.2673 7.37368 25.5314 7.31538 25.7418 7.19737C25.954 7.08124 26.1262 6.92172 26.2569 6.72023C26.3871 6.51921 26.4791 6.2846 26.5328 6.01734C26.5865 5.74962 26.613 5.46418 26.613 5.16147H26.6134ZM34.3571 8.15632C34.3571 8.1913 34.3503 8.22115 34.3371 8.24587C34.3239 8.27059 34.2938 8.29065 34.2451 8.30744C34.195 8.32237 34.1249 8.33403 34.0292 8.34056C33.9341 8.34709 33.8052 8.35035 33.6431 8.35035C33.506 8.35035 33.3972 8.34709 33.3152 8.34056C33.2332 8.33403 33.1681 8.32237 33.1212 8.30418C33.0743 8.28599 33.0411 8.26453 33.021 8.23608C33.0028 8.20763 32.986 8.17451 32.9728 8.13627L32.4013 6.72536C32.3325 6.56585 32.266 6.42266 32.2004 6.29999C32.1353 6.17546 32.0615 6.07238 31.9814 5.98936C31.9013 5.90634 31.8074 5.84477 31.7023 5.80139C31.5984 5.75988 31.4764 5.73843 31.3393 5.73843H30.9363V8.14653C30.9363 8.17824 30.9263 8.20809 30.9044 8.23281C30.8826 8.2594 30.8475 8.28086 30.7992 8.29765C30.751 8.31257 30.6854 8.3261 30.6034 8.33589C30.5233 8.34569 30.4181 8.35082 30.2924 8.35082C30.1685 8.35082 30.0652 8.34569 29.9814 8.33589C29.8976 8.3261 29.8325 8.31257 29.7842 8.29765C29.7355 8.28086 29.7004 8.2594 29.6822 8.23468C29.6622 8.2081 29.6521 8.17824 29.6521 8.14653V2.42268C29.6521 2.27996 29.689 2.17688 29.7623 2.11345C29.8361 2.05048 29.9263 2.01877 30.0333 2.01877H31.6749C31.8407 2.01877 31.9791 2.02203 32.0861 2.02856C32.1932 2.03509 32.292 2.04349 32.3803 2.05188C32.6344 2.08826 32.8635 2.14983 33.0675 2.23798C33.2715 2.32427 33.4454 2.43901 33.5875 2.58033C33.7296 2.72165 33.8384 2.8877 33.9136 3.08079C33.9887 3.27342 34.0256 3.4945 34.0256 3.74544C34.0256 3.95486 33.9987 4.14748 33.9454 4.32053C33.8903 4.49496 33.8116 4.64981 33.7064 4.78601C33.6025 4.9222 33.4741 5.0402 33.3202 5.14002C33.1663 5.24123 32.991 5.32099 32.7952 5.38442C32.8903 5.42919 32.9791 5.48423 33.0625 5.54906C33.1463 5.61389 33.2246 5.69365 33.2984 5.78693C33.3717 5.88022 33.4423 5.98469 33.5074 6.10456C33.5725 6.22257 33.6362 6.35736 33.6977 6.50661L34.2342 7.75147C34.2824 7.87461 34.3161 7.96416 34.3312 8.02246C34.348 8.0789 34.3562 8.12367 34.3562 8.15726L34.3571 8.15632ZM32.6922 3.87696C32.6922 3.66941 32.6453 3.4931 32.5502 3.35178C32.455 3.20859 32.2993 3.10738 32.0839 3.04908C32.0187 3.03229 31.945 3.02063 31.8616 3.01083C31.7778 3.00104 31.6626 2.99591 31.5156 2.99591H30.9372V4.78088H31.5943C31.7783 4.78088 31.9368 4.75942 32.0743 4.71465C32.2132 4.67127 32.3266 4.6097 32.4186 4.52995C32.5106 4.45205 32.5789 4.35551 32.6244 4.2459C32.6695 4.13629 32.6927 4.01316 32.6927 3.87696H32.6922ZM39.6504 7.81724C39.6504 7.91192 39.6472 7.99028 39.6386 8.05511C39.6304 8.11808 39.6185 8.16985 39.6017 8.20809C39.5848 8.24774 39.5648 8.27619 39.5398 8.29438C39.5165 8.31257 39.4878 8.32097 39.4596 8.32097H36.2802C36.1732 8.32097 36.083 8.28925 36.0092 8.22628C35.9359 8.16332 35.899 8.06024 35.899 7.91705V2.42268C35.899 2.27996 35.9359 2.17688 36.0092 2.11345C36.083 2.05048 36.1732 2.01877 36.2802 2.01877H39.4446C39.4728 2.01877 39.4997 2.02716 39.5234 2.04349C39.5452 2.06028 39.5653 2.08826 39.5816 2.12837C39.5967 2.16989 39.6099 2.22166 39.6185 2.28462C39.6267 2.34945 39.6304 2.42921 39.6304 2.52716C39.6304 2.61858 39.6272 2.69507 39.6185 2.7599C39.6103 2.82287 39.5985 2.87464 39.5816 2.91288C39.5648 2.95253 39.5448 2.98098 39.5234 2.99917C39.5001 3.01736 39.4733 3.02576 39.4446 3.02576H37.1827V4.5612H39.0885C39.1185 4.5612 39.1454 4.56959 39.1686 4.58778C39.1937 4.60597 39.2137 4.63256 39.2306 4.6708C39.2474 4.70718 39.2588 4.75709 39.2674 4.82192C39.2756 4.88489 39.2793 4.96138 39.2793 5.0514C39.2793 5.14608 39.2761 5.22444 39.2674 5.28554C39.2592 5.3471 39.2474 5.39701 39.2306 5.43339C39.2137 5.47164 39.1937 5.49822 39.1686 5.51315C39.1454 5.52994 39.1185 5.53787 39.0885 5.53787H37.1827V7.31304H39.4596C39.4897 7.31304 39.5165 7.32144 39.5398 7.33963C39.5648 7.35782 39.5848 7.38627 39.6017 7.42592C39.6185 7.46416 39.6299 7.51547 39.6386 7.5789C39.6468 7.64373 39.6504 7.72162 39.6504 7.81677V7.81724Z" fill="white"/>
<path d="M8.5 33.5554V39.3595H9.01913L13.9777 33.5554H8.5Z" fill="white"/>
<path d="M44.3871 26.7841C43.4955 28.0019 42.0956 28.7187 40.6093 28.7187C39.1229 28.7187 37.7231 28.0019 36.8315 26.7841C35.9398 28.0019 34.54 28.7187 33.0537 28.7187C31.5673 28.7187 30.1675 28.0019 29.2759 26.7841C28.3842 28.0019 26.9844 28.7187 25.498 28.7187C24.0117 28.7187 22.6123 28.0019 21.7202 26.7841C20.8286 28.0019 19.4288 28.7187 17.9424 28.7187C16.4561 28.7187 15.0562 28.0019 14.1646 26.7841C13.273 28.0019 11.8731 28.7187 10.3868 28.7187C8.90044 28.7187 7.50061 28.0019 6.60898 26.7841C5.51426 28.2799 3.67544 28.9958 1.88672 28.6222V49.033C1.88672 49.567 2.30976 50.0003 2.83117 50.0003H31.1643V33.5555C31.1643 32.4869 32.0099 31.6208 33.0532 31.6208H40.6088C41.6521 31.6208 42.4977 32.4869 42.4977 33.5555V50.0003H48.1645C48.6859 50.0003 49.1089 49.567 49.1089 49.033V28.6222C47.3193 29.0107 45.4727 28.2924 44.3867 26.7841H44.3871ZM23.6091 45.1636H7.55344C7.03203 45.1636 6.60898 44.7303 6.60898 44.1963C6.60898 43.6622 7.03203 43.2289 7.55344 43.2289H23.6091C24.1305 43.2289 24.5536 43.6622 24.5536 44.1963C24.5536 44.7303 24.1305 45.1636 23.6091 45.1636ZM24.5536 39.3595C24.5536 40.4281 23.708 41.2942 22.6647 41.2942H8.49789C7.45462 41.2942 6.60898 40.4281 6.60898 39.3595V33.5555C6.60898 32.4869 7.45462 31.6208 8.49789 31.6208H22.6647C23.708 31.6208 24.5536 32.4869 24.5536 33.5555V39.3595Z" fill="white"/>
<path d="M19.126 37.0955C18.9083 37.3725 18.5595 37.5045 18.2179 37.4397C17.8764 37.3749 17.5973 37.123 17.4912 36.7844C17.3851 36.4458 17.4688 36.075 17.7093 35.8184L19.6455 33.5549H16.4816L11.5234 39.359H22.6679V33.5549H22.1483L19.126 37.0955Z" fill="white"/>
<path d="M49.7345 19.5775C49.5728 19.2492 49.2436 19.043 48.8843 19.0453H45.3333C44.8119 19.0453 44.3888 18.612 44.3888 18.078C44.3888 17.544 44.8119 17.1107 45.3333 17.1107H48.1666C48.688 17.1107 49.1111 16.6774 49.1111 16.1433V13.2413C49.1111 12.7072 48.688 12.2739 48.1666 12.2739H2.83336C2.31195 12.2739 1.88891 12.7072 1.88891 13.2413V16.1433C1.88891 16.6774 2.31195 17.1107 2.83336 17.1107H41.5555C42.0769 17.1107 42.4999 17.544 42.4999 18.078C42.4999 18.612 42.0769 19.0453 41.5555 19.0453H2.11569C1.75685 19.043 1.42716 19.2492 1.2655 19.5775L0.103829 21.9474C3.35483e-06 22.2277 3.35256e-06 22.2375 3.35256e-06 23.8821C-0.00136278 24.7925 0.414852 25.6512 1.12387 26.2006C1.8329 26.7501 2.75276 26.9268 3.60796 26.6778C4.8475 26.2864 5.68676 25.1041 5.66672 23.7757V21.9474C5.66672 21.4133 6.08977 20.98 6.61117 20.98C7.13258 20.98 7.55563 21.4133 7.55563 21.9474V23.8821C7.57748 24.9189 8.13805 25.8648 9.02558 26.3639C9.91311 26.8629 10.9933 26.8387 11.8589 26.3009C12.7246 25.7631 13.2442 24.793 13.2223 23.7561V21.9474C13.2223 21.4133 13.6454 20.98 14.1668 20.98C14.6882 20.98 15.1112 21.4133 15.1112 21.9474V23.8821C15.1099 24.7925 15.5261 25.6512 16.2351 26.2006C16.9441 26.7501 17.864 26.9268 18.7192 26.6778C19.9587 26.2864 20.798 25.1041 20.778 23.7757V21.9474C20.778 21.4133 21.201 20.98 21.7224 20.98C22.2438 20.98 22.6669 21.4133 22.6669 21.9474V23.8821C22.6887 24.9189 23.2493 25.8648 24.1368 26.3639C25.0244 26.8629 26.1045 26.8387 26.9702 26.3009C27.8359 25.7631 28.3554 24.793 28.3336 23.7561V21.9474C28.3336 21.4133 28.7566 20.98 29.278 20.98C29.7994 20.98 30.2225 21.4133 30.2225 21.9474V23.8821C30.2211 24.7925 30.6373 25.6512 31.3464 26.2006C32.0554 26.7501 32.9752 26.9268 33.8304 26.6778C35.07 26.2864 35.9092 25.1041 35.8892 23.7757V21.9474C35.8892 21.4133 36.3123 20.98 36.8337 20.98C37.3551 20.98 37.7781 21.4133 37.7781 21.9474V23.7659C37.7544 25.1017 38.6046 26.2897 39.856 26.668C40.7267 26.9152 41.6602 26.7225 42.3692 26.1493C43.0782 25.5761 43.4781 24.6908 43.4448 23.7659V21.9474C43.4448 21.4133 43.8679 20.98 44.3893 20.98C44.9107 20.98 45.3337 21.4133 45.3337 21.9474V23.8821C45.3324 24.7925 45.7486 25.6512 46.4576 26.2006C47.1666 26.7501 48.0865 26.9268 48.9417 26.6778C50.1812 26.2864 51.0205 25.1041 51.0005 23.7757C51.0005 22.3732 51.0005 22.2571 50.8966 21.9861L49.7354 19.5775H49.7345Z" fill="white"/>
</svg>
