<svg width="113" height="22" viewBox="0 0 113 22" fill="none" xmlns="http://www.w3.org/2000/svg">
<path d="M9.09533 0.157293C9.36063 -0.0598095 9.72063 -0.0460151 9.98603 0.160704C11.2524 1.00321 12.5083 1.86123 13.7712 2.70546C13.9728 2.78986 14.2002 3.08622 13.9073 3.2258C9.64315 6.0858 5.37037 8.93543 1.09937 11.785C0.856413 11.5577 0.944322 11.2096 0.921875 10.9185C0.935669 9.30926 0.916684 7.7001 0.930478 6.09268C0.887414 5.71706 1.15791 5.43623 1.45432 5.25878C4.00244 3.56176 6.54547 1.85263 9.09533 0.157342V0.157293Z" fill="#C7C7C7"/>
<path d="M23.8789 1.24281C27.3798 1.21007 30.8807 1.23761 34.3817 1.22901C34.3834 2.14731 34.3834 3.06734 34.3817 3.98563C31.9162 3.98736 29.4525 3.98563 26.987 3.98736C26.987 5.06249 26.9888 6.13757 26.987 7.21438C28.3481 7.24192 29.7144 7.15406 31.072 7.27811C32.6778 7.41077 34.2318 8.39106 34.9003 9.87963C35.6394 11.5164 35.5377 13.5391 34.5454 15.05C33.5771 16.5215 31.7301 17.1227 30.0365 17.0778C27.988 17.0848 25.9395 17.0796 23.891 17.0796C23.8824 11.8007 23.9065 6.52174 23.8789 1.24281ZM26.9819 9.98134C26.9939 11.4286 26.9836 12.8758 26.9887 14.323C28.0604 14.3144 29.132 14.3368 30.2036 14.3127C30.929 14.2868 31.6922 13.944 32.0282 13.2703C32.4141 12.4623 32.3883 11.4182 31.8266 10.6964C31.4613 10.1933 30.8153 9.95726 30.2088 9.96932C29.1337 9.97792 28.0569 9.96586 26.9818 9.98139L26.9819 9.98134Z" fill="#C7C7C7"/>
<path d="M14.8354 4.15945C15.0835 3.9906 15.4246 3.79249 15.7141 3.99753C16.3326 4.36108 16.9063 4.79523 17.5111 5.18118C17.7644 5.36896 18.1124 5.54987 18.1314 5.90992C18.1693 6.7231 18.1675 7.54147 18.1331 8.35643C18.1538 8.63554 17.9108 8.79232 17.7161 8.93531C13.9275 11.4628 10.1371 13.9834 6.35196 16.5126C5.95736 16.7641 5.568 17.1138 5.06838 17.0777C3.71252 17.0742 2.35829 17.1052 1.00405 17.0554C0.845542 16.0526 0.96099 15.0292 0.928259 14.0179C0.874812 13.6389 1.09716 13.3063 1.41749 13.1255C5.88839 10.1363 10.3645 7.15221 14.8354 4.1595V4.15945ZM39.0731 5.50503C40.4582 5.31552 41.8951 5.27245 43.2528 5.66181C44.2211 5.93063 45.1238 6.59217 45.5235 7.5346C45.8595 8.2703 45.9146 9.09209 45.9215 9.8898C45.9181 12.2864 45.9233 14.6829 45.9198 17.0794C44.9756 17.0812 44.0332 17.0794 43.0908 17.0812C43.089 16.7486 43.089 16.4178 43.0908 16.0888C42.436 16.7883 41.5057 17.2172 40.5391 17.2035C39.2194 17.2138 37.7101 16.9089 36.9177 15.7442C35.9493 14.2418 36.101 11.8522 37.7326 10.8632C39.3314 9.87086 41.2714 10.2843 43.046 10.1689C43.0321 9.40397 43.0115 8.39262 42.1655 8.06007C41.0009 7.61732 39.4417 7.69652 38.6233 8.75786C38.0099 8.15659 37.3983 7.55527 36.7866 6.95399C37.4241 6.30793 38.1787 5.72727 39.0729 5.50503H39.0731ZM40.0499 12.2639C39.092 12.4396 38.7888 13.7973 39.471 14.4365C40.2446 15.0309 41.3266 14.8931 42.1915 14.595C43.0977 14.1591 43.0288 13.0186 43.0237 12.1692C42.033 12.2105 41.0286 12.0744 40.05 12.2639H40.0499ZM54.1363 5.50671C55.1579 5.47398 56.1813 5.49984 57.2047 5.49292C55.5508 9.9828 53.8985 14.4726 52.2411 18.9607C51.9 19.96 51.1643 20.9145 50.1065 21.1937C49.3312 21.378 48.5283 21.3435 47.7392 21.3435C47.7392 20.4666 47.7375 19.5914 47.741 18.7161C48.3647 18.6937 49.1899 18.8625 49.5845 18.2405C49.9377 17.6238 50.0944 16.9225 50.3442 16.2627C49.0228 12.6721 47.6996 9.08339 46.3782 5.4946C47.3912 5.48773 48.4043 5.49979 49.4173 5.48599C50.2357 7.86532 51.0283 10.2515 51.8294 12.6377C52.6064 10.2636 53.3834 7.88945 54.1363 5.50666L54.1363 5.50671ZM70.7277 8.0049C71.3273 6.70757 72.5746 5.74789 73.9702 5.46538C75.14 5.29826 76.3978 5.32753 77.4711 5.88233C78.6874 6.46807 79.5351 7.65519 79.8832 8.94218C80.1795 9.98972 80.1795 11.0889 80.1623 12.1692C77.7399 12.171 75.3175 12.1692 72.8968 12.1692C72.9571 13.0014 73.2035 13.9334 73.972 14.3865C75.2968 15.0516 77.0714 14.8242 78.0638 13.6767C78.665 14.2418 79.244 14.8293 79.8349 15.4031C79.0407 16.2008 78.0655 16.8709 76.9336 17.0605C75.3727 17.3224 73.6308 17.3224 72.2525 16.4402C71.0068 15.6684 70.3608 14.2194 70.1712 12.8119C69.9593 11.2027 69.9852 9.48496 70.7277 8.00499V8.0049ZM73.903 8.08934C73.2087 8.54075 72.9451 9.40046 72.8917 10.1878C74.363 10.1895 75.8344 10.1826 77.3057 10.1912C77.2265 9.41075 76.9818 8.54931 76.291 8.09102C75.5708 7.69474 74.6266 7.6982 73.903 8.08929V8.08934ZM92.4224 5.49292C95.6459 5.49979 98.8694 5.47744 102.095 5.50325C102.079 6.34748 102.093 7.18998 102.086 8.03417C100.975 8.0359 99.8618 8.03417 98.7505 8.03417C98.7471 11.0492 98.7506 14.0643 98.7488 17.0793C97.7754 17.0811 96.802 17.0811 95.8302 17.0793C95.8268 14.0643 95.8302 11.0492 95.8285 8.03417C94.6914 8.03417 93.556 8.03417 92.4206 8.03417C92.4206 7.18647 92.4188 6.33888 92.4223 5.49287L92.4224 5.49292ZM106.014 6.55079C107.425 4.9795 110.072 5.00709 111.641 6.32335C112.523 7.14 112.811 8.37873 112.866 9.53653C112.933 10.9114 112.959 12.2966 112.792 13.6646C112.666 14.5501 112.429 15.496 111.765 16.1404C110.244 17.5824 107.548 17.6187 106.094 16.0594C106.111 17.8202 106.097 19.5809 106.102 21.3417C105.136 21.3452 104.171 21.3452 103.204 21.3417C103.206 16.0594 103.204 10.777 103.206 5.49287C104.142 5.49114 105.077 5.49114 106.013 5.4946C106.013 5.84608 106.013 6.1993 106.014 6.55074L106.014 6.55079ZM107.291 8.07555C106.3 8.44251 106.125 9.63645 106.095 10.5616C106.119 11.6919 106.004 12.9254 106.597 13.9437C107.329 14.8723 109.186 14.8964 109.667 13.6973C110.075 12.6515 110.035 11.499 109.98 10.398C109.915 9.67952 109.83 8.87321 109.296 8.33562C108.745 7.89973 107.937 7.84979 107.291 8.0755L107.291 8.07555ZM58.2436 5.49292C59.2154 5.49119 60.1853 5.49292 61.157 5.49119C61.1639 8.50624 61.1588 11.523 61.1604 14.538C62.4009 14.538 63.6397 14.538 64.8802 14.538C64.8784 11.523 64.8819 8.50792 64.8802 5.4946C65.8519 5.49119 66.8253 5.49287 67.7987 5.49287C67.7987 8.50792 67.8005 11.523 67.7987 14.5363C68.3173 14.538 68.8359 14.538 69.3562 14.538C69.358 16.3333 69.358 18.1268 69.3562 19.9221C68.4362 19.9221 67.5145 19.9239 66.5944 19.9221C66.5927 18.9745 66.5944 18.0287 66.5927 17.0811C63.8102 17.0793 61.0278 17.0811 58.2453 17.0811C58.2401 13.2183 58.2435 9.35562 58.2435 5.49287L58.2436 5.49292ZM81.7576 5.49292C82.7294 5.49119 83.701 5.49119 84.6745 5.49292C84.678 6.95736 84.6745 8.42184 84.6763 9.88628C85.915 9.88628 87.1555 9.88628 88.3959 9.88628C88.3959 8.42184 88.3925 6.95736 88.3959 5.49292C89.3677 5.49119 90.3394 5.49465 91.3111 5.49119C91.3163 9.35394 91.3111 13.2166 91.3145 17.0793C90.3394 17.0793 89.366 17.0862 88.3925 17.0741C88.3873 15.5201 88.4167 13.9661 88.377 12.4137C87.1434 12.4465 85.9098 12.4207 84.6763 12.4293C84.6763 13.9799 84.6745 15.5287 84.6763 17.0793C83.7045 17.0811 82.7311 17.0793 81.7594 17.0811C81.756 13.2183 81.7594 9.35562 81.7576 5.49287V5.49292ZM17.6178 10.5461C17.7746 10.4204 18.0916 10.2222 18.1347 10.5651C18.1761 12.3466 18.133 14.1314 18.1537 15.9146C18.1623 16.292 18.1451 16.671 18.0847 17.0449C15.0645 17.1275 12.0409 17.0535 9.01889 17.0828C8.68461 17.0741 8.32976 17.1311 8.02129 16.9708C11.1949 14.7913 14.4253 12.698 17.6178 10.5461Z" fill="#C7C7C7"/>
</svg>
