<svg width="49" height="50" viewBox="0 0 49 50" fill="none" xmlns="http://www.w3.org/2000/svg">
<g clip-path="url(#clip0_1_4082)">
<path d="M9.59766 26.3672H16.4359L13.0168 19.3893L9.59766 26.3672Z" fill="white"/>
<path d="M17.1328 21.2403L19.645 26.3672H22.1767L18.5796 19.0258L17.1328 21.2403Z" fill="white"/>
<path d="M44.6934 0H4.40234C2.02397 0 0 1.96762 0 4.39453V5.85938H5.18591C6.77847 5.85938 8.19009 6.68182 8.8716 8.00362C9.37068 8.97369 10.9184 8.97369 11.4175 8.00362C12.099 6.68182 13.5106 5.85938 15.1031 5.85938H33.88C35.4715 5.85938 36.9885 6.68488 37.6839 8.01239C38.1859 8.97064 39.7179 8.9695 40.217 8.01392C40.9138 6.68488 42.3352 5.85938 43.9266 5.85938H49V4.39453C49 1.96762 47.0717 0 44.6934 0Z" fill="white"/>
<path d="M42.7501 9.39407C42.0017 10.8276 40.5452 11.7188 38.9512 11.7188C37.3571 11.7188 35.9006 10.8276 35.1507 9.39293C34.9601 9.02672 34.4015 8.78906 33.88 8.78906H15.1031C14.597 8.78906 14.1371 9.02214 13.9577 9.36852C13.2104 10.8173 11.7498 11.7188 10.1445 11.7188C8.53926 11.7188 7.07867 10.8173 6.33136 9.36852C6.15192 9.02214 5.69209 8.78906 5.18591 8.78906H0V30.7617C0 33.1886 2.02397 35.1562 4.40234 35.1562H8.70898V39.5508C8.70898 40.3603 9.35124 41.0156 10.1445 41.0156H21.6289V47.0703H18.7578C17.9645 47.0703 17.3223 47.7257 17.3223 48.5352C17.3223 49.3446 17.9645 50 18.7578 50H30.2422C31.0355 50 31.6777 49.3446 31.6777 48.5352C31.6777 47.7257 31.0355 47.0703 30.2422 47.0703H27.3711V41.0156H38.9512C39.7445 41.0156 40.3867 40.3603 40.3867 39.5508V35.1562H44.6934C47.0717 35.1562 49 33.1886 49 30.7617V8.78906H43.9266C43.4051 8.78906 42.9423 9.02672 42.7501 9.39407ZM21.6289 38.0859H11.5801V35.1562H21.6289V38.0859ZM25.721 28.6018C25.4589 29.0337 24.9976 29.2969 24.5 29.2969C24.0379 29.2969 6.97885 29.2969 7.27344 29.2969C6.77586 29.2969 6.31454 29.0337 6.05247 28.6018C5.79041 28.1696 5.76649 27.6302 5.9893 27.1767L11.7315 15.4579C12.2193 14.4653 13.8119 14.4653 14.2998 15.4579L15.6542 18.2224L17.5634 15.3008C17.8479 14.8659 18.3021 14.637 18.8475 14.6511C19.3578 14.6843 19.8135 14.9918 20.042 15.4579L25.7841 27.1767C26.007 27.6302 25.983 28.1696 25.721 28.6018ZM37.5156 38.0859H27.3711V35.1562H37.5156V38.0859ZM41.8223 29.2969H30.2422C29.4489 29.2969 28.8066 28.6415 28.8066 27.832C28.8066 27.0226 29.4489 26.3672 30.2422 26.3672H41.8223C42.6156 26.3672 43.2578 27.0226 43.2578 27.832C43.2578 28.6415 42.6156 29.2969 41.8223 29.2969ZM41.8223 23.4375H30.2422C29.4489 23.4375 28.8066 22.7821 28.8066 21.9727C28.8066 21.1632 29.4489 20.5078 30.2422 20.5078H41.8223C42.6156 20.5078 43.2578 21.1632 43.2578 21.9727C43.2578 22.7821 42.6156 23.4375 41.8223 23.4375ZM41.8223 17.5781H30.2422C29.4489 17.5781 28.8066 16.9228 28.8066 16.1133C28.8066 15.3038 29.4489 14.6484 30.2422 14.6484H41.8223C42.6156 14.6484 43.2578 15.3038 43.2578 16.1133C43.2578 16.9228 42.6156 17.5781 41.8223 17.5781Z" fill="white"/>
</g>
<defs>
<clipPath id="clip0_1_4082">
<rect width="49" height="50" fill="white"/>
</clipPath>
</defs>
</svg>
