<svg width="64" height="48" viewBox="0 0 64 48" fill="none" xmlns="http://www.w3.org/2000/svg">
<path d="M40 0C28.8374 0 19.4304 7.66025 16.7594 18H8V14.75C8 13.785 7.215 13 6.25 13H1C0.44775 13 0 13.4478 0 14V34C0 34.5522 0.44775 35 1 35H6.25C7.215 35 8 34.215 8 33.25V30H16.7594C19.4304 40.3398 28.8374 48 40 48C53.2336 48 64 37.2336 64 24C64 10.7664 53.2336 0 40 0ZM6 33H2V15H6V33ZM8 28V20H16.3351C16.1159 21.3014 16 22.6372 16 24C16 25.3628 16.1159 26.6986 16.3351 28H8ZM40 46C27.8691 46 18 36.1309 18 24C18 11.8691 27.8691 2 40 2C52.1309 2 62 11.8691 62 24C62 36.1309 52.1309 46 40 46Z" fill="white"/>
<path d="M22 24.0003C22 14.075 30.0747 6.00027 40 6.00027C43.3582 6.00027 46.6339 6.9309 49.4727 8.6914C49.9422 8.9824 50.5586 8.8379 50.8496 8.36852C51.1407 7.89915 50.9961 7.28265 50.5267 6.99165C47.3711 5.03465 43.7311 4.00027 40 4.00027C28.972 4.00027 20 12.9723 20 24.0003C20 28.5928 21.5955 33.0786 24.4927 36.6315C24.6904 36.8739 24.9781 36.9996 25.2684 36.9996C25.4905 36.9996 25.7141 36.9259 25.8997 36.7745C26.3277 36.4255 26.3919 35.7955 26.0427 35.3676C23.4357 32.1706 22 28.1336 22 24.0003Z" fill="white"/>
<path d="M57.0103 13.4743C56.7193 13.0049 56.1028 12.8603 55.6335 13.1514C55.1641 13.4424 55.0195 14.0589 55.3106 14.5283C57.0708 17.3669 58.0012 20.6423 58.0012 24.0002C58.0012 33.9254 49.9265 42.0002 40.0012 42.0002C35.867 42.0002 31.8293 40.5639 28.6321 37.9559C28.2041 37.6068 27.5741 37.6708 27.2251 38.0988C26.8761 38.5268 26.94 39.1567 27.368 39.5058C30.9211 42.4041 35.4077 44.0002 40.0012 44.0002C51.0292 44.0002 60.0012 35.0282 60.0012 24.0002C60.0012 20.2696 58.967 16.6297 57.0103 13.4743Z" fill="white"/>
<path d="M53.265 11.8312C53.4623 12.0461 53.7317 12.155 54.0019 12.155C54.2435 12.155 54.4859 12.0679 54.6779 11.8916C55.0848 11.5181 55.1118 10.8855 54.7383 10.4787C54.3524 10.0584 53.9438 9.64974 53.5239 9.26424C53.1172 8.89074 52.4845 8.91761 52.111 9.32461C51.7375 9.73136 51.7645 10.364 52.1714 10.7375C52.5494 11.0846 52.9174 11.4526 53.265 11.8312Z" fill="white"/>
<path d="M37 18.9997V11.9997C37 11.4475 36.5522 10.9997 36 10.9997C35.4477 10.9997 35 11.4475 35 11.9997V18.9997C35 19.552 35.4477 19.9997 36 19.9997C36.5522 19.9997 37 19.552 37 18.9997Z" fill="white"/>
<path d="M36 36.9997C36.5522 36.9997 37 36.552 37 35.9997V22.8731C38.7232 22.428 40 20.8601 40 18.9997V11.9997C40 11.4475 39.5522 10.9997 39 10.9997C38.4477 10.9997 38 11.4475 38 11.9997V18.9997C38 20.1025 37.1027 20.9997 36 20.9997C34.8972 20.9997 34 20.1025 34 18.9997V11.9997C34 11.4475 33.5522 10.9997 33 10.9997C32.4477 10.9997 32 11.4475 32 11.9997V18.9997C32 20.8602 33.2767 22.428 35 22.8731V35.9997C35 36.552 35.4477 36.9997 36 36.9997Z" fill="white"/>
<path d="M42 11.9997V35.9997C42 36.552 42.4477 36.9997 43 36.9997C43.5523 36.9997 44 36.552 44 35.9997V26.9997H47C47.5522 26.9997 48 26.552 48 25.9997V15.9997C48 13.2427 45.757 10.9997 43 10.9997C42.4477 10.9997 42 11.4475 42 11.9997ZM46 15.9997V24.9997H44V13.1717C45.1639 13.5846 46 14.6961 46 15.9997Z" fill="white"/>
</svg>
