<svg width="70" height="32" viewBox="0 0 70 32" fill="none" xmlns="http://www.w3.org/2000/svg">
<path d="M1.89341 17.4155C-1.15069 20.5332 0.407519 17.4155 0.336096 22.9236C0.274792 27.7019 3.13914 27.7899 3.90158 27.7296C3.75219 27.1431 3.6638 26.5303 3.6638 25.8962C3.6638 21.8912 6.84629 18.6318 10.7582 18.6318C14.6695 18.6318 17.8522 21.8912 17.8522 25.8962C17.8522 26.5337 17.7645 27.1501 17.6124 27.739C28.1996 27.7467 42.9234 27.7183 53.938 27.5459C53.8172 27.0148 53.7467 26.4645 53.7467 25.8962C53.7467 21.8912 56.9289 18.6318 60.8404 18.6318C64.7526 18.6318 67.9354 21.8912 67.9354 25.8962C67.9354 26.3006 67.8943 26.6936 67.8324 27.0809C68.6199 27.0087 69.1002 26.9282 69.2097 26.8387C70.6257 25.679 70.059 18.4314 68.147 16.9106C66.2358 15.3892 67.2971 14.5915 67.2277 11.7645C67.189 10.2407 65.9606 8.07336 64.8342 6.39111C65.7302 6.12449 66.6072 5.81461 67.4459 5.3734C67.5515 5.31795 67.6173 5.24269 67.6911 5.17169C68.0384 4.84109 68.072 4.38465 67.8946 3.98671C67.8905 3.97056 67.8824 3.95563 67.8762 3.93887C67.8565 3.89774 67.8384 3.85691 67.8131 3.8173C67.6494 3.46872 67.3453 3.18291 66.873 3.13903C65.5103 3.0138 64.1678 2.96535 62.856 2.52811C62.7052 2.47844 62.5695 2.47235 62.4388 2.47966L62.4156 2.41324C62.4156 2.41324 52.1519 -0.268129 39.1984 0.021946C26.2432 0.311716 25.8903 8.28299 14.7061 9.081C3.52245 9.87871 1.89371 17.4155 1.89371 17.4155H1.89341ZM21.3157 21.291H43.0449C43.4627 21.291 43.8043 21.6408 43.8043 22.0686C43.8043 22.4964 43.4627 22.8462 43.0449 22.8462H21.3157C20.8978 22.8462 20.5562 22.4964 20.5562 22.0686C20.5562 21.6408 20.8978 21.291 21.3157 21.291ZM31.6327 18.2699C31.6327 18.3665 31.6294 18.4496 31.6214 18.5164C31.6133 18.5831 31.6002 18.6379 31.5857 18.6812C31.5693 18.726 31.5499 18.7577 31.5255 18.776C31.5011 18.7961 31.4735 18.8058 31.4425 18.8058H28.6183C28.5142 18.8058 28.4264 18.7741 28.355 18.7111C28.2835 18.6477 28.2475 18.5447 28.2475 18.4015V12.6679C28.2475 12.6363 28.2574 12.6064 28.2785 12.5799C28.2996 12.5549 28.3338 12.5333 28.3809 12.5165C28.4279 12.4997 28.493 12.4882 28.5743 12.4781C28.6555 12.4681 28.7564 12.4632 28.8766 12.4632C29.0002 12.4632 29.1025 12.4681 29.1823 12.4781C29.2602 12.4882 29.3254 12.4997 29.3724 12.5165C29.4195 12.5333 29.4537 12.5549 29.4748 12.5799C29.4959 12.6064 29.5058 12.6366 29.5058 12.6679V17.747H31.4422C31.4732 17.747 31.5023 17.7552 31.5252 17.7735C31.5496 17.7918 31.569 17.8201 31.5854 17.8619C31.6017 17.9018 31.613 17.9551 31.6211 18.0234C31.6291 18.0901 31.6324 18.1714 31.6324 18.2699H31.6327ZM38.3253 15.5763C38.3253 16.0992 38.2619 16.5669 38.1351 16.9798C38.0084 17.3926 37.8197 17.7439 37.5676 18.0301C37.317 18.318 37.0066 18.5377 36.6376 18.6894C36.2668 18.8409 35.8392 18.9158 35.3532 18.9158C34.8735 18.9158 34.4557 18.8509 34.0997 18.7226C33.742 18.5944 33.4444 18.3997 33.2055 18.1349C32.968 17.8719 32.7891 17.5374 32.6707 17.1309C32.5519 16.7247 32.4918 16.2436 32.4918 15.6875C32.4918 15.1781 32.5552 14.7186 32.682 14.3109C32.8088 13.9029 32.9974 13.5568 33.2495 13.2703C33.4998 12.9839 33.8105 12.7642 34.1795 12.6128C34.5503 12.4595 34.9794 12.383 35.469 12.383C35.9356 12.383 36.3469 12.4464 36.7046 12.5729C37.0605 12.6993 37.3599 12.894 37.5989 13.1588C37.8396 13.4218 38.02 13.753 38.142 14.1543C38.264 14.5571 38.3256 15.03 38.3256 15.576L38.3253 15.5763ZM37.0084 15.6412C37.0084 15.31 36.9825 15.0087 36.932 14.7372C36.8817 14.466 36.7954 14.2329 36.6733 14.0397C36.5513 13.8465 36.3888 13.6966 36.1856 13.5903C35.9823 13.4855 35.7288 13.4321 35.4246 13.4321C35.1172 13.4321 34.8604 13.4922 34.6556 13.6104C34.4491 13.7286 34.2816 13.8883 34.1548 14.0866C34.028 14.2847 33.9387 14.5163 33.8867 14.7807C33.8346 15.047 33.8087 15.3268 33.8087 15.6229C33.8087 15.9675 33.8346 16.2771 33.8852 16.552C33.9355 16.8265 34.0218 17.0614 34.142 17.2576C34.2622 17.4524 34.4232 17.6007 34.6265 17.7037C34.8297 17.8052 35.0851 17.857 35.3922 17.857C35.6996 17.857 35.9564 17.7988 36.1612 17.6806C36.3677 17.5642 36.5353 17.4042 36.662 17.2028C36.7888 17.0014 36.8784 16.7668 36.9305 16.4986C36.9825 16.2305 37.0084 15.9444 37.0084 15.6412ZM44.9108 13.4754C44.9108 13.5686 44.9075 13.6503 44.8995 13.7185C44.8914 13.7868 44.8798 13.8416 44.8652 13.8816C44.8507 13.9233 44.8343 13.9516 44.8132 13.9666C44.792 13.9833 44.7676 13.9916 44.74 13.9916C44.6977 13.9916 44.631 13.9617 44.54 13.9035C44.4474 13.8453 44.3254 13.7804 44.1724 13.7121C44.0195 13.6439 43.8391 13.579 43.6278 13.5208C43.4165 13.4626 43.171 13.4324 42.8913 13.4324C42.5937 13.4324 42.3238 13.4858 42.0833 13.5906C41.8411 13.6972 41.6345 13.8468 41.4637 14.04C41.2929 14.2347 41.1614 14.4663 41.0685 14.7393C40.976 15.0108 40.9304 15.3103 40.9304 15.64C40.9304 16.0014 40.9775 16.3192 41.0703 16.5955C41.1646 16.8704 41.2962 17.1001 41.4637 17.2863C41.6328 17.4709 41.836 17.6108 42.0717 17.7059C42.3092 17.8006 42.5708 17.8472 42.8553 17.8472C42.9952 17.8472 43.1332 17.8305 43.2698 17.7991C43.4079 17.7659 43.535 17.7159 43.6519 17.651V16.1793H42.486C42.4291 16.1793 42.3851 16.1427 42.3526 16.0693C42.3217 15.9962 42.3056 15.8728 42.3056 15.6964C42.3056 15.6065 42.3089 15.53 42.3169 15.4684C42.325 15.4069 42.3381 15.3569 42.3526 15.3204C42.369 15.282 42.3884 15.2555 42.4095 15.2372C42.4321 15.2189 42.4583 15.2107 42.486 15.2107H44.567C44.6173 15.2107 44.6629 15.2189 44.7019 15.2372C44.7426 15.2555 44.7766 15.282 44.8075 15.3188C44.8367 15.3539 44.8611 15.3971 44.8757 15.4471C44.892 15.4986 44.9001 15.5571 44.9001 15.622V18.1391C44.9001 18.2373 44.8837 18.3223 44.8498 18.3954C44.8173 18.4685 44.7489 18.5267 44.645 18.5685C44.5426 18.6117 44.4141 18.655 44.2614 18.7016C44.1085 18.7467 43.9507 18.7866 43.7868 18.8183C43.6243 18.8515 43.4582 18.8765 43.291 18.8915C43.1252 18.9082 42.9577 18.9164 42.7886 18.9164C42.2961 18.9164 41.8554 18.8433 41.4652 18.6983C41.0766 18.5535 40.7465 18.3436 40.4766 18.0691C40.2067 17.7945 40.0002 17.4597 39.857 17.0636C39.7139 16.6674 39.6424 16.2195 39.6424 15.7183C39.6424 15.2006 39.7189 14.7362 39.8716 14.3249C40.0228 13.912 40.2391 13.5625 40.5186 13.2743C40.7983 12.9864 41.1349 12.7667 41.5316 12.6134C41.9268 12.4601 42.3672 12.3837 42.8517 12.3837C43.1198 12.3837 43.3624 12.4019 43.5817 12.4403C43.7996 12.4787 43.9915 12.5235 44.1558 12.5784C44.3183 12.6317 44.4549 12.6899 44.5623 12.7514C44.6712 12.8148 44.7459 12.8681 44.7882 12.9147C44.8319 12.9595 44.8629 13.0247 44.8807 13.1079C44.9004 13.1896 44.9099 13.3127 44.9099 13.4757L44.9108 13.4754ZM52.3042 15.5763C52.3042 16.0992 52.2408 16.5669 52.1141 16.9798C51.9873 17.3926 51.7986 17.7439 51.5465 18.0301C51.296 18.318 50.9856 18.5377 50.6166 18.6894C50.2458 18.8409 49.8181 18.9158 49.3321 18.9158C48.8524 18.9158 48.4346 18.8509 48.0787 18.7226C47.721 18.5944 47.4234 18.3997 47.1844 18.1349C46.9469 17.8719 46.7681 17.5374 46.6496 17.1309C46.5309 16.7247 46.4708 16.2436 46.4708 15.6875C46.4708 15.1781 46.5342 14.7186 46.6609 14.3109C46.7877 13.9029 46.9764 13.5568 47.2284 13.2703C47.4787 12.9839 47.7894 12.7642 48.1584 12.6128C48.5292 12.4595 48.9584 12.383 49.4479 12.383C49.9145 12.383 50.3258 12.4464 50.6835 12.5729C51.0394 12.6993 51.3388 12.894 51.5778 13.1588C51.8186 13.4218 51.9989 13.753 52.1209 14.1543C52.2429 14.5571 52.3045 15.03 52.3045 15.576L52.3042 15.5763ZM50.9874 15.6412C50.9874 15.31 50.9615 15.0087 50.9109 14.7372C50.8606 14.466 50.7743 14.2329 50.6523 14.0397C50.5303 13.8465 50.3678 13.6966 50.1645 13.5903C49.9613 13.4855 49.7077 13.4321 49.4036 13.4321C49.0961 13.4321 48.8393 13.4922 48.6346 13.6104C48.428 13.7286 48.2605 13.8883 48.1337 14.0866C48.007 14.2847 47.9177 14.5163 47.8656 14.7807C47.8135 15.047 47.7876 15.3268 47.7876 15.6229C47.7876 15.9675 47.8135 16.2771 47.8641 16.552C47.9144 16.8265 48.0007 17.0614 48.1209 17.2576C48.2412 17.4524 48.4022 17.6007 48.6054 17.7037C48.8087 17.8052 49.064 17.857 49.3711 17.857C49.6785 17.857 49.9354 17.7988 50.1401 17.6806C50.3466 17.5642 50.5142 17.4042 50.641 17.2028C50.7677 17.0014 50.8573 16.7668 50.9094 16.4986C50.9615 16.2305 50.9874 15.9444 50.9874 15.6412Z" fill="white"/>
<path d="M10.7586 19.7906C7.466 19.7906 4.79688 22.5241 4.79688 25.8953C4.79688 26.5318 4.91919 27.133 5.09596 27.7107C5.85453 30.1892 8.08738 31.9994 10.7598 31.9994C13.4215 31.9994 15.649 30.2023 16.4156 27.7369C16.598 27.1525 16.7227 26.541 16.7227 25.8953C16.7215 22.5241 14.0521 19.7906 10.7586 19.7906Z" fill="white"/>
<path d="M60.8439 19.7907C57.5528 19.7907 54.8828 22.5242 54.8828 25.8954C54.8828 26.4649 54.9834 27.0042 55.1251 27.5274C55.8253 30.1012 58.1067 32.0001 60.8442 32.0001C63.7101 32.0001 66.1001 29.9284 66.6732 27.169C66.7581 26.7583 66.8069 26.3339 66.8069 25.8963C66.8069 22.5242 64.1368 19.7904 60.8442 19.7904L60.8439 19.7907Z" fill="white"/>
</svg>
