<svg width="117" height="110" viewBox="0 0 117 110" fill="none" xmlns="http://www.w3.org/2000/svg">
<path d="M8.51244 43.1206C7.75624 42.68 6.82428 42.6825 6.07744 43.1278L4.82206 43.8646C0.218664 46.5805 -1.36974 52.614 1.28871 57.3112L5.1884 64.2089C5.62596 64.9891 6.44379 65.4489 7.29996 65.4489C7.50927 65.4489 7.71835 65.4224 7.92765 65.367C8.99291 65.078 9.73473 64.1007 9.73473 62.9835V45.2585C9.73473 44.3775 9.26864 43.5613 8.51244 43.1206Z" fill="#EBA707"/>
<path d="M36.9117 30.2434H98.7875C99.6578 30.2434 100.457 29.7764 100.894 29.0154C101.332 28.2546 101.332 27.3156 100.899 26.5525L89.048 5.59184C86.4847 1.05592 80.307 -0.643865 75.8271 1.98522L35.6849 25.6472C34.7337 26.2081 34.2724 27.3447 34.5626 28.4208C34.8479 29.4969 35.8131 30.2434 36.9117 30.2434Z" fill="#EBA707"/>
<path d="M107.126 35.2119H24.3463C18.9775 35.2119 14.6074 39.6287 14.6074 45.0602V99.227C14.6074 104.659 18.9775 109.076 24.3463 109.076H107.126C112.494 109.076 116.864 104.659 116.864 99.227V45.0602C116.864 39.6287 112.494 35.2119 107.126 35.2119ZM43.8255 54.9506C49.1945 54.9506 53.5646 59.3709 53.5646 64.8068C53.5646 70.2427 49.1943 74.6629 43.8255 74.6629C38.4566 74.6629 34.0865 70.2427 34.0865 64.8068C34.0865 59.3709 38.4566 54.9506 43.8255 54.9506ZM63.3039 89.6007C63.3039 92.2333 61.1211 94.3749 58.4344 94.3749H29.2167C26.53 94.3749 24.3472 92.2333 24.3472 89.6007V88.4745C24.3472 85.1973 26.235 82.24 29.2786 80.7576C32.6834 79.1022 37.9668 77.1265 43.8255 77.1265C49.6843 77.1265 54.9677 79.1022 58.3725 80.7576C61.416 82.24 63.3039 85.1973 63.3039 88.4745V89.6007ZM104.691 84.4543H75.4734C74.1276 84.4543 73.0386 83.353 73.0386 81.9921C73.0386 80.6311 74.1276 79.5299 75.4734 79.5299H104.691C106.037 79.5299 107.126 80.6311 107.126 81.9921C107.126 83.353 106.037 84.4543 104.691 84.4543ZM104.695 69.6815H65.7387C64.3929 69.6815 63.3039 68.5803 63.3039 67.2193C63.3039 65.8584 64.3929 64.7571 65.7387 64.7571H104.695C106.041 64.7571 107.13 65.8584 107.13 67.2193C107.13 68.5803 106.041 69.6815 104.695 69.6815Z" fill="white"/>
</svg>
