<svg width="30" height="30" viewBox="0 0 30 30" fill="none" xmlns="http://www.w3.org/2000/svg">
<path d="M15 1.875C7.75195 1.875 1.875 7.75195 1.875 15C1.875 22.248 7.75195 28.125 15 28.125C22.248 28.125 28.125 22.248 28.125 15C28.125 7.75195 22.248 1.875 15 1.875ZM20.1709 19.0342L19.333 20.1768C19.3148 20.2016 19.2918 20.2227 19.2654 20.2386C19.2391 20.2546 19.2098 20.2652 19.1793 20.2699C19.1488 20.2745 19.1177 20.273 19.0878 20.2656C19.0578 20.2582 19.0297 20.2449 19.0049 20.2266L14.1592 16.6934C14.129 16.6717 14.1045 16.6431 14.0876 16.6099C14.0708 16.5768 14.0622 16.5401 14.0625 16.5029V8.4375C14.0625 8.30859 14.168 8.20312 14.2969 8.20312H15.7061C15.835 8.20312 15.9404 8.30859 15.9404 8.4375V15.6885L20.1182 18.709C20.2236 18.7822 20.2471 18.9287 20.1709 19.0342Z" fill="#EBA707"/>
</svg>
