<svg width="32" height="32" viewBox="0 0 32 32" fill="none" xmlns="http://www.w3.org/2000/svg">
<g clip-path="url(#clip0_1_4203)">
<path d="M4.25707 7.65036L6.16898 8.75381C6.33977 8.85375 6.55098 8.85483 6.72259 8.75623C6.89446 8.65763 7.00006 8.47444 6.99953 8.27644C6.99926 8.07843 6.89284 7.89605 6.7207 7.79799L4.80879 6.69454C4.54532 6.54475 4.20992 6.63581 4.05825 6.89847C3.90685 7.16113 3.99548 7.4968 4.25707 7.65036Z" fill="#EBA707"/>
<path d="M6.1673 18.8324L4.25539 19.9358C4.08325 20.0339 3.97683 20.2163 3.97656 20.4143C3.97603 20.6123 4.08163 20.7955 4.2535 20.8941C4.42511 20.9927 4.63632 20.9916 4.80711 20.8916L6.71902 19.7882C6.89117 19.6901 6.99758 19.5078 6.99785 19.3098C6.99839 19.1117 6.89278 18.9286 6.72091 18.83C6.5493 18.7314 6.33809 18.7324 6.1673 18.8324Z" fill="#EBA707"/>
<path d="M27.7425 19.9358L25.8306 18.8324C25.6598 18.7324 25.4485 18.7314 25.2769 18.83C25.1051 18.9286 24.9995 19.1117 25 19.3098C25.0003 19.5078 25.1067 19.6901 25.2788 19.7882L27.1907 20.8916C27.3615 20.9916 27.5727 20.9927 27.7443 20.8941C27.9162 20.7955 28.0218 20.6123 28.0213 20.4143C28.021 20.2163 27.9146 20.0339 27.7425 19.9358V19.9358Z" fill="#EBA707"/>
<path d="M25.5556 8.82753C25.6526 8.8278 25.7477 8.8022 25.8315 8.75371L27.7434 7.65027C27.9155 7.5522 28.0219 7.36982 28.0222 7.17182C28.0228 6.97381 27.9172 6.79062 27.7455 6.69202C27.5737 6.59342 27.3625 6.5945 27.1917 6.69445L25.2798 7.79789C25.0637 7.92289 24.9581 8.17747 25.0228 8.41858C25.0874 8.65969 25.3062 8.82753 25.5556 8.82753V8.82753Z" fill="#EBA707"/>
<path d="M21.2408 4.71496C21.5048 4.86744 21.8421 4.77692 21.9946 4.51318L23.098 2.60127C23.2478 2.3378 23.1567 2.0024 22.8941 1.85073C22.6314 1.69933 22.2957 1.78797 22.1422 2.04955L21.0387 3.96146C20.8865 4.2252 20.977 4.56275 21.2408 4.71496V4.71496Z" fill="#EBA707"/>
<path d="M16.0009 3.31034C16.3056 3.31034 16.5527 3.06331 16.5527 2.75862V0.551724C16.5527 0.247037 16.3056 0 16.0009 0C15.6963 0 15.4492 0.247037 15.4492 0.551724V2.75862C15.4492 3.06331 15.6963 3.31034 16.0009 3.31034Z" fill="#EBA707"/>
<path d="M10.0037 4.51318C10.1017 4.68532 10.2841 4.79174 10.4821 4.792C10.6801 4.79254 10.8633 4.68694 10.9619 4.51507C11.0605 4.34346 11.0594 4.13225 10.9595 3.96146L9.85605 2.04955C9.70249 1.78797 9.36682 1.69933 9.10416 1.85073C8.8415 2.0024 8.75044 2.3378 8.90023 2.60127L10.0037 4.51318Z" fill="#EBA707"/>
<path d="M5.51738 13.7931C5.51738 13.4884 5.27034 13.2413 4.96565 13.2413H2.75876C2.45407 13.2413 2.20703 13.4884 2.20703 13.7931C2.20703 14.0977 2.45407 14.3448 2.75876 14.3448H4.96565C5.27034 14.3448 5.51738 14.0977 5.51738 13.7931Z" fill="#EBA707"/>
<path d="M29.243 13.2413H27.0361C26.7314 13.2413 26.4844 13.4884 26.4844 13.7931C26.4844 14.0977 26.7314 14.3448 27.0361 14.3448H29.243C29.5477 14.3448 29.7947 14.0977 29.7947 13.7931C29.7947 13.4884 29.5477 13.2413 29.243 13.2413Z" fill="#EBA707"/>
<path d="M18.7594 25.931H13.2422V27.0638C14.0466 27.0428 15.6145 27.0482 18.7594 27.0638V25.931Z" fill="#EBA707"/>
<path d="M18.7594 28.1659C16.7958 28.1579 14.3009 28.1506 13.2422 28.1573V29.2414H18.7594V28.1659Z" fill="#EBA707"/>
<path d="M14.3438 30.3448C14.3438 31.2589 15.0849 32 15.9989 32C16.913 32 17.6541 31.2589 17.6541 30.3448H14.3438Z" fill="#EBA707"/>
<path d="M20.0968 20.9844C23.3573 19.1285 24.9618 15.3114 24.006 11.6837C23.0504 8.05576 19.7738 5.52451 16.0222 5.51589C12.2703 5.50727 8.98229 8.0237 8.01003 11.6471C7.03778 15.2707 8.6248 19.0948 11.8767 20.9655C12.4968 21.3249 12.951 21.9135 13.1412 22.6048L18.8559 22.6207C19.0337 21.931 19.4807 21.3416 20.0968 20.9844V20.9844ZM14.3468 18.7586C14.2005 18.7586 14.0601 18.7004 13.9567 18.597L10.8357 15.4757C10.6264 15.2594 10.6294 14.9151 10.8422 14.7023C11.055 14.4895 11.3993 14.4865 11.6156 14.6958L14.3468 17.4267L20.1983 11.5746C20.4139 11.3591 20.7635 11.3591 20.9791 11.5746C21.1946 11.7901 21.1946 12.1398 20.9791 12.3553L14.7369 18.597C14.6334 18.7004 14.4931 18.7586 14.3468 18.7586V18.7586Z" fill="#EBA707"/>
<path d="M18.7594 23.7231L13.2422 23.7094V24.8276H18.7594V23.7231Z" fill="#EBA707"/>
</g>
<defs>
<clipPath id="clip0_1_4203">
<rect width="32" height="32" fill="white"/>
</clipPath>
</defs>
</svg>
