<svg width="28" height="28" viewBox="0 0 28 28" fill="none" xmlns="http://www.w3.org/2000/svg">
<path d="M8.52344 8.67029L13.9985 23.4516L19.4735 8.67029H8.52344Z" fill="#EBA707"/>
<path d="M14.0004 3.07703L9.59375 7.02902H18.4071L14.0004 3.07703Z" fill="#EBA707"/>
<path d="M6.77469 8.67029H0C0.0305156 9.14738 0.201961 9.61573 0.511438 10.0077L12.1115 24.7003C12.3446 24.9955 12.6369 25.2264 12.965 25.3827L6.77469 8.67029Z" fill="#EBA707"/>
<path d="M4.59703 2.61731C3.76502 2.61731 3.00371 3.03775 2.56052 3.74201L0.492188 7.02901H7.13382L12.0531 2.61731H4.59703V2.61731Z" fill="#EBA707"/>
<path d="M25.4379 3.74196C24.9948 3.03775 24.2335 2.61731 23.4015 2.61731H15.9453L20.8646 7.02901H27.5063L25.4379 3.74196Z" fill="#EBA707"/>
<path d="M21.2255 8.67029L15.0352 25.3827C15.3632 25.2264 15.6555 24.9955 15.8886 24.7003L27.4887 10.0077C27.7982 9.61573 27.9696 9.14738 28.0002 8.67029H21.2255V8.67029Z" fill="#EBA707"/>
</svg>
