<svg width="120" height="120" viewBox="0 0 120 120" fill="none" xmlns="http://www.w3.org/2000/svg">
<g clip-path="url(#clip0_1_3385)">
<path d="M58.9062 18.5156H93.7508V31.4039H58.9062V18.5156Z" fill="#EBA707"/>
<path d="M103.508 0H49.1492C44.1898 0 40.1562 4.03359 40.1562 8.99297V92.9414C40.1562 94.8844 41.7289 96.457 43.6719 96.457H103.508C108.465 96.457 112.501 92.4234 112.501 87.4664V8.99297C112.501 4.03359 108.465 0 103.508 0V0ZM65.8437 87.6539H55.3906C53.4477 87.6539 51.875 86.0812 51.875 84.1383C51.875 82.1977 53.4477 80.6227 55.3906 80.6227H65.8437C67.7844 80.6227 69.3594 82.1977 69.3594 84.1383C69.3594 86.0812 67.7844 87.6539 65.8437 87.6539ZM91.9578 75.9352H55.3906C53.4477 75.9352 51.875 74.3625 51.875 72.4195C51.875 70.4789 53.4477 68.9039 55.3906 68.9039H91.9578C93.8984 68.9039 95.4734 70.4789 95.4734 72.4195C95.4734 74.3625 93.8984 75.9352 91.9578 75.9352ZM51.875 60.7008C51.875 58.7602 53.4477 57.1852 55.3906 57.1852H87.8914C89.832 57.1852 91.407 58.7602 91.407 60.7008C91.407 62.6437 89.832 64.2164 87.8914 64.2164H55.3906C53.4477 64.2164 51.875 62.6437 51.875 60.7008ZM97.2664 52.4977H55.3906C53.4477 52.4977 51.875 50.925 51.875 48.982C51.875 47.0414 53.4477 45.4664 55.3906 45.4664H97.2664C99.207 45.4664 100.782 47.0414 100.782 48.982C100.782 50.925 99.207 52.4977 97.2664 52.4977ZM100.782 34.9195C100.782 36.8625 99.207 38.4352 97.2664 38.4352H55.3906C53.4477 38.4352 51.875 36.8625 51.875 34.9195V15C51.875 13.0594 53.4477 11.4844 55.3906 11.4844H97.2664C99.207 11.4844 100.782 13.0594 100.782 15V34.9195Z" fill="white"/>
<path d="M36.1496 93.0332V18.9473H19.5066C14.5543 18.9473 10.5254 22.9809 10.5254 27.9379V111.099C10.5254 116.058 14.5543 120.092 19.5066 120.092H72.7965L41.9645 102.457C38.5191 100.721 36.1496 97.1488 36.1496 93.0332Z" fill="white"/>
<path d="M72.6562 114.691C72.6937 114.482 72.7148 114.269 72.7148 114.049V101.053H48.4219L72.6562 114.691Z" fill="#EBA707"/>
</g>
<defs>
<clipPath id="clip0_1_3385">
<rect width="120" height="120" fill="white"/>
</clipPath>
</defs>
</svg>
