<svg width="23" height="26" viewBox="0 0 23 26" fill="none" xmlns="http://www.w3.org/2000/svg">
<path d="M19.0787 4.57898H17.5523C17.1305 4.57898 16.7891 4.92033 16.7891 5.34222C16.7891 5.76406 17.1304 6.10546 17.5523 6.10546H19.0787C19.5006 6.10546 19.842 5.76411 19.842 5.34222C19.8419 4.92033 19.5006 4.57898 19.0787 4.57898Z" fill="#EBA707"/>
<path d="M11.3657 1.94792L10.6025 0.421485C10.4125 0.0443335 9.95556 -0.106944 9.5784 0.0801342C9.20125 0.268685 9.04845 0.727086 9.23705 1.10424L10.0003 2.63067C10.1886 3.0063 10.6447 3.16062 11.0244 2.97202C11.4014 2.78347 11.5542 2.32507 11.3657 1.94792Z" fill="#EBA707"/>
<path d="M16.3681 0.0801251C15.9924 -0.106953 15.5326 0.0443752 15.344 0.421476L14.5808 1.94791C14.3922 2.32506 14.545 2.78341 14.9221 2.97201C15.3029 3.16112 15.7585 3.00502 15.9462 2.63066L16.7095 1.10423C16.898 0.727077 16.7452 0.268676 16.3681 0.0801251Z" fill="#EBA707"/>
<path d="M8.39514 4.57898H6.86871C6.44687 4.57898 6.10547 4.92033 6.10547 5.34222C6.10547 5.76406 6.44682 6.10546 6.86871 6.10546H8.39514C8.81698 6.10546 9.15838 5.76411 9.15838 5.34222C9.15838 4.92033 8.81698 4.57898 8.39514 4.57898Z" fill="#EBA707"/>
<path d="M3.81615 12.262H0.763241C0.341757 12.262 0 12.6037 0 13.0252V25.2367C0 25.6581 0.341706 25.9999 0.763241 25.9999H3.8161C4.23759 25.9999 4.57934 25.6582 4.57934 25.2367V13.0252C4.57934 12.6037 4.23769 12.262 3.81615 12.262Z" fill="#EBA707"/>
<path d="M22.8811 14.2852C22.7465 13.1012 21.6405 12.2621 20.4489 12.2621H14.4986C15.0043 11.3566 15.2757 8.79556 15.2637 7.74937C15.2437 6.01763 13.8096 4.62988 12.0778 4.62988H11.4481C11.0262 4.62988 10.6848 4.97123 10.6848 5.39312C10.6848 7.15802 9.99759 10.3436 8.7015 11.6398C7.82913 12.5121 7.08336 12.8282 6.10547 13.317V24.769C7.60265 25.2681 9.50359 26.0001 12.401 26.0001H17.3936C19.0387 26.0001 20.3199 24.4765 19.6824 22.8667C20.6536 22.6021 21.3698 21.7114 21.3698 20.6575C21.3698 20.3601 21.3124 20.0754 21.2089 19.8138C22.8455 19.3679 23.4479 17.3471 22.312 16.0782C22.7293 15.612 22.9594 14.9743 22.8811 14.2852Z" fill="#EBA707"/>
</svg>
