<svg width="115" height="111" viewBox="0 0 115 111" fill="none" xmlns="http://www.w3.org/2000/svg">
<path d="M3.61393 10.3492H18.7963C23.3922 10.3492 23.8651 14.3084 24.0438 15.8161C24.0648 15.9918 24.0483 15.8801 24.0378 15.8161H24.0363L24.0543 15.9546H24.0558L26.6277 35.5138C26.6503 35.6894 26.6623 35.8263 26.6623 35.9305C26.6623 36.8578 26.2614 37.6824 25.6338 38.2941C25.0738 38.8404 24.314 39.214 23.5078 39.3182H23.5003C23.3111 39.342 23.1565 39.3554 23.0393 39.3554H3.61393C2.61848 39.3554 1.71463 38.9535 1.06 38.3046C0.405384 37.6556 0 36.7611 0 35.7728V13.9273C0 12.9405 0.405384 12.0445 1.06 11.3955C1.71463 10.7466 2.61848 10.3447 3.61393 10.3447V10.3492ZM18.7963 14.3828H4.06886V35.3248H22.5123L20.035 16.477V16.4695L20.011 16.2894H20.0065C20.011 16.3326 20.0155 16.3624 20.0065 16.2894C19.9434 15.764 19.7798 14.3828 18.7948 14.3828H18.7963ZM24.0393 15.8176C24.0333 15.7819 24.0303 15.7611 24.0378 15.8176H24.0393ZM20.011 16.2894C19.9915 16.148 20.0005 16.2314 20.0065 16.2894H20.011Z" fill="white"/>
<path d="M12.9902 10.3492H106.625C111.221 10.3492 111.694 14.3083 111.872 15.8161C111.893 15.9947 111.877 15.8786 111.866 15.8161H111.865L111.883 15.9545H111.884L114.456 35.5138C114.479 35.6879 114.491 35.8263 114.491 35.9305C114.491 36.8578 114.09 37.6824 113.462 38.2941C112.904 38.8389 112.143 39.214 111.336 39.3181H111.329C111.14 39.342 110.985 39.3554 110.868 39.3554H103.452V35.3218H110.342L107.865 16.474V16.4665L107.841 16.2864H107.838C107.843 16.3296 107.847 16.3609 107.838 16.2864C107.775 15.761 107.611 14.3798 106.628 14.3798H12.9932V10.3462L12.9902 10.3492ZM111.868 15.8176C111.863 15.7834 111.86 15.7655 111.866 15.8176H111.868ZM107.84 16.2894C107.822 16.1555 107.829 16.2329 107.837 16.2894H107.84Z" fill="white"/>
<path d="M20.6934 53.1826H41.7493V57.2162H20.6934V53.1826Z" fill="white"/>
<path d="M20.6934 60.1394H41.7493V64.173H20.6934V60.1394Z" fill="white"/>
<path d="M11.7832 101.787V38.6631H15.8521V101.787H11.7832Z" fill="white"/>
<path d="M18.8008 101.787V38.6631H22.8696V101.787H18.8008Z" fill="white"/>
<path d="M4.76538 106.966H32.899C32.6558 106.45 32.324 105.982 31.9216 105.584C31.0403 104.71 29.8256 104.168 28.4924 104.168H9.17206C7.83879 104.168 6.62414 104.71 5.7428 105.584C5.34042 105.982 5.00861 106.45 4.76538 106.966ZM35.3839 111H0.246094V108.983C0.246094 106.548 1.24904 104.335 2.86608 102.732C4.48311 101.129 6.71573 100.135 9.17206 100.135H28.4924C30.9487 100.135 33.1813 101.129 34.7983 102.732C36.4154 104.335 37.4183 106.548 37.4183 108.983V111H35.3839Z" fill="white"/>
<path d="M24.8376 108.983C24.8376 107.661 24.2911 106.457 23.4097 105.584C22.5284 104.71 21.3137 104.168 19.9805 104.168V100.135C22.4368 100.135 24.6694 101.129 26.2864 102.732C27.9035 104.335 28.9064 106.548 28.9064 108.983H24.8376Z" fill="white"/>
<path d="M31.9296 30.4978C32.1143 31.5948 31.3665 32.6307 30.26 32.8138C29.1534 32.9969 28.1085 32.2557 27.9238 31.1587L26.5905 23.285C26.4058 22.188 27.1536 21.1521 28.2601 20.969C28.3727 20.9512 28.4838 20.9422 28.5934 20.9407V20.9363H103.894C105.017 20.9363 105.929 21.8397 105.929 22.9531C105.929 24.0664 105.017 24.9699 103.894 24.9699H30.9942L31.9296 30.4964V30.4978Z" fill="#EBA707"/>
<path d="M19.9785 35.3247H41.036V39.3583H19.9785V35.3247Z" fill="white"/>
<path d="M9.56099 4.41336L9.51445 10.3432H14.28C13.9572 8.81311 13.2785 7.45121 12.3521 6.38551C11.5729 5.48949 10.618 4.80333 9.56249 4.41485L9.56099 4.41336ZM5.42908 12.36L5.52667 0.00170898H7.54608C10.636 0.00170898 13.4257 1.43505 15.4316 3.74358C17.3699 5.97471 18.574 9.02893 18.574 12.3674V14.3932H5.41406L5.43058 12.36H5.42908Z" fill="white"/>
<path d="M7.54688 0.0119629H87.8805V4.04556H7.54688V0.0119629Z" fill="white"/>
<path d="M87.7981 10.3417H94.6131C94.2903 8.81162 93.6116 7.44973 92.6853 6.38402C91.4346 4.94473 89.732 4.05019 87.8792 4.05019V4.04275L77.9863 4.04721V0.0136163L87.8792 0.00915105V0.00170898C90.9691 0.00170898 93.7588 1.43505 95.7647 3.74358C97.703 5.97471 98.9072 9.02893 98.9072 12.3674V14.3932H87.7981V10.3432V10.3417Z" fill="white"/>
<path d="M39.773 44.7613L39.7835 37.3416H39.776V37.3401C39.776 33.8363 38.6754 30.6764 36.9038 28.4081C35.2462 26.2871 33.0031 24.9699 30.5723 24.9699V20.9363C34.3228 20.9363 37.698 22.8563 40.1153 25.9507C42.417 28.8978 43.8464 32.9314 43.8464 37.3401V37.3416H43.8388L43.8283 44.7613H39.7745H39.773Z" fill="#EBA707"/>
<path d="M39.7656 101.382V38.2583H43.8345V101.382H39.7656Z" fill="#EBA707"/>
<path d="M101.232 44.7613L101.242 37.3416H101.235V37.3401C101.235 33.8363 100.134 30.6764 98.3627 28.4081C96.7052 26.2871 94.4621 24.9699 92.0312 24.9699V20.9363C95.7818 20.9363 99.157 22.8563 101.574 25.9507C103.876 28.8978 105.305 32.9314 105.305 37.3401V37.3416H105.298L105.287 44.7613H101.233H101.232Z" fill="#EBA707"/>
<path d="M101.223 97.1548V38.2583H105.292V97.1548H101.223Z" fill="#EBA707"/>
<path d="M43.8349 96.7976V102.242C43.8349 103.539 44.3709 104.72 45.2358 105.578C46.1006 106.435 47.2912 106.966 48.6005 106.966C49.9097 106.966 51.1003 106.435 51.9651 105.578C52.83 104.72 53.366 103.54 53.366 102.242V94.7808H111.315C112.34 94.7808 113.169 95.132 113.783 95.6455C114.596 96.3257 115.001 97.2992 115.001 98.1803V102.242C115.001 104.652 114.007 106.843 112.408 108.43C110.807 110.016 108.599 111 106.168 111V106.966C107.477 106.966 108.668 106.435 109.533 105.578C110.398 104.72 110.934 103.54 110.934 102.244V98.8159H57.4363V102.244C57.4363 104.655 56.4439 106.844 54.8434 108.431C53.2429 110.018 51.0343 111.001 48.602 111.001C46.1697 111.001 43.9611 110.018 42.3605 108.431C40.76 106.844 39.7676 104.655 39.7676 102.244V96.799H43.8364L43.8349 96.7976Z" fill="#EBA707"/>
<path d="M49.2598 106.967H106.164V111H49.2598V106.967Z" fill="#EBA707"/>
<path fill-rule="evenodd" clip-rule="evenodd" d="M20.6543 15.4633C20.6588 15.5094 20.6633 15.5436 20.6543 15.4633V15.4633ZM3.17773 36.3353H20.6228H23.4004L20.6828 15.6687V15.6597L20.6573 15.4633H20.6528C20.5837 14.8873 20.4036 13.3735 19.3255 13.3735H19.0823V13.3825H4.65363V13.3735H3.17924V36.3353H3.17773Z" fill="#FEFEFE"/>
<path fill-rule="evenodd" clip-rule="evenodd" d="M27.7634 101.787H10.2748C8.11724 101.787 6.15188 103.189 4.72703 105.447C4.07541 106.478 3.5379 107.687 3.14453 109.021H34.8951C34.5017 107.685 33.9642 106.477 33.3126 105.447C31.8863 103.189 29.9224 101.787 27.7634 101.787Z" fill="#FEFEFE"/>
<path fill-rule="evenodd" clip-rule="evenodd" d="M42.8543 38.3223V97.9392V102.693V103.585C42.8543 104.93 43.4114 106.154 44.3077 107.042C45.2041 107.931 46.4397 108.483 47.7955 108.483C49.1528 108.483 48.785 107.931 49.6813 107.042C50.5777 106.154 50.7623 102.806 50.7623 101.461L50.6843 91.8769H102.368V37.2343H102.386L102.387 36.2832H102.38V36.2817C102.38 32.6485 101.239 29.3725 99.4009 27.0193C97.6818 24.8195 95.3546 23.4546 92.8337 23.4546H38.1309C38.4311 23.7776 38.7194 24.1169 38.9957 24.4712C41.3829 27.5269 42.8648 31.7093 42.8648 36.2817V36.2832H42.8573L42.8543 38.3223Z" fill="#EBA707"/>
</svg>
