<svg width="159" height="103" viewBox="0 0 159 103" fill="none" xmlns="http://www.w3.org/2000/svg">
<path fill-rule="evenodd" clip-rule="evenodd" d="M104.406 50.1916C107.978 52.9253 112.135 53.9118 117.558 53.0137C119.508 52.6907 119.157 52.6112 120.438 52.3128C119.862 49.8402 115.33 45.0028 113.319 42.9886C110.713 40.3795 108.338 38.6421 105.462 36.5209C103.705 35.2252 105.198 33.7459 105.957 33.7459C107.742 33.7459 113.351 38.9641 115.191 40.7898C117.908 43.4843 120.312 47.0161 122.46 49.9648C125.498 54.1356 125.157 56.9459 125.157 62.0856H108.548L112.178 72.5092H146.798C147.922 72.5092 148.75 71.987 148.75 70.8807V63.5511C148.75 62.7462 148.091 62.0856 147.286 62.0856H128.087C128.087 53.6753 135.512 48.515 141.926 44.6671C142.717 44.193 146.132 42.2063 147.06 42.3133C148.131 42.4369 149.402 44.2431 146.66 45.3327C143.741 46.4929 138.826 49.9472 136.507 52.2716C135.43 53.3513 134.174 54.7 133.456 56.0586C134.502 56.302 135.504 56.7408 136.579 57.0048C140.544 57.9825 145.66 57.7342 149.048 55.5393C152.442 53.3405 154.819 50.5106 156.533 46.9071C156.686 46.5852 156.748 46.4055 156.887 46.1219C157.644 44.5847 159.003 41.1579 159.003 39.1191C159.003 38.0777 157.047 37.6252 156.339 37.3886C151.028 35.6158 142.296 34.3898 136.979 37.1059C132.697 39.2939 130.071 44.2009 129.876 49.0519C129.801 50.9307 129.278 50.7108 128.435 51.8436C128.131 52.2519 127.788 52.8674 127.437 53.1256C126.799 51.7935 126.633 50.8581 125.609 49.2463C124.848 48.0478 125.529 48.568 126.333 45.1795C127.097 41.9589 126.671 38.169 125.535 35.4863C123.243 30.0747 117.404 26.7412 111.492 26.7412C107.033 26.7412 105.25 26.8345 100.902 27.7051C99.3774 28.0104 98.1958 28.2715 96.9102 28.6534L104.409 50.1916H104.406Z" fill="white"/>
<path fill-rule="evenodd" clip-rule="evenodd" d="M119.832 94.496H139.963C141.553 94.496 141.534 92.4219 141.979 90.4882C142.382 88.738 142.725 87.0948 143.07 85.3907L145.169 75.2773H113.141L119.832 94.496Z" fill="#EBA707"/>
<path d="M83.7393 5.32124L115.197 95.6665C115.981 97.8005 115.908 99.5654 114.976 100.939C114.046 102.312 112.404 102.999 110.052 102.999H98.488C94.7636 102.999 92.3139 101.233 91.1381 97.7023L86.1889 81.8112H48.655L43.6322 97.7023C42.4074 101.234 39.9323 102.999 36.1598 102.999H24.1303C21.6807 102.999 19.9901 102.287 19.034 100.84C18.0788 99.4182 18.0053 97.5786 18.7888 95.3229L50.2466 4.97768C51.4469 1.66676 53.9466 -0.000976562 57.7681 -0.000976562H76.1923C80.0138 -0.000976562 82.538 1.76492 83.7383 5.32026L83.7393 5.32124ZM54.5359 63.2708H80.408L67.4725 22.0712L54.5369 63.2708H54.5359Z" fill="white"/>
<path fill-rule="evenodd" clip-rule="evenodd" d="M13.9853 95.3239L45.4431 4.97866C46.6719 1.44884 46.2021 0.679265 43.7731 0H39.5142C35.6927 0 33.193 1.66773 31.9927 4.97866L0.5349 95.3239C-0.248628 97.5796 -0.17508 99.4191 0.780059 100.841C1.7352 102.288 3.42581 103 5.87642 103C11.1071 103 12.4379 99.7676 13.9853 95.3239Z" fill="#EBA707"/>
</svg>
