<svg width="200" height="262" viewBox="0 0 200 262" fill="none" xmlns="http://www.w3.org/2000/svg">
<g clip-path="url(#clip0_1_1014)">
<path fill-rule="evenodd" clip-rule="evenodd" d="M24.7362 245.514C24.793 242.187 25.4691 238.337 25.7759 234.873C26.3895 227.912 27.4803 220.269 27.9859 213.591C28.2189 210.514 27.5996 210.957 29.9915 209.73C35.224 207.056 42.3995 201.599 47.9388 198.272C52.5407 195.512 57.9266 191.963 65.2612 192.582C68.8802 192.883 72.1924 193.184 75.4478 194.217C78.7373 195.262 80.9928 196.21 83.9528 197.477C96.1108 202.667 99.2071 202.865 111.377 205.125C118.069 206.369 129.972 207.47 136.215 209.696C141.624 211.621 141.346 217.691 135.272 218.787C116.848 222.114 108.445 218.946 91.5146 218.764C89.2819 218.742 88.1456 218.753 87.1116 220.195C86.0208 221.723 86.6684 223.585 87.6513 224.533C88.8273 225.669 90.7249 225.334 92.6907 225.362C94.5541 225.385 96.4119 225.578 98.2697 225.697C110.865 226.515 118.274 227.503 131.716 226.208C145.112 224.92 149.339 225.414 162.884 222.268C166.094 221.524 168.894 220.508 172.161 219.764C175.462 219.014 179.064 218.429 182.66 218.48C185.393 218.52 190.58 219.253 191.614 221.064C191.279 222.234 189.591 224.261 188.864 224.919C185.74 227.77 179.899 230.058 175.865 231.711C169.673 234.243 162.719 236.583 156.174 238.479C149.385 240.444 142.692 242.664 135.909 244.674C129.068 246.695 122.739 249.023 115.967 250.994C100.809 255.394 85.4015 256.53 68.9143 254.054C61.2218 252.896 54.4553 250.846 47.1889 249.313C38.8032 247.547 33.2809 246.525 24.7249 245.514H24.7362ZM11.0044 206.988C11.9589 206.988 19.856 210.15 21.5376 210.701C21.5888 212.132 18.7879 238.229 18.3277 242.346C18.2425 243.124 18.1288 243.839 18.055 244.589C17.8902 246.207 18.0663 246.003 17.538 246.48C17.1346 246.866 8.02174 248.649 6.79457 248.734L11.0044 206.982V206.988ZM127.188 200.696C129.216 198.959 137.3 195.455 140.135 194.433C143.897 193.076 153.583 190.958 156.503 193.343C154.151 195.989 148.186 197.176 145.919 199.237C144.118 200.872 144.919 203.638 146.817 204.592C148.669 205.523 151.044 203.865 152.708 203.075C159.327 199.947 170.184 195.802 179.075 196.273C179.024 196.926 178.507 197.25 178.07 197.675C177.604 198.13 177.337 198.414 176.848 198.811C174.746 200.492 162.162 202.633 159.628 205.494C157.589 207.8 160.185 211.031 162.384 210.769C163.758 210.605 167.815 208.816 169.468 208.277C171.985 207.453 174.269 206.715 176.848 206.062C181.984 204.773 188.762 203.66 193.273 205.932C193.068 207.147 190.086 208.708 188.961 209.356C182.194 213.262 182.836 211.297 176.888 212.2C174.587 212.552 172.815 212.842 170.599 213.342C163.429 214.954 153.776 218.327 145.76 218.514C145.896 217.345 147.447 214.068 145.93 210.378C142.147 201.19 128.591 201.94 127.182 200.702L127.188 200.696ZM187.16 197.948C187.762 196.563 188.313 196.858 188.143 194.428C187.756 188.766 175.36 189.505 171.474 190.101L164.236 191.486C163.753 191.287 161.781 186.086 152.879 185.825C141.334 185.484 130.614 190.476 121.393 196.466C119.313 197.817 117.677 199.339 116.024 199.152C106.735 198.096 96.9005 195.734 88.8842 192.361C79.5611 188.437 72.9026 185.382 61.5285 185.984C49.683 186.609 37.6499 197.982 28.0541 203.274C24.8669 205.034 25.81 205.199 22.1001 203.87C19.2765 202.854 11.8225 199.578 9.2489 199.969C7.55019 200.225 5.52195 201.974 4.82314 203.973C4.40841 205.154 1.13596 238.417 0.772353 242.034C0.215583 247.564 -1.52859 252.413 3.24373 255.037C5.414 256.229 7.67517 255.423 10.1352 254.912C13.2656 254.253 21.5319 252.317 24.2874 252.294C28.9859 252.254 34.4059 253.594 38.9566 254.418C43.4676 255.23 48.4217 256.36 52.7566 257.461C62.0853 259.835 71.8458 261.709 82.1291 261.964C105.854 262.549 117.279 257.41 138.55 250.841C147.135 248.189 155.719 245.503 164.315 242.891C172.53 240.393 181.609 236.98 188.438 233.312C192.08 231.353 195.085 228.605 197.062 225.084C197.903 223.585 199.062 220.354 198.068 218.219C197.165 216.289 194.767 215.312 193.682 214.216C194.21 213.637 196.159 213.16 198.432 210.185C201.585 206.068 199.795 201.48 194.699 199.237C192.069 198.079 190.148 198.164 187.16 197.948Z" fill="#C4C4C4"/>
<path fill-rule="evenodd" clip-rule="evenodd" d="M125.194 112.628C134.909 111.367 146.845 115.876 154.117 121.878C156.038 123.462 158.998 126.318 160.435 128.294C162.69 131.383 165.037 134.887 166.497 139.088C169.855 148.736 170.15 158.235 166.593 167.786C165.116 171.749 164.202 173.067 162.259 176.383C160.531 179.324 163.02 181.175 164.139 181.402C167.446 182.072 168.548 178.938 170.474 175.401C174.593 167.831 176.644 157.105 175.303 146.93C171.854 120.776 145.521 100.108 116.16 107.404C111.485 108.568 107.905 110.334 104.11 112.401C102.036 113.531 98.3493 116.262 96.6222 117.846C95.7359 118.658 95.1677 119.056 94.4348 119.765L90.4693 124.427C77.6522 140.883 76.9875 165.009 89.6171 181.658C91.5885 184.259 97.6618 192.98 101.218 189.437C104.218 186.45 100.349 183.906 98.3038 181.8C96.9005 180.358 95.8552 178.836 94.5201 177.155C93.327 175.656 92.2759 173.691 91.3612 171.88C84.8334 158.939 85.7481 144.369 93.4122 131.69C94.5257 129.85 95.6961 128.419 96.9858 126.841L101.218 122.633C102.042 121.991 102.73 121.355 103.576 120.685C109.78 115.779 117.149 113.695 125.199 112.651L125.194 112.628Z" fill="#C4C4C4"/>
<path fill-rule="evenodd" clip-rule="evenodd" d="M131.437 169.427V158.383C137.703 159.967 137.505 168.326 131.437 169.427ZM124.812 148.605C123.744 148.605 122.068 147.458 121.495 146.839C118.762 143.921 120.608 137.845 124.812 137.777V148.605ZM116.813 173.073C120.455 176.491 123.352 175.702 124.704 176.133C125.034 177.15 124.267 179.722 126.466 181.056C126.926 181.334 127.522 181.448 128.17 181.431C132.181 181.329 131.278 177.042 131.425 176.133C132.09 175.849 133.215 175.821 134.005 175.565C143.146 172.618 145.35 161.745 139.135 155.459C136.578 152.875 133.988 152.597 131.545 151.28C131.113 149.519 131.414 139.991 131.471 137.544C136.476 137.504 135.76 142.308 136.698 143.586C137.345 144.472 138.874 145.533 140.351 144.892C144.816 142.961 141.976 136.443 139.271 133.967C136.289 131.236 134.38 131.389 131.352 130.923C131.386 129.299 131.721 128.499 130.823 127.13C129.164 124.604 126.238 125.433 125.261 127.261C124.494 128.697 124.96 129.424 124.835 130.923C120.529 131.809 119.324 132.525 116.813 134.881C112.598 138.833 112.064 146.743 117.171 151.751C119.199 153.744 121.608 154.687 124.801 155.839L124.75 169.456C123.937 169.569 122.989 169.399 122.369 169.075C119.767 167.729 120.495 165.152 119.597 163.618C118.148 161.143 113.62 161.818 113.467 165.43C113.336 168.502 115.421 171.772 116.807 173.073H116.813Z" fill="#C4C4C4"/>
<path fill-rule="evenodd" clip-rule="evenodd" d="M161.418 82.3689C160.924 86.6162 159.31 89.3588 156.981 91.3745C148.231 98.9606 133.602 92.408 134.795 79.9841C135.187 75.9241 137.272 73.0226 139.357 71.2112C148.743 63.0857 162.725 71.0409 161.412 82.3689H161.418ZM144.817 61.5185C134.92 63.4151 126.5 72.4604 128.398 84.697C130.597 98.9039 149.373 108.12 162.764 95.0143C163.185 94.5998 163.457 94.1512 163.889 93.5834C175.775 77.8604 160.975 58.4296 144.817 61.5242V61.5185Z" fill="#C4C4C4"/>
<path fill-rule="evenodd" clip-rule="evenodd" d="M120.45 39.7479C125.188 38.8507 128.915 42.5018 129.489 46.363C131.057 56.9585 115.252 58.9288 113.723 48.6343C113.388 46.363 114.365 43.8589 115.439 42.604C116.621 41.2242 118.035 40.2021 120.45 39.7422V39.7479ZM119.78 33.1327C107.156 34.8646 102.616 50.3207 112.388 58.7812C116.632 62.455 123.296 63.4544 128.932 60.1951C133.693 57.4412 137.022 51.7005 136.13 45.6021C135.096 38.5384 128.392 31.9517 119.785 33.1271L119.78 33.1327Z" fill="#C4C4C4"/>
<path fill-rule="evenodd" clip-rule="evenodd" d="M102.269 68.5705C101.065 68.8374 99.9343 69.9333 99.5877 70.8418C99.2184 71.8071 99.4003 74.2998 99.4003 75.5149L99.3946 95.2978C99.3889 96.8877 99.1446 98.4378 99.9172 99.6359C100.406 100.397 101.69 101.572 103.201 101.288C106.519 100.669 106.053 97.6713 106.03 94.3155L106.013 74.5326C106.03 73.0336 106.172 71.2279 105.53 70.132C105.048 69.3087 103.678 68.2525 102.269 68.5648V68.5705Z" fill="#C4C4C4"/>
<path fill-rule="evenodd" clip-rule="evenodd" d="M121.308 5.19038L121.377 17.0862C122.03 20.1468 126.842 20.7089 127.706 17.2679C127.899 16.507 128.012 4.509 127.796 2.8396C127.387 -0.283412 123.871 -0.754703 122.087 1.06232C121.144 2.02194 121.303 3.58913 121.308 5.19038Z" fill="#C4C4C4"/>
<path fill-rule="evenodd" clip-rule="evenodd" d="M150.067 23.6903C148.323 24.065 147.238 25.354 147.152 27.313L147.181 40.4523C147.561 43.9671 153.555 45.1141 153.646 39.6687L153.612 26.5521C153.447 24.9168 151.834 23.3098 150.067 23.6903Z" fill="#C4C4C4"/>
<path fill-rule="evenodd" clip-rule="evenodd" d="M171.889 42.922C170.122 43.3592 169.151 44.6311 169.105 46.7093L169.157 59.6443C169.441 62.8866 175.616 64.3856 175.639 58.4689L175.577 45.5567C175.366 44.0235 173.724 42.4677 171.889 42.9163V42.922Z" fill="#C4C4C4"/>
</g>
<defs>
<clipPath id="clip0_1_1014">
<rect width="200" height="262" fill="white"/>
</clipPath>
</defs>
</svg>
