<svg width="48" height="49" viewBox="0 0 48 49" fill="none" xmlns="http://www.w3.org/2000/svg">
<path d="M35.6268 22.0084L40.6139 13.2881H31.3231C30.8738 13.2881 30.5095 12.9163 30.5095 12.4576C30.5095 11.9989 30.8738 11.6271 31.3231 11.6271H41.0858V9.13556C41.0858 8.67689 40.7216 8.30505 40.2722 8.30505H24.0011C23.5517 8.30505 23.1875 8.67689 23.1875 9.13556V11.6271H27.2553C27.7046 11.6271 28.0689 11.9989 28.0689 12.4576C28.0689 12.9163 27.7046 13.2881 27.2553 13.2881H23.6594L28.6465 22.0084C28.7909 22.2639 29.0572 22.4219 29.3461 22.4237H34.9272C35.2161 22.4219 35.4824 22.2639 35.6268 22.0084Z" fill="white"/>
<path d="M45.155 0.830508C45.155 0.371831 44.7907 0 44.3414 0H42.7143V2.49152C42.7143 2.9502 42.3501 3.32203 41.9008 3.32203C41.4514 3.32203 41.0872 2.9502 41.0872 2.49152V0H39.4601V2.49152C39.4601 2.9502 39.0958 3.32203 38.6465 3.32203C38.1972 3.32203 37.833 2.9502 37.833 2.49152V0H36.2058V2.49152C36.2058 2.9502 35.8416 3.32203 35.3923 3.32203C34.943 3.32203 34.5787 2.9502 34.5787 2.49152V0H32.9516V2.49152C32.9516 2.9502 32.5874 3.32203 32.138 3.32203C31.6887 3.32203 31.3245 2.9502 31.3245 2.49152V0H29.6974V2.49152C29.6974 2.9502 29.3331 3.32203 28.8838 3.32203C28.4345 3.32203 28.0702 2.9502 28.0702 2.49152V0H26.4431V2.49152C26.4431 2.9502 26.0789 3.32203 25.6296 3.32203C25.1803 3.32203 24.816 2.9502 24.816 2.49152V0H23.1889V2.49152C23.1889 2.9502 22.8246 3.32203 22.3753 3.32203C21.926 3.32203 21.5618 2.9502 21.5618 2.49152V0H19.9347C19.4853 0 19.1211 0.371831 19.1211 0.830508V5.81356C19.1211 6.27223 19.4853 6.64407 19.9347 6.64407H44.3414C44.7907 6.64407 45.155 6.27223 45.155 5.81356V0.830508Z" fill="white"/>
<path d="M29.6953 39.0339L32.136 40.695L34.5767 39.0339V35.878C29.6953 39.1917 30.037 39.0339 29.6953 39.0339Z" fill="white"/>
<path d="M34.5767 31.7254C29.6953 35.0474 30.037 34.8813 29.6953 34.8813V37.2068C34.5116 33.9262 34.2024 34.0508 34.5767 34.0508V31.7254Z" fill="white"/>
<path d="M34.5767 27.5729C29.6953 30.8949 30.037 30.7288 29.6953 30.7288V33.0543C34.5034 29.7821 34.2024 29.8983 34.5767 29.8983V27.5729Z" fill="white"/>
<path d="M34.5767 24.0847H29.6953V28.9017C34.5197 25.6212 34.2024 25.7457 34.5767 25.7457V24.0847Z" fill="white"/>
<path d="M25.8649 37.9625C26.184 38.2882 26.7012 38.2882 27.0202 37.9625C27.3392 37.6369 27.3392 37.1089 27.0202 36.7832L20.5117 30.1391C20.3054 29.9285 20.0046 29.8462 19.7227 29.9233C19.4408 30.0004 19.2206 30.2252 19.145 30.513C19.0695 30.8007 19.1501 31.1078 19.3565 31.3185L25.8649 37.9625Z" fill="white"/>
<path d="M38.4101 37.9625L44.9186 31.3185C45.125 31.1078 45.2056 30.8007 45.13 30.513C45.0545 30.2252 44.8343 30.0004 44.5524 29.9233C44.2705 29.8462 43.9697 29.9285 43.7633 30.1391L37.2549 36.7832C36.9359 37.1089 36.9359 37.6369 37.2549 37.9625C37.5739 38.2882 38.0911 38.2882 38.4101 37.9625Z" fill="white"/>
<path d="M17.4932 29.0678C17.9426 29.0678 18.3068 28.696 18.3068 28.2373C18.3068 27.7786 17.9426 27.4068 17.4932 27.4068C17.0439 27.4068 16.6797 27.7786 16.6797 28.2373C16.6797 28.696 17.0439 29.0678 17.4932 29.0678Z" fill="white"/>
<path d="M46.7823 29.0678C47.2316 29.0678 47.5959 28.696 47.5959 28.2373C47.5959 27.7786 47.2316 27.4068 46.7823 27.4068C46.333 27.4068 45.9688 27.7786 45.9688 28.2373C45.9688 28.696 46.333 29.0678 46.7823 29.0678Z" fill="white"/>
<path d="M26.9472 32.2071C27.2962 31.9219 27.3543 31.4026 27.0774 31.0444L23.8231 26.8918C23.6531 26.6307 23.3535 26.4896 23.0485 26.527C22.7435 26.5645 22.4852 26.7741 22.3806 27.0689C22.2761 27.3638 22.3431 27.6936 22.554 27.9217L25.8082 32.0742C26.0877 32.4304 26.5963 32.4898 26.9472 32.2071Z" fill="white"/>
<path d="M40.4526 26.8919L37.1983 31.0444C36.9214 31.4026 36.9796 31.9219 37.3285 32.2071C37.6794 32.4898 38.1881 32.4304 38.4675 32.0742L41.7217 27.9217C42.0005 27.5656 41.946 27.0467 41.5997 26.759C41.4306 26.6206 41.2144 26.5568 40.999 26.5817C40.7837 26.6067 40.587 26.7183 40.4526 26.8919Z" fill="white"/>
<path d="M4.41016 11.8015C6.46713 12.8761 7.31986 15.4215 6.33829 17.5569C4.6861 21.2584 6.15375 25.6328 9.68202 27.523C11.7355 28.6007 12.5872 31.1428 11.6102 33.2785C11.2574 34.1224 11.6417 35.0985 12.4685 35.4585C13.2952 35.8186 14.2513 35.4263 14.6041 34.5824C16.2562 30.8809 14.7886 26.5065 11.2603 24.6163C9.21942 23.5268 8.38041 20.9903 9.3566 18.8608C11.0013 15.161 9.53956 10.7937 6.021 8.89474C3.95172 7.83195 3.08354 5.28347 4.06032 3.13931C4.41612 2.30889 4.05409 1.34061 3.24677 0.963379C2.84431 0.776009 2.38447 0.763978 1.97314 0.930057C1.56181 1.09614 1.23445 1.42601 1.06643 1.84372C-0.576215 5.54326 0.889657 9.9087 4.41016 11.8015Z" fill="white"/>
<path d="M19.8201 15.1651C19.605 14.6132 19.1179 14.2204 18.5421 14.1346C17.9664 14.0488 17.3896 14.2831 17.0289 14.7492C16.6683 15.2153 16.5786 15.8424 16.7937 16.3942C17.8513 19.0768 16.7123 20.1066 16.5578 20.2395C15.8843 20.7811 15.7381 21.7633 16.2235 22.4847C16.709 23.2061 17.6595 23.4192 18.3964 22.9719C18.5428 22.8805 21.911 20.5053 19.8201 15.1651Z" fill="white"/>
<path d="M6.43474 34.2418C7.01606 34.3145 7.59121 34.0651 7.94353 33.5875C8.29586 33.11 8.37184 32.4768 8.14285 31.9265C7.91387 31.3763 7.4147 30.9925 6.83339 30.9198C4.01847 30.5959 3.66051 29.0678 3.66051 28.8851C3.57289 27.9677 2.77338 27.2965 1.87475 27.386C0.976112 27.4754 0.318654 28.2916 0.406271 29.209C0.406271 29.3834 0.845593 33.5442 6.43474 34.2418Z" fill="white"/>
<path d="M47.5927 38.2034H40.6774C40.0394 38.2203 39.4699 38.6165 39.2212 39.2166C37.952 41.9407 31.6225 44.017 23.9995 44.017C16.3764 44.017 10.0469 41.9407 8.77778 39.2166C8.52905 38.6165 7.95959 38.2203 7.32151 38.2034H0.40625V49H47.5927V38.2034ZM4.47405 46.5085H3.66049C3.21117 46.5085 2.84693 46.1366 2.84693 45.678C2.84693 45.2193 3.21117 44.8475 3.66049 44.8475H4.47405C4.92336 44.8475 5.28761 45.2193 5.28761 45.678C5.28761 46.1366 4.92336 46.5085 4.47405 46.5085ZM13.4232 46.5085H7.72828C7.27897 46.5085 6.91473 46.1366 6.91473 45.678C6.91473 45.2193 7.27897 44.8475 7.72828 44.8475H13.4232C13.8725 44.8475 14.2368 45.2193 14.2368 45.678C14.2368 46.1366 13.8725 46.5085 13.4232 46.5085Z" fill="white"/>
</svg>
