<svg width="69" height="50" viewBox="0 0 69 50" fill="none" xmlns="http://www.w3.org/2000/svg">
<path fill-rule="evenodd" clip-rule="evenodd" d="M0.0252655 34.3952V23.5192C0.0252655 19.0891 3.68876 15.4803 8.18601 15.4803H15.5383C16.8521 6.74465 24.5328 0 33.7294 0H35.2959C44.5178 0 52.1985 6.76954 53.487 15.4803H60.8393C65.3365 15.4803 69 19.0891 69 23.5192V34.3952C69 38.452 66.0692 41.1399 62.3047 42.2101L36.0033 49.776C35.5485 49.9253 35.0179 50 34.5126 50C34.0073 50 33.502 49.9253 33.022 49.776L6.69535 42.2101C2.93079 41.1399 0 38.4271 0 34.3952H0.0252655ZM34.4368 13.2902C34.26 13.0911 34.1842 12.8422 34.2347 12.5933C34.1084 12.5187 33.9063 12.444 33.8305 12.4191C33.4767 12.2947 33.0725 12.22 32.6935 12.1453C31.5566 11.8965 30.0406 11.5729 30.1164 10.1045C30.167 9.25834 30.9502 8.53658 31.506 7.98905C32.1124 7.39174 33.0725 6.47088 33.0978 5.5998C33.123 5.15182 33.0725 4.05674 32.7188 3.70831C32.3903 3.43454 32.3145 2.93678 32.5925 2.58835C32.8704 2.23992 33.3504 2.16526 33.7294 2.41414C34.639 3.03634 34.7906 4.67894 34.7653 5.64958C34.7148 7.09308 33.6536 8.16327 32.6935 9.1339C32.5167 9.30811 31.8092 9.98009 31.7587 10.1792C31.885 10.3285 32.8451 10.5027 33.022 10.5525C33.4768 10.6521 33.9063 10.7516 34.3358 10.8761C34.9674 11.0752 35.6243 11.4485 35.8517 12.0956C35.978 12.444 35.9275 12.892 35.7254 13.2155C35.7001 13.2653 35.6748 13.2902 35.6243 13.3151H42.5723C42.825 13.3151 43.0524 13.4146 43.204 13.6137C43.2545 13.6884 43.305 13.7631 43.3303 13.8377C43.4313 13.788 43.5324 13.7382 43.6587 13.7382C43.8356 13.7133 44.0125 13.7133 44.1893 13.7133C44.5683 13.7133 44.9473 13.7631 45.2757 13.9373C45.5284 14.0617 45.7305 14.2608 45.8568 14.4848C46.1095 14.9328 46.059 15.4555 45.8568 15.9283C45.7558 16.1772 45.6042 16.4261 45.4273 16.6252C44.5936 17.6954 43.0271 18.5913 41.6375 18.5913C41.5617 18.5913 41.4859 18.5913 41.3848 18.5913C39.6921 20.6322 37.1402 21.8268 34.4621 21.8268C34.3863 21.8268 34.2852 21.8268 34.2094 21.8268C29.7375 21.7023 26.2508 18.666 25.6445 14.2857C25.5687 13.8377 25.8971 13.4395 26.3519 13.3649C26.8067 13.2902 27.2109 13.6137 27.2867 14.0617C27.792 17.6456 30.5965 20.1095 34.2852 20.2091C36.6855 20.2837 38.9846 19.2135 40.3742 17.2972C40.3995 17.2723 40.3995 17.2474 40.4248 17.2225C40.9048 16.5505 41.2585 15.779 41.5112 14.9826H29.2069C28.7521 14.9826 28.3731 14.6093 28.3731 14.1613C28.3731 13.7133 28.7521 13.34 29.2069 13.34H34.4368V13.2902ZM42.5723 16.7247C43.1787 16.4759 43.7851 16.0528 44.1388 15.5799C44.2146 15.5052 44.2651 15.4057 44.3409 15.3061C44.2904 15.3061 44.2398 15.3061 44.164 15.3061C44.063 15.3061 43.9619 15.3061 43.8609 15.331C43.6082 15.3559 43.3556 15.2812 43.204 15.107C43.0524 15.6794 42.8502 16.2021 42.5976 16.7496L42.5723 16.7247ZM18.5701 32.2051C19.126 32.2051 19.606 32.0309 19.9597 31.5829C20.0355 31.4833 20.1366 31.4335 20.2882 31.4335C20.4145 31.4335 20.5156 31.4833 20.5914 31.5829L21.1725 32.3793C21.2735 32.5286 21.2735 32.7526 21.1219 32.8771C20.3892 33.5988 19.4797 33.8975 18.4438 33.8975C17.3321 33.8975 16.3973 33.4993 15.7151 32.6531C14.9824 31.7571 14.755 30.6371 14.755 29.5172C14.755 28.3723 15.0582 27.3021 15.7909 26.3813C16.4984 25.5351 17.4079 25.0871 18.5449 25.0871C19.2776 25.0871 20.1113 25.1867 20.743 25.56C20.9198 25.6595 20.9703 25.8586 20.9198 26.0329L20.5661 26.9288C20.5156 27.0533 20.4398 27.1279 20.3134 27.1528C20.1871 27.1777 20.0861 27.1777 19.985 27.103C19.6313 26.8542 19.0249 26.8044 18.5954 26.8044C18.0143 26.8044 17.5848 27.0533 17.2563 27.5261C16.8268 28.1234 16.7005 28.8452 16.7005 29.5669C16.7005 30.2389 16.8268 30.9358 17.2563 31.4833C17.61 31.9313 18.0395 32.1553 18.5954 32.1553L18.5701 32.2051ZM35.119 9.35789C34.8664 9.35789 34.639 9.25834 34.4874 9.08412C34.1842 8.73569 34.2347 8.23793 34.5884 7.93927C34.8916 7.6655 35.2201 7.24241 35.3969 6.86909C35.5738 6.52066 35.7001 6.14734 35.7254 5.74913C35.7759 5.25137 35.6748 4.80338 35.4727 4.33051C35.2959 3.90742 35.498 3.43454 35.9022 3.26033C36.3317 3.08611 36.8118 3.28522 36.9887 3.68342C37.2918 4.38029 37.4182 5.10204 37.3424 5.87357C37.2918 6.47088 37.0897 7.06819 36.8118 7.59084C36.5339 8.11349 36.0791 8.76058 35.6243 9.1339C35.4727 9.25834 35.2959 9.333 35.0937 9.333L35.119 9.35789ZM43.0524 21.2544C42.9513 20.8561 42.3197 20.5824 41.9912 20.4828C41.5617 20.3833 41.2838 19.9353 41.3848 19.4873C41.4859 19.0642 41.9407 18.7904 42.3955 18.89C43.5829 19.1887 44.7452 20.0846 44.7199 21.4037C44.6946 22.0508 44.2146 22.4739 43.684 22.7725C41.6628 23.8427 36.8371 24.0169 34.5379 24.0169C32.1629 24.0169 27.2614 23.8178 25.2149 22.5734C24.6338 22.225 24.1538 21.6775 24.1791 20.9806C24.2043 19.786 25.2149 18.9149 26.3519 18.7407C26.8067 18.666 27.2362 18.9647 27.2867 19.4126C27.3625 19.8606 27.0593 20.2588 26.6045 20.3335C26.2508 20.3833 25.8213 20.6322 25.796 21.0055C25.8213 21.0553 25.9982 21.1548 26.0487 21.2046C27.7415 22.225 32.5167 22.3743 34.5126 22.3743C36.4328 22.3743 41.208 22.225 42.8755 21.329C42.9008 21.3041 42.9766 21.2792 43.0271 21.2295L43.0524 21.2544ZM44.4167 27.0284V28.3972H46.6148C46.8422 28.3972 47.019 28.5714 47.019 28.7954V29.6914C47.019 29.9154 46.8422 30.0896 46.6148 30.0896H44.4167V32.1055H47.6002C47.8275 32.1055 48.0044 32.2797 48.0044 32.5037V33.4495C48.0044 33.6735 47.8275 33.8477 47.6002 33.8477H42.9513C42.7239 33.8477 42.5471 33.6735 42.5471 33.4495V25.7093C42.5471 25.4853 42.7239 25.3111 42.9513 25.3111H47.6507C47.8781 25.3111 48.0549 25.4853 48.0549 25.7093V26.6551C48.0549 26.879 47.8781 27.0533 47.6507 27.0533H44.4167V27.0284ZM63.3405 24.1911C63.7953 24.1911 64.1743 24.5645 64.1743 25.0124V31.558C64.1743 32.006 63.7953 32.3793 63.3405 32.3793C62.8858 32.3793 62.5068 32.006 62.5068 31.558V25.0124C62.5068 24.5645 62.8858 24.1911 63.3405 24.1911ZM50.7836 28.4221H52.9817C53.2091 28.4221 53.3859 28.5963 53.3859 28.8203V29.7163C53.3859 29.9403 53.2091 30.1145 52.9817 30.1145H50.7836V32.1304H53.967C54.1944 32.1304 54.3713 32.3046 54.3713 32.5286V33.4744C54.3713 33.6984 54.1944 33.8726 53.967 33.8726H49.3182C49.0908 33.8726 48.914 33.6984 48.914 33.4744V25.7342C48.914 25.5102 49.0908 25.336 49.3182 25.336H54.0176C54.245 25.336 54.4218 25.5102 54.4218 25.7342V26.6799C54.4218 26.9039 54.245 27.0781 54.0176 27.0781H50.7836V28.447V28.4221ZM34.5632 42.0856L58.1359 35.3161C59.0454 35.0672 60.2076 34.5445 60.2076 33.4744V23.6436C60.2076 22.6481 59.3739 21.8268 58.3632 21.8268H46.1095C45.6547 21.8268 45.2757 21.4535 45.2757 21.0055C45.2757 20.5575 45.6547 20.1842 46.1095 20.1842H58.3632C60.2834 20.1842 61.8499 21.7272 61.8499 23.6187V33.4495C61.8499 35.341 60.2834 36.3863 58.5906 36.8591L34.7906 43.7033C34.7148 43.7282 34.639 43.7282 34.5632 43.7282C34.4874 43.7282 34.4116 43.7282 34.3358 43.7033L10.5357 36.8591C8.84292 36.3863 7.27646 35.341 7.27646 33.4495V23.6187C7.27646 21.7272 8.84292 20.1842 10.7631 20.1842H22.7389C23.1937 20.1842 23.5727 20.5575 23.5727 21.0055C23.5727 21.4535 23.1937 21.8268 22.7389 21.8268H10.7631C9.75247 21.8268 8.91871 22.6481 8.91871 23.6436V33.4744C8.91871 34.5694 10.1062 35.0672 10.9905 35.3161L34.5632 42.0856ZM28.5247 36.2618C28.8026 36.3863 29.0553 36.5605 29.2069 36.8342C29.3585 37.0831 29.409 37.3569 29.409 37.6555C29.409 38.0538 29.2322 38.3773 28.9542 38.6262C28.6258 38.8999 28.2215 38.9995 27.8173 38.9995C27.4383 38.9995 27.0846 38.9248 26.7814 38.7008C26.6298 38.6013 26.554 38.4022 26.6298 38.228L26.8067 37.78C26.8572 37.6555 26.933 37.5809 27.0593 37.556C27.1856 37.5311 27.2867 37.5311 27.3878 37.6058C27.4636 37.6555 27.5394 37.6804 27.6152 37.7302C27.691 37.7551 27.792 37.78 27.8678 37.78C27.9436 37.78 28.0194 37.78 28.0699 37.7302C28.0952 37.7053 28.1205 37.6555 28.1205 37.6307C28.1205 37.5809 28.0952 37.5311 28.0952 37.5062C28.0447 37.4564 27.8426 37.3569 27.7668 37.3071L27.4636 37.1827C27.1856 37.0582 26.933 36.884 26.7814 36.6351C26.6298 36.4111 26.5793 36.1374 26.5793 35.8636C26.5793 35.4903 26.7056 35.1667 26.9835 34.9179C27.2614 34.669 27.6152 34.5445 27.9941 34.5445C28.3479 34.5445 28.8026 34.5943 29.0806 34.8183C29.2069 34.9179 29.2574 35.0921 29.2069 35.2414L29.0553 35.6645C29.0048 35.7889 28.929 35.8636 28.8026 35.9134C28.6763 35.9632 28.55 35.9383 28.4489 35.8636C28.3984 35.8387 28.2973 35.7889 28.2468 35.7889C28.171 35.7641 28.0699 35.7392 27.9941 35.7392C27.9689 35.7392 27.8931 35.7392 27.8678 35.7641C27.8426 35.7889 27.8426 35.8138 27.8426 35.8636C27.8426 35.8885 27.8426 35.9134 27.8678 35.9632C27.8678 35.9881 27.8931 35.9881 27.8931 36.0129C27.9689 36.0627 28.1205 36.1374 28.1963 36.1872L28.4995 36.3365L28.5247 36.2618ZM34.5632 44.4749L46.1095 41.1648C46.539 41.0403 46.9938 41.2892 47.1454 41.7123C47.2717 42.1354 47.019 42.5834 46.5895 42.7327L34.8158 46.1175C34.74 46.1424 34.6642 46.1424 34.5884 46.1424C34.5126 46.1424 34.4368 46.1424 34.361 46.1175L28.55 44.45C28.1205 44.3255 27.8678 43.8776 27.9941 43.4296C28.1205 43.0065 28.5752 42.7576 29.03 42.882L34.5884 44.4749H34.5632ZM40.7532 37.5809V38.5515C40.7532 38.7755 40.5763 38.9497 40.349 38.9497H39.8437C39.6163 38.9497 39.4394 38.7755 39.4394 38.5515V34.9676C39.4394 34.7685 39.6163 34.5943 39.8184 34.5943C40.0458 34.5943 40.2732 34.5694 40.5258 34.5694C41.4859 34.5694 42.4965 34.8681 42.4965 35.9881C42.4965 37.0831 41.7891 37.5809 40.7279 37.5809H40.7532ZM38.0245 35.1419C38.4035 35.5898 38.5046 36.1623 38.5046 36.7347C38.5046 37.3071 38.3783 37.9044 38.0245 38.3524C37.6708 38.8004 37.1402 38.9995 36.5591 38.9995C35.978 38.9995 35.498 38.7755 35.1695 38.3026C34.8411 37.8298 34.7148 37.2822 34.7148 36.7347C34.7148 36.1872 34.8411 35.6645 35.1948 35.2165C35.5233 34.7685 36.0033 34.5445 36.5844 34.5445C37.1655 34.5445 37.6708 34.7188 38.0498 35.1667L38.0245 35.1419ZM32.4661 36.0129V34.9676C32.4661 34.7437 32.643 34.5694 32.8704 34.5694H33.3757C33.6031 34.5694 33.7799 34.7437 33.7799 34.9676V38.5515C33.7799 38.7755 33.6031 38.9497 33.3757 38.9497H32.8704C32.643 38.9497 32.4661 38.7755 32.4661 38.5515V37.2076H31.6576V38.5515C31.6576 38.7755 31.4808 38.9497 31.2534 38.9497H30.7481C30.5207 38.9497 30.3438 38.7755 30.3438 38.5515V34.9676C30.3438 34.7437 30.5207 34.5694 30.7481 34.5694H31.2534C31.4808 34.5694 31.6576 34.7437 31.6576 34.9676V36.0129H32.4661ZM5.78579 24.1911C6.24057 24.1911 6.61955 24.5645 6.61955 25.0124V31.2096C6.61955 31.6575 6.24057 32.0309 5.78579 32.0309C5.33101 32.0309 4.95203 31.6575 4.95203 31.2096V25.0124C4.95203 24.5645 5.33101 24.1911 5.78579 24.1911ZM38.1761 27.0284V28.3972H40.5511C40.7785 28.3972 40.9553 28.5714 40.9553 28.7954V29.6914C40.9553 29.9154 40.7785 30.0896 40.5511 30.0896H38.1761V33.4495C38.1761 33.6735 37.9993 33.8477 37.7719 33.8477H36.7107C36.4833 33.8477 36.3065 33.6735 36.3065 33.4495V25.7093C36.3065 25.4853 36.4833 25.3111 36.7107 25.3111H41.5617C41.7891 25.3111 41.966 25.4853 41.966 25.7093V26.6551C41.966 26.879 41.7891 27.0533 41.5617 27.0533H38.1761V27.0284ZM31.9356 27.0284V28.3972H34.3105C34.5379 28.3972 34.7148 28.5714 34.7148 28.7954V29.6914C34.7148 29.9154 34.5379 30.0896 34.3105 30.0896H31.9356V33.4495C31.9356 33.6735 31.7587 33.8477 31.5313 33.8477H30.4702C30.2428 33.8477 30.0659 33.6735 30.0659 33.4495V25.7093C30.0659 25.4853 30.2428 25.3111 30.4702 25.3111H35.3211C35.5485 25.3111 35.7254 25.4853 35.7254 25.7093V26.6551C35.7254 26.879 35.5485 27.0533 35.3211 27.0533H31.9356V27.0284ZM28.1963 26.3564C28.929 27.2275 29.1564 28.3972 29.1564 29.4923C29.1564 30.6371 28.929 31.8069 28.1963 32.7277C27.4888 33.5988 26.5035 33.9472 25.3918 33.9472C24.3054 33.9472 23.3958 33.5241 22.7389 32.6531C22.0568 31.7322 21.8294 30.6122 21.8294 29.4923C21.8294 28.3972 22.082 27.327 22.7642 26.4559C23.4211 25.6098 24.3054 25.1618 25.3918 25.1618C26.5035 25.1618 27.4888 25.4853 28.1963 26.3315V26.3564ZM40.7532 35.7641V36.3614C40.829 36.3614 40.9301 36.3614 41.0059 36.3365C41.0564 36.3116 41.1069 36.3116 41.1575 36.2618C41.2333 36.212 41.2332 36.1125 41.2332 36.0378C41.2332 35.9632 41.2333 35.9134 41.1575 35.8636C41.1069 35.8387 41.0311 35.8138 40.9806 35.7889C40.9048 35.7641 40.829 35.7641 40.7532 35.7641ZM37.0139 37.556C37.1655 37.332 37.216 36.9836 37.216 36.7098C37.216 36.2369 37.1655 35.7143 36.5591 35.7143C36.3823 35.7143 36.2812 35.7641 36.1802 35.9134C36.0286 36.1374 36.0033 36.4609 36.0033 36.7098C36.0033 36.9836 36.0538 37.2822 36.2054 37.5311C36.2812 37.6804 36.3823 37.7551 36.5591 37.7551C36.7613 37.7551 36.8876 37.7053 37.0139 37.5311V37.556ZM26.7309 31.5829C27.1351 31.0105 27.2362 30.1891 27.2362 29.4923C27.2362 28.1732 26.933 26.879 25.3665 26.879C24.836 26.879 24.457 27.0781 24.1791 27.5012C23.8001 28.0737 23.7243 28.8203 23.7243 29.4923C23.7243 30.1891 23.8506 30.9109 24.2043 31.5331C24.4822 31.9811 24.836 32.23 25.3665 32.23C25.9476 32.23 26.4024 32.0557 26.7309 31.5829Z" fill="white"/>
</svg>
