<svg width="22" height="22" viewBox="0 0 22 22" fill="none" xmlns="http://www.w3.org/2000/svg">
<path d="M17.7684 8.46173H16.0767C16.076 7.78869 15.8084 7.14341 15.3327 6.6675C14.8569 6.1916 14.2119 5.92394 13.5391 5.92326V4.23096C14.6603 4.2323 15.7353 4.67847 16.5282 5.4716C17.321 6.26474 17.767 7.34007 17.7684 8.46173V8.46173Z" fill="#EBA707"/>
<path d="M21.1518 8.46158H19.4601C19.4583 6.89123 18.8339 5.38571 17.7239 4.27531C16.6139 3.1649 15.1089 2.54029 13.5391 2.5385V0.846191C15.5574 0.848431 17.4925 1.65148 18.9196 3.07916C20.3468 4.50684 21.1496 6.44254 21.1518 8.46158V8.46158Z" fill="#EBA707"/>
<path d="M19.4624 22H19.3186C2.69732 21.0438 0.337352 7.01462 0.00746432 2.73308C-0.0440944 2.06186 0.172986 1.39765 0.610957 0.886536C1.04893 0.375422 1.67192 0.0592685 2.3429 0.00761623C2.41 0.00253931 2.47739 7.93346e-07 2.54506 7.93346e-07H7.00277C7.34159 -0.000327314 7.6727 0.101124 7.95321 0.291215C8.23372 0.481305 8.45072 0.751275 8.57608 1.06615L9.86179 4.23077C9.98559 4.53839 10.0163 4.87561 9.95014 5.20054C9.88397 5.52547 9.72383 5.8238 9.48961 6.05846L7.68792 7.87769C7.96821 9.47805 8.73373 10.9534 9.88069 12.1038C11.0276 13.2542 12.5005 14.0239 14.0996 14.3085L15.9351 12.4892C16.1732 12.2575 16.4742 12.1011 16.8007 12.0394C17.1271 11.9777 17.4644 12.0135 17.7706 12.1423L20.9595 13.42C21.2696 13.5494 21.5341 13.7681 21.7194 14.0484C21.9047 14.3287 22.0023 14.6578 22 14.9938V19.4615C22 20.1348 21.7326 20.7804 21.2567 21.2565C20.7808 21.7326 20.1354 22 19.4624 22ZM2.54506 1.69231C2.43398 1.69197 2.32392 1.71353 2.22117 1.75575C2.11841 1.79796 2.02498 1.86001 1.9462 1.93835C1.86742 2.01668 1.80483 2.10977 1.76201 2.21231C1.7192 2.31484 1.69699 2.42481 1.69666 2.53592C1.69666 2.55962 1.6975 2.58303 1.69919 2.60615C2.08829 7.61539 4.5836 19.4615 19.4116 20.3077C19.6355 20.3211 19.8555 20.245 20.0234 20.0962C20.1912 19.9474 20.293 19.7379 20.3065 19.514L20.3082 19.4615V14.9938L17.1193 13.7162L14.6917 16.1277L14.2857 16.0769C6.92664 15.1546 5.92852 7.79308 5.92852 7.71692L5.87777 7.31077L8.28002 4.88231L7.01123 1.69231H2.54506Z" fill="#EBA707"/>
</svg>
