<svg width="63" height="49" viewBox="0 0 63 49" fill="none" xmlns="http://www.w3.org/2000/svg">
<path d="M56.7822 4.17465H52.1075V2.93164C52.1075 1.31498 50.6687 0 48.9026 0H13.3125C11.545 0 10.1077 1.31498 10.1077 2.93164V4.17465H5.43343C2.43204 4.17465 0 6.40111 0 9.14567V16.1056C0 18.3146 1.58585 20.1651 3.7651 20.8132V41.022L1.8184 46.4098C1.50528 47.2748 2.01868 48.2079 2.96511 48.4944C3.1528 48.5525 3.34315 48.5782 3.53084 48.5782C4.28748 48.5782 4.99392 48.1387 5.24346 47.4453L7.28887 41.7829H7.37326V41.5498L9.32035 36.1619C9.63347 35.297 9.12007 34.3629 8.17364 34.0773C7.90691 33.9962 7.63541 33.9813 7.37479 34.0128V21.0769H11.7388V40.5383H50.4782V21.0771H53.7555V33.1949C53.2965 32.8707 52.6742 32.7528 52.0841 32.9324C51.1376 33.218 50.6242 34.1518 50.9383 35.017L55.0141 46.3004C55.264 46.9941 55.9687 47.4334 56.7257 47.4334C56.913 47.4334 57.1043 47.4067 57.2916 47.3495C58.2381 47.0639 58.7515 46.1301 58.4385 45.2642L57.1809 41.783H57.3642V21.0237C60.0887 20.7547 62.2162 18.6692 62.2162 16.1056V9.14567C62.2151 6.40024 59.7827 4.17465 56.7822 4.17465ZM12.1698 2.93164C12.1698 2.35537 12.6824 1.88653 13.3125 1.88653H48.9024C49.5329 1.88653 50.0451 2.35537 50.0451 2.93164V4.17465H12.1698V2.93164ZM48.4154 21.0771V38.6517H13.7999V21.0771V17.473C13.7999 16.0535 14.5797 14.0671 15.502 13.1348L17.1644 11.457H45.0486L46.7119 13.1348C47.6362 14.0671 48.4144 16.0535 48.4144 17.473V21.0771H48.4154Z" fill="white"/>
<path d="M44.4218 14.4171H17.7966C17.2267 14.4171 16.7656 14.8394 16.7656 15.3601C16.7656 15.8805 17.2267 16.3034 17.7966 16.3034H44.4218C44.9915 16.3034 45.4526 15.8805 45.4526 15.3601C45.4526 14.8394 44.9915 14.4171 44.4218 14.4171Z" fill="white"/>
</svg>
