<svg width="106" height="105" viewBox="0 0 106 105" fill="none" xmlns="http://www.w3.org/2000/svg">
<path d="M68.6992 70.1592V104.105H84.4028V70.1592H68.6992ZM76.551 86.1336C76.551 87.2359 75.6718 88.1304 74.5881 88.1304C73.5044 88.1304 72.6251 87.2359 72.6251 86.1336V84.1368C72.6251 83.0344 73.5044 82.14 74.5881 82.14C75.6718 82.14 76.551 83.0344 76.551 84.1368V86.1336Z" fill="white"/>
<path d="M84.2686 0.894531H21.7325C20.6488 0.894531 19.7695 1.78895 19.7695 2.89133V20.2396C19.7695 21.342 20.6488 22.2364 21.7325 22.2364H84.2686C85.3523 22.2364 86.2315 21.342 86.2315 20.2396V2.89133C86.2315 1.78895 85.3523 0.894531 84.2686 0.894531V0.894531ZM32.2031 14.1664C32.2031 14.8529 32.0744 15.4498 31.817 15.9678C31.5567 16.4819 31.2093 16.9113 30.7673 17.2579C30.3225 17.6006 29.8086 17.8615 29.218 18.0368C28.6274 18.212 27.9952 18.2977 27.3213 18.2977C26.8661 18.2977 26.4458 18.2601 26.0531 18.1841C25.6641 18.109 25.3195 18.0194 25.0214 17.9126C24.7223 17.8095 24.4725 17.6998 24.2709 17.5833C24.0693 17.4668 23.9264 17.3638 23.8365 17.2781C23.7494 17.1886 23.6869 17.0624 23.6491 16.8978C23.6112 16.7332 23.5932 16.5002 23.5932 16.1911C23.5932 15.9822 23.5998 15.8099 23.614 15.6693C23.6282 15.5287 23.6491 15.4151 23.6803 15.3265C23.7115 15.2409 23.7532 15.1792 23.8024 15.1417C23.8544 15.1041 23.9131 15.0868 23.9832 15.0868C24.0769 15.0868 24.2122 15.1417 24.3863 15.2553C24.5605 15.3651 24.782 15.4883 25.0536 15.6221C25.3243 15.7559 25.6508 15.8792 26.0303 15.9889C26.4051 16.1025 26.8433 16.1574 27.3402 16.1574C27.6668 16.1574 27.9583 16.1199 28.2157 16.0438C28.476 15.9649 28.6956 15.859 28.8763 15.7184C29.0571 15.5778 29.1924 15.4065 29.2899 15.2004C29.3836 14.9944 29.4319 14.7643 29.4319 14.5111C29.4319 14.2155 29.3524 13.9623 29.1887 13.7534C29.0249 13.5406 28.8129 13.3557 28.5489 13.1911C28.2886 13.0265 27.9895 12.8724 27.6563 12.728C27.326 12.5836 26.9825 12.4334 26.6275 12.2717C26.2736 12.1109 25.9291 11.9289 25.5988 11.7229C25.2656 11.5207 24.9665 11.2771 24.7062 10.9921C24.4422 10.7071 24.2302 10.3711 24.0664 9.98025C23.9027 9.59225 23.8232 9.12627 23.8232 8.58422C23.8232 7.96323 23.9415 7.41445 24.1743 6.94076C24.4072 6.47093 24.7233 6.08004 25.1198 5.76714C25.5193 5.4552 25.9849 5.22125 26.5234 5.0672C27.062 4.91316 27.6355 4.8371 28.2394 4.8371C28.5489 4.8371 28.8612 4.86117 29.1735 4.90931C29.4858 4.9536 29.7783 5.01906 30.049 5.09801C30.3197 5.18081 30.5601 5.26939 30.7711 5.36951C30.9794 5.47253 31.1185 5.55437 31.1885 5.62369C31.2548 5.68916 31.2993 5.74692 31.3239 5.79217C31.3485 5.84031 31.3693 5.90193 31.3863 5.98088C31.4034 6.05597 31.4138 6.15225 31.4213 6.2726C31.428 6.38909 31.4318 6.53351 31.4318 6.70874C31.4318 6.90129 31.428 7.06593 31.4176 7.19975C31.4071 7.33358 31.3901 7.44333 31.3655 7.53287C31.3409 7.61856 31.3068 7.68403 31.2652 7.72158C31.2198 7.76298 31.1611 7.78319 31.0844 7.78319C31.0115 7.78319 30.8932 7.73505 30.7304 7.64263C30.5667 7.5502 30.366 7.44719 30.1294 7.33358C29.89 7.22382 29.6155 7.12466 29.3022 7.03512C28.9899 6.94269 28.6492 6.89744 28.2734 6.89744C27.9819 6.89744 27.7283 6.9321 27.5087 7.00431C27.2929 7.07267 27.1131 7.17279 26.9664 7.29603C26.8206 7.41926 26.7089 7.56753 26.6399 7.7418C26.567 7.91702 26.532 8.10187 26.532 8.29443C26.532 8.5823 26.6115 8.83262 26.7714 9.04251C26.9314 9.25528 27.1462 9.44398 27.4141 9.60862C27.6819 9.77036 27.9876 9.92441 28.3283 10.0688C28.6653 10.2132 29.0126 10.3673 29.3675 10.5252C29.7215 10.6869 30.0689 10.8679 30.4058 11.074C30.7465 11.28 31.0484 11.5236 31.3163 11.8086C31.5803 12.0935 31.7961 12.4257 31.9589 12.8137C32.1227 13.1978 32.2022 13.6504 32.2022 14.1722L32.2031 14.1664ZM44.0348 6.14551C44.0348 6.34096 44.0281 6.50559 44.0102 6.64616C43.9931 6.78287 43.9685 6.89359 43.9335 6.97543C43.8985 7.06111 43.8568 7.12273 43.8048 7.16028C43.7565 7.20168 43.6969 7.2219 43.6382 7.2219H40.3445V17.7094C40.3445 17.7749 40.3237 17.8365 40.2783 17.8914C40.2328 17.9424 40.16 17.9877 40.0596 18.0214C39.9593 18.0522 39.8202 18.0801 39.646 18.1003C39.4719 18.1205 39.2571 18.1311 38.9996 18.1311C38.7422 18.1311 38.5273 18.1205 38.3532 18.1003C38.179 18.0801 38.0409 18.0522 37.9396 18.0214C37.8393 17.9867 37.7654 17.9424 37.721 17.8914C37.6755 17.8365 37.6547 17.7749 37.6547 17.7094V7.2219H34.361C34.2948 7.2219 34.2361 7.20168 34.1869 7.16028C34.1415 7.12273 34.0998 7.06111 34.0648 6.97543C34.0336 6.89263 34.0061 6.78287 33.9881 6.64616C33.9711 6.50559 33.9635 6.34096 33.9635 6.14551C33.9635 5.94622 33.9702 5.77484 33.9881 5.63428C34.0052 5.49371 34.0336 5.38011 34.0648 5.29827C34.0998 5.21258 34.1415 5.15385 34.1869 5.1163C34.2352 5.07876 34.2948 5.06143 34.361 5.06143H43.6382C43.6978 5.06143 43.7527 5.07876 43.8048 5.1163C43.8568 5.15385 43.8985 5.21258 43.9335 5.29827C43.9685 5.38107 43.9922 5.49371 44.0102 5.63428C44.0272 5.77484 44.0348 5.94622 44.0348 6.14551ZM58.1275 11.4148C58.1275 12.4921 57.9921 13.4559 57.7215 14.307C57.4508 15.1581 57.0476 15.8811 56.509 16.4713C55.9743 17.0644 55.3108 17.5178 54.5215 17.8298C53.7293 18.1417 52.815 18.2967 51.7768 18.2967C50.7518 18.2967 49.8593 18.1629 49.0983 17.8991C48.3336 17.6353 47.6985 17.2338 47.1874 16.6879C46.6801 16.1459 46.2977 15.4565 46.0441 14.6189C45.7904 13.7823 45.6617 12.7906 45.6617 11.6449C45.6617 10.5955 45.7971 9.64809 46.0687 8.80759C46.3394 7.96708 46.7426 7.25367 47.2811 6.66349C47.8159 6.0733 48.4793 5.6208 49.2687 5.3079C50.0608 4.99211 50.978 4.83421 52.0238 4.83421C53.0214 4.83421 53.8997 4.96419 54.6644 5.2251C55.4254 5.48601 56.0642 5.88749 56.5753 6.43242C57.0892 6.97446 57.4754 7.65707 57.7357 8.4841C57.9959 9.31401 58.1284 10.2883 58.1284 11.4138L58.1275 11.4148ZM55.3137 11.5486C55.3137 10.866 55.2578 10.245 55.1499 9.68564C55.042 9.12627 54.8584 8.64584 54.5972 8.24821C54.3369 7.85059 53.9896 7.54154 53.5552 7.32202C53.1207 7.10636 52.5784 6.99661 51.9292 6.99661C51.2723 6.99661 50.7234 7.11984 50.2861 7.36342C49.8451 7.60701 49.4873 7.93628 49.2157 8.34449C48.945 8.75271 48.7538 9.22928 48.6421 9.77518C48.5314 10.324 48.4755 10.9007 48.4755 11.5111C48.4755 12.2216 48.5314 12.8589 48.6383 13.4251C48.7462 13.9912 48.9298 14.4745 49.1873 14.8798C49.4447 15.2813 49.7883 15.5865 50.2227 15.7993C50.6571 16.0082 51.2023 16.1151 51.8591 16.1151C52.5159 16.1151 53.0649 15.9947 53.5022 15.7511C53.9432 15.5114 54.301 15.1821 54.5726 14.7662C54.8433 14.3513 55.0345 13.867 55.1462 13.3153C55.2578 12.7627 55.3127 12.1735 55.3127 11.5486H55.3137ZM71.4082 17.7306C71.4082 17.8028 71.394 17.8644 71.3665 17.9154C71.3391 17.9665 71.2766 18.0079 71.1753 18.0425C71.0712 18.0733 70.9255 18.0974 70.7267 18.1109C70.5289 18.1244 70.2611 18.1311 69.9241 18.1311C69.6392 18.1311 69.413 18.1244 69.2427 18.1109C69.0723 18.0974 68.937 18.0733 68.8395 18.0358C68.742 17.9982 68.6729 17.954 68.6313 17.8952C68.5934 17.8365 68.5584 17.7681 68.5309 17.6892L67.3431 14.7768C67.2002 14.4475 67.062 14.152 66.9257 13.8987C66.7904 13.6417 66.6371 13.4289 66.4705 13.2575C66.3039 13.0862 66.1089 12.9591 65.8903 12.8695C65.6745 12.7839 65.4209 12.7396 65.136 12.7396H64.2984V17.7104C64.2984 17.7758 64.2776 17.8375 64.2321 17.8885C64.1867 17.9434 64.1138 17.9877 64.0135 18.0223C63.9132 18.0531 63.7769 18.081 63.6065 18.1013C63.4399 18.1215 63.2213 18.1321 62.9601 18.1321C62.7027 18.1321 62.4878 18.1215 62.3137 18.1013C62.1395 18.081 62.0042 18.0531 61.9038 18.0223C61.8026 17.9877 61.7297 17.9434 61.6918 17.8923C61.6502 17.8375 61.6294 17.7758 61.6294 17.7104V5.89519C61.6294 5.60058 61.706 5.38781 61.8584 5.25687C62.0117 5.12689 62.1991 5.06143 62.4216 5.06143H65.8335C66.178 5.06143 66.4658 5.06817 66.6882 5.08164C66.9106 5.09512 67.116 5.11245 67.2996 5.12978C67.8277 5.20488 68.3038 5.33197 68.7278 5.51393C69.1518 5.69204 69.5134 5.92889 69.8086 6.22061C70.1039 6.51233 70.3301 6.85508 70.4863 7.25367C70.6425 7.65129 70.7191 8.10765 70.7191 8.62562C70.7191 9.05791 70.6633 9.45554 70.5526 9.81273C70.438 10.1728 70.2743 10.4924 70.0557 10.7736C69.8399 11.0547 69.573 11.2983 69.2531 11.5043C68.9332 11.7132 68.5688 11.8779 68.1618 12.0088C68.3596 12.1012 68.5442 12.2149 68.7174 12.3487C68.8915 12.4825 69.0543 12.6471 69.2076 12.8397C69.36 13.0322 69.5067 13.2479 69.6421 13.4953C69.7774 13.7389 69.9099 14.0172 70.0377 14.3253L71.1526 16.8949C71.2529 17.1491 71.323 17.3339 71.3542 17.4543C71.3892 17.5708 71.4063 17.6632 71.4063 17.7325L71.4082 17.7306ZM67.9479 8.89713C67.9479 8.46869 67.8504 8.10476 67.6526 7.81304C67.4548 7.51747 67.1311 7.30855 66.6834 7.1882C66.5481 7.15354 66.3948 7.12947 66.2216 7.10925C66.0474 7.08903 65.808 7.07844 65.5023 7.07844H64.3003V10.763H65.666C66.0484 10.763 66.3777 10.7187 66.6636 10.6263C66.9522 10.5367 67.1879 10.4096 67.3791 10.245C67.5703 10.0842 67.7122 9.88493 67.8069 9.65868C67.9006 9.43243 67.9489 9.17826 67.9489 8.89713H67.9479ZM82.4098 17.0307C82.4098 17.2261 82.4031 17.3878 82.3851 17.5217C82.3681 17.6516 82.3435 17.7585 82.3085 17.8375C82.2735 17.9193 82.2318 17.978 82.1798 18.0156C82.1315 18.0531 82.0719 18.0705 82.0132 18.0705H75.405C75.1826 18.0705 74.9952 18.005 74.8419 17.875C74.6895 17.745 74.6129 17.5323 74.6129 17.2367V5.89519C74.6129 5.60058 74.6895 5.38781 74.8419 5.25687C74.9952 5.12689 75.1826 5.06143 75.405 5.06143H81.982C82.0406 5.06143 82.0965 5.07876 82.1457 5.11245C82.1911 5.14711 82.2328 5.20488 82.2668 5.28768C82.2981 5.37337 82.3255 5.48023 82.3435 5.61021C82.3605 5.74403 82.3681 5.90867 82.3681 6.11085C82.3681 6.29956 82.3615 6.45745 82.3435 6.59128C82.3265 6.72125 82.3019 6.82812 82.2668 6.90707C82.2318 6.9889 82.1902 7.04763 82.1457 7.08518C82.0974 7.12273 82.0416 7.14006 81.982 7.14006H77.2809V10.3095H81.2418C81.3043 10.3095 81.3601 10.3268 81.4084 10.3644C81.4605 10.4019 81.5021 10.4568 81.5371 10.5358C81.5721 10.6109 81.5958 10.7139 81.6138 10.8477C81.6308 10.9777 81.6384 11.1356 81.6384 11.3214C81.6384 11.5168 81.6318 11.6786 81.6138 11.8047C81.5967 11.9318 81.5721 12.0348 81.5371 12.1099C81.5021 12.1889 81.4605 12.2437 81.4084 12.2745C81.3601 12.3092 81.3043 12.3256 81.2418 12.3256H77.2809V15.9899H82.0132C82.0757 15.9899 82.1315 16.0072 82.1798 16.0448C82.2318 16.0823 82.2735 16.1411 82.3085 16.2229C82.3435 16.3018 82.3672 16.4077 82.3851 16.5387C82.4022 16.6725 82.4098 16.8333 82.4098 17.0297V17.0307Z" fill="white"/>
<path d="M17.6641 70.1592V82.14H18.743L29.049 70.1592H17.6641Z" fill="white"/>
<path d="M92.2585 56.1816C90.4054 58.6954 87.4959 60.1752 84.4067 60.1752C81.3175 60.1752 78.4081 58.6954 76.5549 56.1816C74.7018 58.6954 71.7924 60.1752 68.7031 60.1752C65.6139 60.1752 62.7045 58.6954 60.8513 56.1816C58.9982 58.6954 56.0888 60.1752 52.9995 60.1752C49.9103 60.1752 47.0018 58.6954 45.1477 56.1816C43.2946 58.6954 40.3852 60.1752 37.2959 60.1752C34.2067 60.1752 31.2973 58.6954 29.4441 56.1816C27.591 58.6954 24.6816 60.1752 21.5923 60.1752C18.5031 60.1752 15.5937 58.6954 13.7405 56.1816C11.4652 59.2693 7.64346 60.7471 3.92578 59.9759V102.108C3.92578 103.21 4.80504 104.105 5.88873 104.105H64.7763V70.1592C64.7763 67.9535 66.5338 66.1656 68.7022 66.1656H84.4058C86.5741 66.1656 88.3317 67.9535 88.3317 70.1592V104.105H100.109C101.193 104.105 102.072 103.21 102.072 102.108V59.9759C98.3527 60.7779 94.5149 59.2953 92.2576 56.1816H92.2585ZM49.0736 94.1208H15.7035C14.6198 94.1208 13.7405 93.2264 13.7405 92.124C13.7405 91.0216 14.6198 90.1272 15.7035 90.1272H49.0736C50.1573 90.1272 51.0366 91.0216 51.0366 92.124C51.0366 93.2264 50.1573 94.1208 49.0736 94.1208ZM51.0366 82.14C51.0366 84.3457 49.279 86.1336 47.1107 86.1336H17.6664C15.4981 86.1336 13.7405 84.3457 13.7405 82.14V70.1592C13.7405 67.9535 15.4981 66.1656 17.6664 66.1656H47.1107C49.279 66.1656 51.0366 67.9535 51.0366 70.1592V82.14Z" fill="white"/>
<path d="M39.7483 77.4666C39.2959 78.0385 38.571 78.311 37.8611 78.1772C37.1513 78.0433 36.5711 77.5234 36.3506 76.8245C36.13 76.1255 36.3042 75.3601 36.8039 74.8306L40.8283 70.1582H34.2523L23.9473 82.139H47.1099V70.1582H46.03L39.7483 77.4666Z" fill="white"/>
<path d="M103.368 41.3056C103.032 40.6278 102.348 40.2023 101.601 40.2071H94.2206C93.1369 40.2071 92.2577 39.3127 92.2577 38.2103C92.2577 37.1079 93.1369 36.2135 94.2206 36.2135H100.109C101.193 36.2135 102.072 35.3191 102.072 34.2167V28.2263C102.072 27.1239 101.193 26.2295 100.109 26.2295H5.88885C4.80516 26.2295 3.92591 27.1239 3.92591 28.2263V34.2167C3.92591 35.3191 4.80516 36.2135 5.88885 36.2135H86.3688C87.4525 36.2135 88.3318 37.1079 88.3318 38.2103C88.3318 39.3127 87.4525 40.2071 86.3688 40.2071H4.39724C3.65143 40.2023 2.9662 40.6278 2.63021 41.3056L0.215799 46.1975C6.97267e-06 46.7761 6.96796e-06 46.7963 6.96796e-06 50.1911C-0.0028324 52.0704 0.862228 53.8429 2.33586 54.977C3.80949 56.1112 5.72133 56.4761 7.49878 55.962C10.075 55.1542 11.8193 52.7136 11.7777 49.9716V46.1975C11.7777 45.0951 12.657 44.2007 13.7407 44.2007C14.8243 44.2007 15.7036 45.0951 15.7036 46.1975V50.1911C15.749 52.3313 16.9141 54.2838 18.7588 55.314C20.6034 56.3442 22.8484 56.2941 24.6476 55.184C26.4468 54.074 27.5267 52.0714 27.4813 49.9311V46.1975C27.4813 45.0951 28.3606 44.2007 29.4442 44.2007C30.5279 44.2007 31.4072 45.0951 31.4072 46.1975V50.1911C31.4044 52.0704 32.2694 53.8429 33.743 54.977C35.2167 56.1112 37.1285 56.4761 38.906 55.962C41.4822 55.1542 43.2265 52.7136 43.1849 49.9716V46.1975C43.1849 45.0951 44.0641 44.2007 45.1478 44.2007C46.2315 44.2007 47.1108 45.0951 47.1108 46.1975V50.1911C47.1562 52.3313 48.3213 54.2838 50.1659 55.314C52.0106 56.3442 54.2556 56.2941 56.0548 55.184C57.854 54.074 58.9339 52.0714 58.8885 49.9311V46.1975C58.8885 45.0951 59.7677 44.2007 60.8514 44.2007C61.9351 44.2007 62.8144 45.0951 62.8144 46.1975V50.1911C62.8115 52.0704 63.6766 53.8429 65.1502 54.977C66.6239 56.1112 68.5357 56.4761 70.3132 55.962C72.8894 55.1542 74.6337 52.7136 74.5921 49.9716V46.1975C74.5921 45.0951 75.4713 44.2007 76.555 44.2007C77.6387 44.2007 78.518 45.0951 78.518 46.1975V49.9513C78.4688 52.7087 80.2358 55.1609 82.8367 55.9417C84.6463 56.452 86.5865 56.0544 88.0602 54.8711C89.5338 53.6879 90.3648 51.8605 90.2957 49.9513V46.1975C90.2957 45.0951 91.1749 44.2007 92.2586 44.2007C93.3423 44.2007 94.2216 45.0951 94.2216 46.1975V50.1911C94.2187 52.0704 95.0838 53.8429 96.5574 54.977C98.0311 56.1112 99.9429 56.4761 101.72 55.962C104.297 55.1542 106.041 52.7136 105.999 49.9716C105.999 47.0765 105.999 46.8368 105.783 46.2774L103.37 41.3056H103.368Z" fill="#EBA707"/>
</svg>
