<svg width="52" height="52" viewBox="0 0 52 52" fill="none" xmlns="http://www.w3.org/2000/svg">
<path d="M18.4166 21.6666C21.4082 21.6666 23.8333 19.2415 23.8333 16.25C23.8333 13.2585 21.4082 10.8334 18.4166 10.8334C15.4251 10.8334 13 13.2585 13 16.25C13 19.2415 15.4251 21.6666 18.4166 21.6666Z" fill="white"/>
<path d="M26 0C11.6627 0 0 11.6638 0 26C0 40.3362 11.6627 52 26 52C40.3373 52 52 40.3362 52 26C52 11.6638 40.3373 0 26 0ZM32.1101 47.6287C32.7863 45.4777 32.5107 43.3471 32.5 43.3334C32.5 36.1648 38.3314 30.3334 45.5 30.3334C46.5602 30.3334 47.5922 30.5057 48.6061 30.7554L32.1101 47.6287ZM45.5 28.1666C44.6235 28.1666 43.7695 28.2576 42.9332 28.4012L32.1826 17.6508C31.7594 17.2275 31.0739 17.2275 30.6507 17.6508L21.2562 27.0453C20.833 27.4685 20.833 28.154 21.2562 28.5771L23.9646 31.2855C24.3878 31.7076 24.3878 32.3953 23.9646 32.8174C23.5541 33.2258 22.8431 33.2258 22.4327 32.8174L14.8494 25.234C14.4261 24.8108 13.7406 24.8108 13.3175 25.234L3.83896 34.7125C2.77255 32.0101 2.16673 29.077 2.16673 26C2.16663 12.8582 12.8582 2.16663 26 2.16663C39.1418 2.16663 49.8334 12.8582 49.8334 26C49.8334 26.9308 49.7662 27.8452 49.6618 28.7484C48.3137 28.3639 46.9195 28.1666 45.5 28.1666Z" fill="white"/>
</svg>
