<svg width="55" height="51" viewBox="0 0 55 51" fill="none" xmlns="http://www.w3.org/2000/svg">
<path d="M50.2403 19.6828H44.9533L32.1035 10.012C32.8635 9.02878 33.3172 7.79762 33.3172 6.46161C33.3172 3.25399 30.7076 0.644287 27.4999 0.644287C24.2922 0.644287 21.6826 3.25389 21.6826 6.46161C21.6826 7.79751 22.1363 9.02878 22.8962 10.0119L10.0464 19.6828H4.75965C2.13512 19.6828 0 21.818 0 24.4424V45.5963C0 48.2207 2.13512 50.3559 4.75965 50.3559H50.2405C52.8649 50.3559 55.0001 48.2208 55.0001 45.5963V24.4424C55 21.818 52.8649 19.6828 50.2403 19.6828ZM25.5908 11.9555C26.1892 12.1641 26.8314 12.2789 27.5 12.2789C28.1688 12.2789 28.8108 12.1641 29.4093 11.9555L39.6767 19.6828H15.3233L25.5908 11.9555ZM16.3942 39.2501C16.3942 41.2913 14.7336 42.9521 12.6923 42.9521H10.577C8.53563 42.9521 6.875 41.2913 6.875 39.2501V30.7886C6.875 28.7474 8.53563 27.0866 10.577 27.0866H12.6923C14.7336 27.0866 16.3942 28.7472 16.3942 30.7886V39.2501ZM26.9712 32.9039C26.9712 34.9452 25.3105 36.6059 23.2692 36.6059H20.625V41.3656C20.625 42.2418 19.9146 42.9521 19.0385 42.9521C18.1624 42.9521 17.452 42.2417 17.452 41.3656V30.7886C17.452 28.7474 19.1126 27.0866 21.1539 27.0866H23.2693C25.3105 27.0866 26.9713 28.7472 26.9713 30.7886V32.9039H26.9712ZM33.8462 33.4328C34.7224 33.4328 35.4327 34.1432 35.4327 35.0193C35.4327 35.8955 34.7223 36.6058 33.8462 36.6058H31.202V39.7788H35.9616C36.8379 39.7788 37.5481 40.4892 37.5481 41.3653C37.5481 42.2415 36.8378 42.9519 35.9616 42.9519H29.6155C28.7392 42.9519 28.0289 42.2415 28.0289 41.3653V28.6731C28.0289 27.7969 28.7393 27.0866 29.6155 27.0866H35.9616C36.8379 27.0866 37.5481 27.797 37.5481 28.6731C37.5481 29.5493 36.8378 30.2596 35.9616 30.2596H31.202V33.4327H33.8462V33.4328ZM48.125 41.3655C48.125 42.1013 47.6191 42.7405 46.903 42.9095C46.7814 42.9382 46.6588 42.9522 46.5381 42.9522C45.9478 42.9522 45.3926 42.6213 45.1194 42.0751L41.7788 35.3939V41.3655C41.7788 42.2417 41.0685 42.952 40.1923 42.952C39.3162 42.952 38.6058 42.2416 38.6058 41.3655V28.6731C38.6058 27.9373 39.1117 27.2981 39.8278 27.129C40.5439 26.9599 41.2823 27.3054 41.6114 27.9637L44.952 34.6448V28.6732C44.952 27.797 45.6624 27.0867 46.5385 27.0867C47.4146 27.0867 48.125 27.797 48.125 28.6731V41.3655Z" fill="white"/>
</svg>
