<svg width="28" height="28" viewBox="0 0 28 28" fill="none" xmlns="http://www.w3.org/2000/svg">
<g clip-path="url(#clip0_1_4186)">
<path d="M16.1696 15.7397C16.1696 17.9439 14.3762 19.7372 12.1719 19.7372C9.96775 19.7372 8.17436 17.9439 8.17436 15.7397C8.17436 13.5354 9.96775 11.742 12.1719 11.742C12.9857 11.742 13.7431 11.9871 14.3752 12.4064L16.0912 10.6904C15.0079 9.84768 13.6475 9.34497 12.1719 9.34497C8.64586 9.34497 5.77734 12.2137 5.77734 15.7397C5.77734 19.2657 8.64586 22.1343 12.1719 22.1343C15.6979 22.1343 18.5666 19.2657 18.5666 15.7397C18.5666 14.2641 18.0639 12.9037 17.2212 11.8204L15.5052 13.5364C15.9245 14.1686 16.1696 14.9259 16.1696 15.7397V15.7397Z" fill="#EBA707"/>
<path d="M11.608 15.1748L13.2077 13.5749C12.8943 13.4244 12.5433 13.34 12.173 13.34C10.85 13.34 9.77344 14.4165 9.77344 15.7397C9.77344 17.0628 10.8498 18.1392 12.173 18.1392C13.4961 18.1392 14.5727 17.0628 14.5727 15.7397C14.5727 15.3693 14.4882 15.0183 14.3378 14.7049L12.7379 16.3046L11.608 15.1748Z" fill="#EBA707"/>
<path d="M20.1159 8.98756L20.0651 8.9757L18.3568 10.684C19.4856 12.0625 20.1637 13.8232 20.1637 15.7398C20.1637 20.1468 16.5784 23.7323 12.1712 23.7323C7.76395 23.7323 4.17862 20.1468 4.17862 15.7398C4.17862 11.3326 7.76416 7.74702 12.1712 7.74702C14.0877 7.74702 15.8485 8.42534 17.227 9.55394L18.9353 7.84564L18.9234 7.79508L18.3851 5.4917C16.5719 4.38828 14.4446 3.7522 12.1712 3.7522C5.56128 3.75199 0.183594 9.12967 0.183594 15.7398C0.183594 22.3497 5.56128 27.7274 12.1712 27.7274C18.7813 27.7274 24.159 22.3497 24.159 15.7398C24.159 13.4664 23.5229 11.339 22.4193 9.52585L20.1159 8.98756Z" fill="#EBA707"/>
<path d="M22.9258 8.0027L27.4583 3.47021L25.1965 2.71636L24.4426 0.45459L19.9102 4.98707L20.4815 7.43132L22.9258 8.0027Z" fill="#EBA707"/>
</g>
<defs>
<clipPath id="clip0_1_4186">
<rect width="27.2727" height="27.2727" fill="white" transform="translate(0.183594 0.45459)"/>
</clipPath>
</defs>
</svg>
