<svg width="32" height="32" viewBox="0 0 32 32" fill="none" xmlns="http://www.w3.org/2000/svg">
<g clip-path="url(#clip0_1_4145)">
<path d="M0.893714 18.3127L2.98192 18.6549C3.31184 20.2539 3.94322 21.7755 4.84232 23.1383L3.6057 24.8642C3.34911 25.2135 3.35352 25.6902 3.61656 26.0347C3.92837 26.4159 4.2597 26.7806 4.60914 27.1276C4.96169 27.4807 5.32509 27.8061 5.69936 28.1207C6.04408 28.3843 6.5214 28.3887 6.87095 28.1316L8.59575 26.8944C9.95726 27.794 11.4778 28.4258 13.0759 28.7559L13.4176 30.8457C13.4827 31.2732 13.8238 31.6055 14.2529 31.6593C14.5501 31.693 14.8495 31.7135 15.1554 31.7288C15.304 31.736 15.4491 31.6824 15.5572 31.5802C15.6653 31.4781 15.727 31.3362 15.7282 31.1875V26.8408C15.7266 26.5477 15.4939 26.3083 15.201 26.2983C9.71988 26.0142 5.42142 21.4871 5.42142 15.9987C5.42142 10.5102 9.71988 5.98311 15.201 5.69897C15.4939 5.68904 15.7266 5.44963 15.7282 5.15656V0.813631C15.7275 0.664972 15.6661 0.523031 15.5583 0.420618C15.4505 0.318205 15.3055 0.264295 15.157 0.271224C14.8522 0.283875 14.5508 0.305239 14.2528 0.335213C13.8237 0.393689 13.4839 0.72728 13.4176 1.15531L13.0758 3.24514C11.4778 3.57569 9.95731 4.2076 8.5957 5.10716L6.8709 3.86944C6.52135 3.61228 6.04403 3.61669 5.69931 3.8803C5.31921 4.19253 4.95533 4.52402 4.60909 4.87341C4.25702 5.21787 3.92559 5.5828 3.61651 5.96631C3.35237 6.31124 3.34796 6.78918 3.60564 7.13894L4.84226 8.86485C3.94338 10.2272 3.312 11.7482 2.98187 13.3466L0.893661 13.6883C0.466056 13.7536 0.13383 14.095 0.0800776 14.5242C-0.0266925 15.4976 -0.0266925 16.4797 0.0800776 17.4531C0.128318 17.8894 0.460649 18.2406 0.893714 18.3127V18.3127Z" fill="#EBA707"/>
<path d="M15.2114 7.88092C10.9263 8.15236 7.58984 11.7069 7.58984 16.0005C7.58984 20.2941 10.9264 23.8486 15.2114 24.1201C15.3477 24.1257 15.4804 24.0752 15.5784 23.9802C15.6764 23.8853 15.7311 23.7542 15.7299 23.6178V8.38317C15.7312 8.24669 15.6764 8.11572 15.5784 8.02076C15.4804 7.9258 15.3477 7.87525 15.2114 7.88092V7.88092Z" fill="#EBA707"/>
<path d="M19.5244 8.40704H16.8125V9.4918H19.5244C20.422 9.48912 21.1489 8.7622 21.1516 7.86463V4.51051C21.8988 4.24637 22.347 3.48233 22.213 2.70124C22.0789 1.92015 21.4017 1.34924 20.6092 1.34924C19.8167 1.34924 19.1395 1.92015 19.0054 2.70124C18.8714 3.48233 19.3196 4.24637 20.0668 4.51051V7.86463C20.0668 8.16421 19.824 8.40704 19.5244 8.40704V8.40704Z" fill="#EBA707"/>
<path d="M16.8125 11.6614H22.2364C22.536 11.6614 22.7788 11.4185 22.7788 11.1189C22.7788 10.8194 22.536 10.5765 22.2364 10.5765H16.8125V11.6614Z" fill="#EBA707"/>
<path d="M16.8125 23.5939H19.5244C19.824 23.5939 20.0668 23.8367 20.0668 24.1363V27.4904C19.3197 27.7546 18.8715 28.5186 19.0055 29.2997C19.1395 30.0808 19.8167 30.6517 20.6092 30.6517C21.4017 30.6517 22.079 30.0808 22.213 29.2997C22.347 28.5186 21.8988 27.7546 21.1516 27.4904V24.1363C21.149 23.2388 20.4221 22.5118 19.5245 22.5092H16.8126V23.5939H16.8125Z" fill="#EBA707"/>
<path d="M24.9483 18.17H16.8125V19.2548H24.9483C25.2479 19.2548 25.4908 19.4976 25.4908 19.7972V22.609C24.7436 22.8731 24.2954 23.6371 24.4294 24.4182C24.5634 25.1993 25.2406 25.7702 26.0332 25.7702C26.8256 25.7702 27.5029 25.1993 27.6369 24.4182C27.7709 23.6371 27.3228 22.8731 26.5756 22.609V19.7972C26.5728 18.8996 25.8459 18.1727 24.9483 18.17V18.17Z" fill="#EBA707"/>
<path d="M30.3723 14.3733C29.6852 14.3761 29.0739 14.8102 28.8449 15.4581H16.8125V16.5428H28.8449C29.122 17.3209 29.939 17.7672 30.7435 17.5799C31.548 17.3926 32.0838 16.6314 31.9888 15.8109C31.8939 14.9904 31.1982 14.3718 30.3723 14.3733V14.3733Z" fill="#EBA707"/>
<path d="M22.7788 20.882C22.7788 20.5824 22.536 20.3396 22.2364 20.3396H16.8125V21.4244H22.2364C22.536 21.4244 22.7788 21.1816 22.7788 20.882Z" fill="#EBA707"/>
<path d="M26.5755 12.2037V9.39198C27.3227 9.12784 27.7709 8.3638 27.6369 7.58271C27.5029 6.80162 26.8257 6.23071 26.0331 6.23071C25.2407 6.23071 24.5634 6.80162 24.4294 7.58271C24.2954 8.3638 24.7436 9.12784 25.4907 9.39198V12.2037C25.4907 12.5033 25.2479 12.7462 24.9483 12.7462H16.8125V13.8309H24.9483C25.846 13.8282 26.5729 13.1013 26.5755 12.2037V12.2037Z" fill="#EBA707"/>
</g>
<defs>
<clipPath id="clip0_1_4145">
<rect width="32" height="32" fill="white"/>
</clipPath>
</defs>
</svg>
