<svg width="50" height="50" viewBox="0 0 50 50" fill="none" xmlns="http://www.w3.org/2000/svg">
<path d="M49.5474 43.2285C49.7624 44.0074 49.9415 44.6092 49.9773 45.0695C50.049 45.5298 49.9415 45.8838 49.7624 46.1317C49.5474 46.3795 49.1534 46.5565 48.5802 46.6627C48.0428 46.7689 47.2547 46.8398 46.2516 46.946C45.2127 47.0522 44.353 47.0876 43.7798 47.123C43.1708 47.123 42.7051 47.123 42.3826 47.0168C42.0602 46.946 41.8453 46.8043 41.702 46.6273C41.5587 46.4503 41.4512 46.2379 41.3796 45.9192L38.5853 37.0326L20.8166 37.5637L17.5208 47.477C17.4133 47.8665 17.27 48.1851 17.0909 48.433C16.9117 48.7162 16.6252 48.8932 16.2311 49.1057C15.837 49.2827 15.2638 49.4243 14.5115 49.5305C13.7592 49.6367 12.7562 49.7429 11.5381 49.8492C10.1768 49.9554 9.13793 50.0262 8.3498 49.9908C7.56167 49.9908 7.02431 49.8137 6.73772 49.5305C6.4153 49.2473 6.30783 48.787 6.4153 48.2205C6.52277 47.6541 6.73772 46.8752 7.09596 45.8838L23.79 1.52169C23.9333 1.13224 24.1124 0.813597 24.3273 0.565764C24.5064 0.317931 24.8647 0.176312 25.2946 0.105502C25.7603 0.0346927 26.3693 0.0346927 27.1216 0.140907C27.8739 0.211716 28.877 0.353335 30.1308 0.565764C31.5638 0.778192 32.6743 0.99062 33.4983 1.13224C34.3222 1.30926 34.9312 1.48629 35.3969 1.69872C35.8268 1.91114 36.1493 2.15898 36.3642 2.44221C36.5433 2.72545 36.7224 3.1149 36.8657 3.57517L49.5116 43.2285H49.5474ZM30.095 9.77099H30.0592L23.2884 29.8455L36.5075 29.9517L30.095 9.77099Z" fill="white"/>
<path fill-rule="evenodd" clip-rule="evenodd" d="M18.8839 0H22.2872C22.7529 0 22.9679 0.354047 22.8246 0.814309L4.80508 48.2567C4.62596 48.7169 4.0886 49.2126 3.65871 49.071L0.57784 48.2567C0.147952 48.1504 -0.102817 47.9026 0.0404796 47.4423L17.7734 0.814309C17.9525 0.354047 18.454 0 18.9197 0L18.8839 0Z" fill="white"/>
</svg>
