<svg width="16" height="16" viewBox="0 0 16 16" fill="none" xmlns="http://www.w3.org/2000/svg">
<path d="M8.33886 10.9474C5.74943 10.9474 4.27248 9.05077 4.21094 5.89478H5.50802C5.55063 8.2112 6.50685 9.19239 7.26427 9.3947V5.89478H8.48566V7.89256C9.23361 7.80658 10.0193 6.8962 10.2844 5.89478H11.5058C11.3022 7.12885 10.4501 8.03924 9.84421 8.4135C10.4501 8.71697 11.4206 9.51102 11.7899 10.9474H10.4454C10.1566 9.98645 9.43717 9.24297 8.48566 9.14181V10.9474H8.33886Z" fill="white"/>
<path d="M2.96873 0C2.18232 0.00306448 1.42899 0.316824 0.872906 0.872906C0.316824 1.42899 0.00306448 2.18232 0 2.96873V13.0313C0.00306448 13.8177 0.316824 14.571 0.872906 15.1271C1.42899 15.6832 2.18232 15.9969 2.96873 16H13.0313C13.8177 15.9969 14.571 15.6832 15.1271 15.1271C15.6832 14.571 15.9969 13.8177 16 13.0313V2.96873C15.9969 2.18232 15.6832 1.42899 15.1271 0.872906C14.571 0.316824 13.8177 0.00306448 13.0313 0H2.96873ZM2.96873 1.45455H13.0313C13.8749 1.45455 14.5455 2.12509 14.5455 2.96873V13.0313C14.5455 13.8749 13.8749 14.5455 13.0313 14.5455H2.96873C2.76953 14.5467 2.57207 14.5084 2.38779 14.4328C2.20352 14.3571 2.0361 14.2456 1.89524 14.1048C1.75438 13.9639 1.6429 13.7965 1.56725 13.6122C1.4916 13.4279 1.45329 13.2305 1.45455 13.0313V2.96873C1.45455 2.12509 2.12509 1.45455 2.96873 1.45455Z" fill="white"/>
</svg>
