<svg width="82" height="43" viewBox="0 0 82 43" fill="none" xmlns="http://www.w3.org/2000/svg">
<path d="M7.86149 40.8968H5.3201V13.7219H7.14687V6.86571H74.5619V13.7219H76.2296V39.9815H73.7286V42.0826H76.2296H79.0884H81.5897V39.9815H79.0884V13.7219H80.8051V4.21929C80.8051 1.889 79.0978 0 76.9929 0H4.50666C2.40138 0 0.694773 1.889 0.694773 4.21929V13.7219H2.46165V40.8968H0V43H7.86186V40.8968H7.86149ZM72.8946 2.66176C73.5512 2.66176 74.0854 3.25262 74.0854 3.98021C74.0854 4.70821 73.5512 5.29866 72.8946 5.29866C72.2373 5.29866 71.7035 4.7078 71.7035 3.98021C71.7035 3.25262 72.2373 2.66176 72.8946 2.66176Z" fill="white"/>
<path fill-rule="evenodd" clip-rule="evenodd" d="M34.8218 21.326C34.4201 20.8831 34.1177 20.2665 34.1177 19.4266C34.1177 16.7089 36.9832 15.7705 38.3746 17.3039C40.2744 19.3968 38.6022 22.1949 36.9405 22.1949C35.9998 22.1949 35.5963 22.1812 34.8214 21.3264L34.8218 21.326ZM30.6827 22.7675C31.7159 21.863 31.7896 22.2865 32.8962 23.2784C33.3304 23.6675 33.7572 24.0354 34.1772 24.4498C34.5856 24.8525 34.9921 25.2275 35.4084 25.5867C35.8377 25.9567 36.2454 26.4121 36.6983 26.7481L46.1538 18.0174C47.1237 17.0649 47.4688 17.7187 48.2175 18.2835L52.4153 21.6724C52.7867 21.9745 53.1258 22.2135 53.5002 22.5255C53.8599 22.8251 54.1845 23.07 54.5255 23.3551C54.7729 23.5622 57.9451 26.0761 58.2498 26.1548V28.744C58.2498 28.4229 53.9217 25.1773 53.6035 24.9113L47.0237 19.6052C46.8111 19.8099 46.6572 19.9665 46.4128 20.1791C46.1875 20.3747 45.9636 20.5827 45.754 20.789C44.9447 21.5866 43.9935 22.3498 43.2122 23.1541L38.1044 27.8573C37.8966 28.038 37.6787 28.2373 37.4878 28.425C37.2759 28.633 37.0742 28.8907 36.6987 28.8907C36.2982 28.8907 36.1649 28.7183 35.88 28.4577C35.6738 28.2692 35.4713 28.0865 35.2676 27.8855L31.5362 24.4266C31.0619 24.7779 29.4845 26.408 28.8743 26.9267L27.2729 28.4577C27.1112 28.6019 27.0846 28.604 26.918 28.7793C26.6039 29.1099 24.0715 31.2256 24.0715 31.5119V28.8331C24.4998 28.7067 29.8786 23.4707 30.6823 22.7671L30.6827 22.7675ZM9.52734 34.6833C9.52734 37.0131 11.234 38.9026 13.3389 38.9026L68.0297 38.9021C70.1346 38.9021 71.842 37.0131 71.842 34.6833V16.8846C71.842 14.5543 72.0558 11.8847 72.3185 10.9218C72.5806 9.95884 72.7951 9.1778 72.7951 9.1778H13.3392C11.2343 9.1778 9.52772 11.0668 9.52772 13.3971V34.6833H9.52734Z" fill="white"/>
<path fill-rule="evenodd" clip-rule="evenodd" d="M35.8086 19.3376C35.8086 20.5487 36.8725 20.5367 37.2857 20.0796C37.6986 19.6226 37.7095 18.4446 36.6153 18.4446C36.162 18.4446 35.8086 18.8358 35.8086 19.3376Z" fill="white"/>
</svg>
