<svg width="165" height="112" viewBox="0 0 165 112" fill="none" xmlns="http://www.w3.org/2000/svg">
<path fill-rule="evenodd" clip-rule="evenodd" d="M0.91157 77.0452V52.6828C0.91157 42.7595 9.61263 34.6759 20.2939 34.6759H37.7561C40.8764 15.108 59.1187 0 80.9613 0H84.6818C106.584 0 124.827 15.1637 127.887 34.6759H145.349C156.03 34.6759 164.732 42.7595 164.732 52.6828V77.0452C164.732 86.1322 157.771 92.1531 148.83 94.5504L86.362 111.498C85.2819 111.833 84.0217 112 82.8216 112C81.6214 112 80.4213 111.833 79.2811 111.498L16.7535 94.5504C7.81241 92.1531 0.851562 86.0765 0.851562 77.0452H0.91157ZM82.6415 29.77C82.2215 29.324 82.0415 28.7665 82.1615 28.209C81.8615 28.0418 81.3814 27.8745 81.2014 27.8188C80.3613 27.54 79.4012 27.3728 78.501 27.2055C75.8007 26.648 72.2003 25.9233 72.3803 22.6341C72.5003 20.7386 74.3605 19.1219 75.6807 17.8954C77.1209 16.5575 79.4011 14.4947 79.4612 12.5435C79.5212 11.5401 79.4011 9.08709 78.561 8.30661C77.7809 7.69337 77.6009 6.57839 78.261 5.7979C78.9211 5.01741 80.0612 4.85017 80.9613 5.40766C83.1216 6.80138 83.4816 10.4808 83.4216 12.655C83.3016 15.8885 80.7813 18.2857 78.501 20.4599C78.081 20.8501 76.4008 22.3554 76.2808 22.8014C76.5808 23.1358 78.8611 23.5261 79.2811 23.6376C80.3613 23.8606 81.3814 24.0836 82.4015 24.3623C83.9017 24.8083 85.4619 25.6446 86.002 27.094C86.302 27.8745 86.182 28.878 85.7019 29.6027C85.6419 29.7142 85.5819 29.77 85.4619 29.8257H101.964C102.564 29.8257 103.104 30.0487 103.464 30.4947C103.584 30.662 103.704 30.8292 103.764 30.9965C104.004 30.885 104.244 30.7735 104.544 30.7735C104.964 30.7177 105.384 30.7177 105.804 30.7177C106.704 30.7177 107.605 30.8292 108.385 31.2195C108.985 31.4982 109.465 31.9442 109.765 32.4459C110.365 33.4494 110.245 34.6202 109.765 35.6794C109.525 36.2369 109.165 36.7944 108.745 37.2404C106.764 39.6376 103.044 41.6445 99.7436 41.6445C99.5636 41.6445 99.3836 41.6445 99.1436 41.6445C95.1231 46.2159 89.0623 48.8919 82.7015 48.8919C82.5215 48.8919 82.2815 48.8919 82.1015 48.8919C71.4802 48.6132 63.1992 41.8118 61.759 31.9999C61.579 30.9965 62.3591 30.1045 63.4392 29.9372C64.5193 29.77 65.4794 30.4947 65.6595 31.4982C66.8596 39.5261 73.5204 45.0452 82.2815 45.2682C87.9822 45.4355 93.4429 43.0382 96.7433 38.7456C96.8033 38.6898 96.8033 38.6341 96.8633 38.5783C98.0034 37.0731 98.8435 35.3449 99.4436 33.5609H70.22C69.1399 33.5609 68.2398 32.7247 68.2398 31.7212C68.2398 30.7177 69.1399 29.8815 70.22 29.8815H82.6415V29.77ZM101.964 37.4633C103.404 36.9059 104.844 35.9581 105.684 34.8989C105.864 34.7316 105.984 34.5087 106.164 34.2857C106.044 34.2857 105.924 34.2857 105.744 34.2857C105.504 34.2857 105.264 34.2857 105.024 34.3414C104.424 34.3972 103.824 34.2299 103.464 33.8397C103.104 35.1219 102.624 36.2926 102.024 37.5191L101.964 37.4633ZM44.9569 72.1393C46.2771 72.1393 47.4172 71.749 48.2573 70.7455C48.4374 70.5225 48.6774 70.411 49.0374 70.411C49.3375 70.411 49.5775 70.5225 49.7575 70.7455L51.1377 72.5295C51.3777 72.864 51.3777 73.3657 51.0177 73.6445C49.2775 75.2612 47.1172 75.9302 44.6569 75.9302C42.0166 75.9302 39.7963 75.0382 38.1761 73.1427C36.4359 71.1358 35.8958 68.6271 35.8958 66.1184C35.8958 63.5539 36.6159 61.1567 38.3561 59.094C40.0363 57.1985 42.1966 56.195 44.8969 56.195C46.6371 56.195 48.6174 56.418 50.1176 57.2543C50.5376 57.4773 50.6576 57.9232 50.5376 58.3135L49.6975 60.3205C49.5775 60.5992 49.3975 60.7664 49.0974 60.8222C48.7974 60.8779 48.5574 60.8779 48.3174 60.7107C47.4773 60.1532 46.0371 60.0417 45.017 60.0417C43.6368 60.0417 42.6167 60.5992 41.8366 61.6584C40.8164 62.9964 40.5164 64.6131 40.5164 66.2299C40.5164 67.7351 40.8164 69.2961 41.8366 70.5225C42.6767 71.526 43.6968 72.0277 45.017 72.0277L44.9569 72.1393ZM84.2617 20.9616C83.6617 20.9616 83.1216 20.7386 82.7616 20.3484C82.0415 19.5679 82.1615 18.4529 83.0016 17.7839C83.7217 17.1707 84.5018 16.223 84.9218 15.3867C85.3419 14.6062 85.6419 13.77 85.7019 12.878C85.8219 11.763 85.5819 10.7596 85.1018 9.70033C84.6818 8.7526 85.1618 7.69337 86.122 7.30312C87.1421 6.91288 88.2822 7.35887 88.7023 8.25086C89.4224 9.81183 89.7224 11.4286 89.5424 13.1568C89.4224 14.4947 88.9423 15.8327 88.2822 17.0035C87.6222 18.1742 86.542 19.6237 85.4619 20.4599C85.1018 20.7386 84.6818 20.9059 84.2017 20.9059L84.2617 20.9616ZM103.104 47.6097C102.864 46.7177 101.364 46.1045 100.584 45.8815C99.5636 45.6585 98.9035 44.655 99.1436 43.6515C99.3836 42.7038 100.464 42.0905 101.544 42.3135C104.364 42.9825 107.125 44.9895 107.065 47.9442C107.005 49.3936 105.864 50.3414 104.604 51.0104C99.8036 53.4076 88.3422 53.7978 82.8816 53.7978C77.2409 53.7978 65.5995 53.3518 60.7389 50.5644C59.3587 49.7839 58.2186 48.5574 58.2786 46.9964C58.3386 44.3205 60.7389 42.3693 63.4392 41.979C64.5193 41.8118 65.5395 42.4808 65.6595 43.4842C65.8395 44.4877 65.1194 45.3797 64.0393 45.547C63.1992 45.6585 62.179 46.2159 62.119 47.0522C62.179 47.1637 62.5991 47.3867 62.7191 47.4982C66.7396 49.7839 78.081 50.1184 82.8216 50.1184C87.3821 50.1184 98.7235 49.7839 102.684 47.7769C102.744 47.7212 102.924 47.6654 103.044 47.5539L103.104 47.6097ZM106.344 60.5434V63.6096H111.565C112.105 63.6096 112.525 63.9999 112.525 64.5016V66.5086C112.525 67.0103 112.105 67.4006 111.565 67.4006H106.344V71.9163H113.905C114.445 71.9163 114.865 72.3065 114.865 72.8082V74.9267C114.865 75.4284 114.445 75.8187 113.905 75.8187H102.864C102.324 75.8187 101.904 75.4284 101.904 74.9267V57.5888C101.904 57.087 102.324 56.6968 102.864 56.6968H114.025C114.565 56.6968 114.985 57.087 114.985 57.5888V59.7072C114.985 60.209 114.565 60.5992 114.025 60.5992H106.344V60.5434ZM151.29 54.1881C152.37 54.1881 153.27 55.0243 153.27 56.0278V70.6898C153.27 71.6933 152.37 72.5295 151.29 72.5295C150.21 72.5295 149.31 71.6933 149.31 70.6898V56.0278C149.31 55.0243 150.21 54.1881 151.29 54.1881ZM121.466 63.6654H126.687C127.227 63.6654 127.647 64.0556 127.647 64.5574V66.5643C127.647 67.0661 127.227 67.4563 126.687 67.4563H121.466V71.972H129.027C129.567 71.972 129.987 72.3622 129.987 72.864V74.9825C129.987 75.4842 129.567 75.8744 129.027 75.8744H117.986C117.446 75.8744 117.026 75.4842 117.026 74.9825V57.6445C117.026 57.1428 117.446 56.7525 117.986 56.7525H129.147C129.687 56.7525 130.107 57.1428 130.107 57.6445V59.763C130.107 60.2647 129.687 60.6549 129.147 60.6549H121.466V63.7211V63.6654ZM82.9416 94.2716L138.928 79.1079C141.089 78.5504 143.849 77.3797 143.849 74.9825V52.9616C143.849 50.7316 141.869 48.8919 139.468 48.8919H110.365C109.285 48.8919 108.385 48.0557 108.385 47.0522C108.385 46.0487 109.285 45.2125 110.365 45.2125H139.468C144.029 45.2125 147.749 48.6689 147.749 52.9058V74.9267C147.749 79.1636 144.029 81.5051 140.009 82.5643L83.4816 97.8953C83.3016 97.951 83.1216 97.951 82.9416 97.951C82.7616 97.951 82.5815 97.951 82.4015 97.8953L25.8746 82.5643C21.8541 81.5051 18.1337 79.1636 18.1337 74.9267V52.9058C18.1337 48.6689 21.8541 45.2125 26.4147 45.2125H54.8582C55.9383 45.2125 56.8384 46.0487 56.8384 47.0522C56.8384 48.0557 55.9383 48.8919 54.8582 48.8919H26.4147C24.0144 48.8919 22.0341 50.7316 22.0341 52.9616V74.9825C22.0341 77.4354 24.8545 78.5504 26.9547 79.1079L82.9416 94.2716ZM68.5998 81.2263C69.2599 81.5051 69.86 81.8953 70.22 82.5086C70.5801 83.0661 70.7001 83.6793 70.7001 84.3483C70.7001 85.2403 70.28 85.965 69.6199 86.5225C68.8399 87.1357 67.8797 87.3587 66.9196 87.3587C66.0195 87.3587 65.1794 87.1915 64.4593 86.6897C64.0993 86.4668 63.9193 86.0208 64.0993 85.6305L64.5193 84.627C64.6393 84.3483 64.8194 84.181 65.1194 84.1253C65.4194 84.0695 65.6595 84.0695 65.8995 84.2368C66.0795 84.3483 66.2595 84.404 66.4396 84.5155C66.6196 84.5713 66.8596 84.627 67.0396 84.627C67.2197 84.627 67.3997 84.627 67.5197 84.5155C67.5797 84.4598 67.6397 84.3483 67.6397 84.2925C67.6397 84.181 67.5797 84.0695 67.5797 84.0138C67.4597 83.9023 66.9796 83.6793 66.7996 83.5678L66.0795 83.2891C65.4194 83.0103 64.8194 82.6201 64.4593 82.0626C64.0993 81.5608 63.9793 80.9476 63.9793 80.3344C63.9793 79.4981 64.2793 78.7734 64.9394 78.2159C65.5995 77.6584 66.4396 77.3797 67.3397 77.3797C68.1798 77.3797 69.2599 77.4912 69.92 77.9929C70.22 78.2159 70.34 78.6061 70.22 78.9406L69.86 79.8884C69.74 80.1671 69.5599 80.3344 69.2599 80.4459C68.9599 80.5574 68.6598 80.5016 68.4198 80.3344C68.2998 80.2786 68.0598 80.1671 67.9398 80.1671C67.7597 80.1114 67.5197 80.0556 67.3397 80.0556C67.2797 80.0556 67.0996 80.0556 67.0396 80.1114C66.9796 80.1671 66.9796 80.2229 66.9796 80.3344C66.9796 80.3901 66.9796 80.4459 67.0396 80.5574C67.0396 80.6131 67.0996 80.6131 67.0996 80.6689C67.2797 80.7803 67.6397 80.9476 67.8197 81.0591L68.5398 81.3936L68.5998 81.2263ZM82.9416 99.6235L110.365 92.2089C111.385 91.9302 112.465 92.4876 112.825 93.4354C113.125 94.3831 112.525 95.3866 111.505 95.7211L83.5416 103.303C83.3616 103.359 83.1816 103.359 83.0016 103.359C82.8216 103.359 82.6415 103.359 82.4615 103.303L68.6598 99.5678C67.6397 99.289 67.0396 98.2856 67.3397 97.2821C67.6397 96.3343 68.7198 95.7768 69.8 96.0556L83.0016 99.6235H82.9416ZM97.6434 84.181V86.3553C97.6434 86.857 97.2233 87.2472 96.6833 87.2472H95.4831C94.943 87.2472 94.523 86.857 94.523 86.3553V78.3274C94.523 77.8814 94.943 77.4911 95.4231 77.4911C95.9632 77.4911 96.5032 77.4354 97.1033 77.4354C99.3836 77.4354 101.784 78.1044 101.784 80.6131C101.784 83.0661 100.104 84.181 97.5834 84.181H97.6434ZM91.1626 78.7176C92.0627 79.7211 92.3027 81.0033 92.3027 82.2856C92.3027 83.5678 92.0027 84.9058 91.1626 85.9093C90.3225 86.9127 89.0623 87.3587 87.6822 87.3587C86.302 87.3587 85.1618 86.857 84.3818 85.7978C83.6017 84.7385 83.3016 83.5121 83.3016 82.2856C83.3016 81.0591 83.6017 79.8884 84.4418 78.8849C85.2219 77.8814 86.362 77.3797 87.7422 77.3797C89.1223 77.3797 90.3225 77.7699 91.2226 78.7734L91.1626 78.7176ZM77.961 80.6689V78.3274C77.961 77.8256 78.381 77.4354 78.9211 77.4354H80.1212C80.6613 77.4354 81.0813 77.8256 81.0813 78.3274V86.3553C81.0813 86.857 80.6613 87.2472 80.1212 87.2472H78.9211C78.381 87.2472 77.961 86.857 77.961 86.3553V83.3448H76.0407V86.3553C76.0407 86.857 75.6207 87.2472 75.0806 87.2472H73.8805C73.3404 87.2472 72.9204 86.857 72.9204 86.3553V78.3274C72.9204 77.8256 73.3404 77.4354 73.8805 77.4354H75.0806C75.6207 77.4354 76.0407 77.8256 76.0407 78.3274V80.6689H77.961ZM14.5932 54.1881C15.6734 54.1881 16.5735 55.0243 16.5735 56.0278V69.9093C16.5735 70.9128 15.6734 71.749 14.5932 71.749C13.5131 71.749 12.613 70.9128 12.613 69.9093V56.0278C12.613 55.0243 13.5131 54.1881 14.5932 54.1881ZM91.5226 60.5434V63.6096H97.1633C97.7034 63.6096 98.1234 63.9999 98.1234 64.5016V66.5086C98.1234 67.0103 97.7034 67.4006 97.1633 67.4006H91.5226V74.9267C91.5226 75.4284 91.1026 75.8187 90.5625 75.8187H88.0422C87.5021 75.8187 87.0821 75.4284 87.0821 74.9267V57.5888C87.0821 57.087 87.5021 56.6968 88.0422 56.6968H99.5636C100.104 56.6968 100.524 57.087 100.524 57.5888V59.7072C100.524 60.209 100.104 60.5992 99.5636 60.5992H91.5226V60.5434ZM76.7008 60.5434V63.6096H82.3415C82.8816 63.6096 83.3016 63.9999 83.3016 64.5016V66.5086C83.3016 67.0103 82.8816 67.4006 82.3415 67.4006H76.7008V74.9267C76.7008 75.4284 76.2808 75.8187 75.7407 75.8187H73.2204C72.6803 75.8187 72.2603 75.4284 72.2603 74.9267V57.5888C72.2603 57.087 72.6803 56.6968 73.2204 56.6968H84.7418C85.2819 56.6968 85.7019 57.087 85.7019 57.5888V59.7072C85.7019 60.209 85.2819 60.5992 84.7418 60.5992H76.7008V60.5434ZM67.8197 59.0382C69.5599 60.9894 70.1 63.6096 70.1 66.0626C70.1 68.6271 69.5599 71.2473 67.8197 73.31C66.1395 75.2612 63.7992 76.0417 61.1589 76.0417C58.5786 76.0417 56.4183 75.0939 54.8582 73.1427C53.238 71.08 52.6979 68.5713 52.6979 66.0626C52.6979 63.6096 53.298 61.2124 54.9182 59.2612C56.4784 57.3658 58.5786 56.3623 61.1589 56.3623C63.7992 56.3623 66.1395 57.087 67.8197 58.9825V59.0382ZM97.6434 80.1114V81.4493C97.8234 81.4493 98.0634 81.4493 98.2434 81.3936C98.3635 81.3378 98.4835 81.3378 98.6035 81.2263C98.7835 81.1148 98.7835 80.8918 98.7835 80.7246C98.7835 80.5574 98.7835 80.4459 98.6035 80.3344C98.4835 80.2786 98.3035 80.2229 98.1834 80.1671C98.0034 80.1114 97.8234 80.1114 97.6434 80.1114ZM88.7623 84.1253C89.1223 83.6236 89.2423 82.8431 89.2423 82.2298C89.2423 81.1706 89.1223 79.9999 87.6822 79.9999C87.2621 79.9999 87.0221 80.1114 86.7821 80.4459C86.422 80.9476 86.362 81.6723 86.362 82.2298C86.362 82.8431 86.482 83.5121 86.842 84.0695C87.0221 84.404 87.2621 84.5713 87.6822 84.5713C88.1622 84.5713 88.4622 84.4598 88.7623 84.0695V84.1253ZM64.3393 70.7455C65.2994 69.4633 65.5395 67.6236 65.5395 66.0626C65.5395 63.1079 64.8194 60.209 61.0989 60.209C59.8388 60.209 58.9387 60.6549 58.2786 61.6027C57.3785 62.8849 57.1984 64.5574 57.1984 66.0626C57.1984 67.6236 57.4985 69.2403 58.3386 70.634C58.9987 71.6375 59.8388 72.195 61.0989 72.195C62.4791 72.195 63.5592 71.8047 64.3393 70.7455Z" fill="#EBA707"/>
<path d="M25.8625 43.2759C31.8944 38.0897 132.992 33.5682 139.868 43.2759C146.745 52.9836 139.868 81.2158 139.868 81.2158C93.0154 100.707 68.1267 99.9061 25.8625 81.2158C25.8625 81.2158 19.8306 48.4621 25.8625 43.2759Z" fill="white"/>
<path d="M55.1362 49.7206C58.0618 53.7211 107.097 57.2089 110.432 49.7206C113.767 42.2324 110.432 20.455 110.432 20.455C87.7071 5.41974 75.6354 6.03783 55.1362 20.455C55.1362 20.455 52.2106 45.7202 55.1362 49.7206Z" fill="white"/>
<path fill-rule="evenodd" clip-rule="evenodd" d="M27.5285 66.9214V49.4347C27.5285 42.3119 33.361 36.5097 40.5208 36.5097H52.226C54.3176 22.4643 66.5457 11.6201 81.1872 11.6201H83.6811C98.3629 11.6201 110.591 22.5043 112.642 36.5097H124.348C131.507 36.5097 137.34 42.3119 137.34 49.4347V66.9214C137.34 73.4439 132.674 77.7656 126.68 79.4862L84.8074 91.6509C84.0834 91.891 83.2387 92.0111 82.4342 92.0111C81.6297 92.0111 80.8252 91.891 80.061 91.6509L38.1476 79.4862C32.1543 77.7656 27.4883 73.4039 27.4883 66.9214H27.5285ZM82.3135 32.9883C82.0319 32.6682 81.9113 32.2681 81.9917 31.8679C81.7906 31.7479 81.4688 31.6278 81.3481 31.5878C80.785 31.3877 80.1414 31.2677 79.5381 31.1476C77.728 30.7475 75.3145 30.2273 75.4352 27.8664C75.5157 26.5058 76.7626 25.3454 77.6475 24.4651C78.6129 23.5047 80.1414 22.0241 80.1816 20.6236C80.2219 19.9033 80.1414 18.1426 79.5783 17.5824C79.0554 17.1422 78.9347 16.3419 79.3772 15.7817C79.8196 15.2215 80.5839 15.1015 81.1872 15.5016C82.6353 16.502 82.8766 19.143 82.8364 20.7036C82.756 23.0245 81.0666 24.7452 79.5381 26.3058C79.2565 26.5859 78.1302 27.6663 78.0498 27.9864C78.2509 28.2265 79.7794 28.5066 80.061 28.5866C80.785 28.7467 81.4688 28.9068 82.1526 29.1068C83.1582 29.427 84.204 30.0272 84.566 31.0676C84.7672 31.6278 84.6867 32.3481 84.3649 32.8683C84.3247 32.9483 84.2845 32.9883 84.204 33.0284H95.2656C95.6678 33.0284 96.0299 33.1884 96.2712 33.5085C96.3517 33.6286 96.4321 33.7486 96.4723 33.8687C96.6332 33.7887 96.7941 33.7086 96.9952 33.7086C97.2768 33.6686 97.5584 33.6686 97.8399 33.6686C98.4433 33.6686 99.0467 33.7486 99.5696 34.0287C99.9718 34.2288 100.294 34.5489 100.495 34.9091C100.897 35.6294 100.817 36.4697 100.495 37.23C100.334 37.6301 100.092 38.0303 99.8109 38.3504C98.4835 40.0711 95.9896 41.5116 93.7773 41.5116C93.6566 41.5116 93.536 41.5116 93.3751 41.5116C90.6801 44.7929 86.6175 46.7136 82.3537 46.7136C82.2331 46.7136 82.0722 46.7136 81.9515 46.7136C74.8318 46.5135 69.2809 41.6317 68.3156 34.589C68.1949 33.8687 68.7178 33.2284 69.4418 33.1084C70.1659 32.9883 70.8095 33.5085 70.9301 34.2288C71.7346 39.991 76.1995 43.9526 82.0722 44.1126C85.8934 44.2327 89.5538 42.512 91.7661 39.4308C91.8064 39.3908 91.8064 39.3508 91.8466 39.3108C92.6108 38.2304 93.174 36.9899 93.5762 35.7094H73.9871C73.2631 35.7094 72.6598 35.1092 72.6598 34.3889C72.6598 33.6686 73.2631 33.0684 73.9871 33.0684H82.3135V32.9883ZM95.2656 38.5105C96.231 38.1103 97.1964 37.4301 97.7595 36.6698C97.8802 36.5497 97.9606 36.3897 98.0813 36.2296C98.0008 36.2296 97.9204 36.2296 97.7997 36.2296C97.6388 36.2296 97.4779 36.2296 97.317 36.2696C96.9148 36.3096 96.5126 36.1896 96.2712 35.9095C96.0299 36.8298 95.7081 37.6701 95.3058 38.5505L95.2656 38.5105ZM57.0529 63.4C57.9378 63.4 58.7021 63.1199 59.2652 62.3997C59.3859 62.2396 59.5468 62.1596 59.7881 62.1596C59.9892 62.1596 60.1501 62.2396 60.2708 62.3997L61.1959 63.6802C61.3568 63.9202 61.3568 64.2804 61.1155 64.4805C59.949 65.6409 58.5009 66.1211 56.8518 66.1211C55.0819 66.1211 53.5936 65.4808 52.5076 64.1203C51.3411 62.6798 50.9791 60.8791 50.9791 59.0784C50.9791 57.2377 51.4617 55.517 52.6282 54.0364C53.7545 52.6759 55.2026 51.9556 57.0126 51.9556C58.1791 51.9556 59.5065 52.1157 60.5121 52.7159C60.7937 52.876 60.8741 53.1961 60.7937 53.4762L60.2306 54.9168C60.1501 55.1169 60.0294 55.2369 59.8283 55.2769C59.6272 55.3169 59.4663 55.3169 59.3054 55.1969C58.7423 54.7967 57.7769 54.7167 57.0931 54.7167C56.1679 54.7167 55.4841 55.1169 54.9612 55.8772C54.2774 56.8375 54.0763 57.998 54.0763 59.1584C54.0763 60.2388 54.2774 61.3593 54.9612 62.2396C55.5244 62.9599 56.2082 63.32 57.0931 63.32L57.0529 63.4ZM83.3996 26.6659C82.9973 26.6659 82.6353 26.5058 82.3939 26.2257C81.9113 25.6655 81.9917 24.8652 82.5548 24.385C83.0375 23.9449 83.5604 23.2646 83.842 22.6644C84.1236 22.1042 84.3247 21.5039 84.3649 20.8637C84.4454 20.0634 84.2845 19.3431 83.9627 18.5828C83.6811 17.9025 84.0029 17.1422 84.6465 16.8621C85.3303 16.582 86.0946 16.9022 86.3761 17.5424C86.8588 18.6628 87.0599 19.8233 86.9393 21.0638C86.8588 22.0241 86.537 22.9845 86.0946 23.8248C85.6521 24.6651 84.9281 25.7055 84.204 26.3058C83.9627 26.5058 83.6811 26.6259 83.3593 26.6259L83.3996 26.6659ZM96.0299 45.7933C95.869 45.153 94.8634 44.7129 94.3405 44.5528C93.6567 44.3927 93.2142 43.6725 93.3751 42.9522C93.536 42.2719 94.26 41.8317 94.984 41.9918C96.8746 42.472 98.7249 43.9125 98.6846 46.0334C98.6444 47.0738 97.8802 47.754 97.0355 48.2342C93.8176 49.9549 86.1348 50.235 82.4744 50.235C78.6933 50.235 70.8899 49.9149 67.6318 47.9141C66.7066 47.3539 65.9424 46.4735 65.9826 45.3531C66.0228 43.4324 67.6318 42.0318 69.4418 41.7517C70.1659 41.6317 70.8497 42.1119 70.9301 42.8321C71.0508 43.5524 70.5681 44.1927 69.8441 44.3127C69.2809 44.3927 68.5971 44.7929 68.5569 45.3931C68.5971 45.4731 68.8787 45.6332 68.9592 45.7132C71.6542 47.3539 79.2565 47.594 82.4342 47.594C85.4912 47.594 93.0935 47.3539 95.7483 45.9133C95.7885 45.8733 95.9092 45.8333 95.9896 45.7533L96.0299 45.7933ZM98.202 55.0768V57.2777H101.701C102.063 57.2777 102.345 57.5578 102.345 57.9179V59.3585C102.345 59.7186 102.063 59.9987 101.701 59.9987H98.202V63.24H103.27C103.632 63.24 103.914 63.5201 103.914 63.8802V65.4008C103.914 65.761 103.632 66.0411 103.27 66.0411H95.869C95.507 66.0411 95.2254 65.761 95.2254 65.4008V52.956C95.2254 52.5959 95.507 52.3158 95.869 52.3158H103.351C103.713 52.3158 103.994 52.5959 103.994 52.956V54.4766C103.994 54.8368 103.713 55.1169 103.351 55.1169H98.202V55.0768ZM128.33 50.5151C129.054 50.5151 129.657 51.1153 129.657 51.8356V62.3596C129.657 63.0799 129.054 63.6802 128.33 63.6802C127.606 63.6802 127.002 63.0799 127.002 62.3596V51.8356C127.002 51.1153 127.606 50.5151 128.33 50.5151ZM108.338 57.3177H111.838C112.2 57.3177 112.481 57.5978 112.481 57.958V59.3985C112.481 59.7586 112.2 60.0388 111.838 60.0388H108.338V63.28H113.407C113.769 63.28 114.05 63.5601 114.05 63.9202V65.4408C114.05 65.801 113.769 66.0811 113.407 66.0811H106.005C105.643 66.0811 105.362 65.801 105.362 65.4408V52.996C105.362 52.6359 105.643 52.3558 106.005 52.3558H113.487C113.849 52.3558 114.131 52.6359 114.131 52.996V54.5166C114.131 54.8768 113.849 55.1569 113.487 55.1569H108.338V57.3577V57.3177ZM82.5146 79.2862L120.044 68.402C121.492 68.0018 123.342 67.1615 123.342 65.4408V49.6348C123.342 48.0341 122.015 46.7136 120.406 46.7136H100.897C100.173 46.7136 99.5696 46.1134 99.5696 45.3931C99.5696 44.6728 100.173 44.0726 100.897 44.0726H120.406C123.463 44.0726 125.956 46.5536 125.956 49.5947V65.4008C125.956 68.442 123.463 70.1226 120.768 70.8829L82.8766 81.8872C82.756 81.9272 82.6353 81.9272 82.5146 81.9272C82.394 81.9272 82.2733 81.9272 82.1526 81.8872L44.2617 70.8829C41.5667 70.1226 39.0728 68.442 39.0728 65.4008V49.5947C39.0728 46.5536 41.5667 44.0726 44.6237 44.0726H63.6898C64.4138 44.0726 65.0172 44.6728 65.0172 45.3931C65.0172 46.1134 64.4138 46.7136 63.6898 46.7136H44.6237C43.0147 46.7136 41.6873 48.0341 41.6873 49.6348V65.4408C41.6873 67.2015 43.5779 68.0018 44.9857 68.402L82.5146 79.2862ZM72.9011 69.9226C73.3436 70.1226 73.7458 70.4027 73.9871 70.8429C74.2285 71.2431 74.3089 71.6832 74.3089 72.1634C74.3089 72.8037 74.0274 73.3239 73.5849 73.724C73.062 74.1642 72.4184 74.3243 71.7748 74.3243C71.1715 74.3243 70.6083 74.2042 70.1256 73.8441C69.8843 73.684 69.7636 73.3639 69.8843 73.0838L70.1659 72.3635C70.2463 72.1634 70.367 72.0434 70.5681 72.0034C70.7692 71.9633 70.9301 71.9633 71.091 72.0834C71.2117 72.1634 71.3324 72.2034 71.453 72.2835C71.5737 72.3235 71.7346 72.3635 71.8553 72.3635C71.976 72.3635 72.0966 72.3635 72.1771 72.2835C72.2173 72.2435 72.2575 72.1634 72.2575 72.1234C72.2575 72.0434 72.2173 71.9633 72.2173 71.9233C72.1368 71.8433 71.8151 71.6832 71.6944 71.6032L71.2117 71.4031C70.7692 71.203 70.367 70.9229 70.1256 70.5228C69.8843 70.1626 69.8039 69.7225 69.8039 69.2823C69.8039 68.6821 70.005 68.1619 70.4474 67.7617C70.8899 67.3616 71.453 67.1615 72.0564 67.1615C72.6195 67.1615 73.3436 67.2415 73.786 67.6017C73.9871 67.7617 74.0676 68.0418 73.9871 68.2819L73.7458 68.9622C73.6654 69.1623 73.5447 69.2823 73.3436 69.3623C73.1424 69.4424 72.9413 69.4024 72.7804 69.2823C72.7 69.2423 72.5391 69.1623 72.4586 69.1623C72.338 69.1223 72.1771 69.0822 72.0564 69.0822C72.0162 69.0822 71.8955 69.0822 71.8553 69.1222C71.8151 69.1623 71.8151 69.2023 71.8151 69.2823C71.8151 69.3223 71.8151 69.3623 71.8553 69.4424C71.8553 69.4824 71.8955 69.4824 71.8955 69.5224C72.0162 69.6024 72.2575 69.7225 72.3782 69.8025L72.8609 70.0426L72.9011 69.9226ZM82.5146 83.1276L100.897 77.8056C101.581 77.6055 102.305 78.0057 102.546 78.6859C102.747 79.3662 102.345 80.0865 101.661 80.3266L82.9169 85.7687C82.7962 85.8087 82.6755 85.8087 82.5548 85.8087C82.4342 85.8087 82.3135 85.8087 82.1928 85.7687L72.9413 83.0876C72.2575 82.8876 71.8553 82.1673 72.0564 81.447C72.2575 80.7667 72.9815 80.3666 73.7056 80.5667L82.5548 83.1276H82.5146ZM92.3695 72.0434V73.604C92.3695 73.9641 92.0879 74.2442 91.7259 74.2442H90.9214C90.5594 74.2442 90.2778 73.9641 90.2778 73.604V67.8418C90.2778 67.5216 90.5594 67.2415 90.8812 67.2415C91.2432 67.2415 91.6052 67.2015 92.0075 67.2015C93.536 67.2015 95.1449 67.6817 95.1449 69.4824C95.1449 71.2431 94.0187 72.0434 92.3293 72.0434H92.3695ZM88.0253 68.1219C88.6287 68.8421 88.7896 69.7625 88.7896 70.6828C88.7896 71.6032 88.5884 72.5636 88.0253 73.2839C87.4622 74.0041 86.6175 74.3243 85.6923 74.3243C84.7672 74.3243 84.0029 73.9641 83.48 73.2038C82.9571 72.4435 82.756 71.5632 82.756 70.6828C82.756 69.8025 82.9571 68.9622 83.5202 68.2419C84.0431 67.5216 84.8074 67.1615 85.7325 67.1615C86.6577 67.1615 87.4622 67.4416 88.0655 68.1619L88.0253 68.1219ZM79.176 69.5224V67.8418C79.176 67.4816 79.4576 67.2015 79.8196 67.2015H80.6241C80.9861 67.2015 81.2677 67.4816 81.2677 67.8418V73.604C81.2677 73.9641 80.9861 74.2442 80.6241 74.2442H79.8196C79.4576 74.2442 79.176 73.9641 79.176 73.604V71.4431H77.8889V73.604C77.8889 73.9641 77.6073 74.2442 77.2453 74.2442H76.4408C76.0788 74.2442 75.7972 73.9641 75.7972 73.604V67.8418C75.7972 67.4816 76.0788 67.2015 76.4408 67.2015H77.2453C77.6073 67.2015 77.8889 67.4816 77.8889 67.8418V69.5224H79.176ZM36.6996 50.5151C37.4236 50.5151 38.027 51.1153 38.027 51.8356V61.7994C38.027 62.5197 37.4236 63.1199 36.6996 63.1199C35.9755 63.1199 35.3722 62.5197 35.3722 61.7994V51.8356C35.3722 51.1153 35.9755 50.5151 36.6996 50.5151ZM88.2666 55.0768V57.2777H92.0477C92.4097 57.2777 92.6913 57.5578 92.6913 57.9179V59.3585C92.6913 59.7186 92.4097 59.9987 92.0477 59.9987H88.2666V65.4008C88.2666 65.761 87.9851 66.0411 87.6231 66.0411H85.9337C85.5716 66.0411 85.2901 65.761 85.2901 65.4008V52.956C85.2901 52.5959 85.5716 52.3158 85.9337 52.3158H93.6567C94.0187 52.3158 94.3002 52.5959 94.3002 52.956V54.4766C94.3002 54.8368 94.0187 55.1169 93.6567 55.1169H88.2666V55.0768ZM78.3313 55.0768V57.2777H82.1124C82.4744 57.2777 82.756 57.5578 82.756 57.9179V59.3585C82.756 59.7186 82.4744 59.9987 82.1124 59.9987H78.3313V65.4008C78.3313 65.761 78.0498 66.0411 77.6877 66.0411H75.9983C75.6363 66.0411 75.3548 65.761 75.3548 65.4008V52.956C75.3548 52.5959 75.6363 52.3158 75.9983 52.3158H83.7213C84.0834 52.3158 84.3649 52.5959 84.3649 52.956V54.4766C84.3649 54.8368 84.0834 55.1169 83.7213 55.1169H78.3313V55.0768ZM72.3782 53.9964C73.5447 55.397 73.9067 57.2777 73.9067 59.0384C73.9067 60.8791 73.5447 62.7598 72.3782 64.2404C71.2519 65.6409 69.6832 66.2011 67.9133 66.2011C66.1837 66.2011 64.7356 65.5209 63.6898 64.1203C62.6038 62.6398 62.2418 60.8391 62.2418 59.0384C62.2418 57.2777 62.644 55.557 63.73 54.1565C64.7759 52.796 66.1837 52.0757 67.9133 52.0757C69.6832 52.0757 71.2519 52.5959 72.3782 53.9564V53.9964ZM92.3695 69.1222V70.0826C92.4902 70.0826 92.651 70.0826 92.7717 70.0426C92.8522 70.0026 92.9326 70.0026 93.0131 69.9226C93.1337 69.8425 93.1337 69.6825 93.1337 69.5624C93.1337 69.4424 93.1337 69.3623 93.0131 69.2823C92.9326 69.2423 92.8119 69.2023 92.7315 69.1623C92.6108 69.1223 92.4902 69.1222 92.3695 69.1222ZM86.4163 72.0034C86.6577 71.6432 86.7381 71.083 86.7381 70.6428C86.7381 69.8825 86.6577 69.0422 85.6923 69.0422C85.4107 69.0422 85.2499 69.1223 85.089 69.3623C84.8476 69.7225 84.8074 70.2427 84.8074 70.6428C84.8074 71.083 84.8878 71.5632 85.1292 71.9633C85.2498 72.2034 85.4107 72.3235 85.6923 72.3235C86.0141 72.3235 86.2152 72.2435 86.4163 71.9633V72.0034ZM70.0452 62.3997C70.6888 61.4793 70.8497 60.1588 70.8497 59.0384C70.8497 56.9176 70.367 54.8368 67.8731 54.8368C67.0284 54.8368 66.425 55.1569 65.9826 55.8371C65.3792 56.7575 65.2586 57.958 65.2586 59.0384C65.2586 60.1588 65.4597 61.3192 66.0228 62.3196C66.4653 63.0399 67.0284 63.4401 67.8731 63.4401C68.7983 63.4401 69.5223 63.16 70.0452 62.3997Z" fill="white"/>
<path fill-rule="evenodd" clip-rule="evenodd" d="M19.2457 72.2123V51.2103C19.2457 42.6557 25.984 35.687 34.2558 35.687H47.7788C50.1953 18.8181 64.3225 5.79395 81.2379 5.79395H84.1191C101.081 5.79395 115.208 18.8662 117.578 35.687H131.101C139.373 35.687 146.111 42.6557 146.111 51.2103V72.2123C146.111 80.046 140.721 85.2364 133.797 87.303L85.4203 101.913C84.5838 102.201 83.6079 102.346 82.6785 102.346C81.7491 102.346 80.8197 102.201 79.9367 101.913L31.514 87.303C24.5898 85.2364 19.1992 79.9979 19.1992 72.2123H19.2457ZM82.5391 31.4578C82.2138 31.0733 82.0744 30.5927 82.1673 30.1121C81.935 29.9679 81.5632 29.8237 81.4238 29.7757C80.7732 29.5354 80.0297 29.3912 79.3326 29.247C77.2414 28.7664 74.4531 28.1417 74.5926 25.3061C74.6855 23.6721 76.1261 22.2784 77.1485 21.2211C78.2638 20.0676 80.0297 18.2894 80.0761 16.6074C80.1226 15.7423 80.0296 13.6277 79.3791 12.9548C78.7749 12.4262 78.6355 11.465 79.1467 10.7921C79.6579 10.1193 80.5408 9.97513 81.2379 10.4557C82.9109 11.6572 83.1897 14.8291 83.1432 16.7035C83.0503 19.4909 81.0985 21.5575 79.3326 23.4318C79.0073 23.7682 77.7061 25.0658 77.6132 25.4503C77.8455 25.7387 79.6114 26.0751 79.9367 26.1712C80.7732 26.3634 81.5632 26.5557 82.3532 26.796C83.515 27.1805 84.7232 27.9014 85.1415 29.1509C85.3738 29.8237 85.2809 30.6888 84.9091 31.3136C84.8626 31.4097 84.8162 31.4578 84.7232 31.5058H97.5027C97.9674 31.5058 98.3857 31.6981 98.6645 32.0825C98.7574 32.2267 98.8504 32.3709 98.8968 32.5151C99.0827 32.419 99.2686 32.3228 99.501 32.3228C99.8263 32.2748 100.152 32.2748 100.477 32.2748C101.174 32.2748 101.871 32.3709 102.475 32.7073C102.94 32.9476 103.312 33.3321 103.544 33.7646C104.009 34.6297 103.916 35.639 103.544 36.5521C103.358 37.0327 103.079 37.5133 102.754 37.8978C101.22 39.9643 98.3392 41.6945 95.7833 41.6945C95.6439 41.6945 95.5045 41.6945 95.3186 41.6945C92.205 45.6353 87.5115 47.9422 82.5856 47.9422C82.4461 47.9422 82.2603 47.9422 82.1208 47.9422C73.8955 47.7019 67.4825 41.8386 66.3672 33.3801C66.2278 32.5151 66.8319 31.7461 67.6684 31.6019C68.5049 31.4578 69.2484 32.0825 69.3878 32.9476C70.3172 39.8682 75.4755 44.6261 82.2603 44.8183C86.675 44.9625 90.9038 42.8959 93.4597 39.1954C93.5062 39.1473 93.5062 39.0992 93.5527 39.0512C94.4356 37.7536 95.0862 36.2637 95.5509 34.7258H72.9196C72.0831 34.7258 71.3861 34.0049 71.3861 33.1399C71.3861 32.2748 72.0831 31.5539 72.9196 31.5539H82.5391V31.4578ZM97.5027 38.09C98.618 37.6094 99.7333 36.7924 100.384 35.8792C100.523 35.7351 100.616 35.5428 100.756 35.3506C100.663 35.3506 100.57 35.3506 100.43 35.3506C100.244 35.3506 100.059 35.3506 99.8727 35.3986C99.408 35.4467 98.9433 35.3025 98.6645 34.9661C98.3857 36.0715 98.0139 37.0807 97.5492 38.138L97.5027 38.09ZM53.3553 67.9831C54.3777 67.9831 55.2607 67.6466 55.9112 66.7816C56.0507 66.5893 56.2365 66.4932 56.5154 66.4932C56.7477 66.4932 56.9336 66.5893 57.073 66.7816L58.1418 68.3195C58.3277 68.6078 58.3277 69.0404 58.0489 69.2807C56.7013 70.6744 55.0283 71.2511 53.123 71.2511C51.0783 71.2511 49.3588 70.4821 48.1041 68.8481C46.7565 67.118 46.3382 64.9553 46.3382 62.7926C46.3382 60.5819 46.8959 58.5153 48.2435 56.7371C49.5447 55.1031 51.2177 54.238 53.3089 54.238C54.6565 54.238 56.1901 54.4303 57.3518 55.1511C57.6771 55.3434 57.7701 55.7279 57.6771 56.0643L57.0265 57.7944C56.9336 58.0347 56.7942 58.1789 56.5618 58.227C56.3295 58.275 56.1436 58.275 55.9577 58.1308C55.3071 57.6502 54.1918 57.5541 53.4018 57.5541C52.333 57.5541 51.543 58.0347 50.9389 58.9479C50.1489 60.1013 49.9165 61.495 49.9165 62.8887C49.9165 64.1863 50.1489 65.532 50.9389 66.5893C51.5895 67.4544 52.3795 67.8869 53.4018 67.8869L53.3553 67.9831ZM83.7938 23.8644C83.3291 23.8644 82.9108 23.6721 82.632 23.3357C82.0744 22.6629 82.1673 21.7017 82.8179 21.125C83.3756 20.5963 83.9797 19.7793 84.305 19.0584C84.6303 18.3856 84.8626 17.6647 84.9091 16.8957C85.002 15.9345 84.8162 15.0694 84.4444 14.1563C84.1191 13.3393 84.4909 12.4262 85.2344 12.0898C86.0244 11.7533 86.9073 12.1378 87.2327 12.9068C87.7903 14.2524 88.0227 15.6462 87.8832 17.136C87.7903 18.2894 87.4185 19.4429 86.9073 20.4521C86.3962 21.4614 85.5597 22.7109 84.7232 23.4318C84.4444 23.6721 84.1191 23.8163 83.7473 23.8163L83.7938 23.8644ZM98.3857 46.8368C98.1998 46.0679 97.038 45.5392 96.4339 45.347C95.6439 45.1547 95.1327 44.2897 95.3186 43.4246C95.5045 42.6076 96.3409 42.0789 97.1774 42.2712C99.3616 42.8479 101.499 44.578 101.453 47.1252C101.406 48.3747 100.523 49.1918 99.5474 49.7685C95.8298 51.835 86.9538 52.1714 82.725 52.1714C78.3567 52.1714 69.3413 51.787 65.5772 49.384C64.5084 48.7112 63.6254 47.6539 63.6719 46.3082C63.7184 44.0013 65.5772 42.3192 67.6684 41.9828C68.5049 41.8386 69.2949 42.4154 69.3878 43.2804C69.5272 44.1455 68.9696 44.9145 68.1331 45.0586C67.4825 45.1548 66.6925 45.6353 66.646 46.3562C66.6925 46.4524 67.0178 46.6446 67.1107 46.7407C70.2243 48.7112 79.0073 48.9995 82.6785 48.9995C86.2103 48.9995 94.9933 48.7112 98.0604 46.981C98.1068 46.933 98.2463 46.8849 98.3392 46.7888L98.3857 46.8368ZM100.895 57.9867V60.6299H104.938C105.356 60.6299 105.682 60.9664 105.682 61.3989V63.129C105.682 63.5616 105.356 63.898 104.938 63.898H100.895V67.7908H106.75C107.169 67.7908 107.494 68.1272 107.494 68.5598V70.386C107.494 70.8186 107.169 71.155 106.75 71.155H98.1998C97.7815 71.155 97.4563 70.8186 97.4563 70.386V55.4395C97.4563 55.007 97.7815 54.6705 98.1998 54.6705H106.843C107.262 54.6705 107.587 55.007 107.587 55.4395V57.2658C107.587 57.6983 107.262 58.0347 106.843 58.0347H100.895V57.9867ZM135.702 52.5079C136.538 52.5079 137.235 53.2288 137.235 54.0938V66.7335C137.235 67.5986 136.538 68.3195 135.702 68.3195C134.865 68.3195 134.168 67.5986 134.168 66.7335V54.0938C134.168 53.2288 134.865 52.5079 135.702 52.5079ZM112.606 60.678H116.649C117.067 60.678 117.392 61.0144 117.392 61.4469V63.1771C117.392 63.6096 117.067 63.9461 116.649 63.9461H112.606V67.8389H118.461C118.879 67.8389 119.205 68.1753 119.205 68.6078V70.4341C119.205 70.8666 118.879 71.203 118.461 71.203H109.91C109.492 71.203 109.167 70.8666 109.167 70.4341V55.4876C109.167 55.055 109.492 54.7186 109.91 54.7186H118.554C118.972 54.7186 119.298 55.055 119.298 55.4876V57.3138C119.298 57.7464 118.972 58.0828 118.554 58.0828H112.606V60.7261V60.678ZM82.7714 87.0627L126.129 73.9905C127.802 73.5099 129.939 72.5007 129.939 70.4341V51.4506C129.939 49.5282 128.406 47.9422 126.547 47.9422H104.009C103.172 47.9422 102.475 47.2213 102.475 46.3562C102.475 45.4912 103.172 44.7703 104.009 44.7703H126.547C130.079 44.7703 132.96 47.75 132.96 51.4025V70.386C132.96 74.0386 130.079 76.0571 126.965 76.9702L83.1897 90.1866C83.0503 90.2346 82.9109 90.2346 82.7714 90.2346C82.632 90.2346 82.4926 90.2346 82.3532 90.1866L38.5776 76.9702C35.464 76.0571 32.5828 74.0386 32.5828 70.386V51.4025C32.5828 47.75 35.464 44.7703 38.9958 44.7703H61.023C61.8595 44.7703 62.5566 45.4912 62.5566 46.3562C62.5566 47.2213 61.8595 47.9422 61.023 47.9422H38.9958C37.137 47.9422 35.6035 49.5282 35.6035 51.4506V70.4341C35.6035 72.5487 37.7876 73.5099 39.4141 73.9905L82.7714 87.0627ZM71.6649 75.8168C72.1761 76.0571 72.6408 76.3935 72.9196 76.9221C73.1984 77.4027 73.2914 77.9314 73.2914 78.5081C73.2914 79.2771 72.9661 79.9018 72.4549 80.3824C71.8508 80.9111 71.1072 81.1033 70.3637 81.1033C69.6666 81.1033 69.016 80.9591 68.4584 80.5266C68.1796 80.3344 68.0402 79.9499 68.1796 79.6135L68.5049 78.7484C68.5978 78.5081 68.7372 78.3639 68.9696 78.3159C69.2019 78.2678 69.3878 78.2678 69.5737 78.412C69.7131 78.5081 69.8525 78.5562 69.9919 78.6523C70.1313 78.7003 70.3172 78.7484 70.4566 78.7484C70.5961 78.7484 70.7355 78.7484 70.8284 78.6523C70.8749 78.6042 70.9213 78.5081 70.9213 78.46C70.9213 78.3639 70.8749 78.2678 70.8749 78.2197C70.7819 78.1236 70.4102 77.9314 70.2708 77.8353L69.7131 77.595C69.2019 77.3547 68.7372 77.0183 68.4584 76.5377C68.1796 76.1051 68.0866 75.5765 68.0866 75.0478C68.0866 74.3269 68.319 73.7021 68.8302 73.2215C69.3413 72.741 69.9919 72.5007 70.689 72.5007C71.3396 72.5007 72.1761 72.5968 72.6872 73.0293C72.9196 73.2215 73.0125 73.558 72.9196 73.8463L72.6408 74.6633C72.5478 74.9036 72.4084 75.0478 72.1761 75.1439C71.9437 75.2401 71.7114 75.192 71.5255 75.0478C71.4325 74.9998 71.2466 74.9036 71.1537 74.9036C71.0143 74.8556 70.8284 74.8075 70.689 74.8075C70.6425 74.8075 70.5031 74.8075 70.4566 74.8556C70.4102 74.9036 70.4102 74.9517 70.4102 75.0478C70.4102 75.0959 70.4102 75.1439 70.4566 75.2401C70.4566 75.2881 70.5031 75.2881 70.5031 75.3362C70.6425 75.4323 70.9214 75.5765 71.0608 75.6726L71.6184 75.9609L71.6649 75.8168ZM82.7714 91.6764L104.009 85.2845C104.799 85.0442 105.635 85.5248 105.914 86.3418C106.146 87.1588 105.682 88.0239 104.892 88.3123L83.2361 94.8484C83.0967 94.8964 82.9573 94.8964 82.8179 94.8964C82.6785 94.8964 82.5391 94.8964 82.3997 94.8484L71.7114 91.6284C70.9214 91.3881 70.4566 90.523 70.689 89.6579C70.9214 88.8409 71.7578 88.3603 72.5943 88.6006L82.8179 91.6764H82.7714ZM94.1568 78.3639V80.2383C94.1568 80.6708 93.8315 81.0072 93.4133 81.0072H92.4839C92.0656 81.0072 91.7403 80.6708 91.7403 80.2383V73.3177C91.7403 72.9332 92.0656 72.5968 92.4374 72.5968C92.8556 72.5968 93.2739 72.5487 93.7386 72.5487C95.5045 72.5487 97.3633 73.1254 97.3633 75.2881C97.3633 77.4027 96.0621 78.3639 94.1103 78.3639H94.1568ZM89.1379 73.6541C89.835 74.5192 90.0209 75.6245 90.0209 76.7299C90.0209 77.8353 89.7885 78.9887 89.1379 79.8538C88.4874 80.7188 87.5115 81.1033 86.4426 81.1033C85.3738 81.1033 84.4909 80.6708 83.8867 79.7577C83.2826 78.8445 83.0503 77.7872 83.0503 76.7299C83.0503 75.6726 83.2826 74.6633 83.9332 73.7983C84.5373 72.9332 85.4203 72.5007 86.4891 72.5007C87.5579 72.5007 88.4874 72.8371 89.1844 73.7021L89.1379 73.6541ZM78.9143 75.3362V73.3177C78.9143 72.8851 79.2396 72.5487 79.6579 72.5487H80.5873C81.0055 72.5487 81.3308 72.8851 81.3308 73.3177V80.2383C81.3308 80.6708 81.0055 81.0072 80.5873 81.0072H79.6579C79.2396 81.0072 78.9143 80.6708 78.9143 80.2383V77.643H77.4273V80.2383C77.4273 80.6708 77.102 81.0072 76.6837 81.0072H75.7543C75.3361 81.0072 75.0108 80.6708 75.0108 80.2383V73.3177C75.0108 72.8851 75.3361 72.5487 75.7543 72.5487H76.6837C77.102 72.5487 77.4273 72.8851 77.4273 73.3177V75.3362H78.9143ZM29.8411 52.5079C30.6775 52.5079 31.3746 53.2288 31.3746 54.0938V66.0607C31.3746 66.9257 30.6775 67.6466 29.8411 67.6466C29.0046 67.6466 28.3075 66.9257 28.3075 66.0607V54.0938C28.3075 53.2288 29.0046 52.5079 29.8411 52.5079ZM89.4168 57.9867V60.6299H93.785C94.2033 60.6299 94.5286 60.9664 94.5286 61.3989V63.129C94.5286 63.5616 94.2033 63.898 93.785 63.898H89.4168V70.386C89.4168 70.8186 89.0915 71.155 88.6732 71.155H86.7215C86.3032 71.155 85.9779 70.8186 85.9779 70.386V55.4395C85.9779 55.007 86.3032 54.6705 86.7215 54.6705H95.6439C96.0621 54.6705 96.3874 55.007 96.3874 55.4395V57.2658C96.3874 57.6983 96.0621 58.0347 95.6439 58.0347H89.4168V57.9867ZM77.9385 57.9867V60.6299H82.3067C82.725 60.6299 83.0503 60.9664 83.0503 61.3989V63.129C83.0503 63.5616 82.725 63.898 82.3067 63.898H77.9385V70.386C77.9385 70.8186 77.6132 71.155 77.1949 71.155H75.2432C74.8249 71.155 74.4996 70.8186 74.4996 70.386V55.4395C74.4996 55.007 74.8249 54.6705 75.2432 54.6705H84.1656C84.5838 54.6705 84.9091 55.007 84.9091 55.4395V57.2658C84.9091 57.6983 84.5838 58.0347 84.1656 58.0347H77.9385V57.9867ZM71.0608 56.689C72.4084 58.3711 72.8267 60.6299 72.8267 62.7446C72.8267 64.9553 72.4084 67.2141 71.0608 68.9923C69.7596 70.6744 67.9472 71.3472 65.9025 71.3472C63.9042 71.3472 62.2313 70.5302 61.023 68.8481C59.7683 67.0699 59.3501 64.9072 59.3501 62.7446C59.3501 60.6299 59.8148 58.5634 61.0695 56.8813C62.2778 55.2473 63.9042 54.3822 65.9025 54.3822C67.9472 54.3822 69.7596 55.007 71.0608 56.641V56.689ZM94.1568 74.8556V76.009C94.2962 76.009 94.4821 76.009 94.6215 75.9609C94.7145 75.9129 94.8074 75.9129 94.9004 75.8168C95.0398 75.7206 95.0398 75.5284 95.0398 75.3842C95.0398 75.2401 95.0398 75.1439 94.9004 75.0478C94.8074 74.9998 94.668 74.9517 94.5751 74.9036C94.4356 74.8556 94.2962 74.8556 94.1568 74.8556ZM87.2791 78.3159C87.5579 77.8833 87.6509 77.2105 87.6509 76.6818C87.6509 75.7687 87.5579 74.7595 86.4426 74.7595C86.1173 74.7595 85.9315 74.8556 85.7456 75.1439C85.4668 75.5765 85.4203 76.2012 85.4203 76.6818C85.4203 77.2105 85.5132 77.7872 85.792 78.2678C85.9315 78.5562 86.1173 78.7003 86.4426 78.7003C86.8144 78.7003 87.0468 78.6042 87.2791 78.2678V78.3159ZM68.3654 66.7816C69.109 65.6762 69.2949 64.0902 69.2949 62.7446C69.2949 60.1974 68.7372 57.6983 65.856 57.6983C64.8801 57.6983 64.1831 58.0828 63.6719 58.8998C62.9748 60.0052 62.8354 61.447 62.8354 62.7446C62.8354 64.0902 63.0678 65.484 63.7184 66.6854C64.2295 67.5505 64.8801 68.0311 65.856 68.0311C66.9249 68.0311 67.7613 67.6947 68.3654 66.7816Z" fill="white"/>
<path fill-rule="evenodd" clip-rule="evenodd" d="M10.5608 74.9635V52.1753C10.5608 42.8931 18.2503 35.3318 27.6898 35.3318H43.1219C45.8795 17.0283 62.0009 2.89648 81.3042 2.89648H84.5921C103.948 2.89648 120.07 17.0804 122.774 35.3318H138.206C147.646 35.3318 155.335 42.8931 155.335 52.1753V74.9635C155.335 83.4634 149.184 89.0953 141.282 91.3376L86.0769 107.19C85.1224 107.503 84.0087 107.66 82.9481 107.66C81.8875 107.66 80.8269 107.503 79.8193 107.19L24.561 91.3376C16.6594 89.0953 10.5078 83.4112 10.5078 74.9635H10.5608ZM82.789 30.7429C82.4178 30.3257 82.2587 29.8043 82.3648 29.2828C82.0996 29.1264 81.6754 28.9699 81.5163 28.9178C80.7739 28.657 79.9254 28.5006 79.1299 28.3442C76.7435 27.8227 73.5616 27.1448 73.7207 24.0681C73.8268 22.2951 75.4708 20.7829 76.6374 19.6356C77.9102 18.3841 79.9254 16.4547 79.9784 14.6295C80.0314 13.6909 79.9254 11.3964 79.1829 10.6664C78.4935 10.0928 78.3344 9.04981 78.9178 8.31976C79.5011 7.5897 80.5087 7.43326 81.3042 7.95473C83.2133 9.2584 83.5315 12.7001 83.4784 14.7338C83.3724 17.7583 81.1451 20.0007 79.1299 22.0344C78.7587 22.3994 77.2738 23.8074 77.1677 24.2246C77.4329 24.5374 79.4481 24.9025 79.8193 25.0068C80.7739 25.2153 81.6754 25.4239 82.5769 25.6847C83.9027 26.1018 85.2815 26.884 85.7588 28.2399C86.0239 28.9699 85.9179 29.9086 85.4936 30.5865C85.4406 30.6908 85.3875 30.7429 85.2815 30.7951H99.865C100.395 30.7951 100.873 31.0036 101.191 31.4208C101.297 31.5773 101.403 31.7337 101.456 31.8901C101.668 31.7859 101.88 31.6816 102.145 31.6816C102.517 31.6294 102.888 31.6294 103.259 31.6294C104.054 31.6294 104.85 31.7337 105.539 32.0987C106.07 32.3595 106.494 32.7766 106.759 33.246C107.289 34.1846 107.183 35.2797 106.759 36.2705C106.547 36.792 106.229 37.3134 105.857 37.7306C104.107 39.9729 100.82 41.8502 97.9028 41.8502C97.7438 41.8502 97.5847 41.8502 97.3726 41.8502C93.8195 46.1262 88.4633 48.6293 82.8421 48.6293C82.683 48.6293 82.4708 48.6293 82.3117 48.6293C72.9253 48.3686 65.607 42.0066 64.3343 32.8288C64.1752 31.8901 64.8646 31.0558 65.8191 30.8994C66.7737 30.7429 67.6222 31.4208 67.7813 32.3595C68.8419 39.8686 74.7283 45.0312 82.4708 45.2397C87.5088 45.3962 92.3346 43.1539 95.2513 39.1386C95.3043 39.0864 95.3043 39.0343 95.3574 38.9821C96.365 37.5742 97.1074 35.9576 97.6377 34.2889H71.8116C70.8571 34.2889 70.0616 33.5067 70.0616 32.5681C70.0616 31.6294 70.8571 30.8472 71.8116 30.8472H82.789V30.7429ZM99.865 37.9392C101.138 37.4177 102.41 36.5312 103.153 35.5404C103.312 35.384 103.418 35.1754 103.577 34.9668C103.471 34.9668 103.365 34.9668 103.206 34.9668C102.994 34.9668 102.782 34.9668 102.57 35.019C102.039 35.0711 101.509 34.9147 101.191 34.5496C100.873 35.749 100.448 36.8441 99.918 37.9913L99.865 37.9392ZM49.4856 70.3745C50.6523 70.3745 51.6598 70.0095 52.4023 69.0709C52.5614 68.8623 52.7735 68.758 53.0917 68.758C53.3568 68.758 53.569 68.8623 53.7281 69.0709L54.9478 70.7396C55.1599 71.0525 55.1599 71.5218 54.8417 71.7825C53.3038 73.2948 51.3947 73.9205 49.2204 73.9205C46.8871 73.9205 44.9249 73.0862 43.4931 71.3132C41.9552 69.4359 41.4779 67.0893 41.4779 64.7427C41.4779 62.3439 42.1143 60.1016 43.6522 58.1722C45.137 56.3992 47.0462 55.4605 49.4325 55.4605C50.9704 55.4605 52.7205 55.6691 54.0462 56.4513C54.4175 56.6599 54.5235 57.0771 54.4175 57.4421L53.675 59.3194C53.569 59.5801 53.4099 59.7366 53.1447 59.7887C52.8796 59.8409 52.6674 59.8409 52.4553 59.6844C51.7129 59.163 50.4401 59.0587 49.5386 59.0587C48.3189 59.0587 47.4174 59.5801 46.728 60.5709C45.8264 61.8225 45.5613 63.3347 45.5613 64.847C45.5613 66.2549 45.8264 67.715 46.728 68.8623C47.4704 69.8009 48.3719 70.2702 49.5386 70.2702L49.4856 70.3745ZM84.2209 22.5037C83.6906 22.5037 83.2133 22.2951 82.8951 21.9301C82.2587 21.2 82.3648 20.1571 83.1072 19.5313C83.7436 18.9577 84.433 18.0712 84.8042 17.289C85.1754 16.559 85.4406 15.7768 85.4936 14.9424C85.5997 13.8995 85.3875 12.9608 84.9633 11.97C84.5921 11.0835 85.0163 10.0928 85.8648 9.72772C86.7663 9.3627 87.7739 9.77987 88.1452 10.6142C88.7815 12.0743 89.0467 13.5866 88.8876 15.2031C88.7815 16.4547 88.3573 17.7062 87.7739 18.8013C87.1906 19.8964 86.236 21.2522 85.2815 22.0344C84.9633 22.2951 84.5921 22.4516 84.1678 22.4516L84.2209 22.5037ZM100.873 47.4299C100.66 46.5956 99.3347 46.0219 98.6453 45.8134C97.7438 45.6048 97.1604 44.6661 97.3726 43.7275C97.5847 42.841 98.5392 42.2674 99.4938 42.476C101.986 43.1017 104.426 44.979 104.373 47.7428C104.32 49.0986 103.312 49.9851 102.198 50.6109C97.9559 52.8532 87.827 53.2182 83.0011 53.2182C78.0162 53.2182 67.7282 52.801 63.4327 50.1937C62.213 49.4636 61.2054 48.3164 61.2585 46.8563C61.3115 44.3533 63.4327 42.5281 65.8191 42.1631C66.7737 42.0066 67.6752 42.6324 67.7813 43.571C67.9404 44.5097 67.304 45.344 66.3494 45.5005C65.607 45.6048 64.7055 46.1262 64.6524 46.9084C64.7055 47.0127 65.0767 47.2213 65.1827 47.3256C68.7358 49.4636 78.7587 49.7765 82.9481 49.7765C86.9785 49.7765 97.0013 49.4636 100.501 47.5864C100.554 47.5342 100.714 47.4821 100.82 47.3778L100.873 47.4299ZM103.736 59.528V62.3961H108.35C108.827 62.3961 109.198 62.7611 109.198 63.2304V65.1077C109.198 65.577 108.827 65.9421 108.35 65.9421H103.736V70.1659H110.418C110.895 70.1659 111.267 70.531 111.267 71.0003V72.9819C111.267 73.4512 110.895 73.8162 110.418 73.8162H100.66C100.183 73.8162 99.812 73.4512 99.812 72.9819V56.7642C99.812 56.2949 100.183 55.9299 100.66 55.9299H110.524C111.002 55.9299 111.373 56.2949 111.373 56.7642V58.7458C111.373 59.2151 111.002 59.5801 110.524 59.5801H103.736V59.528ZM143.456 53.5832C144.411 53.5832 145.206 54.3654 145.206 55.3041V69.0187C145.206 69.9574 144.411 70.7396 143.456 70.7396C142.502 70.7396 141.706 69.9574 141.706 69.0187V55.3041C141.706 54.3654 142.502 53.5832 143.456 53.5832ZM117.1 62.4482H121.714C122.191 62.4482 122.562 62.8132 122.562 63.2826V65.1598C122.562 65.6292 122.191 65.9942 121.714 65.9942H117.1V70.2181H123.782C124.259 70.2181 124.63 70.5831 124.63 71.0524V73.034C124.63 73.5033 124.259 73.8684 123.782 73.8684H114.024C113.547 73.8684 113.176 73.5033 113.176 73.034V56.8164C113.176 56.347 113.547 55.982 114.024 55.982H123.888C124.365 55.982 124.737 56.347 124.737 56.8164V58.7979C124.737 59.2673 124.365 59.6323 123.888 59.6323H117.1V62.5004V62.4482ZM83.0542 91.0768L132.532 76.8929C134.441 76.3714 136.881 75.2763 136.881 73.034V52.436C136.881 50.3501 135.131 48.6293 133.009 48.6293H107.289C106.335 48.6293 105.539 47.8471 105.539 46.9084C105.539 45.9698 106.335 45.1876 107.289 45.1876H133.009C137.04 45.1876 140.328 48.4207 140.328 52.3839V72.9819C140.328 76.945 137.04 79.1352 133.487 80.126L83.5315 94.4664C83.3724 94.5185 83.2133 94.5185 83.0542 94.5185C82.8951 94.5185 82.736 94.5185 82.5769 94.4664L32.6217 80.126C29.0687 79.1352 25.7807 76.945 25.7807 72.9819V52.3839C25.7807 48.4207 29.0687 45.1876 33.099 45.1876H58.2357C59.1902 45.1876 59.9857 45.9698 59.9857 46.9084C59.9857 47.8471 59.1902 48.6293 58.2357 48.6293H33.099C30.9778 48.6293 29.2277 50.3501 29.2277 52.436V73.034C29.2277 75.3285 31.7202 76.3714 33.5763 76.8929L83.0542 91.0768ZM70.3798 78.8745C70.9631 79.1352 71.4934 79.5002 71.8116 80.0739C72.1298 80.5953 72.2359 81.1689 72.2359 81.7947C72.2359 82.6291 71.8646 83.307 71.2813 83.8284C70.5919 84.402 69.7434 84.6106 68.8949 84.6106C68.0994 84.6106 67.357 84.4542 66.7206 83.9849C66.4025 83.7763 66.2434 83.3591 66.4025 82.9941L66.7737 82.0554C66.8797 81.7947 67.0388 81.6383 67.304 81.5861C67.5691 81.534 67.7813 81.534 67.9934 81.6904C68.1525 81.7947 68.3116 81.8468 68.4707 81.9511C68.6298 82.0033 68.8419 82.0554 69.001 82.0554C69.1601 82.0554 69.3192 82.0554 69.4252 81.9511C69.4783 81.899 69.5313 81.7947 69.5313 81.7426C69.5313 81.6383 69.4783 81.534 69.4783 81.4818C69.3722 81.3775 68.9479 81.1689 68.7888 81.0646L68.1525 80.8039C67.5691 80.5432 67.0388 80.1781 66.7206 79.6567C66.4025 79.1874 66.2964 78.6137 66.2964 78.0401C66.2964 77.2579 66.5616 76.58 67.1449 76.0585C67.7282 75.5371 68.4707 75.2763 69.2661 75.2763C70.0086 75.2763 70.9631 75.3806 71.5465 75.85C71.8116 76.0585 71.9177 76.4236 71.8116 76.7365L71.4934 77.623C71.3874 77.8837 71.2283 78.0401 70.9631 78.1444C70.698 78.2487 70.4328 78.1966 70.2207 78.0401C70.1146 77.988 69.9025 77.8837 69.7964 77.8837C69.6373 77.8315 69.4252 77.7794 69.2661 77.7794C69.2131 77.7794 69.054 77.7794 69.001 77.8315C68.9479 77.8837 68.9479 77.9358 68.9479 78.0401C68.9479 78.0923 68.9479 78.1444 69.001 78.2487C69.001 78.3009 69.054 78.3009 69.054 78.353C69.2131 78.4573 69.5313 78.6137 69.6904 78.718L70.3268 79.0309L70.3798 78.8745ZM83.0542 96.0829L107.289 89.1474C108.191 88.8867 109.145 89.4081 109.464 90.2946C109.729 91.1811 109.198 92.1198 108.297 92.4327L83.5845 99.5246C83.4254 99.5768 83.2663 99.5768 83.1072 99.5768C82.9481 99.5768 82.789 99.5768 82.6299 99.5246L70.4328 96.0308C69.5313 95.7701 69.001 94.8314 69.2661 93.8928C69.5313 93.0063 70.4858 92.4848 71.4404 92.7455L83.1072 96.0829H83.0542ZM96.0468 81.6383V83.672C96.0468 84.1413 95.6756 84.5063 95.1983 84.5063H94.1377C93.6604 84.5063 93.2892 84.1413 93.2892 83.672V76.1628C93.2892 75.7457 93.6604 75.3806 94.0846 75.3806C94.5619 75.3806 95.0392 75.3285 95.5695 75.3285C97.5847 75.3285 99.7059 75.9543 99.7059 78.3009C99.7059 80.5953 98.221 81.6383 95.9937 81.6383H96.0468ZM90.3194 76.5279C91.1149 77.4665 91.327 78.6659 91.327 79.8653C91.327 81.0646 91.0619 82.3162 90.3194 83.2548C89.577 84.1935 88.4633 84.6106 87.2436 84.6106C86.0239 84.6106 85.0163 84.1413 84.3269 83.1505C83.6375 82.1597 83.3724 81.0125 83.3724 79.8653C83.3724 78.718 83.6375 77.623 84.38 76.6843C85.0694 75.7457 86.077 75.2763 87.2967 75.2763C88.5164 75.2763 89.577 75.6414 90.3725 76.58L90.3194 76.5279ZM78.6526 78.353V76.1628C78.6526 75.6935 79.0238 75.3285 79.5011 75.3285H80.5617C81.039 75.3285 81.4102 75.6935 81.4102 76.1628V83.672C81.4102 84.1413 81.039 84.5063 80.5617 84.5063H79.5011C79.0238 84.5063 78.6526 84.1413 78.6526 83.672V80.8561H76.9556V83.672C76.9556 84.1413 76.5844 84.5063 76.1071 84.5063H75.0465C74.5692 84.5063 74.198 84.1413 74.198 83.672V76.1628C74.198 75.6935 74.5692 75.3285 75.0465 75.3285H76.1071C76.5844 75.3285 76.9556 75.6935 76.9556 76.1628V78.353H78.6526ZM22.6519 53.5832C23.6065 53.5832 24.4019 54.3654 24.4019 55.3041V68.2887C24.4019 69.2273 23.6065 70.0095 22.6519 70.0095C21.6973 70.0095 20.9019 69.2273 20.9019 68.2887V55.3041C20.9019 54.3654 21.6973 53.5832 22.6519 53.5832ZM90.6376 59.528V62.3961H95.6225C96.0998 62.3961 96.471 62.7611 96.471 63.2304V65.1077C96.471 65.577 96.0998 65.9421 95.6225 65.9421H90.6376V72.9819C90.6376 73.4512 90.2664 73.8162 89.7891 73.8162H87.5618C87.0845 73.8162 86.7133 73.4512 86.7133 72.9819V56.7642C86.7133 56.2949 87.0845 55.9299 87.5618 55.9299H97.7438C98.221 55.9299 98.5923 56.2949 98.5923 56.7642V58.7458C98.5923 59.2151 98.221 59.5801 97.7438 59.5801H90.6376V59.528ZM77.539 59.528V62.3961H82.5239C83.0012 62.3961 83.3724 62.7611 83.3724 63.2304V65.1077C83.3724 65.577 83.0012 65.9421 82.5239 65.9421H77.539V72.9819C77.539 73.4512 77.1677 73.8162 76.6905 73.8162H74.4632C73.9859 73.8162 73.6147 73.4512 73.6147 72.9819V56.7642C73.6147 56.2949 73.9859 55.9299 74.4632 55.9299H84.6451C85.1224 55.9299 85.4936 56.2949 85.4936 56.7642V58.7458C85.4936 59.2151 85.1224 59.5801 84.6451 59.5801H77.539V59.528ZM69.6904 58.12C71.2283 59.9452 71.7056 62.3961 71.7056 64.6905C71.7056 67.0893 71.2283 69.5402 69.6904 71.4696C68.2055 73.2948 66.1373 74.0248 63.8039 74.0248C61.5236 74.0248 59.6145 73.1383 58.2357 71.3132C56.8038 69.3837 56.3266 67.0371 56.3266 64.6905C56.3266 62.3961 56.8569 60.1537 58.2887 58.3286C59.6675 56.5556 61.5236 55.617 63.8039 55.617C66.1373 55.617 68.2055 56.2949 69.6904 58.0679V58.12ZM96.0468 77.8315V79.0831C96.2059 79.0831 96.418 79.0831 96.5771 79.0309C96.6831 78.9788 96.7892 78.9788 96.8953 78.8745C97.0544 78.7702 97.0544 78.5616 97.0544 78.4052C97.0544 78.2487 97.0544 78.1444 96.8953 78.0401C96.7892 77.988 96.6301 77.9358 96.524 77.8837C96.365 77.8315 96.2059 77.8315 96.0468 77.8315ZM88.1982 81.5861C88.5164 81.1168 88.6224 80.3867 88.6224 79.8131C88.6224 78.8223 88.5164 77.7272 87.2436 77.7272C86.8724 77.7272 86.6603 77.8315 86.4482 78.1444C86.13 78.6137 86.0769 79.2916 86.0769 79.8131C86.0769 80.3867 86.183 81.0125 86.5012 81.534C86.6603 81.8468 86.8724 82.0033 87.2436 82.0033C87.6679 82.0033 87.933 81.899 88.1982 81.534V81.5861ZM66.6146 69.0709C67.4631 67.8715 67.6752 66.1506 67.6752 64.6905C67.6752 61.9267 67.0388 59.2151 63.7509 59.2151C62.6373 59.2151 61.8418 59.6323 61.2585 60.5188C60.463 61.7182 60.3039 63.2826 60.3039 64.6905C60.3039 66.1506 60.569 67.6629 61.3115 68.9666C61.8948 69.9052 62.6373 70.4267 63.7509 70.4267C64.9706 70.4267 65.9252 70.0617 66.6146 69.0709Z" fill="#282828"/>
</svg>
