<svg width="207" height="61" viewBox="0 0 207 61" fill="none" xmlns="http://www.w3.org/2000/svg">
<path d="M23.1321 20.3008L12.3198 5.2202H5.04227V55.1549H9.77265V10.1768L23.7559 28.2629L43.4051 0H58.5839V42.2889H49.487V55.1549H53.4897V46.7709H58.5839V60.3224H44.3928V42.2889H25.2633L49.487 8.33123V37.1214H53.4897V5.2202H46.0562L24.0158 36.9633L14.9189 25.2046V60.3751H0V0.105459H14.9189L26.251 15.9243L23.184 20.3535L23.1321 20.3008ZM35.1919 37.1214H44.3408V24.3082L35.1919 37.1214V37.1214Z" fill="#EBA707"/>
<path d="M79.331 20.4064H78.0835V25.3102H74.8606V9.86056H79.331C81.2024 9.86056 82.6059 10.3351 83.6456 11.2315C84.6332 12.1279 85.153 13.3934 85.153 14.9753C85.153 16.5572 84.6852 17.8754 83.6975 18.93C82.7619 19.9319 81.3064 20.4592 79.331 20.4592V20.4064ZM78.0835 12.8661V17.4008H79.435C80.9945 17.4008 81.7222 16.6626 81.7222 15.1335C81.7222 14.3425 81.5143 13.8153 81.1504 13.4461C80.7865 13.077 80.1628 12.9189 79.2791 12.9189H78.0835V12.8661ZM90.975 15.819H96.1213V18.8245H90.975V22.2519H96.849V25.2575H87.7522V9.80783H96.7971V12.8134H90.975V15.7662V15.819ZM103.503 25.2575H100.28V9.80783H103.503V16.6626L108.545 9.80783H112.08L106.674 17.0317L112.808 25.2575H108.753L103.451 17.8754V25.2575H103.503ZM123.516 25.2575V12.8134H119.409V15.819C119.409 19.0355 118.993 21.461 118.162 23.0956C117.33 24.7302 116.03 25.5212 114.211 25.5212C113.743 25.5212 113.327 25.4684 113.067 25.363V22.3574C113.535 22.3574 113.847 22.3574 114.003 22.3047C114.939 22.0938 115.563 21.4083 115.823 20.2482C116.082 19.1409 116.238 17.1899 116.238 14.448V9.7551H126.739V25.2048H123.516V25.2575ZM138.799 23.1483H133.029L132.093 25.2575H128.714L135.784 9.49145H136.096L143.321 25.2575H139.682L138.799 23.1483ZM135.94 16.3463L134.328 20.1428H137.551L135.992 16.3463H135.94ZM148.259 9.43872L153.406 19.5628L158.552 9.43872H159.02L163.074 25.2048H159.695L157.616 17.4008L153.51 25.2048H153.042L148.987 17.3481L146.908 25.2048H143.685L147.74 9.43872H148.207H148.259ZM174.874 18.6136H168.636V25.2048H165.414V9.7551H168.636V15.6081H174.874V9.7551H178.097V25.2048H174.874V18.6136ZM190.157 23.0956H184.387L183.451 25.2048H180.072L187.142 9.43872H187.454L194.679 25.2048H191.041L190.157 23.0956ZM187.298 16.2935L185.687 20.09H188.909L187.35 16.2935H187.298ZM203.776 25.1521V19.9319H202.321L199.15 25.1521H195.147L199.046 19.0882C198.214 18.8773 197.59 18.35 197.071 17.559C196.551 16.7681 196.291 15.8717 196.291 14.8698C196.291 13.2352 196.811 11.917 197.798 11.0206C198.838 10.1242 200.086 9.64964 201.645 9.64964H206.999V25.0993H203.776V25.1521ZM203.776 16.9263V12.7079H201.853C201.177 12.7079 200.657 12.8661 200.242 13.2352C199.878 13.6043 199.67 14.1316 199.67 14.8171C199.67 15.3971 199.878 15.9244 200.242 16.2935C200.605 16.6626 201.125 16.8736 201.801 16.8736H203.724L203.776 16.9263ZM78.0315 50.4094H74.8086V34.9597H78.0315V41.8145L83.0738 34.9597H86.6085L81.2024 42.1836L87.3363 50.4094H83.2817L77.9795 43.0273V50.4094H78.0315ZM91.7028 42.7109C91.7028 44.0292 92.1187 45.2419 92.9504 46.2438C93.7821 47.2456 94.9777 47.7729 96.4852 47.7729C97.8367 47.7729 98.9803 47.2984 99.864 46.3492C100.748 45.4001 101.216 44.1873 101.216 42.7637C101.216 41.4454 100.8 40.2854 99.916 39.2835C99.0843 38.2817 97.9407 37.7544 96.4332 37.7544C95.0297 37.7544 93.8861 38.2289 93.0024 39.1781C92.1187 40.1272 91.6508 41.34 91.6508 42.8164L91.7028 42.7109ZM88.324 42.7109C88.324 40.4963 89.0517 38.5453 90.6112 37.0162C92.1706 35.4343 94.146 34.6961 96.5371 34.6961C97.8367 34.6961 99.0323 34.9597 100.124 35.4343C101.216 35.9088 102.099 36.5416 102.723 37.3853C104.023 38.9671 104.646 40.7599 104.646 42.7637C104.646 45.031 103.867 46.9293 102.359 48.4584C100.852 50.0403 98.9283 50.7785 96.5371 50.7785C94.042 50.7785 92.0667 49.9876 90.5592 48.4584C89.1037 46.8765 88.324 44.9783 88.324 42.7637V42.7109ZM111.196 34.6433L116.342 44.7674L121.489 34.6433H121.956L126.011 50.4094H122.632L120.553 42.6055L116.446 50.4094H115.978L111.924 42.5527L109.845 50.4094H106.622L110.676 34.6433H111.144H111.196ZM138.643 37.9653H132.353V50.4094H129.13V34.9597H141.918V50.4094H138.695V37.9653H138.643ZM154.653 48.3002H148.883L147.948 50.4094H144.569L151.638 34.6433H151.95L159.176 50.4094H155.537L154.653 48.3002ZM151.794 41.4982L150.183 45.2947H153.406L151.846 41.4982H151.794ZM171.339 43.8182H165.102V50.4094H161.879V34.9597H165.102V40.8127H171.339V34.9597H174.562V50.4094H171.339V43.8182ZM188.754 50.4094V41.7618L179.709 50.7785H179.241V35.0124H182.464V43.6601L191.561 34.6433H192.028V50.4094H188.805H188.754ZM203.776 50.4094V45.1892H202.321L199.15 50.4094H195.147L199.046 44.3455C198.214 44.1346 197.59 43.6073 197.071 42.8164C196.551 42.0254 196.291 41.129 196.291 40.1272C196.291 38.4926 196.811 37.1743 197.798 36.2779C198.838 35.3815 200.086 34.907 201.645 34.907H206.999V50.3567H203.776V50.4094ZM203.776 42.1836V37.9653H201.853C201.177 37.9653 200.657 38.1235 200.242 38.4926C199.878 38.8617 199.67 39.389 199.67 40.0745C199.67 40.6545 199.878 41.1818 200.242 41.5509C200.605 41.92 201.125 42.1309 201.801 42.1309H203.724L203.776 42.1836Z" fill="#FEFEFE"/>
</svg>
