<svg width="16" height="16" viewBox="0 0 16 16" fill="none" xmlns="http://www.w3.org/2000/svg">
<path d="M2.96873 0C2.18232 0.00306448 1.42899 0.316824 0.872906 0.872906C0.316824 1.42899 0.00306448 2.18232 0 2.96873V13.0313C0.00306448 13.8177 0.316824 14.571 0.872906 15.1271C1.42899 15.6832 2.18232 15.9969 2.96873 16H13.0313C13.8177 15.9969 14.571 15.6832 15.1271 15.1271C15.6832 14.571 15.9969 13.8177 16 13.0313V2.96873C15.9969 2.18232 15.6832 1.42899 15.1271 0.872906C14.571 0.316824 13.8177 0.00306448 13.0313 0H2.96873ZM2.96873 1.45455H13.0313C13.8749 1.45455 14.5455 2.12509 14.5455 2.96873V13.0313C14.5455 13.8749 13.8749 14.5455 13.0313 14.5455H2.96873C2.76953 14.5467 2.57207 14.5084 2.38779 14.4328C2.20352 14.3571 2.0361 14.2456 1.89524 14.1048C1.75438 13.9639 1.6429 13.7965 1.56725 13.6122C1.4916 13.4279 1.45329 13.2305 1.45455 13.0313V2.96873C1.45455 2.12509 2.12509 1.45455 2.96873 1.45455Z" fill="white"/>
<path d="M10.9873 4.44643L3.89964 7.41367C3.61443 7.55185 3.51796 7.82857 3.83071 7.97875L5.64899 8.60608L10.0454 5.65632C10.2854 5.47114 10.5312 5.52052 10.3197 5.72423L6.5438 9.43586L6.42519 11.0066C6.53505 11.2491 6.73621 11.2503 6.86452 11.1297L7.90917 10.0566L9.69831 11.5111C10.1139 11.7782 10.34 11.6058 10.4294 11.1163L11.6029 5.08362C11.7247 4.48106 11.517 4.21556 10.9873 4.44643V4.44643Z" fill="white"/>
</svg>
