<svg width="16" height="16" viewBox="0 0 16 16" fill="none" xmlns="http://www.w3.org/2000/svg">
<path d="M13.6625 2.32604C12.9256 1.58572 12.0482 0.998791 11.0812 0.599453C10.1142 0.200115 9.07702 -0.00364427 8.03013 4.93304e-05C3.64339 4.93304e-05 0.0683074 3.55804 0.0642893 7.92603C0.0642893 9.32503 0.431944 10.686 1.12607 11.891L0 16L4.223 14.898C5.39126 15.5309 6.70008 15.8627 8.03013 15.863H8.03415C12.4219 15.863 15.996 12.305 16 7.93303C16.001 6.89108 15.7949 5.85922 15.3935 4.89692C14.9922 3.93461 14.4035 3.06087 13.6615 2.32604H13.6625ZM8.03013 14.521C6.84379 14.5214 5.67926 14.2036 4.65896 13.601L4.41788 13.457L1.91261 14.111L2.58162 11.678L2.42491 11.427C1.76173 10.3774 1.411 9.16206 1.41336 7.92203C1.41336 4.29604 4.38373 1.33805 8.03415 1.33805C8.90381 1.33649 9.76517 1.50632 10.5686 1.83774C11.372 2.16915 12.1016 2.6556 12.7152 3.26904C13.331 3.88009 13.8192 4.60646 14.1516 5.40627C14.484 6.20607 14.6541 7.06348 14.6519 7.92903C14.6479 11.568 11.6775 14.521 8.03013 14.521V14.521ZM11.6615 9.58703C11.4636 9.48803 10.4862 9.00903 10.3024 8.94103C10.1195 8.87603 9.98593 8.84203 9.85535 9.04003C9.72174 9.23703 9.34003 9.68603 9.22551 9.81503C9.111 9.94803 8.99246 9.96303 8.79357 9.86503C8.59568 9.76503 7.95379 9.55703 7.19437 8.88003C6.60171 8.35503 6.20492 7.70503 6.08639 7.50803C5.97187 7.31003 6.07534 7.20403 6.17478 7.10503C6.26218 7.01703 6.37268 6.87303 6.47212 6.75903C6.57257 6.64503 6.60572 6.56103 6.67102 6.42903C6.73631 6.29503 6.70517 6.18103 6.65595 6.08204C6.60572 5.98304 6.20894 5.00604 6.04118 4.61204C5.88046 4.22304 5.71672 4.27704 5.59417 4.27204C5.47966 4.26504 5.34606 4.26504 5.21245 4.26504C5.11156 4.26754 5.01228 4.29077 4.92084 4.33327C4.82939 4.37578 4.74776 4.43664 4.68106 4.51204C4.49824 4.71004 3.98694 5.18904 3.98694 6.16604C3.98694 7.14303 4.70015 8.08203 4.8006 8.21503C4.89904 8.34803 6.2009 10.347 8.19889 11.207C8.67102 11.412 9.04269 11.533 9.333 11.625C9.81014 11.777 10.2411 11.754 10.5846 11.705C10.9663 11.647 11.7609 11.225 11.9287 10.762C12.0934 10.298 12.0934 9.90203 12.0432 9.81903C11.994 9.73503 11.8604 9.68603 11.6615 9.58703V9.58703Z" fill="white"/>
</svg>
