<svg width="112" height="134" viewBox="0 0 112 134" fill="none" xmlns="http://www.w3.org/2000/svg">
<path fill-rule="evenodd" clip-rule="evenodd" d="M21.8555 0L109.679 12.8813C110.952 13.0311 111.925 14.8285 111.925 16.7756L112 118.703C112 120.65 110.952 122.372 109.754 122.522L22.0801 133.98C20.2084 134.205 18.6361 132.482 18.6361 130.086L18.4863 3.96923C18.4863 1.57271 20.0586 -0.224674 21.9304 0.0748912L21.8555 0ZM99.871 85.9751C99.7962 89.0456 99.4218 91.8166 98.5982 94.3629C97.7747 96.8343 96.7265 99.081 95.3788 101.103C93.9562 103.05 92.3091 104.848 90.4373 106.345C88.4907 107.843 86.3194 109.116 83.9235 110.24C81.5277 111.288 78.9072 112.187 76.137 112.786C73.2919 113.46 70.1473 113.835 66.5535 114.134L41.4717 115.857C39.7497 116.006 38.3271 115.557 37.1292 114.658C35.9313 113.76 35.3323 112.187 35.3323 109.94V22.018C35.3323 19.6964 35.9313 18.0488 37.1292 17.225C38.3271 16.4012 39.8245 16.0267 41.5466 16.3263L65.8048 19.7713C71.3452 20.5951 75.9123 21.7184 79.581 23.2163C83.1748 24.7141 86.1697 26.5115 88.5655 28.7582C90.9614 30.9301 92.6834 33.5512 93.8814 36.5469C95.0793 39.5425 95.6783 42.9126 95.6034 46.807C95.6034 48.9788 95.3039 50.926 94.7798 52.7983C94.2557 54.6706 93.507 56.3182 92.5337 57.816C91.5604 59.3138 90.3624 60.6618 88.9399 61.7852C87.5173 62.9086 85.8702 63.8073 84.0733 64.4813C86.3943 65.0804 88.5655 65.9791 90.5122 67.1774C92.4588 68.3756 94.106 69.9483 95.4537 71.7457C96.8762 73.5431 97.9244 75.715 98.6731 78.0366C99.4218 80.4331 99.7962 83.0543 99.7962 86.0499L99.871 85.9751ZM78.9821 47.481C78.9821 45.6087 78.7574 43.9611 78.2333 42.3884C77.7092 40.8906 76.9605 39.5425 75.8375 38.4192C74.7893 37.2958 73.3667 36.3971 71.7196 35.7231C70.0724 35.0491 67.8263 34.5248 64.9063 34.1504L55.3228 33.1019L55.1731 58.4151L65.7299 59.0142C68.3504 59.164 70.4468 58.9394 72.0191 58.3402C73.5913 57.816 74.8641 56.9922 75.8375 55.9437C76.8857 54.8952 77.6344 53.6221 78.0836 52.1991C78.6077 50.7013 78.8323 49.2035 78.8323 47.481H78.9821ZM83.0251 86.724C83.0251 84.627 82.7256 82.7547 82.1266 81.1071C81.5277 79.4595 80.5543 78.0366 79.2815 76.9132C78.0087 75.7899 76.4364 74.8912 74.4149 74.2171C72.3934 73.5431 69.6981 73.1687 66.4037 73.0938L55.248 72.7942L55.0982 100.055L68.575 99.6053C71.0457 99.5304 73.1421 99.1559 74.8641 98.5568C76.5113 97.9576 77.9339 97.1338 79.2067 96.0105C80.4046 94.962 81.3779 93.614 82.0518 92.0412C82.7256 90.4685 83.1 88.6711 83.1 86.724H83.0251Z" fill="white"/>
<path fill-rule="evenodd" clip-rule="evenodd" d="M1.87177 4.84559L11.0475 0.984341C12.0208 0.759667 12.8444 1.95793 12.8444 3.23108L13.3685 131.52C13.3685 132.718 12.6198 134.066 11.5716 133.766L2.321 129.68C1.27281 129.381 0.524097 128.707 0.524097 127.434L0 7.16721C0 5.96896 0.82358 5.22004 1.7969 4.92048L1.87177 4.84559Z" fill="#EBA707"/>
</svg>
