<svg width="50" height="50" viewBox="0 0 50 50" fill="none" xmlns="http://www.w3.org/2000/svg">
<circle cx="25" cy="25" r="25" fill="#7A7A7A"/>
<path d="M34.0068 15.7502C31.5162 13.3759 28.1698 12.0684 24.5842 12.0684C21.2424 12.0684 17.9112 13.1872 15.4448 15.138C12.712 17.2995 11.207 20.3267 11.207 23.6621C11.207 27.012 12.0717 29.173 13.9282 30.4633C15.4871 31.5468 17.7371 32.009 21.4513 32.009H23.1076C23.4951 32.0095 23.8666 32.1638 24.1406 32.4381C24.4145 32.7124 24.5687 33.0843 24.5691 33.4722V36.1468C24.5691 36.6198 24.7568 37.0735 25.0909 37.408C25.425 37.7425 25.8782 37.9304 26.3507 37.9304H26.3525L31.4053 37.9255C31.8026 37.9247 32.1882 37.7913 32.5013 37.5465C33.0428 37.1217 34.4348 35.9078 35.6637 33.8175C37.1684 31.2572 37.9312 28.2905 37.9312 24.9998C37.9312 21.4475 36.5375 18.1625 34.0068 15.7502ZM34.1278 32.9131C33.0533 34.7409 31.8639 35.7807 31.4035 36.1419L26.3507 36.1468V33.4722C26.3497 32.6114 26.0077 31.7861 25.3998 31.1774C24.7918 30.5687 23.9674 30.2264 23.1076 30.2254H21.4513C18.128 30.2254 16.182 29.8583 14.9442 28.9981C13.5918 28.0582 12.9886 26.4125 12.9886 23.6621C12.9886 17.5215 18.8847 13.852 24.5842 13.852C31.0695 13.852 36.1496 18.7488 36.1496 24.9998C36.1496 27.9681 35.4693 30.6306 34.1278 32.9131Z" fill="white"/>
<path d="M17.442 19.2036C16.8254 19.2036 16.2226 19.3867 15.7099 19.7297C15.1971 20.0727 14.7975 20.5602 14.5615 21.1305C14.3256 21.7009 14.2638 22.3285 14.3841 22.934C14.5044 23.5395 14.8014 24.0957 15.2374 24.5322C15.6734 24.9687 16.229 25.266 16.8338 25.3865C17.4386 25.5069 18.0655 25.4451 18.6352 25.2088C19.2049 24.9726 19.6918 24.5725 20.0344 24.0592C20.377 23.5459 20.5599 22.9424 20.5599 22.325C20.5589 21.4975 20.2301 20.7041 19.6456 20.1189C19.0611 19.5338 18.2686 19.2046 17.442 19.2036ZM17.442 23.6628C17.1778 23.6628 16.9194 23.5843 16.6997 23.4373C16.4799 23.2903 16.3087 23.0814 16.2075 22.837C16.1064 22.5925 16.0799 22.3236 16.1315 22.0641C16.1831 21.8046 16.3103 21.5662 16.4972 21.3791C16.6841 21.192 16.9222 21.0646 17.1814 21.013C17.4406 20.9614 17.7092 20.9879 17.9534 21.0891C18.1975 21.1904 18.4062 21.3618 18.5531 21.5818C18.6999 21.8018 18.7782 22.0605 18.7782 22.325C18.7778 22.6797 18.6369 23.0197 18.3864 23.2705C18.1359 23.5213 17.7963 23.6624 17.442 23.6628ZM23.6777 15.1904C23.061 15.1904 22.4582 15.3735 21.9455 15.7165C21.4328 16.0595 21.0332 16.547 20.7972 17.1173C20.5612 17.6877 20.4995 18.3153 20.6198 18.9208C20.7401 19.5263 21.037 20.0824 21.473 20.519C21.9091 20.9555 22.4646 21.2528 23.0694 21.3732C23.6742 21.4937 24.3011 21.4319 24.8708 21.1956C25.4405 20.9594 25.9274 20.5593 26.27 20.046C26.6126 19.5327 26.7955 18.9292 26.7955 18.3118C26.7945 17.4843 26.4658 16.6909 25.8813 16.1057C25.2968 15.5205 24.5043 15.1914 23.6777 15.1904ZM23.6777 19.6496C23.4134 19.6496 23.1551 19.5711 22.9353 19.4241C22.7156 19.2771 22.5443 19.0682 22.4432 18.8238C22.342 18.5793 22.3156 18.3103 22.3671 18.0508C22.4187 17.7913 22.546 17.553 22.7328 17.3659C22.9197 17.1788 23.1578 17.0514 23.417 16.9998C23.6762 16.9482 23.9449 16.9747 24.189 17.0759C24.4332 17.1772 24.6419 17.3486 24.7887 17.5686C24.9355 17.7886 25.0139 18.0472 25.0139 18.3118C25.0135 18.6665 24.8726 19.0065 24.6221 19.2573C24.3716 19.5081 24.0319 19.6492 23.6777 19.6496ZM30.3587 18.3118C29.7421 18.3118 29.1393 18.4949 28.6265 18.8379C28.1138 19.1809 27.7142 19.6683 27.4782 20.2387C27.2422 20.8091 27.1805 21.4367 27.3008 22.0422C27.4211 22.6477 27.718 23.2038 28.1541 23.6404C28.5901 24.0769 29.1457 24.3742 29.7505 24.4946C30.3552 24.6151 30.9821 24.5533 31.5518 24.317C32.1215 24.0808 32.6085 23.6807 32.9511 23.1674C33.2937 22.6541 33.4765 22.0506 33.4765 21.4332C33.4756 20.6057 33.1468 19.8123 32.5623 19.2271C31.9778 18.6419 31.1853 18.3128 30.3587 18.3118ZM30.3587 22.771C30.0944 22.771 29.8361 22.6925 29.6163 22.5455C29.3966 22.3985 29.2253 22.1896 29.1242 21.9451C29.0231 21.7007 28.9966 21.4317 29.0482 21.1722C29.0997 20.9127 29.227 20.6744 29.4139 20.4873C29.6007 20.3002 29.8388 20.1728 30.098 20.1212C30.3572 20.0696 30.6259 20.0961 30.87 20.1973C31.1142 20.2986 31.3229 20.47 31.4697 20.69C31.6165 20.91 31.6949 21.1686 31.6949 21.4332C31.6945 21.7879 31.5536 22.1279 31.3031 22.3787C31.0526 22.6295 30.713 22.7706 30.3587 22.771ZM31.2495 25.8923C30.6329 25.8923 30.0301 26.0754 29.5173 26.4184C29.0046 26.7614 28.605 27.2489 28.369 27.8192C28.133 28.3896 28.0713 29.0172 28.1916 29.6227C28.3119 30.2282 28.6088 30.7844 29.0449 31.2209C29.4809 31.6574 30.0365 31.9547 30.6413 32.0752C31.2461 32.1956 31.8729 32.1338 32.4426 31.8975C33.0124 31.6613 33.4993 31.2612 33.8419 30.7479C34.1845 30.2346 34.3673 29.6311 34.3673 29.0137C34.3664 28.1862 34.0376 27.3928 33.4531 26.8076C32.8686 26.2225 32.0761 25.8933 31.2495 25.8923ZM31.2495 30.3515C30.9852 30.3515 30.7269 30.273 30.5072 30.126C30.2874 29.979 30.1162 29.7701 30.015 29.5257C29.9139 29.2812 29.8874 29.0123 29.939 28.7528C29.9905 28.4933 30.1178 28.2549 30.3047 28.0678C30.4915 27.8807 30.7296 27.7533 30.9888 27.7017C31.248 27.6501 31.5167 27.6766 31.7609 27.7778C32.005 27.8791 32.2137 28.0505 32.3605 28.2705C32.5073 28.4905 32.5857 28.7492 32.5857 29.0137C32.5853 29.3684 32.4444 29.7084 32.1939 29.9592C31.9434 30.21 31.6038 30.3511 31.2495 30.3515Z" fill="white"/>
</svg>
