<svg width="50" height="50" viewBox="0 0 50 50" fill="none" xmlns="http://www.w3.org/2000/svg">
<circle cx="25" cy="25" r="25" fill="#7A7A7A"/>
<path d="M31.4984 19.5029C32.0652 18.9386 32.0652 18.0189 31.4984 17.4546L29.4128 15.3674L29.4158 15.3704C28.8639 14.818 27.9151 13.8685 26.5725 12.5278C25.94 11.9098 24.9166 11.9157 24.2901 12.5428L12.5408 24.2923C12.3904 24.4417 12.2711 24.6194 12.1897 24.8151C12.1083 25.0109 12.0664 25.2208 12.0664 25.4329C12.0664 25.6449 12.1083 25.8549 12.1897 26.0506C12.2711 26.2464 12.3904 26.4241 12.5408 26.5735L24.2871 38.32C24.5899 38.6226 25.0004 38.7925 25.4283 38.7925C25.8562 38.7925 26.2667 38.6226 26.5695 38.32L31.4954 33.3933C32.0623 32.8289 32.0623 31.9093 31.4954 31.3449C31.2231 31.0738 30.8546 30.9216 30.4705 30.9216C30.0864 30.9216 29.7179 31.0738 29.4457 31.3449L25.7162 35.0833C25.5611 35.2386 25.3194 35.2386 25.1642 35.0833L15.7809 25.7016C15.6258 25.5463 15.6258 25.3045 15.7809 25.1492L25.1613 15.7675C25.1732 15.7556 25.1881 15.7466 25.2 15.7347C25.3552 15.6123 25.57 15.6242 25.7132 15.7675L29.4486 19.5029C30.0155 20.0702 30.9345 20.0702 31.4984 19.5029ZM22.3179 25.4926C22.3179 26.3336 22.6521 27.1402 23.2468 27.7348C23.8416 28.3295 24.6483 28.6636 25.4895 28.6636C26.3306 28.6636 27.1373 28.3295 27.7321 27.7348C28.3268 27.1402 28.661 26.3336 28.661 25.4926C28.661 24.6516 28.3268 23.845 27.7321 23.2503C27.1373 22.6557 26.3306 22.3216 25.4895 22.3216C24.6483 22.3216 23.8416 22.6557 23.2468 23.2503C22.6521 23.845 22.3179 24.6516 22.3179 25.4926ZM38.3158 24.34L34.649 20.6883C34.0821 20.124 33.1632 20.124 32.5993 20.6913C32.4645 20.8256 32.3576 20.9852 32.2846 21.1609C32.2116 21.3367 32.1741 21.5251 32.1741 21.7154C32.1741 21.9058 32.2116 22.0942 32.2846 22.27C32.3576 22.4457 32.4645 22.6053 32.5993 22.7396L35.0757 25.2149C35.2308 25.3702 35.2308 25.612 35.0757 25.7673L32.6351 28.2068C32.5003 28.3411 32.3934 28.5007 32.3204 28.6764C32.2474 28.8522 32.2099 29.0406 32.2099 29.2309C32.2099 29.4213 32.2474 29.6097 32.3204 29.7855C32.3934 29.9612 32.5003 30.1208 32.6351 30.2551C32.9074 30.5262 33.2759 30.6784 33.66 30.6784C34.0441 30.6784 34.4125 30.5262 34.6848 30.2551L38.3188 26.6213C38.4686 26.4715 38.5874 26.2935 38.6683 26.0977C38.7493 25.9019 38.7908 25.692 38.7905 25.48C38.7903 25.2681 38.7482 25.0583 38.6667 24.8627C38.5853 24.6671 38.466 24.4894 38.3158 24.34Z" fill="white"/>
</svg>
