<svg width="50" height="50" viewBox="0 0 50 50" fill="none" xmlns="http://www.w3.org/2000/svg">
<circle cx="25" cy="25" r="25" fill="#7A7A7A"/>
<path fill-rule="evenodd" clip-rule="evenodd" d="M32.7872 10.8136L33.4193 10.335L33.4224 10.3397L33.4303 10.3509L33.4619 10.3932C33.6415 10.6378 33.8175 10.8851 33.9897 11.135C34.4225 11.7567 34.8383 12.3904 35.2366 13.0351C35.6893 13.7722 36.1523 14.5883 36.5047 15.3588C36.8429 16.0999 37.1329 16.9087 37.1329 17.594C37.1329 20.0285 35.1986 21.9813 32.7872 21.9813C32.2159 21.9833 31.6499 21.8711 31.1218 21.6514C30.5936 21.4316 30.1138 21.1085 29.7098 20.7007C29.3059 20.2929 28.9859 19.8085 28.7682 19.2753C28.5505 18.7421 28.4394 18.1707 28.4414 17.594C28.4414 16.9087 28.7314 16.0999 29.0696 15.3588C29.422 14.5883 29.885 13.7714 30.3378 13.0351C30.8952 12.1318 31.4869 11.2505 32.1116 10.3932L32.1432 10.3509L32.1511 10.3397L32.1551 10.335L32.7872 10.8136ZM31.681 13.8767C32.0353 13.3025 32.4041 12.7375 32.7872 12.1824C33.1702 12.7375 33.5391 13.3025 33.8933 13.8767C34.3295 14.5859 34.7554 15.3405 35.0698 16.0273C35.3978 16.7452 35.5526 17.2821 35.5526 17.594C35.5526 19.1479 34.3263 20.3859 32.7872 20.3859C32.4234 20.3879 32.0629 20.317 31.7265 20.1774C31.3901 20.0379 31.0844 19.8323 30.8272 19.5726C30.57 19.313 30.3664 19.0044 30.2282 18.6648C30.0899 18.3251 30.0197 17.9612 30.0217 17.594C30.0217 17.2821 30.1766 16.7452 30.5045 16.0273C30.8189 15.3405 31.2448 14.5859 31.681 13.8767Z" fill="white"/>
<path d="M32.7884 10.8132L33.4205 10.3345L32.7884 9.4834L32.1562 10.3345L32.7884 10.8132Z" fill="white"/>
<path fill-rule="evenodd" clip-rule="evenodd" d="M23.5535 15.9311L22.923 15.0576L22.2806 15.9191L22.2782 15.9223L22.2719 15.9303L22.2506 15.9598C22.1298 16.1253 22.011 16.2923 21.8942 16.4608C21.6659 16.7894 21.3601 17.2457 21.0535 17.7506C20.7329 18.2685 20.4447 18.8061 20.1907 19.3604C19.9608 19.8789 19.7514 20.4771 19.7514 21.014C19.7522 22.8367 21.0986 24.3747 22.9127 24.3747C24.7269 24.3747 26.0732 22.8367 26.0732 21.0132C26.0732 20.4947 25.8591 19.9052 25.6323 19.4003C25.377 18.8479 25.0903 18.311 24.7735 17.7921C24.3984 17.1697 24.0004 16.5617 23.5804 15.9694L23.559 15.9391L23.5535 15.9311ZM22.9127 16.3977L22.2814 15.9183L22.9127 16.3977ZM22.9048 17.7937C22.7468 18.0314 22.573 18.3002 22.4007 18.5842C22.1161 19.0437 21.8602 19.5205 21.6343 20.0121C21.4194 20.4947 21.3324 20.8321 21.3324 21.0132C21.3324 22.0606 22.072 22.7793 22.9127 22.7793C23.7534 22.7793 24.493 22.0613 24.493 21.0132C24.493 20.864 24.4108 20.5441 24.1927 20.0583C23.9889 19.6037 23.7107 19.0987 23.4223 18.6185C23.2548 18.3405 23.0822 18.0655 22.9048 17.7937ZM15.0114 36.1406V36.3368C15.0114 36.76 14.8449 37.1658 14.5485 37.4649C14.2522 37.7641 13.8502 37.9322 13.4311 37.9322H11.0607C10.6416 37.9322 10.2397 37.7641 9.94332 37.4649C9.64696 37.1658 9.48047 36.76 9.48047 36.3368V27.5662C9.48047 27.1431 9.64696 26.7373 9.94332 26.4381C10.2397 26.1389 10.6416 25.9708 11.0607 25.9708H13.4311C13.787 25.9707 14.1325 26.0918 14.4117 26.3146C14.691 26.5374 14.8875 26.8489 14.9695 27.1985C16.0156 26.818 17.238 26.3649 17.6117 26.1926C17.9293 26.0466 18.296 25.9972 18.601 25.9788C18.9157 25.9634 19.2311 25.969 19.5452 25.9956C19.8968 26.0239 20.2469 26.0686 20.5945 26.1296L20.6126 26.1328L20.6182 26.1336H20.6205L20.6348 26.1368L25.9207 27.3333L25.9531 27.3445L25.9618 27.3477L25.9982 27.3588C26.2262 27.4263 26.4566 27.4856 26.6887 27.5367C27.1431 27.6364 27.7159 27.7297 28.2493 27.7297C28.7423 27.7297 29.2527 27.9156 29.5245 28.4197C29.7584 28.8521 29.7039 29.3275 29.617 29.6562C29.5072 30.0662 29.2812 30.4969 28.9944 30.8631C29.3815 30.7155 29.8058 30.5408 30.2609 30.3526L30.3581 30.3127C31.6405 29.7806 33.1607 29.1504 34.5024 28.9271C36.0352 28.671 37.1501 29.2326 37.6558 30.2289C38.1062 31.1159 38.0019 32.2798 37.3239 32.981C37.154 33.1572 36.8949 33.3423 36.6349 33.5122C36.3568 33.6949 36.0147 33.8999 35.6346 34.1185C34.7615 34.6121 33.8777 35.086 32.9837 35.5399C31.1095 36.4996 29.1453 37.4329 28.5211 37.6634C27.7973 37.9306 27.0198 37.9562 26.2731 37.9171C25.8222 37.8888 25.372 37.8502 24.9228 37.8014C24.5939 37.767 24.2647 37.7364 23.9351 37.7097C22.4118 37.5932 21.2424 37.2175 20.1662 36.8721L20.0351 36.8298C18.9225 36.474 17.8875 36.1574 16.5166 36.1015C16.2037 36.0888 15.5779 36.1127 15.0114 36.1398V36.1406ZM18.2667 27.6444C18.3181 27.6205 18.4524 27.5862 18.6918 27.5718C18.9162 27.5582 19.1722 27.567 19.4227 27.5862C19.7224 27.6105 20.0208 27.6486 20.3171 27.7002H20.3195L25.5083 28.8752L25.5438 28.8864C25.8107 28.9657 26.0804 29.0354 26.3522 29.0954C26.8144 29.1975 27.4346 29.3044 28.066 29.3227C28.0096 29.4763 27.9339 29.6218 27.8408 29.7559C27.7143 29.9409 27.5761 30.0837 27.4623 30.1659C27.1336 30.4036 26.8681 30.5025 26.7069 30.5448C26.652 30.56 26.596 30.5707 26.5394 30.5767H26.522L22.2853 30.5257L22.1352 32.1083L22.2759 31.3233L22.1352 32.1083L22.1771 32.1163L22.298 32.1378L22.7373 32.216C23.1063 32.2814 23.6128 32.3691 24.1643 32.4601C25.2499 32.6387 26.5584 32.8366 27.3011 32.882C27.8147 32.9139 28.412 32.7544 28.9675 32.5669C29.5467 32.3715 30.2017 32.1011 30.8606 31.8283C32.2173 31.2667 33.5992 30.6948 34.7599 30.5009C35.7634 30.3334 36.1213 30.7035 36.2493 30.9564C36.4334 31.3194 36.3339 31.7222 36.1925 31.8674C36.1585 31.9033 36.0344 32.0046 35.7753 32.1745C35.5335 32.3316 35.2214 32.5207 34.8548 32.7305C34.0032 33.2118 33.1412 33.674 32.2695 34.1169C30.3795 35.0845 28.4989 35.9723 27.9775 36.1653C27.5555 36.3217 27.0332 36.3592 26.3545 36.3241C25.9547 36.3003 25.5555 36.266 25.1575 36.2212C24.7903 36.1822 24.4226 36.1481 24.0545 36.1191C22.7175 36.017 21.7014 35.6907 20.6118 35.3413L20.5131 35.3094C19.3848 34.9481 18.1775 34.5723 16.5806 34.5077C16.2211 34.4934 15.5811 34.5157 15.0114 34.5428V28.8784C16.1215 28.4772 17.7666 27.8749 18.2667 27.6444ZM20.4759 26.9185L20.6205 26.1344L20.4759 26.9185ZM13.4311 27.5654H11.0607V36.336H13.4311V27.5662V27.5654Z" fill="white"/>
</svg>
