<svg width="50" height="50" viewBox="0 0 50 50" fill="none" xmlns="http://www.w3.org/2000/svg">
<circle cx="25" cy="25" r="25" fill="#7A7A7A"/>
<path d="M34.8031 17.4756C32.2415 16.1992 28.8548 15.5176 25.0001 15.5176C21.1455 15.5176 17.7588 16.1992 15.1972 17.4756C12.6356 18.752 11.207 20.5736 11.207 22.4572V28.4055C11.207 30.2891 12.6602 32.1108 15.1972 33.3872C17.7341 34.6636 21.1455 35.3452 25.0001 35.3452C28.8548 35.3452 32.2415 34.6636 34.8031 33.3872C37.3647 32.1108 38.7932 30.2891 38.7932 28.4055V22.4572C38.7932 20.5736 37.34 18.752 34.8031 17.4756ZM25.0001 17.5003C32.7095 17.5003 36.8228 20.3753 36.8228 22.4572C36.8228 23.6841 35.3819 25.2083 32.5863 26.2369H32.5494C30.6405 26.9308 28.1159 27.4017 25.0001 27.4017C21.8844 27.4017 19.3597 26.9308 17.4509 26.2369H17.4139C14.6184 25.2083 13.1775 23.6841 13.1775 22.4572C13.1775 20.3753 17.2908 17.5003 25.0001 17.5003ZM24.0149 29.3845V33.35C21.675 33.2633 19.7046 32.9163 18.1036 32.4206V28.5294C19.8647 29.0251 21.8597 29.3101 24.0149 29.3845ZM25.9854 29.3845C28.1405 29.3101 30.1356 29.0251 31.8967 28.5294V32.4206C30.2957 32.9163 28.3253 33.2633 25.9854 33.35V29.3845ZM13.1775 28.4055V26.1129C13.7974 26.6322 14.4752 27.0772 15.1972 27.4389L16.1331 27.8603V31.6275C14.1873 30.6609 13.1775 29.4341 13.1775 28.4055ZM33.8671 31.6275V27.8603L34.8031 27.4389C35.5251 27.0772 36.2029 26.6322 36.8228 26.1129V28.4055C36.8228 29.4341 35.8129 30.6609 33.8671 31.6275Z" fill="white"/>
</svg>
