<svg width="106" height="121" viewBox="0 0 106 121" fill="none" xmlns="http://www.w3.org/2000/svg">
<g clip-path="url(#clip0_1_3166)">
<path fill-rule="evenodd" clip-rule="evenodd" d="M16.8197 111.862C19.3454 111.862 21.3816 113.901 21.3816 116.43C21.3816 118.959 19.3454 120.998 16.8197 120.998C14.294 120.998 12.2578 118.959 12.2578 116.43C12.2578 113.901 14.294 111.862 16.8197 111.862Z" fill="#EBA707"/>
<path fill-rule="evenodd" clip-rule="evenodd" d="M53.0775 111.862C55.6032 111.862 57.6394 113.901 57.6394 116.43C57.6394 118.959 55.6032 120.998 53.0775 120.998C50.5518 120.998 48.5156 118.959 48.5156 116.43C48.5156 113.901 50.5518 111.862 53.0775 111.862Z" fill="#EBA707"/>
<path fill-rule="evenodd" clip-rule="evenodd" d="M65.1595 111.862C67.6852 111.862 69.7214 113.901 69.7214 116.43C69.7214 118.959 67.6852 120.998 65.1595 120.998C62.6339 120.998 60.5977 118.959 60.5977 116.43C60.5977 113.901 62.6339 111.862 65.1595 111.862Z" fill="#EBA707"/>
<path fill-rule="evenodd" clip-rule="evenodd" d="M77.2572 111.862C79.7829 111.862 81.8191 113.901 81.8191 116.43C81.8191 118.959 79.7829 120.998 77.2572 120.998C74.7315 120.998 72.6953 118.959 72.6953 116.43C72.6953 113.901 74.7315 111.862 77.2572 111.862Z" fill="#EBA707"/>
<path fill-rule="evenodd" clip-rule="evenodd" d="M16.8197 99.4531C19.3454 99.4531 21.3816 101.492 21.3816 104.021C21.3816 106.55 19.3454 108.589 16.8197 108.589C14.294 108.589 12.2578 106.55 12.2578 104.021C12.2578 101.492 14.294 99.4531 16.8197 99.4531Z" fill="#EBA707"/>
<path fill-rule="evenodd" clip-rule="evenodd" d="M53.0775 99.4531C55.6032 99.4531 57.6394 101.492 57.6394 104.021C57.6394 106.55 55.6032 108.589 53.0775 108.589C50.5518 108.589 48.5156 106.55 48.5156 104.021C48.5156 101.492 50.5518 99.4531 53.0775 99.4531Z" fill="#EBA707"/>
<path fill-rule="evenodd" clip-rule="evenodd" d="M65.1595 99.4531C67.6852 99.4531 69.7214 101.492 69.7214 104.021C69.7214 106.55 67.6852 108.589 65.1595 108.589C62.6339 108.589 60.5977 106.55 60.5977 104.021C60.5977 101.492 62.6339 99.4531 65.1595 99.4531Z" fill="#EBA707"/>
<path fill-rule="evenodd" clip-rule="evenodd" d="M77.2572 99.4531C79.7829 99.4531 81.8191 101.492 81.8191 104.021C81.8191 106.55 79.7829 108.589 77.2572 108.589C74.7315 108.589 72.6953 106.55 72.6953 104.021C72.6953 101.492 74.7315 99.4531 77.2572 99.4531Z" fill="#EBA707"/>
<path fill-rule="evenodd" clip-rule="evenodd" d="M16.8197 87.0244C19.3454 87.0244 21.3816 89.0633 21.3816 91.5922C21.3816 94.1211 19.3454 96.16 16.8197 96.16C14.294 96.16 12.2578 94.1211 12.2578 91.5922C12.2578 89.0633 14.294 87.0244 16.8197 87.0244Z" fill="#EBA707"/>
<path fill-rule="evenodd" clip-rule="evenodd" d="M53.0775 87.0244C55.6032 87.0244 57.6394 89.0633 57.6394 91.5922C57.6394 94.1211 55.6032 96.16 53.0775 96.16C50.5518 96.16 48.5156 94.1211 48.5156 91.5922C48.5156 89.0633 50.5518 87.0244 53.0775 87.0244Z" fill="#EBA707"/>
<path fill-rule="evenodd" clip-rule="evenodd" d="M65.1595 87.0244C67.6852 87.0244 69.7214 89.0633 69.7214 91.5922C69.7214 94.1211 67.6852 96.16 65.1595 96.16C62.6339 96.16 60.5977 94.1211 60.5977 91.5922C60.5977 89.0633 62.6339 87.0244 65.1595 87.0244Z" fill="#EBA707"/>
<path fill-rule="evenodd" clip-rule="evenodd" d="M77.2572 87.0244C79.7829 87.0244 81.8191 89.0633 81.8191 91.5922C81.8191 94.1211 79.7829 96.16 77.2572 96.16C74.7315 96.16 72.6953 94.1211 72.6953 91.5922C72.6953 89.0633 74.7315 87.0244 77.2572 87.0244Z" fill="#EBA707"/>
<path fill-rule="evenodd" clip-rule="evenodd" d="M16.8197 74.6143C19.3454 74.6143 21.3816 76.6531 21.3816 79.182C21.3816 81.711 19.3454 83.7498 16.8197 83.7498C14.294 83.7498 12.2578 81.711 12.2578 79.182C12.2578 76.6531 14.294 74.6143 16.8197 74.6143Z" fill="#EBA707"/>
<path fill-rule="evenodd" clip-rule="evenodd" d="M16.8197 62.2051C19.3454 62.2051 21.3816 64.2439 21.3816 66.7729C21.3816 69.3018 19.3454 71.3406 16.8197 71.3406C14.294 71.3406 12.2578 69.3018 12.2578 66.7729C12.2578 64.2439 14.294 62.2051 16.8197 62.2051Z" fill="#EBA707"/>
<path fill-rule="evenodd" clip-rule="evenodd" d="M16.8197 49.7764C19.3454 49.7764 21.3816 51.8152 21.3816 54.3441C21.3816 56.8731 19.3454 58.9119 16.8197 58.9119C14.294 58.9119 12.2578 56.8731 12.2578 54.3441C12.2578 51.8152 14.294 49.7764 16.8197 49.7764Z" fill="#EBA707"/>
<path fill-rule="evenodd" clip-rule="evenodd" d="M53.0775 49.7764C55.6032 49.7764 57.6394 51.8152 57.6394 54.3441C57.6394 56.8731 55.6032 58.9119 53.0775 58.9119C50.5518 58.9119 48.5156 56.8731 48.5156 54.3441C48.5156 51.8152 50.5518 49.7764 53.0775 49.7764Z" fill="#EBA707"/>
<path fill-rule="evenodd" clip-rule="evenodd" d="M65.1595 49.7764C67.6852 49.7764 69.7214 51.8152 69.7214 54.3441C69.7214 56.8731 67.6852 58.9119 65.1595 58.9119C62.6339 58.9119 60.5977 56.8731 60.5977 54.3441C60.5977 51.8152 62.6339 49.7764 65.1595 49.7764Z" fill="#EBA707"/>
<path fill-rule="evenodd" clip-rule="evenodd" d="M77.2572 49.7764C79.7829 49.7764 81.8191 51.8152 81.8191 54.3441C81.8191 56.8731 79.7829 58.9119 77.2572 58.9119C74.7315 58.9119 72.6953 56.8731 72.6953 54.3441C72.6953 51.8152 74.7315 49.7764 77.2572 49.7764Z" fill="#EBA707"/>
<path fill-rule="evenodd" clip-rule="evenodd" d="M16.8197 37.3662C19.3454 37.3662 21.3816 39.405 21.3816 41.934C21.3816 44.4629 19.3454 46.5018 16.8197 46.5018C14.294 46.5018 12.2578 44.4629 12.2578 41.934C12.2578 39.405 14.294 37.3662 16.8197 37.3662Z" fill="#EBA707"/>
<path fill-rule="evenodd" clip-rule="evenodd" d="M53.0775 37.3662C55.6032 37.3662 57.6394 39.405 57.6394 41.934C57.6394 44.4629 55.6032 46.5018 53.0775 46.5018C50.5518 46.5018 48.5156 44.4629 48.5156 41.934C48.5156 39.405 50.5518 37.3662 53.0775 37.3662Z" fill="#EBA707"/>
<path fill-rule="evenodd" clip-rule="evenodd" d="M65.1595 37.3662C67.6852 37.3662 69.7214 39.405 69.7214 41.934C69.7214 44.4629 67.6852 46.5018 65.1595 46.5018C62.6339 46.5018 60.5977 44.4629 60.5977 41.934C60.5977 39.405 62.6339 37.3662 65.1595 37.3662Z" fill="#EBA707"/>
<path fill-rule="evenodd" clip-rule="evenodd" d="M77.2572 37.3662C79.7829 37.3662 81.8191 39.405 81.8191 41.934C81.8191 44.4629 79.7829 46.5018 77.2572 46.5018C74.7315 46.5018 72.6953 44.4629 72.6953 41.934C72.6953 39.405 74.7315 37.3662 77.2572 37.3662Z" fill="#EBA707"/>
<path fill-rule="evenodd" clip-rule="evenodd" d="M16.8197 24.957C19.3454 24.957 21.3816 26.9959 21.3816 29.5248C21.3816 32.0538 19.3454 34.0926 16.8197 34.0926C14.294 34.0926 12.2578 32.0538 12.2578 29.5248C12.2578 26.9959 14.294 24.957 16.8197 24.957Z" fill="#EBA707"/>
<path fill-rule="evenodd" clip-rule="evenodd" d="M53.0775 24.957C55.6032 24.957 57.6394 26.9959 57.6394 29.5248C57.6394 32.0538 55.6032 34.0926 53.0775 34.0926C50.5518 34.0926 48.5156 32.0538 48.5156 29.5248C48.5156 26.9959 50.5518 24.957 53.0775 24.957Z" fill="#EBA707"/>
<path fill-rule="evenodd" clip-rule="evenodd" d="M65.1595 24.957C67.6852 24.957 69.7214 26.9959 69.7214 29.5248C69.7214 32.0538 67.6852 34.0926 65.1595 34.0926C62.6339 34.0926 60.5977 32.0538 60.5977 29.5248C60.5977 26.9959 62.6339 24.957 65.1595 24.957Z" fill="#EBA707"/>
<path fill-rule="evenodd" clip-rule="evenodd" d="M77.2572 24.957C79.7829 24.957 81.8191 26.9959 81.8191 29.5248C81.8191 32.0538 79.7829 34.0926 77.2572 34.0926C74.7315 34.0926 72.6953 32.0538 72.6953 29.5248C72.6953 26.9959 74.7315 24.957 77.2572 24.957Z" fill="#EBA707"/>
<path fill-rule="evenodd" clip-rule="evenodd" d="M16.8197 12.5283C19.3454 12.5283 21.3816 14.5672 21.3816 17.0961C21.3816 19.625 19.3454 21.6639 16.8197 21.6639C14.294 21.6639 12.2578 19.625 12.2578 17.0961C12.2578 14.5672 14.294 12.5283 16.8197 12.5283Z" fill="#EBA707"/>
<path fill-rule="evenodd" clip-rule="evenodd" d="M28.8978 12.5283C31.4235 12.5283 33.4597 14.5672 33.4597 17.0961C33.4597 19.625 31.4235 21.6639 28.8978 21.6639C26.3721 21.6639 24.3359 19.625 24.3359 17.0961C24.3359 14.5672 26.3721 12.5283 28.8978 12.5283Z" fill="#EBA707"/>
<path fill-rule="evenodd" clip-rule="evenodd" d="M40.9994 12.5283C43.5251 12.5283 45.5613 14.5672 45.5613 17.0961C45.5613 19.625 43.5251 21.6639 40.9994 21.6639C38.4737 21.6639 36.4375 19.625 36.4375 17.0961C36.4375 14.5672 38.4737 12.5283 40.9994 12.5283Z" fill="#EBA707"/>
<path fill-rule="evenodd" clip-rule="evenodd" d="M53.0775 12.5283C55.6032 12.5283 57.6394 14.5672 57.6394 17.0961C57.6394 19.625 55.6032 21.6639 53.0775 21.6639C50.5518 21.6639 48.5156 19.625 48.5156 17.0961C48.5156 14.5672 50.5518 12.5283 53.0775 12.5283Z" fill="#EBA707"/>
<path fill-rule="evenodd" clip-rule="evenodd" d="M65.1595 12.5283C67.6852 12.5283 69.7214 14.5672 69.7214 17.0961C69.7214 19.625 67.6852 21.6639 65.1595 21.6639C62.6339 21.6639 60.5977 19.625 60.5977 17.0961C60.5977 14.5672 62.6339 12.5283 65.1595 12.5283Z" fill="#EBA707"/>
<path fill-rule="evenodd" clip-rule="evenodd" d="M77.2572 12.5283C79.7829 12.5283 81.8191 14.5672 81.8191 17.0961C81.8191 19.625 79.7829 21.6639 77.2572 21.6639C74.7315 21.6639 72.6953 19.625 72.6953 17.0961C72.6953 14.5672 74.7315 12.5283 77.2572 12.5283Z" fill="#EBA707"/>
<path fill-rule="evenodd" clip-rule="evenodd" d="M89.3392 12.5283C91.8649 12.5283 93.9011 14.5672 93.9011 17.0961C93.9011 19.625 91.8649 21.6639 89.3392 21.6639C86.8136 21.6639 84.7773 19.625 84.7773 17.0961C84.7773 14.5672 86.8136 12.5283 89.3392 12.5283Z" fill="#EBA707"/>
<path fill-rule="evenodd" clip-rule="evenodd" d="M101.437 12.5283C103.963 12.5283 105.999 14.5672 105.999 17.0961C105.999 19.625 103.963 21.6639 101.437 21.6639C98.9112 21.6639 96.875 19.625 96.875 17.0961C96.875 14.5672 98.9112 12.5283 101.437 12.5283Z" fill="#EBA707"/>
<path fill-rule="evenodd" clip-rule="evenodd" d="M4.56188 111.862C7.08755 111.862 9.12375 113.901 9.12375 116.43C9.12375 118.959 7.08755 120.998 4.56188 120.998C2.0362 120.998 0 118.959 0 116.43C0 113.901 2.0362 111.862 4.56188 111.862Z" fill="#EBA707"/>
<path fill-rule="evenodd" clip-rule="evenodd" d="M4.56188 99.4531C7.08755 99.4531 9.12375 101.492 9.12375 104.021C9.12375 106.55 7.08755 108.589 4.56188 108.589C2.0362 108.589 0 106.55 0 104.021C0 101.492 2.0362 99.4531 4.56188 99.4531Z" fill="#EBA707"/>
<path fill-rule="evenodd" clip-rule="evenodd" d="M4.56188 87.0244C7.08755 87.0244 9.12375 89.0633 9.12375 91.5922C9.12375 94.1211 7.08755 96.16 4.56188 96.16C2.0362 96.16 0 94.1211 0 91.5922C0 89.0633 2.0362 87.0244 4.56188 87.0244Z" fill="#EBA707"/>
<path fill-rule="evenodd" clip-rule="evenodd" d="M4.56188 74.6143C7.08755 74.6143 9.12375 76.6531 9.12375 79.182C9.12375 81.711 7.08755 83.7498 4.56188 83.7498C2.0362 83.7498 0 81.711 0 79.182C0 76.6531 2.0362 74.6143 4.56188 74.6143Z" fill="#EBA707"/>
<path fill-rule="evenodd" clip-rule="evenodd" d="M4.56188 62.2051C7.08755 62.2051 9.12375 64.2439 9.12375 66.7729C9.12375 69.3018 7.08755 71.3406 4.56188 71.3406C2.0362 71.3406 0 69.3018 0 66.7729C0 64.2439 2.0362 62.2051 4.56188 62.2051Z" fill="#EBA707"/>
<path fill-rule="evenodd" clip-rule="evenodd" d="M4.56188 49.7764C7.08755 49.7764 9.12375 51.8152 9.12375 54.3441C9.12375 56.8731 7.08755 58.9119 4.56188 58.9119C2.0362 58.9119 0 56.8731 0 54.3441C0 51.8152 2.0362 49.7764 4.56188 49.7764Z" fill="#EBA707"/>
<path fill-rule="evenodd" clip-rule="evenodd" d="M4.56188 37.3662C7.08755 37.3662 9.12375 39.405 9.12375 41.934C9.12375 44.4629 7.08755 46.5018 4.56188 46.5018C2.0362 46.5018 0 44.4629 0 41.934C0 39.405 2.0362 37.3662 4.56188 37.3662Z" fill="#EBA707"/>
<path fill-rule="evenodd" clip-rule="evenodd" d="M4.56188 24.957C7.08755 24.957 9.12375 26.9959 9.12375 29.5248C9.12375 32.0538 7.08755 34.0926 4.56188 34.0926C2.0362 34.0926 0 32.0538 0 29.5248C0 26.9959 2.0362 24.957 4.56188 24.957Z" fill="#EBA707"/>
<path fill-rule="evenodd" clip-rule="evenodd" d="M4.56188 12.5283C7.08755 12.5283 9.12375 14.5672 9.12375 17.0961C9.12375 19.625 7.08755 21.6639 4.56188 21.6639C2.0362 21.6639 0 19.625 0 17.0961C0 14.5672 2.0362 12.5283 4.56188 12.5283Z" fill="#EBA707"/>
<path fill-rule="evenodd" clip-rule="evenodd" d="M16.8197 0.000976562C19.3454 0.000976562 21.3816 2.03981 21.3816 4.56876C21.3816 7.0977 19.3454 9.13653 16.8197 9.13653C14.294 9.13653 12.2578 7.0977 12.2578 4.56876C12.2578 2.03981 14.294 0.000976562 16.8197 0.000976562Z" fill="#EBA707"/>
<path fill-rule="evenodd" clip-rule="evenodd" d="M28.8978 0.000976562C31.4235 0.000976562 33.4597 2.03981 33.4597 4.56876C33.4597 7.0977 31.4235 9.13653 28.8978 9.13653C26.3721 9.13653 24.3359 7.0977 24.3359 4.56876C24.3359 2.03981 26.3721 0.000976562 28.8978 0.000976562Z" fill="#EBA707"/>
<path fill-rule="evenodd" clip-rule="evenodd" d="M40.9994 0.000976562C43.5251 0.000976562 45.5613 2.03981 45.5613 4.56876C45.5613 7.0977 43.5251 9.13653 40.9994 9.13653C38.4737 9.13653 36.4375 7.0977 36.4375 4.56876C36.4375 2.03981 38.4737 0.000976562 40.9994 0.000976562Z" fill="#EBA707"/>
<path fill-rule="evenodd" clip-rule="evenodd" d="M53.0775 0.000976562C55.6032 0.000976562 57.6394 2.03981 57.6394 4.56876C57.6394 7.0977 55.6032 9.13653 53.0775 9.13653C50.5518 9.13653 48.5156 7.0977 48.5156 4.56876C48.5156 2.03981 50.5518 0.000976562 53.0775 0.000976562Z" fill="#EBA707"/>
<path fill-rule="evenodd" clip-rule="evenodd" d="M65.1595 0.000976562C67.6852 0.000976562 69.7214 2.03981 69.7214 4.56876C69.7214 7.0977 67.6852 9.13653 65.1595 9.13653C62.6339 9.13653 60.5977 7.0977 60.5977 4.56876C60.5977 2.03981 62.6339 0.000976562 65.1595 0.000976562Z" fill="#EBA707"/>
<path fill-rule="evenodd" clip-rule="evenodd" d="M77.2572 0.000976562C79.7829 0.000976562 81.8191 2.03981 81.8191 4.56876C81.8191 7.0977 79.7829 9.13653 77.2572 9.13653C74.7315 9.13653 72.6953 7.0977 72.6953 4.56876C72.6953 2.03981 74.7315 0.000976562 77.2572 0.000976562Z" fill="#EBA707"/>
<path fill-rule="evenodd" clip-rule="evenodd" d="M89.3392 0.000976562C91.8649 0.000976562 93.9011 2.03981 93.9011 4.56876C93.9011 7.0977 91.8649 9.13653 89.3392 9.13653C86.8136 9.13653 84.7773 7.0977 84.7773 4.56876C84.7773 2.03981 86.8136 0.000976562 89.3392 0.000976562Z" fill="#EBA707"/>
<path fill-rule="evenodd" clip-rule="evenodd" d="M101.437 0.000976562C103.963 0.000976562 105.999 2.03981 105.999 4.56876C105.999 7.0977 103.963 9.13653 101.437 9.13653C98.9112 9.13653 96.875 7.0977 96.875 4.56876C96.875 2.03981 98.9112 0.000976562 101.437 0.000976562Z" fill="#EBA707"/>
<path fill-rule="evenodd" clip-rule="evenodd" d="M4.56188 0.000976562C7.08755 0.000976562 9.12375 2.03981 9.12375 4.56876C9.12375 7.0977 7.08755 9.13653 4.56188 9.13653C2.0362 9.13653 0 7.0977 0 4.56876C0 2.03981 2.0362 0.000976562 4.56188 0.000976562Z" fill="#EBA707"/>
<path fill-rule="evenodd" clip-rule="evenodd" d="M90.278 27.584H101.751C103.004 27.584 104.042 28.623 104.042 29.8777V117.116C104.042 118.371 103.004 119.41 101.751 119.41H90.278C89.025 119.41 87.9873 118.371 87.9873 117.116V81.5348H43.4258V117.116C43.4258 118.371 42.3881 119.41 41.135 119.41H29.6618C28.4088 119.41 27.3711 118.371 27.3711 117.116V29.8777C27.3711 28.623 28.4088 27.584 29.6618 27.584H41.135C42.3881 27.584 43.4258 28.623 43.4258 29.8777V65.4593H87.9873V29.8777C87.9873 28.623 89.025 27.584 90.278 27.584Z" fill="white"/>
</g>
<defs>
<clipPath id="clip0_1_3166">
<rect width="106" height="121" fill="white"/>
</clipPath>
</defs>
</svg>
