<svg width="50" height="50" viewBox="0 0 50 50" fill="none" xmlns="http://www.w3.org/2000/svg">
<circle cx="25" cy="25" r="25" fill="#7A7A7A"/>
<path d="M17.6718 24.997C17.6718 29.0433 20.9634 32.3348 25.0097 32.3348C29.056 32.3348 32.3475 29.0433 32.3475 24.997C32.3475 20.9507 29.056 17.6591 25.0097 17.6591C20.9634 17.6591 17.6718 20.9507 17.6718 24.997ZM25.0097 20.5902C27.4395 20.5902 29.4165 22.5671 29.4165 24.997C29.4165 27.4268 27.4395 29.4038 25.0097 29.4038C22.5798 29.4038 20.6029 27.4268 20.6029 24.997C20.6029 22.5671 22.5798 20.5902 25.0097 20.5902ZM23.5412 35.2556H26.4723V39.6521H23.5412V35.2556ZM23.5412 10.3418H26.4723V14.7383H23.5412V10.3418ZM10.3516 23.5315H14.7481V26.4625H10.3516V23.5315ZM35.2654 23.5315H39.6619V26.4625H35.2654V23.5315ZM13.6065 34.3221L16.7134 31.2122L18.7871 33.2845L15.6802 36.3943L13.6065 34.3221ZM31.2235 16.708L34.3333 13.5982L36.4055 15.6704L33.2957 18.7802L31.2235 16.708ZM16.7178 18.7817L13.6079 15.6719L15.6816 13.5996L18.7885 16.7095L16.7178 18.7817ZM36.4055 34.3235L34.3333 36.3958L31.2235 33.2859L33.2957 31.2137L36.4055 34.3235Z" fill="white"/>
</svg>
