<svg width="50" height="50" viewBox="0 0 50 50" fill="none" xmlns="http://www.w3.org/2000/svg">
<circle cx="25" cy="25" r="25" fill="#7A7A7A"/>
<path d="M31.8195 18.8191C32.0092 19.0001 32.1134 19.2471 32.1134 19.5044V22.7372C32.1134 22.9944 32.0078 23.2411 31.8199 23.4229C31.632 23.6048 31.377 23.707 31.1113 23.707C30.8455 23.707 30.5906 23.6048 30.4026 23.4229C30.2147 23.2411 30.1091 22.9944 30.1091 22.7372V21.8449L27.8108 24.0691C27.7183 24.1617 27.6077 24.2355 27.4854 24.2863C27.3631 24.337 27.2316 24.3637 27.0986 24.3648C26.9655 24.3658 26.8335 24.3412 26.7104 24.2924C26.5873 24.2436 26.4754 24.1715 26.3814 24.0804C26.2873 23.9893 26.2129 23.881 26.1626 23.7618C26.1123 23.6426 26.087 23.5149 26.0882 23.3861C26.0894 23.2573 26.1171 23.1301 26.1697 23.0118C26.2223 22.8935 26.2987 22.7865 26.3945 22.6971L28.6927 20.4742H27.7707C27.505 20.4742 27.2501 20.3721 27.0621 20.1902C26.8742 20.0083 26.7686 19.7616 26.7686 19.5044C26.7686 19.2472 26.8742 19.0005 27.0621 18.8186C27.2501 18.6368 27.505 18.5346 27.7707 18.5346H31.1113C31.377 18.5348 31.6317 18.6371 31.8195 18.8191ZM18.7513 30.4958C18.7513 30.753 18.8569 30.9997 19.0449 31.1816C19.2328 31.3634 19.4877 31.4656 19.7535 31.4656H23.0954C23.3611 31.4656 23.616 31.3634 23.804 31.1816C23.9919 30.9997 24.0975 30.753 24.0975 30.4958C24.0975 30.2386 23.9919 29.9919 23.804 29.81C23.616 29.6281 23.3611 29.526 23.0954 29.526H22.1734L24.4716 27.3018C24.6541 27.1188 24.755 26.8738 24.7526 26.6195C24.7502 26.3652 24.6447 26.122 24.4588 25.9423C24.2729 25.7626 24.0215 25.6607 23.7587 25.6586C23.496 25.6565 23.2429 25.7544 23.0539 25.9311L20.7557 28.1527V27.2604C20.7557 27.0032 20.6501 26.7566 20.4621 26.5747C20.2742 26.3928 20.0193 26.2906 19.7535 26.2906C19.4877 26.2906 19.2328 26.3928 19.0449 26.5747C18.8569 26.7566 18.7513 27.0032 18.7513 27.2604V30.4932V30.4958ZM12.0703 18.2113C12.0703 17.2682 12.4575 16.3637 13.1466 15.6968C13.8357 15.0299 14.7703 14.6553 15.7449 14.6553H35.1199C36.0944 14.6553 37.0291 15.0299 37.7182 15.6968C38.4073 16.3637 38.7945 17.2682 38.7945 18.2113V31.7889C38.7945 32.2559 38.6994 32.7183 38.5147 33.1497C38.3301 33.5812 38.0594 33.9732 37.7182 34.3034C37.377 34.6336 36.9719 34.8955 36.5261 35.0742C36.0803 35.2529 35.6024 35.3449 35.1199 35.3449H15.7449C15.2623 35.3449 14.7845 35.2529 14.3387 35.0742C13.8929 34.8955 13.4878 34.6336 13.1466 34.3034C12.8054 33.9732 12.5347 33.5812 12.35 33.1497C12.1654 32.7183 12.0703 32.2559 12.0703 31.7889V18.2113ZM15.7449 16.5949C14.8229 16.5949 14.0746 17.3191 14.0746 18.2113V31.7889C14.0746 32.6811 14.8229 33.4053 15.7449 33.4053H35.1199C36.0419 33.4053 36.7901 32.6811 36.7901 31.7889V18.2113C36.7901 17.3191 36.0419 16.5949 35.1199 16.5949H15.7449Z" fill="white"/>
</svg>
