<svg width="53" height="53" viewBox="0 0 53 53" fill="none" xmlns="http://www.w3.org/2000/svg">
<path d="M13.7055 29.222H7.4444C6.00046 29.222 4.61565 29.7956 3.59463 30.8166C2.5736 31.8377 2 33.2225 2 34.6664V45.5552C2 46.9992 2.5736 48.384 3.59463 49.405C4.61565 50.426 6.00046 50.9996 7.4444 50.9996H40.1108M40.1108 40.1108V40.138M2 2L50.9996 50.9996" stroke="#EBA707" stroke-width="3" stroke-linecap="round" stroke-linejoin="round"/>
<path d="M29.2227 29.222V40.1108C29.2226 42.2656 29.8618 44.372 31.0595 46.1633C32.2572 47.9546 33.9594 49.3503 35.9507 50.1737C37.942 50.9971 40.1328 51.2112 42.2458 50.7888C44.3588 50.3664 46.299 49.3266 47.8207 47.801M51.0003 40.1108V7.4444C51.0003 6.00046 50.4267 4.61565 49.4056 3.59463C48.3846 2.5736 46.9998 2 45.5559 2H34.6671C33.2231 2 31.8383 2.5736 30.8173 3.59463C29.7963 4.61565 29.2227 6.00046 29.2227 7.4444V18.3332" stroke="#797979" stroke-width="3" stroke-linecap="round" stroke-linejoin="round"/>
<path d="M30.4352 13.0393L24.9908 7.59492C24.2539 6.85793 23.321 6.34792 22.3029 6.12547C21.2847 5.90302 20.2241 5.97747 19.247 6.33998M13.4487 11.4414L9.59405 15.2933C8.57338 16.3143 8 17.6988 8 19.1425C8 20.5862 8.57338 21.9707 9.59405 22.9917L34.0939 47.4915" stroke="#797979" stroke-width="3" stroke-linecap="round" stroke-linejoin="round"/>
<path d="M40.1108 40.1108V40.138M2 2L50.9996 50.9996" stroke="#EBA707" stroke-width="3" stroke-linecap="round" stroke-linejoin="round"/>
</svg>
