<svg width="52" height="57" viewBox="0 0 52 57" fill="none" xmlns="http://www.w3.org/2000/svg">
<path d="M18.9813 47.39H35.0646M21.6618 55.4316H32.384M39.0854 29.9664C41.766 27.2858 43.0446 24.5704 43.1063 20.5844C43.2349 12.4087 37.7452 7.18164 27.0229 7.18164C23.892 7.18164 21.2088 7.62661 18.9813 8.46027M18.9813 39.3483C18.9813 33.9872 17.641 32.6469 14.9604 29.9664C12.2799 27.2858 11.0013 24.5704 10.9396 20.5844C10.9082 19.23 11.0596 17.8775 11.3899 16.5636" stroke="#797979" stroke-width="3" stroke-linecap="round" stroke-linejoin="round"/>
<path d="M49.178 2L46.7952 4.45079M6.28906 2L8.67178 4.45079M49.178 36.3111L46.7952 33.8603M6.28906 36.3111L8.67178 33.8603" stroke="#EBA707" stroke-width="3" stroke-linecap="round" stroke-linejoin="round"/>
<path d="M2 6.28906L50.25 54.5391" stroke="#EBA707" stroke-width="3" stroke-linecap="round" stroke-linejoin="round"/>
</svg>
