<svg width="52" height="57" viewBox="0 0 52 57" fill="none" xmlns="http://www.w3.org/2000/svg">
<path d="M18.7313 47.39H34.8146M21.4118 55.4316H32.134M38.8354 29.9664C41.516 27.2858 42.7946 24.5704 42.8563 20.5844C42.9849 12.4087 37.4952 7.18164 26.7729 7.18164C23.642 7.18164 20.9588 7.62661 18.7313 8.46027M18.7313 39.3483C18.7313 33.9872 17.391 32.6469 14.7104 29.9664C12.0299 27.2858 10.7513 24.5704 10.6896 20.5844C10.6582 19.23 10.8096 17.8775 11.1399 16.5636" stroke="#797979" stroke-width="3" stroke-linecap="round" stroke-linejoin="round"/>
<path d="M48.928 2L46.5452 4.45079M6.03906 2L8.42178 4.45079M48.928 36.3111L46.5452 33.8603M6.03906 36.3111L8.42178 33.8603" stroke="#EBA707" stroke-width="3" stroke-linecap="round" stroke-linejoin="round"/>
<path d="M1.75 6.28906L50 54.5391" stroke="#EBA707" stroke-width="3" stroke-linecap="round" stroke-linejoin="round"/>
</svg>
