<svg width="62" height="61" viewBox="0 0 62 61" fill="none" xmlns="http://www.w3.org/2000/svg">
<path fill-rule="evenodd" clip-rule="evenodd" d="M8.23679 38.7296C8.23679 40.6748 9.04412 41.9017 10.2785 42.8987C13.4874 45.4904 18.6707 43.0682 18.6707 39.3128C18.6707 36.9912 18.3899 37.6234 18.3139 36.7499H24.2431V44.0882C24.2431 44.7864 24.8925 45.545 25.8695 44.7548C28.4787 42.6372 31.7139 44.6399 31.7139 47.3494C31.7139 48.9526 30.2221 50.7283 28.6308 50.7283C25.6969 50.7283 26.0128 49.5647 25.1909 49.5647C24.6176 49.5647 24.2431 49.9324 24.2431 50.4956V57.9488H3.61215C3.24943 57.9488 2.6644 57.4144 2.6644 56.7852V36.7528H8.71066C8.541 37.1004 8.23679 38.2267 8.23679 38.7324V38.7296ZM40.2524 36.7499H47.6033V56.7823C47.6033 57.3713 47.1762 57.946 46.5356 57.946H26.0216V52.0069C29.406 53.6016 33.3725 50.9352 33.3725 47.697V46.881C33.3725 44.5537 30.8949 42.2235 28.5109 42.2235C27.4783 42.2235 26.9547 42.2033 26.0216 42.6889V36.7499H33.4924C33.94 36.7499 34.3085 36.4626 34.4548 36.1666C34.6391 35.7873 34.4285 35.4569 34.171 35.1524C33.1414 33.9255 32.963 32.4314 33.8493 31.0436C36.2771 27.2451 42.2766 30.92 39.7756 34.7673C39.5591 35.1006 38.7021 35.6322 39.293 36.4051C39.5006 36.6752 39.7815 36.7499 40.2524 36.7499ZM16.8923 24.1707C16.8923 25.8171 17.3866 27.0354 18.3402 27.9893C19.5424 29.1903 20.7008 29.5294 22.4647 29.5294C23.2954 29.5294 23.5762 29.2334 24.2431 29.1788V35.0029H16.6553C16.1668 35.0029 15.8889 35.2472 15.7807 35.6581C15.6813 36.0402 15.9357 36.3821 16.161 36.6522C18.2349 39.1491 16.2253 42.3413 13.4523 42.3413C11.706 42.3413 10.0123 40.8328 10.0123 39.0801C10.0123 38.1377 9.98309 37.9193 10.4745 37.0889C10.6705 36.7614 10.6354 36.8246 10.8723 36.5459C11.6621 35.6121 10.8519 35.0029 10.2493 35.0029H2.66148V14.9705C2.66148 14.2407 3.31963 13.8069 4.08309 13.8069H24.2402V19.7459C20.7183 18.0852 16.8893 21.0475 16.8893 24.1707H16.8923ZM1.00293 14.7378V57.1328C1.00293 57.9201 1.5236 58.5838 1.98285 58.966C2.48304 59.3797 3.20555 59.6958 4.08602 59.6958H46.1787C48.5598 59.6958 49.3788 57.9804 49.3788 55.8514V36.0517C49.3788 34.638 47.6618 35.0029 46.0588 35.0029C44.5582 35.0029 43.0547 35.0029 41.5541 35.0029C43.16 32.0205 40.6707 27.7824 37.1664 27.7824H36.4556C34.0219 27.7824 31.594 30.1644 31.594 32.5578C31.594 34.5231 31.8719 34.0979 31.9509 35.0029H26.0216V27.6646C26.0216 26.8256 25.4366 26.7337 24.9539 26.7337C24.7141 26.7337 22.2453 29.2449 19.6507 26.9348C17.489 25.0097 18.8141 21.0274 21.8708 21.0274C24.3631 21.0274 24.3367 22.1911 25.0709 22.1911C25.7788 22.1911 26.0187 21.7198 26.0187 21.0274V13.1087C26.0187 12.6834 25.6911 12.1777 25.3079 12.1777H3.60922C2.30461 12.1777 1 13.4592 1 14.7407L1.00293 14.7378Z" fill="#797979" stroke="#797979"/>
<path fill-rule="evenodd" clip-rule="evenodd" d="M31.6085 10.5789C31.6085 9.76663 31.9862 9.06004 32.5258 8.53175C34.0873 7.00961 35.9557 7.39262 37.2676 9.31759C37.4497 9.58834 37.787 9.90531 38.1681 9.90531C39.1832 9.90531 39.4665 8.40298 40.1006 6.84452L41.5845 3.21251C41.9049 3.36439 42.3366 3.47996 42.6806 3.61203L57.2499 9.29117C59.7692 10.2784 59.5028 9.76994 57.4658 14.7392L52.3867 27.4347C51.8471 27.3918 48.2621 25.9654 47.7394 25.6946C48.7646 24.1956 48.9703 24.1956 48.9703 22.0824C48.9703 18.5891 44.0667 15.8552 40.593 18.9688C40.2995 19.233 39.7768 20.0023 39.5778 20.3853C39.3316 20.8575 39.1259 21.6862 39.1259 22.3532C38.0905 22.1155 35.7129 20.8938 34.4785 20.6131C34.7787 20.0551 37.0754 14.475 37.0754 14.0557C37.0754 12.6987 35.3959 13.3854 34.3403 13.3854C32.8564 13.3854 31.6051 11.969 31.6051 10.5756L31.6085 10.5789ZM37.8983 6.96669C36.4919 6.04548 36.3941 5.76152 34.3436 5.76152C31.7738 5.76152 29.6963 7.84827 29.6963 10.8463C29.6963 13.2104 32.0638 15.3962 34.4819 15.3962C34.1345 16.8557 32.2931 20.2664 32.2931 21.2867C32.2931 22.0924 35.0822 22.8617 36.1412 23.2744C36.6336 23.4692 40.1849 24.8989 40.3602 24.8989C42.1376 24.8989 40.8695 22.9079 41.2101 21.7192C42.178 18.3349 47.0615 19.1867 47.0615 22.4886C47.0615 23.3338 46.6096 24.0867 46.1441 24.5357C45.5877 25.0772 44.7344 25.1333 44.7344 26.1008C44.7344 26.8767 47.4999 27.6923 48.5623 28.1083C53.8234 30.1686 53.2298 30.4064 54.3225 27.7253C55.2264 25.513 61.0002 11.6916 61.0002 10.843C61.0002 9.21523 60.4235 8.37987 58.7608 7.81525C56.1471 6.92376 51.0141 4.79739 48.3059 3.7309L41.3349 1.04321C40.1275 0.73944 39.9151 2.08659 39.3215 3.53939L37.8949 6.96338L37.8983 6.96669Z" fill="#EBA707" stroke="#EBA707"/>
</svg>
