<svg width="129" height="111" viewBox="0 0 129 111" fill="none" xmlns="http://www.w3.org/2000/svg">
<path d="M54 30H42C41.2044 30 40.4413 30.3161 39.8787 30.8787C39.3161 31.4413 39 32.2044 39 33V51C39 51.7956 39.3161 52.5587 39.8787 53.1213C40.4413 53.6839 41.2044 54 42 54H54C54.7956 54 55.5587 53.6839 56.1213 53.1213C56.6839 52.5587 57 51.7956 57 51V33C57 32.2044 56.6839 31.4413 56.1213 30.8787C55.5587 30.3161 54.7956 30 54 30ZM52.8 49.8H43.2V34.2H52.8V49.8Z" fill="white"/>
<path d="M95.1301 25.14L82.8601 12.87C82.3013 12.3158 81.5471 12.0033 80.7601 12H65.7601V6.15C65.8007 4.57366 65.2192 3.04467 64.1413 1.89376C63.0633 0.742855 61.5757 0.0625503 60.0001 0H35.5201C34.7501 0.0302981 33.994 0.214783 33.2966 0.542533C32.5992 0.870282 31.9747 1.33463 31.46 1.90809C30.9452 2.48155 30.5508 3.15245 30.3001 3.88107C30.0493 4.6097 29.9473 5.38124 30.0001 6.15V12H15.2401C14.8452 11.9977 14.4538 12.0734 14.0883 12.2227C13.7228 12.372 13.3904 12.592 13.1101 12.87L0.87005 25.14C0.592006 25.4203 0.37203 25.7528 0.222736 26.1183C0.0734426 26.4838 -0.00223254 26.8752 5.01429e-05 27.27V72C5.01429e-05 73.5913 0.632191 75.1174 1.75741 76.2426C2.88263 77.3679 4.40875 78 6.00005 78H74.5H90.0001C91.5914 78 93.1175 77.3679 94.2427 76.2426C95.3679 75.1174 96 73.5913 96 72V63.5V27.24C95.9967 26.453 95.6843 25.6988 95.1301 25.14ZM36.0001 6H60.0001V12H36.0001V6ZM90.0001 39H60.0001V44.79H90.0001V64.5V72H70H6.00005V44.79H36.0001V39H6.00005V28.5L16.5 18H79.5001L90.0001 28.5V39Z" fill="#EBA707"/>
<path fill-rule="evenodd" clip-rule="evenodd" d="M128.069 56.7084L124.39 55.8402L114.447 65.73L108.815 59.9924L118.513 49.8148L117.664 46.0778C115.615 45.392 113.471 45.0291 111.31 45.002C108.953 44.9658 106.614 45.4155 104.438 46.3232C102.337 47.2745 100.438 48.6199 98.8436 50.2866C97.0689 51.9683 95.6633 54.001 94.7163 56.2554C92.893 60.7421 92.893 65.7635 94.7163 70.2502C84.8827 79.9276 75.1761 89.7333 65.599 99.6647C64.6085 100.962 64.1368 102.581 64.2594 104.209C64.3561 105.959 65.1432 107.6 66.448 108.771C67.0329 109.408 67.731 109.937 68.5093 110.319C69.3112 110.673 70.1744 110.876 71.047 110.918C72.5375 110.89 73.9668 110.324 75.0752 109.328C82.377 102.453 96.3672 88.3311 104.315 80.055C106.471 80.9704 108.787 81.4422 111.126 81.4375C113.481 81.4357 115.812 80.9616 117.981 80.0434C120.15 79.1252 122.113 77.7815 123.753 76.0916C127.124 72.6531 129.006 68.026 128.994 63.2103C129.048 61.0067 128.736 58.8094 128.069 56.7084ZM72.2215 105.983C72.04 106.144 71.8211 106.257 71.5847 106.313C71.3522 106.353 71.1145 106.353 70.8819 106.313C70.6381 106.276 70.4059 106.184 70.2027 106.044C69.9846 105.916 69.8003 105.738 69.665 105.525C69.0046 104.85 68.3867 103.567 69.0046 102.845C75.4667 95.9702 88.7731 82.5322 97.0936 74.3174C97.5653 74.9403 98.0842 75.5348 98.6408 76.0916C99.1974 76.6719 99.7964 77.2098 100.433 77.7005C92.3862 85.9577 79.2638 99.2353 72.2262 105.983H72.2215ZM124.664 63.2103C124.673 66.8199 123.268 70.2879 120.739 72.8736C118.216 75.3493 114.823 76.7362 111.289 76.7362C107.755 76.7362 104.362 75.3493 101.839 72.8736C99.9897 70.9433 98.7266 68.5274 98.1963 65.9071C97.6661 63.2868 97.8906 60.5697 98.8436 58.072C99.478 56.3721 100.462 54.8244 101.732 53.5288C103.002 52.2332 104.53 51.2187 106.216 50.5509C107.817 49.8804 109.537 49.5371 111.273 49.5411H112.471L103.9 58.3787V61.6627L112.839 70.5616H115.952L124.664 61.993V63.2103ZM73.6696 71.8214H80.8911L84.2165 75.2045L87.4146 72.0243L84.2779 68.8252V68.6223L84.5467 60.8417L83.509 58.7798L70.0187 49.8997L67.231 50.2111L63.3113 54.2171L63 57.0434L71.6696 70.8117L73.6696 71.8261V71.8214ZM69.2121 54.6842L80.127 61.875L79.943 67.1738H74.8677L67.8301 56.0289L69.2121 54.6842ZM102.726 87.5243L105.905 84.3488L120.555 99.3769C121.789 100.674 122.478 102.396 122.478 104.187C122.478 105.978 121.789 107.7 120.555 108.998C119.628 109.951 118.434 110.602 117.131 110.867C115.828 111.132 114.475 110.999 113.249 110.484C112.466 110.137 111.764 109.631 111.188 108.998L96.3672 93.8847L99.57 90.6856L114.343 105.756C114.542 105.975 114.789 106.145 115.065 106.252C115.608 106.472 116.215 106.472 116.758 106.252C117.034 106.145 117.281 105.975 117.48 105.756C117.686 105.552 117.847 105.306 117.952 105.034C118.06 104.757 118.117 104.463 118.122 104.166C118.117 103.869 118.061 103.576 117.956 103.298C117.852 103.027 117.691 102.781 117.485 102.576L102.726 87.5243Z" fill="white"/>
</svg>
