<svg width="104" height="156" viewBox="0 0 104 156" fill="none" xmlns="http://www.w3.org/2000/svg">
<g clip-path="url(#clip0_1_3368)">
<path fill-rule="evenodd" clip-rule="evenodd" d="M42.7595 0.0742188H81.0701C90.6853 0.0742188 94.7169 6.06396 91.4997 15.2008L88.8174 22.8116H54.98C50.0407 22.8116 46.1469 25.1025 44.441 29.5168L44.4329 29.5434L18.2171 100.183C17.2082 102.908 17.1799 105.804 18.9303 108.27C20.7617 110.846 23.7601 111.859 26.9571 111.859L57.3098 112.357L41.9775 155.868H8.58984V92.1502L42.7595 0.0780242V0.0742188Z" fill="#EBA707" stroke="black" stroke-width="0.200386" stroke-miterlimit="22.9256"/>
<path fill-rule="evenodd" clip-rule="evenodd" d="M12.3541 0.0742188H34.1816L8.58984 69.0361V3.20228C8.58984 1.28434 10.4578 0.0742188 12.3541 0.0742188V0.0742188Z" fill="white" stroke="black" stroke-width="0.200386" stroke-miterlimit="22.9256"/>
<path d="M78.773 33.475L103.575 99.5676C104.195 101.128 104.134 102.422 103.4 103.426C102.667 104.431 101.37 104.933 99.5187 104.933H90.402C87.4643 104.933 85.5356 103.643 84.6078 101.059L80.7058 89.4337H51.1148L47.1561 101.059C46.1917 103.643 44.2387 104.933 41.2646 104.933H31.7792C29.8464 104.933 28.5133 104.412 27.7597 103.354C27.006 102.315 26.9493 100.968 27.5652 99.3164L52.3668 33.2238C53.315 30.8036 55.2842 29.582 58.2948 29.582H72.8208C75.8354 29.582 77.8249 30.8721 78.769 33.475H78.773ZM55.7502 75.8674H76.1474L65.9488 45.7284L55.7502 75.8674V75.8674Z" fill="white"/>
</g>
<defs>
<clipPath id="clip0_1_3368">
<rect width="104" height="156" fill="white"/>
</clipPath>
</defs>
</svg>
