<svg width="180" height="151" viewBox="0 0 180 151" fill="none" xmlns="http://www.w3.org/2000/svg">
<path fill-rule="evenodd" clip-rule="evenodd" d="M39.4519 109.183C39.3751 104.919 40.1654 94.3657 38.8043 91.2278C32.525 88.9129 16.2882 95.6096 8.50965 82.2591C6.51783 78.8397 6.01604 76.251 5.9163 71.7911C5.75671 64.7181 5.44367 23.7641 6.34597 19.6102C7.58893 13.8836 13.6887 7.76372 19.1393 6.38675C23.8288 5.20256 39.26 5.8834 45.0805 5.88952C52.9311 5.90023 105.189 5.10006 110.031 6.65603C123.165 10.8772 122.563 23.3173 122.606 33.7425C122.643 42.5321 122.622 51.3202 122.625 60.1098C122.631 75.896 123.878 90.807 100.615 90.8652C91.8022 90.8881 82.9818 90.7825 74.169 90.7932C70.5675 90.7978 64.3925 89.834 61.859 91.904C60.791 92.7776 59.4928 93.7185 58.2268 94.6901C56.8411 95.7534 56.0907 96.5673 54.4994 97.7515C51.8923 99.6915 49.7716 101.648 47.1245 103.587C45.7496 104.593 44.967 105.199 43.5583 106.434C42.6529 107.228 40.7946 108.864 39.4503 109.183H39.4519ZM33.613 96.8397L33.7342 117.008C36.7787 119.107 36.6237 119.531 42.8631 114.394C48.4442 109.8 58.7593 102.158 63.2539 98.2013C65.4866 96.2368 65.4329 96.4296 69.2585 96.4924C79.0703 96.653 88.9127 96.5949 98.7276 96.5612C109.482 96.5245 115.492 95.5132 121.439 89.5341C127.498 83.4402 128.155 77.6356 128.169 66.8891C128.183 57.0958 128.215 47.301 128.177 37.5092C128.132 25.7974 129.773 12.0277 117.562 4.0352C114.266 1.87796 110.906 0.549949 106.277 0.370943C87.1173 -0.369559 66.6268 0.213357 47.3455 0.295975C40.3419 0.326574 24.2662 -0.563864 18.3935 0.693765C14.3102 1.5689 11.149 3.58998 8.60326 5.65849C5.8273 7.91519 4.09175 10.2423 2.20735 14.3426C-0.901605 21.1081 0.183306 33.3998 0.183306 41.6509C0.183306 51.4227 0.0697507 61.2849 0.250825 71.046C0.39507 78.8519 2.55722 86.8046 9.05901 91.5016C15.0329 95.8161 18.7572 96.4373 26.1874 96.526L32.947 96.6515C33.059 96.6729 33.1925 96.7188 33.2815 96.7387C33.3705 96.7586 33.5056 96.7922 33.6114 96.8366L33.613 96.8397Z" fill="#606060"/>
<path fill-rule="evenodd" clip-rule="evenodd" d="M135.392 55.5911C140.791 57.3322 160.462 53.492 167.369 58.3465C176.315 64.6347 174.059 73.5651 174.075 86.1016C174.084 93.8463 175.298 113.359 172.446 118.922C170.829 122.079 167.094 125.565 162.539 126.471C158.441 127.285 149.043 126.196 146.323 127.535C144.906 129.704 145.609 139.152 145.707 142.317L130.901 130.48C126.371 127.045 128.881 126.921 121.394 126.893C116.986 126.878 112.58 126.849 108.171 126.86C99.917 126.878 85.4756 128.847 80.2229 121.881C73.4326 112.877 79.4909 105.928 75.2832 105.362L70.893 105.381C70.8024 114.776 70.7441 121.929 78.9584 128.414C85.7149 133.748 96.7144 132.469 106.282 132.466C111.45 132.464 116.622 132.461 121.79 132.507C126.105 132.545 126.592 134.684 131.649 138.408C132.995 139.398 134.765 140.697 135.885 141.717L144.734 148.715C152.353 154.757 151.169 147.508 151.248 142.227C151.298 139.012 151.367 135.594 151.25 132.392C157.968 132.121 162.486 133.457 168.515 130.449C172.683 128.37 176.269 124.814 178.103 120.403C180.788 113.941 179.838 92.0103 179.837 83.4655C179.835 78.6262 180.305 69.3011 179.083 65.1411C177.673 60.3416 174.05 55.6599 170.927 53.6587C165.724 50.3219 162.042 50.1628 155.017 50.0985C149.517 50.048 140.817 49.6441 135.638 50.2117C135.105 51.4892 135.137 54.1896 135.391 55.5941L135.392 55.5911Z" fill="#EBA707"/>
<path fill-rule="evenodd" clip-rule="evenodd" d="M122.137 99.2189C128.565 100.559 126.904 95.0742 125.267 94.2985C121.931 92.7196 119.98 96.3992 122.137 99.2189Z" fill="#EBA707"/>
<path fill-rule="evenodd" clip-rule="evenodd" d="M144.799 99.2223C150.461 100.628 149.906 95.7248 147.787 94.4121C144.698 92.4966 142.371 96.0614 144.799 99.2223Z" fill="#EBA707"/>
<path fill-rule="evenodd" clip-rule="evenodd" d="M41.7337 50.4482C42.5746 45.6043 38.1153 44.7552 36.794 46.9721C35.9071 48.4608 36.5117 50.3794 37.6073 50.9883C39.0513 51.7915 40.747 50.973 41.7337 50.4482Z" fill="#606060"/>
<path fill-rule="evenodd" clip-rule="evenodd" d="M63.4769 45.9623C60.2482 46.9476 60.8973 52.3942 64.9086 51.2422C68.1664 50.3074 66.9203 44.9112 63.4769 45.9623Z" fill="#606060"/>
<path fill-rule="evenodd" clip-rule="evenodd" d="M87.4875 50.6523C89.3627 52.219 93.9493 51.0302 90.9325 46.1205C85.0583 45.403 86.3427 49.7542 87.4875 50.6523Z" fill="#606060"/>
</svg>
