<svg width="117" height="18" viewBox="0 0 117 18" fill="none" xmlns="http://www.w3.org/2000/svg">
<path d="M54.4922 6.92819C54.4922 6.4241 54.9175 6.00043 55.4242 6.00043C55.9283 6.00043 56.3488 6.4241 56.3488 6.92819C56.3488 7.43669 55.9283 7.85444 55.4242 7.85444C54.9175 7.85444 54.4922 7.43669 54.4922 6.92819Z" fill="#C7C7C7"/>
<path d="M56.9414 6.92825C56.9414 6.42416 57.3634 6.00049 57.874 6.00049C58.3786 6.00049 58.8029 6.42416 58.8029 6.92825C58.8029 7.43675 58.3786 7.8545 57.874 7.8545C57.3634 7.8545 56.9414 7.43675 56.9414 6.92825Z" fill="#C7C7C7"/>
<path d="M55.7617 8.95947C55.7617 8.44686 56.099 8.03003 56.6037 8.03003C57.1094 8.03003 57.5336 8.44686 57.5336 8.95947C57.5336 9.46736 57.1094 9.88784 56.6037 9.88784C56.099 9.88784 55.7617 9.46736 55.7617 8.95947Z" fill="#C7C7C7"/>
<path d="M4.91686 10.0559L5.90148 4.82437L5.90361 4.8303V4.8265V4.8303V4.82225L6.89036 10.0559H4.91686ZM11.7631 15.2412C11.7052 15.1801 11.5094 15.0658 11.2215 14.8454C10.7902 14.5205 10.2647 14.0356 10.1253 13.5219L8.06804 2.80801C8.06804 2.80801 7.93031 2.23369 8.0118 1.79435C8.14952 1.10632 8.55495 0.847891 8.5963 0.805478C8.64784 0.748623 8.66228 0.712139 8.59311 0.589917C8.59311 0.589917 8.08735 -0.30562 6.89036 0.337263L5.90361 0.838162L4.91686 0.337263C3.71942 -0.30562 3.21366 0.589917 3.21366 0.589917C3.14495 0.712139 3.15893 0.748623 3.21092 0.805478C3.25333 0.847891 3.65664 1.10632 3.79543 1.79435C3.87813 2.23369 3.74025 2.80801 3.74025 2.80801L1.68314 13.5219C1.54253 14.0356 1.01594 14.5205 0.588005 14.8454C0.296739 15.0658 0.102157 15.1801 0.0421095 15.2412C-0.021738 15.3142 -0.013225 15.3919 0.0693207 15.4665C0.0693207 15.4665 0.482809 15.9015 0.96501 15.9787C1.37637 16.0472 1.86815 15.8724 2.23497 15.6246C2.55451 15.3914 2.80762 15.2203 2.83392 15.2042V15.1984C2.83392 15.1984 3.00129 15.3168 3.34074 15.5652C3.70969 15.814 4.15161 16.0472 4.5619 15.9787C5.04395 15.8981 5.45805 15.4665 5.45805 15.4665C5.53847 15.3919 5.54759 15.3163 5.4842 15.2423C5.45212 15.209 5.18442 15.0144 5.09229 14.9285C4.84238 14.6958 4.44272 14.2791 4.37583 14.0078C4.32263 13.7804 4.32369 13.5315 4.33829 13.3647C4.34741 13.2404 4.40639 12.895 4.40639 12.895L4.5619 12.0857H7.2476L7.39719 12.895C7.39719 12.895 7.46104 13.2404 7.46696 13.3647C7.48141 13.5315 7.48566 13.7804 7.43048 14.0078C7.36283 14.2942 6.91666 14.7441 6.67373 14.9646C6.60031 15.0316 6.35632 15.209 6.32197 15.2423C6.25873 15.3163 6.26785 15.3919 6.34933 15.4665C6.34933 15.4665 6.76282 15.9015 7.2476 15.9787C7.65668 16.0472 8.0986 15.8145 8.46329 15.5652C8.80594 15.3168 8.97498 15.1984 8.97498 15.1984V15.2042C9.00067 15.2203 9.25165 15.3914 9.57347 15.6246C9.94029 15.8724 10.4321 16.0472 10.8422 15.9787C11.3234 15.8981 11.7394 15.4665 11.7394 15.4665C11.8194 15.3919 11.8291 15.3163 11.7631 15.2412Z" fill="#C7C7C7"/>
<path d="M37.1362 10.0559L38.123 4.82437V4.8303V4.8265V4.8303V4.82225L39.1087 10.0559H37.1362ZM43.9857 15.2412C43.9235 15.1801 43.7299 15.0658 43.4409 14.8454C43.0108 14.5205 42.4862 14.0356 42.3447 13.5219L40.2848 2.80801C40.2848 2.80801 40.1497 2.23369 40.2312 1.79435C40.368 1.10632 40.7734 0.847891 40.8146 0.805478C40.8651 0.748623 40.8795 0.712139 40.812 0.589917C40.812 0.589917 40.3063 -0.30562 39.1087 0.337263L38.123 0.838162L37.1362 0.337263C35.9388 -0.30562 35.433 0.589917 35.433 0.589917C35.3655 0.712139 35.3794 0.748623 35.4326 0.805478C35.4738 0.847891 35.8749 1.10632 36.0139 1.79435C36.0932 2.23369 35.9586 2.80801 35.9586 2.80801L33.9025 13.5219C33.7625 14.0356 33.2342 14.5205 32.8063 14.8454C32.5161 15.0658 32.3226 15.1801 32.2604 15.2412C32.1966 15.3142 32.2061 15.3919 32.2888 15.4665C32.2888 15.4665 32.7013 15.9015 33.1822 15.9787C33.5962 16.0472 34.0875 15.8724 34.4554 15.6246C34.7762 15.3914 35.0249 15.2203 35.0533 15.2042V15.1984C35.0533 15.1984 35.2217 15.3168 35.5633 15.5652C35.928 15.814 36.3699 16.0472 36.7813 15.9787C37.2623 15.8981 37.6764 15.4665 37.6764 15.4665C37.7568 15.3919 37.767 15.3163 37.7031 15.2423C37.6726 15.209 37.4061 15.0144 37.3117 14.9285C37.0617 14.6958 36.6601 14.2791 36.5963 14.0078C36.5409 13.7804 36.5443 13.5315 36.5577 13.3647C36.5678 13.2404 36.6283 12.895 36.6283 12.895L36.7813 12.0857H39.4659L39.6176 12.895C39.6176 12.895 39.6793 13.2404 39.6891 13.3647C39.7014 13.5315 39.705 13.7804 39.6509 14.0078C39.5822 14.2942 39.1356 14.7441 38.8931 14.9646C38.8207 15.0316 38.5746 15.209 38.5419 15.2423C38.4813 15.3163 38.4883 15.3919 38.5687 15.4665C38.5687 15.4665 38.9822 15.9015 39.4638 15.9787C39.8783 16.0472 40.3192 15.8145 40.6822 15.5652C41.0255 15.3168 41.1927 15.1984 41.1927 15.1984C41.1927 15.1984 41.1927 15.1999 41.1944 15.2042C41.22 15.2203 41.4738 15.3914 41.7939 15.6246C42.1586 15.8724 42.6504 16.0472 43.0607 15.9787C43.5438 15.8981 43.9579 15.4665 43.9579 15.4665C44.0398 15.3919 44.0495 15.3163 43.9857 15.2412Z" fill="#C7C7C7"/>
<path d="M17.8899 8.95888C18.9083 9.04309 19.1609 9.46677 19.1609 10.5689V12.5064C19.1609 13.2733 18.741 13.8659 17.8899 13.9479H17.7225C16.9594 13.9479 16.621 13.6965 16.621 13.0181V8.95888H17.8899ZM22.489 5.42583C22.4333 5.36685 22.2493 5.25101 21.9769 5.03119C21.8519 4.93147 21.7367 4.8097 21.6305 4.67927C21.3973 4.39302 21.3184 3.93605 21.2931 3.31187C21.2814 3.08232 21.2931 2.9262 21.2931 2.9262C21.2921 2.9262 21.2899 2.9262 21.2899 2.92726C21.3184 2.50253 21.4041 1.88153 21.6305 1.60319C21.7367 1.47124 21.8519 1.35114 21.9769 1.25081C22.2493 1.03039 22.4333 0.91622 22.489 0.856629C22.5512 0.780012 22.5427 0.703851 22.4649 0.631491C22.4649 0.631491 22.0751 0.197024 21.6213 0.117215C21.2341 0.0491106 20.7735 0.223323 20.4281 0.472176C20.2678 0.594399 20.0849 0.7452 19.9444 0.858909L19.9213 0.838539C19.3281 0.419578 18.5715 0.166012 17.8899 0.166012H17.7225C16.8785 0.166012 15.8632 0.337032 15.0969 0.92747L15.0922 0.932334C14.9505 0.816497 14.715 0.62237 14.5215 0.472176C14.1761 0.223323 13.7117 0.0491106 13.3277 0.117215C12.8745 0.197024 12.4825 0.631491 12.4825 0.631491C12.4069 0.703851 12.3972 0.782141 12.4562 0.856629C12.5164 0.91622 12.6976 1.03039 12.9717 1.25081C13.096 1.35114 13.2087 1.4723 13.3192 1.60319C13.6249 1.97168 13.6436 2.64466 13.6682 3.05754V13.0191C13.6682 13.5871 13.5702 14.1667 13.3192 14.4741C13.2119 14.6092 13.096 14.7321 12.9717 14.829C12.6976 15.0484 12.5164 15.161 12.4562 15.2243C12.3972 15.2966 12.4069 15.3749 12.4825 15.4479C12.4825 15.4479 12.8745 15.8818 13.3277 15.9628C13.7117 16.0292 14.1761 15.8571 14.5215 15.6083C14.6946 15.4727 14.9023 15.3021 15.0449 15.1835C15.1302 15.2302 15.2182 15.278 15.2454 15.2935C16.2639 15.827 16.9235 16.0615 17.8899 16.0615H18.0562C20.848 16.0615 22.0338 14.7073 22.0338 11.4118C22.0338 8.28209 21.1022 7.27011 17.8899 7.1827H16.621V3.88513C16.621 2.95888 16.8785 2.19575 17.8899 2.19575C18.4744 2.19575 18.9159 2.5454 19.0805 3.05435C19.3438 3.86521 18.9812 4.5233 18.8531 4.67927C18.7496 4.8097 18.6316 4.93147 18.5066 5.03119C18.2342 5.25101 18.0513 5.36685 17.9945 5.42583C17.9344 5.50032 17.9419 5.57815 18.0197 5.65112C18.0197 5.65112 18.4095 6.08437 18.8611 6.16585C19.2494 6.2335 19.71 6.05913 20.0565 5.8115C20.1171 5.76422 20.1782 5.71436 20.2431 5.66389C20.3053 5.71436 20.366 5.76422 20.4281 5.8115C20.7735 6.05913 21.2358 6.2335 21.6213 6.16585C22.0751 6.08437 22.4655 5.65112 22.4655 5.65112C22.5427 5.57815 22.5512 5.50032 22.489 5.42583Z" fill="#C7C7C7"/>
<path d="M30.5172 5.52422C30.5172 6.62635 30.2645 7.04896 29.2461 7.13151H27.98V3.07339C27.98 2.39448 28.3162 2.14456 29.0777 2.14456H29.2461C30.0952 2.22665 30.5172 2.81755 30.5172 3.58448V5.52422ZM29.4135 0.029541H29.2461C28.2819 0.029541 27.618 0.26228 26.6033 0.799055C26.5749 0.813497 26.4864 0.860166 26.4017 0.906836C26.259 0.788262 26.0515 0.61937 25.8745 0.483162C25.5323 0.236437 25.0685 0.0616168 24.6829 0.129265C24.2286 0.210138 23.8383 0.642933 23.8383 0.642933C23.7642 0.71651 23.7546 0.793127 23.8151 0.867159C23.8737 0.929334 24.0534 1.04259 24.3252 1.2618C24.4507 1.36274 24.5692 1.48116 24.6744 1.61585C24.8138 1.789 24.9151 2.09151 24.9655 2.40087C25.0068 2.64014 25.0213 3.41452 25.0213 3.41452V12.8912C25.0079 13.259 24.9478 14.13 24.6695 14.4743C24.5613 14.609 24.4459 14.7318 24.3198 14.8294C24.0474 15.0481 23.8656 15.1608 23.8077 15.224C23.7487 15.2964 23.7583 15.3747 23.8351 15.4483C23.8351 15.4483 24.2239 15.8815 24.6754 15.9625C25.062 16.029 25.5253 15.8569 25.8697 15.6085C26.0977 15.4315 26.3782 15.1983 26.5031 15.0969C26.6264 15.1983 26.9086 15.4315 27.1348 15.6085C27.4801 15.8569 27.9435 16.029 28.3281 15.9625C28.7828 15.8815 29.1721 15.4483 29.1721 15.4483C29.2478 15.3747 29.258 15.2964 29.1969 15.224C29.1405 15.1608 28.9576 15.0481 28.6831 14.8294C28.5587 14.7318 28.4433 14.609 28.3372 14.4743C27.98 14.0351 27.98 12.7223 27.98 12.7223V8.90981H29.2461C32.4586 8.8224 33.39 7.80936 33.39 4.67901C33.39 1.38356 32.2043 0.029541 29.4135 0.029541Z" fill="#C7C7C7"/>
<path d="M92.7747 5.52422C92.7747 6.62635 92.5211 7.04896 91.5028 7.13151H90.2365V3.07339C90.2365 2.39448 90.5738 2.14456 91.3354 2.14456H91.5028C92.3506 2.22665 92.7747 2.81755 92.7747 3.58448V5.52422ZM91.67 0.029541H91.5028C90.5358 0.029541 89.8756 0.26228 88.8593 0.799055C88.8336 0.813497 88.743 0.860166 88.6603 0.906836C88.5167 0.788262 88.3092 0.61937 88.1331 0.483162C87.7879 0.236437 87.3271 0.0616168 86.94 0.129265C86.4853 0.210138 86.0964 0.642933 86.0964 0.642933C86.0198 0.71651 86.0128 0.793127 86.0712 0.867159C86.128 0.929334 86.312 1.04259 86.5844 1.2618C86.7093 1.36274 86.8226 1.48435 86.9319 1.61585C87.1304 1.85603 87.2077 2.24322 87.2446 2.59727C87.287 2.82728 87.279 3.3411 87.279 3.3411V12.8912C87.2666 13.259 87.2054 14.13 86.9249 14.4743C86.8199 14.609 86.7024 14.7318 86.5807 14.8294C86.3082 15.0481 86.121 15.1608 86.0669 15.224C86.0063 15.2964 86.016 15.3747 86.0915 15.4483C86.0915 15.4483 86.4793 15.8815 86.933 15.9625C87.3202 16.029 87.7846 15.8569 88.1274 15.6085C88.3536 15.4315 88.6347 15.1983 88.7596 15.0969C88.8856 15.1983 89.1661 15.4315 89.3946 15.6085C89.7378 15.8569 90.1989 16.029 90.5867 15.9625C91.0416 15.8815 91.4309 15.4483 91.4309 15.4483C91.506 15.3747 91.5134 15.2964 91.4534 15.224C91.3976 15.1608 91.2136 15.0481 90.944 14.8294C90.8163 14.7318 90.6998 14.609 90.5948 14.4743C90.2365 14.0351 90.2365 12.7223 90.2365 12.7223V8.90981H91.5028C94.7178 8.8224 95.6466 7.80936 95.6466 4.67901C95.6466 1.38356 94.4603 0.029541 91.67 0.029541Z" fill="#C7C7C7"/>
<path d="M54.0793 0.625508C54.0793 0.625508 53.689 0.192105 53.2352 0.112296C52.8507 0.0452562 52.3874 0.216276 52.042 0.465737C51.8156 0.641014 51.5352 0.873753 51.4102 0.978341C51.2853 0.873753 51.0026 0.641014 50.7774 0.465737C50.4353 0.216276 49.972 0.0452562 49.5852 0.112296C49.1306 0.192105 48.7932 0.625508 48.7932 0.625508C48.7175 0.699541 48.7069 0.776766 48.7674 0.850799C48.8238 0.911302 48.9568 1.02608 49.2292 1.24483C49.3531 1.3447 49.4673 1.46632 49.5757 1.59781C49.906 2.00583 49.9107 2.76045 49.9296 3.14551V7.09736C49.5097 7.18264 49.3381 7.18264 49.0843 7.18264C47.7297 7.18264 47.3109 6.84699 47.3109 5.49388V3.28916C47.3109 3.28916 47.3114 3.28916 47.3114 3.2919C47.3114 3.2919 47.3114 3.27685 47.3109 3.24903C47.3109 3.24903 47.2829 2.561 47.3618 2.17427C47.4058 1.94791 47.4669 1.73448 47.5791 1.59781C47.6852 1.46525 47.8005 1.3447 47.9244 1.24483C48.1979 1.02608 48.3475 0.897924 48.4054 0.837877C48.4665 0.76278 48.458 0.686163 48.3819 0.611522C48.3819 0.611522 48.022 0.192105 47.5683 0.112296C47.1838 0.0452562 46.723 0.216276 46.374 0.465737C46.2228 0.583703 46.0484 0.726904 45.9117 0.838333C45.7728 0.726904 45.598 0.583703 45.4441 0.465737C45.0998 0.216276 44.6375 0.0452562 44.2508 0.112296C43.7972 0.192105 43.4078 0.625508 43.4078 0.625508C43.3321 0.699541 43.323 0.776766 43.3831 0.850799C43.4405 0.911302 43.6234 1.02608 43.8948 1.24483C44.0197 1.3447 44.1366 1.46525 44.2423 1.59781C44.4241 1.82082 44.4873 2.2375 44.5115 2.61086C44.5157 2.65206 44.5185 2.86655 44.5185 2.86655V4.65033C44.5185 8.02999 45.5299 8.95882 49.2506 8.95882H49.9296V12.3412C49.9296 13.2732 49.6775 14.0353 48.6661 14.0353C48.3201 14.0353 48.0257 13.9131 47.8097 13.7082C47.6735 13.5794 47.3361 13.2497 47.4384 12.2483C47.4669 11.9674 47.594 11.6923 47.7216 11.5351C47.8273 11.4027 47.9453 11.2841 48.0702 11.1822C48.3416 10.9629 48.5255 10.8492 48.5819 10.7887C48.6409 10.713 48.6328 10.638 48.5582 10.565C48.5582 10.565 48.1684 10.1295 47.7142 10.0485C47.3291 9.98266 46.8647 10.1569 46.5198 10.403C46.4614 10.4503 46.3954 10.5006 46.3348 10.5504C46.2716 10.5006 46.2088 10.4503 46.1498 10.403C45.8033 10.1569 45.3427 9.98266 44.9545 10.0485C44.5018 10.1295 44.1103 10.565 44.1103 10.565C44.0348 10.638 44.0288 10.713 44.0857 10.7887C44.1436 10.8492 44.3259 10.9629 44.5994 11.1822C44.7243 11.2841 44.8435 11.4027 44.9447 11.5351C45.0805 11.6982 45.1658 11.9882 45.2161 12.2822C45.295 13.2132 45.3518 13.5832 45.3894 13.7247C45.8328 15.3706 47.5222 16.0619 48.8308 16.0619C50.5211 16.0619 52.8887 15.2955 52.8887 12.3412V3.22486C52.8968 2.88373 52.8781 2.04551 53.2449 1.59781C53.3531 1.46632 53.4675 1.3447 53.5903 1.24483C53.8659 1.02608 54.0498 0.911302 54.105 0.850799C54.164 0.776766 54.1549 0.699541 54.0793 0.625508Z" fill="#C7C7C7"/>
<path d="M65.4734 3.79017V11.3771C65.4734 11.3771 65.4508 12.9971 65.4535 13.2428C65.4546 13.4885 65.43 13.8708 64.7672 13.8708H62.254C62.254 13.8708 62.5039 13.6691 62.704 12.9114C62.7829 12.6057 62.8183 12.0008 62.8387 11.7605C63.0354 9.47169 62.9609 7.41169 63.0612 5.07563C63.0805 4.62521 63.0928 3.65989 63.1694 3.27377C63.2757 2.65658 63.6334 2.24248 64.331 2.17012H64.3772C64.9452 2.17012 65.2787 2.36044 65.4096 2.74125C65.5012 2.99603 65.4734 3.79017 65.4734 3.79017ZM68.4846 2.44086C68.5302 2.116 68.6127 1.78551 68.7613 1.60385C68.8643 1.47129 68.9828 1.3512 69.1088 1.25147C69.3814 1.03211 69.563 0.916275 69.6194 0.856684C69.6811 0.780067 69.6714 0.704362 69.5963 0.631545C69.5963 0.631545 69.2059 0.197078 68.7517 0.117725C68.365 0.0490129 67.9033 0.223985 67.5579 0.470102C67.3455 0.638538 67.085 0.853035 66.9482 0.965072L66.4012 0.648723C65.7389 0.316108 65.3404 0.189629 64.8251 0.108148C64.6893 0.0888416 64.1021 0.015873 63.5835 0.108148C62.0605 0.377219 60.9638 1.36184 60.6596 3.54406C60.5336 4.44719 60.5041 7.30133 60.5009 8.88809C60.4982 10.2439 60.5041 11.6109 60.2907 12.5172C60.2472 12.6974 60.0832 13.3833 59.6847 13.7577C59.483 13.9495 59.1274 14.0445 58.9034 14.1008C58.4373 14.192 58.446 14.6494 58.439 14.7031C58.4201 14.849 58.4095 14.9702 58.2856 15.6416C58.1144 16.5629 57.7541 16.7839 57.8362 16.9244C57.9209 17.0648 58.5334 17.2305 59.2545 16.8134C59.9759 16.3967 59.9491 15.6416 59.9491 15.6416H67.6947C67.6947 15.6416 67.7429 16.063 68.1388 16.5355C68.5849 17.0616 69.4745 16.9806 69.5846 16.8692C69.6339 16.8172 69.4885 16.3076 69.4172 15.8143C69.3309 15.2136 69.3046 14.6082 69.28 14.5197C69.215 14.2644 68.9726 14.0734 68.645 14.0064C68.5784 13.9925 68.4309 13.9802 68.4309 13.9802L68.4277 13.3886V3.81374C68.4277 3.81374 68.4052 3.03616 68.4846 2.44086Z" fill="#C7C7C7"/>
<path d="M82.0894 12.5906C82.0894 13.3565 81.4962 13.9491 80.7385 13.9491C80.0649 13.9491 79.4713 13.3565 79.4713 12.5906V3.4609C79.4713 2.70309 80.0649 2.1122 80.7385 2.1122C81.4962 2.1122 82.0894 2.70309 82.0894 3.4609V12.5906ZM80.7385 0.000213623C78.2909 0.000213623 76.6831 1.17896 76.6831 3.54831V7.09747H74.8217V3.20034C74.8345 2.84842 74.8924 1.94589 75.1773 1.59351C75.2844 1.46004 75.4003 1.33995 75.5252 1.24022C75.7976 1.02193 75.9816 0.906544 76.038 0.847561C76.097 0.7714 76.0883 0.694783 76.0121 0.620142C76.0121 0.620142 75.6228 0.186891 75.1681 0.107994C74.7825 0.0409544 74.3212 0.213647 73.9737 0.46098C73.7486 0.638384 73.4664 0.870668 73.3442 0.974648C73.2193 0.870668 72.9377 0.638384 72.7114 0.46098C72.3666 0.213647 71.901 0.0409544 71.5165 0.107994C71.065 0.186891 70.6751 0.620142 70.6751 0.620142C70.5962 0.694783 70.5892 0.7714 70.6494 0.847561C70.7067 0.906544 70.8885 1.02193 71.162 1.24022C71.2855 1.33995 71.4024 1.46004 71.5074 1.59351C71.7809 1.92871 71.8447 2.76162 71.8624 3.14561V12.9216C71.8447 13.305 71.7809 14.1415 71.5074 14.474C71.4024 14.6087 71.2855 14.732 71.162 14.8291C70.8885 15.0478 70.7067 15.1605 70.6494 15.2243C70.5892 15.2967 70.5962 15.3745 70.6751 15.448C70.6751 15.448 71.065 15.8812 71.5165 15.9628C71.901 16.0288 72.3666 15.8566 72.7114 15.6083C72.9377 15.4318 73.2193 15.198 73.3442 15.0966C73.4664 15.198 73.7486 15.4318 73.9737 15.6083C74.3212 15.8566 74.7825 16.0288 75.1681 15.9628C75.6228 15.8812 76.0121 15.448 76.0121 15.448C76.0883 15.3745 76.097 15.2967 76.038 15.2243C75.9816 15.1605 75.7976 15.0478 75.5252 14.8291C75.4003 14.732 75.2844 14.6087 75.1773 14.474C74.8924 14.1233 74.8345 13.2245 74.8217 12.8694V8.95893H76.6831V12.5906C76.6831 14.8768 78.2909 16.0615 80.7385 16.0615C83.1925 16.0615 84.8834 14.8768 84.8834 12.5906V3.54831C84.8834 1.17896 83.1925 0.000213623 80.7385 0.000213623Z" fill="#C7C7C7"/>
<path d="M104.943 9.27081C104.558 9.20802 104.096 9.38665 103.753 9.64082C103.695 9.68749 103.633 9.73735 103.572 9.78782C103.509 9.74009 103.443 9.69022 103.384 9.64462C103.035 9.40002 102.572 9.23539 102.187 9.30684C101.735 9.39151 101.35 9.82856 101.35 9.82856C101.275 9.90472 101.268 9.98255 101.327 10.056C101.385 10.1154 101.568 10.227 101.842 10.4432C101.971 10.5429 102.09 10.6604 102.198 10.7911C102.379 11.0094 102.486 11.4439 102.542 11.8284C102.591 12.1415 102.578 12.6676 102.578 12.7047C102.542 13.4125 102.19 13.9478 101.23 13.9478C100.554 13.9478 99.8866 13.3567 99.8866 12.591V3.46069C99.8866 2.36722 100.476 2.11198 101.152 2.11198C102.025 2.11198 102.396 2.61607 102.482 3.18675C102.518 3.42694 102.515 4.43406 102.463 4.68504C102.417 4.91078 102.319 5.12057 102.215 5.24811C102.111 5.38219 101.997 5.50457 101.875 5.60748C101.604 5.83049 101.42 5.94527 101.367 6.00805C101.308 6.08269 101.317 6.15991 101.393 6.2338C101.393 6.2338 101.79 6.66127 102.244 6.73469C102.632 6.79641 103.091 6.61886 103.434 6.36575C103.491 6.32014 103.555 6.26815 103.618 6.21616C103.681 6.26541 103.745 6.31695 103.804 6.36149C104.152 6.60502 104.616 6.77072 105.001 6.69821C105.457 6.61414 105.838 6.17648 105.838 6.17648C105.914 6.10032 105.921 6.02523 105.861 5.95013C105.802 5.89115 105.618 5.77957 105.342 5.56188C105.219 5.46322 105.098 5.34631 104.992 5.21497C104.812 4.99607 104.691 4.56388 104.647 4.17775C104.622 3.99381 104.61 3.2322 104.61 3.2322V2.36722C104.61 2.0305 104.786 1.69211 105.123 1.35098L105.711 0.838226C105.711 0.764346 105.711 0.677999 105.63 0.677999L105.213 0.248853C105.123 0.165851 104.703 0 104.02 0.420025L103.258 0.927309C102.585 0.248853 101.651 0 100.896 0C98.784 0 97.0938 1.17935 97.0938 3.54916V12.591C97.0938 14.8772 98.784 16.0617 100.896 16.0617C102.288 16.0617 104.524 15.2702 104.679 12.8596C104.697 12.6591 104.688 12.0515 104.689 11.8504C104.691 11.6412 104.699 11.4418 104.725 11.3205C104.773 11.0947 104.87 10.8851 104.971 10.7569C105.077 10.6218 105.189 10.5015 105.314 10.3976C105.585 10.1767 105.765 10.0608 105.822 9.99852C105.879 9.9219 105.872 9.8462 105.793 9.77231C105.793 9.77231 105.397 9.34484 104.943 9.27081Z" fill="#C7C7C7"/>
<path d="M112.862 12.5906C112.862 13.3565 112.274 13.9491 111.516 13.9491C110.837 13.9491 110.247 13.3565 110.247 12.5906V3.4609C110.247 2.70309 110.837 2.1122 111.516 2.1122C112.274 2.1122 112.862 2.70309 112.862 3.4609V12.5906ZM116.852 0.620142C116.852 0.620142 116.462 0.186891 116.008 0.107994C115.622 0.0409544 115.16 0.213647 114.814 0.46098C114.678 0.567696 114.525 0.693111 114.395 0.798763C113.672 0.264573 112.678 0.000213623 111.516 0.000213623C109.066 0.000213623 107.457 1.17896 107.457 3.54831V12.5906C107.457 14.8768 109.066 16.0615 111.516 16.0615C113.965 16.0615 115.656 14.8768 115.656 12.5906L115.658 3.81328C115.658 3.81328 115.656 3.20825 115.672 3.00181C115.695 2.583 115.774 1.88858 116.017 1.59351C116.123 1.46004 116.238 1.33995 116.364 1.24022C116.637 1.02193 116.82 0.906544 116.877 0.847561C116.937 0.7714 116.929 0.694783 116.852 0.620142Z" fill="#C7C7C7"/>
</svg>
