<svg width="148" height="16" viewBox="0 0 148 16" fill="none" xmlns="http://www.w3.org/2000/svg">
<path d="M15.4055 3.02881C15.7418 1.25103 15.2036 0.0658439 13.0509 0.0658439H6.39091L5.78545 3.09465H11.4364C11.7727 3.09465 11.9073 3.29218 11.84 3.68724L11.1 7.37449H7.60182L8.14 4.80659L0 8.62551H6.05455L5.51636 11.1934L10.8309 8.69136L10.1582 12.3128C10.0909 12.7078 9.88909 12.8395 9.48545 12.8395H3.83455L3.22909 15.9342H9.88909C12.0418 15.9342 13.0509 14.6831 13.3873 12.9712L15.4055 3.02881ZM26.3709 15.9342L29.5327 0H22.1327C19.98 0 18.9036 1.25103 18.5673 2.96296L14.8 15.9342H18.4327L21.8636 3.68724C21.9309 3.29218 22.1327 3.09465 22.4691 3.09465H25.4291L22.8727 15.9342H26.3709ZM38.1436 8.55967L37.4036 12.4444C37.3364 12.8395 37.0673 13.037 36.7309 13.037H33.7709L34.78 7.96708H37.74C38.1436 8.03292 38.2782 8.16461 38.1436 8.55967ZM41.7091 8.16461C42.0455 6.38683 41.5073 5.1358 39.3545 5.1358H35.3855L36.3945 0.0658439H32.8964L29.7345 16H37.2018C39.4218 16 40.3636 14.749 40.7673 13.037L41.7091 8.16461ZM53.2127 3.09465L51.2618 12.8395H47.5618L50.1182 3.68724C50.1855 3.29218 50.3873 3.09465 50.7236 3.09465H53.2127ZM54.76 12.8395L57.3164 0H50.32C48.1673 0 47.0909 1.25103 46.7545 2.96296L43.9291 12.7737H42.4491L41.7764 15.8683H43.0545H54.1545H55.1636L55.7691 12.7737H54.76V12.8395ZM66.8691 3.68724L65.1873 12.3128C65.0527 12.7078 64.8509 12.8395 64.5145 12.8395H62.0255C61.6891 12.8395 61.5545 12.7078 61.6218 12.3128L63.3709 3.68724C63.4382 3.29218 63.5727 3.09465 63.9764 3.09465H66.4655C66.8018 3.09465 66.9364 3.29218 66.8691 3.68724ZM70.4345 3.02881C70.7709 1.25103 70.2327 0.0658439 68.08 0.0658439H63.64C61.4873 0.0658439 60.4109 1.31687 60.0073 3.02881L58.0564 12.9712C57.72 14.749 58.2582 15.9342 60.4109 15.9342H64.9182C67.1382 15.9342 68.1473 14.6831 68.4836 12.9712L70.4345 3.02881ZM80.3236 3.68724L79.5164 7.63786C79.4491 8.09877 79.2473 8.23045 78.8436 8.23045H75.8836L76.96 3.09465H79.92C80.2564 3.09465 80.3909 3.29218 80.3236 3.68724ZM83.8891 3.02881C84.2927 1.25103 83.6873 0.0658439 81.5345 0.0658439H74.1345L70.9727 16H74.3364L75.2782 11.3909H79.3145C81.4673 11.3909 82.3418 10.1399 82.7455 8.36214L83.8891 3.02881ZM91.02 4.21399L90.4818 10.4033H88.06L90.8182 4.21399H91.02ZM93.9127 15.9342L94.3164 0H89.6073L81.8036 15.9342H85.5709L86.8491 12.9712H90.2127L89.9436 15.9342H93.9127ZM106.762 3.09465L104.811 12.8395H101.111L103.667 3.68724C103.735 3.29218 103.936 3.09465 104.273 3.09465H106.762ZM108.309 12.8395L110.865 0H103.869C101.716 0 100.64 1.25103 100.304 2.96296L97.4782 12.7737H95.9982L95.3255 15.8683H96.5364H107.636H108.713L109.318 12.7737H108.309V12.8395ZM120.822 3.68724L119.073 12.3128C119.005 12.7078 118.804 12.8395 118.467 12.8395H115.978C115.642 12.8395 115.507 12.7078 115.575 12.3128L117.256 3.68724C117.391 3.29218 117.593 3.09465 117.862 3.09465H120.351C120.687 3.09465 120.889 3.29218 120.822 3.68724ZM121.965 0.0658439H117.458C115.305 0.0658439 114.296 1.31687 113.96 3.02881L112.009 12.9712C111.673 14.749 112.211 15.9342 114.364 15.9342H118.871C121.024 15.9342 122.033 14.6831 122.369 12.9712L124.387 3.02881C124.656 1.25103 124.118 0.0658439 121.965 0.0658439ZM127.751 12.3128L127.011 16H123.58L124.32 12.3128H127.751ZM146.251 13.6955C145.982 15.0123 145.242 15.9342 143.627 15.9342H140.735C139.12 15.9342 138.716 15.0123 138.985 13.6955L140.735 4.80659H143.224L141.542 13.3004C141.475 13.4979 141.542 13.6296 141.676 13.6296H143.493C143.695 13.6296 143.762 13.5638 143.829 13.3004L145.511 4.80659H148L146.251 13.6955ZM135.622 7.37449L135.016 10.1399C134.949 10.4691 134.815 10.535 134.545 10.535H132.527L133.267 6.97942H135.353C135.555 6.97942 135.689 7.11111 135.622 7.37449ZM136.429 4.80659H131.249L129.029 15.9342H131.384L132.056 12.7078H133.2L133.738 15.9342H136.362L135.689 12.642C136.631 12.3786 137.102 11.5885 137.304 10.6008L138.044 6.91358C138.38 5.66255 137.976 4.80659 136.429 4.80659Z" fill="#C7C7C7"/>
</svg>
