<svg width="91" height="32" viewBox="0 0 91 32" fill="none" xmlns="http://www.w3.org/2000/svg">
<path fill-rule="evenodd" clip-rule="evenodd" d="M13.0861 22.7064L12.6972 24.4542H46.3684L46.7438 22.7064H13.0861ZM87.5557 22.7064L87.1663 24.4542H55.8563L56.2446 22.7064H87.5557ZM83.9156 18.3715C84.1238 18.7235 84.5266 18.8997 85.1102 18.8997C86.1105 18.8997 86.8049 18.1816 87.1803 16.6913C87.4029 15.8243 87.1803 15.0657 86.5129 14.4153L86.0406 13.9411C84.8746 12.7897 84.4852 11.4615 84.8746 9.93088C85.1516 8.84714 85.6383 7.98005 86.3327 7.33011C87.0405 6.67967 87.8322 6.35445 88.7357 6.35445C89.4306 6.35445 90.1938 6.54382 91 6.92308L90.4165 9.21276H89.6802C90.0281 7.85784 89.7216 7.167 88.7771 7.167C87.8467 7.167 87.2217 7.83057 86.8883 9.14509C86.6941 9.90361 86.9167 10.6081 87.5686 11.2853L88.0409 11.7731C89.2364 12.9927 89.6248 14.3608 89.2494 15.8647C88.9439 17.0438 88.4017 17.9786 87.624 18.6694C86.8463 19.3739 85.9433 19.7264 84.916 19.7264C84.5965 19.7264 84.2626 19.6855 83.9156 19.6315C83.429 19.5426 82.9504 19.4158 82.4845 19.2522L83.1509 16.6646H83.8872C83.6935 17.4367 83.7075 18.0059 83.9156 18.3715ZM83.9156 8.61686L84.027 8.21033C84.1512 7.73664 84.5132 7.49222 85.1381 7.49222L85.3463 6.67967H82.3732L82.165 7.49222C82.79 7.49222 83.0406 7.73614 82.9298 8.21033L81.1377 15.4046L78.1926 6.67967H76.1778L75.9697 7.49222C76.4559 7.49222 76.706 7.6008 76.7345 7.81744C76.7619 8.02045 76.692 8.49465 76.4978 9.2269L74.553 16.8954C74.3728 17.6402 74.2061 18.1144 74.0668 18.3175C73.9281 18.5341 73.6231 18.6154 73.1504 18.6154L72.9422 19.428H75.9143L76.1224 18.6154C75.4975 18.6154 75.2479 18.3851 75.3587 17.9109L77.1368 10.8252L80.082 19.5365H81.1092L83.9156 8.61686ZM68.7606 15.0521H69.8862L69.8308 10.6899L68.7611 12.817L67.6225 15.0521H68.7606ZM68.7606 11.4216L71.1776 6.67967H71.9838L72.1505 17.8973C72.1645 18.3851 72.3447 18.6154 72.6786 18.6154L72.4705 19.4421H68.831L69.0391 18.6154C69.5398 18.6154 69.8168 18.5068 69.8722 18.2634C69.9137 18.0872 69.9276 17.6539 69.9276 16.9358L69.9137 15.8788H67.2051L66.663 16.9489C66.3021 17.6539 66.0934 18.0872 66.052 18.2634C65.9821 18.5068 66.1494 18.6154 66.5517 18.6154L66.3575 19.4421H64.3299L64.538 18.6154L64.7876 18.5881C64.9957 18.5609 65.2458 18.2771 65.5378 17.7347L65.6067 17.5993L68.7606 11.4216ZM66.8996 6.67967L66.329 8.92845H65.6626L65.8578 8.1563C65.9267 7.87198 65.8439 7.6821 65.6072 7.57353C65.4959 7.53262 65.3302 7.50585 65.1216 7.50585H63.2182L62.0097 12.3019L63.6495 12.2746C63.8991 12.2746 64.0792 12.0852 64.1776 11.7191L64.2465 11.4075H64.9139L64.2605 13.9547H63.607L63.6769 13.6432C63.7743 13.2775 63.6909 13.0876 63.4413 13.0876L61.815 13.074L60.8431 16.8949C60.6619 17.5993 60.579 18.0599 60.579 18.2902C60.593 18.5205 60.913 18.6154 61.5649 18.6154H62.0796L62.8573 18.5881C63.0929 18.5881 63.2456 18.5341 63.3295 18.3851C63.4123 18.2362 63.5097 17.8842 63.649 17.3554L63.7178 17.0979H64.4541L63.8576 19.4421H57.1616L57.3558 18.6154C57.9808 18.6154 58.3562 18.3983 58.4815 17.9109L60.9399 8.21033C61.0652 7.73664 60.8156 7.50585 60.1896 7.50585L60.3988 6.67916H66.8996V6.67967ZM61.5794 0.000504725L61.1486 1.69378C60.3569 1.69378 59.7733 1.87003 59.3705 2.24928C59.1209 2.47956 58.9537 2.77751 58.8569 3.15677L53.2725 23.8846C52.5088 26.8924 51.4944 29.0058 50.2305 30.1981C48.9666 31.3905 47.1186 32 44.7021 32C44.494 32 44.2853 31.9864 44.0771 31.9727C43.4298 31.9183 42.7911 31.7908 42.1738 31.593C42.0904 31.5657 42.021 31.5394 41.9377 31.5253L42.1738 30.9158L43.3543 27.8272H44.7021C44.2434 29.6426 44.0772 30.4688 45.1189 30.4688C46.022 30.4688 46.7023 30.1431 47.1606 29.4659C47.6328 28.816 48.1195 27.4747 48.6332 25.4693L54.4676 3.15627C54.7182 2.1806 54.1906 1.69327 52.8982 1.69327L53.329 0H61.5794V0.000504725ZM44.0766 15.8788H45.2152L45.2292 16.9358C45.2427 17.6539 45.2292 18.0872 45.1873 18.2634C45.1319 18.5068 44.8399 18.6154 44.3536 18.6154L44.1455 19.4421H47.7571L47.9652 18.6154C47.6457 18.6154 47.4655 18.3851 47.4371 17.8973L47.3956 16.9489L47.2843 6.67967H46.4652L44.0756 11.4216L42.1722 15.1471L40.8529 17.7347C40.5614 18.2771 40.3113 18.5614 40.1026 18.5881L39.8525 18.6154L39.6444 19.4421H41.6586L41.8672 18.6154C41.4644 18.6154 41.2977 18.5068 41.3671 18.2634C41.409 18.0872 41.6032 17.6539 41.978 16.9489L42.1722 16.556L42.5196 15.8788H44.0766ZM44.0766 12.817L45.1459 10.6899L45.2013 15.0521H42.937L44.0766 12.817ZM42.4099 6.67967L42.2017 7.50636H42.1738C41.5628 7.50636 41.2014 7.75028 41.0766 8.21084L38.6176 17.9114C38.4923 18.3988 38.7429 18.6159 39.3679 18.6159L39.1597 19.4426H35.1593L35.3675 18.6159C35.5342 18.6159 35.6869 18.6028 35.8122 18.5755C36.1731 18.4942 36.3953 18.2639 36.4926 17.9119L38.9516 8.21134C39.0764 7.73765 38.8123 7.50686 38.1873 7.50686L38.3955 6.68017H42.4099V6.67967ZM35.8117 11.0692C36.0059 10.6626 36.1726 10.2157 36.2979 9.72787C36.6314 8.40022 36.4786 7.49222 35.8117 7.01853C35.4503 6.76098 34.9367 6.62564 34.2698 6.62564L29.6998 6.67967L29.4916 7.50636C30.1166 7.50636 30.3667 7.73664 30.2559 8.21084L27.7834 17.9114C27.728 18.169 27.5893 18.3584 27.3806 18.4801C27.1999 18.575 26.9638 18.6159 26.6723 18.6159L26.4641 19.4426H30.3258L30.5205 18.6159C30.1451 18.5755 29.9229 18.5346 29.8815 18.4533C29.8396 18.3584 29.8536 18.1826 29.9235 17.9119L30.9792 13.6305H31.6322L32.2431 19.4426H34.6881L34.8963 18.6159C34.5354 18.6159 34.2159 18.0064 34.1186 17.0711L33.7017 13.1831C34.6307 12.7488 35.3255 12.0312 35.8117 11.0692ZM32.7557 12.4241C33.3947 11.9766 33.8669 11.1368 34.1864 9.90411C34.5892 8.30527 34.2283 7.50636 33.0752 7.50636H32.5336L31.1863 12.817H31.5058C31.978 12.817 32.3943 12.6816 32.7557 12.4241ZM28.1019 8.26487C28.4493 9.45718 28.366 11.0828 27.8383 13.1286C27.7096 13.65 27.5565 14.1655 27.3796 14.6734C26.9073 16.0687 26.3103 17.1933 25.6155 18.0735C25.1707 18.6154 24.7125 19.0356 24.2262 19.3335C23.6707 19.6724 23.0871 19.8486 22.4761 19.8486C21.3784 19.8486 20.6561 19.2391 20.3232 18.0468C19.9897 16.8413 20.0871 15.2157 20.6007 13.17C21.1289 11.0969 21.8646 9.47132 22.8096 8.26538C23.2683 7.69674 23.7406 7.26295 24.2262 6.965C24.7679 6.63978 25.324 6.47716 25.907 6.47716C26.5185 6.47716 27.0047 6.65341 27.3796 7.0054C27.6996 7.28921 27.9491 7.7225 28.1019 8.26487ZM24.2262 17.3691C24.685 16.3803 25.1432 14.944 25.6295 13.0472C26.6019 9.24003 26.6158 7.34375 25.6988 7.34375C25.2126 7.34375 24.7264 7.87198 24.2262 8.92895C23.768 9.90462 23.3092 11.3136 22.837 13.1563C21.8512 17.0449 21.8232 18.982 22.7676 18.982C23.2404 18.981 23.7266 18.4523 24.2262 17.3691ZM13.4475 16.7868L15.6284 8.21084C15.7397 7.73715 15.4896 7.49272 14.8647 7.49272L15.0728 6.68017H19.0732L18.8651 7.49272C18.2401 7.49272 17.8647 7.73664 17.7539 8.21084L15.5171 16.8954C15.3643 17.518 15.2949 17.9246 15.3089 18.1276C15.3364 18.3175 15.6698 18.426 16.3228 18.426H17.1978L17.6286 18.3983C18.0594 18.3983 18.3369 18.1685 18.4622 17.6938L18.587 17.2059L18.6704 16.8949H19.5035L18.8646 19.4416L11.8356 19.428L12.0438 18.6154C12.6687 18.6154 13.0441 18.3851 13.1549 17.9109L13.4475 16.7868ZM13.4475 9.03702L14.1978 6.0969C13.9477 5.98883 13.6976 5.88025 13.4475 5.79895C12.3643 5.41969 11.2671 5.23031 10.1694 5.23031C5.55745 5.23031 2.39067 8.6714 0.640036 15.5672C-0.17962 18.7513 -0.207063 21.2707 0.52923 23.1271C1.2795 24.9835 2.69617 25.9046 4.77974 25.9046C5.87745 25.9046 7.4189 25.6062 9.39166 25.0103C10.128 22.1923 10.8503 19.3744 11.5726 16.5565H6.84985L6.53038 17.8165C7.37799 17.8165 7.93306 18.1281 7.71093 18.9548L6.36313 24.3194C6.01621 24.482 5.68276 24.5633 5.37675 24.5633C3.0291 24.5633 2.6128 21.5692 4.14079 15.5808C4.96045 12.3428 5.82153 10.04 6.72455 8.64463C7.62756 7.26244 8.71077 6.5716 10.0032 6.5716C11.948 6.5716 12.6843 7.50687 12.2115 9.40315L12.1421 9.6602H13.2953L13.4475 9.03702Z" fill="#C7C7C7"/>
</svg>
