<svg width="84" height="26" viewBox="0 0 84 26" fill="none" xmlns="http://www.w3.org/2000/svg">
<path d="M36.9582 3.1461L36.6199 4.48643C36.6199 4.48643 35.5812 4.35595 34.1211 5.5747L27.702 10.7047L25.4496 12.5106C25.4496 12.5106 26.5179 14.1742 27.702 15.9889C29.0078 17.9905 30.4531 20.173 30.738 20.4784C31.2811 21.0626 32.1743 22.0501 33.5365 22.0412L33.1833 23.4734C30.8478 23.4734 29.1058 23.5416 27.702 23.4764C23.5562 23.2896 22.3721 21.9581 17.6149 14.3343C17.6149 14.3343 16.2646 19.2182 15.9382 20.4369C15.6088 21.6675 17.3241 22.0086 17.3241 22.0086L16.962 23.4616H6.21905H6.19531L6.21905 23.3637L6.55143 22.0293C7.09452 21.9937 8.60803 22.1746 9.54878 18.5925C9.78026 17.9105 9.38259 19.147 12.8192 6.73118C13.3059 4.88675 11.9021 4.61394 11.4125 4.48939L11.7419 3.16389L22.0397 3.15796L21.7073 4.49236C21.7073 4.49236 20.3214 4.64359 19.9386 5.93054L18.0987 12.5996C18.0987 12.5996 26.6574 6.06695 26.7643 5.97206C27.6011 5.19811 26.5773 4.54573 25.8443 4.49236L26.1767 3.16686L27.705 3.16389L36.9582 3.1461ZM71.0152 2.96521C69.8727 2.95039 68.7747 3.00673 67.7271 3.12831C59.103 4.13652 53.8829 9.569 53.8977 15.0074C53.9125 19.5651 57.5954 23.9568 66.1483 23.9212C66.6913 23.9182 67.2196 23.9034 67.73 23.8708C69.7985 23.764 71.6266 23.4764 73.2915 23.1413L74.2797 18.8979C72.6267 19.4495 70.5315 19.9121 68.8577 19.915C68.472 19.915 68.0951 19.8972 67.73 19.8587C63.8097 19.4643 61.2516 16.9319 61.2427 13.7027C61.2338 10.3548 63.6673 7.72457 67.73 7.03958C68.4126 6.92689 69.1337 6.86462 69.9024 6.86462C72.5228 6.86462 73.8523 7.73346 74.7248 8.87511H75.4341L76.8319 3.86371C75.3896 3.39815 73.2558 2.99783 71.0152 2.96521ZM48.3303 3.16093H38.175L37.8426 4.48643C37.8426 4.48643 39.8695 4.70586 39.2463 6.72525L34.6375 23.4616L43.8521 23.4764L44.1964 22.0382C44.1964 22.0382 42.4751 21.6231 42.9232 20.0336C42.9559 19.8913 44.2765 15.0667 44.2765 15.0667L48.3303 15.0638H48.4995C50.6036 15.0697 51.298 16.1609 51.298 16.1609L52.5237 11.194H48.3303H45.4042L46.4637 7.28866H48.3303L52.6453 7.2857C53.7849 7.2857 54.5803 8.04186 54.5803 8.59934H55.2806L56.6428 3.16093H48.3303ZM80.9035 5.81786C81.1766 5.54208 81.319 5.20107 81.319 4.80668C81.319 4.41526 81.1766 4.08018 80.9065 3.8044C80.6275 3.5227 80.2892 3.38333 79.8975 3.38333C79.5058 3.38333 79.1704 3.51973 78.8914 3.8044C78.6155 4.08018 78.476 4.41526 78.476 4.80668C78.476 5.20107 78.6125 5.53912 78.8885 5.81786C79.1645 6.10253 79.4998 6.23597 79.8945 6.23597C80.2922 6.23597 80.6246 6.0966 80.9035 5.81786ZM81.0668 3.64131C81.3902 3.96453 81.5505 4.35299 81.5505 4.80668C81.5505 5.26631 81.3902 5.6518 81.0668 5.97799C80.7433 6.30417 80.3545 6.4643 79.8945 6.4643C79.4375 6.4643 79.0487 6.30121 78.7253 5.97799C78.4047 5.65477 78.2445 5.26631 78.2445 4.80668C78.2445 4.35299 78.4048 3.96453 78.7282 3.64131C79.0517 3.32105 79.4405 3.16093 79.8945 3.16389C80.3545 3.16093 80.7403 3.31809 81.0668 3.64131ZM80.1408 4.72958C80.2625 4.67917 80.3278 4.58428 80.3278 4.44788C80.3278 4.31444 80.2863 4.22844 80.2091 4.181C80.126 4.13355 79.9984 4.1128 79.8174 4.11576H79.5503V4.7711H79.8381C79.9717 4.7711 80.0726 4.75627 80.1408 4.72958ZM80.6157 5.58953C80.6186 5.63994 80.6246 5.66959 80.6335 5.68442L80.6424 5.70814H80.3456C80.3427 5.69925 80.3426 5.69628 80.3397 5.68739C80.3367 5.68145 80.3367 5.67849 80.3367 5.66663L80.3278 5.60732V5.46202C80.3278 5.25445 80.2714 5.11508 80.1587 5.04984C80.0904 5.01129 79.9687 4.98757 79.8025 4.98757H79.5532V5.70518H79.2298V3.8904H79.8678C80.0934 3.8904 80.2566 3.91412 80.3634 3.9586C80.5504 4.0357 80.6483 4.18989 80.6483 4.41822C80.6483 4.57835 80.589 4.69697 80.4673 4.77406C80.405 4.81261 80.3189 4.84227 80.2061 4.86006C80.3456 4.88082 80.4524 4.94012 80.5177 5.03501C80.5801 5.13583 80.6157 5.22776 80.6157 5.31672V5.45016C80.6097 5.50057 80.6127 5.54505 80.6157 5.58953Z" fill="#C7C7C7"/>
</svg>
