<svg width="80" height="19" viewBox="0 0 80 19" fill="none" xmlns="http://www.w3.org/2000/svg">
<path d="M46.4168 16.6879C46.4168 16.8399 46.4583 16.9228 46.555 16.9228C46.6241 16.9228 46.6793 16.8951 46.7484 16.8537L71.6698 0.649256C72.1118 0.359144 72.5125 0.207195 73.1065 0.207195L78.5909 0.207243C79.4336 0.207243 80 0.77363 80 1.61634V12.0739C80 13.331 79.7237 14.0632 78.5909 14.7401L71.9461 18.7325C71.8632 18.7878 71.7803 18.8154 71.7251 18.8154C71.6422 18.8154 71.5731 18.7602 71.5731 18.5253V6.31332C71.5731 6.17516 71.5317 6.07845 71.435 6.07845C71.3659 6.07845 71.3106 6.10612 71.2416 6.14753L53.0202 17.9866C52.509 18.3181 52.0946 18.4148 51.6249 18.4148L39.5371 18.4147C38.6945 18.4147 38.128 17.8484 38.128 17.0056V1.94781C38.128 1.83732 38.0728 1.74057 37.9899 1.74057C37.9208 1.74057 37.8656 1.76824 37.7965 1.80965L25.7779 9.03467C25.6535 9.10375 25.6259 9.17283 25.6259 9.22808C25.6259 9.28332 25.6397 9.32478 25.7364 9.40765L34.3152 17.9864C34.4257 18.0969 34.5086 18.1937 34.5086 18.2765C34.5086 18.3732 34.3843 18.4285 34.2323 18.4285L26.4686 18.4285C25.8608 18.4285 25.3911 18.3318 25.0595 18.0003L19.8515 12.7922C19.7962 12.737 19.7548 12.7093 19.6995 12.7093C19.6581 12.7093 19.589 12.737 19.5337 12.7646L10.8306 18.0003C10.3057 18.318 9.94646 18.4147 9.42148 18.4147H1.4091C0.566435 18.4147 0 17.8484 0 17.0056V6.74145C0 5.47051 0.276276 4.75218 1.4091 4.07525L8.09535 0.0552456C8.16443 0.0137876 8.21968 0 8.27492 0C8.37162 0 8.42687 0.110491 8.42687 0.331522V14.0632C8.42687 14.2013 8.46833 14.2704 8.56503 14.2704C8.62028 14.2704 8.68936 14.229 8.75844 14.1875L31.3452 0.607845C31.8839 0.290111 32.2155 0.193407 32.8372 0.193407L44.9941 0.193312C45.8367 0.193312 46.4032 0.759699 46.4032 1.60241L46.4169 16.6879L46.4168 16.6879Z" fill="#C7C7C7"/>
</svg>
