<svg width="149" height="22" viewBox="0 0 149 22" fill="none" xmlns="http://www.w3.org/2000/svg">
<path fill-rule="evenodd" clip-rule="evenodd" d="M33.1122 3.40633L31.9689 2.75761C32.9105 2.08473 34.0319 1.5321 35.3327 1.09943C36.9923 0.570684 38.8868 0.306864 41.0173 0.306864C44.314 0.306864 47.0721 1.20385 49.2924 2.99755C50.3468 3.86288 51.1422 4.81652 51.6809 5.8568C52.2188 6.89847 52.4879 8.04345 52.4879 9.29312C52.4879 11.6964 51.4282 13.6548 49.3088 15.1685C47.1899 16.682 44.4261 17.4388 41.0173 17.4388C39.8287 17.4388 38.7582 17.391 37.8048 17.2944C36.8515 17.1983 35.9828 17.0389 35.1977 16.8142C34.0541 16.494 32.9555 15.9725 31.9014 15.2521L33.0114 14.5315C33.7742 15.1241 34.7492 15.6206 35.9378 16.0219C37.082 16.3582 38.573 16.5259 40.4116 16.5259C43.0354 16.5259 45.071 15.8733 46.517 14.5676C47.9636 13.2612 48.6861 11.6878 48.6861 9.84631L47.4417 10.1337C46.9933 10.2307 46.5789 10.2784 46.1973 10.2784C45.6817 10.2784 45.2104 10.2145 44.7841 10.0868L43.5397 9.65386C43.2706 9.54195 42.9171 9.43364 42.4803 9.32922C42.0426 9.22536 41.5997 9.17288 41.1512 9.17288C40.5902 9.17288 40.0415 9.22953 39.5024 9.34116C39.1442 9.40559 38.8582 9.4653 38.6449 9.52167C38.4319 9.57721 38.1461 9.67747 37.7876 9.82187V8.57164C39.0209 8.06011 40.1078 7.80268 41.0501 7.80268C41.5661 7.80268 42.0651 7.85572 42.5472 7.95986C43.0293 8.06317 43.4947 8.21951 43.9435 8.42807L45.154 8.83657C45.5356 8.91628 45.928 8.95682 46.332 8.95682C47.0941 8.95682 47.8791 8.82824 48.6859 8.57192C48.6859 6.61799 48.0135 4.92732 46.6683 3.50214C45.2101 1.98087 43.1243 1.21968 40.4114 1.21968C38.8196 1.21968 37.3616 1.44407 36.0383 1.892C34.9622 2.24469 33.9867 2.74928 33.1119 3.40633H33.1122ZM26.3184 2.6182L26.9068 4.42134L27.7613 2.62681C28.1779 2.38104 28.4587 1.92783 28.4587 1.4113C28.4587 0.634001 27.8249 0 27.0474 0C26.2703 0 25.6366 0.633723 25.6366 1.4113C25.6366 1.922 25.9102 2.37049 26.3181 2.6182H26.3184ZM0.860886 17.5087C5.79154 -1.32299 21.3922 0.183563 26.0546 17.6476C26.1101 17.8562 27.0718 16.4329 27.1196 16.6484C22.145 -5.51883 3.42438 -3.47437 0 18.3696L0.860886 17.5087ZM107.047 17.5087C111.978 -1.32299 127.578 0.183563 132.241 17.6476C132.296 17.8562 133.258 16.4329 133.306 16.6484C128.332 -5.51883 109.611 -3.47437 106.187 18.3696L107.047 17.5087ZM142.202 16.5743C143.438 16.5743 144.382 16.3093 145.034 15.7806C145.687 15.2527 146.013 14.5798 146.013 13.7628C146.013 12.9458 145.699 12.2735 145.069 11.7447C144.44 11.216 143.542 10.9519 142.377 10.9519H137.831V16.5745H142.202V16.5743ZM137.831 5.52078V10.2307H142.028C144.288 10.2307 146.013 10.5586 147.202 11.2154C148.391 11.8722 148.985 12.7206 148.985 13.7625C148.985 14.7717 148.379 15.6123 147.168 16.286C145.955 16.9583 144.242 17.2946 142.028 17.2946H134.684V5.52078H137.831ZM101.587 16.5984V10.9516H96.5253C95.3625 10.9516 94.4572 11.2315 93.8093 11.7925C93.1612 12.3529 92.8368 13.0496 92.8368 13.8822C92.8368 14.7156 93.1217 15.3763 93.6916 15.8653C94.2617 16.354 95.1162 16.5984 96.2559 16.5984H101.587ZM101.587 8.14009C101.587 7.37112 101.313 6.81433 100.765 6.46969C100.218 6.12506 99.1618 5.95289 97.5975 5.95289C95.9879 5.95289 94.8927 6.12478 94.3117 6.46969C93.731 6.81433 93.4403 7.41111 93.4403 8.26034H90.6579C90.6579 7.25088 91.2833 6.49441 92.5349 5.98871C93.7866 5.48467 95.4744 5.23252 97.5975 5.23252C100.256 5.23252 102.095 5.46524 103.112 5.929C104.129 6.39388 104.637 7.23449 104.637 8.45251V17.2944H95.4853C93.6746 17.2944 92.2944 16.9897 91.3447 16.3815C90.3949 15.7731 89.9206 14.9794 89.9206 14.0027C89.9206 12.8975 90.5013 11.9921 91.6629 11.2876C92.8257 10.5822 94.5014 10.2304 96.6922 10.2304H101.586V8.13981L101.587 8.14009ZM70.1661 5.62769H73.481L80.3742 14.7106L86.8125 5.62769H87.8601L76.5175 21.7263H75.4711L78.821 16.9689L70.1663 5.62769H70.1661ZM56.1736 5.73433H67.6626V6.45525H63.5059V17.5085H60.465V6.45525H56.1733V5.73433H56.1736Z" fill="#C7C7C7"/>
</svg>
