<svg width="98" height="24" viewBox="0 0 98 24" fill="none" xmlns="http://www.w3.org/2000/svg">
<path d="M78.0052 20.4879C85.0931 16.7574 86.795 12.0313 84.611 10.7091C81.3894 8.9037 72.5553 12.1324 73.5568 20.9665C73.1189 21.2291 72.2482 21.7008 72.2482 21.7008L72.8366 23.4876C72.8366 23.4876 74.068 22.7499 74.4014 22.521C75.4412 23.3598 75.9768 23.8211 77.5835 23.8524C80.9968 23.9233 83.9429 20.1371 83.9429 20.1371L83.0751 18.8045C83.0751 18.8045 79.3238 22.406 78.0052 20.4879L78.0052 20.4879ZM78.9474 15.074C79.9604 13.2756 81.6125 11.871 82.4129 12.4322C83.2168 12.9898 81.5903 15.8338 77.7706 18.8602C77.6172 18.5943 77.9273 16.8783 78.9474 15.074ZM11.9049 23.0648C10.1994 21.2874 11.8103 15.2766 12.1435 13.9821C12.1746 13.8612 12.0831 13.7441 11.9582 13.7441C11.8857 13.7441 11.8199 13.784 11.7877 13.8489C11.069 15.2981 7.17514 23.8501 3.7273 23.8501C3.66344 23.8501 3.59602 23.8501 3.53066 23.8456C0.199609 23.5342 0.635538 18.9323 1.67095 16.144H7.04118C6.60351 17.3489 6.45222 18.1073 6.46733 18.502C6.47825 18.788 6.71691 18.9336 6.94781 18.8128C7.50338 18.5221 8.4205 17.3201 9.21773 15.9349C10.6719 13.4086 12.5383 9.60455 15.7619 0H21.6591C19.9111 5.35013 18.4896 10.1892 17.7142 15.7231C17.6754 15.9993 17.9927 16.2304 18.2443 15.9938C19.9269 14.4117 26.0574 1.15197 26.4426 0H32.3461C32.3461 0 26.4927 16.2121 26.9833 18.9101C27.0499 19.2768 27.4288 19.3742 27.7375 19.022C28.0964 18.6125 28.6547 17.8854 28.9836 17.503L29.896 18.4142C28.2171 20.4865 25.4901 24.2361 22.7662 23.785C22.344 23.7151 21.9355 23.4748 21.6301 23.1635C18.7951 20.6998 22.7505 12.4709 23.4437 10.5378C23.597 10.1103 23.7479 9.71904 23.8438 9.47524C23.8929 9.35045 23.8013 9.2157 23.6672 9.21451C23.5923 9.2138 23.5244 9.2559 23.4926 9.32363C23.3562 9.61451 22.9885 10.3981 22.8632 10.6616C21.1078 14.2782 17.0794 23.8501 13.7701 23.8501C13.2514 23.8501 12.4754 23.6561 11.9049 23.0648L11.9049 23.0648ZM68.9646 4.0638C66.3451 4.09806 65.009 5.46353 65.009 5.46353L65.0776 7.0682C65.0776 7.0682 66.7456 5.40584 68.6432 6.10678C69.9331 6.58322 71.2137 8.22476 70.3368 11.8613C69.5489 9.84013 66.4951 9.39407 64.0395 12.0346C62.0794 14.1423 59.4313 21.1756 63.3411 23.3407C68.2016 26.0324 72.4667 18.1495 73.4505 12.7727C74.0704 9.38442 74.4397 3.99219 68.9646 4.0638H68.9646ZM66.9262 20.3619C66.4026 20.7349 65.4773 20.9257 65.2995 19.2774C65.0441 16.9083 66.6837 14.0512 67.1926 13.3871C68.0615 12.2534 69.2737 12.1674 69.2987 13.8859C69.3272 15.863 68.2339 19.4304 66.9262 20.3619ZM52.2576 2.73212C49.4251 1.74497 39.3916 4.92528 36.1064 16.0174C35.7036 16.129 33.7739 16.625 33.7739 16.625L32.934 18.8963L35.9182 17.9843C35.9182 17.9843 35.5915 23.684 40.6016 23.8501C44.5411 23.7038 46.6504 17.9493 45.4234 14.2509C45.1742 14.3728 41.9603 15.7358 41.9603 15.7358C41.9603 15.7358 42.6026 19.4754 41.2005 20.3426C40.9837 20.4766 40.6993 20.4588 40.5165 20.2044C40.109 19.6377 39.8491 18.1699 40.3053 16.2161C47.5191 12.4661 52.4427 5.86605 52.7428 3.59479C52.82 3.01033 52.3577 2.76701 52.2576 2.73211L52.2576 2.73212ZM43.2882 12.5527C41.9499 13.5762 40.9129 14.0865 40.9129 14.0865C40.9129 14.0865 41.283 13.2169 41.5807 12.7147C42.3512 11.4153 46.0835 6.40786 49.1964 5.47856C49.3172 5.44248 49.4065 5.53007 49.4032 5.65344C49.3739 6.74535 45.4232 10.92 43.2882 12.5527ZM58.3571 20.9225C58.8314 20.6263 59.4787 20.1133 59.4787 20.1133L59.8785 21.3356C59.641 21.5872 57.7127 23.1157 56.5152 23.6747C55.2223 24.2783 54.0306 23.4828 53.868 22.5102C53.6818 21.3962 54.2572 19.9392 54.2572 19.9392C54.2572 19.9392 52.1951 22.2878 50.095 23.4319C49.512 23.7495 49.0669 23.8773 48.7103 23.8687C47.2961 23.8343 46.8528 22.4652 47.0076 21.7322C47.1923 20.8581 49.1058 14.966 49.3473 13.9982C49.3712 13.9024 49.2761 13.7898 49.1476 13.8254C48.5677 13.9858 47.0469 14.9764 47.0469 14.9764V13.3395C47.0469 13.3395 51.2287 10.5001 52.3332 10.1868C53.354 9.89709 54.2269 10.4807 53.9702 11.6413C53.8528 12.4463 51.3622 19.2567 51.2064 20.0809C51.1753 20.2453 51.3469 20.258 51.3944 20.2435C52.2062 19.9959 53.7033 18.7263 54.8489 16.9168C55.9192 15.2262 56.653 13.0797 57.5409 10.4309H61.3553C61.3553 10.4309 58.4717 19.2741 58.1464 20.7407C58.1107 20.901 58.2749 20.9738 58.3571 20.9225H58.3571ZM88.8805 23.8611C86.8396 23.8482 85.8935 22.1523 85.6601 21.6049C83.3307 15.8193 90.1606 10.4419 90.1606 10.4419H94.1175C94.1175 10.4419 88.0939 15.2604 88.9269 19.53C89.4889 21.6034 91.2848 21.0588 92.4579 19.4259C93.8832 17.4422 95.1682 13.5285 94.2001 13.4226C93.3007 13.3241 92.1066 15.2683 92.1066 15.2683L92.0999 15.2624L91.2631 13.9863C91.9136 13.1443 93.7639 10.9438 95.8221 10.2555C96.1334 10.1591 98.0015 9.66896 98.0015 12.4258C98.0015 15.3749 94.715 23.8979 88.8805 23.8611V23.8611ZM33.286 22.2689C33.286 23.1438 32.577 23.8501 31.7045 23.8501C30.8359 23.8501 30.1236 23.1438 30.1236 22.2689C30.1236 21.3941 30.8359 20.6866 31.7045 20.6866C32.577 20.6866 33.286 21.3941 33.286 22.2689Z" fill="#C7C7C7"/>
</svg>
