<svg width="115" height="22" viewBox="0 0 115 22" fill="none" xmlns="http://www.w3.org/2000/svg">
<path d="M60.8945 17.8562V3.59839H69.7522V6.90997H64.588V17.8562H60.8945Z" fill="#C7C7C7"/>
<path d="M80.8953 17.8562V12.2722H75.4083V17.8562H71.7148V3.59839H75.4083V8.91932H80.8953V3.59839H84.5887V17.8562H80.8953Z" fill="#C7C7C7"/>
<path d="M106.021 17.8562V6.90997H101.707V3.59839H114.051V6.90997H109.716V17.8562H106.021Z" fill="#C7C7C7"/>
<path d="M96.2725 17.8543V9.7305L90.3931 17.8543H87.3047V3.60034H90.9981V11.6396L96.7789 3.60034H99.9679V17.8543H96.2725Z" fill="#C7C7C7"/>
<path d="M39.6664 17.8562V9.38286L35.9787 13.8592L32.2911 9.38286V17.8562H28.5977V3.59839H32.2428L35.9787 8.50094L39.7147 3.59839H43.3598V17.8562H39.6664Z" fill="#C7C7C7"/>
<path d="M50.37 12.8418H53.8025L52.0863 8.3713L50.37 12.8418ZM55.7276 17.8543L54.9545 15.8567H49.2124L48.4392 17.8543H44.7266L50.4068 3.59839H53.822L59.5041 17.8543H55.7276Z" fill="#C7C7C7"/>
<path d="M0 6.4955C0.00357618 4.77357 0.678382 3.12322 1.87667 1.90581C3.07495 0.688395 4.69907 0.00311374 6.39345 0H21.1537V3.30176H6.39732C5.56476 3.30537 4.76729 3.64296 4.17839 4.24106C3.58951 4.83916 3.25684 5.6494 3.25278 6.4955L3.23344 12.0384C3.16608 12.7485 2.86917 13.416 2.38908 13.9367C1.90901 14.4572 1.2728 14.8015 0.579817 14.9159L0 15.0062V6.4955Z" fill="#C7C7C7"/>
<path d="M0 21.4548V18.1529H14.7602C15.593 18.1488 16.3904 17.8108 16.9793 17.2124C17.568 16.6139 17.9007 15.8035 17.9048 14.9573V9.69722C17.9088 8.93409 18.1797 8.19727 18.669 7.61836C19.1583 7.03945 19.8341 6.65613 20.5758 6.53688L21.1556 6.44849V14.9573C21.152 16.6794 20.4773 18.33 19.279 19.5477C18.0808 20.7654 16.4567 21.451 14.7621 21.4548H0Z" fill="#C7C7C7"/>
<path d="M12.5067 15.0179V10.7498L10.5817 13.0852L8.65864 10.7498V15.0179H6.10938V6.61914H8.52335L10.5817 9.31987L12.6401 6.61914H15.0541V15.0179H12.5067Z" fill="#C7C7C7"/>
</svg>
