<svg width="92" height="17" viewBox="0 0 92 17" fill="none" xmlns="http://www.w3.org/2000/svg">
<path d="M86.7354 12.8949C86.7113 13.0861 86.6397 13.5888 85.9905 13.6541H80.2886C79.6394 13.5888 79.5208 13.0861 79.4965 12.8949V4.01523C79.5206 3.82366 79.6105 3.41645 80.2597 3.35114H85.993C86.6425 3.41645 86.7113 3.82366 86.7354 4.01523V12.8949ZM88.7096 0.0054986H77.5222C75.8413 0.142303 74.4213 1.00232 74.2318 2.92629V13.9199C74.4213 15.8439 75.8413 16.8632 77.5222 17H88.7096C90.3906 16.8632 91.8103 15.8439 92 13.9199V2.92629C91.8103 1.00232 90.3906 0.142303 88.7096 0.0054986ZM43.4334 3.35114H38.4318V0.0054986H53.6996V3.35114H48.698V17H43.4334V3.35114ZM36.8526 3.35114V0.0054986H23.1642V17L37.0346 16.9963L37.0396 13.6544H28.4423L28.4431 10.0145H36.8526V6.67709H28.4431V3.35115H36.8526L36.8526 3.35114ZM67.3878 5.98527C67.3878 6.35306 67.2971 6.67571 66.6427 6.67571H60.5437V3.33992H66.6506C67.3935 3.33992 67.3878 3.8303 67.3878 4.13646V5.98527ZM68.8461 10.3935C70.4885 10.2608 72.1259 9.13315 72.1259 7.28113V3.08555C71.9353 1.17052 70.511 0.136346 68.8225 0H55.2788L55.2793 17H60.5437V10.3935H62.639L66.0609 17H72.1154L68.0404 10.3935H68.8461H68.8461ZM12.2666 17L15.7938 6.32533V17H21.0585V0.0054986H13.9514L10.5293 8.50298L7.10714 0.0054986H0V17H5.26468V6.32533L8.81804 17H12.2666Z" fill="#C7C7C7"/>
</svg>
