<svg width="81" height="18" viewBox="0 0 81 18" fill="none" xmlns="http://www.w3.org/2000/svg">
<path fill-rule="evenodd" clip-rule="evenodd" d="M9.78497 0.0495279C7.96519 -0.145254 6.13071 0.237467 4.53367 1.14509C2.93664 2.0527 1.65545 3.44066 0.866211 5.11819C0.0769743 6.79571 -0.181569 8.68045 0.12612 10.5133C0.433808 12.3462 1.29262 14.0373 2.58452 15.3541C3.87642 16.6709 5.53797 17.5488 7.34081 17.8671C9.14364 18.1854 10.9993 17.9286 12.6526 17.1318C14.3059 16.335 15.6758 15.0375 16.5739 13.4175C17.4721 11.7975 17.8544 9.9346 17.6683 8.08487C17.4636 6.02878 16.5679 4.10717 15.132 2.64361C13.6961 1.18005 11.8078 0.263935 9.78497 0.0495279ZM9.49796 13.7628C8.51923 13.8962 7.52396 13.7147 6.65203 13.2436C5.78009 12.7726 5.07533 12.0358 4.63679 11.1367C4.19825 10.2377 4.04798 9.22157 4.20709 8.23126C4.36621 7.24094 4.82672 6.32618 5.52389 5.61554C6.22106 4.9049 7.11986 4.4341 8.09395 4.26932C9.06804 4.10454 10.0685 4.25406 10.9546 4.69685C11.8408 5.13965 12.5681 5.85348 13.0344 6.738C13.5007 7.62252 13.6825 8.63328 13.5542 9.62821C13.4196 10.6747 12.9493 11.6469 12.216 12.3944C11.4827 13.1418 10.5274 13.6228 9.49796 13.7628ZM22.4056 0.405578C22.0985 0.406325 21.7953 0.476653 21.5182 0.611445C21.2411 0.746236 20.9971 0.9421 20.8039 1.18478C20.6107 1.42747 20.4732 1.71087 20.4013 2.01436C20.3295 2.31785 20.3251 2.63381 20.3886 2.93923C20.5829 3.92869 21.4924 4.60476 22.4833 4.60476H28.2331L19.285 16.6374C19.2188 16.7262 19.1783 16.832 19.168 16.9429C19.1577 17.0539 19.178 17.1655 19.2266 17.2654C19.2752 17.3652 19.3503 17.4493 19.4433 17.5083C19.5363 17.5672 19.6437 17.5987 19.7533 17.5991H33.7893C34.7794 17.5991 35.6896 16.9232 35.884 15.9336C35.9475 15.6282 35.9431 15.3123 35.8713 15.0089C35.7996 14.7054 35.6621 14.422 35.469 14.1793C35.2759 13.9366 35.032 13.7407 34.755 13.6058C34.478 13.471 34.1749 13.4005 33.8677 13.3996H26.862L35.8032 1.37635C35.87 1.28665 35.9109 1.17981 35.9213 1.06781C35.9317 0.95581 35.9112 0.84308 35.8621 0.742269C35.813 0.641457 35.7371 0.556553 35.6432 0.497081C35.5492 0.43761 35.4408 0.405924 35.3301 0.405578H22.4056ZM78.4925 0.454014C78.0278 0.566295 77.6148 0.836359 77.3216 1.21956C77.0285 1.60275 76.8728 2.07613 76.8804 2.56142V9.55292L65.7314 0.537631C65.6439 0.467109 65.5387 0.4231 65.4277 0.410666C65.3168 0.398231 65.2046 0.417877 65.1042 0.467343C65.0037 0.516809 64.919 0.594086 64.8599 0.690283C64.8007 0.78648 64.7695 0.897689 64.7698 1.01112V15.447C64.7622 15.9323 64.9179 16.4057 65.211 16.7889C65.5042 17.1721 65.9173 17.4422 66.382 17.5544C66.6837 17.6219 66.9965 17.6197 67.2973 17.5479C67.5981 17.4762 67.8792 17.3367 68.1199 17.1398C68.3606 16.9429 68.5547 16.6937 68.6879 16.4104C68.8211 16.1271 68.8901 15.8171 68.8896 15.5031V8.45112L80.0388 17.4666C80.1262 17.5371 80.2314 17.581 80.3423 17.5935C80.4532 17.6059 80.5653 17.5862 80.6657 17.5368C80.7662 17.4873 80.8508 17.4101 80.9099 17.314C80.9691 17.2178 81.0003 17.1066 81 16.9933V2.50466C81.0003 2.19078 80.9313 1.88082 80.7981 1.59765C80.6648 1.31448 80.4707 1.06531 80.2301 0.868509C79.9894 0.67171 79.7084 0.532303 79.4077 0.460565C79.1069 0.388827 78.7942 0.386589 78.4925 0.454014ZM49.4635 4.20282C54.1793 4.20282 57.7028 6.73511 57.7028 9.00023C57.7028 11.2654 54.1793 13.7976 49.4635 13.7976C44.7478 13.7976 41.2243 11.2654 41.2243 9.00023C41.2243 6.73511 44.7478 4.20282 49.4635 4.20282ZM49.4635 0.00381075C42.6377 0.00381075 37.1045 4.03168 37.1045 9.00023C37.1045 13.9688 42.6377 17.9967 49.4635 17.9967C56.2894 17.9967 61.8225 13.9688 61.8225 9.00023C61.8225 4.03168 56.2892 0.00381075 49.4635 0.00381075Z" fill="#C7C7C7"/>
</svg>
