<svg width="109" height="15" viewBox="0 0 109 15" fill="none" xmlns="http://www.w3.org/2000/svg">
<path fill-rule="evenodd" clip-rule="evenodd" d="M70.0483 6.30478C69.1926 5.25785 68.9299 1.34852 67.2462 1.16545C65.9903 1.0291 65.5415 2.16853 65.382 3.1983L64.4451 10.0873C64.3076 11.1276 63.8731 12.4529 64.6743 13.2291C65.4355 13.9661 66.8757 13.6429 67.1469 12.5883C67.4668 11.344 67.6005 9.3388 67.6378 9.20913C68.5097 9.98146 68.1411 12.4586 70.0511 12.4949C72.0108 12.5321 71.7644 9.61436 72.4692 9.27682C72.751 10.0968 72.6326 11.5833 73.0127 12.6226C73.4042 13.6925 74.7193 14.0214 75.5043 13.2205C76.2941 12.4148 75.8567 11.0093 75.6982 9.95571C75.5253 8.8058 75.3983 7.65016 75.2111 6.50502C74.981 5.10052 75.0908 0.641031 72.7739 1.18738C71.222 1.55352 70.8018 5.74604 70.0483 6.30574V6.30478ZM85.6429 12.4195C85.9829 14.3809 88.9921 13.7935 88.6703 11.8923C88.3265 9.86036 85.2943 10.4067 85.6429 12.4195ZM22.5176 4.33105C23.0944 3.73798 23.9301 3.81426 23.7305 2.50225C23.422 0.478937 20.7183 0.801218 20.6075 2.67483C20.5359 3.87528 21.4967 3.79423 21.8577 4.47312C20.704 4.79731 20.6066 4.96226 20.5856 6.2819C20.5693 7.29737 20.5884 8.33191 20.5837 9.3512C20.576 10.832 20.0336 13.9365 22.2807 13.8612C24.3025 13.7935 23.7687 10.647 23.7878 9.16527C23.803 7.97054 24.016 5.82327 23.4306 4.9451C23.0744 4.41114 22.8423 4.65143 22.5185 4.33105H22.5176ZM80.1992 5.33508C79.7972 3.18877 82.8341 5.16822 84.1339 3.51486C84.6009 2.92083 84.3421 1.9292 83.7949 1.48583C83.1971 1.0005 82.0615 1.14543 81.3157 1.14543C79.6635 1.14543 78.3169 1.57164 77.485 3.11058C76.806 4.36728 77.0801 6.8006 77.0667 8.32905C77.0505 10.2122 76.8356 11.4603 78.3398 12.7876C79.5221 13.8307 81.5363 13.845 83.0481 13.6619C85.1759 13.4045 84.982 11.1571 83.5638 10.646C83.0576 10.463 81.4398 10.5888 80.7531 10.5421C80.1314 10.5002 80.2518 10.3695 80.1782 9.7755C80.1295 9.38171 80.0397 8.88112 80.2002 8.52261C80.9298 8.13072 83.9143 9.13285 83.8531 6.93695C83.7949 4.83354 81.4895 5.45713 80.1973 5.33413L80.1992 5.33508ZM100.263 10.237C100.775 14.7747 107.574 15.4173 108.78 10.5526C109.007 9.63915 108.888 4.12891 108.852 2.83883C108.82 1.73755 107.903 0.83745 106.777 1.29894C105.519 1.81478 105.801 2.99902 105.802 4.14607C105.802 5.44759 105.803 6.74911 105.802 8.05063C105.8 8.99268 106.015 10.7347 104.694 10.873C103.113 11.0389 103.341 9.21866 103.344 8.23656C103.348 6.96555 103.361 5.69645 103.361 4.42449C103.361 3.38042 103.571 2.00929 102.518 1.38285C101.55 0.805985 100.345 1.46771 100.241 2.56804C100.134 3.70651 100.254 5.2731 100.244 6.46974C100.236 7.60058 100.141 9.15001 100.263 10.237ZM41.2227 6.30192C41.345 5.93674 42.4891 4.16419 42.8014 3.62356C43.4135 2.56232 42.7593 1.21122 41.5465 1.17308C39.9525 1.12255 38.6174 5.29885 37.8725 5.68025C37.755 4.79636 38.0444 2.99044 37.7741 2.25243C37.4399 1.34185 36.3273 0.939474 35.5145 1.46199C34.5538 2.08081 34.741 3.24884 34.7486 4.23856L34.7495 11.2115C34.7495 12.2107 34.6817 13.231 35.8364 13.579C37.0177 13.9356 37.7512 13.3111 37.8505 12.143C37.9116 11.4212 37.6872 9.33308 37.989 8.85252C38.5601 8.6847 39.5772 8.75431 39.9506 9.27873C40.7194 10.359 39.5973 12.43 40.8063 13.3597C41.2963 13.7373 42.2093 13.7659 42.7135 13.3902C43.5558 12.7638 43.4613 10.1731 43.2445 9.16813C42.8529 7.35363 41.5837 6.83207 41.2237 6.30002L41.2227 6.30192ZM4.62422 3.02381C6.75775 2.32204 7.95057 5.74127 5.39397 6.44399C5.11701 6.52027 3.94042 6.56986 3.65487 6.53839C3.06657 6.47451 3.15825 5.74508 3.16876 5.25975C3.19455 4.08505 3.50493 3.39186 4.62422 3.02381ZM3.24516 9.51043C5.19914 9.28445 6.26591 9.88229 8.03748 8.33954C9.27233 7.264 9.89978 5.84043 9.70878 4.16038C9.33345 0.844125 5.57542 -0.964653 2.63681 0.530425C-0.689544 2.22288 0.0821169 6.67569 0.0677915 9.8165C0.0620613 11.119 -0.369611 14.3332 1.85369 13.9861C4.01014 13.6495 2.88034 10.7252 3.24516 9.51138V9.51043ZM28.4435 5.07382C28.3566 4.39494 28.4512 4.2071 29.0738 3.97826C29.6211 4.26907 29.9945 5.05952 30.5388 5.60301C30.0967 5.58394 29.8875 5.42852 29.3498 5.41517C28.5447 5.3961 28.8866 5.27882 28.4435 5.07287V5.07382ZM30.982 5.81659C31.5665 5.46666 33.212 5.48097 32.723 3.75323C32.4604 2.82548 31.8052 1.97401 30.9848 1.49059C29.0137 0.328285 26.6844 1.11396 25.6596 3.0629C24.5938 5.08813 25.715 7.44326 27.6738 8.24419C28.6355 8.63798 30.1014 8.17649 30.4309 9.4885C30.6907 10.523 29.3221 11.4155 28.39 10.5917C27.6824 9.9662 28.4559 8.53787 27.0043 7.96863C25.8755 7.52621 24.9204 8.49877 24.9023 9.62676C24.8689 11.7082 26.4064 13.5838 28.476 13.9222C30.6363 14.275 32.7259 13.0107 33.3753 10.9445C33.7286 9.81841 33.5959 8.6828 32.9923 7.67114C32.0277 6.05211 31.2866 6.17225 30.982 5.81755V5.81659ZM48.054 5.36559C47.9891 4.40828 48.2068 2.90081 47.8076 2.08557C47.3884 1.22838 46.3531 0.794543 45.549 1.52969C44.6513 2.35064 44.9091 3.30223 44.9034 4.42259L44.8814 11.3955C44.8719 12.3995 44.9588 13.497 46.2156 13.6391C49.0157 13.9556 47.6806 10.0225 48.0464 8.47875L49.8924 8.4654C50.2668 9.64392 49.0969 14.2274 51.7433 13.6734C53.0287 13.4045 53.0698 12.6474 53.0841 11.4889L53.0832 4.42259C53.086 3.4014 53.3305 2.16567 52.4634 1.52206C51.6306 0.904195 50.6202 1.20264 50.1618 2.04839C49.6709 2.95421 50.2191 4.49315 49.8858 5.36655L48.054 5.36464V5.36559ZM57.6062 9.70208C57.5279 8.72094 57.5011 6.05783 57.6262 5.1234C57.8335 3.58351 59.9861 3.74465 60.0539 5.25499C60.1055 6.41825 60.1637 8.79054 60.0233 9.88706C59.8476 11.2591 57.7399 11.364 57.6071 9.70304L57.6062 9.70208ZM54.531 10.0949C54.806 13.0994 58.4237 15.076 61.0519 13.3864C62.1865 12.657 63.025 11.4546 63.1081 10.0844C63.1969 8.62559 63.216 6.16081 63.1195 4.71245C62.9238 1.76234 59.309 -0.00829866 56.6951 1.5049C55.6006 2.13802 54.6685 3.4567 54.5348 4.7258C54.4145 5.86046 54.4259 8.9431 54.531 10.0949ZM13.8221 9.90899C13.7046 9.17957 13.7237 6.05211 13.803 5.26357C13.9625 3.67123 15.946 3.68935 16.2106 5.09194C16.3319 5.73459 16.2832 8.96789 16.2201 9.72783C16.0807 11.4184 14.0255 11.1752 13.8221 9.90899ZM19.3001 10.2809C19.4653 9.28255 19.409 6.09883 19.3498 4.98419C19.2791 3.64168 18.4692 2.34397 17.3538 1.61932C14.78 -0.0521595 11.1652 1.52969 10.744 4.52175C10.5673 5.78036 10.66 8.55312 10.7058 9.9128C10.7517 11.2792 11.5883 12.574 12.7219 13.3139C15.3539 15.0331 18.7939 13.3397 19.3001 10.2799V10.2809ZM93.1866 7.45565C93.2812 4.92412 92.8036 4.17182 93.8685 4.25382C95.5876 4.3854 95.2332 5.88143 94.6287 6.27523C94.3432 6.46116 94.091 6.52409 93.8102 6.76437C93.4483 7.07425 93.5724 7.22109 93.1857 7.4566L93.1866 7.45565ZM93.2124 8.41487C93.5476 8.66087 93.6288 9.02129 94.0738 9.26348C94.5542 9.52378 94.7118 9.45417 95.1454 9.86418C95.8187 10.5011 95.2514 11.877 95.6258 12.7342C96.0078 13.6095 97.0077 13.8565 97.8376 13.395C98.6962 12.9182 98.5605 11.6138 98.5462 10.7414C98.5281 9.56001 98.4307 9.16527 97.7736 8.16314C97.2483 7.36221 98.189 7.32598 98.2263 5.54199C98.3371 0.243424 90.9671 0.312075 90.2289 2.15804C89.9099 2.95611 90.0704 7.50809 90.0723 8.70187C90.0742 9.80697 90.0398 10.9559 90.0637 12.0544C90.0837 12.984 90.8716 13.8078 91.8219 13.6419C93.8561 13.2872 93.1561 9.95571 93.2114 8.41582L93.2124 8.41487Z" fill="#C7C7C7"/>
</svg>
