<svg width="93" height="59" viewBox="0 0 93 59" fill="none" xmlns="http://www.w3.org/2000/svg">
<path fill-rule="evenodd" clip-rule="evenodd" d="M2.54941 28.6853C2.76281 28.7279 2.94435 30.0759 3.0728 30.2214C3.19922 30.368 4.6177 30.4001 4.64096 30.6625C4.66372 30.8869 3.42831 31.34 3.33323 31.6276C3.19265 31.9437 3.61086 33.1246 3.39594 33.245C3.08949 33.3645 2.31729 32.3397 2.06495 32.3106C1.75445 32.2815 0.716258 33.0598 0.53269 32.8691C0.386039 32.6699 1.0485 31.477 1.01917 31.3235C0.989839 31.1684 -0.120669 30.2445 0.0108122 30.0523C0.136731 29.8571 1.45457 30.1281 1.64219 30.0327C1.82929 29.9389 2.33752 28.6431 2.54991 28.6853H2.54941ZM53.3567 23.5068C52.4196 21.5536 50.4874 18.0683 50.1551 17.151C49.9655 16.3781 50.724 16.3109 50.9764 16.615C51.4173 17.0024 52.9273 20.7813 53.3572 23.5068H53.3567ZM55.9266 23.6684C55.9266 23.6684 53.5342 17.6463 52.9552 16.5789C52.7048 16.1157 52.1056 14.9619 50.7104 15.524C49.3152 16.0861 49.7096 16.9312 49.5331 17.5735C49.2221 18.6991 44.9672 20.5459 42.3366 21.5049C39.7079 22.4635 34.4619 22.8363 33.2189 22.8664C32.2348 22.8895 25.5181 22.5663 19.4594 25.5302C19.3395 25.3084 19.0093 24.8191 18.4444 24.9004C18.0859 24.9511 17.4867 25.1428 16.8576 25.47C16.7701 25.327 16.6163 25.0926 16.4035 24.8101C16.3817 24.8186 16.363 24.8261 16.3412 24.8352C16.0459 24.9641 15.6894 25.1849 15.3476 25.5598C15.521 25.8047 15.654 26.0265 15.7455 26.1957C15.3551 26.5168 15.0057 26.8952 14.7589 27.3298C14.4247 27.921 14.9572 28.3822 15.0522 28.5051C15.0128 28.5418 14.9708 28.5784 14.9314 28.616C8.73103 34.4319 11.5194 40.6166 11.5194 40.6166C11.5194 40.6166 12.6203 43.9794 16.449 45.92C16.5056 45.9235 16.5617 45.9255 16.6158 45.9276C16.6255 45.9276 16.6335 45.9276 16.6437 45.9286C16.6922 45.9306 16.7402 45.9321 16.7873 45.9331C16.8095 45.9336 16.8308 45.9336 16.853 45.9341C16.8879 45.9356 16.9228 45.9361 16.9562 45.9361C17.0143 45.9366 17.071 45.9376 17.1251 45.9376C17.1792 45.9376 17.2298 45.9366 17.2793 45.9361C17.3041 45.9361 17.3258 45.9361 17.3491 45.9351C17.3719 45.9351 17.3946 45.9346 17.4153 45.9336L17.4831 45.9326C17.7228 38.8902 23.5505 33.2541 30.7071 33.2541C34.9008 33.2541 38.6399 35.1907 41.0632 38.2127C42.7654 36.9225 45.4299 35.0542 47.2989 34.3104C49.8982 33.2741 54.3043 31.8143 55.295 32.4441C55.8604 32.8019 56.1395 33.6927 57.5539 33.1818C58.9689 32.6714 58.6331 31.4158 58.5087 30.9059C58.2149 29.7281 55.9261 23.6684 55.9261 23.6684H55.9266ZM16.9041 26.0391C16.5026 26.4747 16.2381 26.844 15.5195 27.6957C15.4077 27.8598 14.9364 27.916 15.1862 27.4422C15.61 26.6403 16.7761 26.0682 16.9041 26.0386V26.0391ZM73.1258 6.42862C73.0743 6.49336 72.5584 6.59975 72.5438 6.68808C72.5266 6.77791 73.0732 6.9395 73.1056 6.98968C73.1395 7.04037 73.0899 7.57031 73.1734 7.61949C73.271 7.65964 73.5198 7.21902 73.6351 7.18189C73.7317 7.15278 74.1706 7.4022 74.2611 7.31086C74.3183 7.23358 73.9825 6.87426 73.985 6.73926C73.9739 6.62183 74.3451 6.26803 74.3031 6.19075C74.252 6.09942 73.7387 6.30768 73.669 6.27556C73.6007 6.24344 73.3236 5.78627 73.2401 5.80433C73.1567 5.8229 73.1795 6.3664 73.1264 6.42862H73.1258ZM73.1506 6.39099C73.1537 6.45572 73.1223 6.46877 73.0869 6.46124L73.1016 6.45422C71.139 4.25665 68.5301 5.11179 67.4595 6.78644C68.7516 6.43364 70.7814 7.62853 69.4727 9.04272C67.9981 10.5121 66.7687 8.55744 66.7885 7.58888C66.2544 7.63354 65.0726 8.1931 65.8125 10.8248C63.9217 8.17804 66.5255 7.01076 66.9397 6.89433C67.0722 6.39701 67.7058 4.96425 69.987 4.6245C71.4227 4.41122 72.5286 5.51577 73.1466 6.35385C73.1476 6.36589 73.1491 6.37693 73.1506 6.39048V6.39099ZM67.3806 7.32541C67.4084 7.50056 67.7432 10.211 69.1602 8.70247C70.1812 7.32843 67.3806 7.32541 67.3806 7.32541ZM78.286 28.6336C78.3497 28.6647 78.6662 28.3501 78.7284 28.337C78.7922 28.325 79.1644 28.596 79.223 28.5312C79.2746 28.4765 79.0455 28.1162 79.0753 28.0234C79.1037 27.9145 79.4481 27.6896 79.4162 27.6154C79.3606 27.5235 78.9545 27.6379 78.8842 27.5963C78.7962 27.5431 78.6829 27.1371 78.596 27.1497C78.5181 27.1737 78.4533 27.6134 78.4149 27.6475C78.376 27.6826 77.9032 27.7037 77.8976 27.7795C77.891 27.8547 78.289 28.0434 78.3193 28.1052C78.3497 28.1669 78.2212 28.603 78.286 28.6341V28.6336ZM78.3198 28.1699C77.6513 28.7274 76.5327 29.4049 75.4126 28.9457C73.631 28.2201 73.406 26.9344 73.3974 26.5043C73.0849 26.3276 71.2093 24.8673 73.273 23.0958C72.1438 25.0821 72.9893 25.7696 73.4151 25.9111C73.5926 25.1227 74.9812 23.7818 75.8824 25.2647C76.6591 26.6699 74.7734 27.237 73.7974 26.696C74.3274 28.2652 76.2687 29.4732 78.3032 28.0801L78.292 28.0725C78.3224 28.074 78.3466 28.0886 78.3295 28.1403C78.3264 28.1513 78.3224 28.1609 78.3198 28.1704V28.1699ZM75.5608 25.4785C74.7147 23.975 73.899 26.1058 73.8419 26.2418C73.8419 26.2418 76.115 26.7938 75.5608 25.4785ZM61.9864 11.4852C62.002 11.5278 62.0471 12.1717 62.4855 12.6098C62.9644 13.0931 62.2367 13.5799 62.2367 13.5799C62.2367 13.5799 61.9909 13.7861 61.1459 13.5076C60.7054 13.3621 60.6857 13.4544 60.7803 13.6145C60.8738 13.7731 61.5505 14.5549 61.5479 14.6367C61.5479 14.7175 61.203 15.2224 61.203 15.2224C61.203 15.2224 59.8417 14.7823 59.73 15.0036C59.6243 15.2108 60.709 15.6364 60.622 16.0916C60.5967 16.2291 60.3307 16.5257 60.3307 16.5257L59.1181 16.2577L59.0346 15.9154L60.1456 16.1282C60.1456 16.1282 59.4812 15.6324 59.4473 15.3363C59.4179 15.0417 59.7123 14.6207 59.7123 14.6207C59.7123 14.6207 60.3196 14.2448 60.8086 14.6262C61.1252 14.8716 60.1906 14.0832 60.3009 13.7314C60.4126 13.3806 60.6953 13.0615 60.6953 13.0615C60.6953 13.0615 60.9598 12.6861 61.911 12.9907C62.1057 13.0529 61.4412 12.4081 61.5874 12.1085C61.7345 11.8094 61.9859 11.4862 61.9859 11.4862L61.9864 11.4852ZM63.6713 25.9106C63.6875 25.9417 63.5343 26.1048 63.5272 26.1364C63.5217 26.1686 63.6653 26.3502 63.6344 26.3803C63.6076 26.4064 63.421 26.2975 63.3745 26.3151C63.3194 26.3312 63.2112 26.5068 63.1722 26.4917C63.1242 26.4656 63.1778 26.2604 63.153 26.2263C63.1257 26.1841 62.9163 26.1334 62.9219 26.0903C62.933 26.0496 63.1566 26.011 63.1732 25.9909C63.1889 25.9718 63.1914 25.734 63.2329 25.7315C63.2683 25.7259 63.3715 25.9227 63.4033 25.9362C63.4352 25.9493 63.6542 25.879 63.6713 25.9111V25.9106ZM63.1677 26.2709C62.5163 26.7748 61.5894 26.9695 60.622 25.9392C59.9226 25.1282 59.6581 24.3223 57.7653 24.4121C59.9585 23.846 60.0314 24.4206 61.1267 25.6592C61.6597 26.421 62.4991 26.4295 63.0964 26.1896C63.1889 26.2017 63.1844 26.2413 63.1677 26.2714V26.2704V26.2709ZM92.5142 12.6906C92.5749 12.7182 92.5355 13.1312 92.5607 13.1829C92.5906 13.2336 93.0088 13.3385 92.9992 13.4183C92.9896 13.487 92.5921 13.5382 92.5436 13.616C92.4814 13.7008 92.5218 14.0792 92.451 14.0998C92.3519 14.1153 92.1921 13.758 92.1213 13.7329C92.0303 13.7028 91.6687 13.8644 91.6272 13.7947C91.5969 13.7254 91.8755 13.4168 91.8765 13.3676C91.8796 13.3219 91.6136 12.9721 91.6667 12.9245C91.7167 12.8748 92.0894 13.0439 92.1526 13.0283C92.2143 13.0138 92.4515 12.6635 92.5137 12.6901L92.5142 12.6906ZM92.1891 13.7836C91.8164 15.2515 90.6871 16.5794 88.1 16.1638C86.1526 15.7684 84.8453 14.8922 82.1869 17.1515C84.7397 13.8594 85.5033 14.6152 88.5152 15.1903C90.1632 15.6981 91.3966 14.7682 91.9984 13.744C92.1441 13.6576 92.182 13.7224 92.1906 13.7846L92.1891 13.7831V13.7836ZM77.7378 0.315693C77.8136 0.242926 78.4149 0.532489 78.5105 0.520445C78.604 0.507899 78.9995 -0.0551673 79.1128 0.00555553C79.2119 0.0572452 79.0663 0.678023 79.1563 0.793948C79.2468 0.936471 79.8445 1.08602 79.8374 1.20596C79.8036 1.36304 79.174 1.39616 79.0941 1.49C78.9995 1.60794 79.0364 2.23674 78.909 2.26033C78.7871 2.26585 78.4791 1.67669 78.4073 1.64658C78.3375 1.61697 77.6579 1.8157 77.6144 1.71031C77.5679 1.60743 78.0356 1.14825 78.0473 1.04688C78.0584 0.946006 77.664 0.390468 77.7383 0.316195L77.7378 0.315693ZM58.1426 18.659C58.3216 18.6234 58.9031 19.6085 59.0498 19.6792C59.1954 19.751 60.3044 19.3189 60.4071 19.5146C60.4976 19.6818 59.692 20.43 59.7123 20.6839C59.7072 20.9735 60.4177 21.7529 60.2898 21.9139C60.0905 22.1061 59.1575 21.5622 58.9542 21.6209C58.7024 21.6982 58.1557 22.6351 57.9519 22.5468C57.7709 22.4394 57.8963 21.3022 57.822 21.1923C57.7486 21.0834 56.5866 20.7261 56.626 20.5349C56.6594 20.3427 57.7668 20.1279 57.8811 19.9944C57.9954 19.8604 57.9646 18.6946 58.1426 18.659ZM64.1796 11.4199C64.4385 11.299 65.687 12.5782 65.9353 12.6334C66.1842 12.6881 67.7018 11.6277 67.9298 11.8851C68.1291 12.1029 67.1869 13.5352 67.3113 13.9116C67.414 14.3517 68.7763 15.2706 68.6449 15.5646C68.4158 15.9285 66.8001 15.4447 66.5134 15.6103C66.1644 15.8186 65.679 17.4395 65.3401 17.3813C65.0276 17.2845 64.7915 15.5165 64.6387 15.3775C64.487 15.2359 62.5932 15.122 62.5806 14.8194C62.5608 14.5178 64.1583 13.7841 64.2812 13.5402C64.4056 13.2953 63.9237 11.5399 64.1796 11.4204V11.4199ZM72.3273 14.1525C72.6151 14.0486 73.8181 15.5215 74.075 15.6023C74.3329 15.6841 76.0417 14.6995 76.2596 14.9935C76.4518 15.244 75.3195 16.6757 75.4156 17.0857C75.4809 17.562 76.8417 18.664 76.6748 18.9626C76.3962 19.3275 74.7269 18.664 74.4073 18.8126C74.0174 19.0018 73.3514 20.6764 72.9944 20.5831C72.6712 20.4516 72.5883 18.5546 72.4396 18.393C72.293 18.2304 70.2944 17.9313 70.3096 17.6086C70.3172 17.287 72.0821 16.6582 72.2353 16.4092C72.3885 16.1623 72.0411 14.2553 72.3268 14.1525H72.3273ZM79.2847 19.623C79.6994 19.3877 81.9492 21.3313 82.3679 21.3885C82.7887 21.4432 85.1498 19.4715 85.5665 19.8659C85.9316 20.1997 84.5748 22.7064 84.8342 23.3111C85.0633 24.0272 87.4578 25.3576 87.2818 25.8624C86.9546 26.4993 84.2051 25.9257 83.7541 26.2393C83.2044 26.6333 82.6344 29.3894 82.0605 29.3387C81.5285 29.2243 80.8827 26.3276 80.6101 26.1179C80.3416 25.9076 77.1856 25.9854 77.1218 25.483C77.047 24.9852 79.5896 23.5444 79.758 23.1214C79.9264 22.6993 78.8746 19.8569 79.2847 19.6225V19.623ZM74.7962 3.1521C75.2857 2.78024 78.5059 4.88145 79.0541 4.88245C79.6033 4.88044 82.2815 1.94919 82.8812 2.38278C83.4071 2.74762 82.11 6.18975 82.5464 6.91993C82.9652 7.79714 86.2648 9.08989 86.1278 9.76537C85.8183 10.6371 82.1995 10.3771 81.6767 10.8544C81.0405 11.4556 80.7932 15.0809 80.0498 15.116C79.3479 15.0598 78.0164 11.4621 77.6301 11.2408C77.2483 11.0185 73.2204 11.6603 73.0505 11.028C72.8669 10.4037 75.8718 8.12134 76.0154 7.55074C76.156 6.98115 74.3127 3.52346 74.7972 3.1516L74.7962 3.1521ZM64.6554 18.8833C65.0286 18.7523 66.5968 20.6824 66.9336 20.7918C67.2719 20.8972 69.5106 19.6175 69.7973 20.0029C70.0462 20.3331 68.5589 22.2005 68.6793 22.7345C68.7627 23.3602 70.5417 24.8076 70.3192 25.199C69.9566 25.6762 67.7736 24.802 67.3548 24.9912C66.8431 25.2351 65.9677 27.4257 65.4964 27.3007C65.0787 27.1281 64.9776 24.646 64.7824 24.4312C64.5953 24.2199 61.9793 23.8214 61.998 23.3974C62.0132 22.9788 64.3232 22.1614 64.526 21.8387C64.7262 21.513 64.2822 19.0178 64.6559 18.8823L64.6554 18.8833ZM42.5697 41.8576C40.0493 35.3558 32.696 32.1129 26.1452 34.6115C19.5929 37.1127 16.3256 44.41 18.8444 50.9123C21.3643 57.4127 28.7177 60.6561 35.2689 58.1569C41.8197 55.6557 45.0885 48.3585 42.5697 41.8576ZM35.631 37.8584C35.8303 37.882 35.9223 37.7827 35.9299 37.6923C37.4975 38.6182 38.8255 39.9657 39.7211 41.6489C39.6351 41.6509 39.536 41.7276 39.536 41.9023V41.9108V41.9113V41.9204V41.9249V41.9294L39.5365 41.9389C39.5694 42.2516 39.4824 42.6415 38.2384 42.927C36.9929 43.2126 36.5549 42.6691 34.3021 43.5458L34.2479 43.5674L34.2146 43.5809L34.1948 43.589L34.1433 43.6106L34.1033 43.6276L34.0922 43.6321L34.0487 43.6512L34.0426 43.6542L33.9946 43.6763L33.9476 43.6984L33.9015 43.721C33.053 44.1385 32.7749 44.6127 32.7121 44.9896C32.5685 44.7879 32.3991 44.6127 32.209 44.4647C32.6464 44.418 33.2274 44.0953 33.7428 42.9637C34.7415 40.7762 34.2166 40.314 34.5681 39.093C34.9185 37.876 35.3155 37.8108 35.6295 37.8595L35.631 37.8584ZM29.7437 46.7516C29.5399 46.2241 29.8039 45.6315 30.3359 45.4282C30.8674 45.2265 31.4646 45.4899 31.6689 46.0174C31.8727 46.5448 31.6082 47.137 31.0772 47.3387C30.5452 47.542 29.9495 47.2785 29.7442 46.7516H29.7437ZM28.1133 36.8979C28.2711 36.776 28.2646 36.641 28.2064 36.5712C30.0663 36.1025 31.9642 36.1778 33.7079 36.7117C33.6446 36.779 33.632 36.9125 33.7832 37.0435C34.03 37.2427 34.2464 37.5789 33.5703 38.6529C32.8932 39.7293 32.2611 39.6811 31.2279 41.8541C30.6969 42.9712 30.8648 43.6281 31.1364 43.992C30.8972 43.9493 30.6494 43.9408 30.4011 43.9719C30.6762 43.6321 30.8578 42.9973 30.4168 41.834C29.5642 39.5848 28.8638 39.6269 28.2428 38.5179C27.6223 37.4108 27.8565 37.0861 28.1128 36.8989L28.1133 36.8979ZM25.9378 37.4364C25.9404 37.5277 26.0268 37.6321 26.2271 37.6186C26.5432 37.5854 26.9351 37.6718 27.2233 38.9058C27.5111 40.1423 27.0291 40.5518 27.8479 42.8126C28.2681 43.9759 28.8547 44.3212 29.3058 44.3884C29.1005 44.5294 28.9214 44.6996 28.7733 44.8908C28.7232 44.4572 28.4001 43.8805 27.2587 43.3672C25.0549 42.376 24.5891 42.8974 23.3598 42.5492C22.133 42.2014 22.0657 41.8069 22.1153 41.4958C22.1396 41.2971 22.0389 41.2067 21.9484 41.1992C22.8824 39.643 24.2402 38.3257 25.9383 37.4364H25.9378ZM20.8172 48.8623C20.3464 47.016 20.4212 45.1341 20.9598 43.4038C21.0265 43.4655 21.161 43.4781 21.2935 43.328C21.4938 43.0841 21.8336 42.8683 22.9153 43.5398C24 44.2118 23.952 44.8391 26.1411 45.8628C27.2658 46.3903 27.9273 46.2246 28.2944 45.9547C28.2519 46.1925 28.2443 46.4379 28.2752 46.6833C28.216 46.6367 28.1482 46.5925 28.0709 46.5539L28.0501 46.5433H28.0496C27.7179 46.3857 27.2102 46.327 26.4415 46.5604L26.436 46.5619L26.3854 46.5779L26.3788 46.5799L26.3338 46.5945L26.3277 46.5965L26.2817 46.6121L26.2286 46.6301L26.2084 46.6372L26.2043 46.6387L26.1199 46.6693C23.8564 47.5154 23.8969 48.2094 22.7798 48.8262C21.6637 49.4414 21.337 49.2096 21.1494 48.9557L21.1438 48.9481L21.1408 48.9446L21.1378 48.9411L21.1322 48.9346L21.1317 48.9341L21.1261 48.9281L21.1231 48.9246L21.1206 48.9215L21.115 48.9155L21.1145 48.915L21.1089 48.9095L21.1054 48.906L21.1034 48.904L21.0973 48.8985L21.0963 48.8975L21.0913 48.8929L21.0872 48.8894L21.0852 48.8879L21.0791 48.8834L21.0781 48.8824L21.0736 48.8789L21.069 48.8759L21.0675 48.8749L21.0614 48.8704L21.0559 48.8663L21.0513 48.8633L21.0503 48.8628L21.0387 48.8558L21.0336 48.8528L21.0326 48.8523C20.9471 48.8066 20.8672 48.8217 20.8192 48.8623H20.8172ZM25.7811 54.909C25.5808 54.8839 25.4898 54.9863 25.4822 55.0761C23.914 54.1502 22.5861 52.8018 21.6905 51.1166C21.736 51.1156 21.7851 51.093 21.8215 51.0458L21.825 51.0413L21.8265 51.0393L21.8286 51.0363L21.8377 51.0217L21.8407 51.0167L21.8432 51.0112L21.8447 51.0082L21.8457 51.0057L21.8483 51.0002V50.9997L21.8503 50.9941L21.8518 50.9906L21.8528 50.9881L21.8549 50.9821L21.8554 50.9811L21.8574 50.9756L21.8589 50.9711L21.8594 50.9691L21.8614 50.9625L21.8619 50.9615L21.8634 50.956L21.8645 50.951L21.865 50.949L21.8665 50.942L21.867 50.9399L21.868 50.9344L21.869 50.9284V50.9269L21.87 50.9194V50.9169L21.8705 50.9113L21.8715 50.9048V50.9033L21.872 50.8953V50.8923L21.8726 50.8873V50.8797V50.8787L21.8731 50.8702V50.8667V50.8617V50.8531V50.8526V50.8436V50.8391V50.8346L21.8726 50.825C21.8417 50.5109 21.9272 50.1214 23.1707 49.8369C24.4162 49.5519 24.8288 50.0281 27.1075 49.2161L27.193 49.185L27.194 49.1845L27.2663 49.1564L27.2764 49.1524L27.3169 49.1363L27.3295 49.1308L27.3664 49.1158L27.415 49.0952L27.4595 49.0756L27.4625 49.0746L27.5085 49.0535H27.509L27.5535 49.0319L27.5975 49.0104L27.6405 48.9888L27.6744 48.9712L27.6825 48.9667L27.7154 48.9491L27.7229 48.9446L27.7629 48.9225L27.7786 48.9135L27.8013 48.9C27.8393 48.8774 27.8762 48.8548 27.9116 48.8322L27.9465 48.8096L27.9535 48.8051L27.9803 48.7865L28.0132 48.7635L28.0451 48.7404L28.0734 48.7188L28.08 48.7138C28.1088 48.6917 28.1366 48.6691 28.1634 48.6465L28.1907 48.6229L28.1963 48.6179L28.217 48.5994L28.2175 48.5989L28.2423 48.5758L28.2671 48.5522C28.2903 48.5296 28.3126 48.507 28.3333 48.4844L28.3364 48.4814L28.3495 48.4669L28.3576 48.4573L28.3783 48.4338L28.3829 48.4287L28.3986 48.4102L28.4036 48.4036L28.4178 48.3861L28.4365 48.3625L28.4441 48.3525L28.4542 48.3384L28.4709 48.3148L28.4714 48.3143L28.4876 48.2907L28.4881 48.2897L28.5032 48.2671L28.5179 48.2436L28.5295 48.2245L28.5326 48.22L28.5437 48.2004L28.5457 48.1964L28.5589 48.1728L28.5644 48.1628L28.5715 48.1497L28.5831 48.1261L28.5836 48.1256L28.5943 48.103L28.6049 48.08L28.615 48.0569L28.617 48.0513L28.6241 48.0343L28.6317 48.0147L28.6327 48.0112L28.6408 47.9886L28.6443 47.9786L28.6484 47.9665L28.6509 47.959L28.6681 47.8998L28.6737 47.8782C28.6828 47.8421 28.6898 47.8064 28.6949 47.7718C28.839 47.9751 29.0099 48.1527 29.2026 48.3003C28.7495 48.3459 28.1472 48.6631 27.6673 49.8008C26.7343 52.0164 27.1935 52.45 26.8425 53.67C26.4926 54.8869 26.0956 54.9537 25.7811 54.906V54.909ZM33.2982 55.8665C33.139 55.9905 33.147 56.1275 33.2087 56.1957C31.3468 56.6665 29.4484 56.5912 27.7027 56.0562C27.7659 55.991 27.7811 55.8555 27.6284 55.723C27.3816 55.5243 27.1647 55.1885 27.8413 54.1141C28.5184 53.0381 29.2158 53.1154 30.1837 50.9128C30.6823 49.7767 30.5356 49.1328 30.2792 48.778C30.5174 48.8212 30.7632 48.8277 31.011 48.7976C30.7217 49.1484 30.523 49.7937 30.9938 50.9339C31.9137 53.1561 32.5468 53.1405 33.1673 54.2486C33.7878 55.3551 33.5546 55.6798 33.2977 55.8665H33.2982ZM35.4753 55.3311C35.4748 55.2392 35.3883 55.1318 35.185 55.1459C34.8689 55.1795 34.4765 55.0917 34.1893 53.8587C33.9005 52.6226 34.4487 52.187 33.5637 49.9528C33.1076 48.7986 32.5448 48.4463 32.1114 48.375C32.3162 48.2345 32.4927 48.0634 32.6413 47.8747C32.6869 48.3249 33.0054 48.922 34.1519 49.3968C36.3845 50.3247 36.8224 49.868 38.0518 50.2153C39.2781 50.5646 39.3443 50.9575 39.2958 51.2687C39.2715 51.4694 39.3737 51.5592 39.4652 51.5647C38.5317 53.1235 37.1724 54.4413 35.4743 55.3311H35.4753ZM40.4523 49.3622C40.3861 49.2989 40.25 49.2844 40.1176 49.4354C39.9173 49.6808 39.578 49.8956 38.4958 49.2252C37.4111 48.5532 37.4889 47.8601 35.271 46.9006C34.1246 46.4048 33.4762 46.5513 33.1192 46.8068C33.1612 46.5684 33.1683 46.3235 33.1374 46.0791L33.1637 46.0997L33.1713 46.1057L33.189 46.1188L33.1921 46.1208L33.2072 46.1318L33.2214 46.1413L33.2259 46.1444L33.2451 46.1569L33.2522 46.1614L33.2836 46.181L33.2841 46.1815L33.3048 46.1935L33.3165 46.2001L33.3256 46.2051L33.3468 46.2166L33.3503 46.2186L33.3685 46.2277L33.3857 46.2362L33.3913 46.2387C33.4125 46.2487 33.4343 46.2583 33.457 46.2673L33.4606 46.2688H33.4611L33.4854 46.2783L33.4995 46.2839L33.5101 46.2879L33.5354 46.2964L33.54 46.2979L33.5617 46.3049L33.5819 46.3115L33.588 46.3135L33.6148 46.321L33.6249 46.3235L33.6421 46.328L33.6694 46.3345H33.6699L33.6988 46.3411L33.7154 46.3446L33.7276 46.3471L33.7574 46.3526L33.763 46.3536L33.7878 46.3576L33.8115 46.3611L33.8181 46.3622C33.8489 46.3662 33.8808 46.3697 33.9137 46.3717H33.9142L33.9622 46.3747H33.9668L33.9809 46.3752L34.0153 46.3762H34.0219H34.0285H34.0785H34.0861C34.122 46.3757 34.1584 46.3747 34.1959 46.3722H34.1964L34.2343 46.3697L34.257 46.3677L34.2732 46.3662L34.3122 46.3622L34.3198 46.3611L34.3521 46.3571L34.384 46.3531L34.3926 46.3521L34.434 46.3456L34.4502 46.3431L34.4613 46.3411L34.518 46.331H34.5185L34.5863 46.3175H34.5873L34.6055 46.3135L34.65 46.3034L34.6586 46.3014L34.695 46.2929L34.7314 46.2839L34.7405 46.2814L34.787 46.2688L34.8057 46.2638L34.834 46.2558L34.8816 46.2417L34.9301 46.2267L34.9443 46.2221L34.9797 46.2106L35.0298 46.194L35.0399 46.1905L35.0474 46.188L35.1127 46.1644L35.1213 46.1614L35.1319 46.1574L35.184 46.1378L35.2047 46.1298L35.2164 46.1253L35.2902 46.0957C37.5294 45.1828 37.5142 44.5545 38.6303 43.9383C39.7469 43.3225 40.0751 43.5554 40.2607 43.8088L40.2662 43.8163L40.2693 43.8198L40.2723 43.8233L40.2784 43.8304L40.2839 43.8369L40.2875 43.8404L40.2961 43.8494L40.2966 43.8499L40.3021 43.8555L40.3057 43.859L40.3077 43.861L40.3138 43.8665L40.3148 43.867L40.3198 43.8715L40.3239 43.8745L40.3259 43.876L40.332 43.881L40.333 43.882L40.3375 43.8861L40.3421 43.8891L40.3436 43.8901L40.3497 43.8946L40.3512 43.8956L40.3557 43.8986L40.3603 43.9016L40.3613 43.9026L40.3674 43.9061L40.3694 43.9071L40.3734 43.9091L40.378 43.9122L40.379 43.9127L40.3851 43.9157L40.3871 43.9167L40.3906 43.9187L40.3957 43.9212H40.3962L40.4018 43.9237L40.4043 43.9247L40.4073 43.9257L40.4129 43.9277H40.4134L40.419 43.9297L40.4215 43.9307L40.4245 43.9317L40.4301 43.9332C40.4953 43.9513 40.554 43.9342 40.5924 43.9021C41.0662 45.7484 40.9904 47.6308 40.4513 49.3627L40.4523 49.3622ZM33.8191 46.3606C33.85 46.3647 33.8818 46.3682 33.9147 46.3702L33.8191 46.3606ZM34.0866 46.3757C34.1225 46.3752 34.1589 46.3737 34.1964 46.3717L34.0866 46.3757ZM50.8206 48.2526L50.1222 46.335C49.9655 45.8944 49.6029 45.5436 49.1184 45.5436V48.2526H47.7202V42.3454H49.1184V44.9565H49.1341L50.7377 42.3454H52.3326L50.5162 45.0052C51.0173 45.242 51.3445 45.6495 51.5594 46.189L52.3822 48.2526H50.8201H50.8206ZM54.7822 46.0826C54.6184 46.0826 54.4217 46.0661 54.3134 46.0505V48.2526H52.944V42.5657C53.4189 42.362 54.0353 42.2476 54.7519 42.2476C56.2968 42.2476 57.1352 43.0063 57.1352 44.1811C57.1352 45.2747 56.3534 46.0826 54.7822 46.0826ZM54.7676 43.2839C54.5936 43.2839 54.4217 43.317 54.314 43.3486V45.0137C54.4055 45.0308 54.5623 45.0468 54.7185 45.0468C55.4174 45.0468 55.7618 44.7367 55.7618 44.1811C55.7618 43.5694 55.427 43.2839 54.7681 43.2839H54.7676ZM60.9249 48.2526L60.58 47.0532H58.6902L58.3433 48.2526H56.8809L58.8045 42.3454H60.4662L62.3879 48.2526H60.9249ZM59.7906 44.2303C59.694 43.8871 59.6445 43.4876 59.6445 43.4876H59.6263C59.6263 43.4876 59.5767 43.8876 59.4791 44.2303L58.9532 46.0505H60.3171L59.7906 44.2303ZM64.9796 48.3509C63.6481 48.3509 62.5957 47.3478 62.5957 45.2998C62.5957 43.2507 63.6481 42.2476 64.9796 42.2476C65.5075 42.2476 65.992 42.378 66.2792 42.5657L65.8499 43.6683C65.6936 43.5533 65.4484 43.455 65.1611 43.455C64.4769 43.455 64.0339 44.1079 64.0339 45.2827C64.0339 46.458 64.4769 47.1189 65.1611 47.1189C65.4489 47.1189 65.6941 47.0125 65.8499 46.8986L66.2792 48.0333C65.9915 48.22 65.5308 48.3504 64.9796 48.3504V48.3509ZM69.8494 48.2526V45.8458H68.3925V48.2526H66.9948V42.3454H68.3925V44.7126H69.8494V42.3454H71.2452V48.2526H69.8494ZM75.7747 48.2526L75.4308 47.0532H73.5395L73.1946 48.2526H71.7316L73.6543 42.3454H75.316L77.2392 48.2526H75.7752H75.7747ZM74.6404 44.2303C74.5443 43.8871 74.4937 43.4876 74.4937 43.4876H74.4776C74.4776 43.4876 74.4275 43.8876 74.3284 44.2303L73.802 46.0505H75.1673L74.6409 44.2303H74.6404ZM80.5616 48.2526V45.9607H80.1843C79.8213 45.9607 79.5907 46.18 79.4764 46.4992L78.8266 48.2526H77.3631L78.07 46.4414C78.2182 46.05 78.4321 45.7158 78.7451 45.5351V45.5186C78.2187 45.3233 77.709 44.8913 77.709 44.0833C77.709 42.916 78.5054 42.2471 80.0518 42.2471C80.7588 42.2471 81.4415 42.3615 81.9346 42.5652V48.2521H80.5621L80.5616 48.2526ZM80.5616 43.3486C80.4357 43.3079 80.2152 43.2839 80.0175 43.2839C79.3601 43.2839 79.0804 43.5855 79.0804 44.1646C79.0804 44.7126 79.3864 44.9806 80.0023 44.9806H80.5621V43.3486H80.5616ZM50.5733 56.7046V51.9226H49.1189V56.7046H47.7207V50.7959H51.9711V56.7046H50.5733ZM56.3615 56.7046L55.8937 51.9226H55.1044L54.9547 53.4657C54.8085 55.0079 54.2897 56.4035 52.9015 56.8677L52.5142 55.6598C53.2464 55.2769 53.4922 54.4533 53.607 53.3187L53.8715 50.7964H57.1443L57.7931 56.7051H56.362L56.3615 56.7046ZM60.6473 56.802C59.0584 56.802 58.3277 55.4881 58.3277 53.7503C58.3277 52.0139 59.0584 50.6991 60.6473 50.6991C62.2321 50.6991 62.9639 52.0134 62.9639 53.7503C62.9639 55.4881 62.2316 56.802 60.6473 56.802ZM60.6473 51.9145C60.0369 51.9145 59.7259 52.6086 59.7259 53.7503C59.7259 54.893 60.0369 55.5865 60.6473 55.5865C61.2567 55.5865 61.5661 54.8924 61.5661 53.7503C61.5661 52.6086 61.2567 51.9145 60.6473 51.9145ZM70.6353 57.8955H69.6896L69.6568 56.7046H63.7861V50.7959H65.1176V55.5458H66.3581V50.7959H67.6916V55.5458H68.9341V50.7959H70.2666V55.5458L70.7081 55.7511L70.6343 57.896L70.6353 57.8955ZM75.0525 56.7046L74.7056 55.5052H72.8148L72.4699 56.7046H71.007L72.9286 50.7959H74.5929L76.516 56.7046H75.052H75.0525ZM73.9173 52.6818C73.8176 52.3391 73.7691 51.9386 73.7691 51.9386H73.7534C73.7534 51.9386 73.7038 52.3391 73.6042 52.6818L73.0803 54.502H74.4422L73.9167 52.6818H73.9173ZM82.5343 57.8955H81.5887L81.5563 56.7046H77.8804L77.848 57.8955H76.8938L76.828 55.7506C77.8232 55.0224 78.1358 53.6198 78.2996 52.2814L78.4812 50.7959H81.6372L82.1561 55.5458L82.6087 55.7511L82.5353 57.896L82.5343 57.8955ZM80.4352 51.9226H79.6488L79.5901 52.4289C79.4587 53.5791 79.18 54.9582 78.5631 55.6191H80.8084L80.4352 51.922V51.9226ZM84.7543 56.802C84.0398 56.802 83.4385 56.6875 82.9626 56.4838V50.7959H84.3194V53C84.4256 52.9764 84.639 52.9508 84.811 52.9508C86.3675 52.9508 87.1397 53.7673 87.1397 54.8613C87.1397 56.0356 86.3002 56.802 84.7543 56.802ZM84.7452 53.9871C84.5895 53.9871 84.4079 54.0107 84.3199 54.0353V55.7009C84.4261 55.7335 84.5986 55.7656 84.771 55.7656C85.4299 55.7656 85.7652 55.4796 85.7652 54.8689C85.7652 54.3053 85.4294 53.9871 84.7452 53.9871ZM50.5106 40.0982L50.2689 38.1776C50.2492 38.0165 50.2401 37.8253 50.2401 37.8253H50.2305C50.2305 37.8253 50.191 38.0205 50.1364 38.1776L49.475 40.0982H49.1447L48.4823 38.1776C48.4277 38.0205 48.3892 37.8253 48.3892 37.8253H48.3791C48.3791 37.8253 48.3746 38.0165 48.3543 38.1776L48.1086 40.0982H47.7202L48.0934 37.469H48.59L49.2241 39.3123C49.2727 39.4588 49.3076 39.6395 49.3076 39.6395H49.3172C49.3172 39.6395 49.3511 39.4593 49.4006 39.3123L50.0297 37.469H50.5298L50.898 40.0982H50.5101H50.5106ZM53.5772 38.7176L51.7673 38.9766C51.8123 39.5366 52.1516 39.8206 52.6568 39.8206C52.9228 39.8206 53.2045 39.7574 53.3815 39.6601L53.5089 39.9662C53.3167 40.0751 52.9865 40.1519 52.6386 40.1519C51.8462 40.1519 51.3713 39.6445 51.3713 38.7828C51.3713 37.9729 51.8082 37.4163 52.5248 37.4163C53.1782 37.4163 53.5807 37.8414 53.5807 38.543C53.5807 38.5962 53.5807 38.6554 53.5772 38.7181V38.7176ZM52.5197 37.728C52.0525 37.728 51.7531 38.0988 51.7435 38.693L53.1868 38.4893C53.1832 37.9724 52.9182 37.7285 52.5197 37.7285V37.728ZM54.6224 37.7957V40.0977H54.2153V37.4685H55.7021V37.7957H54.6219H54.6224ZM57.1246 40.1509C56.3964 40.1509 56.0333 39.8437 56.0333 39.3464C56.0333 38.5951 56.849 38.4837 57.6505 38.4396V38.2403C57.6505 37.8494 57.3891 37.7275 57.0209 37.7275C56.7742 37.7275 56.4707 37.8053 56.2978 37.8881L56.1906 37.6005C56.3929 37.5077 56.7261 37.4153 57.0553 37.4153C57.6505 37.4153 58.0379 37.6502 58.0379 38.2735V39.9647C57.8513 40.0676 57.473 40.1504 57.1246 40.1504V40.1509ZM57.6505 38.7226C57.0604 38.7562 56.4207 38.7909 56.4207 39.3369C56.4207 39.6435 56.6513 39.8432 57.1135 39.8432C57.3163 39.8432 57.557 39.8041 57.6505 39.7604V38.7221V38.7226ZM60.9032 40.8093H60.6023L60.5826 40.0977H58.755V37.4685H59.1691V39.7705H60.3171V37.4685H60.7302V39.7664L60.9274 39.8493L60.9037 40.8093H60.9032ZM63.6385 38.7171L61.8306 38.976C61.8746 39.5361 62.2134 39.8201 62.7181 39.8201C62.9841 39.8201 63.2658 39.7569 63.4418 39.6596L63.5692 39.9657C63.377 40.0746 63.0499 40.1514 62.6999 40.1514C61.909 40.1514 61.4316 39.644 61.4316 38.7823C61.4316 37.9724 61.8691 37.4158 62.5876 37.4158C63.241 37.4158 63.642 37.8409 63.642 38.5425C63.642 38.5957 63.642 38.6549 63.638 38.7176L63.6385 38.7171ZM62.5826 37.7275C62.1174 37.7275 61.8165 38.0983 61.8048 38.6925L63.2501 38.4888C63.2466 37.9719 62.9791 37.728 62.5821 37.728L62.5826 37.7275ZM65.8297 40.0977V38.9023H64.6691V40.0977H64.2625V37.4685H64.6691V38.6102H65.8297V37.4685H66.2383V40.0977H65.8297ZM67.9025 37.8012V40.0977H67.4949V37.8012H66.746V37.469H68.6499V37.8012H67.9025ZM70.0396 40.1273C69.8596 40.1273 69.6679 40.0936 69.5688 40.0585V41.1455H69.1566V37.6005C69.3276 37.5077 69.677 37.4153 70.0102 37.4153C70.8158 37.4153 71.2674 37.9423 71.2674 38.7562C71.2674 39.5602 70.8305 40.1268 70.0391 40.1268L70.0396 40.1273ZM70.0163 37.7425C69.8398 37.7425 69.6532 37.7862 69.5693 37.8308V39.7368C69.6492 39.771 69.8499 39.8046 70.0107 39.8046C70.5675 39.8046 70.8558 39.3605 70.8558 38.7567C70.8558 38.148 70.562 37.7425 70.0163 37.7425ZM17.6181 46.455C17.6181 46.4455 17.6181 46.4354 17.6181 46.4254C17.4861 46.4299 17.3198 46.4339 17.1236 46.4339C16.9481 46.4339 16.7519 46.4294 16.543 46.4224C15.6277 46.7466 14.8226 47.2273 14.2613 47.9304C13.9832 48.3178 8.23697 55.4184 6.56413 55.4575C5.93757 55.4811 4.93831 55.441 2.55446 55.4575C0.255569 55.7089 0.0805983 58.0029 0.0805983 58.0029C0.0805983 58.0029 7.56793 58.0345 8.9055 58.0029C11.3713 57.9712 16.4247 53.4487 17.5463 52.6191C17.9023 52.2683 18.3575 52.0475 18.8647 51.9175C18.0763 50.26 17.6272 48.4087 17.6171 46.4545L17.6181 46.455ZM8.74216 22.7309C8.83571 23.0817 9.01726 23.5058 9.3586 23.9379C9.18616 24.0473 9.03344 24.1637 8.89791 24.2856C8.45138 23.981 8.17477 23.6403 8.00384 23.3512C7.99221 23.3306 7.9821 23.3121 7.97249 23.293C8.19601 23.0938 8.45037 22.9046 8.74165 22.7304L8.74216 22.7309ZM11.4765 21.9937C11.4254 22.2015 11.3885 22.4494 11.3885 22.736C11.3885 22.9171 11.4052 23.1128 11.4411 23.3211C11.2059 23.3281 10.9612 23.3562 10.7073 23.4099C10.4878 22.9372 10.4287 22.5172 10.4281 22.1975C10.4281 22.1639 10.4292 22.1327 10.4302 22.1021C10.7922 22.0289 11.1427 21.9942 11.477 21.9942L11.4765 21.9937ZM7.92849 28.4635C7.9381 28.6823 7.93911 28.887 7.93658 29.0863C7.79853 29.1028 7.66604 29.1124 7.54265 29.1124C7.11281 29.1124 6.76792 29.022 6.52367 28.9267C6.52215 28.7766 6.51861 28.6336 6.51507 28.5026C6.51457 28.4464 6.51204 28.3857 6.509 28.3225C6.73505 28.3842 7.01976 28.4334 7.34998 28.4334C7.52748 28.4334 7.71964 28.4188 7.92394 28.3842C7.92546 28.4108 7.92698 28.4369 7.929 28.464L7.92849 28.4635ZM12.8909 22.1985C12.7078 22.4966 12.5293 22.9001 12.4494 23.4175C12.2562 23.3718 12.0529 23.3417 11.8441 23.3266C11.8011 23.1133 11.7844 22.9156 11.7844 22.7355C11.7844 22.4474 11.8274 22.203 11.881 22.0103C12.234 22.0389 12.5708 22.1026 12.8909 22.198V22.1985ZM7.34947 28.0394C6.98942 28.0394 6.69965 27.9737 6.48726 27.9024C6.47563 27.6731 6.46551 27.4201 6.4645 27.1512C6.73252 27.2375 7.06932 27.3057 7.46831 27.3057C7.60131 27.3057 7.74138 27.2962 7.88601 27.2791C7.88601 27.509 7.8936 27.7448 7.90422 27.9892C7.70498 28.0244 7.51938 28.0399 7.34947 28.0399V28.0394ZM16.1466 24.4894C15.829 24.6319 15.4603 24.8663 15.1053 25.2391C14.9612 25.058 14.7963 24.8718 14.6128 24.6886C14.8636 24.3233 15.1417 24.0764 15.3845 23.9123C15.4355 23.8787 15.4846 23.8485 15.5316 23.8209C15.7643 24.0488 15.9691 24.2751 16.1466 24.4894ZM14.32 24.4171C14.1496 24.2686 13.9675 24.1281 13.7703 23.9996C13.9574 23.5826 14.1946 23.2835 14.411 23.0767C14.4469 23.0421 14.4813 23.0115 14.5152 22.9829C14.7746 23.159 15.0143 23.3487 15.2328 23.5424C14.9486 23.7226 14.6168 23.9991 14.3205 24.4171H14.32ZM13.4305 23.7953C13.2423 23.6935 13.0431 23.6051 12.8337 23.5319C12.905 23.02 13.0795 22.6336 13.2545 22.3591C13.2621 22.348 13.2686 22.3385 13.2757 22.3285C13.5928 22.4489 13.8922 22.5969 14.1713 22.7621C13.922 22.9934 13.6464 23.3286 13.431 23.7953H13.4305ZM10.0317 22.1995C10.0317 22.5513 10.0989 23.009 10.3209 23.5108C10.1262 23.571 9.927 23.6428 9.72321 23.7326C9.71663 23.7351 9.71208 23.7381 9.70703 23.7411C9.34292 23.2995 9.17655 22.8684 9.10272 22.5382C9.4208 22.3952 9.72978 22.2833 10.0317 22.1995ZM7.21142 31.882C6.96312 32.2293 6.66931 32.4662 6.36134 32.6237C5.99724 32.1144 5.86424 31.6356 5.82075 31.2828C5.90116 31.2261 5.96993 31.1589 6.03365 31.0851C6.27891 31.3501 6.6597 31.6602 7.21142 31.8825V31.882ZM5.44603 31.4605C5.50874 31.8308 5.65741 32.293 5.98409 32.7748C5.64932 32.8777 5.31455 32.9018 5.0167 32.8817C4.99647 32.7372 4.98635 32.5981 4.98635 32.4692C4.98635 32.0667 5.06777 31.7425 5.15475 31.5112C5.25943 31.5026 5.35652 31.4861 5.44553 31.4605H5.44603ZM4.73957 31.5006C4.65816 31.7556 4.59039 32.0812 4.59039 32.4692C4.59039 32.5816 4.59798 32.701 4.61113 32.8245C4.42149 32.7823 4.26422 32.7256 4.15651 32.6679C3.77471 32.4431 4.01694 31.3716 4.51656 31.4655C4.59495 31.481 4.66827 31.4916 4.73957 31.5001V31.5006ZM8.61927 24.5747C8.51864 24.6967 8.43065 24.8236 8.35429 24.9556C7.77122 24.8608 7.34846 24.644 7.0587 24.4342C7.22001 24.1391 7.42431 23.849 7.67868 23.5765C7.86882 23.8912 8.16364 24.2525 8.61877 24.5747H8.61927ZM7.54214 29.5038C7.663 29.5038 7.79145 29.4953 7.92242 29.4812C7.90422 29.7949 7.86983 30.0814 7.82129 30.3424C7.28221 30.3389 6.86855 30.2029 6.5884 30.0689C6.54086 30.0453 6.4994 30.0232 6.45995 30.0016C6.49383 29.7843 6.51002 29.5605 6.51811 29.3422C6.78663 29.432 7.13101 29.5033 7.54265 29.5033L7.54214 29.5038ZM7.87489 26.2494C7.89764 26.2494 7.92293 26.2473 7.94518 26.2463C7.91787 26.4511 7.90068 26.6629 7.89309 26.8832C7.74442 26.9043 7.60282 26.9128 7.46881 26.9128C7.05516 26.9128 6.71937 26.83 6.47361 26.7371C6.48524 26.4943 6.50749 26.2428 6.54845 25.9869C6.88322 26.1299 7.32671 26.2494 7.87539 26.2494H7.87489ZM6.88423 24.792C7.19271 25.0068 7.61951 25.2171 8.1773 25.325C8.11004 25.4936 8.05694 25.6672 8.01598 25.8509C7.96844 25.8524 7.9204 25.8564 7.87438 25.8564C7.34138 25.8564 6.92469 25.7314 6.62329 25.5909C6.68549 25.3245 6.76944 25.0565 6.88373 24.7915L6.88423 24.792ZM6.37398 30.4011C6.68347 30.5577 7.14315 30.7162 7.73431 30.7328C7.65087 31.0429 7.54619 31.3104 7.4228 31.5423C6.98031 31.3742 6.66122 31.1463 6.43821 30.935C6.36589 30.8663 6.3047 30.7995 6.25211 30.7373C6.30116 30.6319 6.34061 30.519 6.37398 30.4011Z" fill="#C7C7C7"/>
</svg>
