<svg width="105" height="21" viewBox="0 0 105 21" fill="none" xmlns="http://www.w3.org/2000/svg">
<path fill-rule="evenodd" clip-rule="evenodd" d="M80.2632 0.174997C82.0394 -0.234242 83.9697 0.0788009 85.517 1.0667C87.2036 2.10041 88.3922 3.90841 88.751 5.87827C89.044 7.564 88.7704 9.36592 87.9002 10.8394C86.885 12.6458 85.0505 13.9316 83.0455 14.2827C80.9179 14.6736 78.6185 14.0109 77.0486 12.4809C75.3546 10.931 74.5189 8.49718 74.8418 6.20347C75.1976 3.30381 77.4643 0.784195 80.2631 0.174997H80.2632ZM80.7162 3.38622C78.8025 3.92368 77.5226 6.11646 78.0294 8.0893C78.4196 10.0165 80.3783 11.4228 82.2875 11.1418C84.3837 10.9402 86.0328 8.76118 85.6739 6.63568C85.4168 4.31468 82.896 2.638 80.7162 3.38622Z" fill="#C7C7C7"/>
<path fill-rule="evenodd" clip-rule="evenodd" d="M19.5104 0.298828C21.448 0.327876 23.3872 0.288155 25.325 0.317203C27.6708 0.416506 29.7984 2.25491 30.3007 4.5928C30.6744 6.2099 30.2888 7.99344 29.2706 9.2898C28.3271 10.5144 26.8619 11.3038 25.3354 11.391C24.4054 11.4368 23.474 11.3925 22.5425 11.4138C22.5276 12.1514 22.6875 13.0294 22.1238 13.6096C21.451 14.3394 20.3925 14.0173 19.5283 14.086C19.4655 13.0369 19.506 11.9833 19.4954 10.9328C19.5059 7.3887 19.4745 3.84309 19.5104 0.298963V0.298828ZM22.541 8.29257C23.3782 8.30176 24.217 8.30486 25.0558 8.29865C25.9648 8.30014 26.8289 7.70013 27.1938 6.85557C27.8247 5.55152 27.0099 3.81526 25.627 3.48708C24.6148 3.30996 23.5786 3.46722 22.556 3.39548C22.5261 5.02784 22.5531 6.66021 22.5411 8.29257H22.541Z" fill="#C7C7C7"/>
<path fill-rule="evenodd" clip-rule="evenodd" d="M31.799 1.90978C31.7556 1.13859 32.3717 0.393477 33.1297 0.329301C33.6949 0.278906 34.2645 0.317141 34.8327 0.30944C34.8446 3.16641 34.8341 6.02339 34.8372 8.87887C36.8407 6.14552 38.9472 3.49162 40.9731 0.773668C41.1346 0.616403 41.2407 0.315655 41.4993 0.317141C42.4099 0.292687 43.3235 0.318628 44.2355 0.311062C44.216 4.40642 44.24 8.50179 44.2236 12.5957C44.234 13.3546 43.5792 14.0356 42.8451 14.0737C42.2904 14.1027 41.7342 14.0783 41.178 14.0829C41.2049 11.2488 41.2378 8.41019 41.1616 5.57767C39.034 8.43316 36.8421 11.2366 34.7026 14.0814C33.7338 14.0875 32.7665 14.0831 31.7976 14.0831C31.8021 10.0259 31.8006 5.96718 31.799 1.90992V1.90978Z" fill="#C7C7C7"/>
<path fill-rule="evenodd" clip-rule="evenodd" d="M46.3281 0.314169C49.1001 0.300388 51.8705 0.31579 54.641 0.304982C55.7983 0.277555 56.948 0.80123 57.718 1.68078C58.7735 2.81527 59.0771 4.57896 58.5284 6.03122C58.3923 6.45722 58.0649 6.79471 57.9438 7.22233C58.4268 8.01784 58.8425 8.899 58.796 9.86394C58.8558 12.02 57.0288 13.9746 54.9282 14.0662C52.5883 14.1044 50.247 14.0739 47.9071 14.0845C47.1073 14.1303 46.3507 13.4386 46.3387 12.6157C46.3238 8.51571 46.3432 4.41426 46.3283 0.314304L46.3281 0.314169ZM49.3737 3.40947C49.3827 4.15459 49.3827 4.89984 49.3751 5.64495C51.1842 5.64347 52.9948 5.64495 54.8038 5.61131C55.2404 5.59753 55.5783 5.21585 55.7263 4.82188C55.9161 4.1454 55.354 3.36826 54.6528 3.41244C52.8931 3.40488 51.1332 3.40947 49.3735 3.40947H49.3737ZM49.3751 8.74782C49.3796 9.48996 49.3811 10.232 49.3782 10.9726C51.1319 10.994 52.8857 10.9802 54.6394 10.968C55.1269 11.0017 55.5723 10.6245 55.7099 10.1604C55.9386 9.47929 55.345 8.68527 54.6409 8.74025C52.8855 8.72188 51.1303 8.76309 49.3751 8.74796V8.74782Z" fill="#C7C7C7"/>
<path fill-rule="evenodd" clip-rule="evenodd" d="M64.7383 0.314091C68.1366 0.306525 71.5351 0.309497 74.9349 0.312605C74.8153 1.18756 75.1951 2.27179 74.4879 2.96043C74.1591 3.32995 73.6536 3.43844 73.1826 3.41236C71.4005 3.3925 69.6183 3.4352 67.8377 3.38791C67.7345 4.16667 67.8033 4.9515 67.7838 5.73337C67.7973 7.92467 67.7703 10.1158 67.7988 12.3055C67.8018 12.7926 67.706 13.3241 67.3188 13.6508C66.6282 14.3317 65.595 14.0157 64.7383 14.0784C64.7502 9.49137 64.7518 4.90124 64.7383 0.314226V0.314091Z" fill="#C7C7C7"/>
<path fill-rule="evenodd" clip-rule="evenodd" d="M90.2204 0.30172C91.2401 0.318473 92.2597 0.30172 93.2794 0.313879C93.269 3.87327 93.2526 7.43267 93.287 10.9921C94.199 10.9692 95.1095 10.9937 96.0215 10.9722C96.0156 7.42051 96.0244 3.86719 96.0155 0.315365C97.0367 0.307664 98.0594 0.295505 99.0805 0.322931C99.0447 3.87314 99.0775 7.42348 99.0625 10.9721C99.9805 10.9903 100.897 10.9796 101.815 10.9813C101.824 7.42497 101.83 3.86854 101.812 0.312258C102.436 0.327525 103.067 0.254297 103.687 0.358059C104.375 0.507758 104.891 1.1964 104.853 1.91557C104.855 5.97121 104.855 10.03 104.855 14.0871C100.522 14.0794 96.189 14.0825 91.8576 14.084C91.3598 14.1038 90.8559 13.8977 90.5494 13.4901C90.2011 13.0808 90.2234 12.5036 90.207 11.9967C90.2205 8.09834 90.198 4.19996 90.2205 0.301584L90.2204 0.30172Z" fill="#C7C7C7"/>
<path fill-rule="evenodd" clip-rule="evenodd" d="M0.0067127 7.90321C2.02517 7.90781 4.04349 7.9001 6.06195 7.90618C6.06935 9.96616 6.06935 12.0244 6.06195 14.0827C5.00787 14.0796 3.95539 14.0919 2.90131 14.0796C1.42114 14.0568 0.0800004 12.7496 0.0126657 11.2333C-0.0127337 10.1248 0.00816787 9.01312 0.0067127 7.90308V7.90321Z" fill="#C7C7C7"/>
<path fill-rule="evenodd" clip-rule="evenodd" d="M33.5008 16.6141L33.8268 16.5989C33.8358 17.0326 33.8342 17.4663 33.8104 17.8998C34.1527 17.5196 34.6939 17.3089 35.1755 17.5456C36.1951 17.9762 36.1263 19.7658 35.0528 20.0833C34.5954 20.2681 34.1423 19.9979 33.8163 19.6863C33.8298 20.1123 33.8313 20.5368 33.8268 20.9628C33.7445 20.9582 33.5815 20.9505 33.4994 20.9459C33.4979 20.5291 33.4994 20.1122 33.5173 19.6954C33.2063 19.9871 32.7982 20.2481 32.3586 20.0986C31.1983 19.8694 31.1117 17.8783 32.227 17.5225C32.689 17.3255 33.1779 17.5346 33.5128 17.8737C33.4979 17.4538 33.4964 17.0339 33.5009 16.614L33.5008 16.6141ZM32.2643 17.8602C31.6767 18.1457 31.6304 19.0497 32.0131 19.5231C32.4631 20.0622 33.4812 19.7293 33.4888 18.9993C33.6906 18.2847 32.967 17.4815 32.2642 17.8602H32.2643ZM34.3426 17.8419C33.5621 18.2115 33.6816 19.7201 34.6057 19.801C35.265 19.8927 35.6927 19.1612 35.5537 18.5641C35.5043 17.9885 34.8614 17.5869 34.3426 17.8419Z" fill="#C7C7C7"/>
<path fill-rule="evenodd" clip-rule="evenodd" d="M19.4922 17.5245C20.2772 17.5184 21.0635 17.5138 21.85 17.5291C21.85 18.3766 21.8559 19.2255 21.8426 20.073C21.7574 20.0684 21.5884 20.0592 21.5047 20.0532C21.5032 19.3125 21.4987 18.5705 21.5106 17.8298C20.9575 17.8282 20.4027 17.8298 19.8496 17.8405C19.8556 18.5873 19.8556 19.3339 19.8496 20.0791C19.7599 20.073 19.5806 20.0578 19.4923 20.0515C19.4923 19.2086 19.4939 18.3658 19.4923 17.5244L19.4922 17.5245Z" fill="#C7C7C7"/>
<path fill-rule="evenodd" clip-rule="evenodd" d="M23.4002 18.3339C23.5198 17.9659 23.7158 17.5535 24.1403 17.4971C24.6486 17.4023 25.4171 17.3628 25.6534 17.9491C25.7207 18.5095 25.6728 19.0761 25.6908 19.6411C25.788 19.7266 25.9824 19.8976 26.0796 19.9845C25.788 20.0685 25.4158 20.1464 25.3126 19.7616C24.8775 20.1144 24.269 20.238 23.7458 20.0288C23.2689 19.8441 23.1761 19.0761 23.6157 18.7996C24.1764 18.4713 24.9045 18.6805 25.4368 18.2728C25.1842 17.5108 23.9163 17.5995 23.7279 18.3705C23.6456 18.3613 23.4827 18.3431 23.4005 18.3339H23.4002ZM23.7486 19.1112C23.4555 19.7312 24.3063 19.9525 24.7293 19.7479C25.2138 19.6715 25.3678 19.1677 25.3991 18.7354C24.8475 18.8485 24.2613 18.8607 23.7484 19.111L23.7486 19.1112Z" fill="#C7C7C7"/>
<path fill-rule="evenodd" clip-rule="evenodd" d="M27.385 17.5781C27.4598 17.5507 27.6093 17.4927 27.6842 17.4637C27.6871 17.5751 27.6931 17.7995 27.6961 17.911C28.2462 17.236 29.4199 17.3109 29.846 18.0835C30.2123 18.7646 29.9656 19.7953 29.1912 20.0427C28.6649 20.2763 28.0847 20.0672 27.6901 19.6824C27.7036 20.1115 27.7051 20.5421 27.7051 20.9712C27.6213 20.9667 27.4509 20.9559 27.3672 20.9513C27.3926 19.8275 27.3492 18.7021 27.3852 17.5782L27.385 17.5781ZM28.2298 17.8744C27.4808 18.2058 27.5451 19.5495 28.3613 19.7525C29.0072 19.9999 29.7832 19.4212 29.6441 18.699C29.6695 17.9813 28.8143 17.5705 28.2297 17.8744H28.2298Z" fill="#C7C7C7"/>
<path fill-rule="evenodd" clip-rule="evenodd" d="M37.5722 17.5522C37.65 17.5369 37.8055 17.5079 37.8847 17.4926C37.8818 17.8438 37.8757 18.1934 37.8653 18.5431C37.9923 18.5523 38.248 18.5705 38.3751 18.5797C38.5889 18.0559 38.9148 17.468 39.5459 17.439C40.3757 17.2466 41.2234 17.9842 41.1172 18.8591C41.1696 19.8807 39.9689 20.4578 39.1421 20.0226C38.6906 19.8348 38.5096 19.3447 38.414 18.8957C38.2346 18.8972 38.0551 18.9003 37.8772 18.9018C37.8757 19.2928 37.8757 19.6852 37.8741 20.076C37.7934 20.0729 37.6335 20.0668 37.5527 20.0639C37.5676 19.227 37.5197 18.3872 37.5721 17.5519L37.5722 17.5522ZM39.2977 17.8744C38.5919 18.221 38.6263 19.4914 39.3933 19.7496C39.9898 20.0108 40.7763 19.5756 40.7644 18.8778C40.8974 18.0776 39.9675 17.4852 39.2977 17.8744Z" fill="#C7C7C7"/>
<path fill-rule="evenodd" clip-rule="evenodd" d="M42.5119 17.5293C42.6779 17.5276 42.8452 17.5261 43.0127 17.5261C43.3207 18.1826 43.6302 18.8379 43.965 19.4807C43.9994 19.4716 44.0668 19.4548 44.0996 19.4471C44.43 18.818 44.7126 18.1629 45.0296 17.5247C45.185 17.5276 45.3406 17.5293 45.496 17.5307C45.487 18.3752 45.4886 19.2196 45.4931 20.0655C45.4079 20.0655 45.2359 20.064 45.1507 20.064C45.1462 19.3631 45.1493 18.6606 45.1671 17.9598C44.8307 18.6378 44.5541 19.3478 44.1729 20.0014C44.0965 20.0031 43.9441 20.0045 43.8678 20.006C43.4821 19.3494 43.1964 18.6363 42.8885 17.94C42.8645 18.6485 42.8721 19.3585 42.8735 20.0686C42.7838 20.0671 42.6029 20.064 42.5132 20.0625C42.5162 19.2181 42.5162 18.3737 42.5117 17.5293H42.5119Z" fill="#C7C7C7"/>
<path fill-rule="evenodd" clip-rule="evenodd" d="M47.572 17.5919C48.1281 17.2958 48.9116 17.3675 49.3242 17.8821C49.5544 18.1617 49.5724 18.5417 49.6367 18.8853C48.8458 18.8899 48.0564 18.8792 47.2654 18.9037C47.385 19.3067 47.5943 19.7588 48.0609 19.806C48.5513 19.948 48.9145 19.5541 49.239 19.2517L49.5501 19.2624C49.2913 20.0884 48.2702 20.4 47.5645 19.9816C46.7168 19.5127 46.7273 18.0606 47.572 17.5918V17.5919ZM47.2968 18.5739C47.9412 18.5831 48.5855 18.58 49.2299 18.5783C49.1582 17.4896 47.3849 17.4942 47.2968 18.5739Z" fill="#C7C7C7"/>
<path fill-rule="evenodd" clip-rule="evenodd" d="M51.0295 17.4849C51.2748 17.4941 51.4063 17.6299 51.4212 17.8942C51.9401 17.1765 53.1899 17.3597 53.5413 18.1583C53.8717 18.844 53.5892 19.8457 52.8206 20.0579C52.3033 20.2549 51.7321 20.0763 51.3613 19.6777C51.3717 20.1068 51.3718 20.5374 51.3718 20.968C51.2851 20.968 51.1101 20.9695 51.0234 20.9695C51.031 19.8076 51.016 18.647 51.0294 17.4849H51.0295ZM51.9864 17.8422C51.17 18.0895 51.161 19.4929 51.9849 19.7326C52.6368 20.0167 53.4366 19.441 53.3156 18.705C53.323 18.0285 52.5754 17.5933 51.9864 17.8422Z" fill="#C7C7C7"/>
<path fill-rule="evenodd" clip-rule="evenodd" d="M55.0938 17.523C55.182 17.5246 55.3569 17.5261 55.4451 17.5261C55.4406 18.2254 55.4361 18.9232 55.4422 19.621C55.9535 18.9278 56.4752 18.2421 56.9717 17.5368C57.1227 17.5322 57.2737 17.5276 57.4277 17.5215C57.4158 18.3674 57.4158 19.2149 57.4232 20.0623C57.335 20.0623 57.1616 20.0623 57.0749 20.0623C57.0719 19.3538 57.0704 18.6438 57.0749 17.9352C56.562 18.6453 56.0403 19.3461 55.52 20.05C55.4168 20.0577 55.209 20.0699 55.1043 20.0776C55.0968 19.2255 55.1058 18.375 55.0939 17.523H55.0938Z" fill="#C7C7C7"/>
<path fill-rule="evenodd" clip-rule="evenodd" d="M59.2365 17.6043C59.836 17.4456 60.4669 17.5448 61.0799 17.5265C61.0844 18.3724 61.0844 19.2185 61.0784 20.0629C60.9961 20.0614 60.8317 20.0583 60.7496 20.0568C60.748 19.7026 60.7451 19.3498 60.742 18.997C60.4595 18.997 60.1769 18.997 59.8972 18.9986C59.6775 19.356 59.4562 19.7117 59.2304 20.0645C59.1347 20.066 58.9433 20.0691 58.8477 20.0706C59.0569 19.7193 59.2708 19.3728 59.4965 19.0323C58.8297 18.927 58.5964 17.9085 59.2365 17.6046V17.6043ZM59.3859 17.8868C59.1437 18.0487 59.1378 18.4534 59.38 18.6167C59.8241 18.7388 60.292 18.6778 60.7465 18.693C60.748 18.4105 60.7496 18.1296 60.751 17.8486C60.295 17.8516 59.836 17.8104 59.3859 17.8868Z" fill="#C7C7C7"/>
<path fill-rule="evenodd" clip-rule="evenodd" d="M65.0664 17.5184C65.1561 17.5213 65.3355 17.529 65.4268 17.5322C65.3834 18.2269 65.3864 18.9232 65.4343 19.6164C65.9366 18.9293 66.4032 18.2101 66.9593 17.5673C67.0685 17.5489 67.2853 17.5107 67.3944 17.4924C67.384 18.3398 67.3795 19.1872 67.3973 20.0364C67.3166 20.05 67.1551 20.0761 67.0744 20.0897C67.0161 19.3691 67.0355 18.6453 67.0699 17.9245C66.572 18.5582 66.1086 19.2179 65.6301 19.8669C65.5224 20.0836 65.2638 20.0424 65.0709 20.0974C65.0635 19.2377 65.0694 18.3781 65.0664 17.5184Z" fill="#C7C7C7"/>
<path fill-rule="evenodd" clip-rule="evenodd" d="M71.3555 17.5719C71.4511 17.5522 71.6425 17.5155 71.7382 17.4956C71.7353 17.8697 71.7337 18.244 71.7398 18.6165C72.4065 18.2942 72.8282 17.4316 73.6445 17.5048C73.2931 17.8422 72.9104 18.1445 72.5291 18.4454C72.9687 18.9875 73.4112 19.5265 73.8553 20.067C73.7327 20.0624 73.4905 20.0548 73.3694 20.0501C73.0047 19.5829 72.6204 19.1324 72.2496 18.6712C72.0598 18.8652 71.7039 18.9903 71.7398 19.3186C71.7263 19.5691 71.7322 19.8209 71.7338 20.0714C71.6501 20.0698 71.4842 20.0653 71.4019 20.0639C71.3839 19.2332 71.4333 18.401 71.3556 17.5718L71.3555 17.5719Z" fill="#C7C7C7"/>
<path fill-rule="evenodd" clip-rule="evenodd" d="M75.6133 17.5506C76.5029 17.0772 77.7198 17.8103 77.5764 18.873C77.6153 19.8793 76.4401 20.4519 75.6178 20.0351C74.6579 19.6076 74.6609 17.9843 75.6133 17.5507V17.5506ZM75.7732 17.8682C75.0331 18.1919 75.078 19.5341 75.8778 19.7557C76.6015 20.0915 77.4447 19.3174 77.192 18.5463C77.1173 17.8882 76.3144 17.5767 75.7732 17.8684V17.8682Z" fill="#C7C7C7"/>
<path fill-rule="evenodd" clip-rule="evenodd" d="M79.5205 17.578C80.2173 17.1826 81.231 17.5215 81.4164 18.3568C81.3312 18.3568 81.1622 18.3597 81.0769 18.3614C80.8541 17.9354 80.3967 17.6161 79.9122 17.7872C79.2259 17.949 79.0136 18.8698 79.3695 19.4272C79.6281 19.7585 80.0976 19.9159 80.4938 19.7693C80.9273 19.6869 80.9588 19.0364 81.4506 19.0836C81.3445 20.0395 80.1754 20.4519 79.4338 19.9541C78.6174 19.4456 78.6608 18.0164 79.5204 17.5781L79.5205 17.578Z" fill="#C7C7C7"/>
<path fill-rule="evenodd" clip-rule="evenodd" d="M82.7656 17.5261C82.9256 17.5276 83.0871 17.5276 83.2501 17.5292C83.5789 18.23 83.9169 18.9264 84.2562 19.6227C84.5882 18.9219 84.935 18.2302 85.2669 17.5307C85.382 17.5276 85.6093 17.5215 85.7229 17.5186C85.7229 18.3722 85.7274 19.2256 85.7215 20.0794C85.6363 20.0717 85.4658 20.0549 85.3806 20.0472C85.3881 19.3509 85.3986 18.6562 85.3806 17.9613C85.0726 18.6485 84.79 19.3524 84.4057 19.9999C84.331 20.0014 84.1799 20.0045 84.1037 20.006C83.7196 19.354 83.4428 18.6409 83.1094 17.9613C83.1079 18.6667 83.1139 19.3722 83.1064 20.0763C83.0227 20.0717 82.8537 20.0625 82.7685 20.0579C82.7671 19.2135 82.773 18.3691 82.7656 17.5261Z" fill="#C7C7C7"/>
<path fill-rule="evenodd" clip-rule="evenodd" d="M87.4043 19.6226C86.857 18.8453 87.2831 17.491 88.2953 17.4329C89.152 17.2526 89.9295 18.0147 89.8474 18.8911C89.0669 18.8835 88.2865 18.8804 87.5074 18.8972C87.6076 19.2468 87.7407 19.6638 88.1369 19.7583C88.6244 19.9721 89.1027 19.6712 89.4092 19.2971C89.502 19.2774 89.6844 19.2375 89.7755 19.2178C89.5438 20.2912 87.9755 20.4821 87.4043 19.6224V19.6226ZM87.5105 18.546C88.1669 18.5979 88.8262 18.5964 89.4825 18.5475C89.333 17.4953 87.6719 17.5015 87.5105 18.546Z" fill="#C7C7C7"/>
<path fill-rule="evenodd" clip-rule="evenodd" d="M90.957 17.5202C91.7748 17.54 92.5971 17.4668 93.412 17.5783C93.2042 18.0151 92.663 17.7767 92.2953 17.8394C92.3027 18.5755 92.2953 19.3129 92.2998 20.0505C92.2191 20.0565 92.0545 20.0688 91.9738 20.0749C91.9693 19.3267 91.9678 18.5785 91.9693 17.8302C91.6329 17.8286 91.2965 17.8286 90.9631 17.8302C90.9617 17.7523 90.9586 17.5981 90.9572 17.5202H90.957Z" fill="#C7C7C7"/>
<path fill-rule="evenodd" clip-rule="evenodd" d="M94.5898 17.5203C94.6736 17.5219 94.8425 17.5234 94.9263 17.5249C94.9293 18.2302 94.9233 18.9358 94.9308 19.6413C95.4346 18.9389 95.9699 18.2624 96.4558 17.5478C96.6098 17.5355 96.7637 17.5234 96.9208 17.5127C96.9148 18.3632 96.9163 19.2153 96.9193 20.0658C96.8327 20.0643 96.6576 20.0614 96.571 20.0582C96.5725 19.3527 96.5755 18.6458 96.5695 17.9388C96.0836 18.5984 95.6097 19.2673 95.1133 19.9177C94.9997 20.098 94.7634 20.046 94.5916 20.0949C94.5946 19.2367 94.5975 18.3785 94.5901 17.5204L94.5898 17.5203Z" fill="#C7C7C7"/>
<path fill-rule="evenodd" clip-rule="evenodd" d="M98.5042 17.5277C98.5879 17.5262 98.7538 17.5231 98.8375 17.5231C98.839 17.9094 98.839 18.2973 98.842 18.6866C99.4625 18.2851 99.932 17.4453 100.747 17.517C100.4 17.8468 100.026 18.1431 99.6433 18.4256C100.066 18.9997 100.554 19.522 100.966 20.1067C100.739 20.0626 100.463 20.0884 100.325 19.861C99.9976 19.4731 99.6925 19.0684 99.3591 18.6868C99.1902 18.812 99.0213 18.9373 98.8524 19.0609C98.8419 19.3968 98.8402 19.7326 98.8402 20.0686C98.7566 20.0672 98.5876 20.0626 98.5039 20.0595C98.5068 19.215 98.5099 18.3721 98.5039 17.5277H98.5042Z" fill="#C7C7C7"/>
<path fill-rule="evenodd" clip-rule="evenodd" d="M102.161 18.3473C102.276 17.3366 103.706 17.1701 104.319 17.7762C104.579 18.3779 104.404 19.0726 104.444 19.7125C104.534 19.7246 104.715 19.7507 104.805 19.7629C104.754 20.0926 104.476 20.0697 104.22 20.0575C104.182 19.9797 104.108 19.8223 104.069 19.7445C103.629 20.1399 102.964 20.2483 102.435 19.9888C101.994 19.7612 101.968 19.0344 102.4 18.784C102.88 18.5245 103.455 18.6023 103.966 18.436C104.168 18.3321 104.042 18.0709 104.064 17.8938C103.513 17.6938 102.695 17.651 102.493 18.3564C102.411 18.3534 102.245 18.3488 102.161 18.3472L102.161 18.3473ZM102.64 19.004C102.575 19.0819 102.445 19.2346 102.381 19.3124C102.55 19.9584 103.351 19.8973 103.794 19.5964C104.108 19.4316 104.073 19.0345 104.133 18.7321C103.635 18.8239 103.138 18.9155 102.64 19.004H102.64Z" fill="#C7C7C7"/>
<path fill-rule="evenodd" clip-rule="evenodd" d="M0.0078125 0.309483C2.02627 0.307861 4.04459 0.307861 6.06305 0.307861C6.069 2.36473 6.06754 4.4216 6.06305 6.47685C4.04618 6.47833 2.02931 6.47833 0.0123103 6.47833C0.0033147 4.4216 0.0123103 2.36473 0.0078125 0.309347V0.309483Z" fill="#C7C7C7"/>
<path fill-rule="evenodd" clip-rule="evenodd" d="M7.43418 0.304443C9.44669 0.309037 11.4605 0.310523 13.4745 0.304443C13.4864 2.36131 13.4849 4.41818 13.4761 6.47505C11.4606 6.48424 9.44523 6.48262 7.42969 6.47654C7.43564 4.41818 7.42969 2.36131 7.43418 0.304443Z" fill="#C7C7C7"/>
<path fill-rule="evenodd" clip-rule="evenodd" d="M7.43706 7.90454C9.45248 7.90454 11.4679 7.89684 13.4833 7.90751C13.4698 9.96587 13.4788 12.0257 13.4773 14.0841C11.4634 14.0887 9.44957 14.0811 7.43561 14.0872C7.4237 12.0257 7.42079 9.96438 7.4372 7.90454H7.43706Z" fill="#C7C7C7"/>
</svg>
