<svg width="97" height="29" viewBox="0 0 97 29" fill="none" xmlns="http://www.w3.org/2000/svg">
<path d="M38.3985 13.1021C38.1263 13.324 37.8131 13.4341 37.4591 13.4341H36.1799V10.5578H37.4434C37.8651 10.5578 38.1971 10.6648 38.4409 10.882C38.6848 11.0991 38.8076 11.4563 38.8076 11.9551C38.8076 12.4979 38.6722 12.8787 38.4 13.1021H38.3985ZM17.5235 4.74395C18.3039 4.75968 18.9632 5.24273 19.2464 5.92089L24.6481 4.63853C22.247 1.98255 18.8515 0.243885 15.05 0.00472035L17.0436 4.80059C17.1994 4.7644 17.3583 4.73923 17.5235 4.74238V4.74395ZM16.2805 5.17822L13.3192 0C9.46745 0.22343 6.02788 1.98569 3.60949 4.68573L15.6495 6.12701C15.7597 5.74781 15.9815 5.42053 16.2805 5.17822ZM18.0868 8.46516L20.9867 26.5126C24.2107 24.7299 26.6621 21.7262 27.721 18.1246L18.5415 8.24802C18.4015 8.34085 18.2489 8.41166 18.0868 8.46516ZM17.0043 8.50607L8.76569 27.2097C10.4257 27.8941 12.243 28.2733 14.15 28.2733C16.0161 28.2733 17.7973 27.9083 19.429 27.2506L17.3803 8.56271C17.2513 8.55484 17.1254 8.53596 17.0043 8.50607ZM16.0775 7.95221L0.586897 18.156C1.6474 21.7278 4.07838 24.7079 7.27091 26.489L16.3639 8.21026C16.26 8.13473 16.164 8.04819 16.0775 7.95378V7.95221ZM19.0639 7.72878L28.1286 16.3214C28.2403 15.6055 28.2985 14.8707 28.2985 14.1233C28.2985 11.0865 27.3387 8.27634 25.7117 5.97281L19.3896 6.73594C19.3739 7.10412 19.2559 7.44399 19.0639 7.72878ZM15.5882 6.86338L2.44357 6.17264C0.90316 8.43841 0 11.1746 0 14.1233C0 14.9179 0.0692318 15.6983 0.195108 16.4583L15.6983 7.34486C15.6401 7.19381 15.607 7.03174 15.5882 6.86496V6.86338ZM94.8208 8.32669L91.5134 15.0453H91.4803V8.32669H89.0856V19.8978H91.3466L94.5722 13.5977H94.5895V19.8978H97V8.32669H94.8208ZM79.7739 10.5201H82.2505V19.8978H84.6453V10.5201H87.1219V8.32669H79.7723V10.5201H79.7739ZM71.71 19.8978H78.4443V17.6211H74.122V15.1602H77.8464V12.9479H74.122V10.5547H78.4443V8.32669H71.71V19.8978ZM64.5445 11.428C64.5885 11.2785 64.6609 11.14 64.76 11.0126C64.8592 10.8867 64.9929 10.7797 65.1597 10.6963C65.3265 10.6129 65.531 10.572 65.7749 10.572C66.0078 10.572 66.2076 10.6161 66.3728 10.7057C66.5396 10.7939 66.6781 10.8993 66.7882 11.0204C66.8983 11.1432 66.9802 11.2785 67.0289 11.428C67.0793 11.5774 67.1139 11.708 67.1375 11.8182L69.4159 11.1369C69.3388 10.7608 69.205 10.3958 69.0162 10.048C68.8274 9.69874 68.5835 9.39034 68.2846 9.12443C67.984 8.85852 67.6253 8.6461 67.2036 8.48561C66.7819 8.32512 66.3052 8.24487 65.7733 8.24487C65.0967 8.24487 64.5224 8.35659 64.052 8.58474C63.5799 8.81131 63.1992 9.1024 62.9049 9.458C62.6107 9.81203 62.3983 10.2085 62.2645 10.646C62.1308 11.0834 62.0647 11.5192 62.0647 11.9519V16.0744C62.0647 16.5967 62.1339 17.0955 62.2724 17.5707C62.4109 18.0475 62.6264 18.4644 62.9207 18.8263C63.2149 19.1866 63.5957 19.4714 64.0677 19.6838C64.5382 19.8947 65.1062 20.0001 65.7718 20.0001C66.7127 20.0001 67.512 19.7452 68.1665 19.2354C68.8211 18.7256 69.2302 18.0223 69.397 17.1238L67.1029 16.4583C67.0588 16.8359 66.9094 17.1317 66.6545 17.3473C66.3996 17.5644 66.1053 17.6714 65.7733 17.6714C65.2966 17.6714 64.9614 17.5282 64.7679 17.2403C64.5744 16.9523 64.4768 16.5842 64.4768 16.1436V11.8528C64.4768 11.7206 64.4988 11.579 64.5429 11.4295L64.5445 11.428ZM55.1667 11.428C55.2108 11.2785 55.2831 11.14 55.3823 11.0126C55.4814 10.8867 55.6151 10.7797 55.7819 10.6963C55.9487 10.6129 56.1533 10.572 56.3971 10.572C56.63 10.572 56.8298 10.6161 56.9951 10.7057C57.1618 10.7939 57.3003 10.8993 57.4104 11.0204C57.5206 11.1432 57.6024 11.2785 57.6512 11.428C57.7015 11.5774 57.7361 11.708 57.7598 11.8182L60.0381 11.1369C59.961 10.7608 59.8273 10.3958 59.6385 10.048C59.4496 9.69874 59.2058 9.39034 58.9068 9.12443C58.6078 8.85852 58.2475 8.6461 57.8258 8.48561C57.4042 8.32512 56.9274 8.24487 56.3956 8.24487C55.719 8.24487 55.1447 8.35659 54.6742 8.58474C54.2022 8.81131 53.8214 9.1024 53.5272 9.458C53.2329 9.81203 53.0189 10.2085 52.8868 10.646C52.753 11.0834 52.687 11.5192 52.687 11.9519V16.0744C52.687 16.5967 52.7562 17.0955 52.8946 17.5707C53.0331 18.0475 53.2487 18.4644 53.5429 18.8263C53.8371 19.1866 54.2195 19.4714 54.69 19.6838C55.1604 19.8947 55.7284 20.0001 56.394 20.0001C57.3365 20.0001 58.1342 19.7452 58.7888 19.2354C59.4433 18.7256 59.8524 18.0223 60.0192 17.1238L57.7251 16.4583C57.6811 16.8359 57.5316 17.1317 57.2767 17.3473C57.0218 17.5644 56.7276 17.6714 56.3956 17.6714C55.9188 17.6714 55.5837 17.5282 55.3901 17.2403C55.1966 16.9523 55.099 16.5842 55.099 16.1436V11.8528C55.099 11.7206 55.1211 11.579 55.1651 11.4295L55.1667 11.428ZM47.9336 16.4237C47.9336 16.8123 47.8093 17.116 47.5591 17.3378C47.3105 17.5613 47.0131 17.6698 46.6701 17.6698C46.1933 17.6698 45.8519 17.5266 45.6473 17.2387C45.4428 16.9508 45.3389 16.5826 45.3389 16.142V11.8512C45.3389 11.719 45.3641 11.5774 45.4145 11.428C45.4648 11.2785 45.5419 11.14 45.6473 11.0126C45.7528 10.8867 45.8881 10.7797 46.0549 10.6963C46.2216 10.6129 46.4262 10.572 46.6701 10.572C46.914 10.572 47.1154 10.6192 47.2759 10.7136C47.4364 10.808 47.5669 10.9213 47.6661 11.0535C47.7652 11.1872 47.8344 11.3273 47.8738 11.4689C47.9131 11.6136 47.932 11.7427 47.932 11.8512V16.4237H47.9336ZM49.4645 9.41552C49.1656 9.06621 48.7817 8.78299 48.3159 8.569C47.8502 8.35187 47.301 8.24487 46.6701 8.24487C45.9935 8.24487 45.4192 8.35659 44.9487 8.58474C44.4767 8.81131 44.0928 9.1024 43.7938 9.458C43.4949 9.81203 43.2777 10.2085 43.1456 10.646C43.0134 11.0834 42.9457 11.5192 42.9457 11.9519V16.0744C42.9457 16.5967 43.015 17.0955 43.1534 17.5707C43.2919 18.0475 43.5106 18.4644 43.8096 18.8263C44.1085 19.1866 44.494 19.4714 44.9645 19.6838C45.4349 19.8947 46.0029 20.0001 46.6685 20.0001C47.2113 20.0001 47.707 19.9136 48.1554 19.7421C48.6054 19.5706 48.9925 19.3204 49.3198 18.9947C49.6455 18.6674 49.9019 18.274 50.0845 17.813C50.267 17.3536 50.3582 16.8359 50.3582 16.2584V11.9519C50.3582 11.4972 50.2827 11.0488 50.1332 10.605C49.9838 10.1629 49.7603 9.76482 49.4598 9.41552H49.4645ZM40.1277 9.20782C39.8004 8.90887 39.407 8.68701 38.946 8.54383C38.4866 8.39907 37.9846 8.32669 37.4418 8.32669H33.7678V19.8978H36.1799V15.6763H37.5755C38.1294 15.6763 38.6282 15.5882 39.0719 15.4104C39.514 15.2326 39.8917 14.984 40.2016 14.663C40.5116 14.342 40.7508 13.9533 40.916 13.4986C41.0812 13.0439 41.1662 12.5404 41.1662 11.985C41.1662 11.3509 41.0749 10.8064 40.8924 10.347C40.7099 9.88598 40.4534 9.50678 40.1277 9.20782Z" fill="#C7C7C7"/>
</svg>
