<svg width="91" height="26" viewBox="0 0 91 26" fill="none" xmlns="http://www.w3.org/2000/svg">
<path fill-rule="evenodd" clip-rule="evenodd" d="M34.0609 10.9703C40.2613 8.60703 39.4514 14.9874 38.6601 16.1131C37.7136 17.4597 35.6121 17.5006 34.7101 16.2377C33.8628 15.0514 33.9768 12.6413 34.061 10.9703H34.0609ZM43.9723 13.0397C43.6182 8.50931 40.6932 6.62791 37.0711 7.32041C35.5282 7.61538 35.0519 8.26389 34.307 8.64918C34.4544 6.74923 35.589 5.79489 37.3487 5.39143C39.1018 4.98943 41.1265 5.2133 42.6453 4.32662C45.232 3.28556 43.5426 -0.677733 41.5841 0.10053C41.2659 0.226978 40.9954 0.647373 40.2824 0.877766C38.7831 1.36216 37.0879 1.26364 35.3329 1.85065C31.2951 3.20134 29.3878 6.6856 29.3293 11.8789C29.2728 16.919 31.1673 20.9128 36.101 21.1509C41.2315 21.3985 44.4232 18.2411 43.9722 13.0397H43.9723Z" fill="#C7C7C7"/>
<path fill-rule="evenodd" clip-rule="evenodd" d="M55.0914 15.0991C54.121 18.6765 49.2284 17.4991 50.4803 12.3664C51.3883 8.64358 56.396 10.2892 55.0914 15.0991ZM46.4555 25.77C47.9494 26.1866 49.8809 26.133 50.2903 24.7981C50.5039 24.1013 50.3877 20.5462 50.3881 19.5606C50.8971 19.8766 51.0923 20.172 51.7841 20.5223C54.6861 21.9913 57.3453 20.2132 57.7027 20.165C57.8588 19.9205 57.7204 20.1082 57.8994 19.9218C59.1666 18.603 59.7462 17.7584 60.0447 15.4852C60.5226 11.8466 59.7525 6.93275 55.3475 6.26825C52.7565 5.87747 51.5236 6.79186 50.4281 8.24312C50.2585 7.16725 50.0239 6.50927 48.963 6.34683C44.5515 5.67127 45.545 8.59622 45.545 13.0402L45.5446 23.2063C45.54 24.7073 45.4686 24.9941 46.4556 25.7701L46.4555 25.77Z" fill="#C7C7C7"/>
<path fill-rule="evenodd" clip-rule="evenodd" d="M70.845 20.1866C71.5479 20.5988 71.0196 20.996 73.0285 20.9938C74.0573 20.993 74.8921 21.0379 75.4136 20.3102C76.2498 19.143 75.2387 15.9907 75.7554 14.4988C75.5852 14.1458 75.6379 14.0509 75.6274 12.9119L75.5562 8.27166C75.4735 5.23382 71.6262 6.48071 71.4578 6.58114C70.6423 7.06766 67.5827 12.9014 66.5098 14.1706C66.3158 12.7707 66.4646 10.188 66.4676 8.66376C66.4717 6.4047 65.6073 6.20084 63.3707 6.31256C61.3083 6.41547 61.6259 8.28574 61.6261 9.95215C61.6261 11.7538 61.6261 13.5552 61.6261 15.3567C61.6261 16.7937 61.3247 19.5468 62.034 20.4332C62.7092 21.2767 65.5524 21.2357 66.2525 20.4172C67.1565 19.3604 70.0946 14.4511 70.6849 14.0473C70.7649 16.0791 70.5456 18.2346 70.845 20.1866V20.1866Z" fill="#C7C7C7"/>
<path fill-rule="evenodd" clip-rule="evenodd" d="M23.2257 14.6134C23.4868 17.9935 20.4726 18.0201 19.5193 17.1416C18.652 16.3426 19.1105 15.2002 19.893 14.8532C20.7947 14.4533 22.1998 14.5857 23.2257 14.6133V14.6134ZM15.4671 10.0805L15.4748 10.32L15.9738 10.9126C16.7816 11.7736 16.9071 11.0529 18.161 10.6664C19.7596 10.1736 23.4348 10.1983 23.1513 12.0537C21.2004 12.187 18.9239 11.8666 17.1891 12.6627C12.5141 14.8081 14.238 21.9031 20.2123 21.0814C21.5424 20.8986 21.7025 20.5183 22.6274 20.0623C22.6992 19.8542 22.5842 20.0928 22.7388 19.8567L23.364 19.1059C23.5471 19.4891 23.6507 19.6791 23.6854 20.0293C24.1877 20.3259 24.2073 20.6214 24.7923 20.8759C26.1161 21.4516 28.5206 21.0196 28.7638 18.9601C27.2515 17.5348 27.657 15.3741 27.6487 12.6547C27.6409 10.067 27.0762 8.41669 25.5282 7.27528C23.4091 5.71245 18.3924 5.80987 16.4918 7.32513C15.6255 8.01557 15.3096 8.59951 15.4673 10.0806L15.4671 10.0805Z" fill="#C7C7C7"/>
<path fill-rule="evenodd" clip-rule="evenodd" d="M1.48697 5.72898L5.39785 5.76013C5.55729 7.04397 5.36413 16.6969 5.43209 19.0949C5.48054 20.8061 6.41252 20.993 8.05048 20.9913C11.3505 20.9878 10.6601 19.7593 10.6601 14.7133L10.6964 5.77347L15.0262 5.75749C15.8749 4.83086 16.115 5.15714 16.0955 3.38671C16.0829 2.24318 15.7179 1.53206 14.7154 1.36412C13.9804 1.24105 1.87012 1.25395 1.27102 1.38465C0.296373 1.59694 0.00162004 2.29486 7.36932e-06 3.51807C-0.00182522 4.84186 0.337716 5.50496 1.48719 5.72898H1.48697Z" fill="#C7C7C7"/>
<path fill-rule="evenodd" clip-rule="evenodd" d="M79.4301 7.82245C79.2909 8.29211 78.4339 8.53834 77.6818 10.4896C77.2055 11.7256 77.0561 13.1318 77.153 14.5837C77.3469 17.4844 78.7592 19.21 80.6034 20.2707C84.0558 22.2567 89.9676 21.197 90.0209 18.0584C90.0434 16.7356 88.9284 16.0341 87.6472 15.9037C84.4894 18.3419 81.828 16.3945 81.8526 13.6817C81.8672 12.0851 82.7359 11.0316 83.8808 10.6446C84.5398 10.422 85.434 10.4732 86.0323 10.7119C86.8405 11.0345 87.6427 12.5935 89.2971 11.0331C91.1874 9.24996 88.6341 5.11316 82.9408 6.23206C81.0828 6.59711 80.7296 7.16829 79.43 7.82245H79.4301Z" fill="#C7C7C7"/>
</svg>
