<svg width="130" height="32" viewBox="0 0 130 32" fill="none" xmlns="http://www.w3.org/2000/svg">
<path fill-rule="evenodd" clip-rule="evenodd" d="M125.066 15.0723C125.069 15.6821 125.061 16.2926 125.07 16.9027C125.626 16.9171 126.184 16.9004 126.741 16.908C126.997 16.911 127.281 16.8834 127.474 16.6941C127.694 16.4909 127.747 16.1689 127.73 15.8834C127.715 15.6047 127.589 15.3116 127.333 15.1754C127.071 15.0325 126.763 15.0727 126.477 15.067C126.007 15.0704 125.536 15.0598 125.066 15.0723H125.066ZM122.78 11.5984C122.76 11.3587 122.979 11.1487 123.216 11.1691C123.695 11.1691 124.173 11.1683 124.651 11.1695C124.793 11.165 124.934 11.2374 125.008 11.3595C125.089 11.4857 125.06 11.6431 125.066 11.7856C125.07 12.378 125.058 12.9706 125.072 13.5626C125.527 13.5603 125.982 13.5622 126.438 13.5615C126.932 13.5634 127.429 13.5471 127.919 13.6191C128.445 13.6946 128.982 13.8633 129.377 14.2327C129.76 14.5785 129.944 15.089 130.002 15.5914V16.4014C129.935 16.8909 129.759 17.3892 129.386 17.7297C128.886 18.1988 128.181 18.3467 127.518 18.3937C126.97 18.4199 126.42 18.4021 125.871 18.4074C124.973 18.4063 124.075 18.4093 123.177 18.4059C122.964 18.4082 122.774 18.2189 122.782 18.0046C122.778 15.8693 122.781 13.7337 122.78 11.5984H122.78ZM114.516 11.5631C114.512 11.3504 114.701 11.1665 114.913 11.1702C117.085 11.1676 119.258 11.1691 121.431 11.1695C121.64 11.163 121.832 11.3454 121.832 11.5559C121.835 11.797 121.831 12.0386 121.834 12.2801C121.841 12.4098 121.817 12.5494 121.72 12.6438C121.629 12.744 121.488 12.769 121.359 12.7633C120.763 12.7621 120.167 12.7633 119.571 12.7625C119.486 12.7644 119.399 12.7526 119.317 12.7761C119.32 14.5186 119.319 16.2611 119.318 18.0031C119.323 18.2125 119.144 18.4028 118.935 18.4055C118.452 18.4096 117.969 18.4058 117.486 18.4078C117.35 18.4153 117.204 18.3702 117.12 18.2572C117.009 18.1237 117.032 17.9402 117.03 17.7794C117.029 16.1079 117.032 14.4363 117.028 12.7652C116.323 12.7587 115.617 12.7663 114.912 12.7613C114.709 12.7674 114.525 12.596 114.518 12.3943C114.511 12.1171 114.515 11.8399 114.516 11.5631H114.516ZM87.0067 11.5578C87.0044 11.3428 87.2039 11.1619 87.4163 11.1691C87.9089 11.1668 88.4015 11.1676 88.894 11.1691C89.1041 11.1645 89.2926 11.35 89.291 11.5604C89.2929 12.353 89.2941 13.1455 89.2903 13.9385C90.2561 13.9433 91.222 13.9392 92.1878 13.9404C92.1882 13.1474 92.1855 12.3545 92.1893 11.5616C92.1878 11.3538 92.371 11.1703 92.5784 11.1699C93.0816 11.1669 93.5848 11.1665 94.0876 11.1699C94.3114 11.1684 94.4922 11.3811 94.4755 11.6007C94.4744 13.7353 94.4774 15.8702 94.474 18.0051C94.479 18.2122 94.3034 18.4029 94.0948 18.4056C93.5871 18.4086 93.079 18.4082 92.5716 18.4059C92.3612 18.4021 92.1829 18.2114 92.189 18.0017C92.1871 17.1833 92.1856 16.3647 92.1897 15.5463C91.5853 15.5278 90.9805 15.5433 90.3757 15.5384C90.0132 15.5463 89.6491 15.521 89.2881 15.552C89.2976 16.3692 89.2907 17.1872 89.2915 18.0047C89.298 18.219 89.1106 18.4079 88.8979 18.4063C88.403 18.4074 87.9082 18.4086 87.4137 18.4055C87.2408 18.4119 87.0743 18.2917 87.0243 18.1268C87.0026 18.0517 87.0057 17.9729 87.0049 17.8962C87.0065 15.7833 87.003 13.6703 87.0068 11.5578L87.0067 11.5578ZM69.512 11.598C69.495 11.3792 69.6778 11.1718 69.8988 11.1706C70.3918 11.1649 70.8848 11.1695 71.3777 11.1683C71.5931 11.1561 71.7983 11.3378 71.7979 11.5566C71.8028 12.3515 71.7979 13.1463 71.8009 13.9411C72.7629 13.9411 73.7249 13.9381 74.687 13.9426C74.7052 13.1493 74.6874 12.3541 74.6957 11.56C74.6939 11.3489 74.8842 11.1645 75.095 11.1699C75.5868 11.1665 76.0791 11.168 76.5713 11.1691C76.7996 11.1584 77.0017 11.3697 76.9797 11.5976C76.9801 13.7352 76.9823 15.8731 76.9786 18.0107C76.9869 18.2265 76.7882 18.4165 76.5739 18.4058C76.0784 18.4078 75.5823 18.4085 75.0867 18.4055C74.8762 18.4085 74.6904 18.2181 74.6953 18.0084C74.69 17.1863 74.7007 16.3638 74.6904 15.5421C73.7272 15.5346 72.7641 15.5383 71.8012 15.5402C71.7974 16.3612 71.8023 17.1825 71.7986 18.0035C71.7986 18.1598 71.7045 18.3148 71.5574 18.3732C71.4642 18.4161 71.3591 18.4047 71.2601 18.4073C70.8051 18.4051 70.35 18.4104 69.895 18.4051C69.686 18.4031 69.5082 18.2128 69.5132 18.005C69.5101 15.8693 69.5124 13.7336 69.512 11.598H69.512ZM99.384 12.5396C99.0067 12.5638 98.6164 12.703 98.3711 13.003C98.1208 13.3018 98.0332 13.6969 98.004 14.0765C98.0208 14.0799 98.0541 14.0863 98.0708 14.0898C99.0703 14.0901 100.07 14.0883 101.069 14.0909C101.071 13.6302 100.934 13.1243 100.559 12.8274C100.229 12.5703 99.7893 12.516 99.3839 12.5395L99.384 12.5396ZM97.8353 11.3193C98.6453 11.017 99.533 10.9856 100.384 11.0902C101.185 11.2047 101.987 11.5263 102.541 12.1349C103.016 12.6507 103.277 13.3325 103.36 14.0223C103.411 14.3753 103.407 14.7329 103.405 15.0886C103.412 15.3021 103.217 15.4894 103.006 15.4834C101.345 15.4879 99.6847 15.4796 98.0242 15.4875C98.0538 15.8819 98.1486 16.2979 98.4201 16.5994C98.6241 16.8299 98.9221 16.9535 99.2209 17.0025C99.6074 17.0639 100.009 17.0559 100.388 16.9551C100.623 16.8872 100.858 16.7795 101.017 16.5876C101.186 16.3821 101.443 16.252 101.71 16.2453C102.052 16.2415 102.396 16.2437 102.739 16.2433C102.929 16.2311 103.116 16.3704 103.152 16.5593C103.176 16.7253 103.147 16.8955 103.114 17.0594C103.021 17.4803 102.714 17.8257 102.343 18.0309C101.782 18.346 101.131 18.4484 100.498 18.5061C99.5918 18.5735 98.6486 18.5792 97.7886 18.2463C97.1265 18.0059 96.5452 17.5364 96.1959 16.9221C95.8107 16.2555 95.6862 15.4697 95.6977 14.7087C95.7079 13.9449 95.8679 13.1596 96.296 12.5154C96.6575 11.9594 97.2133 11.5423 97.8353 11.3193L97.8353 11.3193ZM81.5951 11.0546C82.4131 11.0072 83.2458 11.0444 84.0391 11.2624C84.5143 11.3993 84.9848 11.6124 85.3318 11.9742C85.6981 12.342 85.876 12.8714 85.8525 13.3856C85.8354 13.5865 85.6454 13.7465 85.4452 13.7375C85.1172 13.7383 84.7888 13.739 84.4608 13.7371C84.2754 13.7375 84.0907 13.6707 83.953 13.546C83.769 13.3965 83.6815 13.1633 83.498 13.014C83.1984 12.7606 82.8017 12.6491 82.4153 12.6344C82.0551 12.6199 81.68 12.6491 81.3516 12.8107C81.07 12.9483 80.8576 13.2051 80.7461 13.4956C80.5667 13.9529 80.5515 14.4526 80.5576 14.9381C80.5664 15.3669 80.6081 15.811 80.8018 16.2012C80.9388 16.4811 81.1855 16.7017 81.4775 16.8102C81.8405 16.9448 82.2368 16.9638 82.619 16.9319C83.0316 16.8906 83.4608 16.7329 83.7214 16.3954C83.845 16.2206 83.9689 16.0325 84.1646 15.9309C84.2989 15.852 84.4578 15.8357 84.611 15.8376C84.9139 15.8395 85.2169 15.8357 85.5195 15.8395C85.6678 15.8384 85.8157 15.921 85.8805 16.0568C85.9397 16.1664 85.9204 16.2938 85.9162 16.4132C85.8904 16.8774 85.6894 17.3302 85.3519 17.6518C84.8241 18.1508 84.0967 18.3563 83.3956 18.4632C82.5287 18.5748 81.6361 18.5876 80.7806 18.3878C80.1159 18.2281 79.4711 17.9061 79.0218 17.3803C78.486 16.7739 78.2589 15.9571 78.2145 15.1634C78.1694 14.3284 78.26 13.454 78.6677 12.71C79.0018 12.0858 79.5766 11.6031 80.2375 11.3559C80.6695 11.1806 81.1325 11.0961 81.5951 11.0547V11.0546ZM62.7998 15.6847C62.476 15.9781 62.507 16.5652 62.8635 16.82C63.1156 17.0123 63.4478 17.0498 63.7557 17.0376C64.4107 17.0164 65.05 16.7954 65.6013 16.4457C65.596 16.1021 65.6184 15.7551 65.5904 15.4135C64.9271 15.4234 64.2639 15.4147 63.601 15.4181C63.3162 15.4207 63.0114 15.4802 62.7998 15.6847ZM62.7657 11.1592C63.3417 11.0557 63.9283 11.0307 64.5123 11.0363C65.2236 11.0451 65.9517 11.165 66.5827 11.5089C66.9855 11.7322 67.3362 12.061 67.5535 12.4701C67.8163 12.9286 67.8845 13.4678 67.891 13.9881C67.8906 15.3154 67.8917 16.6422 67.8906 17.9694C67.9083 18.1863 67.7343 18.3983 67.514 18.4052C67.0817 18.4101 66.649 18.4071 66.2171 18.4066C66.0287 18.4157 65.8467 18.2728 65.8148 18.0866C65.8023 17.9952 65.8083 17.9031 65.8026 17.8117C65.4557 18.0286 65.0973 18.2375 64.7014 18.3536C64.0678 18.5534 63.3901 18.5792 62.7341 18.5011C62.1627 18.426 61.5889 18.2546 61.1214 17.9068C60.7486 17.6346 60.4665 17.2357 60.3542 16.7859C60.2044 16.1807 60.2878 15.4974 60.6644 14.9889C60.9985 14.5353 61.5138 14.2487 62.0478 14.097C62.6128 13.9245 63.2089 13.9089 63.7952 13.9169C64.3954 13.9169 64.9953 13.9165 65.5957 13.9173C65.61 13.5176 65.5418 13.0584 65.2157 12.7876C64.9123 12.5487 64.5042 12.5351 64.1353 12.5373C63.703 12.5643 63.2226 12.6625 62.9348 13.0151C62.7633 13.2184 62.5005 13.3322 62.2362 13.3317C61.8938 13.3337 61.551 13.334 61.209 13.3314C61.0194 13.3374 60.8457 13.1812 60.818 12.9965C60.7911 12.5608 60.9417 12.1043 61.2686 11.8054C61.6747 11.4228 62.2298 11.2594 62.7656 11.1593L62.7657 11.1592ZM54.0261 13.2172C54.0129 14.3684 54.0258 15.5205 54.0197 16.6721C54.5202 16.8261 55.0386 16.955 55.5657 16.944C55.9528 16.933 56.3659 16.8348 56.6411 16.5447C56.9566 16.2178 57.0525 15.7491 57.0962 15.3127C57.1281 14.8439 57.1307 14.3696 57.0492 13.9058C56.9805 13.541 56.8451 13.1618 56.5491 12.9195C56.2365 12.6613 55.8062 12.604 55.4141 12.6415C54.9105 12.7117 54.46 12.9669 54.0262 13.2172L54.0261 13.2172ZM54.0177 11.6442C54.6017 11.2707 55.2877 11.0546 55.9817 11.0394C56.566 11.0162 57.1621 11.1145 57.69 11.3727C58.1629 11.6018 58.569 11.9639 58.8535 12.4053C59.2084 12.9434 59.3809 13.5819 59.4446 14.2179C59.495 14.8114 59.4734 15.4143 59.3388 15.996C59.186 16.6311 58.8852 17.2504 58.3896 17.6884C57.9653 18.085 57.4184 18.3345 56.8523 18.4494C55.9108 18.6474 54.929 18.5173 54.0261 18.2071C54.0129 18.8847 54.0261 19.5636 54.0197 20.2416C54.0223 20.4353 53.863 20.6272 53.6636 20.6303C53.1597 20.6184 52.6553 20.6268 52.1513 20.6261C51.9155 20.6689 51.713 20.4319 51.7372 20.2063C51.7338 17.3369 51.7372 14.4675 51.7372 11.598C51.7175 11.3822 51.8938 11.1755 52.1119 11.171C52.5419 11.1645 52.972 11.1691 53.4019 11.1687C53.5498 11.1657 53.7016 11.2461 53.7686 11.3807C53.8331 11.496 53.8096 11.6332 53.8198 11.7595C53.8912 11.7307 53.9549 11.6874 54.0177 11.6442V11.6442ZM110.332 12.6271C110.338 14.0727 110.332 15.5182 110.336 16.9633C110.811 16.9584 111.327 16.8287 111.642 16.4476C111.942 16.0896 112.043 15.6134 112.079 15.1591C112.106 14.6904 112.098 14.2111 111.968 13.7564C111.875 13.431 111.701 13.1156 111.419 12.9172C111.107 12.6965 110.711 12.6082 110.332 12.6271H110.332ZM107.217 12.8118C106.955 12.9423 106.745 13.1679 106.619 13.4311C106.436 13.8031 106.386 14.2232 106.371 14.6328C106.363 15.0002 106.384 15.3711 106.472 15.7287C106.555 16.0601 106.714 16.3851 106.982 16.6062C107.299 16.8698 107.723 16.96 108.127 16.9596C108.13 15.5149 108.128 14.0704 108.128 12.6257C107.816 12.6139 107.497 12.67 107.217 12.8119V12.8118ZM108.092 9.31667C108.092 9.10356 108.289 8.92646 108.5 8.93519C108.993 8.93407 109.486 8.93174 109.979 8.93631C110.186 8.93291 110.372 9.11184 110.374 9.31931C110.38 9.93471 110.373 10.5502 110.377 11.1657C110.869 11.1911 111.365 11.2336 111.843 11.3629C112.496 11.5301 113.13 11.8448 113.581 12.3564C114.047 12.8732 114.282 13.5596 114.349 14.2437C114.413 14.9551 114.366 15.6926 114.101 16.3623C113.841 17.0282 113.321 17.5845 112.679 17.8974C111.97 18.2602 111.166 18.3793 110.378 18.4081C110.37 19.0315 110.384 19.6557 110.372 20.2791C110.364 20.4805 110.184 20.6067 110.008 20.6607H108.45C108.355 20.6125 108.244 20.5822 108.178 20.4934C108.109 20.4134 108.087 20.3065 108.09 20.2044C108.087 19.6053 108.091 19.0065 108.088 18.4074C107.626 18.3907 107.164 18.3441 106.713 18.236C106.031 18.0691 105.36 17.7548 104.889 17.2205C104.435 16.7199 104.195 16.0586 104.121 15.3942C104.04 14.6737 104.086 13.9248 104.343 13.2425C104.599 12.5645 105.122 11.9962 105.772 11.6795C106.484 11.3162 107.291 11.1967 108.082 11.1691C108.101 10.5521 108.08 9.934 108.092 9.31667H108.092ZM42.2401 9.515C42.2436 9.19415 42.5416 8.92686 42.859 8.93519C45.6412 8.93326 48.4238 8.93407 51.2061 8.93443C51.415 8.92534 51.6315 9.01557 51.7525 9.18993C51.8993 9.37958 51.8681 9.63021 51.8697 9.85398C51.8632 10.0462 51.8969 10.2491 51.8177 10.4314C51.7249 10.6579 51.4844 10.8068 51.241 10.802C50.2584 10.8095 49.2763 10.7989 48.2942 10.8068C48.3017 13.0795 48.2949 15.352 48.2976 17.6246C48.298 17.7641 48.3039 17.9109 48.2429 18.0406C48.1439 18.2727 47.8899 18.4194 47.64 18.4069C47.227 18.4061 46.8137 18.4099 46.4003 18.4054C46.075 18.3974 45.7929 18.102 45.8073 17.7751C45.8081 15.4529 45.805 13.1306 45.8088 10.8084C44.8134 10.7955 43.8168 10.8133 42.8214 10.7993C42.5165 10.7936 42.2549 10.5293 42.2344 10.2301C42.2469 9.99204 42.2567 9.75309 42.2401 9.51495L42.2401 9.515Z" fill="#C7C7C7"/>
<path fill-rule="evenodd" clip-rule="evenodd" d="M31.4606 10.4503C32.9424 10.3091 34.4346 10.4592 35.8975 10.7044C35.8897 10.7278 35.8736 10.7739 35.8658 10.7967C34.6226 12.4953 33.3715 14.1889 32.0804 15.852C31.8697 16.1311 31.6473 16.4013 31.4449 16.686C30.7689 16.7799 30.076 16.9323 29.5033 17.3215C29.2998 17.4638 29.0535 17.5345 28.8661 17.7001C28.8155 17.7469 28.7455 17.7602 28.6848 17.783C28.284 18.0888 27.8352 18.3279 27.4433 18.6459C27.0335 18.879 26.7093 19.2259 26.3302 19.5006C26.0293 19.7736 25.7402 20.0599 25.4466 20.3402C25.2097 20.5892 24.9129 20.7699 24.6727 21.0152C24.3057 21.3749 23.8803 21.6646 23.5011 22.0115C23.2676 22.2017 23.0507 22.4124 22.7927 22.5703C22.4936 22.8578 22.1116 23.0335 21.7869 23.2887C20.7739 23.9059 19.6797 24.428 18.5064 24.6465C18.2552 24.7383 17.985 24.6816 17.7269 24.7277C17.3422 24.8133 16.9446 24.7427 16.5566 24.7733C16.5288 24.7877 16.4737 24.8167 16.4465 24.8306C15.6002 24.5086 14.8157 24.0083 14.0339 23.5445C13.6886 23.3249 13.3455 23.1014 13.0075 22.8712C14.5222 23.1997 16.1223 23.1953 17.6124 22.7477C18.5772 22.4497 19.3867 21.802 20.0733 21.0802C20.8083 20.3118 21.4834 19.4894 22.1811 18.6877C22.919 17.8275 23.6691 16.9779 24.3825 16.0973C25.7341 14.4798 26.9957 12.7478 28.6698 11.4401C29.446 10.7867 30.4741 10.551 31.4605 10.4504L31.4606 10.4503ZM1.56157 9.13033C2.09761 8.48091 2.87981 8.05226 3.71055 7.92492C4.85646 7.74146 6.03131 7.98326 7.09496 8.41648L7.09887 8.45364C6.62183 8.59764 6.20816 8.91408 5.92514 9.32272C5.13116 10.4403 4.6758 11.8032 4.69804 13.1781C4.70027 14.1311 4.94542 15.0608 5.26236 15.9526C6.16642 18.5258 7.83831 20.7899 9.90112 22.5569C11.6759 24.0782 13.7454 25.2463 15.9484 26.0225C18.4126 26.8888 21.0692 27.2457 23.6708 26.9561C25.0235 26.806 26.358 26.474 27.6151 25.9492C27.7848 25.8752 27.9498 25.7874 28.1295 25.7362C27.564 26.4812 26.884 27.1374 26.1862 27.759C25.3594 28.4768 24.4364 29.074 23.4829 29.6083C22.3637 30.2171 21.1831 30.722 19.9532 31.0589C17.3389 31.7951 14.5349 31.7785 11.9088 31.1079C10.0362 30.6558 8.26534 29.8168 6.69124 28.7115C6.29818 28.4457 5.94621 28.1254 5.58702 27.8162C4.35708 26.7187 3.2651 25.4604 2.39546 24.0576C0.222569 20.5764 -0.545311 16.2279 0.394394 12.2246C0.587342 11.3622 0.86087 10.5193 1.19452 9.70141C1.26682 9.48287 1.42245 9.30886 1.56147 9.13038L1.56157 9.13033ZM32.3058 5.07757e-05H33.9488C34.5515 0.053416 35.1536 0.130697 35.7414 0.278048C35.8843 0.318668 36.0455 0.323695 36.1684 0.416615C36.0294 0.59895 35.9126 0.796874 35.7875 0.989263C34.5915 2.84689 33.3949 4.70452 32.199 6.56215C32.2329 6.41312 32.3341 6.29304 32.4041 6.16011C33.2332 4.68619 34.0832 3.22441 34.9056 1.74704C33.6841 1.60583 32.4381 1.68037 31.2382 1.94664C30.1912 2.18899 29.1765 2.60606 28.3025 3.23654C27.5424 3.77644 27.0102 4.55986 26.4792 5.31103C25.871 6.21235 25.3028 7.13921 24.7445 8.07227C23.5486 10.0661 22.3887 12.0822 21.1605 14.0561C20.0418 15.832 18.8881 17.5978 17.498 19.1763C16.7836 19.9665 16.0084 20.7343 15.0576 21.2347C14.5105 21.53 13.885 21.6039 13.2784 21.6773C13.2795 21.5862 13.3757 21.6073 13.4363 21.59C14.1497 21.5054 14.7835 21.1208 15.3284 20.6726C16.1007 20.0377 16.7485 19.2675 17.3551 18.4769C18.1007 17.4794 18.7846 16.4364 19.4213 15.3659C20.5594 13.475 21.6019 11.529 22.6328 9.57843C23.6692 7.64179 24.6644 5.67967 25.8204 3.81036C25.8549 3.75369 25.8409 3.71023 25.7787 3.67971C23.9394 2.42423 21.8159 1.58517 19.6119 1.25883C16.2375 0.741173 12.6878 1.43893 9.77662 3.22542C8.21979 4.16061 6.84758 5.39329 5.71716 6.81278C4.66575 6.64542 3.57209 6.78998 2.59684 7.21421C4.52063 4.25906 7.46973 1.98716 10.8152 0.873494C13.8372 -0.144051 17.1671 -0.203509 20.2296 0.676078C22.2974 1.27269 24.2451 2.29237 25.9015 3.66854C26.288 3.11971 26.6471 2.53873 27.1514 2.08668C28.5682 0.828964 30.4285 0.140039 32.3056 0L32.3058 5.07757e-05Z" fill="#C7C7C7"/>
<path fill-rule="evenodd" clip-rule="evenodd" d="M31.4438 16.6859C33.1814 16.5085 34.9222 17.0173 36.4591 17.8018C35.7479 18.5986 34.9651 19.3353 34.2216 20.1043C32.7888 21.5466 31.3438 22.9805 29.8069 24.3128C28.8912 25.1279 27.743 25.6371 26.5681 25.9519C24.0683 26.5941 21.416 26.3978 18.9429 25.7295C18.2657 25.546 17.5996 25.3236 16.9469 25.0661C16.7801 24.9866 16.5921 24.9449 16.4453 24.8304C16.4726 24.8165 16.5276 24.7876 16.5554 24.7731C16.9435 24.7426 17.341 24.8132 17.7258 24.7275C17.9838 24.6814 18.254 24.7381 18.5053 24.6464C19.6786 24.4278 20.7727 23.9057 21.7858 23.2886C22.1105 23.0333 22.4925 22.8576 22.7916 22.5702C23.0496 22.4123 23.2665 22.2015 23.5 22.0114C23.8792 21.6644 24.3045 21.3748 24.6715 21.015C24.9118 20.7698 25.2086 20.5891 25.4455 20.34C25.7391 20.0598 26.0282 19.7735 26.3291 19.5004C26.7082 19.2257 27.0324 18.8789 27.4422 18.6458C27.8341 18.3278 28.2828 18.0887 28.6837 17.7829C28.7443 17.7601 28.8144 17.7468 28.865 17.7C29.0525 17.5343 29.2987 17.4637 29.5022 17.3214C30.0749 16.9322 30.7677 16.7799 31.4438 16.6858V16.6859Z" fill="#C7C7C7"/>
</svg>
