<svg width="82" height="24" viewBox="0 0 82 24" fill="none" xmlns="http://www.w3.org/2000/svg">
<path d="M77.5964 20.4687C79.1931 20.4687 80.3241 20.1804 81.1668 19.5595V16.7431C80.3019 17.3418 79.2597 17.7188 77.796 17.7188C75.3344 17.7188 74.3143 15.8117 74.3143 12.7957C74.3143 9.62445 75.5562 8.00557 77.8182 8.00557C79.1488 8.00557 80.4572 8.47128 81.1446 8.91481V5.98752C80.4128 5.58834 79.1488 5.30005 77.419 5.30005C73.0059 5.30005 70.7217 8.47128 70.7217 12.9066C70.7439 17.7632 72.9837 20.4687 77.5964 20.4687ZM56.0188 19.1825V16.3661C54.9543 17.0979 53.1358 17.741 51.4726 17.741C48.9445 17.741 47.9909 16.5435 47.8357 14.1041H56.174V12.2856C56.174 7.20722 53.9342 5.30005 50.4968 5.30005C46.2833 5.30005 44.2874 8.51563 44.2874 12.9287C44.2874 18.0071 46.7934 20.4687 51.1843 20.4687C53.3798 20.4687 54.9986 19.87 56.0188 19.1825ZM24.373 5.56617V11.332H19.7603V5.56617H16.3008V20.1804H19.7603V14.0819H24.373V20.1804H27.8325V5.56617H24.373ZM43.4226 17.4306H41.8924V5.56617H31.8243V6.80805C31.8243 10.3784 31.6025 14.9911 30.3828 17.4306H29.274V23.5069H32.4674V20.1804H40.207V23.5069H43.4004V17.4306H43.4226ZM67.0404 20.1804H70.9657L65.4216 12.3078L70.3004 5.56617H66.8187L61.9399 12.3078V5.56617H58.4803V20.1804H61.9399V12.9953L67.0404 20.1804ZM50.4081 8.00557C52.1157 8.00557 52.6479 9.42486 52.6479 11.2655V11.5538H47.8357C47.9244 9.22528 48.7671 8.00557 50.4081 8.00557ZM38.4329 17.4306H33.554C34.5076 15.2351 34.7737 11.2433 34.7737 8.71522V8.27169H38.4329V17.4306Z" fill="#C7C7C7"/>
<path d="M13.4167 20.1805H9.89068V2.7277H8.31616C5.43322 2.7277 3.92523 4.16917 3.92523 6.32028C3.92523 8.75969 4.96752 9.89068 7.11863 11.3322L8.89274 12.5297L3.79217 20.1805H0L4.59052 13.3502C1.95153 11.4652 0.465705 9.62457 0.465705 6.51987C0.465705 2.63899 3.17123 0 8.29398 0H13.3946V20.1805H13.4167Z" fill="#C7C7C7"/>
</svg>
