<svg width="107" height="16" viewBox="0 0 107 16" fill="none" xmlns="http://www.w3.org/2000/svg">
<path d="M47.777 0.100508C48.0851 0.129421 48.4425 0.0137187 48.7217 0.166898C51.7262 2.97897 54.717 5.81154 57.7249 8.6203C57.7317 5.80471 57.7385 2.9909 57.7232 0.175413C58.9267 0.161799 60.1319 0.182197 61.3353 0.166898C61.3337 5.41835 61.3507 10.6697 61.3268 15.9194C61.0136 15.8804 60.6221 16.0012 60.3872 15.7271C57.398 12.7993 54.3969 9.88158 51.4282 6.9333C51.3976 9.89856 51.4163 12.8639 51.418 15.8293C50.2111 15.8513 49.0042 15.8309 47.7973 15.8378C47.7513 10.5932 47.7939 5.34681 47.7769 0.100508H47.777ZM4.81091e-05 15.7816L4.87168 15.7715C5.48872 15.7702 6.21228 15.6506 6.83876 15.0541C8.14002 13.8149 9.65368 12.3163 11.3195 10.6513C12.6074 9.36387 13.7159 8.22364 14.6854 7.32958C15.4214 6.65086 15.7737 5.93749 15.7737 5.37192V0.0017876H10.5967C9.92992 -0.0280401 9.34274 0.533538 8.61283 1.17786C7.58575 2.08443 6.5503 3.19012 5.43931 4.29625C4.21152 5.51861 2.90978 6.74832 1.84056 7.85228C0.795918 8.93099 0 9.79695 0 10.4579V15.7816L4.81091e-05 15.7816ZM15.7738 15.7816L10.9022 15.7715C10.2852 15.7702 9.63804 15.6186 9.01166 15.0222C8.7511 14.7741 8.53543 14.471 8.34174 14.1425C9.43449 13.0791 10.5146 12.0016 11.5924 10.9243C12.4891 10.028 13.3785 9.10837 14.2953 8.22754C15.5118 9.05025 15.7738 9.79459 15.7738 10.4579V15.7816ZM1.62888 7.5161C0.716105 6.93167 4.81091e-05 6.21426 4.81091e-05 5.23144V0.0017876H5.17707C5.77848 -0.0251054 6.46808 0.251811 6.95148 0.807375C7.16552 1.05336 7.37114 1.327 7.5693 1.61469C6.75053 2.39781 5.96722 3.22601 5.16697 4.0227C3.99301 5.19137 2.78316 6.32843 1.62883 7.51615L1.62888 7.5161ZM93.4654 0.0937242C93.7445 0.095408 94.0237 0.095408 94.3046 0.0937242C97.3278 2.94669 100.377 5.77407 103.386 8.64238C103.405 5.81664 103.388 2.9909 103.395 0.165214C104.596 0.182245 105.798 0.165214 107 0.177145C106.973 5.42354 107.009 10.6715 106.981 15.9179C106.653 15.8839 106.244 16.003 106.011 15.7017C103.044 12.7602 100.024 9.87316 97.0707 6.91815C97.0622 9.89024 97.0657 12.8641 97.0707 15.8362C95.8673 15.8413 94.6655 15.8362 93.4637 15.838C93.4671 10.5899 93.462 5.34185 93.4654 0.0938204L93.4654 0.0937242ZM20.25 0.175413C24.1566 0.17373 28.0633 0.166898 31.9682 0.178829C31.815 0.53628 31.6397 0.88358 31.4405 1.2189C29.311 5.05233 27.2002 8.89943 25.0536 12.7243C27.3721 12.7447 29.6906 12.7091 32.0091 12.7431C31.9971 13.7696 31.9971 14.796 32.0107 15.8224C28.1943 15.8634 24.3779 15.8224 20.5615 15.8412C20.2397 15.8446 19.9179 15.8293 19.5979 15.802C21.9215 11.6026 24.2213 7.38957 26.5534 3.19513C24.4527 3.1832 22.3539 3.19513 20.2533 3.19176C20.255 2.1858 20.2635 1.17974 20.2499 0.175365L20.25 0.175413ZM34.7633 15.8412C34.7616 10.617 34.7633 5.3928 34.7616 0.166898C37.9533 0.175413 41.145 0.177097 44.3351 0.166898C44.3351 1.17632 44.3368 2.18407 44.3334 3.19176C42.3418 3.18839 40.3484 3.19513 38.3567 3.18839C38.3601 4.20633 38.3601 5.22432 38.3601 6.24217C40.1918 6.2388 42.0234 6.24053 43.855 6.24053C43.8584 7.25337 43.8584 8.26785 43.855 9.28069C42.0234 9.28416 40.1918 9.29094 38.3601 9.27732C38.3601 10.394 38.3585 11.5106 38.3601 12.6274C40.4198 12.6103 42.4779 12.6291 44.5359 12.6171C44.5631 13.6912 44.5376 14.7637 44.5529 15.8378C41.2897 15.8412 38.0265 15.8344 34.7633 15.8412L34.7633 15.8412ZM64.5935 0.187345C66.655 0.204375 68.7164 0.183929 70.7778 0.197592C72.6656 0.226505 74.5721 0.892095 75.939 2.21986C79.0371 5.17328 79.1052 10.6732 76.0905 13.7083C74.7151 15.111 72.7353 15.831 70.788 15.8345C68.7198 15.843 66.6532 15.8396 64.5867 15.8345C64.5969 10.6188 64.5867 5.40314 64.5935 0.187393L64.5935 0.187345ZM68.1904 3.35014C68.204 6.46525 68.192 9.57863 68.1955 12.6937C69.7122 12.6341 71.3974 12.9593 72.7336 12.052C75.367 10.2545 75.3602 5.70262 72.6809 3.94592C71.3497 3.06249 69.69 3.39608 68.1904 3.35014ZM80.5555 15.8396C80.5504 10.617 80.5538 5.39285 80.5538 0.170362C83.7455 0.172046 86.9389 0.180609 90.1324 0.165262C90.1443 1.1781 90.1443 2.18926 90.129 3.2021C88.1391 3.17824 86.1474 3.19527 84.1558 3.19359C84.1643 4.2098 84.1524 5.22606 84.1609 6.24226C85.9925 6.24063 87.8242 6.23726 89.6557 6.24573C89.6439 7.25689 89.6541 8.26795 89.6472 9.28079C87.8173 9.28589 85.9891 9.28589 84.1592 9.28079C84.1524 10.3941 84.1626 11.5074 84.1592 12.6207C86.2155 12.6241 88.2701 12.6173 90.3264 12.6224C90.3417 13.6931 90.3213 14.7638 90.34 15.8362C87.0785 15.843 83.8171 15.8362 80.5555 15.8396L80.5555 15.8396Z" fill="#C7C7C7"/>
</svg>
