<svg width="109" height="120" viewBox="0 0 109 120" fill="none" xmlns="http://www.w3.org/2000/svg">
<g clip-path="url(#clip0_1_1258)">
<path fill-rule="evenodd" clip-rule="evenodd" d="M73.8722 80.2432H91.3292V109.712H73.8722V80.2432ZM17.0304 80.2432H66.3642V99.0126C67.9169 99.8444 68.9785 101.494 68.9785 103.383V106.108C68.9785 108.835 66.773 111.056 64.065 111.056H19.3693C16.6614 111.056 14.4558 108.835 14.4558 106.108V103.383C14.4558 101.508 15.5004 99.8701 17.0332 99.0326V80.2432H17.0304ZM49.3897 69.1377C46.8691 69.515 39.6535 69.2749 36.4034 69.2749C36.7611 68.7975 37.4764 59.7558 37.6921 57.9921C37.8539 56.6743 38.098 52.6037 38.7764 51.8833C40.3972 50.1653 42.1969 50.637 46.8351 50.637C47.7633 50.637 48.0897 50.9486 48.6006 51.2802C48.91 51.4803 49.8155 52.1349 49.8155 52.4065C49.8155 58.1379 49.3897 63.5206 49.3897 69.1405V69.1377ZM63.6534 50.6342C69.4355 50.6342 71.8738 50.0196 72.169 54.033C72.2145 54.6362 72.3592 54.599 72.3848 55.2565C72.4075 55.8082 72.3819 56.0254 72.504 56.54L73.6564 66.6879C73.7359 67.7341 73.8693 68.3773 73.8693 69.4064L61.0959 69.2692C61.0959 68.2944 60.8745 67.857 60.8802 66.8222C60.9142 62.4686 60.4771 58.0321 60.4544 53.8958C60.4487 52.8438 60.4629 52.3693 61.093 51.7176C61.5188 51.2802 62.5577 50.6284 63.6506 50.6284L63.6534 50.6342ZM25.1202 69.5436L18.7335 69.8151C16.5137 69.8037 14.4615 70.0867 12.1367 70.0867C12.1367 69.2034 13.0394 65.9789 13.3204 64.8584C13.7632 63.0918 14.1975 61.3795 14.629 59.7101C14.8702 58.7754 16.3151 52.5923 16.6812 52.0406C17.9557 50.1253 21.1917 50.6342 25.123 50.6342C25.6822 50.6342 27.8906 51.7004 27.8906 52.6752L26.5508 61.0708C26.2982 62.3371 26.0512 63.9265 25.7986 65.2157C25.5346 66.565 25.1202 68.1743 25.1202 69.5436ZM85.5811 50.6342C94.9114 50.6342 93.1884 49.8738 95.7374 59.6529C96.1973 61.411 96.6117 63.129 97.046 64.8041L98.3517 70.0896L85.3654 69.6808L82.6376 54.2817C82.4587 53.2583 82.2317 52.6895 82.8703 51.8976C83.3103 51.3545 84.4003 50.6342 85.5783 50.6342H85.5811ZM6.81161 46.8265C6.81161 47.5755 6.93083 48.4102 7.39352 48.9019C7.88174 49.425 8.58286 49.9395 9.58203 50.0882C8.90362 51.9462 7.99529 53.6928 7.24023 55.5309L0.00195312 75.7038C1.52625 75.7038 2.89159 75.7124 4.10648 75.578L8.09464 75.355V113.543H4.04971V119.994H104.747V114.066C104.747 113.234 103.322 113.543 100.702 113.543V75.0063C102.255 75.0063 103.058 75.1864 104.747 75.1835C106.166 75.1778 107.586 75.1807 109.005 75.1807L99.2118 50.0853C101.213 49.788 102.144 48.2244 102.042 46.7236H6.82013C6.82013 46.7551 6.81729 46.7894 6.81729 46.8208L6.81161 46.8265Z" fill="white"/>
<path d="M9.39172 19.2009L11.2424 17.9231C12.111 17.3028 13.0705 17.36 14.1236 18.0947C15.1738 18.7864 16.2383 19.1295 17.3141 19.1295C18.8469 19.1295 19.6105 18.6692 19.6105 17.7488C19.6105 17.2657 19.3295 16.8569 18.7703 16.5224C18.2111 16.188 16.9593 15.722 15.0149 15.1246C12.7753 14.4328 11.1062 13.4609 10.0077 12.206C8.90917 10.9511 8.36133 9.35602 8.36133 7.42363C8.36133 5.16822 9.17315 3.36446 10.7968 2.01808C12.4204 0.671692 14.6033 -0.00292969 17.3482 -0.00292969C20.4564 -0.00292969 23.0281 0.81462 25.0633 2.44972C25.6112 2.90995 25.8581 3.40448 25.8013 3.93332C25.7446 4.46215 25.4181 4.93382 24.8249 5.34831L23.2466 6.45457C22.4235 7.02915 21.464 7.00628 20.3655 6.38597C19.724 6.04008 19.0853 5.86857 18.4438 5.86857C17.0274 5.86857 16.3178 6.29449 16.3178 7.14635C16.3178 7.67518 16.6045 8.10682 17.175 8.44128C17.7455 8.77573 18.9576 9.24167 20.8112 9.83912C23.1899 10.5995 24.91 11.56 25.9716 12.7234C27.0361 13.8868 27.5669 15.4219 27.5669 17.3343C27.5669 19.6583 26.6642 21.5192 24.8589 22.9113C23.0536 24.3035 20.6522 25.001 17.6576 25.001C14.1832 25.001 11.3361 24.0462 9.11922 22.1338C8.59409 21.6507 8.35849 21.1447 8.41526 20.6131C8.47203 20.0842 8.79846 19.6126 9.39172 19.1981V19.2009ZM31.0299 2.48688C31.0299 1.10619 31.7169 0.414421 33.0879 0.414421H36.8603C38.2313 0.414421 38.9182 1.10619 38.9182 2.48688V8.80717H44.8167V2.48688C44.8167 1.10619 45.5037 0.414421 46.8747 0.414421H50.6471C52.0181 0.414421 52.705 1.10619 52.705 2.48688V22.5169C52.705 23.8975 52.0181 24.5893 50.6471 24.5893H46.8747C45.5037 24.5893 44.8167 23.8975 44.8167 22.5169V15.1618H38.9182V22.5169C38.9182 23.8975 38.2313 24.5893 36.8603 24.5893H33.0879C31.7169 24.5893 31.0299 23.8975 31.0299 22.5169V2.48688ZM59.597 21.4992C57.4255 19.1638 56.3384 16.1623 56.3384 12.5033C56.3384 8.84148 57.4255 5.84284 59.597 3.50739C61.7685 1.16908 64.6723 0.00278745 68.3085 0.00278745C71.9447 0.00278745 74.8457 1.17194 77.02 3.50739C79.1915 5.84284 80.2786 8.84433 80.2786 12.5033C80.2786 16.1651 79.1915 19.1638 77.02 21.4992C74.8485 23.8375 71.9447 25.0038 68.3085 25.0038C64.6723 25.0038 61.7713 23.8347 59.597 21.4992ZM65.3593 8.04679C64.6496 9.13019 64.2948 10.6138 64.2948 12.5004C64.2948 14.3871 64.6496 15.8736 65.3593 16.9541C66.0689 18.0375 67.051 18.5778 68.3085 18.5778C69.566 18.5778 70.5481 18.0375 71.2577 16.9541C71.9674 15.8707 72.3222 14.3871 72.3222 12.5004C72.3222 10.6138 71.9674 9.12733 71.2577 8.04679C70.5481 6.9634 69.566 6.42313 68.3085 6.42313C67.051 6.42313 66.0689 6.9634 65.3593 8.04679ZM100.972 2.52118C102.811 3.92474 103.734 6.02007 103.734 8.80717C103.734 11.5943 102.814 13.6867 100.972 15.0932C99.1322 16.4967 96.623 17.1999 93.4438 17.1999H91.7974V22.5197C91.7974 23.9004 91.1105 24.5922 89.7395 24.5922H85.9671C84.5961 24.5922 83.9091 23.9004 83.9091 22.5197V2.48974C83.9091 1.10905 84.5961 0.41728 85.9671 0.41728H93.4438C96.623 0.41728 99.1294 1.12049 100.972 2.52404V2.52118ZM93.2054 11.1884C94.9198 11.1884 95.7771 10.3937 95.7771 8.80431C95.7771 7.21495 94.9198 6.42027 93.2054 6.42027H91.8003V11.1855H93.2054V11.1884Z" fill="white"/>
<path fill-rule="evenodd" clip-rule="evenodd" d="M19.3663 101.059H64.062C65.3308 101.059 66.3697 102.105 66.3697 103.383V106.107C66.3697 107.385 65.3308 108.431 64.062 108.431H19.3663C18.0975 108.431 17.0586 107.385 17.0586 106.107V103.383C17.0586 102.105 18.0975 101.059 19.3663 101.059Z" fill="#EBA707"/>
<path fill-rule="evenodd" clip-rule="evenodd" d="M5.1007 36.6758H103.899C105.168 36.6758 106.207 37.722 106.207 38.9998V41.724C106.207 43.0018 105.168 44.048 103.899 44.048H5.1007C3.83187 44.048 2.79297 43.0018 2.79297 41.724V38.9998C2.79297 37.722 3.83187 36.6758 5.1007 36.6758Z" fill="#EBA707"/>
<path fill-rule="evenodd" clip-rule="evenodd" d="M16.984 26.8018H19.2718C19.7629 26.8018 20.166 27.2077 20.166 27.7022V33.8281C20.166 34.3226 19.7629 34.7286 19.2718 34.7286H16.984C16.4929 34.7286 16.0898 34.3226 16.0898 33.8281V27.7022C16.0898 27.2077 16.4929 26.8018 16.984 26.8018Z" fill="#EBA707"/>
<path fill-rule="evenodd" clip-rule="evenodd" d="M33.7867 26.8018H36.0746C36.5657 26.8018 36.9687 27.2077 36.9687 27.7022V33.8281C36.9687 34.3226 36.5657 34.7286 36.0746 34.7286H33.7867C33.2957 34.7286 32.8926 34.3226 32.8926 33.8281V27.7022C32.8926 27.2077 33.2957 26.8018 33.7867 26.8018Z" fill="#EBA707"/>
<path fill-rule="evenodd" clip-rule="evenodd" d="M47.8824 26.8018H50.1703C50.6614 26.8018 51.0644 27.2077 51.0644 27.7022V33.8281C51.0644 34.3226 50.6614 34.7286 50.1703 34.7286H47.8824C47.3914 34.7286 46.9883 34.3226 46.9883 33.8281V27.7022C46.9883 27.2077 47.3914 26.8018 47.8824 26.8018Z" fill="#EBA707"/>
<path fill-rule="evenodd" clip-rule="evenodd" d="M67.1539 26.8018H69.4418C69.9328 26.8018 70.3359 27.2077 70.3359 27.7022V33.8281C70.3359 34.3226 69.9328 34.7286 69.4418 34.7286H67.1539C66.6628 34.7286 66.2598 34.3226 66.2598 33.8281V27.7022C66.2598 27.2077 66.6628 26.8018 67.1539 26.8018Z" fill="#EBA707"/>
<path fill-rule="evenodd" clip-rule="evenodd" d="M86.8356 26.8018H89.1234C89.6145 26.8018 90.0175 27.2077 90.0175 27.7022V33.8281C90.0175 34.3226 89.6145 34.7286 89.1234 34.7286H86.8356C86.3445 34.7286 85.9414 34.3226 85.9414 33.8281V27.7022C85.9414 27.2077 86.3445 26.8018 86.8356 26.8018Z" fill="#EBA707"/>
</g>
<defs>
<clipPath id="clip0_1_1258">
<rect width="109" height="120" fill="white"/>
</clipPath>
</defs>
</svg>
