<svg width="49" height="63" viewBox="0 0 49 63" fill="none" xmlns="http://www.w3.org/2000/svg">
<g clip-path="url(#clip0_1_9584)">
<path fill-rule="evenodd" clip-rule="evenodd" d="M3.2335 54.6328C6.23628 54.6328 8.58124 56.9686 8.58124 60.293L8.58124 60.9082L2.23858 60.9082L2.23858 54.6328L3.2335 54.6328L3.2335 54.6328ZM8.58124 2.09182C8.58124 4.68824 7.90223 6.75253 5.55816 7.83709C4.33006 8.40528 3.55458 8.36718 2.23857 8.36718L2.23857 2.09181L8.58124 2.09181L8.58124 2.09182ZM5.34774 10.2129L5.34774 52.7871C4.96954 52.6075 3.88102 52.461 3.35789 52.418L3.35789 10.582C3.88102 10.539 4.96954 10.3924 5.34774 10.2129L5.34774 10.2129ZM9.57616 7.38281L39.4239 7.38281C39.7659 7.38281 40.1587 8.15825 40.9582 8.81784C41.2423 9.05212 41.4137 8.98975 41.4137 9.35156L41.4137 53.6484C41.4137 54.0103 41.2423 53.9479 40.9582 54.1822C40.0941 54.895 39.8241 55.6172 39.4239 55.6172L9.57616 55.6172C9.22307 55.6172 9.1967 55.4087 9.02088 55.1822L8.0418 54.1822C7.75776 53.9479 7.58632 54.0103 7.58632 53.6484L7.58632 9.35156C7.58632 8.98974 7.75776 9.05212 8.0418 8.81784L9.03672 7.83346C9.27351 7.55244 9.21047 7.38281 9.57616 7.38281ZM10.4467 57.832L38.5533 57.832C38.3403 58.7367 38.3046 58.793 38.3046 59.8008L10.6954 59.8008C10.6954 58.793 10.6597 58.7367 10.4467 57.832L10.4467 57.832ZM38.3046 3.19922C38.3046 4.20704 38.3403 4.26331 38.5533 5.16797L10.4467 5.16797C10.6598 4.26331 10.6954 4.20703 10.6954 3.19922L38.3046 3.19922L38.3046 3.19922ZM45.6422 10.582L45.6422 52.418C45.119 52.461 44.0305 52.6076 43.6523 52.7871L43.6523 10.2129C44.0305 10.3925 45.119 10.539 45.6422 10.582L45.6422 10.582ZM45.7665 54.6328L46.7614 54.6328L46.7614 60.9082L40.4188 60.9082C40.4188 58.9374 40.631 57.5534 41.8781 56.3228C42.9205 55.2942 44.0934 54.6328 45.7665 54.6328L45.7665 54.6328ZM40.4188 2.70703L40.4188 2.09182L46.7614 2.09182L46.7614 8.36719C44.6581 8.36719 43.4709 8.24616 41.9409 6.73816C40.9842 5.79513 40.4188 4.54773 40.4188 2.70703L40.4188 2.70703ZM46.8858 -9.24142e-08L39.2995 -4.24023e-07C38.6486 -4.52472e-07 38.3555 0.378698 38.3046 0.984374L10.6954 0.984372C10.6445 0.378696 10.3514 -1.68938e-06 9.70051 -1.71784e-06L2.11424 -2.04944e-06C0.628338 -2.11439e-06 3.76189e-06 1.20809 3.69637e-06 2.70703L3.42744e-06 8.85937C3.34394e-06 10.7697 1.11932 10.1869 1.11932 10.8281L1.11931 52.1719C1.11931 52.8131 1.53164e-06 52.2303 1.44814e-06 54.1406L1.17921e-06 60.293C1.11369e-06 61.7919 0.628335 63 2.11424 63L9.70051 63C10.3514 63 10.6445 62.6213 10.6954 62.0156L38.3046 62.0156C38.3555 62.6213 38.6486 63 39.2995 63L46.8858 63C48.3717 63 49 61.7919 49 60.293L49 53.8945C49 52.3598 47.8807 52.8049 47.8807 52.1719L47.8807 10.8281C47.8807 10.1869 49 10.7697 49 8.85938L49 2.70703C49 1.2081 48.3717 2.08973e-06 46.8858 2.02478e-06L46.8858 -9.24142e-08Z" fill="#797979"/>
<path fill-rule="evenodd" clip-rule="evenodd" d="M26.4104 10.6535C26.4104 11.7593 27.784 12.7553 28.8713 13.8311L36.1287 21.0117C36.5769 21.4574 37.1394 22.2084 37.9222 22.2084C38.6199 22.2084 39.4238 21.4129 39.4238 20.7228C39.4238 19.7302 34.2545 15.0306 33.2925 14.0787C32.4995 13.294 29.2041 9.71425 28.2748 9.45737C27.0725 9.12495 26.4104 10.4549 26.4104 10.6535L26.4104 10.6535Z" fill="#EBA707"/>
<path fill-rule="evenodd" clip-rule="evenodd" d="M36.5875 9.49805C35.4583 9.49805 35.086 9.86637 35.086 10.9837C35.086 11.7339 37.3724 14.7792 38.8975 13.2703C40.5234 11.6615 37.2101 9.49805 36.5875 9.49805Z" fill="#EBA707"/>
</g>
<defs>
<clipPath id="clip0_1_9584">
<rect width="63" height="49" fill="white" transform="translate(49) rotate(90)"/>
</clipPath>
</defs>
</svg>
