<svg width="66" height="51" viewBox="0 0 66 51" fill="none" xmlns="http://www.w3.org/2000/svg">
<path fill-rule="evenodd" clip-rule="evenodd" d="M9.16466 14.3037C9.16466 14.8263 10.574 16.5337 11.3776 14.0642L13.7296 6.34798C13.889 5.86294 14.1644 4.74604 14.378 4.41478C15.714 2.34188 20.3249 2.446 21.8935 3.64023C22.8672 4.38161 22.7812 4.72473 23.1872 5.9608L34.3078 42.2121C35.0322 44.8344 35.9886 45.5557 33.5208 46.7918C32.5294 47.2884 30.4319 47.8535 29.527 47.122C29.098 46.7752 28.2846 43.4048 28.0943 42.746L26.835 38.3258C26.6698 37.846 26.4989 37.4088 25.8158 37.4088H11.2298C10.2073 37.4088 10.1765 38.4201 9.80993 39.7322C9.52668 40.7464 9.25693 41.6882 8.95131 42.7459C8.65601 43.768 8.40563 44.657 8.11679 45.6547C7.84579 46.5906 7.89505 47.477 6.06675 47.477C4.67623 47.477 1.93619 46.4567 1.93619 45.2827C1.93619 44.5628 2.14954 44.0548 2.34024 43.4924L5.98412 31.6468C6.33592 30.4523 10.0681 19.046 10.0681 17.7889C10.0681 17.2871 8.54919 16.0775 7.94499 18.2473L3.14506 33.8419C2.70698 35.1754 0 43.9068 0 44.3792V45.1098C0.019089 46.3457 0.238998 47.4087 2.23612 48.4679C3.82706 49.3118 5.97217 49.8944 7.73357 49.2729C8.24646 49.092 8.6321 48.8612 9.00964 48.4837C9.97682 47.5166 10.7153 44.0724 11.1288 42.6C11.405 41.6163 11.7602 40.5224 12.0044 39.4741H25.0413L26.8035 45.7148C27.4046 47.7959 27.9571 49.5422 30.9789 49.5422C33.1569 49.5422 37.1747 48.0301 37.1747 44.8954C37.1747 44.2853 33.1437 31.3041 32.7068 30.0014L26.3486 9.25317C26.0872 8.40082 24.8239 4.10897 24.4396 3.41742C22.6834 0.257611 16.8348 -0.0760612 13.6801 2.16786C12.445 3.04634 12.2785 4.27961 11.7631 5.80133L9.8269 12.1262C9.73946 12.3844 9.16466 14.1886 9.16466 14.3037Z" fill="#EBA707"/>
<path fill-rule="evenodd" clip-rule="evenodd" d="M40.1432 22.5641C40.1432 24.9127 41.437 27.5982 44.1447 27.5982C45.9538 27.5982 46.4312 25.662 51.3731 25.662C54.0833 25.662 55.7617 27.6178 55.7617 30.3088C51.2392 30.3088 47.6494 30.199 43.4827 32.0993C37.1133 35.0042 37.5413 43.3363 40.1233 46.5925C43.9939 51.474 51.016 50.8164 55.4865 47.2011C55.78 46.9638 56.0391 46.6709 56.4071 46.5727C56.4862 47.5245 57.3133 48.299 58.0071 48.716C61.2514 50.6658 65.9589 48.8008 65.9589 46.0563V39.086C65.9589 37.9951 63.8732 36.8932 63.8928 40.2469L63.8977 45.2859C63.9078 46.1231 64.0123 46.1631 63.5523 46.6185C62.5834 47.5775 60.1703 47.7876 58.9276 46.8918C57.5482 45.8973 59.2159 43.0025 57.3107 43.0072C55.8566 43.0107 54.2978 47.9925 47.2424 47.9925C40.5878 47.9925 38.5573 40.0903 42.0939 35.6156C43.0208 34.4429 44.7621 33.6108 46.3643 33.1739C48.0721 32.7084 50.1471 32.3689 52.2762 32.3738C53.3954 32.3763 54.5152 32.3685 55.6342 32.3756C57.9136 32.3903 57.8268 31.8894 57.8268 30.4377C57.8268 27.6871 56.3934 25.0047 54.0685 24.1278C49.2199 22.2992 44.6099 25.5327 44.0153 25.5327C42.733 25.5327 42.2082 23.7383 42.2082 22.5639C42.2082 20.1236 52.2409 17.0219 58.9017 20.7145C61.1182 21.9433 62.9135 24.2214 63.5593 27.0286C64.021 29.0356 63.9103 32.5652 63.8901 34.9589C63.8669 37.7019 65.9587 36.7855 65.9587 35.9881C65.9587 30.7351 66.5785 25.5013 63.0214 21.4997C55.9343 13.5268 40.143 17.3904 40.143 22.5639L40.1432 22.5641Z" fill="#797979"/>
<path fill-rule="evenodd" clip-rule="evenodd" d="M18.5869 16.3688L20.5964 23.653C20.959 24.9267 21.2728 25.9978 21.6304 27.2659L22.5884 30.9547H14.3274C14.6064 29.7571 15.0064 28.4769 15.345 27.3255C15.7151 26.0673 16.0475 24.8326 16.3926 23.5972L17.9258 18.1602C18.1502 17.3973 18.2327 16.6282 18.5869 16.3688ZM12.0039 31.8583C12.0039 32.4873 12.1718 32.8909 12.9075 32.8909H24.2664C24.6045 32.8909 25.0408 32.3201 25.0408 32.1165C25.0408 31.381 20.4715 15.6428 19.9227 13.7423C19.5402 12.418 19.4874 11.4639 18.4578 11.4639C17.4514 11.4639 17.3626 12.6509 17.1221 13.4842C16.5823 15.3548 12.0039 31.1886 12.0039 31.8584V31.8583Z" fill="#EBA707"/>
<path fill-rule="evenodd" clip-rule="evenodd" d="M50.9863 41.9276C48.7302 41.9276 48.6629 40.4695 48.6629 39.0879C48.6629 36.2027 55.1553 36.7976 55.7623 36.5063C55.7623 38.2569 55.1474 39.16 54.3634 40.1414C53.7885 40.8611 52.2457 41.9276 50.9864 41.9276H50.9863ZM46.5977 39.217V39.8623C46.5977 42.2191 48.4846 43.9929 50.8572 43.9929C54.3069 43.9929 57.8275 40.328 57.8275 36.8935C57.8275 34.1119 57.94 34.5701 53.826 34.5701C50.8007 34.5701 46.5977 35.6312 46.5977 39.217Z" fill="#797979"/>
</svg>
