<svg width="70" height="51" viewBox="0 0 70 51" fill="none" xmlns="http://www.w3.org/2000/svg">
<g clip-path="url(#clip0_1_9556)">
<path fill-rule="evenodd" clip-rule="evenodd" d="M2.05083 26.112C3.09688 25.8696 4.05664 25.3741 5.86611 25.0112C14.3747 23.3046 22.7486 25.986 30.2142 26.3847C30.7451 26.413 31.3251 26.3637 31.8599 26.3795C32.5456 26.3998 32.6185 26.5141 33.3543 26.5258C37.7571 26.5961 43.3854 25.2066 46.94 23.4373C50.1551 21.837 50.3893 21.522 52.9113 19.5851C53.5491 19.0953 54.0712 18.3625 54.6874 17.952L54.6895 28.154C54.6003 29.2052 53.7945 29.648 52.6366 29.648H4.23833C1.95651 29.648 2.05087 28.3326 2.05087 26.112H2.05083ZM41.1523 2.03997L52.368 2.03515C53.415 2.03353 54.6874 2.27663 54.6874 3.53598V14.552C54.6874 14.8953 53.2492 16.3226 52.9442 16.626C51.1933 18.3672 48.5709 20.4177 46.2905 21.4313C32.6259 27.5049 25.5202 22.304 11.3477 22.304C5.95034 22.304 3.06311 23.7162 2.05083 23.8V19.176C2.86923 19.176 5.66556 18.6169 7.11976 18.5062C13.8684 17.9924 15.4673 18.2526 22.4178 18.636C27.2576 18.9028 35.1658 20.8135 39.4802 16.5606C43.0613 13.0305 43.3666 8.00438 41.7006 3.53448C41.631 3.34778 41.4992 3.04461 41.4234 2.85823C41.3265 2.61995 41.242 2.23976 41.1523 2.0399L41.1523 2.03997ZM32.1289 2.03997H38.828C39.431 4.61416 40.4687 4.32328 40.4687 9.51999C40.4687 13.9226 36.6995 17.136 32.1289 17.136C28.0428 17.136 26.5016 16.7304 23.2432 16.591C20.4935 16.4734 19.249 16.168 16.131 16.1858C14.9021 16.1928 13.9347 15.944 12.5853 16.0551L3.74913 16.7854C3.11301 16.8835 2.73542 17 2.05079 17V4.48797C4.45772 4.48797 8.89132 6.75495 11.076 7.88621L15.1281 10.1113C20.0918 12.6174 29.749 16.1273 33.2688 10.246C34.9977 7.35718 33.4166 4.46105 32.1288 2.03997H32.1289ZM3.97301e-05 3.26399V28.424C3.97301e-05 30.0027 1.69433 31.688 3.28127 31.688H53.4569C55.3895 31.688 56.8749 29.8598 56.8749 27.608V4.08003C56.8749 1.79803 55.3676 3.95214e-05 53.4569 3.95214e-05H22.832C21.7021 3.95214e-05 21.4967 1.33389 22.1964 1.85549C22.6947 2.22699 27.0669 2.04235 27.8908 2.03986C29.5919 2.03484 29.5489 1.68879 30.7168 3.8527C31.4729 5.25362 31.8554 6.04535 31.8554 7.88807C31.8554 9.92006 29.3485 11.2881 27.207 11.2881C18.2997 11.2881 13.3457 5.66231 5.93111 3.2121C5.36663 3.02556 4.88502 2.88384 4.36082 2.73421L2.82954 2.35334C2.80797 2.34536 2.76363 2.33046 2.73443 2.31204C4.72387 1.85098 5.13587 2.04001 7.51952 2.04001L17.7744 2.04096C18.7542 2.04744 19.4519 2.16557 19.7258 1.38467C19.9566 0.726719 19.558 0 18.7304 0H3.28123C1.69429 0 0 1.68539 0 3.26399H3.97301e-05Z" fill="#797979"/>
<path fill-rule="evenodd" clip-rule="evenodd" d="M58.789 20.2638C58.789 21.8701 62.2228 21.3518 63.8476 21.3518C67.985 21.3518 67.9492 21.0708 67.9492 25.2958C65.9073 25.2958 63.4374 24.8686 63.4374 26.5198C63.4374 27.8591 66.4773 27.4718 67.9492 27.4718V38.3518C66.8613 38.4418 63.5893 39.7256 61.9369 39.7151L43.2031 39.7118C40.6345 39.7115 40.1953 39.5981 40.1953 41.0718C40.1953 42.0837 42.117 41.8878 43.2031 41.8878C45.8836 41.8875 62.0477 41.7709 62.6954 41.9459L67.3933 43.9367C68.1914 44.2681 67.9492 44.3025 67.9492 46.7838C67.9492 48.0554 67.4416 48.8238 66.1718 48.8238H16.8164C16.0176 48.8238 15.3126 48.1224 15.3126 47.3278V37.9438H27.0704C28.4954 37.9438 28.7628 35.7678 26.6602 35.7678H15.3125C15.3125 34.8815 15.4313 33.7277 14.2188 33.7277C13.5133 33.7277 13.125 34.294 13.125 34.9518V46.6478C13.125 49.4317 14.5854 50.9998 17.3633 50.9998H65.8983C68.1923 50.9998 69.9998 49.5004 69.9998 47.5998V43.385C69.8216 42.4602 69.1684 42.384 67.0904 41.5179C66.695 41.353 66.2566 41.2366 66.035 40.9358C66.7841 40.9192 67.7015 40.5601 68.359 40.3916C69.127 40.1947 69.9998 40.1382 69.9998 39.1678V22.5758C69.9998 20.7473 68.299 19.1758 66.035 19.1758H60.0193C59.3565 19.1758 58.7889 19.626 58.7889 20.2638H58.789Z" fill="#EBA707"/>
</g>
<defs>
<clipPath id="clip0_1_9556">
<rect width="70" height="51" fill="white"/>
</clipPath>
</defs>
</svg>
