<svg width="45" height="59" viewBox="0 0 45 59" fill="none" xmlns="http://www.w3.org/2000/svg">
<path fill-rule="evenodd" clip-rule="evenodd" d="M42.9822 0C43.3803 0 43.8658 0.00392713 44.2019 0.245445C44.5949 0.527917 44.6569 1.01572 44.6569 1.46454V55.9486C44.6569 56.4201 44.6524 56.9382 44.564 57.4022C44.4936 57.7721 44.3612 58.1217 44.0785 58.382C43.7988 58.6398 43.4367 58.7494 43.0684 58.8061C42.5993 58.8782 42.0885 58.8779 41.6142 58.8779H2.83613C2.36796 58.8779 1.84818 58.876 1.38759 58.7896C1.02208 58.7208 0.67874 58.5896 0.43049 58.3003C0.18785 58.0176 0.0966846 57.6527 0.0520837 57.2911C-0.00598155 56.8195 0.000189638 56.3129 0.000189638 55.8375V1.31951C0.000189638 1.31334 0.000189638 1.30829 0.000470147 1.30212C0.0150566 0.960461 0.0711583 0.620766 0.318006 0.364381C0.610296 0.0608704 1.05378 0.0033661 1.45463 0.00420763L8.9616 0.0210381C9.1184 0.0213187 9.25249 0.105191 9.32149 0.245726L12.5257 6.76923C12.5967 6.9137 12.726 6.9942 12.887 6.99392L31.7266 6.97176C31.8873 6.97148 32.016 6.89125 32.087 6.74707L35.2907 0.224687C35.36 0.0838721 35.4943 0 35.6514 0H42.982L42.9822 0ZM10.8564 9.44052L7.65246 2.91757C7.5815 2.77311 7.45246 2.69288 7.29173 2.69288H3.09532C2.87428 2.69288 2.69335 2.87381 2.69335 3.09485V55.7825C2.69335 56.0035 2.87428 56.1845 3.09532 56.1845H41.562C41.7831 56.1845 41.964 56.0035 41.964 55.7825V3.09485C41.964 2.97984 41.927 2.89092 41.8456 2.80985C41.764 2.72879 41.6751 2.69232 41.5601 2.69288L37.408 2.71504C37.2478 2.71588 37.1199 2.79611 37.0492 2.93973L33.8455 9.46155C33.7762 9.60265 33.6416 9.68652 33.4842 9.68624L11.2169 9.6652C11.0601 9.66492 10.9257 9.58133 10.8564 9.44052Z" fill="#797979"/>
<path fill-rule="evenodd" clip-rule="evenodd" d="M37.261 13.9883H7.39611C7.17479 13.9883 6.99414 14.1689 6.99414 14.3902V37.4943C6.99414 37.7157 7.17479 37.8963 7.39611 37.8963H37.261C37.4823 37.8963 37.663 37.7157 37.663 37.4943V14.3902C37.663 14.1689 37.4823 13.9883 37.261 13.9883ZM10.0893 16.6812H34.5681C34.7892 16.6812 34.9701 16.8621 34.9701 17.0831V34.8012C34.9701 35.0222 34.7892 35.2031 34.5681 35.2031H10.0893C9.86823 35.2031 9.6873 35.0222 9.6873 34.8012V17.0831C9.6873 16.8621 9.86823 16.6812 10.0893 16.6812Z" fill="#EBA707"/>
<path fill-rule="evenodd" clip-rule="evenodd" d="M30.267 20.9814H14.3902C14.1689 20.9814 13.9883 21.1621 13.9883 21.3834V23.3891C13.9883 23.6104 14.1689 23.791 14.3902 23.791H30.267C30.4884 23.791 30.669 23.6104 30.669 23.3891V21.3834C30.669 21.1621 30.4884 20.9814 30.267 20.9814Z" fill="#797979"/>
<path fill-rule="evenodd" clip-rule="evenodd" d="M30.267 28.0928H14.3902C14.1689 28.0928 13.9883 28.2734 13.9883 28.4947V30.5004C13.9883 30.7217 14.1689 30.9023 14.3902 30.9023H30.267C30.4884 30.9023 30.669 30.7217 30.669 30.5004V28.4947C30.669 28.2734 30.4884 28.0928 30.267 28.0928Z" fill="#797979"/>
<path fill-rule="evenodd" clip-rule="evenodd" d="M33.169 42.1963H11.4879C9.27159 42.1963 6.99414 44.4737 6.99414 46.69V47.3893C6.99414 49.6056 9.27159 51.8831 11.4879 51.8831H33.169C35.3853 51.8831 37.6627 49.6056 37.6627 47.3893V46.69C37.6627 44.4737 35.3853 42.1963 33.169 42.1963ZM12.1872 44.8892H32.4697C33.1403 44.8892 33.808 45.0763 34.3036 45.5458C34.7154 45.9357 34.9482 46.4724 34.9482 47.0398C34.9482 47.6073 34.7154 48.1436 34.3036 48.5338C33.808 49.0031 33.1406 49.1905 32.4697 49.1905H12.1872C11.5165 49.1905 10.8489 49.0034 10.3532 48.5338C9.94144 48.1439 9.70862 47.6073 9.70862 47.0398C9.70862 46.4724 9.94144 45.936 10.3532 45.5458C10.8489 45.0765 11.5162 44.8892 12.1872 44.8892Z" fill="#EBA707"/>
</svg>
