<svg width="104" height="106" viewBox="0 0 104 106" fill="none" xmlns="http://www.w3.org/2000/svg">
<path d="M20.3682 55.8985H34.8821L27.6251 41.1055L20.3682 55.8985Z" fill="#EBA707"/>
<path d="M36.3643 45.0286L41.6963 55.8977H47.0696L39.4349 40.334L36.3643 45.0286Z" fill="#EBA707"/>
<path d="M94.8594 0H9.34375C4.29578 0 0 4.17136 0 9.31641V12.4219H11.0068C14.387 12.4219 17.3831 14.1655 18.8295 16.9677C19.8888 19.0242 23.1737 19.0242 24.233 16.9677C25.6794 14.1655 28.6755 12.4219 32.0557 12.4219H71.9086C75.2864 12.4219 78.5062 14.1719 79.9821 16.9863C81.0477 19.0178 84.2993 19.0153 85.3585 16.9895C86.8375 14.1719 89.8542 12.4219 93.232 12.4219H104V9.31641C104 4.17136 99.9073 0 94.8594 0Z" fill="#EBA707"/>
<path d="M90.735 19.9154C89.1465 22.9546 86.0552 24.8438 82.6719 24.8438C79.2886 24.8438 76.1973 22.9546 74.6056 19.913C74.2009 19.1366 73.0155 18.6328 71.9086 18.6328H32.0557C30.9813 18.6328 30.0054 19.1269 29.6245 19.8613C28.0384 22.9328 24.9384 24.8438 21.5312 24.8438C18.1241 24.8438 15.0241 22.9328 13.438 19.8613C13.0571 19.1269 12.0812 18.6328 11.0068 18.6328H0V65.2148C0 70.3599 4.29578 74.5312 9.34375 74.5312H18.4844V83.8477C18.4844 85.5638 19.8475 86.9531 21.5312 86.9531H45.9062V99.7891H39.8125C38.1288 99.7891 36.7656 101.178 36.7656 102.895C36.7656 104.611 38.1288 106 39.8125 106H64.1875C65.8712 106 67.2344 104.611 67.2344 102.895C67.2344 101.178 65.8712 99.7891 64.1875 99.7891H58.0938V86.9531H82.6719C84.3556 86.9531 85.7188 85.5638 85.7188 83.8477V74.5312H94.8594C99.9073 74.5312 104 70.3599 104 65.2148V18.6328H93.232C92.1251 18.6328 91.1428 19.1366 90.735 19.9154ZM45.9062 80.7422H24.5781V74.5312H45.9062V80.7422ZM54.5914 60.6359C54.0352 61.5514 53.0561 62.1094 52 62.1094C51.0193 62.1094 14.8123 62.1094 15.4375 62.1094C14.3814 62.1094 13.4023 61.5514 12.8461 60.6359C12.2899 59.7196 12.2391 58.5761 12.712 57.6145L24.8995 32.7708C25.9349 30.6665 29.3151 30.6665 30.3505 32.7708L33.2252 38.6315L37.2774 32.4376C37.8812 31.5157 38.8453 31.0304 40.0029 31.0603C41.086 31.1307 42.0532 31.7825 42.538 32.7708L54.7255 57.6145C55.1984 58.5761 55.1476 59.7196 54.5914 60.6359ZM79.625 80.7422H58.0938V74.5312H79.625V80.7422ZM88.7656 62.1094H64.1875C62.5038 62.1094 61.1406 60.72 61.1406 59.0039C61.1406 57.2878 62.5038 55.8984 64.1875 55.8984H88.7656C90.4493 55.8984 91.8125 57.2878 91.8125 59.0039C91.8125 60.72 90.4493 62.1094 88.7656 62.1094ZM88.7656 49.6875H64.1875C62.5038 49.6875 61.1406 48.2981 61.1406 46.582C61.1406 44.8659 62.5038 43.4766 64.1875 43.4766H88.7656C90.4493 43.4766 91.8125 44.8659 91.8125 46.582C91.8125 48.2981 90.4493 49.6875 88.7656 49.6875ZM88.7656 37.2656H64.1875C62.5038 37.2656 61.1406 35.8763 61.1406 34.1602C61.1406 32.4441 62.5038 31.0547 64.1875 31.0547H88.7656C90.4493 31.0547 91.8125 32.4441 91.8125 34.1602C91.8125 35.8763 90.4493 37.2656 88.7656 37.2656Z" fill="white"/>
</svg>
