<svg width="58" height="58" viewBox="0 0 58 58" fill="none" xmlns="http://www.w3.org/2000/svg">
<path fill-rule="evenodd" clip-rule="evenodd" d="M24.2423 51.0898C24.2423 50.7548 24.9435 50.2186 25.1768 49.9853C25.5443 49.6179 25.8289 49.3332 26.1964 48.9658C26.9226 48.2395 27.5659 47.5963 28.2921 46.8701L32.5118 42.707V52.5625H24.2423V51.0898ZM52.2227 52.5625H44.293V39.3086H52.5625V52.2227C52.5625 52.4837 52.4837 52.5625 52.2227 52.5625V52.5625ZM34.211 52.2226V41.121C34.211 40.8336 35.736 39.3085 36.0235 39.3085H42.4805V52.5624H34.5508C34.2898 52.5624 34.2109 52.4836 34.2109 52.2225L34.211 52.2226ZM39.7618 35.5702H53.6953C54.4196 35.5702 55.2418 36.0964 55.5928 36.5048C56.0291 37.0125 56.3008 37.8263 56.3008 38.7421V53.0155C56.3008 57.0926 52.2689 56.3006 49.3907 56.3006C39.0821 56.3006 28.7735 56.3006 18.4649 56.3006C18.6565 56.0392 19.7581 55.4141 20.5329 54.6302C21.0161 54.1413 21.9396 53.1172 22.4298 52.7889C22.4298 53.4226 22.6506 54.2616 23.2227 54.2616H53.3555C53.9034 54.2616 54.2618 53.9032 54.2618 53.3553V38.4022C54.2618 37.1601 52.5985 37.4959 50.8633 37.4959C46.4831 37.4959 42.1029 37.4959 37.7227 37.4959C37.9347 37.1793 39.4081 35.5701 39.7618 35.5701V35.5702ZM25.4031 41.942C25.0467 41.6941 24.7659 41.4032 24.4877 41.1022C24.1113 40.6951 24.2381 40.3787 24.2419 39.6488L24.2423 29.2266L31.1806 36.1086L25.4032 41.9421L25.4031 41.942ZM24.2423 26.5078C24.2423 23.7816 23.8367 24.8177 26.5362 22.1181C27.1311 21.5232 28.4926 20.2995 28.8868 19.7109L38.2614 29.0278L32.4266 34.9187L28.2921 30.7275C27.9757 30.4111 24.2423 26.8694 24.2423 26.5079L24.2423 26.5078ZM30.218 18.493L35.9955 12.6594L45.3407 21.9484L39.5633 27.7819L30.218 18.493ZM24.2423 21.8633C24.2423 18.5098 23.6673 19.6629 25.9698 17.3604C27.0359 16.2943 28.0189 15.3112 29.085 14.2451C30.1511 13.179 31.1342 12.196 32.2002 11.1299C33.0503 10.2798 34.3963 8.49615 35.9101 8.49615C37.6632 8.49615 38.9517 10.235 39.9033 11.1866L46.7002 17.9835C48.096 19.3793 51.0743 21.6213 48.5144 24.159C45.8035 26.8463 24.5062 48.3067 23.9023 48.711C24.3051 46.9821 24.2422 45.5094 24.2422 43.3868C24.9887 43.8866 24.5275 44.0665 25.6016 44.0665C25.9889 44.0665 30.766 39.0719 31.124 38.7139L46.1338 23.7041C47.8174 22.0205 48.0185 22.1337 46.2471 20.3623L37.6944 11.8096C35.6494 9.76469 36.0925 10.0696 32.8799 13.2823C31.8893 14.2728 30.9818 15.1804 29.9912 16.1709C29.1403 17.0219 24.7653 21.513 24.2422 21.8633L24.2423 21.8633ZM6.89763e-05 4.30467V46.4453C6.89763e-05 52.4025 5.59756 58 11.5548 58H53.6954C55.8686 58 58.0001 55.8685 58.0001 53.6953V38.0625C58.0001 36.6103 57.0269 35.3153 56.1741 34.6776C54.8698 33.7024 54.0583 33.7578 51.8829 33.7578C48.4089 33.7578 44.935 33.7578 41.461 33.7578C42.0916 32.8161 49.6075 25.8515 50.5263 24.4715C51.2138 23.4387 51.2032 22.814 51.2032 21.6367C51.2032 19.6861 49.3858 18.1767 48.3428 17.1338C47.0691 15.86 45.8783 14.6693 44.6045 13.3955C43.3496 12.1406 42.1778 10.9687 40.9229 9.71386C38.8549 7.64588 38.3478 6.79685 35.457 6.79685C33.452 6.79685 31.0838 9.75407 29.5381 11.2998C28.7423 12.0955 24.7428 16.2038 24.2422 16.539C24.2422 15.4439 24.2422 14.3489 24.2422 13.2539C24.2422 11.7031 24.496 10.5351 23.3359 10.5351C22.2388 10.5351 22.4294 12.0171 22.4296 13.1406V45.1992C22.4296 47.4493 22.2808 49.1074 21.1198 51.0261C20.0868 52.7334 19.2643 53.5708 17.6272 54.6702C11.4723 58.8038 1.69916 54.7731 1.69916 45.4258V4.98436C1.69916 2.91432 2.91425 1.69923 4.98429 1.69923H19.2577C20.7301 1.69923 21.7132 2.27242 22.2422 3.47254C22.7008 4.51298 22.1974 7.02413 22.5183 8.0676C22.9123 9.3489 24.2421 8.67011 24.2421 8.04298C24.2421 5.32407 24.6303 3.1498 22.9714 1.38394C22.3939 0.769085 21.0967 0 19.9375 0H4.30467C2.12074 0 0 2.12081 0 4.30467H6.89763e-05Z" fill="#797979"/>
<path fill-rule="evenodd" clip-rule="evenodd" d="M5.43758 25.4884H18.6914V33.7579H5.43758V25.4884ZM5.43758 23.4493V15.5196H18.6914V23.7891H5.77736C5.51635 23.7891 5.43751 23.7103 5.43751 23.4493H5.43758ZM5.43758 5.77743C5.43758 5.51642 5.51642 5.43758 5.77743 5.43758H18.6915V13.7071H5.43765V5.77743H5.43758ZM3.73835 4.64463V34.7774C3.73835 35.3495 4.57731 35.5703 5.21099 35.5703H19.0313C19.8458 35.5703 20.5039 35.3587 20.5039 34.5508V4.64456C20.5039 4.09661 20.1456 3.73828 19.5976 3.73828H4.64456C4.09661 3.73828 3.73828 4.09661 3.73828 4.64456L3.73835 4.64463Z" fill="#EBA707"/>
<path fill-rule="evenodd" clip-rule="evenodd" d="M12.1211 50.6363C7.04415 50.6363 5.49577 43.6627 10.1888 41.5674C11.4399 41.0088 12.7942 40.9498 14.0501 41.5705C15.1581 42.1182 15.909 42.7946 16.4259 43.9526C17.9325 47.3282 15.3348 50.6363 12.1211 50.6363ZM18.5781 46.4449C18.5781 44.3287 18.3208 42.9234 16.6985 41.301C16.1905 40.7931 15.6633 40.4032 14.9935 40.0607C11.9242 38.4915 7.78668 39.6655 6.11711 43.3863C3.91663 48.29 8.83057 54.0984 14.4536 51.9493C16.6635 51.1047 18.578 48.7065 18.578 46.4449H18.5781Z" fill="#EBA707"/>
<path fill-rule="evenodd" clip-rule="evenodd" d="M12.1212 46.8986C11.6589 46.8986 11.1016 46.4526 11.1016 45.9924C11.1016 45.0699 12.0464 44.5559 12.7568 45.1289C13.4593 45.6954 13.0218 46.8986 12.1211 46.8986H12.1212ZM9.40241 45.426V46.219C9.40241 47.3699 10.6304 48.5979 11.7813 48.5979C12.711 48.5979 13.467 48.5617 14.1315 47.7762C15.1867 46.5288 15.0999 44.6688 13.7437 43.6901C13.2469 43.3315 13.2016 43.5432 12.9817 42.9794C12.805 42.5262 12.7798 42.2705 12.1864 42.2058C11.7904 42.1625 11.4937 42.3743 11.3311 42.7099C10.9604 43.4753 11.4702 43.0959 10.6268 43.5918C9.95815 43.9849 9.40234 44.8476 9.40234 45.4259L9.40241 45.426Z" fill="#EBA707"/>
</svg>
