<svg width="60" height="45" viewBox="0 0 60 45" fill="none" xmlns="http://www.w3.org/2000/svg">
<g clip-path="url(#clip0_1_9548)">
<path fill-rule="evenodd" clip-rule="evenodd" d="M11.227 22.51C11.9137 21.4835 14.4613 18.9572 15.3736 17.9201L19.6725 13.2329C20.0992 12.7219 20.4259 12.252 20.9567 11.8961C20.9567 13.3501 20.4555 17.5153 21.8299 17.5153H38.1709C39.1187 17.5153 39.0468 15.7754 39.0444 15.1431C39.0403 14.0611 39.0441 12.9782 39.0441 11.8961L48.7738 22.51L45.2515 26.4762C44.7766 26.9901 44.4325 27.2414 43.9811 27.8267L39.0441 33.1239C39.0441 32.424 39.1137 28.843 38.977 28.3213C38.8744 27.9298 38.5702 27.5048 38.1709 27.5048H21.9547C20.8715 27.5048 20.9521 28.6603 20.9564 29.7521C20.9609 30.8757 20.9568 32.0002 20.9568 33.1239L11.2271 22.51H11.227ZM9.10645 22.3851C9.10645 23.3819 9.47911 23.8311 10.2592 24.6027L11.7561 26.226C13.4861 27.9354 15.8464 30.8245 17.6218 32.5914L19.1181 34.2153C19.2789 34.3774 19.3348 34.4424 19.4782 34.6041C20.8948 36.2016 23.0774 35.1333 23.0774 33.2488V29.5027H36.9235C36.9235 31.9459 36.3434 35.3716 38.9194 35.3716C40.3477 35.3716 41.2355 33.7237 42.3175 32.6546L48.88 25.4883C50.0843 23.9772 52.3039 22.9455 49.7408 20.4183C49.1844 19.8698 48.8622 19.4064 48.306 18.8578C47.7572 18.3165 47.4287 17.8495 46.8715 17.2968L41.7588 11.676C41.4968 11.3925 41.2772 11.2131 41.0063 10.9309C40.565 10.4712 40.2526 9.64844 38.9194 9.64844C36.3424 9.64844 36.9235 13.0066 36.9235 15.5173H23.0774C23.0774 12.6555 23.674 9.64844 20.9568 9.64844C19.7663 9.64844 19.4498 10.4821 18.3674 11.5516L10.2604 20.4185C9.74114 20.9336 9.10653 21.4109 9.10653 22.3851H9.10645Z" fill="#797979"/>
<path fill-rule="evenodd" clip-rule="evenodd" d="M4.98959 42.864C4.44901 42.864 3.90604 42.859 3.36575 42.8663C2.78903 42.8741 2.12058 43.0334 2.12058 42.4894V2.53113C2.12058 1.71622 4.46569 2.03435 4.98959 2.15655C5.0548 2.43663 5.11435 2.44366 5.11435 2.78091V42.2397C5.11435 42.3992 5.03352 42.7658 4.98959 42.8641V42.864ZM0 2.78083V42.2397C0 45.3504 2.89838 44.9868 4.49064 44.9868C6.01283 44.9868 7.11022 43.9159 7.11022 42.6143V2.4062C7.11022 -0.382276 3.95346 0.033682 2.3701 0.033682C1.08206 0.033682 4.25657e-05 1.29481 4.25657e-05 2.78083H0Z" fill="#EBA707"/>
<path fill-rule="evenodd" clip-rule="evenodd" d="M54.8855 42.2398V2.78095C54.8855 2.44369 54.9451 2.43666 55.0102 2.15658C55.5341 2.03438 57.8792 1.71629 57.8792 2.53117V42.4895C57.8792 43.1068 56.2042 42.864 55.0102 42.864C54.9451 42.584 54.8855 42.5769 54.8855 42.2397V42.2398ZM52.8896 2.40632V42.6144C52.8896 45.3096 55.9353 44.9869 57.505 44.9869C59.0043 44.9869 59.9998 43.7252 59.9998 41.99V2.78095C59.9998 1.60329 59.5279 0.881651 58.6842 0.351882C57.88 -0.153046 56.5737 0.0337989 55.2597 0.0337989C53.9848 0.0337989 52.8896 1.13007 52.8896 2.40632Z" fill="#EBA707"/>
<path fill-rule="evenodd" clip-rule="evenodd" d="M27.8167 21.5116H34.1784C35.2217 21.5116 35.2217 19.5137 34.1784 19.5137H27.8167C26.7577 19.5137 26.7577 21.5116 27.8167 21.5116Z" fill="#EBA707"/>
<path fill-rule="evenodd" clip-rule="evenodd" d="M21.8293 21.5114C23.1948 21.5114 25.0726 21.8541 25.0726 20.5124C25.0726 19.1853 23.2781 19.5135 21.8293 19.5135C20.7861 19.5135 20.7861 21.5114 21.8293 21.5114Z" fill="#EBA707"/>
</g>
<defs>
<clipPath id="clip0_1_9548">
<rect width="60" height="45" fill="white"/>
</clipPath>
</defs>
</svg>
