<svg width="105" height="105" viewBox="0 0 105 105" fill="none" xmlns="http://www.w3.org/2000/svg">
<g clip-path="url(#clip0_1_1403)">
<path fill-rule="evenodd" clip-rule="evenodd" d="M64.2981 5.17941H76.0751C76.0981 6.25703 76.419 7.80637 76.547 8.94688C76.698 10.3117 76.8763 11.5235 77.0378 12.9303C77.4782 16.7795 79.8441 34.2625 79.8441 36.4932C79.8441 43.5585 68.6461 46.3909 65.565 38.5248C64.7491 36.4408 64.7701 25.6332 64.7722 22.132C64.7722 19.9243 64.5226 18.4609 64.5331 16.4839C64.5561 12.4355 64.3003 8.99091 64.3003 5.17941H64.2981ZM32.7386 43.3174C28.3382 43.3174 25.2026 39.5269 25.2026 36.7259C25.2026 33.9501 27.9251 14.0058 28.4809 9.16073C28.6235 7.91329 28.9465 6.31154 28.9717 5.17732H40.7486C40.7486 8.98671 40.4927 12.4313 40.5157 16.4818L40.2431 27.7444C39.7208 32.3966 41.2414 38.9671 37.0844 41.7723C36.0881 42.4453 34.2697 43.3174 32.7407 43.3174H32.7386ZM0.000288548 36.0194C0.000288548 38.7407 1.32794 41.8058 2.55492 43.3531C6.06177 47.7768 11.3619 49.5399 16.8172 47.651C17.9687 47.2526 19.225 46.6006 20.0556 45.9444C22.174 44.2672 21.8971 43.808 22.8452 43.5543C23.1661 44.7557 25.5802 46.4622 26.6876 47.0115C32.5121 49.8943 39.4041 48.0158 42.3929 43.5543C43.9429 44.5921 49.1319 51.5652 58.3331 47.0115C59.6042 46.3826 61.6953 44.6236 62.4126 43.5543C64.0087 44.6236 69.1515 51.5128 78.1179 47.0115C79.1519 46.4937 79.5337 46.2065 80.4167 45.5439C81.1759 44.9758 81.9415 44.5062 82.1953 43.5564C83.4411 43.8898 82.2833 43.7032 84.1081 45.175C86.174 46.8417 88.1959 48.2653 91.6147 48.2653V89.9359H45.216V56.9763C45.216 51.5841 40.0354 52.8525 40.0354 55.5633V99.8232H13.4215V55.5633C13.4215 52.5086 8.47588 52.4856 8.47588 55.5633V99.8232C5.42416 99.8232 -0.00390625 99.0181 -0.00390625 102.178C-0.00390625 104.004 1.19581 105.004 3.0583 105.004H101.978C105.195 105.004 105.63 101.981 104.272 100.591C103.079 99.3661 99.0898 99.8232 96.5603 99.8232V47.5587C99.5051 47.3134 103.671 42.8122 104.627 38.9084C105.38 35.8412 104.751 34.6378 104.048 31.8326L97.3133 4.89848C96.7302 2.56294 96.6086 0.000976562 93.733 0.000976562H11.3011C9.24143 0.000976562 8.65206 1.17503 8.23468 2.82081L1.17483 31.0758C0.935728 32.0276 -0.00180885 35.2227 -0.00180885 36.0194H0.000288548Z" fill="#FEFEFE"/>
<path fill-rule="evenodd" clip-rule="evenodd" d="M59.8224 81.4577C59.8224 83.9819 63.432 85.8877 64.9757 82.1349C65.9804 79.6924 74.8964 60.8551 74.8964 59.0919C74.8964 57.2763 73.4933 56.5069 72.1677 56.6495C70.3639 56.8423 70.1311 58.0227 69.546 59.3938C69.0174 60.6329 68.4532 61.6979 67.9289 62.9579C67.3605 64.3249 66.8739 65.3899 66.2593 66.7044C65.5735 68.172 59.8203 81.0845 59.8203 81.4577H59.8224Z" fill="#EBA707"/>
<path fill-rule="evenodd" clip-rule="evenodd" d="M73.957 74.1596C73.957 76.3652 77.1954 79.1515 79.297 74.5538L82.5354 67.197C83.0409 65.981 84.0854 64.2682 84.0854 63.0962C84.0854 60.8361 80.5093 59.0813 78.9006 62.6224C78.5587 63.3729 78.2378 64.1193 77.8938 64.9139C77.3611 66.1509 73.957 73.5432 73.957 74.1638V74.1596Z" fill="#EBA707"/>
<path fill-rule="evenodd" clip-rule="evenodd" d="M33.9155 80.7513C38.2488 80.7513 36.8204 75.8076 34.8573 75.8076H33.9155C30.9813 75.8076 30.9813 80.7513 33.9155 80.7513Z" fill="#EBA707"/>
</g>
<defs>
<clipPath id="clip0_1_1403">
<rect width="105" height="105" fill="white"/>
</clipPath>
</defs>
</svg>
