<svg width="136" height="63" viewBox="0 0 136 63" fill="none" xmlns="http://www.w3.org/2000/svg">
<path d="M3.67863 33.8358C-2.23562 39.893 0.791752 33.8358 0.652987 44.5372C0.533881 53.8208 6.09891 53.9919 7.58022 53.8747C7.28997 52.7351 7.11825 51.5446 7.11825 50.3127C7.11825 42.5315 13.3014 36.199 20.9016 36.199C28.5007 36.199 34.6844 42.5315 34.6844 50.3127C34.6844 51.5511 34.5138 52.7487 34.2183 53.893C54.7878 53.9078 83.3941 53.8528 104.794 53.5177C104.559 52.4858 104.422 51.4167 104.422 50.3127C104.422 42.5315 110.605 36.199 118.204 36.199C125.805 36.199 131.989 42.5315 131.989 50.3127C131.989 51.0982 131.909 51.8619 131.789 52.6143C133.319 52.474 134.252 52.3177 134.465 52.1437C137.216 49.8906 136.115 35.8095 132.4 32.8549C128.687 29.8991 130.749 28.3492 130.614 22.8567C130.539 19.8962 128.152 15.6854 125.964 12.417C127.704 11.899 129.408 11.297 131.038 10.4398C131.243 10.332 131.371 10.1858 131.514 10.0479C132.189 9.40555 132.254 8.51875 131.91 7.74561C131.901 7.71424 131.886 7.68523 131.874 7.65267C131.836 7.57275 131.8 7.49342 131.751 7.41646C131.433 6.73923 130.842 6.18394 129.925 6.0987C127.277 5.85539 124.669 5.76126 122.12 4.91176C121.827 4.81526 121.564 4.80342 121.31 4.81763L121.265 4.68858C121.265 4.68858 101.324 -0.520937 76.157 0.0426379C50.9869 0.60562 50.3011 16.0927 28.5718 17.6431C6.84361 19.1929 3.67921 33.8358 3.67921 33.8358H3.67863ZM41.4133 41.3653H83.63C84.4418 41.3653 85.1055 42.0449 85.1055 42.8761C85.1055 43.7072 84.4418 44.3868 83.63 44.3868H41.4133C40.6015 44.3868 39.9377 43.7072 39.9377 42.8761C39.9377 42.0449 40.6015 41.3653 41.4133 41.3653V41.3653ZM61.4578 35.4957C61.4578 35.6834 61.4514 35.845 61.4358 35.9747C61.4202 36.1043 61.3948 36.2109 61.3664 36.2949C61.3346 36.3819 61.297 36.4435 61.2496 36.479C61.2022 36.5181 61.1484 36.537 61.0883 36.537H55.6013C55.399 36.537 55.2284 36.4755 55.0896 36.3529C54.9509 36.2298 54.8809 36.0297 54.8809 35.7515V24.612C54.8809 24.5504 54.9 24.4924 54.9411 24.4409C54.9821 24.3924 55.0486 24.3503 55.1399 24.3178C55.2313 24.2852 55.3579 24.2627 55.5158 24.2432C55.6736 24.2237 55.8696 24.2142 56.1032 24.2142C56.3432 24.2142 56.542 24.2237 56.697 24.2432C56.8485 24.2627 56.9751 24.2852 57.0665 24.3178C57.1578 24.3503 57.2243 24.3924 57.2654 24.4409C57.3064 24.4924 57.3255 24.551 57.3255 24.612V34.4799H61.0877C61.1479 34.4799 61.2045 34.4959 61.249 34.5314C61.2965 34.5669 61.334 34.622 61.3658 34.7031C61.3976 34.7806 61.4196 34.8842 61.4352 35.0168C61.4508 35.1465 61.4572 35.3045 61.4572 35.4957H61.4578ZM74.4606 30.2625C74.4606 31.2784 74.3374 32.1871 74.0911 32.9892C73.8448 33.7914 73.4782 34.474 72.9885 35.0298C72.5017 35.5893 71.8986 36.0161 71.1817 36.3109C70.4613 36.6051 69.6304 36.7508 68.6862 36.7508C67.7542 36.7508 66.9424 36.6247 66.2509 36.3754C65.5559 36.1262 64.9778 35.7479 64.5135 35.2335C64.0521 34.7226 63.7046 34.0726 63.4745 33.2829C63.2438 32.4938 63.127 31.559 63.127 30.4786C63.127 29.4888 63.2501 28.5961 63.4965 27.804C63.7428 27.0113 64.1093 26.3388 64.5991 25.7824C65.0853 25.2259 65.6889 24.7991 66.4059 24.5048C67.1263 24.2071 67.96 24.0585 68.9112 24.0585C69.8177 24.0585 70.6168 24.1816 71.3118 24.4273C72.0033 24.673 72.5849 25.0513 73.0492 25.5657C73.517 26.0766 73.8674 26.7201 74.1044 27.4997C74.3415 28.2823 74.4611 29.2011 74.4611 30.262L74.4606 30.2625ZM71.9021 30.3886C71.9021 29.7451 71.8518 29.1597 71.7535 28.6322C71.6558 28.1053 71.4881 27.6525 71.2511 27.2771C71.014 26.9018 70.6983 26.6106 70.3034 26.404C69.9085 26.2003 69.4159 26.0967 68.825 26.0967C68.2277 26.0967 67.7288 26.2133 67.331 26.443C66.9297 26.6727 66.6042 26.9829 66.3579 27.3683C66.1116 27.7531 65.9381 28.203 65.8369 28.7169C65.7358 29.2343 65.6855 29.7777 65.6855 30.3531C65.6855 31.0227 65.7358 31.6241 65.8341 32.1581C65.9318 32.6915 66.0994 33.1479 66.333 33.5291C66.5666 33.9074 66.8794 34.1957 67.2743 34.3958C67.6692 34.593 68.1653 34.6936 68.762 34.6936C69.3592 34.6936 69.8582 34.5805 70.256 34.3508C70.6573 34.1247 70.9828 33.8139 71.2291 33.4226C71.4754 33.0313 71.6494 32.5754 71.7506 32.0545C71.8518 31.5335 71.9021 30.9777 71.9021 30.3886ZM87.2552 26.1808C87.2552 26.3619 87.2489 26.5206 87.2332 26.6532C87.2176 26.7858 87.1951 26.8923 87.1668 26.9699C87.1384 27.051 87.1066 27.1061 87.0656 27.1351C87.0245 27.1676 86.9771 27.1836 86.9233 27.1836C86.8412 27.1836 86.7117 27.1256 86.5348 27.0125C86.355 26.8994 86.1179 26.7734 85.8207 26.6407C85.5236 26.5081 85.1732 26.382 84.7627 26.269C84.3522 26.1559 83.8751 26.0973 83.3317 26.0973C82.7535 26.0973 82.2291 26.2009 81.7619 26.4045C81.2912 26.6117 80.89 26.9024 80.5581 27.2777C80.2262 27.656 79.9707 28.1059 79.7903 28.6363C79.6105 29.1638 79.522 29.7457 79.522 30.3863C79.522 31.0884 79.6133 31.7058 79.7937 32.2428C79.977 32.7767 80.2326 33.2231 80.5581 33.5848C80.8865 33.9435 81.2814 34.2153 81.7393 34.4C82.2007 34.5841 82.709 34.6746 83.2617 34.6746C83.5334 34.6746 83.8017 34.6421 84.0671 34.5811C84.3354 34.5166 84.5823 34.4195 84.8095 34.2934V31.4341H82.5442C82.4337 31.4341 82.3482 31.3631 82.2851 31.2204C82.225 31.0783 82.1938 30.8385 82.1938 30.4958C82.1938 30.3212 82.2001 30.1726 82.2158 30.053C82.2314 29.9334 82.2568 29.8363 82.2851 29.7653C82.3169 29.6907 82.3545 29.6392 82.3956 29.6037C82.4395 29.5681 82.4904 29.5522 82.5442 29.5522H86.5874C86.6851 29.5522 86.7736 29.5681 86.8493 29.6037C86.9285 29.6392 86.9945 29.6907 87.0546 29.7623C87.1112 29.8304 87.1587 29.9145 87.187 30.0115C87.2188 30.1116 87.2344 30.2252 87.2344 30.3513V35.2418C87.2344 35.4324 87.2026 35.5976 87.1367 35.7396C87.0737 35.8817 86.9407 35.9948 86.7389 36.0759C86.54 36.1599 86.2902 36.244 85.9936 36.3346C85.6964 36.4222 85.39 36.4998 85.0714 36.5613C84.7557 36.6258 84.4331 36.6744 84.1082 36.7034C83.7861 36.736 83.4606 36.7519 83.1322 36.7519C82.1753 36.7519 81.319 36.6099 80.561 36.3281C79.8059 36.0469 79.1647 35.639 78.6403 35.1056C78.1159 34.5722 77.7146 33.9216 77.4365 33.152C77.1584 32.3825 77.0196 31.5122 77.0196 30.5384C77.0196 29.5326 77.1682 28.6304 77.4648 27.8312C77.7585 27.0291 78.1789 26.3501 78.7218 25.7901C79.2653 25.2306 79.9192 24.8038 80.6899 24.506C81.4578 24.2083 82.3135 24.0597 83.2548 24.0597C83.7757 24.0597 84.2469 24.0952 84.673 24.1698C85.0963 24.2444 85.4692 24.3314 85.7884 24.438C86.104 24.5416 86.3694 24.6546 86.5782 24.7742C86.7898 24.8973 86.9349 25.0009 87.017 25.0915C87.102 25.1785 87.1621 25.3052 87.1968 25.4668C87.235 25.6255 87.2535 25.8646 87.2535 26.1814L87.2552 26.1808ZM101.62 30.2625C101.62 31.2784 101.496 32.1871 101.25 32.9892C101.004 33.7914 100.637 34.474 100.148 35.0298C99.6607 35.5893 99.0577 36.0161 98.3407 36.3109C97.6203 36.6051 96.7895 36.7508 95.8453 36.7508C94.9133 36.7508 94.1015 36.6247 93.41 36.3754C92.715 36.1262 92.1368 35.7479 91.6725 35.2335C91.2112 34.7226 90.8637 34.0726 90.6336 33.2829C90.4029 32.4938 90.2861 31.559 90.2861 30.4786C90.2861 29.4888 90.4092 28.5961 90.6555 27.804C90.9018 27.0113 91.2684 26.3388 91.7581 25.7824C92.2444 25.2259 92.848 24.7991 93.5649 24.5048C94.2854 24.2071 95.1191 24.0585 96.0702 24.0585C96.9768 24.0585 97.7759 24.1816 98.4708 24.4273C99.1623 24.673 99.744 25.0513 100.208 25.5657C100.676 26.0766 101.026 26.7201 101.263 27.4997C101.501 28.2823 101.62 29.2011 101.62 30.262L101.62 30.2625ZM99.0612 30.3886C99.0612 29.7451 99.0109 29.1597 98.9126 28.6322C98.8149 28.1053 98.6472 27.6525 98.4101 27.2771C98.1731 26.9018 97.8574 26.6106 97.4625 26.404C97.0676 26.2003 96.575 26.0967 95.9841 26.0967C95.3868 26.0967 94.8878 26.2133 94.49 26.443C94.0888 26.6727 93.7633 26.9829 93.517 27.3683C93.2707 27.7531 93.0972 28.203 92.996 28.7169C92.8948 29.2343 92.8445 29.7777 92.8445 30.3531C92.8445 31.0227 92.8948 31.6241 92.9931 32.1581C93.0908 32.6915 93.2585 33.1479 93.4921 33.5291C93.7257 33.9074 94.0385 34.1957 94.4334 34.3958C94.8283 34.593 95.3244 34.6936 95.921 34.6936C96.5183 34.6936 97.0173 34.5805 97.4151 34.3508C97.8163 34.1247 98.1419 33.8139 98.3882 33.4226C98.6345 33.0313 98.8085 32.5754 98.9097 32.0545C99.0109 31.5335 99.0612 30.9777 99.0612 30.3886Z" fill="white"/>
<path d="M20.9031 38.4502C14.5061 38.4502 9.32031 43.7609 9.32031 50.3107C9.32031 51.5474 9.55795 52.7154 9.90139 53.8378C11.3752 58.653 15.7133 62.17 20.9054 62.17C26.0767 62.17 30.4044 58.6785 31.8938 53.8887C32.2482 52.7533 32.4905 51.5651 32.4905 50.3107C32.4882 43.7609 27.3019 38.4502 20.9031 38.4502V38.4502Z" fill="#EBA707"/>
<path d="M118.211 38.4498C111.816 38.4498 106.629 43.7606 106.629 50.3103C106.629 51.4168 106.824 52.4646 107.1 53.481C108.46 58.4816 112.892 62.1708 118.211 62.1708C123.779 62.1708 128.422 58.1459 129.536 52.7848C129.701 51.9868 129.796 51.1622 129.796 50.3121C129.796 43.7606 124.608 38.4492 118.211 38.4492L118.211 38.4498Z" fill="#EBA707"/>
</svg>
