<svg width="80" height="80" viewBox="0 0 80 80" fill="none" xmlns="http://www.w3.org/2000/svg">
<circle cx="40" cy="40" r="40" fill="white"/>
<g clip-path="url(#clip0_1_3048)">
<path fill-rule="evenodd" clip-rule="evenodd" d="M52.9156 48.4279C52.9156 47.9308 53.1289 47.1175 53.2938 46.7307C53.6727 45.8436 54.4738 45.0342 55.3518 44.6514C59.4664 42.8556 63.0393 47.921 59.9869 51.3101C58.9317 52.4821 57.0393 52.8936 55.4248 52.2338C54.5326 51.8693 53.7276 51.0736 53.3255 50.1969C53.1541 49.8239 52.9156 48.9662 52.9156 48.4279V48.4279ZM21.6348 48.4279C21.6348 47.9308 21.8482 47.1175 22.013 46.7307C23.7309 42.7125 29.8667 43.9864 29.8667 48.4279C29.8667 52.7832 23.8706 54.1727 22.0447 50.1969C21.8734 49.8239 21.6348 48.9662 21.6348 48.4279V48.4279ZM19.0622 42.606H18.3419V39.279C20.16 39.279 19.988 39.5703 19.988 41.6699C19.988 42.184 19.5704 42.6054 19.0622 42.6054V42.606ZM61.1474 38.0312C62.3778 38.6277 64.4403 38.2024 64.4403 41.7738C61.6563 41.7738 61.1474 40.7462 61.1474 38.0312ZM24.8242 27.6346H41.8027C44.0061 27.6346 45.3419 28.2107 46.9046 29.4454L52.9388 35.5129C53.6766 36.2681 56.9067 36.8808 58.1423 37.2212C58.4203 37.2976 59.2595 37.4982 59.5013 37.6158C59.5013 39.5912 59.3675 40.4738 60.2184 41.6732C61.4416 43.3984 62.6992 43.4376 64.4403 43.4376V47.5963C62.2931 47.5963 62.8505 47.727 62.5763 46.7765C62.4936 46.4897 62.363 46.0768 62.211 45.794C59.6559 41.0166 53.0132 41.8117 51.5113 46.6981C51.38 47.126 51.4531 47.597 51.0632 47.597H31.7184C31.0706 47.597 31.7656 46.2251 29.791 44.2418C26.8783 41.3165 21.5572 42.3813 20.2305 46.6981C19.9117 47.7361 20.5072 47.597 18.3419 47.597V44.2699C19.6046 44.2699 20.8085 44.3137 21.4576 42.7393C21.6484 42.2774 21.554 42.2801 21.9807 42.0201C23.8641 40.8716 26.2473 40.6227 28.3247 41.4602C29.1878 41.8084 29.6035 42.0847 30.2798 42.6041C31.1294 43.256 31.8264 44.2555 32.2984 45.2426C32.4872 45.6372 32.6249 45.9331 33.1589 45.9331H38.921V44.2699H33.6729C33.563 43.7924 32.793 42.7125 32.4658 42.3702C29.9359 39.7232 26.9281 38.6218 23.2783 39.5893C22.571 39.7768 22.0247 40.123 21.6342 40.2151C21.6342 38.5571 20.6126 37.6158 18.9587 37.6158L23.9417 28.8228C24.1182 28.5217 24.4751 27.6352 24.8242 27.6352V27.6346ZM19.6796 27.6346H22.6635C22.4689 27.9285 21.7156 29.1991 21.6342 29.5062C21.2236 29.2285 19.9473 28.0389 19.679 27.6346H19.6796ZM38.3042 23.892C38.4593 24.5662 39.4899 25.3958 39.6419 25.9714H18.8566C17.8214 25.9714 16.6958 25.7421 16.6958 26.803C16.6958 27.4425 18.1357 28.6073 18.6206 29.0169C19.2995 29.5904 20.0443 30.6161 20.7089 31.0655L17.6417 36.4915C17.427 36.8521 16.6958 38.0332 16.6958 38.4467V48.4273C16.6958 49.6103 18.3173 49.236 19.4857 49.2471C20.312 49.2549 20.0081 49.4594 20.2564 50.2361C21.9749 55.6105 29.5977 55.6001 31.271 50.1578C31.4022 49.7299 31.3292 49.2589 31.7191 49.2589H51.0638C51.5649 49.2589 51.2824 49.9964 51.852 51.0612C52.1824 51.6792 52.5212 52.1417 52.9912 52.6134C55.8871 55.5223 61.1326 54.4641 62.5007 50.3132C62.5834 50.0624 62.6966 49.4646 62.7942 49.2582C64.5005 49.2582 66.0871 49.5764 66.0871 48.4266V40.6293C66.0871 39.2875 65.1696 38.0711 64.3699 37.4779C63.036 36.4895 57.2358 35.2287 55.1681 34.6114C54.0354 34.273 54.327 34.5206 53.5595 33.7413C52.5781 32.7444 48.3703 28.3819 47.4787 27.7208C45.7757 26.458 44.1981 25.9694 41.8033 25.9694C41.4542 25.4429 41.1096 25 40.7152 24.4695C40.3505 23.9776 39.9083 23.4635 39.6419 22.9546C39.1693 23.2074 38.7561 23.5843 38.3042 23.8901V23.892Z" fill="#EBA707"/>
<path fill-rule="evenodd" clip-rule="evenodd" d="M47.1304 34.6802L48.4144 35.9279L45.92 35.9527L47.1304 34.6802V34.6802ZM26.305 30.9814L33.161 30.9618V35.9521H23.9005L26.3056 30.9814H26.305ZM43.3474 35.9521H34.8071V30.9618H42.7306C43.6358 30.9618 44.0321 31.4962 44.5054 31.9757C44.9282 32.4035 45.6194 33.0032 45.92 33.4573C45.7661 33.6898 43.6532 35.9527 43.3474 35.9527V35.9521ZM21.6362 36.7837C21.6362 37.5624 22.1793 37.6257 22.9714 37.6179C31.5349 37.5369 40.308 37.6408 48.9045 37.6146C50.1006 37.6114 49.9429 37.4454 50.5771 38.1078C51.9232 39.513 52.0939 39.4581 52.0939 41.7733H53.7401C53.7401 40.2878 53.861 39.7024 53.0819 38.3835C52.745 37.8132 52.2633 37.4219 51.8108 36.9646L46.4599 31.5582C45.7093 30.7991 44.5991 29.2966 43.2446 29.2966H25.7522C24.975 29.2966 24.6964 30.2857 24.4145 30.856C23.9011 31.8933 21.6362 36.2382 21.6362 36.7817V36.7837Z" fill="#565656"/>
<path fill-rule="evenodd" clip-rule="evenodd" d="M24.9264 48.4279C24.9264 47.3775 26.5725 47.3775 26.5725 48.4279C26.5725 49.4784 24.9264 49.4784 24.9264 48.4279ZM23.2803 48.2202C23.2803 51.8445 28.2193 51.8445 28.2193 48.2202C28.2193 46.9476 27.1376 45.9331 25.5438 45.9331C24.4117 45.9331 23.2803 47.077 23.2803 48.2202V48.2202Z" fill="#565656"/>
<path fill-rule="evenodd" clip-rule="evenodd" d="M56.2086 48.4279C56.2086 47.3775 57.8547 47.3775 57.8547 48.4279C57.8547 49.4784 56.2086 49.4784 56.2086 48.4279ZM54.5625 48.2202C54.5625 51.8445 59.5015 51.8445 59.5015 48.2202C59.5015 46.9476 58.4198 45.9331 56.8261 45.9331C55.694 45.9331 54.5625 47.077 54.5625 48.2202Z" fill="#565656"/>
<path fill-rule="evenodd" clip-rule="evenodd" d="M40.5679 45.9335H50.4459V44.2703H40.5679V45.9335Z" fill="#EBA707"/>
<path fill-rule="evenodd" clip-rule="evenodd" d="M35.6279 40.9429H38.9208V39.2791H35.6279V40.9429Z" fill="#565656"/>
<path fill-rule="evenodd" clip-rule="evenodd" d="M32.3345 40.9429H33.9806V39.2791H32.3345V40.9429Z" fill="#EBA707"/>
<path fill-rule="evenodd" clip-rule="evenodd" d="M55.3862 40.9429H57.0323V39.2791H55.3862V40.9429Z" fill="#EBA707"/>
</g>
<defs>
<clipPath id="clip0_1_3048">
<rect width="49.3913" height="31.3043" fill="white" transform="translate(16.6958 22.9565)"/>
</clipPath>
</defs>
</svg>
