<svg width="80" height="80" viewBox="0 0 80 80" fill="none" xmlns="http://www.w3.org/2000/svg">
<circle cx="40" cy="40" r="40" fill="white"/>
<g clip-path="url(#clip0_1_3064)">
<path fill-rule="evenodd" clip-rule="evenodd" d="M24.3477 21.4485V57.8559C24.3477 58.6438 24.813 59.3178 25.4731 59.6453C25.7033 59.7604 25.9954 59.8261 26.3179 59.8261H53.4268C54.441 59.8261 55.3186 58.8726 55.3186 57.541V51.3155C55.3186 50.1748 54.183 50.1761 53.949 50.8919C53.8226 51.2801 53.8997 55.7251 53.8997 56.5167C53.8997 57.5815 54.1349 58.487 53.0335 58.487H26.634C25.9853 58.487 25.6881 58.1898 25.6881 57.541V21.7634C25.6881 21.1147 25.9853 20.8175 26.634 20.8175H52.8754C53.7429 20.8175 53.9098 21.0553 53.9023 21.919L53.8997 32.7957C53.8997 33.5241 53.7707 34.4017 54.2159 34.69C54.7723 35.0517 55.3186 34.6419 55.3186 33.8984V21.7622C55.3186 21.078 55.1517 20.5949 54.8241 20.208C54.5333 19.8627 54.0249 19.4771 53.4268 19.4771H26.2395C25.7336 19.4771 25.1962 19.7843 24.9256 20.055C24.55 20.4305 24.3477 20.8909 24.3477 21.4473V21.4485Z" fill="#565656"/>
<path fill-rule="evenodd" clip-rule="evenodd" d="M51.3779 50.0545C50.0576 50.0545 50.9833 48.5585 50.9833 48.5572C51.388 48.5914 51.7484 49.0112 52.1657 49.1086L51.3779 50.0545ZM52.8751 47.9262C52.6551 47.8098 52.4818 47.7314 52.2593 47.5961C52.0304 47.457 51.8407 47.3356 51.6143 47.2168C51.971 46.4744 52.2808 45.2769 52.5603 44.6952C52.8878 44.9139 53.185 45.0632 53.5517 45.2807C53.9273 45.5032 54.2422 45.6828 54.6101 45.8776C54.4723 46.1381 53.1938 47.7137 52.8764 47.9262H52.8751ZM55.4751 44.7736C55.0882 44.5687 54.7404 44.3891 54.356 44.159C54.079 43.9933 53.4695 43.5874 53.19 43.5128C53.2254 43.0816 56.7233 37.2392 57.1064 36.5538L58.4709 34.2143C58.8591 34.3041 60.2907 35.2285 60.756 35.4751L57.1469 41.7955C57.0204 42.0067 56.9142 42.166 56.7916 42.386C56.5462 42.8261 55.551 44.4549 55.4764 44.7748L55.4751 44.7736ZM61.4642 34.2927L59.1791 32.9535C59.3119 32.755 59.3764 32.6184 59.4978 32.4059L60.5183 30.6684C61.1835 31.1135 62.2255 31.6206 62.8034 32.0076L61.4642 34.2927ZM62.6466 28.9334C63.8555 28.9334 62.9615 30.4294 62.9615 30.4307C62.6706 30.3624 62.0193 29.9602 61.7791 29.7996C62.0004 29.4696 62.142 28.9334 62.6453 28.9334H62.6466ZM60.598 29.0915C59.6596 29.0131 59.8341 29.0877 59.0855 30.3371C58.887 30.6684 58.7314 30.9529 58.5341 31.283C58.3381 31.6105 58.1712 31.9178 57.998 32.2441C57.6059 32.153 57.4517 31.8495 56.9737 31.8495C56.7953 31.8495 55.4903 32.516 57.2101 33.4252C57.1671 33.9348 52.0215 42.2406 51.4677 43.6013C50.8708 45.0682 50.5483 46.3353 49.8806 47.6088C49.7794 47.801 49.701 47.9704 49.5923 48.188C49.1256 49.1174 48.9802 49.4968 49.5657 50.6046C49.261 50.9549 48.3327 52.1613 48.0684 52.3383C47.6575 51.4822 47.6575 50.5262 46.3347 50.5262C45.9844 50.5262 45.7239 50.6526 45.533 50.8271C45.3243 51.0168 45.2193 51.3077 44.9955 51.4721C44.9955 50.8082 44.9348 48.7292 44.5845 48.2575C44.3379 47.9262 43.9371 47.6189 43.4274 47.6366C42.2589 47.6771 42.0655 48.8721 41.8126 49.6296C41.6494 50.1177 41.5166 50.5161 41.3598 50.989C41.1221 51.7035 40.5024 53.2463 40.5024 53.9153C40.5024 54.1543 41.418 55.2519 41.9909 53.5119L43.4186 49.2654C43.4793 49.995 43.5766 50.8853 43.6525 51.6314C43.8422 53.479 46.0476 53.2513 46.3334 52.0234C46.8974 52.437 46.5902 53.8356 48.2253 53.8356C48.9537 53.8356 49.7655 52.5988 50.2296 51.9792C50.8392 51.1661 50.4724 51.5138 51.6068 51.3861C52.062 51.3342 52.6058 50.9751 52.8448 50.6539C53.1445 50.2492 53.3279 49.8534 53.5985 49.4386L56.2427 46.1735L57.6856 43.6759C58.1624 42.8464 58.6543 42.0433 59.1272 41.1771L62.0155 36.1858C62.1977 36.2819 62.3203 36.3527 62.5176 36.4716C63.2839 36.9344 62.687 37.6249 62.2482 38.3887C61.8739 39.0399 60.0453 41.9852 60.0453 42.491C60.0453 43.1562 60.8812 43.4141 61.3542 42.6959L63.5128 38.9451C64.0237 38.0005 64.2223 38.0068 64.2223 36.8965C64.2223 36.464 63.9542 35.9645 63.7341 35.7305C63.5406 35.5257 63.0222 35.1539 62.725 35.0843C62.7503 34.7872 62.7705 34.8289 62.8944 34.624L63.5874 33.4252C64.589 31.7635 64.6206 31.8571 64.1438 31.1439C64.5498 30.3763 64.6952 30.327 64.6952 29.4101C64.6952 28.3201 63.1271 26.7115 61.3934 28.0001C61.0241 28.2745 60.8142 28.6855 60.5967 29.0953L60.598 29.0915Z" fill="#EBA707"/>
<path fill-rule="evenodd" clip-rule="evenodd" d="M30.3374 24.6013C30.3374 26.2326 30.044 27.5958 31.2833 27.5958H48.4627C49.3896 27.5958 49.64 26.177 48.3843 26.177H31.7563V24.9162H48.3059C48.5398 24.9162 48.8054 24.8454 48.9382 24.7594C49.4971 24.3977 49.2379 23.4973 48.5424 23.4973H31.1265C30.5107 23.4973 30.3387 23.9804 30.3387 24.6L30.3374 24.6013Z" fill="#EBA707"/>
<path fill-rule="evenodd" clip-rule="evenodd" d="M27.0257 51.1578V51.6307C27.0257 54.519 29.6535 57.1468 32.5418 57.1468C34.9749 57.1468 36.8679 55.9923 37.848 54.0208C38.1199 53.4745 39.172 50.7632 37.743 50.7632C36.4064 50.7632 38.0035 53.1621 35.0179 55.1311C33.164 56.3539 30.086 55.795 28.8897 53.391C28.1132 51.8318 28.2979 49.8755 29.484 48.573C29.5409 48.5097 29.5359 48.511 29.5953 48.4478C29.6067 48.4364 29.6219 48.4187 29.6333 48.4073C29.6446 48.3959 29.6611 48.3782 29.6725 48.3668C32.428 45.6113 35.5123 48.0836 35.6931 48.0836C36.2989 48.0836 36.9906 47.3552 35.9309 46.6634C33.6255 45.1586 30.6601 45.433 28.6987 47.3931C28.2182 47.8736 27.8831 48.32 27.5745 48.9473C27.3355 49.4329 27.0244 50.4332 27.0244 51.1552L27.0257 51.1578Z" fill="#565656"/>
<path fill-rule="evenodd" clip-rule="evenodd" d="M36.0087 35.0026H50.1936C51.73 35.0026 51.3962 33.5837 50.5084 33.5837H35.7722C34.9224 33.5837 34.7302 35.0026 36.0087 35.0026V35.0026Z" fill="#EBA707"/>
<path fill-rule="evenodd" clip-rule="evenodd" d="M32.3841 29.4865C32.3841 30.0214 32.7078 30.2743 33.2503 30.2743H46.4893C47.3719 30.2743 47.5831 28.8555 46.3312 28.8555H33.3287C32.7748 28.8555 32.3828 29.1994 32.3828 29.4865H32.3841Z" fill="#565656"/>
<path fill-rule="evenodd" clip-rule="evenodd" d="M29.0745 38.1549C29.0745 38.6291 29.1403 39.0212 29.9407 39.0212H42.9432C44.2445 39.0212 44.0307 37.6023 43.1013 37.6023H29.7827C29.4577 37.6023 29.0732 37.8666 29.0732 38.1537L29.0745 38.1549Z" fill="#565656"/>
<path fill-rule="evenodd" clip-rule="evenodd" d="M29.5498 42.3321H36.4847C37.4066 42.3321 37.2308 40.9929 36.5631 40.9929H29.7066C28.7822 40.9929 28.944 42.3321 29.5485 42.3321H29.5498Z" fill="#565656"/>
<path fill-rule="evenodd" clip-rule="evenodd" d="M32.6203 51.9454C32.0006 51.5306 31.3405 50.3697 30.6501 50.3697C30.2049 50.3697 30.019 50.6568 30.019 51.0792C30.019 51.4737 31.7389 53.3643 32.5406 53.3643C33.441 53.3643 34.521 51.9745 35.3581 51.1386C35.6072 50.8895 36.0865 50.562 36.0865 50.1333C36.0865 49.7817 35.7678 49.4238 35.4555 49.4238C34.9079 49.4238 34.2706 50.2547 33.938 50.586C33.5864 50.9375 32.8555 51.5901 32.6178 51.9454H32.6203Z" fill="#565656"/>
<path fill-rule="evenodd" clip-rule="evenodd" d="M45.1519 38.3132C45.1519 38.6825 45.5388 39.0226 45.9397 39.0226C46.7895 39.0226 50.5023 39.1428 50.9297 38.8911C51.4406 38.5901 51.3053 37.6038 50.5099 37.6038H45.9397C45.5388 37.6038 45.1519 37.9439 45.1519 38.3132V38.3132Z" fill="#565656"/>
<path fill-rule="evenodd" clip-rule="evenodd" d="M38.4536 41.7011C38.4536 41.9894 38.6737 42.3321 39.0846 42.3321H43.8913C44.8284 42.3321 44.6159 40.9929 43.9697 40.9929H39.005C38.7179 40.9929 38.4536 41.3774 38.4536 41.7024V41.7011Z" fill="#565656"/>
</g>
<defs>
<clipPath id="clip0_1_3064">
<rect width="40.3478" height="40.3478" fill="white" transform="translate(24.3477 19.4783)"/>
</clipPath>
</defs>
</svg>
