<svg width="80" height="80" viewBox="0 0 80 80" fill="none" xmlns="http://www.w3.org/2000/svg">
<circle cx="40" cy="40" r="40" fill="white"/>
<path fill-rule="evenodd" clip-rule="evenodd" d="M22.9313 33.4271C23.1977 33.3553 24.7298 32.2822 25.0793 32.048L40.0041 22.2051C40.1515 22.2051 41.8952 23.4124 42.1522 23.5843L55.9397 32.7224C56.2155 32.9057 56.7936 33.3515 57.077 33.4271V33.5877C56.7955 33.6632 56.2665 34.0751 55.9869 34.2602L40.0041 44.8077L31.4913 39.2138C30.0631 38.2616 28.6726 37.334 27.2595 36.3932C26.9043 36.157 26.5699 35.9341 26.2015 35.6885C25.8293 35.4391 25.5101 35.254 25.1265 34.9989C24.76 34.7552 23.1977 33.6595 22.9294 33.5877V33.4271H22.9313ZM19.4854 33.3477C19.4854 34.196 19.6308 34.2753 20.4318 34.8062L38.4512 46.7649C40.4179 48.0761 39.9777 47.821 44.0622 45.0968L59.5329 34.8364C60.3585 34.2867 60.5267 34.2206 60.5267 33.3458C60.5267 32.6128 59.089 31.8798 58.2823 31.3414C57.4302 30.7727 56.599 30.2192 55.7337 29.643L45.4262 22.7984C44.9803 22.4999 44.5968 22.2732 44.1604 21.9803C43.5823 21.5949 40.6049 19.479 40.1685 19.479C39.3826 19.479 39.2919 19.6887 38.5003 20.2158L20.481 32.1745C20.088 32.4352 19.4872 32.7489 19.4872 33.344L19.4854 33.3477Z" fill="#EBA707"/>
<path fill-rule="evenodd" clip-rule="evenodd" d="M19.4854 46.3318C19.4854 47.1801 19.6308 47.2595 20.4318 47.7903L38.4512 59.7491C39.1445 60.2119 39.5413 60.4707 39.9078 60.518H40.159C40.6975 60.4462 41.302 59.921 42.8115 58.914L59.5311 47.8205C60.3566 47.2708 60.5248 47.2047 60.5248 46.33C60.5248 45.6782 59.941 45.2871 59.1627 45.2871C58.713 45.2871 54.8175 48.017 54.3376 48.3174L49.5768 51.4913C48.6435 52.1128 40.1515 57.7918 40.006 57.7918C39.8549 57.7918 39.0047 57.1778 38.8196 57.055L30.4844 51.5234C28.8861 50.4579 27.3369 49.3829 25.7235 48.3495C25.306 48.0813 24.9622 47.8697 24.5522 47.5976C23.9987 47.2292 21.282 45.289 20.8494 45.289C20.071 45.289 19.4872 45.6801 19.4872 46.3318H19.4854Z" fill="#EBA707"/>
<path fill-rule="evenodd" clip-rule="evenodd" d="M30.7837 47.3751C30.7837 48.144 30.9839 48.3008 31.5526 48.69L38.5427 53.3224C40.2864 54.4842 40.107 54.2235 42.5667 52.5856L48.4025 48.724C48.9863 48.3292 49.2187 48.1743 49.2187 47.377C49.2187 46.8953 48.7388 46.44 48.3402 46.3247C47.7337 46.1509 47.3672 46.4721 46.9743 46.7347C46.5397 47.0256 40.1485 51.3028 40.0012 51.3028L33.0281 46.7347C32.6351 46.4721 32.2686 46.1509 31.6622 46.3247C31.2636 46.4381 30.7837 46.8934 30.7837 47.377V47.3751Z" fill="#565656"/>
<path fill-rule="evenodd" clip-rule="evenodd" d="M52.4297 43.7684C52.4297 44.3862 52.9417 44.9699 53.7918 44.9699C54.2736 44.9699 59.144 41.6222 59.9658 41.0441C60.2832 40.8212 60.4759 40.4811 60.525 40.1335V39.7784C60.4475 39.255 60.0168 38.7979 59.1629 38.7979C58.7491 38.7979 56.0664 40.7022 55.5563 41.0422C54.9782 41.4276 54.402 41.7847 53.8088 42.1795C53.2723 42.5366 52.4297 42.9277 52.4297 43.7665V43.7684Z" fill="#565656"/>
<path fill-rule="evenodd" clip-rule="evenodd" d="M19.4828 39.8407V39.8653C19.4828 40.3848 19.5055 40.6682 20.0421 41.0441L25.2544 44.4882C25.893 44.9132 25.8325 44.9699 26.5353 44.9699C27.4516 44.9699 28.1109 43.4907 27.017 42.7236L22.6718 39.8558C21.7707 39.255 21.3721 38.7979 20.5238 38.7979C20.0326 38.7979 19.481 39.3476 19.481 39.8407H19.4828Z" fill="#565656"/>
</svg>
