<svg width="134" height="134" viewBox="0 0 134 134" fill="none" xmlns="http://www.w3.org/2000/svg">
<g clip-path="url(#clip0_1_4854)">
<path fill-rule="evenodd" clip-rule="evenodd" d="M24.6011 17.7968C24.6011 16.0796 25.982 14.2632 27.3946 13.7859C29.1729 13.1853 34.0556 13.9058 35.55 8.33205C35.9235 6.93848 35.3889 4.44944 38.7336 4.44944H54.9601C59.9117 4.44944 56.2832 9.08831 60.8232 12.1956C62.8961 13.6141 63.7528 13.0008 66.0993 13.7237C70.9399 15.2157 70.4338 24.6016 60.9793 24.6016C55.5793 24.6016 33.3732 24.982 29.6747 24.2384C26.7593 23.6525 24.6006 20.812 24.6006 17.7968H24.6011ZM-0.000487075 21.1992V123.531C-0.000487075 128.771 5.22821 134 10.4682 134H83.7498C86.3015 134 89.5972 131.974 91.2668 130.001C93.1313 127.799 93.9565 124.883 93.9565 120.914V94.4803C93.9565 90.8747 90.3441 90.9212 89.4821 92.8851C88.6011 94.8915 90.092 121.837 88.8027 125.182C87.6485 128.176 85.1937 129.551 81.1325 129.551H12.3003C7.19301 129.551 4.44895 126.807 4.44895 121.699V23.8165C4.44895 13.644 12.9812 15.7032 20.4136 15.7032C19.8991 16.6191 20.1517 19.0083 20.1517 20.1527H14.9171C11.8441 20.1527 8.89741 23.326 8.89741 26.4338V118.821C8.89741 121.941 12.0575 125.102 15.1785 125.102H78.5147C82.809 125.102 85.0577 121.312 85.0577 116.727V103.641C85.0577 99.8275 81.3009 99.6767 80.5084 101.97C80.0967 103.161 80.4521 115.372 80.3566 117.783C80.2636 120.132 79.0429 120.652 76.683 120.652H17.0111C14.179 120.652 13.3468 119.821 13.3468 116.988V28.2649C13.3468 23.7083 15.6264 24.6011 21.9834 24.6011C22.7308 24.6011 25.2747 29.0501 30.6199 29.0501H62.8115C68.9041 29.0501 70.7407 24.6011 71.9717 24.6011C81.3797 24.6011 80.3468 23.956 80.3468 32.1911C80.3468 35.0884 80.0257 59.9969 80.5833 61.2671C81.503 63.3621 85.0577 63.1218 85.0577 59.41V28.7887C85.0577 19.3161 79.246 20.1522 73.542 20.1522C73.542 17.7831 74.1362 20.0597 73.4975 15.7106C80.5108 15.7047 86.8384 14.3919 88.9031 20.2329C89.6623 22.3798 89.2457 38.5045 89.2457 42.1365C89.2457 48.8048 88.3769 51.2968 92.1244 51.2968C93.2385 51.2968 93.9565 49.6771 93.9565 48.4176V23.816C93.9565 19.4072 92.6173 15.6004 89.1356 13.1956C85.44 10.6429 81.831 10.9919 75.8979 10.9919C71.9551 10.9919 71.449 11.4452 69.1772 10.1226C68.4871 9.72073 67.2599 9.18572 66.3671 9.00656C62.8722 8.30513 63.1277 9.28851 62.4453 5.33835C61.9549 2.5003 59.3121 -0.000976562 56.0071 -0.000976562H37.4252C35.3439 -0.000976562 33.6845 1.37106 32.6439 2.54582C29.7226 5.84301 33.3316 8.34918 28.0461 8.94048C27.0442 9.05258 26.0911 9.34333 25.2032 9.76184C24.6799 10.0085 24.4582 10.1613 24.0524 10.4432C22.6265 11.4344 22.3872 10.9919 19.1047 10.9914C12.4442 10.9914 6.35991 10.0002 2.0113 15.8824C1.24966 16.9128 -0.000976562 19.5697 -0.000976562 21.1982L-0.000487075 21.1992Z" fill="white"/>
<path fill-rule="evenodd" clip-rule="evenodd" d="M62.812 101.547L70.6634 88.4612C71.6546 88.726 75.5279 92.753 76.1593 93.6958L66.3275 99.5672C65.4489 100.093 63.6373 101.327 62.8115 101.547H62.812ZM79.8236 90.8166L73.7427 84.5967L98.8642 59.345L105.013 65.3657C104.629 66.6242 93.7539 77.017 92.5821 78.1888C90.68 80.091 81.0057 90.0251 79.8231 90.8166H79.8236ZM109.921 63.8596L100.435 54.502C101.897 53.5045 114.724 40.2516 117.702 37.3543C123.928 31.296 132.519 39.14 128.023 45.5826C127.261 46.6756 126.498 47.4138 125.559 48.3526C123.477 50.4334 111.049 63.1038 109.921 63.8596ZM55.4834 106.52C55.4834 107.814 56.5451 108.875 57.8388 108.875C59.5486 108.875 60.0116 107.239 61.0469 106.57C62.3401 105.735 62.0876 107.358 65.254 105.56C68.3828 103.783 80.8452 96.4971 82.901 94.4173C87.184 90.0838 91.7074 85.8938 95.7251 81.3308C96.1984 80.7934 96.6444 80.4072 97.1627 79.8893C98.9024 78.1511 107.863 69.4285 108.613 68.308C111.548 68.9918 112.533 67.9253 114.959 65.4945L127.195 53.1281C131.933 56.3009 128.266 58.2075 122.811 63.6623C121.133 65.3403 119.647 66.8264 117.969 68.5043C117.149 69.3242 116.063 70.0932 115.687 71.2058C115.375 72.128 115.531 74.0659 118.035 74.0659C119.314 74.0659 119.885 73.1417 120.587 72.4305C123.072 69.916 131.614 61.6843 132.999 59.7175C133.95 58.367 134 57.2618 134 55.4835C134 52.5162 131.79 51.5069 130.597 49.7256C131.019 49.0962 131.261 48.9894 131.758 48.2689C132.178 47.6595 132.397 47.2107 132.7 46.5944C135.786 40.326 131.934 31.9915 124.074 30.8589C117.433 29.9019 114.085 34.439 110.772 37.7518L97.9454 50.5739C97.0056 51.501 96.1691 52.2715 96.0648 53.9274C95.9263 56.1193 96.5837 55.0875 94.284 57.3807L68.563 83.2183L58.7913 99.3572C57.2475 102.305 58.8589 101.992 57.6631 103.463C57.0405 104.229 55.4844 105.199 55.4844 106.518L55.4834 106.52Z" fill="#EBA707"/>
<path fill-rule="evenodd" clip-rule="evenodd" d="M37.9491 49.2035H71.4491C74.367 49.2035 74.9891 44.4927 70.664 44.4927H38.7343C34.4885 44.4927 35.1282 49.2035 37.9491 49.2035Z" fill="#EBA707"/>
<path fill-rule="evenodd" clip-rule="evenodd" d="M38.2107 40.3051H71.1875C73.4553 40.3051 74.7069 37.6408 72.9163 36.2208C72.4464 35.8483 71.4474 35.5938 70.6642 35.5938H38.7345C34.4133 35.5938 35.1216 40.3046 38.2112 40.3046L38.2107 40.3051Z" fill="#EBA707"/>
<path fill-rule="evenodd" clip-rule="evenodd" d="M37.9488 67.0002H71.9721C74.2041 67.0002 74.3236 62.5508 71.9721 62.5508H37.4251C35.425 62.5508 34.705 67.0002 37.9483 67.0002H37.9488Z" fill="#EBA707"/>
<path fill-rule="evenodd" clip-rule="evenodd" d="M37.9488 58.1018H71.4488C74.6153 58.1018 74.2061 53.6523 71.9721 53.6523H37.4251C35.425 53.6523 34.705 58.1018 37.9483 58.1018H37.9488Z" fill="#EBA707"/>
<path fill-rule="evenodd" clip-rule="evenodd" d="M37.4249 75.8986H71.9719C74.293 75.8986 74.4409 71.4497 71.4486 71.4497H37.9486C36.7768 71.4497 35.8463 72.2843 35.6838 73.3714C35.5306 74.392 36.4508 75.8991 37.4254 75.8991L37.4249 75.8986Z" fill="#EBA707"/>
<path fill-rule="evenodd" clip-rule="evenodd" d="M20.1513 89.2464C20.1513 91.4456 22.5223 92.4173 23.5537 93.9572C19.0411 96.9788 19.0876 100.5 22.5067 100.5C24.2228 100.5 25.704 97.9362 26.9561 97.0977C27.6517 98.1364 29.8084 100.5 31.1437 100.5C33.0194 100.5 34.8853 98.5481 32.1275 95.852C31.4139 95.154 30.8882 94.4873 30.0967 93.9572C31.2416 92.2469 33.4991 91.3218 33.4991 89.2464C33.4991 87.7686 32.5465 87.1528 31.1437 87.1528C29.4275 87.1528 27.9463 89.7168 26.6942 90.5553C26.1964 89.8117 25.5909 89.3291 24.9291 88.6565C24.0065 87.7192 23.774 87.1528 22.2453 87.1528C20.9795 87.1528 20.1518 87.9806 20.1518 89.2464H20.1513Z" fill="#EBA707"/>
<path fill-rule="evenodd" clip-rule="evenodd" d="M37.9488 20.1522H55.7456C58.799 20.1522 59.3081 15.4414 54.9604 15.4414H39.2572C37.4951 15.4414 36.2679 15.8619 35.7877 17.2324C35.3115 18.5927 36.3149 20.1527 37.9483 20.1527L37.9488 20.1522Z" fill="white"/>
<path fill-rule="evenodd" clip-rule="evenodd" d="M37.9492 93.6956C37.9492 95.2541 39.1005 96.051 39.7814 96.051H56.2697C58.5561 96.051 58.936 91.6021 56.0079 91.6021H40.0428C38.7769 91.6021 37.9492 92.4298 37.9492 93.6956Z" fill="#EBA707"/>
<path fill-rule="evenodd" clip-rule="evenodd" d="M71.4492 106.782V114.372C71.4492 116.625 75.8982 116.746 75.8982 114.372V107.044C75.8982 103.933 71.4492 104.637 71.4492 106.782Z" fill="white"/>
<path fill-rule="evenodd" clip-rule="evenodd" d="M20.1514 46.324C20.1514 49.8434 22.0726 49.2031 26.6943 49.2031C29.6876 49.2031 30.3116 44.4923 25.9092 44.4923C24.2934 44.4923 20.1514 44.2074 20.1514 46.3245V46.324Z" fill="#EBA707"/>
<path fill-rule="evenodd" clip-rule="evenodd" d="M20.1514 37.4259C20.1514 40.8391 22.1074 40.3051 26.1711 40.3051C30.0527 40.3051 30.0527 35.5943 26.1711 35.5943C24.6458 35.5943 20.1514 35.1909 20.1514 37.4264V37.4259Z" fill="#EBA707"/>
<path fill-rule="evenodd" clip-rule="evenodd" d="M20.1519 55.2232C20.1519 58.8053 21.9199 58.1024 27.2181 58.1024C29.3635 58.1024 30.0664 53.6529 26.9562 53.6529C24.4589 53.6529 20.1514 53.0093 20.1514 55.2232H20.1519Z" fill="#EBA707"/>
<path fill-rule="evenodd" clip-rule="evenodd" d="M20.1514 73.5431C20.1514 76.6088 22.8039 75.8985 26.9562 75.8985C30.0664 75.8985 29.363 71.4496 27.2181 71.4496C23.5646 71.4496 20.1519 70.7301 20.1519 73.5431H20.1514Z" fill="#EBA707"/>
<path fill-rule="evenodd" clip-rule="evenodd" d="M20.1519 64.6446C20.1519 67.7357 22.8714 67 27.2181 67C29.504 67 29.8843 62.5506 26.9562 62.5506C23.4701 62.5506 20.1514 61.8555 20.1514 64.6441L20.1519 64.6446Z" fill="#EBA707"/>
</g>
<defs>
<clipPath id="clip0_1_4854">
<rect width="134" height="134" fill="white"/>
</clipPath>
</defs>
</svg>
