<svg width="50" height="50" viewBox="0 0 50 50" fill="none" xmlns="http://www.w3.org/2000/svg">
<circle cx="25" cy="25" r="25" fill="#EBA707"/>
<path d="M25.4378 18.7158C25.4378 18.491 25.3486 18.2755 25.1896 18.1166C25.0307 17.9577 24.8152 17.8684 24.5904 17.8684C24.3657 17.8684 24.1501 17.9577 23.9912 18.1166C23.8323 18.2755 23.743 18.491 23.743 18.7158V26.1054L28.7428 29.4951C28.8349 29.5644 28.9402 29.6142 29.0522 29.6414C29.1642 29.6686 29.2805 29.6726 29.3941 29.6533C29.5077 29.634 29.6162 29.5918 29.7129 29.5291C29.8097 29.4665 29.8926 29.3847 29.9567 29.2889C30.0207 29.1931 30.0646 29.0853 30.0855 28.9719C30.1065 28.8586 30.1041 28.7422 30.0785 28.6298C30.0529 28.5175 30.0047 28.4115 29.9368 28.3184C29.8689 28.2253 29.7827 28.147 29.6835 28.0884L25.4463 25.2156L25.4378 18.7158Z" fill="white"/>
<path d="M37.4723 20.463C36.9573 20.6988 36.4128 20.8641 35.8537 20.9545C36.748 23.5005 36.7508 26.2748 35.8618 28.8227C34.9728 31.3705 33.2447 33.5409 30.9606 34.9779C28.6766 36.4149 25.9721 37.0335 23.2905 36.7321C20.6088 36.4308 18.1091 35.2274 16.201 33.3193C14.2928 31.4112 13.0895 28.9114 12.7882 26.2298C12.4868 23.5482 13.1053 20.8437 14.5424 18.5597C15.9794 16.2756 18.1497 14.5475 20.6976 13.6585C23.2455 12.7695 26.0198 12.7723 28.5658 13.6666C28.6562 13.1074 28.8215 12.563 29.0573 12.048C26.1475 11.0419 22.9824 11.0521 20.0792 12.077C17.1759 13.1019 14.706 15.081 13.0727 17.691C11.4395 20.301 10.7395 23.3876 11.087 26.4468C11.4346 29.506 12.8091 32.357 14.9862 34.5341C17.1633 36.7112 20.0143 38.0857 23.0735 38.4333C26.1327 38.7808 29.2193 38.0808 31.8293 36.4476C34.4393 34.8143 36.4183 32.3444 37.4433 29.4411C38.4682 26.5378 38.4784 23.3728 37.4723 20.463V20.463Z" fill="white"/>
<path d="M24.6593 15.0127C22.2321 15.0178 19.8932 15.9238 18.096 17.5551C16.2987 19.1864 15.171 21.4268 14.9315 23.8422C14.692 26.2576 15.3576 28.6758 16.7995 30.6284C18.2414 32.5809 20.3567 33.9286 22.7357 34.4104L22.9645 33.0799C21.7193 32.8595 20.5392 32.3632 19.5108 31.6274C18.4824 30.8916 17.6317 29.935 17.021 28.8277C16.4104 27.7204 16.0553 26.4904 15.9817 25.228C15.9082 23.9656 16.1182 22.7028 16.5961 21.5321C17.0741 20.3614 17.808 19.3125 18.7441 18.4623C19.6802 17.6121 20.7946 16.9822 22.0058 16.6187C23.217 16.2552 24.4941 16.1674 25.7436 16.3616C26.9931 16.5559 28.1833 17.0274 29.227 17.7414C28.9075 17.1506 28.6844 16.5127 28.566 15.8516C27.3361 15.304 26.0056 15.0183 24.6593 15.0127V15.0127Z" fill="white"/>
<path d="M34.7631 19.4743C37.1032 19.4743 39.0002 17.5773 39.0002 15.2372C39.0002 12.897 37.1032 11 34.7631 11C32.4229 11 30.5259 12.897 30.5259 15.2372C30.5259 17.5773 32.4229 19.4743 34.7631 19.4743Z" fill="white"/>
</svg>
