<svg width="50" height="50" viewBox="0 0 50 50" fill="none" xmlns="http://www.w3.org/2000/svg">
<circle cx="25" cy="25" r="25" fill="#EBA707"/>
<path d="M31 36.18L28.41 33.59L27 35L31 39L39 31L37.59 29.59L31 36.18Z" fill="white"/>
<path d="M24 37H17V13H25V19C25.0016 19.5299 25.2128 20.0377 25.5875 20.4125C25.9623 20.7872 26.4701 20.9984 27 21H33V27H35V19C35.0035 18.8686 34.9785 18.7379 34.9268 18.6171C34.875 18.4963 34.7976 18.3881 34.7 18.3L27.7 11.3C27.612 11.2023 27.5038 11.125 27.3829 11.0732C27.2621 11.0214 27.1314 10.9964 27 11H17C16.4701 11.0016 15.9623 11.2128 15.5875 11.5875C15.2128 11.9623 15.0016 12.4701 15 13V37C15.0016 37.5299 15.2128 38.0377 15.5875 38.4125C15.9623 38.7872 16.4701 38.9984 17 39H24V37ZM27 13.4L32.6 19H27V13.4Z" fill="white"/>
</svg>
