<svg width="50" height="50" viewBox="0 0 50 50" fill="none" xmlns="http://www.w3.org/2000/svg">
<circle cx="25" cy="25" r="25" fill="#EBA707"/>
<path d="M25.5 10C24.807 10 24.114 10.2375 23.5232 10.6625L21.6797 11.9517L19.5652 12.2305H19.5318L19.4963 12.264C18.801 12.4212 18.1644 12.7733 17.6605 13.2795C17.1566 13.7857 16.8062 14.4252 16.6499 15.1235L16.6166 15.1569V15.1926L16.339 17.354L15.0552 19.0269L15.0196 19.0603V19.096C14.2444 20.3429 14.2089 21.9511 15.0552 23.1388L16.3712 24.989L16.7199 26.9051L13.1439 32.3776L12 34.084H17.3096L18.5934 37.0818L19.393 39L20.5369 37.2569L24.0441 31.9594C24.9836 32.3497 26.0497 32.3832 26.9582 31.9594L30.4642 37.2569L31.6081 38.9967L32.4077 37.0784L33.6904 34.0828H39L37.8561 32.3743L34.3845 27.0779L34.6621 24.9868L35.946 23.1399L35.9815 23.1065V23.073C36.7567 21.8239 36.7922 20.2537 35.946 19.0637L34.6621 17.2157L34.2457 15.1235H34.279C34.279 15.0956 34.249 15.0789 34.2457 15.0532C34.0458 13.5956 32.8941 12.4101 31.436 12.2316H31.4004L29.3181 11.9528L27.4779 10.6636C26.9035 10.2409 26.212 10.0089 25.5 10V10ZM25.5 12.264C25.7554 12.264 26.0086 12.342 26.1941 12.4759L28.1709 13.9034L28.4152 14.0774L28.6929 14.1131L31.1228 14.461H31.1561C31.6536 14.5168 32.0046 14.8681 32.059 15.3677V15.4369L32.511 17.9127L32.5443 18.1548L32.7187 18.3644L34.1402 20.3496C34.4067 20.7232 34.44 21.3466 34.1069 21.8842L32.7187 23.8359L32.5454 24.0812L32.5099 24.36L32.1634 26.798V26.8314C32.1461 27.006 32.0866 27.1737 31.9901 27.3199L31.9202 27.3556V27.3913C31.7547 27.5897 31.5181 27.7147 31.2616 27.7393H31.1927L28.6607 28.1932L28.383 28.2266L28.172 28.4017L26.1952 29.8293C25.8254 30.0969 25.1691 30.1304 24.6338 29.7958L22.828 28.4017L22.6192 28.2277L22.3082 28.1921L19.8772 27.8441H19.8417C19.6845 27.8312 19.5329 27.78 19.3999 27.6948C19.2669 27.6097 19.1567 27.4933 19.0787 27.3556C19.0043 27.2272 18.9566 27.0849 18.9388 26.9374V26.8682L18.4879 24.3255L18.4524 24.0466L18.2791 23.8347L16.8576 21.8496C16.5911 21.4782 16.5577 20.8191 16.8909 20.2815L18.2791 18.4681L18.4524 18.2585L18.4857 17.9462L18.8 15.6097C18.8022 15.5941 18.8288 15.593 18.8333 15.5763C18.903 15.308 19.0426 15.0633 19.2378 14.8672C19.433 14.6712 19.6767 14.531 19.9439 14.461C19.9605 14.4566 19.9616 14.4298 19.9772 14.4276L22.3038 14.1131L22.5814 14.0774L22.8258 13.9034L24.8026 12.4759C24.988 12.342 25.2423 12.264 25.4967 12.264H25.5ZM33.1695 29.2382L34.8709 31.8523H32.1967L31.9191 32.5494L31.1572 34.326L28.7973 30.7014L29.317 30.3177L31.5026 29.933V29.9664C31.5304 29.9664 31.547 29.9363 31.5726 29.933C32.1566 29.8479 32.7073 29.6072 33.1673 29.2359L33.1695 29.2382ZM17.8305 29.2716C18.3047 29.6977 18.9044 29.9943 19.5652 30.0746H19.5985L21.7174 30.3534L22.2027 30.7371L19.8439 34.326L19.0809 32.5494L18.8033 31.8512H16.1269L17.8282 29.2716H17.8305Z" fill="white"/>
</svg>
