<svg width="50" height="50" viewBox="0 0 50 50" fill="none" xmlns="http://www.w3.org/2000/svg">
<circle cx="25" cy="25" r="25" fill="#EBA707"/>
<path d="M38.5003 26.4707V31.1472C38.5003 33.1737 33.615 35.8237 27.5885 35.8237C21.5621 35.8237 16.6767 33.1737 16.6767 31.1472V27.2501" stroke="white" stroke-width="1.5" stroke-linecap="round" stroke-linejoin="round"/>
<path d="M17.1351 27.6528C18.4835 29.4423 22.6534 31.1212 27.5887 31.1212C33.6151 31.1212 38.5005 28.6177 38.5005 26.4665C38.5005 25.2584 36.9619 23.935 34.5473 23.0059" stroke="white" stroke-width="1.5" stroke-linecap="round" stroke-linejoin="round"/>
<path d="M33.8236 18.676V23.3525C33.8236 25.3789 28.9383 28.029 22.9118 28.029C16.8854 28.029 12 25.3789 12 23.3525V18.676" stroke="white" stroke-width="1.5" stroke-linecap="round" stroke-linejoin="round"/>
<path fill-rule="evenodd" clip-rule="evenodd" d="M22.9118 23.328C28.9383 23.328 33.8236 20.8246 33.8236 18.6734C33.8236 16.5206 28.9383 14 22.9118 14C16.8854 14 12 16.5206 12 18.6734C12 20.8246 16.8854 23.328 22.9118 23.328Z" stroke="white" stroke-width="1.5" stroke-linecap="round" stroke-linejoin="round"/>
</svg>
