<svg width="50" height="50" viewBox="0 0 50 50" fill="none" xmlns="http://www.w3.org/2000/svg">
<circle cx="25" cy="25" r="25" fill="#EBA707"/>
<path d="M21.7812 13C21.0602 13 20.3687 13.2918 19.8588 13.8111C19.3489 14.3304 19.0625 15.0348 19.0625 15.7692V16.6923H12.7188C11.9977 16.6923 11.3062 16.9841 10.7963 17.5034C10.2864 18.0227 10 18.7271 10 19.4615V34.2308C10 34.9652 10.2864 35.6696 10.7963 36.1889C11.3062 36.7082 11.9977 37 12.7188 37H36.2812C37.0023 37 37.6938 36.7082 38.2037 36.1889C38.7136 35.6696 39 34.9652 39 34.2308V19.4615C39 18.7271 38.7136 18.0227 38.2037 17.5034C37.6938 16.9841 37.0023 16.6923 36.2812 16.6923H29.9375V15.7692C29.9375 15.0348 29.6511 14.3304 29.1412 13.8111C28.6313 13.2918 27.9398 13 27.2188 13H21.7812ZM21.7812 14.8462H27.2188C27.4591 14.8462 27.6896 14.9434 27.8596 15.1165C28.0295 15.2896 28.125 15.5244 28.125 15.7692V16.6923H20.875V15.7692C20.875 15.5244 20.9705 15.2896 21.1404 15.1165C21.3104 14.9434 21.5409 14.8462 21.7812 14.8462V14.8462ZM25.1996 27.6105L37.1875 24.3557V34.2308C37.1875 34.4756 37.092 34.7104 36.9221 34.8835C36.7521 35.0566 36.5216 35.1538 36.2812 35.1538H12.7188C12.4784 35.1538 12.2479 35.0566 12.0779 34.8835C11.908 34.7104 11.8125 34.4756 11.8125 34.2308V24.3538L23.8004 27.6105C24.2588 27.7348 24.7412 27.7348 25.1996 27.6105V27.6105ZM12.7188 18.5385H36.2812C36.5216 18.5385 36.7521 18.6357 36.9221 18.8088C37.092 18.9819 37.1875 19.2167 37.1875 19.4615V22.4449L24.7338 25.8271C24.5806 25.8687 24.4194 25.8687 24.2662 25.8271L11.8125 22.4449V19.4615C11.8125 19.2167 11.908 18.9819 12.0779 18.8088C12.2479 18.6357 12.4784 18.5385 12.7188 18.5385V18.5385Z" fill="white"/>
</svg>
