<svg width="50" height="50" viewBox="0 0 50 50" fill="none" xmlns="http://www.w3.org/2000/svg">
<circle cx="25" cy="25" r="25" fill="#EBA707"/>
<path d="M15.5191 31.3836C15.6943 31.5595 15.8285 31.7718 15.9122 32.0054C15.9959 32.239 16.0271 32.4883 16.0034 32.7353C15.8848 33.8787 15.66 35.0086 15.3318 36.1103C17.6859 35.5652 19.1236 34.9341 19.7767 34.6034C20.1471 34.4158 20.5737 34.3713 20.9748 34.4785C22.1247 34.7851 23.3099 34.9394 24.5 34.9375C31.2433 34.9375 36.3125 30.2007 36.3125 24.8125C36.3125 19.426 31.2433 14.6875 24.5 14.6875C17.7567 14.6875 12.6875 19.426 12.6875 24.8125C12.6875 27.2898 13.7287 29.5881 15.5191 31.3836ZM14.6872 37.9733C14.2874 38.0526 13.8862 38.1251 13.484 38.191C13.1465 38.245 12.89 37.894 13.0233 37.5801C13.1731 37.2268 13.3105 36.8682 13.4351 36.5052L13.4401 36.4883C13.8586 35.2733 14.1995 33.8761 14.3244 32.575C12.2538 30.4994 11 27.7825 11 24.8125C11 18.2886 17.0446 13 24.5 13C31.9554 13 38 18.2886 38 24.8125C38 31.3364 31.9554 36.625 24.5 36.625C23.1629 36.6268 21.8314 36.4532 20.5394 36.1086C19.6619 36.5524 17.7736 37.3607 14.6872 37.9733V37.9733Z" fill="white"/>
<path d="M17.75 20.5938C17.75 20.37 17.8389 20.1554 17.9971 19.9971C18.1554 19.8389 18.37 19.75 18.5938 19.75H30.4062C30.63 19.75 30.8446 19.8389 31.0029 19.9971C31.1611 20.1554 31.25 20.37 31.25 20.5938C31.25 20.8175 31.1611 21.0321 31.0029 21.1904C30.8446 21.3486 30.63 21.4375 30.4062 21.4375H18.5938C18.37 21.4375 18.1554 21.3486 17.9971 21.1904C17.8389 21.0321 17.75 20.8175 17.75 20.5938ZM17.75 24.8125C17.75 24.5887 17.8389 24.3741 17.9971 24.2159C18.1554 24.0576 18.37 23.9688 18.5938 23.9688H30.4062C30.63 23.9688 30.8446 24.0576 31.0029 24.2159C31.1611 24.3741 31.25 24.5887 31.25 24.8125C31.25 25.0363 31.1611 25.2509 31.0029 25.4091C30.8446 25.5674 30.63 25.6562 30.4062 25.6562H18.5938C18.37 25.6562 18.1554 25.5674 17.9971 25.4091C17.8389 25.2509 17.75 25.0363 17.75 24.8125ZM17.75 29.0312C17.75 28.8075 17.8389 28.5929 17.9971 28.4346C18.1554 28.2764 18.37 28.1875 18.5938 28.1875H25.3438C25.5675 28.1875 25.7821 28.2764 25.9404 28.4346C26.0986 28.5929 26.1875 28.8075 26.1875 29.0312C26.1875 29.255 26.0986 29.4696 25.9404 29.6279C25.7821 29.7861 25.5675 29.875 25.3438 29.875H18.5938C18.37 29.875 18.1554 29.7861 17.9971 29.6279C17.8389 29.4696 17.75 29.255 17.75 29.0312Z" fill="white"/>
</svg>
