<svg width="160" height="120" viewBox="0 0 160 120" fill="none" xmlns="http://www.w3.org/2000/svg">
<path d="M100 0C72.0934 0 48.5759 19.1506 41.8984 45H20V36.875C20 34.4625 18.0375 32.5 15.625 32.5H2.5C1.11937 32.5 0 33.6194 0 35V85C0 86.3806 1.11937 87.5 2.5 87.5H15.625C18.0375 87.5 20 85.5375 20 83.125V75H41.8984C48.5759 100.849 72.0934 120 100 120C133.084 120 160 93.0841 160 60C160 26.9159 133.084 0 100 0ZM15 82.5H5V37.5H15V82.5ZM20 70V50H40.8378C40.2897 53.2534 40 56.5931 40 60C40 63.4069 40.2897 66.7466 40.8378 70H20ZM100 115C69.6728 115 45 90.3272 45 60C45 29.6728 69.6728 5 100 5C130.327 5 155 29.6728 155 60C155 90.3272 130.327 115 100 115Z" fill="white"/>
<path d="M55 60C55 35.1869 75.1869 15 100 15C108.396 15 116.585 17.3266 123.682 21.7278C124.856 22.4553 126.397 22.0941 127.124 20.9206C127.852 19.7472 127.49 18.2059 126.317 17.4784C118.428 12.5859 109.328 10 100 10C72.43 10 50 32.43 50 60C50 71.4812 53.9888 82.6959 61.2319 91.5781C61.7259 92.1841 62.4453 92.4984 63.1709 92.4984C63.7263 92.4984 64.2853 92.3141 64.7494 91.9356C65.8194 91.0631 65.9797 89.4881 65.1069 88.4184C58.5894 80.4259 55 70.3334 55 60Z" fill="#EBA707"/>
<path d="M142.524 33.6849C141.796 32.5115 140.255 32.1499 139.082 32.8777C137.908 33.6052 137.547 35.1465 138.274 36.3199C142.675 43.4165 145.001 51.6049 145.001 59.9996C145.001 84.8127 124.814 105 100.001 105C89.6654 105 79.5714 101.409 71.5782 94.889C70.5082 94.0161 68.9332 94.1761 68.0607 95.2461C67.1882 96.3161 67.3479 97.8908 68.4179 98.7636C77.3007 106.009 88.5173 110 100.001 110C127.571 110 150.001 87.5696 150.001 59.9996C150.001 50.673 147.415 41.5733 142.524 33.6849Z" fill="#EBA707"/>
<path d="M133.159 29.578C133.652 30.1152 134.325 30.3874 135.001 30.3874C135.605 30.3874 136.211 30.1696 136.691 29.7289C137.708 28.7952 137.776 27.2136 136.842 26.1967C135.877 25.1458 134.856 24.1242 133.806 23.1605C132.789 22.2267 131.207 22.2939 130.274 23.3114C129.34 24.3283 129.407 25.9099 130.425 26.8436C131.37 27.7114 132.29 28.6314 133.159 29.578Z" fill="#EBA707"/>
<path d="M92.5 47.5V30C92.5 28.6194 91.3806 27.5 90 27.5C88.6194 27.5 87.5 28.6194 87.5 30V47.5C87.5 48.8806 88.6194 50 90 50C91.3806 50 92.5 48.8806 92.5 47.5Z" fill="white"/>
<path d="M90 92.5C91.3806 92.5 92.5 91.3806 92.5 90V57.1834C96.8081 56.0706 100 52.1509 100 47.5V30C100 28.6194 98.8806 27.5 97.5 27.5C96.1194 27.5 95 28.6194 95 30V47.5C95 50.2569 92.7569 52.5 90 52.5C87.2431 52.5 85 50.2569 85 47.5V30C85 28.6194 83.8806 27.5 82.5 27.5C81.1194 27.5 80 28.6194 80 30V47.5C80 52.1513 83.1919 56.0706 87.5 57.1834V90C87.5 91.3806 88.6194 92.5 90 92.5Z" fill="white"/>
<path d="M105 30V90C105 91.3806 106.119 92.5 107.5 92.5C108.881 92.5 110 91.3806 110 90V67.5H117.5C118.881 67.5 120 66.3806 120 65V40C120 33.1075 114.392 27.5 107.5 27.5C106.119 27.5 105 28.6194 105 30ZM115 40V62.5H110V32.93C112.91 33.9622 115 36.7409 115 40Z" fill="white"/>
</svg>
